<!-- Generator: Adobe Illustrator 21.1.0, SVG Export Plug-In  -->
<svg version="1.1"
	 xmlns="http://www.w3.org/2000/svg" xmlns:xlink="http://www.w3.org/1999/xlink" xmlns:a="http://ns.adobe.com/AdobeSVGViewerExtensions/3.0/"
	 x="0px" y="0px" width="24.2px" height="21.1px" viewBox="0 0 24.2 21.1" style="enable-background:new 0 0 24.2 21.1;"
	 xml:space="preserve">
<style type="text/css">
	.st0{fill:#FFFFFF;}
</style>
<defs>
</defs>
<path class="st0" d="M0,9.9C0.1,9.5,0.1,9,0.2,8.6c0.6-3,2.1-5.3,4.6-6.9c1.9-1.3,4-1.8,6.3-1.7c4.2,0.2,8,3,9.4,6.9
	C20.8,7.7,21,8.6,21,9.5c0,0.1,0,0.1,0,0.2c1,0,2.1,0,3.2,0c-0.1,0.1-0.1,0.2-0.2,0.3c-1.6,1.6-3.2,3.2-4.8,4.8
	c-0.3,0.3-0.6,0.3-0.9,0c-1.6-1.6-3.2-3.2-4.8-4.7c-0.1-0.1-0.1-0.1-0.2-0.3c1.1,0,2.1,0,3.2,0C16.5,9,16.3,8.4,16,7.8
	c-1.2-2.3-3.8-3.7-6.3-3.3C7,5,4.9,7,4.5,9.7C4,13,6.4,16.1,9.7,16.6c0.1,0,0.3,0,0.4,0c0.3,0,0.4,0.1,0.4,0.5c0,1,0,2,0,3
	c0,0.2,0,0.3,0,0.5c0,0.3-0.1,0.4-0.5,0.4C8.5,21,7,20.6,5.7,19.9c-2.9-1.6-4.7-4-5.4-7.2c-0.1-0.4-0.1-0.8-0.2-1.2
	c0-0.1,0-0.2,0-0.3C0,10.8,0,10.3,0,9.9z"/>
</svg>
