<!-- Generator: Adobe Illustrator 21.1.0, SVG Export Plug-In  -->
<svg version="1.1"
	 xmlns="http://www.w3.org/2000/svg" xmlns:xlink="http://www.w3.org/1999/xlink" xmlns:a="http://ns.adobe.com/AdobeSVGViewerExtensions/3.0/"
	 x="0px" y="0px" width="18.7px" height="18.7px" viewBox="0 0 18.7 18.7" style="enable-background:new 0 0 18.7 18.7;"
	 xml:space="preserve">
<style type="text/css">
	.st0{fill:#FFFFFF;}
</style>
<defs>
</defs>
<g>
	<path class="st0" d="M3.3,16.3c-0.3,0-0.5-0.1-0.7-0.3c-0.4-0.4-0.4-1,0-1.4L14.4,2.7c0.4-0.4,1-0.4,1.4,0c0.4,0.4,0.4,1,0,1.4
		L4,16C3.8,16.2,3.6,16.3,3.3,16.3z"/>
	<path class="st0" d="M9.4,18.7C4.2,18.7,0,14.5,0,9.4C0,4.2,4.2,0,9.4,0s9.4,4.2,9.4,9.4C18.7,14.5,14.5,18.7,9.4,18.7z M9.4,2
		C5.3,2,2,5.3,2,9.4c0,4.1,3.3,7.4,7.4,7.4s7.4-3.3,7.4-7.4C16.7,5.3,13.4,2,9.4,2z"/>
</g>
</svg>
