<svg xmlns="http://www.w3.org/2000/svg" viewBox="0 0 23 23"><defs><style>.cls-1{fill:none;stroke:#fff;stroke-linecap:round;stroke-linejoin:round;}</style></defs><title>icon-campaign</title><g id="Layer_2" data-name="Layer 2"><g id="text"><path class="cls-1" d="M15.5,11.5a4,4,0,1,1-1.17-2.83A4,4,0,0,1,15.5,11.5Z"/><line class="cls-1" x1="11.5" y1="7.5" x2="11.5" y2="0.5"/><polyline class="cls-1" points="9.5 2.5 11.5 0.5 13.5 2.5"/><line class="cls-1" x1="11.5" y1="15.5" x2="11.5" y2="22.5"/><polyline class="cls-1" points="13.5 20.5 11.5 22.5 9.5 20.5"/><line class="cls-1" x1="15.5" y1="11.5" x2="22.5" y2="11.5"/><polyline class="cls-1" points="20.5 9.5 22.5 11.5 20.5 13.5"/><line class="cls-1" x1="7.5" y1="11.5" x2="0.5" y2="11.5"/><polyline class="cls-1" points="2.5 13.5 0.5 11.5 2.5 9.5"/><line class="cls-1" x1="17.86" y1="5.14" x2="14.33" y2="8.67"/><polyline class="cls-1" points="15.04 5.14 17.86 5.14 17.86 7.96"/><line class="cls-1" x1="8.67" y1="14.33" x2="5.14" y2="17.86"/><polyline class="cls-1" points="7.96 17.86 5.14 17.86 5.14 15.04"/><line class="cls-1" x1="17.86" y1="17.86" x2="14.33" y2="14.33"/><polyline class="cls-1" points="17.86 15.04 17.86 17.86 15.04 17.86"/><line class="cls-1" x1="8.67" y1="8.67" x2="5.14" y2="5.14"/><polyline class="cls-1" points="5.14 7.96 5.14 5.14 7.96 5.14"/></g></g></svg>