<!-- Generator: Adobe Illustrator 22.1.0, SVG Export Plug-In  -->
<svg version="1.1"
	 xmlns="http://www.w3.org/2000/svg" xmlns:xlink="http://www.w3.org/1999/xlink" xmlns:a="http://ns.adobe.com/AdobeSVGViewerExtensions/3.0/"
	 x="0px" y="0px" width="26px" height="26px" viewBox="0 0 26 26" style="enable-background:new 0 0 26 26;" xml:space="preserve">
<style type="text/css">
	.st0{opacity:0;fill:#FF0000;}
	.st1{fill:none;stroke:#FFFFFF;stroke-width:1.2;stroke-linecap:round;stroke-linejoin:round;stroke-miterlimit:10;}
	.st2{fill:#FFFFFF;stroke:#FFFFFF;stroke-width:0.25;stroke-miterlimit:10;}
</style>
<defs>
</defs>
<rect class="st0" width="26" height="26"/>
<g>
	<g>
		<polyline class="st1" points="1.2,12.3 11.6,2.3 22,12.3 		"/>
		<polyline class="st1" points="3.9,9.9 3.9,22.3 9.3,22.3 11.4,22.3 		"/>
		<line class="st1" x1="19.3" y1="15.3" x2="19.3" y2="9.9"/>

			<rect x="11.4" y="15.3" transform="matrix(1 -6.257438e-03 6.257438e-03 1 -0.1214 0.1137)" class="st1" width="13.4" height="8.4"/>
	</g>
	<g>
		<path class="st2" d="M16.2,18.1c1,0,1.7,0.7,1.7,1.7c0,1-0.8,1.7-1.7,1.7c-1,0-1.7-0.7-1.7-1.7C14.5,18.8,15.2,18.1,16.2,18.1z
			 M16.2,21.1c0.7,0,1.3-0.6,1.3-1.3c0-0.7-0.6-1.3-1.3-1.3c-0.7,0-1.3,0.6-1.3,1.3C14.9,20.6,15.5,21.1,16.2,21.1z"/>
		<path class="st2" d="M21,18.6h-1.6v2.9h-0.4v-2.9h-0.4v-0.4h0.4v-0.1c0-1.1,0.8-1.2,1.1-1.2c0.1,0,0.2,0,0.2,0v0.4
			c0,0-0.1,0-0.2,0c-0.3,0-0.7,0.1-0.7,0.8v0.1H21v-0.1c0-1.1,0.8-1.2,1.1-1.2c0.1,0,0.2,0,0.2,0v0.4c0,0-0.1,0-0.2,0
			c-0.3,0-0.7,0.1-0.7,0.8v0.1h0.8v0.4h-0.8v2.9H21V18.6z"/>
	</g>
</g>
</svg>
