<svg xmlns="http://www.w3.org/2000/svg" viewBox="0 0 21 17.02"><defs><style>.cls-1,.cls-3{fill:#fff;}.cls-1{opacity:0.6;}.cls-2,.cls-4{fill:none;}.cls-2,.cls-3{stroke:#fff;}.cls-2,.cls-3,.cls-4{stroke-linecap:round;stroke-linejoin:round;}.cls-4{stroke:#56636e;}</style></defs><title>Asset 1</title><g id="Layer_2" data-name="Layer 2"><g id="text"><path class="cls-1" d="M7.81,11.77l1,3.29A1.52,1.52,0,0,1,7.75,17a1.55,1.55,0,0,1-.63.06,1.58,1.58,0,0,1-1.37-1.1l-1.51-5"/><line class="cls-2" x1="17.89" y1="10.93" x2="19.63" y2="11.8"/><path class="cls-3" d="M5.72,4H4a3.48,3.48,0,0,0,0,7H5.72l8.7,3.48V.5Z"/><line class="cls-4" x1="9.36" y1="4.39" x2="12.67" y2="3.07"/><line class="cls-4" x1="5.72" y1="3.98" x2="5.72" y2="10.93"/><path class="cls-2" d="M14.41,10.07a2.61,2.61,0,0,0,0-5.22Z"/><line class="cls-2" x1="18.76" y1="7.46" x2="20.5" y2="7.46"/><line class="cls-2" x1="17.89" y1="3.98" x2="19.63" y2="3.11"/></g></g></svg>