<!-- Generator: Adobe Illustrator 21.1.0, SVG Export Plug-In  -->
<svg version="1.1"
	 xmlns="http://www.w3.org/2000/svg" xmlns:xlink="http://www.w3.org/1999/xlink" xmlns:a="http://ns.adobe.com/AdobeSVGViewerExtensions/3.0/"
	 x="0px" y="0px" width="24px" height="17.7px" viewBox="0 0 24 17.7" style="enable-background:new 0 0 24 17.7;"
	 xml:space="preserve">
<style type="text/css">
	.st0{fill:#FFFFFF;}
</style>
<defs>
</defs>
<g>
	<path class="st0" d="M23.3,17.7c-7.5,0-15,0-22.5,0C0.2,17.5,0,17.1,0,16.5C0,12.3,0,8.1,0,4c0-0.7,0.4-1,1-1c1.9,0,3.9,0,5.8,0
		c0.1,0,0.2,0,0.3,0c0.1-0.4,0.1-0.8,0.1-1.1c0-0.3,0.1-0.6,0.2-0.9C7.6,0.4,8,0.1,8.5,0c2.3,0,4.6,0,7,0c0,0,0,0,0.1,0
		c0.7,0.2,1.1,0.7,1.1,1.4c0,0.5,0.1,1,0.2,1.5c0.1,0,0.2,0,0.3,0c1.9,0,3.7,0,5.6,0c0.6,0,1,0.2,1.3,0.7c0,4.5,0,8.9,0,13.4
		C23.8,17.3,23.6,17.6,23.3,17.7z M18.1,10.3c0-3.3-2.7-6.1-6-6.1c-3.4,0-6.2,2.7-6.2,6.1c0,3.4,2.7,6.2,6.1,6.2
		C15.4,16.4,18.1,13.7,18.1,10.3z M17.7,5.5c1.7,0,3.5,0,5.2,0c0-0.5,0-1,0-1.5c-1.7,0-3.5,0-5.2,0C17.7,4.5,17.7,5,17.7,5.5z"/>
	<path class="st0" d="M15.8,10.3c0,2.1-1.7,3.8-3.7,3.7c-2.1,0-3.7-1.7-3.7-3.8c0-2.1,1.7-3.7,3.8-3.7C14.1,6.6,15.8,8.3,15.8,10.3z
		"/>
</g>
</svg>
