<!-- Generator: Adobe Illustrator 21.1.0, SVG Export Plug-In  -->
<svg version="1.1"
	 xmlns="http://www.w3.org/2000/svg" xmlns:xlink="http://www.w3.org/1999/xlink" xmlns:a="http://ns.adobe.com/AdobeSVGViewerExtensions/3.0/"
	 x="0px" y="0px" width="23px" height="23px" viewBox="0 0 23 23" style="enable-background:new 0 0 23 23;" xml:space="preserve">
<style type="text/css">
	.st0{fill:#FFFFFF;}
</style>
<defs>
</defs>
<g>
	<path class="st0" d="M11.5,23c-0.3,0-0.5-0.2-0.5-0.5v-22C11,0.2,11.2,0,11.5,0S12,0.2,12,0.5v22C12,22.8,11.8,23,11.5,23z"/>
	<path class="st0" d="M22.5,12h-22C0.2,12,0,11.8,0,11.5S0.2,11,0.5,11h22c0.3,0,0.5,0.2,0.5,0.5S22.8,12,22.5,12z"/>
	<path class="st0" d="M11.5,21C6.3,21,2,16.7,2,11.5S6.3,2,11.5,2S21,6.3,21,11.5S16.7,21,11.5,21z M11.5,3C6.8,3,3,6.8,3,11.5
		S6.8,20,11.5,20s8.5-3.8,8.5-8.5S16.2,3,11.5,3z"/>
	<path class="st0" d="M11.5,15C9.6,15,8,13.4,8,11.5S9.6,8,11.5,8S15,9.6,15,11.5S13.4,15,11.5,15z M11.5,9C10.1,9,9,10.1,9,11.5
		s1.1,2.5,2.5,2.5s2.5-1.1,2.5-2.5S12.9,9,11.5,9z"/>
</g>
</svg>
