<!-- Generator: Adobe Illustrator 21.1.0, SVG Export Plug-In  -->
<svg version="1.1"
	 xmlns="http://www.w3.org/2000/svg" xmlns:xlink="http://www.w3.org/1999/xlink" xmlns:a="http://ns.adobe.com/AdobeSVGViewerExtensions/3.0/"
	 x="0px" y="0px" width="36.3px" height="30.5px" viewBox="0 0 36.3 30.5" style="enable-background:new 0 0 36.3 30.5;"
	 xml:space="preserve">
<style type="text/css">
	.st0{fill:#FFFFFF;}
</style>
<defs>
</defs>
<path class="st0" d="M27.8,30.5h-25c-1.5,0-2.7-1.2-2.7-2.7v-25C0,1.2,1.2,0,2.7,0h25c1.5,0,2.7,1.2,2.7,2.7v25
	C30.5,29.2,29.2,30.5,27.8,30.5z M2.7,1.4C2,1.4,1.4,2,1.4,2.7v25C1.4,28.5,2,29,2.7,29h25c0.7,0,1.3-0.6,1.3-1.3v-25
	c0-0.7-0.6-1.3-1.3-1.3H2.7z"/>
<path class="st0" d="M16.4,22.2c-0.2,0-0.4-0.1-0.5-0.2l-7.4-7.4c-0.3-0.3-0.3-0.7,0-1s0.7-0.3,1,0l6.9,6.9L35.2,1.8
	c0.3-0.3,0.7-0.3,1,0s0.3,0.7,0,1L16.9,22C16.8,22.2,16.6,22.2,16.4,22.2z"/>
</svg>
