<!-- Generator: Adobe Illustrator 21.1.0, SVG Export Plug-In  -->
<svg version="1.1"
	 xmlns="http://www.w3.org/2000/svg" xmlns:xlink="http://www.w3.org/1999/xlink" xmlns:a="http://ns.adobe.com/AdobeSVGViewerExtensions/3.0/"
	 x="0px" y="0px" width="38.2px" height="38.2px" viewBox="0 0 38.2 38.2" style="enable-background:new 0 0 38.2 38.2;"
	 xml:space="preserve">
<style type="text/css">
	.st0{fill:#56636E;}
	.st1{fill:#FFFFFF;}
</style>
<defs>
</defs>
<circle class="st0" cx="19.1" cy="19.1" r="19.1"/>
<g>
	<path class="st1" d="M12.2,27H11c-1.1,0-2-0.9-2-2v-7.1c0-1.1,0.9-2,2-2h1.2c1.1,0,2,0.9,2,2V25C14.2,26.1,13.3,27,12.2,27z"/>
	<path class="st1" d="M27.3,15.2l-6.7,0.1c0.5-1.9,0.4-2.5,0.3-3.1c0-0.2-0.1-0.6-0.3-1c-0.3-0.7-1.1-1.7-1.9-1.6
		c-0.1,0-0.3,0.1-0.6,0.3c0,0.1,0,1.5-0.2,2.7c0,0.2-0.1,0.6-0.3,0.9c-0.2,0.4-0.6,1-0.7,1.2c-1.2,1.7-2.3,3-2.8,3.4l-0.1,7.1
		l2.5,1.6c0.8,0.3,1.6,0.5,2.4,0.5h5.7c0.7,0,1.4-0.5,1.5-1.3c0.1-0.9-0.6-1.8-1.5-1.8v0h1.4c0.8,0,1.5-0.7,1.5-1.5
		c0-0.8-0.7-1.5-1.5-1.5h0.7c0.8,0,1.5-0.7,1.5-1.5c0-0.8-0.7-1.5-1.5-1.5h0.3c0.7,0,1.4-0.5,1.5-1.3C28.9,16.1,28.2,15.2,27.3,15.2
		z"/>
</g>
</svg>
