<!-- Generator: Adobe Illustrator 22.1.0, SVG Export Plug-In  -->
<svg version="1.1"
	 xmlns="http://www.w3.org/2000/svg" xmlns:xlink="http://www.w3.org/1999/xlink" xmlns:a="http://ns.adobe.com/AdobeSVGViewerExtensions/3.0/"
	 x="0px" y="0px" width="26px" height="26px" viewBox="0 0 26 26" style="enable-background:new 0 0 26 26;" xml:space="preserve">
<style type="text/css">
	.st0{opacity:0;fill:#FF0000;}
	.st1{fill:#FFFFFF;}
</style>
<defs>
</defs>
<rect class="st0" width="26" height="26"/>
<path class="st1" d="M3.1,8.1c0-2.4,2-4.3,4.5-4.3c2.5,0,4.5,2,4.5,4.3c0,2.4-2,4.3-4.5,4.3C5.1,12.4,3.1,10.5,3.1,8.1z M18,4h3.8
	L7.9,22H4.1L18,4z M9,8c0-0.7-0.6-1.3-1.4-1.3C6.9,6.7,6.3,7.3,6.3,8c0,0.8,0.6,1.3,1.4,1.3C8.4,9.4,9,8.8,9,8z M18.4,13.6
	c2.5,0,4.5,2,4.5,4.3c0,2.4-2,4.3-4.5,4.3c-2.5,0-4.5-1.9-4.5-4.3C13.8,15.6,15.8,13.6,18.4,13.6z M18.4,19.3c0.8,0,1.4-0.6,1.4-1.3
	c0-0.7-0.6-1.3-1.4-1.3c-0.8,0-1.4,0.6-1.4,1.3C17,18.7,17.6,19.3,18.4,19.3z"/>
</svg>
