<!-- Generator: Adobe Illustrator 21.1.0, SVG Export Plug-In  -->
<svg version="1.1"
	 xmlns="http://www.w3.org/2000/svg" xmlns:xlink="http://www.w3.org/1999/xlink" xmlns:a="http://ns.adobe.com/AdobeSVGViewerExtensions/3.0/"
	 x="0px" y="0px" width="16.6px" height="19.7px" viewBox="0 0 16.6 19.7" style="enable-background:new 0 0 16.6 19.7;"
	 xml:space="preserve">
<style type="text/css">
	.st0{fill:#FFFFFF;}
	.st1{fill:#E1E1E1;}
</style>
<defs>
</defs>
<g>
	<g>
		<rect x="0.5" y="9.4" class="st0" width="15.6" height="9.9"/>
		<path class="st0" d="M16.6,19.7H0V8.9h16.6V19.7z M1,18.7h14.6V9.9H1V18.7z"/>
	</g>
	<path class="st1" d="M8.3,16.4c-0.1,0-0.2,0-0.3-0.1L0.2,9.8C0,9.6-0.1,9.3,0.1,9.1C0.3,8.8,0.6,8.8,0.8,9l7.5,6.3L15.8,9
		c0.2-0.2,0.5-0.1,0.7,0.1c0.2,0.2,0.2,0.5-0.1,0.7l-7.8,6.6C8.5,16.4,8.4,16.4,8.3,16.4z"/>
	<path class="st1" d="M16.1,19.7c-0.1,0-0.2,0-0.3-0.1l-5.8-4.9c-0.2-0.2-0.2-0.5-0.1-0.7c0.2-0.2,0.5-0.2,0.7-0.1l5.8,4.9
		c0.2,0.2,0.2,0.5,0.1,0.7C16.4,19.7,16.2,19.7,16.1,19.7z"/>
	<path class="st1" d="M0.5,19.7c-0.1,0-0.3-0.1-0.4-0.2C-0.1,19.3,0,19,0.2,18.9L6,13.9c0.2-0.2,0.5-0.2,0.7,0.1
		c0.2,0.2,0.2,0.5-0.1,0.7l-5.9,4.9C0.7,19.7,0.6,19.7,0.5,19.7z"/>
	<path class="st0" d="M14.5,9.7c-0.2,0-0.3-0.2-0.3-0.3V0.7H2.5v8.7c0,0.2-0.2,0.3-0.3,0.3S1.8,9.6,1.8,9.4v-9C1.8,0.2,1.9,0,2.1,0
		h12.3c0.2,0,0.3,0.2,0.3,0.3v9C14.8,9.6,14.7,9.7,14.5,9.7z"/>
	<path class="st0" d="M12,3.2H4.6C4.4,3.2,4.3,3,4.3,2.8s0.2-0.3,0.3-0.3H12c0.2,0,0.3,0.2,0.3,0.3S12.2,3.2,12,3.2z"/>
	<path class="st0" d="M12,4.8H4.6c-0.2,0-0.3-0.2-0.3-0.3s0.2-0.3,0.3-0.3H12c0.2,0,0.3,0.2,0.3,0.3S12.2,4.8,12,4.8z"/>
	<path class="st0" d="M12,6.4H4.6c-0.2,0-0.3-0.2-0.3-0.3s0.2-0.3,0.3-0.3H12c0.2,0,0.3,0.2,0.3,0.3S12.2,6.4,12,6.4z"/>
	<path class="st0" d="M8.7,8.1H4.6c-0.2,0-0.3-0.2-0.3-0.3s0.2-0.3,0.3-0.3h4.1c0.2,0,0.3,0.2,0.3,0.3S8.9,8.1,8.7,8.1z"/>
</g>
</svg>
