<!-- Generator: Adobe Illustrator 22.1.0, SVG Export Plug-In  -->
<svg version="1.1"
	 xmlns="http://www.w3.org/2000/svg" xmlns:xlink="http://www.w3.org/1999/xlink" xmlns:a="http://ns.adobe.com/AdobeSVGViewerExtensions/3.0/"
	 x="0px" y="0px" width="28px" height="28px" viewBox="0 0 28 28" style="enable-background:new 0 0 28 28;" xml:space="preserve">
<style type="text/css">
	.st0{opacity:0;fill:#FF0000;}
	.st1{fill:none;stroke:#FFFFFF;stroke-width:0.8;stroke-linecap:round;stroke-linejoin:round;stroke-miterlimit:10;}
</style>
<defs>
</defs>
<rect class="st0" width="28" height="28"/>
<g>
	<path class="st1" d="M26.8,14.6l-2.6,0.9c-0.3,0.1-0.7-0.1-0.8-0.4l-2.9-7.9c-0.1-0.3,0.1-0.7,0.4-0.9l2.6-0.9
		c0.3-0.1,0.7,0.1,0.8,0.4l2.9,7.9C27.4,14.1,27.2,14.5,26.8,14.6z"/>
	<path class="st1" d="M20.6,6.5c-0.5,0.2-1,0.1-1.4-0.1l-0.4-0.2c-0.7-0.4-1.6-0.4-2.4-0.1L9,8.7C8.8,8.8,8.6,9.2,8.6,9.5
		c0,0.1-0.2,0.6,0.8,1.3c0.6,0.4,1.4,0.5,2.4,0.2l2.6-0.9c0.3,0.7,0.9,1.8,2.2,2.5c0.6,0.3,1.3,0.5,2.1,0.5c0.6,0,1.3-0.1,2.1-0.4"
		/>
	<path class="st1" d="M13.8,17.2"/>
	<line class="st1" x1="22.4" y1="15.7" x2="23.5" y2="15.3"/>
	<g>
		<path class="st1" d="M8.7,17.3c0.3-0.6,0-1.3-0.6-1.6c-0.6-0.3-1.3-0.1-1.6,0.5l0,0l0,0l-1.1,2.1l0,0l0,0c-0.3,0.6,0,1.3,0.6,1.6
			s1.3,0.1,1.6-0.5l0,0l0,0L8.7,17.3L8.7,17.3L8.7,17.3z"/>
		<path class="st1" d="M10.8,18.4c0.3-0.6,0-1.3-0.6-1.6S9,16.8,8.7,17.3l0,0l0,0l-1.1,2.1l0,0l0,0c-0.3,0.6,0,1.3,0.6,1.6
			s1.3,0.1,1.6-0.5l0,0l0,0L10.8,18.4L10.8,18.4L10.8,18.4z"/>
		<path class="st1" d="M13,19.5c0.3-0.6,0-1.3-0.6-1.6c-0.6-0.3-1.3-0.1-1.6,0.5l0,0l0,0l-1.1,2.1l0,0l0,0c-0.3,0.6,0,1.3,0.6,1.6
			s1.3,0.1,1.6-0.5l0,0l0,0L13,19.5L13,19.5L13,19.5z"/>
		<path class="st1" d="M15.2,20.5c0.3-0.6,0-1.3-0.6-1.6c-0.6-0.3-1.3-0.1-1.6,0.5l0,0l0,0l-0.6,1.2l0,0l0,0c-0.3,0.6,0,1.3,0.6,1.6
			s1.3,0.1,1.6-0.5l0,0l0,0L15.2,20.5L15.2,20.5L15.2,20.5z"/>
	</g>
	<g>
		<g>
			<path class="st1" d="M3.9,16l-2.8-1.4c-0.3-0.2-0.5-0.6-0.3-0.9l3.6-7.3c0.2-0.3,0.6-0.5,0.9-0.3L8,7.5C8.3,7.6,8.5,8,8.3,8.4
				l-3.6,7.3C4.6,16,4.2,16.2,3.9,16z"/>
			<g>
				<path class="st1" d="M20.8,16.3c0.6,0.3,0.9,1,0.6,1.6c-0.3,0.6-1,0.9-1.6,0.6l-2.2-1.1"/>
				<path class="st1" d="M19.8,18.5c0.6,0.3,0.9,1,0.6,1.6c-0.3,0.6-1,0.9-1.6,0.6l-2.2-1.1"/>
				<line class="st1" x1="6.2" y1="16.8" x2="4.8" y2="15.5"/>
				<path class="st1" d="M17.9,20.3c0.6,0.3,0.9,1,0.6,1.6s-1,0.9-1.6,0.6l-2.1-1"/>
				<path class="st1" d="M19.7,13l2.2,1.1c0.6,0.3,0.9,1,0.6,1.6c-0.3,0.6-1,0.9-1.6,0.6l-2.2-1.1"/>
			</g>
		</g>
	</g>
	<line class="st1" x1="8.3" y1="8.4" x2="10.3" y2="8.3"/>
</g>
</svg>
