<!-- Generator: Adobe Illustrator 21.1.0, SVG Export Plug-In  -->
<svg version="1.1"
	 xmlns="http://www.w3.org/2000/svg" xmlns:xlink="http://www.w3.org/1999/xlink" xmlns:a="http://ns.adobe.com/AdobeSVGViewerExtensions/3.0/"
	 x="0px" y="0px" width="18.9px" height="14.3px" viewBox="0 0 18.9 14.3" style="enable-background:new 0 0 18.9 14.3;"
	 xml:space="preserve">
<style type="text/css">
	.st0{fill:#FFFFFF;}
</style>
<defs>
</defs>
<g id="Done_2_">
	<path class="st0" d="M6.1,14.3c-0.2,0-0.5-0.1-0.7-0.3c-0.4-0.4-0.4-1,0-1.4L17.2,0.3c0.4-0.4,1-0.4,1.4,0c0.4,0.4,0.4,1,0,1.4
		L6.8,14C6.6,14.2,6.4,14.3,6.1,14.3z"/>
	<path class="st0" d="M6.1,14.3c-0.3,0-0.5-0.1-0.7-0.3L0.3,8.5c-0.4-0.4-0.4-1,0-1.4c0.4-0.4,1-0.4,1.4,0l5.1,5.4
		c0.4,0.4,0.4,1,0,1.4C6.6,14.2,6.4,14.3,6.1,14.3z"/>
</g>
</svg>
