<svg xmlns="http://www.w3.org/2000/svg" viewBox="0 0 22.7 17.08"><defs><style>.cls-1{fill:#fff;}</style></defs><title>icon-devices</title><g id="Layer_2" data-name="Layer 2"><g id="graphics"><path class="cls-1" d="M21.74,4.82H19.29V1a1,1,0,0,0-1-1H2.6a1,1,0,0,0-1,1V7.54H1a1,1,0,0,0-1,1v7.63a1,1,0,0,0,1,1H3.9a1,1,0,0,0,1-1V12.26h3.7l-.31,1.16v.09a.76.76,0,0,0,.75.75H12.2A.76.76,0,0,0,13,13.5l-.33-1.25h2.24V14.6a1,1,0,0,0,1,1h5.92a1,1,0,0,0,1-1V5.78A1,1,0,0,0,21.74,4.82ZM2.34,1A.26.26,0,0,1,2.6.7H18.33a.26.26,0,0,1,.26.26V4.82H15.82a1,1,0,0,0-1,1V9.89h-10V8.5a1,1,0,0,0-1-1H2.34ZM18.48,7.1h.11V9.89h-3V5.78a.26.26,0,0,1,.26-.26h2.77V6.4h-.11a.35.35,0,0,0,0,.7Zm.11,3.49v.71a.26.26,0,0,1-.26.26H15.56v-1Zm-16.25,0H4.16v1H2.6a.26.26,0,0,1-.26-.26Zm0-.7V9.62h.54a.35.35,0,1,0,0-.7H2.34V8.24H3.9a.26.26,0,0,1,.26.26V9.89ZM3.9,16.38H1a.26.26,0,0,1-.26-.26v-.45H4.16v.45A.26.26,0,0,1,3.9,16.38ZM4.16,15H.7V8.5A.26.26,0,0,1,1,8.24h.68v1a.32.32,0,0,0,0,0,.32.32,0,0,0,0,0v2a1,1,0,0,0,1,1H4.16Zm8-1.42L8.94,13.5l.34-1.25H11.9Zm-7.34-2v-1h10v1Zm13.47.7a1,1,0,0,0,1-1V7.1h.08a.35.35,0,0,0,0-.7h-.08V5.52h2.45a.26.26,0,0,1,.26.26v7.69H15.56V12.26Zm3.41,2.6H15.82a.26.26,0,0,1-.26-.26v-.43H22v.43A.26.26,0,0,1,21.74,14.85Z"/></g></g></svg>