<!-- Generator: Adobe Illustrator 21.1.0, SVG Export Plug-In  -->
<svg version="1.1"
	 xmlns="http://www.w3.org/2000/svg" xmlns:xlink="http://www.w3.org/1999/xlink" xmlns:a="http://ns.adobe.com/AdobeSVGViewerExtensions/3.0/"
	 x="0px" y="0px" width="23px" height="13.5px" viewBox="0 0 23 13.5" style="enable-background:new 0 0 23 13.5;"
	 xml:space="preserve">
<style type="text/css">
	.st0{fill:#FFFFFF;}
</style>
<defs>
</defs>
<g id="Pulse_1_">
	<path class="st0" d="M13.8,13.5C13.8,13.5,13.8,13.5,13.8,13.5c-0.4,0-0.6-0.3-0.7-0.6L11,2.7l-2,6C9,9,8.7,9.2,8.4,9.2
		C8.1,9.2,7.8,9,7.7,8.8L6.4,6.6L4.7,9.1C4.5,9.4,4.2,9.5,3.9,9.3C3.6,9.1,3.5,8.7,3.7,8.5l2.1-3.1C5.9,5.1,6.2,5,6.4,5
		c0.3,0,0.5,0.2,0.6,0.4l1.2,1.9l2.2-6.8C10.5,0.2,10.8,0,11.1,0c0.3,0,0.6,0.2,0.6,0.6L14,11.2l2.7-5.8C16.7,5.2,17,5,17.3,5
		c0.3,0,0.5,0.1,0.7,0.4l1.3,2.8h3.2c0.3,0,0.6,0.3,0.6,0.6s-0.3,0.6-0.6,0.6h-3.6c-0.2,0-0.4-0.1-0.5-0.3l-1-2.2l-2.9,6.2
		C14.4,13.3,14.1,13.5,13.8,13.5z M14.3,12.6L14.3,12.6C14.3,12.7,14.3,12.7,14.3,12.6z M13.4,12.5C13.3,12.6,13.3,12.6,13.4,12.5
		L13.4,12.5z M7.9,8.3C7.9,8.3,7.9,8.4,7.9,8.3L7.9,8.3z M8.8,8.2L8.8,8.2C8.8,8.2,8.8,8.2,8.8,8.2z M6.9,5.9L6.8,6
		C6.8,6,6.9,5.9,6.9,5.9z M17.8,5.9L17.8,5.9C17.7,5.9,17.8,5.9,17.8,5.9z M16.8,5.9C16.8,5.9,16.8,5.9,16.8,5.9L16.8,5.9z
		 M11.6,0.8L11.6,0.8C11.6,0.9,11.6,0.8,11.6,0.8z M10.6,0.8C10.6,0.8,10.6,0.8,10.6,0.8L10.6,0.8z"/>
	<path class="st0" d="M4.2,9.4H0.6C0.3,9.4,0,9.1,0,8.8s0.3-0.6,0.6-0.6h3.6c0.3,0,0.6,0.3,0.6,0.6S4.5,9.4,4.2,9.4z"/>
</g>
</svg>
