<!-- Generator: Adobe Illustrator 21.0.2, SVG Export Plug-In  -->
<svg version="1.1"
	 xmlns="http://www.w3.org/2000/svg" xmlns:xlink="http://www.w3.org/1999/xlink" xmlns:a="http://ns.adobe.com/AdobeSVGViewerExtensions/3.0/"
	 x="0px" y="0px" width="17px" height="25px" viewBox="0 0 17 25" style="enable-background:new 0 0 17 25;"
	 xml:space="preserve">
  <style type="text/css">
  	.st0{fill:#FFFFFF;}
  </style>
  <defs>
  </defs>
  <path class="st0" d="M8.9,0c0.3,0,0.5,0.1,0.8,0.1c1.7,0.3,3.2,1,4.4,2.2c0.9,0.8,1.6,1.8,2,2.9c0.6,1.5,0.8,3.1,0.5,4.7
  	c-0.3,1.4-0.8,2.6-1.7,3.7c-0.7,0.9-1.6,1.6-2.6,2.2c-0.1,0.1-0.1,0.1-0.1,0.2c0.3,1.4,0.6,2.9,0.9,4.3c0.3,1.4,0.6,2.8,0.8,4.1
  	c0,0,0,0.1,0,0.2c-0.2-0.2-0.4-0.3-0.6-0.4c-1.5-1.1-3.1-2.2-4.6-3.3c-0.1-0.1-0.2-0.1-0.3,0c-1.5,1.1-3.1,2.2-4.6,3.3
  	c-0.2,0.1-0.4,0.3-0.6,0.4c0-0.1,0-0.2,0-0.2c0.4-1.8,0.8-3.6,1.3-5.4c0.2-0.9,0.4-1.8,0.6-2.6c0-0.1,0-0.2-0.1-0.3
  	c-1.1-0.5-2-1.1-2.7-2c-0.9-1-1.5-2.1-1.9-3.3C0,9.7-0.1,8.6,0,7.6c0.1-1.2,0.5-2.3,1.1-3.4c0.5-0.9,1.2-1.7,2.1-2.4
  	c1.1-0.9,2.4-1.5,3.9-1.7C7.3,0.1,7.6,0,7.9,0C8.2,0,8.5,0,8.9,0z M8.4,14.4c3.3,0,6-2.7,6.1-6c0-3.3-2.7-6.1-6-6.1
  	c-3.3,0-6,2.7-6.1,6C2.3,11.7,5,14.4,8.4,14.4z"/>
</svg>
