<svg width="94" height="94" viewBox="0 0 94 94" fill="none" xmlns="http://www.w3.org/2000/svg">
<g clip-path="url(#clip0_9_7110)">
<path d="M47 94C72.9574 94 94 72.9574 94 47C94 21.0426 72.9574 0 47 0C21.0426 0 0 21.0426 0 47C0 72.9574 21.0426 94 47 94Z" fill="#66408D"/>
<path d="M46.9991 74.6488H27.1026C26.292 74.6488 25.6288 73.9856 25.6288 73.175V48.4886H20.4705C19.8736 48.4886 19.343 48.1349 19.1072 47.5822C18.8714 47.0295 18.9966 46.4031 19.4167 45.9757L45.9527 19.0859C46.5054 18.5259 47.5002 18.5259 48.0529 19.0859L74.5816 45.9831C75.0017 46.4031 75.1196 47.0369 74.8911 47.5895C74.6627 48.1422 74.1247 48.4959 73.5278 48.4959H68.3695V53.2858C68.3695 54.0964 67.7063 54.7597 66.8957 54.7597C66.0851 54.7597 65.4219 54.0964 65.4219 53.2858V47.0221C65.4219 46.2115 66.0851 45.5483 66.8957 45.5483H70.0054L46.9991 22.2252L23.9929 45.5483H27.1026C27.9132 45.5483 28.5764 46.2115 28.5764 47.0221V71.7085H46.9991C47.8097 71.7085 48.473 72.3718 48.473 73.1824C48.473 73.993 47.8097 74.6562 46.9991 74.6562V74.6488Z" fill="white"/>
<path d="M55.8796 75.3489C55.2901 75.3489 54.7595 75.0025 54.5237 74.4572L45.4597 53.308C45.2239 52.7553 45.3492 52.1142 45.7692 51.6868C46.1966 51.2594 46.8377 51.1341 47.3904 51.3773L68.5397 60.4412C69.0997 60.6844 69.4608 61.2445 69.4313 61.8561C69.4092 62.4677 69.0039 62.9983 68.4218 63.1899L60.0579 65.9754L57.2724 74.3393C57.0808 74.9215 56.5502 75.3194 55.9386 75.3489C55.9164 75.3489 55.8943 75.3489 55.8796 75.3489ZM49.6232 55.5334L55.7101 69.7336L57.5082 64.3468C57.6555 63.9047 58.0019 63.5584 58.444 63.4183L63.8308 61.6203L49.6306 55.5334H49.6232Z" fill="white"/>
</g>
<defs>
<clipPath id="clip0_9_7110">
<path d="M0 5C0 2.23858 2.23858 0 5 0H89C91.7614 0 94 2.23858 94 5V89C94 91.7614 91.7614 94 89 94H5C2.23858 94 0 91.7614 0 89V5Z" fill="white"/>
</clipPath>
</defs>
</svg>
