<svg width="20" height="20" viewBox="0 0 20 20" fill="none" xmlns="http://www.w3.org/2000/svg">
<g clip-path="url(#clip0_9_7995)">
<path d="M16.0323 7.61227C16.9993 7.61227 17.7833 6.82831 17.7833 5.86125C17.7833 4.89419 16.9993 4.11023 16.0323 4.11023C15.0652 4.11023 14.2812 4.89419 14.2812 5.86125C14.2812 6.82831 15.0652 7.61227 16.0323 7.61227Z" stroke="white" stroke-width="1.00058" stroke-linecap="round" stroke-linejoin="round"/>
<path d="M4.02446 7.61227C4.99152 7.61227 5.77548 6.82831 5.77548 5.86125C5.77548 4.89419 4.99152 4.11023 4.02446 4.11023C3.0574 4.11023 2.27344 4.89419 2.27344 5.86125C2.27344 6.82831 3.0574 7.61227 4.02446 7.61227Z" stroke="white" stroke-width="1.00058" stroke-linecap="round" stroke-linejoin="round"/>
<path d="M1.02344 19.3691V12.6152C1.02344 12.6152 1.02344 10.3639 3.27475 10.3639H4.03771" stroke="white" stroke-width="1.00058" stroke-linecap="round" stroke-linejoin="round"/>
<path d="M19.0455 19.3691V12.6152C19.0455 12.6152 19.0455 10.3639 16.7942 10.3639H16.0312" stroke="white" stroke-width="1.00058" stroke-linecap="round" stroke-linejoin="round"/>
<path d="M10.0287 5.8612C11.272 5.8612 12.28 4.85326 12.28 3.60989C12.28 2.36653 11.272 1.35858 10.0287 1.35858C8.78529 1.35858 7.77734 2.36653 7.77734 3.60989C7.77734 4.85326 8.78529 5.8612 10.0287 5.8612Z" stroke="white" stroke-width="1.00058" stroke-linecap="round" stroke-linejoin="round"/>
<path d="M5.52539 19.369V10.3638C5.52539 10.3638 5.52539 8.11249 7.7767 8.11249H12.2793C12.2793 8.11249 14.5306 8.11249 14.5306 10.3638V19.369" stroke="white" stroke-width="1.00058" stroke-linecap="round" stroke-linejoin="round"/>
</g>
<defs>
<clipPath id="clip0_9_7995">
<rect width="19.0236" height="19.0111" fill="white" transform="translate(0.523438 0.858276)"/>
</clipPath>
</defs>
</svg>
