<svg width="95" height="94" viewBox="0 0 95 94" fill="none" xmlns="http://www.w3.org/2000/svg">
<g clip-path="url(#clip0_9_7174)">
<path d="M47.2344 94C73.1918 94 94.2344 72.9574 94.2344 47C94.2344 21.0426 73.1918 0 47.2344 0C21.277 0 0.234375 21.0426 0.234375 47C0.234375 72.9574 21.277 94 47.2344 94Z" fill="#13A4AE"/>
<path d="M53.8671 68.3704H40.6027C39.7921 68.3704 39.1289 67.7071 39.1289 66.8965C39.1289 66.0859 39.7921 65.4227 40.6027 65.4227H53.8671C54.6777 65.4227 55.3409 66.0859 55.3409 66.8965C55.3409 67.7071 54.6777 68.3704 53.8671 68.3704Z" fill="white"/>
<path d="M60.4999 75.0025H33.9712C31.171 75.0025 25.8652 73.3076 25.8652 66.8965V27.1035C25.8652 24.3032 27.5601 18.9975 33.9712 18.9975H60.4999C63.3002 18.9975 68.6059 20.6924 68.6059 27.1035V66.8965C68.6059 69.6968 66.911 75.0025 60.4999 75.0025ZM28.8129 27.1109V66.8965C28.8129 71.8633 33.448 72.0475 33.9786 72.0549H60.4999C65.4667 72.0549 65.6509 67.4197 65.6583 66.8892V27.1035C65.6583 22.1367 61.0231 21.9525 60.4925 21.9451H33.9712C29.0118 21.9451 28.8202 26.5729 28.8129 27.1109Z" fill="white"/>
<path d="M44.6712 58.0536C38.0096 58.0536 32.5859 52.6299 32.5859 45.9683C32.5859 39.3066 38.0096 33.883 44.6712 33.883C45.4818 33.883 46.145 34.5462 46.145 35.3568C46.145 36.1674 45.4818 36.8306 44.6712 36.8306C39.6308 36.8306 35.5336 40.9278 35.5336 45.9683C35.5336 51.0087 39.6308 55.106 44.6712 55.106C49.7117 55.106 53.8089 51.0087 53.8089 45.9683C53.8089 45.1577 54.4721 44.4945 55.2827 44.4945C56.0933 44.4945 56.7565 45.1577 56.7565 45.9683C56.7565 52.6299 51.3329 58.0536 44.6712 58.0536Z" fill="white"/>
<path d="M55.2826 47.4421H44.6711C43.8605 47.4421 43.1973 46.7789 43.1973 45.9683V35.3568C43.1973 34.5462 43.8605 33.883 44.6711 33.883C45.4817 33.883 46.1449 34.5462 46.1449 35.3568V44.4945H55.2826C56.0932 44.4945 56.7564 45.1577 56.7564 45.9683C56.7564 46.7789 56.0932 47.4421 55.2826 47.4421Z" fill="white"/>
<path d="M60.5892 42.1364C59.7786 42.1364 59.1154 41.4732 59.1154 40.6626C59.1154 35.6221 55.0182 31.5249 49.9777 31.5249C49.1671 31.5249 48.5039 30.8617 48.5039 30.0511C48.5039 29.2405 49.1671 28.5773 49.9777 28.5773C56.6394 28.5773 62.063 34.0009 62.063 40.6626C62.063 41.4732 61.3998 42.1364 60.5892 42.1364Z" fill="white"/>
<path d="M60.5892 42.1364H49.9777C49.1671 42.1364 48.5039 41.4732 48.5039 40.6626V30.0511C48.5039 29.2405 49.1671 28.5773 49.9777 28.5773C50.7883 28.5773 51.4515 29.2405 51.4515 30.0511V39.1887H60.5892C61.3998 39.1887 62.063 39.852 62.063 40.6626C62.063 41.4732 61.3998 42.1364 60.5892 42.1364Z" fill="white"/>
</g>
<defs>
<clipPath id="clip0_9_7174">
<rect width="94" height="94" fill="white" transform="translate(0.234375)"/>
</clipPath>
</defs>
</svg>
