<?xml version="1.0" encoding="UTF-8"?>
<svg width="70px" height="70px" viewBox="0 0 70 70" version="1.1" xmlns="http://www.w3.org/2000/svg" xmlns:xlink="http://www.w3.org/1999/xlink">
    <!-- Generator: Sketch 51.2 (57519) - http://www.bohemiancoding.com/sketch -->
    <title>icons / sale - pebble</title>
    <desc>Created with Sketch.</desc>
    <defs></defs>
    <g id="Page-1" stroke="none" stroke-width="1" fill="none" fill-rule="evenodd">
        <g id="icons-/-Bankruptcy-registery---pebble-">
            <path d="M35,70 C15.6700338,70 0,54.3299662 0,35 C0,15.6700338 15.6700338,0 35,0 C54.3299662,0 70,15.6700338 70,35 C70,54.3299662 54.3299662,70 35,70 Z M35,68 C53.2253967,68 68,53.2253967 68,35 C68,16.7746033 53.2253967,2 35,2 C16.7746033,2 2,16.7746033 2,35 C2,53.2253967 16.7746033,68 35,68 Z" id="Oval-5" fill="#828D99" fill-rule="nonzero"></path>
            <g id="saving-bank" stroke-width="1" fill-rule="evenodd" transform="translate(14.400000, 14.400000)" stroke-linecap="round" stroke-linejoin="round">
                <path d="M6.25362319,35.3629104 L6.25362319,19.3913043" id="Path" stroke="#00A4C7" stroke-width="1.5"></path>
                <path d="M4.44202899,35.3629104 L15.3115942,35.3629104" id="Path" stroke="#00A4C7" stroke-width="1.5"></path>
                <path d="M0.00724637681,38.9121562 L39.8623188,38.9121562" id="Path" stroke="#828D99" stroke-width="1.5"></path>
                <path d="M4.44202899,19.3913043 L15.3115942,19.3913043" id="Path" stroke="#00A4C7" stroke-width="1.5"></path>
                <path d="M9.87681159,35.3629104 L9.87681159,19.3913043" id="Path" stroke="#00A4C7" stroke-width="1.5"></path>
                <path d="M13.5,35.3629104 L13.5,19.3913043" id="Path" stroke="#00A4C7" stroke-width="1.5"></path>
                <path d="M24.3695652,35.3629104 L35.2391304,35.3629104" id="Path" stroke="#00A4C7" stroke-width="1.5"></path>
                <path d="M24.3695652,19.3913043 L35.2391304,19.3913043" id="Path" stroke="#00A4C7" stroke-width="1.5"></path>
                <path d="M26.1811594,35.3629104 L26.1811594,19.3913043" id="Path" stroke="#00A4C7" stroke-width="1.5"></path>
                <path d="M29.8043478,35.3629104 L29.8043478,19.3913043" id="Path" stroke="#00A4C7" stroke-width="1.5"></path>
                <path d="M33.4275362,35.3629104 L33.4275362,19.3913043" id="Path" stroke="#00A4C7" stroke-width="1.5"></path>
                <path d="M1.99275362,14.2537711 C1.68653224,14.4865714 1.56546683,14.8844424 1.69160012,15.243486 C1.81773341,15.6025296 2.16310632,15.8431592 2.55072464,15.8420586 L37.3188406,15.8420586 C37.6984293,15.8428318 38.0382477,15.6116722 38.170111,15.2629866 C38.3019742,14.914301 38.1979092,14.5220587 37.9094203,14.2803904 L21.3641304,0.344276841 C21.037045,0.0692402504 20.5574086,0.0581064153 20.2173913,0.317657498 L1.99275362,14.2537711 Z" id="Path" stroke="#828D99" stroke-width="1.5"></path>
            </g>
        </g>
    </g>
</svg>