<?xml version="1.0" encoding="UTF-8"?>
<svg width="88px" height="88px" viewBox="0 0 88 88" version="1.1" xmlns="http://www.w3.org/2000/svg" xmlns:xlink="http://www.w3.org/1999/xlink">
    <!-- Generator: Sketch 63.1 (92452) - https://sketch.com -->
    <title>Slice 1</title>
    <desc>Created with Sketch.</desc>
    <defs>
        <path d="M0,43.75 C0,67.912 19.588,87.5 43.75,87.5 L43.75,87.5 C67.912,87.5 87.5,67.912 87.5,43.75 L87.5,43.75 C87.5,19.588 67.912,0 43.75,0 L43.75,0 C19.588,0 0,19.588 0,43.75 L0,43.75 Z M2.5,43.75 C2.5,20.968 20.968,2.5 43.75,2.5 L43.75,2.5 C66.532,2.5 85,20.968 85,43.75 L85,43.75 C85,66.532 66.532,85 43.75,85 L43.75,85 C20.968,85 2.5,66.532 2.5,43.75 L2.5,43.75 Z" id="path-1"></path>
    </defs>
    <g id="Page-1" stroke="none" stroke-width="1" fill="none" fill-rule="evenodd">
        <g id="Group-5">
            <g id="Group-3">
                <mask id="mask-2" fill="white">
                    <use xlink:href="#path-1"></use>
                </mask>
                <g id="Clip-2"></g>
                <polygon id="Fill-1" fill="#828D99" mask="url(#mask-2)" points="-5 92.5 92.5 92.5 92.5 -5 -5 -5"></polygon>
            </g>
            <polygon id="Fill-4" fill="#00A4C7" points="39.7695 56.324 27.0605 43.616 25.9995 44.677 39.9155 58.592 62.0095 29.916 60.8215 29"></polygon>
        </g>
    </g>
</svg>