<?xml version="1.0" encoding="UTF-8"?>
<svg width="68px" height="68px" viewBox="0 0 68 68" version="1.1" xmlns="http://www.w3.org/2000/svg" xmlns:xlink="http://www.w3.org/1999/xlink">
    <!-- Generator: Sketch 63.1 (92452) - https://sketch.com -->
    <title>icons / choose - pebble</title>
    <desc>Created with Sketch.</desc>
    <g id="Page-1" stroke="none" stroke-width="1" fill="none" fill-rule="evenodd">
        <g id="icons-/-Seamless---pebble">
            <path d="M34,68 C15.2223185,68 0,52.7776815 0,34 C0,15.2223185 15.2223185,0 34,0 C52.7776815,0 68,15.2223185 68,34 C68,52.7776815 52.7776815,68 34,68 Z M34,66.0571429 C51.7046711,66.0571429 66.0571429,51.7046711 66.0571429,34 C66.0571429,16.2953289 51.7046711,1.94285714 34,1.94285714 C16.2953289,1.94285714 1.94285714,16.2953289 1.94285714,34 C1.94285714,51.7046711 16.2953289,66.0571429 34,66.0571429 Z" id="Oval-5" fill="#828D99" fill-rule="nonzero"></path>
            <g id="Group-21" stroke-width="1" fill-rule="evenodd" transform="translate(12.000000, 12.000000)">
                <path d="M30.77856,15.20872 L29.06016,13.49032 C28.84656,13.27672 28.50096,13.27672 28.28736,13.49032 L27.29856,14.47912 C27.11856,14.65912 26.84256,14.68472 26.62416,14.55512 C25.89616,14.12392 25.11936,13.80792 24.31936,13.60392 C24.07296,13.54152 23.89616,13.32952 23.89616,13.07512 L23.89616,11.81352 C23.89616,11.36952 23.65136,11.12552 23.34896,11.12552 L20.91936,11.12552 C20.61776,11.12552 20.37296,11.36952 20.37296,11.67192 L20.37296,13.07272 C20.37296,13.32712 20.19536,13.54152 19.94896,13.60392 C19.14976,13.80792 18.37296,14.12392 17.64496,14.55512 C17.42656,14.68472 17.15216,14.66072 16.97216,14.48072 L16.08176,13.59112 C15.76816,13.27672 15.42256,13.27672 15.20896,13.49032 L13.49056,15.20872 C13.27696,15.42232 13.27696,15.76792 13.49056,15.98152 L14.47856,16.97032 C14.65856,17.14952 14.68496,17.42632 14.55536,17.64472 C14.12416,18.37272 13.80736,19.14952 13.60416,19.94952 C13.54096,20.19592 13.32976,20.37272 13.07536,20.37272 L11.81376,20.37272 C11.36896,20.37272 11.12496,20.61752 11.12496,20.91912 L11.12496,23.34952 C11.12496,23.65112 11.36976,23.89592 11.67136,23.89592 L13.07296,23.89592 C13.32736,23.89592 13.54096,24.07352 13.60416,24.31992 C13.80736,25.11912 14.12416,25.89592 14.55536,26.62392 C14.68496,26.84232 14.66096,27.11672 14.48096,27.29672 L13.59056,28.18712 C13.27696,28.50072 13.27696,28.84632 13.49056,29.05992 L15.20896,30.77832 C15.42256,30.99192 15.76816,30.99192 15.98176,30.77832 L16.97056,29.78952 C17.14976,29.60952 17.42656,29.58392 17.64496,29.71352 C18.37296,30.14472 19.14976,30.46072 19.94896,30.66472 C20.19536,30.72712 20.37296,30.93912 20.37296,31.19352 L20.37296,32.45512 C20.37296,32.89912 20.61776,33.14392 20.91936,33.14392 L23.34896,33.14392 C23.65136,33.14392 23.89616,32.89912 23.89536,32.59752 L23.89616,31.19592 C23.89616,30.94232 24.07296,30.72712 24.31936,30.66472 C25.11936,30.46152 25.89536,30.14472 26.62416,29.71352 C26.84256,29.58392 27.11696,29.60792 27.29616,29.78792 L28.26016,30.75112 C28.53616,31.02712 28.81296,31.02552 28.98496,30.85352 L30.77856,29.05992 C30.99216,28.84632 30.99216,28.50072 30.77856,28.28712 L29.78976,27.29832 C29.61056,27.11912 29.58416,26.84232 29.71376,26.62392 C30.14496,25.89592 30.46096,25.11912 30.66416,24.31992 C30.72736,24.07272 30.93936,23.89592 31.19376,23.89592 L32.45536,23.89592 C32.89936,23.89592 33.14416,23.65112 33.14416,23.34952 L33.14416,20.91912 C33.14416,20.61752 32.89936,20.37272 32.59696,20.37272 L31.19616,20.37272 C30.94176,20.37272 30.72736,20.19592 30.66416,19.94952 C30.46096,19.14952 30.14496,18.37272 29.71296,17.64472 C29.58416,17.42632 29.60816,17.15192 29.78736,16.97272 L30.67856,16.08152 C30.99216,15.76792 30.99216,15.42232 30.77856,15.20872 Z" id="Stroke-1" stroke="#00A4C7" stroke-width="1.5"></path>
                <path d="M24.88208,19.38688 C26.39968,20.90448 26.39888,23.36448 24.88208,24.88208 C23.36448,26.39968 20.90448,26.39968 19.38688,24.88208 C17.86928,23.36448 17.86928,20.90448 19.38688,19.38688 C20.90448,17.86928 23.36448,17.86928 24.88208,19.38688 Z" id="Stroke-3" stroke="#00A4C7" stroke-width="1.5"></path>
                <path d="M17.06328,40.45176 C10.57848,38.66056 5.48488,33.51816 3.76328,27.00376" id="Stroke-5" stroke="#828D99" stroke-width="1.5" stroke-linecap="round" stroke-linejoin="round"></path>
                <path d="M40.5164,26.96504 C38.8044,33.49544 33.7052,38.65464 27.2092,40.45064" id="Stroke-7" stroke="#828D99" stroke-width="1.5" stroke-linecap="round" stroke-linejoin="round"></path>
                <path d="M26.8348,3.71888 C33.5084,5.41728 38.7708,10.64768 40.5156,17.30208" id="Stroke-9" stroke="#828D99" stroke-width="1.5" stroke-linecap="round" stroke-linejoin="round"></path>
                <path d="M3.91056,16.73648 C5.79856,10.35248 10.94976,5.36928 17.43216,3.71968" id="Stroke-11" stroke="#828D99" stroke-width="1.5" stroke-linecap="round" stroke-linejoin="round"></path>
                <path d="M24.9168,3.38216 C24.9168,4.91896 23.6712,6.16456 22.1344,6.16456 C20.5976,6.16456 19.352,4.91896 19.352,3.38216 C19.352,1.84616 20.5976,0.59976 22.1344,0.59976 C23.6712,0.59976 24.9168,1.84616 24.9168,3.38216 Z" id="Stroke-13" stroke="#00A4C7" stroke-width="1.5" stroke-linecap="round" stroke-linejoin="round"></path>
                <path d="M19.352,40.88648 C19.352,39.35048 20.5976,38.10408 22.1344,38.10408 C23.6712,38.10408 24.9168,39.35048 24.9168,40.88648 C24.9168,42.42328 23.6712,43.66888 22.1344,43.66888 C20.5976,43.66888 19.352,42.42328 19.352,40.88648 Z" id="Stroke-15" stroke="#00A4C7" stroke-width="1.5" stroke-linecap="round" stroke-linejoin="round"></path>
                <path d="M40.88672,24.91656 C39.34992,24.91656 38.10432,23.67096 38.10432,22.13416 C38.10432,20.59816 39.34992,19.35176 40.88672,19.35176 C42.42272,19.35176 43.66912,20.59816 43.66912,22.13416 C43.66912,23.67096 42.42272,24.91656 40.88672,24.91656 Z" id="Stroke-17" stroke="#00A4C7" stroke-width="1.5" stroke-linecap="round" stroke-linejoin="round"></path>
                <path d="M3.38208,19.35208 C4.91888,19.35208 6.16448,20.59768 6.16448,22.13448 C6.16448,23.67048 4.91888,24.91688 3.38208,24.91688 C1.84608,24.91688 0.59968,23.67048 0.59968,22.13448 C0.59968,20.59768 1.84608,19.35208 3.38208,19.35208 Z" id="Stroke-19" stroke="#00A4C7" stroke-width="1.5" stroke-linecap="round" stroke-linejoin="round"></path>
            </g>
        </g>
    </g>
</svg>