<?xml version="1.0" encoding="UTF-8"?>
<svg width="70px" height="70px" viewBox="0 0 70 70" version="1.1" xmlns="http://www.w3.org/2000/svg" xmlns:xlink="http://www.w3.org/1999/xlink">
    <!-- Generator: Sketch 51.2 (57519) - http://www.bohemiancoding.com/sketch -->
    <title>icons / property - pebble</title>
    <desc>Created with Sketch.</desc>
    <defs></defs>
    <g id="Page-1" stroke="none" stroke-width="1" fill="none" fill-rule="evenodd">
        <g id="icons-/-Tenancy-database---pebble">
            <path d="M35,70 C15.6700338,70 0,54.3299662 0,35 C0,15.6700338 15.6700338,0 35,0 C54.3299662,0 70,15.6700338 70,35 C70,54.3299662 54.3299662,70 35,70 Z M35,68 C53.2253967,68 68,53.2253967 68,35 C68,16.7746033 53.2253967,2 35,2 C16.7746033,2 2,16.7746033 2,35 C2,53.2253967 16.7746033,68 35,68 Z" id="Oval-5" fill="#828D99" fill-rule="nonzero"></path>
            <g id="database-warning" stroke-linecap="round" stroke-linejoin="round" stroke-width="1" fill-rule="evenodd" transform="translate(15.200000, 15.200000)">
                <ellipse id="Oval" stroke="#828D99" stroke-width="1.5" cx="16.4814815" cy="6.85185185" rx="16.4814815" ry="6.85185185"></ellipse>
                <path d="M20.3703704,19.6215843 C9.61115473,20.7544105 0,17.2644613 0,12.8" id="Path" stroke="#828D99" stroke-width="1.5"></path>
                <path d="M16.2962963,28.5185185 C7.29730994,28.5185185 0,25.3712037 0,21.4814815" id="Path" stroke="#828D99" stroke-width="1.5"></path>
                <path d="M14.0740741,36.4592593 C6.13060311,36.0125662 0,33.1219963 0,29.6208883 L0,7.2" id="Path" stroke="#828D99" stroke-width="1.5"></path>
                <path d="M33.05,6.4 L33.05,16.0296296" id="Path" stroke="#828D99" stroke-width="1.5"></path>
                <path d="" id="Path" stroke="#333F48"></path>
                <path d="M29.4444444,34.1666667 C29.1887571,34.1666667 28.9814815,34.3739422 28.9814815,34.6296296 C28.9814815,34.885317 29.1887571,35.0925926 29.4444444,35.0925926 C29.7001318,35.0925926 29.9074074,34.885317 29.9074074,34.6296296 C29.9074074,34.3739422 29.7001318,34.1666667 29.4444444,34.1666667" id="Path" stroke="#00A4C7"></path>
                <path d="M29.4444444,30.7407407 L29.4444444,25.5555556" id="Path" stroke="#00A4C7" stroke-width="1.5"></path>
                <path d="M31.0779792,20.503581 C30.7924875,19.9656008 30.2357017,19.6296296 29.6296296,19.6296296 C29.0235576,19.6296296 28.4667717,19.9656008 28.1812801,20.503581 L19.4427892,37.2590898 C19.1801916,37.7612541 19.2005616,38.365618 19.4963677,38.8487239 C19.7951111,39.3349622 20.3230457,39.6305418 20.8911387,39.6296273 L38.3681205,39.6296273 C38.9357844,39.6305779 39.4634911,39.3357839 39.7628915,38.8504631 C40.0586976,38.3673572 40.0790677,37.7629933 39.8164701,37.260829 L31.0779792,20.503581 Z" id="Path" stroke="#00A4C7" stroke-width="1.5"></path>
            </g>
        </g>
    </g>
</svg>