<?xml version="1.0" encoding="UTF-8"?>
<svg width="91px" height="92px" viewBox="0 0 91 92" version="1.1" xmlns="http://www.w3.org/2000/svg" xmlns:xlink="http://www.w3.org/1999/xlink">
    <!-- Generator: Sketch 51.2 (57519) - http://www.bohemiancoding.com/sketch -->
    <title>Slice 1</title>
    <desc>Created with Sketch.</desc>
    <defs></defs>
    <g id="Page-1" stroke="none" stroke-width="1" fill="none" fill-rule="evenodd">
        <g id="icons-/-Front-Page-2---pebble-" transform="translate(0.000000, 1.000000)">
            <g id="icons-/-ad-creative---pebble" stroke="#828D99">
                <circle id="Oval-5" stroke-width="1.5" cx="45.5182486" cy="44.960454" r="44.3478261"></circle>
            </g>
            <g id="Group-2" transform="translate(20.869565, 23.478261)" stroke="#828D99">
                <path d="M10.4347826,46.9565217 L41.4130435,46.9565217" id="Stroke-6030" stroke-width="1.5" stroke-linecap="round" stroke-linejoin="round"></path>
                <path d="M23.4782609,43.0434783 L23.4782609,48.0471018" id="Stroke-6031" stroke-width="1.5" stroke-linecap="round" stroke-linejoin="round"></path>
                <path d="M0,33.9130435 L49.5652174,33.9130435" id="Stroke-6032" stroke-width="1.5"></path>
                <path d="M46.1469265,43.0434783 L3.41829085,43.0434783 C1.53823088,43.0434783 0,41.5535117 0,39.7324415 L0,3.31103679 C0,1.48996656 1.53823088,0 3.41829085,0 L46.1469265,0 C48.0269865,0 49.5652174,1.48996656 49.5652174,3.31103679 L49.5652174,39.7324415 C49.5652174,41.5535117 48.0269865,43.0434783 46.1469265,43.0434783 Z" id="Stroke-6033" stroke-width="1.5" stroke-linecap="round" stroke-linejoin="round"></path>
                <path d="M24.7826087,38.4782609 C24.7826087,38.8382609 24.4904348,39.1304348 24.1304348,39.1304348 C23.7704348,39.1304348 23.4782609,38.8382609 23.4782609,38.4782609 C23.4782609,38.1182609 23.7704348,37.826087 24.1304348,37.826087 C24.4904348,37.826087 24.7826087,38.1182609 24.7826087,38.4782609 L24.7826087,38.4782609 Z" id="Stroke-6034" stroke-width="1.5"></path>
            </g>
            <g id="Group" transform="translate(33.913043, 30.000000)" stroke="#00A4C7">
                <ellipse id="Oval-5-Copy" stroke-width="1.5" cx="11.802244" cy="11.1736926" rx="10.5926733" ry="10.9457624"></ellipse>
                <polyline id="Stroke-3474" stroke-width="1.5" stroke-linecap="round" points="17.312253 7.82608696 10.3754941 16.3043478 6.52173913 12.4505929"></polyline>
            </g>
        </g>
    </g>
</svg>