<?xml version="1.0" encoding="UTF-8"?>
<svg width="93px" height="93px" viewBox="0 0 93 93" version="1.1" xmlns="http://www.w3.org/2000/svg" xmlns:xlink="http://www.w3.org/1999/xlink">
    <!-- Generator: Sketch 51.2 (57519) - http://www.bohemiancoding.com/sketch -->
    <title>Slice 1</title>
    <desc>Created with Sketch.</desc>
    <defs></defs>
    <g id="Page-1" stroke="none" stroke-width="1" fill="none" fill-rule="evenodd">
        <g id="icons-/-email-address---pebble">
            <path d="M46.3235294,92.6470588 C20.7397506,92.6470588 0,71.9073083 0,46.3235294 C0,20.7397506 20.7397506,0 46.3235294,0 C71.9073083,0 92.6470588,20.7397506 92.6470588,46.3235294 C92.6470588,71.9073083 71.9073083,92.6470588 46.3235294,92.6470588 Z M46.3235294,90 C70.445378,90 90,70.445378 90,46.3235294 C90,22.2016808 70.445378,2.64705882 46.3235294,2.64705882 C22.2016808,2.64705882 2.64705882,22.2016808 2.64705882,46.3235294 C2.64705882,70.445378 22.2016808,90 46.3235294,90 Z" id="Oval-5" fill="#828D99" fill-rule="nonzero"></path>
            <path d="M29.6470588,44.7352941 C29.6470588,34.0411765 37.9588235,25.4117647 47.9647059,25.4117647 C57.0705882,25.4117647 60.2470588,30.0705882 60.2470588,34.7823529 L60.2470588,52.9941176 L63.9529412,52.9941176 L63.9529412,55.1117647 L49.9235294,55.1117647 C44.2588235,55.1117647 39.7058824,50.5058824 39.7058824,44.8411765 C39.7058824,39.1764706 44.2588235,34.4647059 49.9235294,34.4647059 L57.8647059,34.4647059 C57.7058824,30.9176471 55.2705882,27.5294118 48.2823529,27.5294118 C39.1235294,27.5294118 32.0294118,35.2058824 32.0294118,44.7352941 C32.0294118,54.3176471 39.1235294,61.8352941 48.2823529,61.8352941 L48.2823529,64.0588235 C37.9588235,64.0588235 29.6470588,55.4823529 29.6470588,44.7352941 Z M42.0882353,44.8411765 C42.0882353,49.3411765 45.6882353,52.9941176 50.1882353,52.9941176 L57.8647059,52.9941176 L57.8647059,36.5823529 L50.2941176,36.5823529 C45.6882353,36.5823529 42.0882353,40.3411765 42.0882353,44.8411765 Z" id="@" fill="#00A4C7" fill-rule="evenodd"></path>
        </g>
    </g>
</svg>