<?xml version="1.0" encoding="UTF-8"?>
<svg width="90px" height="90px" viewBox="0 0 90 90" version="1.1" xmlns="http://www.w3.org/2000/svg" xmlns:xlink="http://www.w3.org/1999/xlink">
    <!-- Generator: Sketch 51.2 (57519) - http://www.bohemiancoding.com/sketch -->
    <title>icons / search agent - pebble</title>
    <desc>Created with Sketch.</desc>
    <defs></defs>
    <g id="Page-1" stroke="none" stroke-width="1" fill="none" fill-rule="evenodd">
        <g id="icons-/-results---pebble">
            <path d="M45,90 C20.1471863,90 0,69.8528137 0,45 C0,20.1471863 20.1471863,0 45,0 C69.8528137,0 90,20.1471863 90,45 C90,69.8528137 69.8528137,90 45,90 Z M45,87.4285714 C68.432653,87.4285714 87.4285714,68.432653 87.4285714,45 C87.4285714,21.567347 68.432653,2.57142857 45,2.57142857 C21.567347,2.57142857 2.57142857,21.567347 2.57142857,45 C2.57142857,68.432653 21.567347,87.4285714 45,87.4285714 Z" id="Oval-5" fill="#828D99" fill-rule="nonzero"></path>
            <g id="Report" stroke-width="1" fill-rule="evenodd" transform="translate(29.647059, 18.000000)" stroke="#828D99">
                <polyline id="cnr" stroke-width="1.5" stroke-linecap="round" stroke-linejoin="round" points="20.8228923 0.191864898 20.8228923 11.6470588 32.2780862 11.6470588"></polyline>
                <polyline id="Path-2" stroke-width="1.5" points="16.9411765 43.4117647 0 43.4117647 0 0 21.1764706 0 32.2941176 11.1176471 32.2941176 23.2941176"></polyline>
            </g>
            <circle id="Oval-5" stroke="#00A4C7" stroke-width="1.5" cx="61.9411765" cy="57.7058824" r="11.1176471"></circle>
            <polyline id="Path-15" stroke="#00A4C7" stroke-width="1.5" points="58.2352941 58.2352941 61.9411765 61.9411765 68.8235294 54"></polyline>
        </g>
    </g>
</svg>