<?xml version="1.0" encoding="UTF-8"?>
<svg width="88px" height="88px" viewBox="0 0 88 88" version="1.1" xmlns="http://www.w3.org/2000/svg" xmlns:xlink="http://www.w3.org/1999/xlink">
    <!-- Generator: Sketch 63.1 (92452) - https://sketch.com -->
    <title>Slice 1</title>
    <desc>Created with Sketch.</desc>
    <defs>
        <path d="M0,43.75 C0,67.912 19.588,87.5 43.75,87.5 L43.75,87.5 C67.912,87.5 87.5,67.912 87.5,43.75 L87.5,43.75 C87.5,19.588 67.912,0 43.75,0 L43.75,0 C19.588,0 0,19.588 0,43.75 L0,43.75 Z M2.5,43.75 C2.5,20.968 20.968,2.5 43.75,2.5 L43.75,2.5 C66.532,2.5 85,20.968 85,43.75 L85,43.75 C85,66.532 66.532,85 43.75,85 L43.75,85 C20.968,85 2.5,66.532 2.5,43.75 L2.5,43.75 Z" id="path-1"></path>
    </defs>
    <g id="Page-1" stroke="none" stroke-width="1" fill="none" fill-rule="evenodd">
        <g id="Group-10">
            <g id="Group-3">
                <mask id="mask-2" fill="white">
                    <use xlink:href="#path-1"></use>
                </mask>
                <g id="Clip-2"></g>
                <polygon id="Fill-1" fill="#828D99" mask="url(#mask-2)" points="-5 92.5 92.5 92.5 92.5 -5 -5 -5"></polygon>
            </g>
            <polygon id="Fill-4" fill="#828D99" points="21.9999 26.9998 21.9999 57.4998 22.7499 57.4998 53.7499 57.4998 53.7499 55.9998 23.4999 55.9998 23.4999 28.4998 64.9999 28.4998 64.9999 41.7498 66.4999 41.7498 66.4999 26.9998"></polygon>
            <polygon id="Fill-5" fill="#828D99" points="32 36.5 55.29 36.5 55.29 35 32 35"></polygon>
            <polygon id="Fill-6" fill="#828D99" points="32 41.5 55.29 41.5 55.29 40.001 32 40.001"></polygon>
            <polygon id="Fill-7" fill="#828D99" points="32 46.5 55.29 46.5 55.29 45 32 45"></polygon>
            <path d="M66.2764,58.8013 C65.9804,58.6293 65.4134,58.1733 64.5304,57.8373 L64.5304,55.3413 C64.5304,55.3413 65.9804,54.5983 65.9804,52.1003 C66.7934,52.1003 66.7934,49.9283 65.9804,49.9283 C65.9804,49.6823 66.2434,47.6943 65.7554,46.6753 C64.7054,44.4823 60.1454,44.4023 59.0954,46.6753 C58.3334,48.1733 58.7114,49.6683 58.7114,50.0033 C57.8984,50.0033 57.8984,52.1003 58.7114,52.1003 C58.7114,54.5983 60.4124,55.7573 60.4124,55.7573 L60.4124,57.8373 C57.5284,58.9443 53.9474,59.7123 53.5194,61.0183 C53.0284,62.5173 53.0004,65.3253 53.0004,65.3253 L64.5304,65.3253" id="Stroke-8" stroke="#00A4C7" stroke-width="1.5" stroke-linecap="round" stroke-linejoin="round"></path>
        </g>
    </g>
</svg>