<?xml version="1.0" encoding="UTF-8"?>
<svg width="90px" height="90px" viewBox="0 0 90 90" version="1.1" xmlns="http://www.w3.org/2000/svg" xmlns:xlink="http://www.w3.org/1999/xlink">
    <!-- Generator: Sketch 51.2 (57519) - http://www.bohemiancoding.com/sketch -->
    <title>icons / search agent - pebble</title>
    <desc>Created with Sketch.</desc>
    <defs></defs>
    <g id="Page-1" stroke="none" stroke-width="1" fill="none" fill-rule="evenodd">
        <g id="icons-/-engagement--pebble" fill-rule="nonzero">
            <path d="M45,90 C20.1471863,90 0,69.8528137 0,45 C0,20.1471863 20.1471863,0 45,0 C69.8528137,0 90,20.1471863 90,45 C90,69.8528137 69.8528137,90 45,90 Z M45,87.4285714 C68.432653,87.4285714 87.4285714,68.432653 87.4285714,45 C87.4285714,21.567347 68.432653,2.57142857 45,2.57142857 C21.567347,2.57142857 2.57142857,21.567347 2.57142857,45 C2.57142857,68.432653 21.567347,87.4285714 45,87.4285714 Z" id="Oval-5" fill="#828D99"></path>
            <polygon id="Path-18" fill="#828D99" points="55.0588235 59.5588235 55.0588235 61.1470588 22.2352941 61.1470588 21.4411765 61.1470588 21.4411765 28.8529412 68.5588235 28.8529412 68.5588235 44.4705882 66.9705882 44.4705882 66.9705882 30.4411765 23.0294118 30.4411765 23.0294118 59.5588235"></polygon>
            <path d="M77.0294118,55.5009342 C77.0294118,56.547288 76.6664305,57.663511 75.997526,58.8451225 C75.217242,60.2234848 74.0364485,61.66531 72.5605518,63.136099 C71.6139275,64.0794473 70.6022359,64.9786348 69.590653,65.8050647 C69.236537,66.0943658 68.9073977,66.3541688 68.6114431,66.5807696 C68.4323785,66.7178724 68.3030692,66.8142256 68.2317449,66.8660914 C67.9533034,67.0685687 67.5761084,67.0685687 67.2976669,66.8660914 C67.2263425,66.8142256 67.0970333,66.7178724 66.9179686,66.5807696 C66.6220141,66.3541688 66.2928747,66.0943658 65.9387588,65.8050647 C64.9271759,64.9786348 63.9154842,64.0794473 62.96886,63.136099 C61.4929633,61.66531 60.3121698,60.2234848 59.5318857,58.8451225 C58.8629813,57.663511 58.5,56.547288 58.5,55.5009342 C58.5,49.6848721 65.1254153,48.1063524 67.7647059,52.7810065 C70.4039965,48.1063524 77.0294118,49.6848721 77.0294118,55.5009342 Z M68.5858176,64.5751065 C69.5595289,63.7796165 70.5331313,62.9142826 71.4394482,62.0111021 C72.8218852,60.6334494 73.9172751,59.2959074 74.6153874,58.0627007 C75.1603123,57.1000974 75.4411765,56.2363971 75.4411765,55.5009342 C75.4411765,50.8210184 69.774345,50.0147455 68.5368061,55.1601984 C68.3416974,55.9714237 67.1877143,55.9714237 66.9926056,55.1601984 C65.7550668,50.0147455 60.0882353,50.8210184 60.0882353,55.5009342 C60.0882353,56.2363971 60.3690995,57.1000974 60.9140244,58.0627007 C61.6121367,59.2959074 62.7075266,60.6334494 64.0899636,62.0111021 C64.9962805,62.9142826 65.9698829,63.7796165 66.9435942,64.5751065 C67.2374129,64.8151467 67.5128984,65.0337163 67.7647059,65.2283339 C68.0165134,65.0337163 68.2919989,64.8151467 68.5858176,64.5751065 Z" id="Stroke-349" fill="#00A4C7"></path>
            <polygon id="Path-19" fill="#828D99" points="32.6702378 38.6470588 32.6702378 37.0588235 57.3297622 37.0588235 57.3297622 38.6470588"></polygon>
            <polygon id="Path-19-Copy" fill="#828D99" points="32.6702378 43.9411765 32.6702378 42.3529412 57.3297622 42.3529412 57.3297622 43.9411765"></polygon>
            <polygon id="Path-19-Copy-2" fill="#828D99" points="32.6702378 49.2352941 32.6702378 47.6470588 57.3297622 47.6470588 57.3297622 49.2352941"></polygon>
        </g>
    </g>
</svg>