<?xml version="1.0" encoding="UTF-8"?>
<svg width="90px" height="90px" viewBox="0 0 90 90" version="1.1" xmlns="http://www.w3.org/2000/svg" xmlns:xlink="http://www.w3.org/1999/xlink">
    <!-- Generator: Sketch 51.2 (57519) - http://www.bohemiancoding.com/sketch -->
    <title>icons / save time quick - pebble</title>
    <desc>Created with Sketch.</desc>
    <defs></defs>
    <g id="Page-1" stroke="none" stroke-width="1" fill="none" fill-rule="evenodd">
        <g id="icons-/-facebook-banner--pebble">
            <path d="M45,90 C20.1471863,90 0,69.8528137 0,45 C0,20.1471863 20.1471863,0 45,0 C69.8528137,0 90,20.1471863 90,45 C90,69.8528137 69.8528137,90 45,90 Z M45,87.4285714 C68.432653,87.4285714 87.4285714,68.432653 87.4285714,45 C87.4285714,21.567347 68.432653,2.57142857 45,2.57142857 C21.567347,2.57142857 2.57142857,21.567347 2.57142857,45 C2.57142857,68.432653 21.567347,87.4285714 45,87.4285714 Z" id="Oval-5" fill="#828D99" fill-rule="nonzero"></path>
            <polygon id="Path-18" fill="#828D99" fill-rule="nonzero" transform="translate(45.000000, 45.000000) scale(-1, 1) translate(-45.000000, -45.000000) " points="55.0588235 59.5588235 55.0588235 61.1470588 22.2352941 61.1470588 21.4411765 61.1470588 21.4411765 28.8529412 68.5588235 28.8529412 68.5588235 44.4705882 66.9705882 44.4705882 66.9705882 30.4411765 23.0294118 30.4411765 23.0294118 59.5588235"></polygon>
            <circle id="Oval" stroke="#00A4C7" stroke-width="1.5" cx="22.7647059" cy="57.7058824" r="10.0588235"></circle>
            <path d="M25.9411765,53.3132426 L24.4046368,53.3132426 C24.1002718,53.3132426 23.7928089,53.631548 23.7928089,53.86776 L23.7928089,55.4476698 L25.9373041,55.4476698 C25.8513385,56.6597084 25.6747603,57.7671942 25.6747603,57.7671942 L23.7819664,57.7671942 L23.7819664,64.6343805 L20.9613628,64.6343805 L20.9613628,57.7671942 L19.5882353,57.7671942 L19.5882353,55.4569634 L20.9613628,55.4569634 L20.9613628,53.5664929 C20.9613628,53.2203068 20.8916609,50.908527 23.8516683,50.908527 L25.9411765,50.908527 L25.9411765,53.3132426" id="Fill-10" fill="#00A4C7" fill-rule="evenodd"></path>
            <polygon id="Path-19" fill="#828D99" fill-rule="nonzero" points="32.6702378 38.6470588 32.6702378 37.0588235 57.3297622 37.0588235 57.3297622 38.6470588"></polygon>
            <polygon id="Path-19-Copy" fill="#828D99" fill-rule="nonzero" points="32.6702378 43.9411765 32.6702378 42.3529412 57.3297622 42.3529412 57.3297622 43.9411765"></polygon>
            <polygon id="Path-19-Copy-2" fill="#828D99" fill-rule="nonzero" points="32.6702378 49.2352941 32.6702378 47.6470588 57.3297622 47.6470588 57.3297622 49.2352941"></polygon>
        </g>
    </g>
</svg>