<?xml version="1.0" encoding="UTF-8"?>
<svg width="91px" height="92px" viewBox="0 0 91 92" version="1.1" xmlns="http://www.w3.org/2000/svg" xmlns:xlink="http://www.w3.org/1999/xlink">
    <!-- Generator: Sketch 51.2 (57519) - http://www.bohemiancoding.com/sketch -->
    <title>Slice 1</title>
    <desc>Created with Sketch.</desc>
    <defs></defs>
    <g id="Page-1" stroke="none" stroke-width="1" fill="none" fill-rule="evenodd">
        <g id="icons-/-Front-Page-1---pebble-" transform="translate(0.000000, 1.000000)">
            <g id="icons-/-ad-creative---pebble" stroke-width="1" fill-rule="evenodd" stroke="#828D99">
                <circle id="Oval-5" stroke-width="1.5" cx="45.5182486" cy="44.960454" r="44.3478261"></circle>
            </g>
            <path d="M53.4782609,33.8480479 L39.6975425,19.5652174 L33.5727788,25.862069 L33.5727788,24.2878561 L33.5727788,22.9041229 C33.5727788,21.9344078 32.7995274,21.1394303 31.8563138,21.1394303 L26.1020983,21.1394303 C25.1588847,21.1394303 24.3856333,21.9344078 24.3856333,22.9041229 L24.3856333,35.3073463 L18.2608696,41.6041979 L22.8544423,41.6041979 L22.8544423,62.0689655 C22.8544423,63.8005997 24.2325142,65.2173913 25.9168242,65.2173913 L39.0630358,65.2173913" id="Path-Copy-2" stroke="#828D99" stroke-width="1.5" stroke-linecap="round" stroke-linejoin="round"></path>
            <g id="icon---payments-&amp;-invoices-copy" stroke-width="1" fill-rule="evenodd" transform="translate(37.826087, 32.608696)">
                <rect id="Rectangle-17" fill="#FFFFFF" opacity="0" x="0" y="0" width="39.1304348" height="40.4347826"></rect>
                <ellipse id="Oval-5" stroke="#00A4C7" stroke-width="1.5" cx="17.6086957" cy="20.673913" rx="13.6956522" ry="14.1521739"></ellipse>
                <path d="M17.6086957,13.1413043 L17.6086957,29.3152174" id="Stroke-4924" stroke="#00A4C7" stroke-width="1.5" stroke-linecap="round" stroke-linejoin="round"></path>
                <path d="M14.673913,24.2608696 C14.673913,25.9358804 15.9886957,27.2934783 17.6086957,27.2934783 C19.2286957,27.2934783 20.5434783,25.9358804 20.5434783,24.2608696 C20.5434783,22.5858587 19.2286957,21.2282609 17.6086957,21.2282609 C15.9886957,21.2282609 14.673913,19.870663 14.673913,18.1956522 C14.673913,16.5206413 15.9886957,15.1630435 17.6086957,15.1630435 C19.2286957,15.1630435 20.5434783,16.5206413 20.5434783,18.1956522" id="Stroke-4925" stroke="#00A4C7" stroke-width="1.5" stroke-linecap="round" stroke-linejoin="round"></path>
            </g>
        </g>
    </g>
</svg>