<?xml version="1.0" encoding="UTF-8"?>
<svg width="91px" height="92px" viewBox="0 0 91 92" version="1.1" xmlns="http://www.w3.org/2000/svg" xmlns:xlink="http://www.w3.org/1999/xlink">
    <!-- Generator: Sketch 51.2 (57519) - http://www.bohemiancoding.com/sketch -->
    <title>Slice 1</title>
    <desc>Created with Sketch.</desc>
    <defs></defs>
    <g id="Page-1" stroke="none" stroke-width="1" fill="none" fill-rule="evenodd">
        <g id="icons-/-Front-Page-3---pebble-" transform="translate(0.000000, 1.000000)">
            <g id="icons-/-ad-creative---pebble" stroke-width="1" fill-rule="evenodd" stroke="#828D99">
                <circle id="Oval-5" stroke-width="1.5" cx="45.5182486" cy="44.960454" r="44.3478261"></circle>
            </g>
            <path d="M53.4782609,33.8480479 L39.6975425,19.5652174 L33.5727788,25.862069 L33.5727788,24.2878561 L33.5727788,22.9041229 C33.5727788,21.9344078 32.7995274,21.1394303 31.8563138,21.1394303 L26.1020983,21.1394303 C25.1588847,21.1394303 24.3856333,21.9344078 24.3856333,22.9041229 L24.3856333,35.3073463 L18.2608696,41.6041979 L22.8544423,41.6041979 L22.8544423,62.0689655 C22.8544423,63.8005997 24.2325142,65.2173913 25.9168242,65.2173913 L39.0630358,65.2173913" id="Path-Copy-2" stroke="#828D99" stroke-width="1.5" stroke-linecap="round" stroke-linejoin="round"></path>
            <g id="Group" stroke-width="1" fill-rule="evenodd" transform="translate(40.434783, 48.913043) rotate(-90.000000) translate(-40.434783, -48.913043) translate(31.956522, 41.086957)" stroke="#00A4C7" stroke-linecap="round" stroke-linejoin="round">
                <path d="M15.7864812,0.476837257 L1.60568369,14.6576347" id="Stroke-1855" stroke-width="1.5"></path>
                <polyline id="Stroke-1857" stroke-width="1.5" points="4.20199546 0.476837257 15.7866711 0.476837257 15.7866711 12.060563"></polyline>
            </g>
            <g id="icon---mobile" stroke-width="1" fill-rule="evenodd" transform="translate(43.043478, 36.521739)" stroke="#828D99">
                <rect id="Rectangle-17" stroke-width="1.5" opacity="0" x="0.75" y="0.75" width="32.4130435" height="32.4130435"></rect>
                <path d="M24.7826087,24.9625187 C24.7826087,26.2983508 23.6432225,27.3913043 22.2506394,27.3913043 L12.9667519,27.3913043 C11.5741688,27.3913043 10.4347826,26.2983508 10.4347826,24.9625187 L10.4347826,6.34182909 C10.4347826,5.005997 11.5741688,3.91304348 12.9667519,3.91304348 L22.2506394,3.91304348 C23.6432225,3.91304348 24.7826087,5.005997 24.7826087,6.34182909 L24.7826087,24.9625187 L24.7826087,24.9625187 Z" id="Stroke-6138" stroke-width="1.5" stroke-linecap="round"></path>
                <path d="M10.4347826,7.82608696 L24.7826087,7.82608696" id="Stroke-6139" stroke-width="1.5" stroke-linecap="round"></path>
                <path d="M10.4347826,24.7826087 L24.7826087,24.7826087" id="Stroke-6140" stroke-width="1.5" stroke-linecap="round"></path>
                <path d="M19.5652174,27.3913043 C19.5652174,28.1113043 18.9821739,28.6956522 18.2608696,28.6956522 C17.5395652,28.6956522 16.9565217,28.1113043 16.9565217,27.3913043 C16.9565217,26.6713043 17.5395652,26.0869565 18.2608696,26.0869565 C18.9821739,26.0869565 19.5652174,26.6713043 19.5652174,27.3913043 L19.5652174,27.3913043 Z" id="Stroke-6142" stroke-width="1.5" stroke-linecap="round"></path>
            </g>
        </g>
    </g>
</svg>