<?xml version="1.0" encoding="UTF-8"?>
<svg width="70px" height="70px" viewBox="0 0 70 70" version="1.1" xmlns="http://www.w3.org/2000/svg" xmlns:xlink="http://www.w3.org/1999/xlink">
    <!-- Generator: Sketch 51.2 (57519) - http://www.bohemiancoding.com/sketch -->
    <title>icons / property - pebble</title>
    <desc>Created with Sketch.</desc>
    <defs></defs>
    <g id="Page-1" stroke="none" stroke-width="1" fill="none" fill-rule="evenodd">
        <g id="icons-/-property---pebble" transform="translate(1.000000, 1.000000)">
            <g>
                <circle id="Oval-5" stroke="#828D99" stroke-width="1.5" cx="34" cy="34" r="34"></circle>
                <path d="M30,22.121 C30,21.505 29.495,21 28.879,21 L25.121,21 C24.505,21 24,21.505 24,22.121 L24,30 L20,34 L23,34 L23,47 C23,48.1 23.9,49 25,49 L43,49 C44.1,49 45,48.1 45,47 L45,34 L48,34 L34,20 L30,24 L30,23 L30,22.121 L30,22.121 Z M30,49 L30,38 C30,37.45 30.4,37 30.889,37 L37.111,37 C37.6,37 38,37.45 38,38 L38,49" id="Imported-Layers" stroke="#00A4C7" stroke-width="1.5" stroke-linecap="round" stroke-linejoin="round"></path>
            </g>
        </g>
    </g>
</svg>