<?xml version="1.0" encoding="UTF-8"?>
<svg width="97px" height="97px" viewBox="0 0 97 97" version="1.1" xmlns="http://www.w3.org/2000/svg" xmlns:xlink="http://www.w3.org/1999/xlink">
    <!-- Generator: Sketch 51.2 (57519) - http://www.bohemiancoding.com/sketch -->
    <title>icons / eye - pebble</title>
    <desc>Created with Sketch.</desc>
    <defs></defs>
    <g id="Page-1" stroke="none" stroke-width="1" fill="none" fill-rule="evenodd">
        <g id="icons-/-inspection-times---pebble">
            <path d="M48.3823529,96.7647059 C21.6615173,96.7647059 0,75.1031886 0,48.3823529 C0,21.6615173 21.6615173,0 48.3823529,0 C75.1031886,0 96.7647059,21.6615173 96.7647059,48.3823529 C96.7647059,75.1031886 75.1031886,96.7647059 48.3823529,96.7647059 Z M48.3823529,94 C73.5762837,94 94,73.5762837 94,48.3823529 C94,23.1884221 73.5762837,2.76470588 48.3823529,2.76470588 C23.1884221,2.76470588 2.76470588,23.1884221 2.76470588,48.3823529 C2.76470588,73.5762837 23.1884221,94 48.3823529,94 Z" id="Oval-5" fill="#828D99" fill-rule="nonzero"></path>
            <path d="M77.4117647,55.2941176 C77.4117647,63.8431914 70.4770781,70.7764706 61.9294118,70.7764706 C53.3761155,70.7764706 46.4470588,63.8431914 46.4470588,55.2941176 C46.4470588,46.7422289 53.3761155,39.8117647 61.9294118,39.8117647 C70.4770781,39.8117647 77.4117647,46.7422289 77.4117647,55.2941176 L77.4117647,55.2941176 Z" id="Stroke-9580" stroke="#00A4C7" stroke-width="2"></path>
            <polyline id="Stroke-9581" stroke="#00A4C7" stroke-width="2" stroke-linecap="round" points="67.6869899 55.3907621 61.3698687 55.3907621 61.3698687 46.4470588"></polyline>
            <path d="M60.8235294,35.1550081 L46.1104859,19.9058824 L39.5713555,26.6287431 L39.5713555,24.9480279 L39.5713555,23.4706793 C39.5713555,22.4353587 38.7457903,21.5865976 37.7387642,21.5865976 L31.5952512,21.5865976 C30.5882251,21.5865976 29.7626598,22.4353587 29.7626598,23.4706793 L29.7626598,36.7130343 L23.2235294,43.4358951 L28.1278772,43.4358951 L28.1278772,65.2851927 C28.1278772,67.1339794 29.5991816,68.6466231 31.3974425,68.6466231 L45.4330521,68.6466231" id="Path-Copy-2" stroke="#828D99" stroke-width="1.5" stroke-linecap="round" stroke-linejoin="round"></path>
        </g>
    </g>
</svg>