<?xml version="1.0" encoding="UTF-8"?>
<svg width="93px" height="93px" viewBox="0 0 93 93" version="1.1" xmlns="http://www.w3.org/2000/svg" xmlns:xlink="http://www.w3.org/1999/xlink">
    <!-- Generator: Sketch 51.2 (57519) - http://www.bohemiancoding.com/sketch -->
    <title>icons / search agent - pebble</title>
    <desc>Created with Sketch.</desc>
    <defs></defs>
    <g id="Page-1" stroke="none" stroke-width="1" fill="none" fill-rule="evenodd">
        <g id="icons-/-security---pebble">
            <path d="M46.3235294,92.6470588 C20.7397506,92.6470588 0,71.9073083 0,46.3235294 C0,20.7397506 20.7397506,0 46.3235294,0 C71.9073083,0 92.6470588,20.7397506 92.6470588,46.3235294 C92.6470588,71.9073083 71.9073083,92.6470588 46.3235294,92.6470588 Z M46.3235294,90 C70.445378,90 90,70.445378 90,46.3235294 C90,22.2016808 70.445378,2.64705882 46.3235294,2.64705882 C22.2016808,2.64705882 2.64705882,22.2016808 2.64705882,46.3235294 C2.64705882,70.445378 22.2016808,90 46.3235294,90 Z" id="Oval-5" fill="#828D99" fill-rule="nonzero"></path>
            <g id="Stroke-4239-+-Stroke-4240" stroke-width="1" fill-rule="evenodd" transform="translate(23.294118, 23.294118)" fill="#00A4C7">
                <path d="M12.5011765,35.7168706 C12.5011765,34.3874104 11.4232056,33.3098118 10.0941176,33.3098118 C8.76406723,33.3098118 7.68705882,34.3868202 7.68705882,35.7168706 C7.68705882,37.0459585 8.7646575,38.1239294 10.0941176,38.1239294 C11.4226151,38.1239294 12.5011765,37.0453681 12.5011765,35.7168706 Z M13.8988235,35.7168706 C13.8988235,37.8172672 12.1945143,39.5215765 10.0941176,39.5215765 C7.99265027,39.5215765 6.28941176,37.8177496 6.28941176,35.7168706 C6.28941176,33.614921 7.99216807,31.9121647 10.0941176,31.9121647 C12.1949967,31.9121647 13.8988235,33.6154032 13.8988235,35.7168706 Z" id="Stroke-4239" fill-rule="nonzero"></path>
                <path d="M40.0870084,0.0768705882 L46.5105882,0.0768705882 L46.5105882,6.90075234 L44.9576471,8.79068176 L44.9576471,12.3451059 L41.4424034,12.3451059 L41.0752941,12.7122151 L41.0752941,16.2274588 L37.5600504,16.2274588 L37.1929412,16.5945681 L37.1929412,20.1098118 L33.6776975,20.1098118 L28.0224185,25.7650907 C28.9425662,27.7323846 29.4282353,29.7481961 29.4282353,31.8345176 C29.4282353,39.9391092 22.858037,46.5098118 14.7529412,46.5098118 C6.64784532,46.5098118 0.0776470588,39.9391092 0.0776470588,31.8345176 C0.0776470588,23.7288975 6.64732101,17.1592235 14.7529412,17.1592235 C17.328085,17.1592235 19.6937328,17.6123741 21.6099462,18.5539328 L40.0870084,0.0768705882 Z M40.6659328,1.47451765 L21.8623323,20.2781181 L21.4013972,20.0216472 C19.6392641,19.0411713 17.323323,18.5568706 14.7529412,18.5568706 C7.41922017,18.5568706 1.47529412,24.5007966 1.47529412,31.8345176 C1.47529412,39.1672341 7.41976849,45.1121647 14.7529412,45.1121647 C22.0861139,45.1121647 28.0305882,39.1672341 28.0305882,31.8345176 C28.0305882,29.8158884 27.522008,27.8621782 26.5523512,25.9371242 L26.3250578,25.48588 L33.0987731,18.7121647 L35.7952941,18.7121647 L35.7952941,16.0156437 L36.9811261,14.8298118 L39.6776471,14.8298118 L39.6776471,12.1332908 L40.863479,10.9474588 L43.56,10.9474588 L43.56,8.29011824 L45.1129412,6.40018883 L45.1129412,1.47451765 L40.6659328,1.47451765 Z" id="Stroke-4240" fill-rule="nonzero"></path>
            </g>
        </g>
    </g>
</svg>