<?xml version="1.0" encoding="UTF-8"?>
<svg width="70px" height="70px" viewBox="0 0 70 70" version="1.1" xmlns="http://www.w3.org/2000/svg" xmlns:xlink="http://www.w3.org/1999/xlink">
    <!-- Generator: Sketch 51.2 (57519) - http://www.bohemiancoding.com/sketch -->
    <title>icons / standout - pebble</title>
    <desc>Created with Sketch.</desc>
    <defs></defs>
    <g id="Page-1" stroke="none" stroke-width="1" fill="none" fill-rule="evenodd">
        <g id="icons-/-standout---pebble">
            <path d="M35,70 C15.6700338,70 0,54.3299662 0,35 C0,15.6700338 15.6700338,0 35,0 C54.3299662,0 70,15.6700338 70,35 C70,54.3299662 54.3299662,70 35,70 Z M35,68 C53.2253967,68 68,53.2253967 68,35 C68,16.7746033 53.2253967,2 35,2 C16.7746033,2 2,16.7746033 2,35 C2,53.2253967 16.7746033,68 35,68 Z" id="Oval-5" fill="#828D99" fill-rule="nonzero"></path>
            <g id="Group" stroke-width="1" fill-rule="evenodd" transform="translate(15.200000, 17.600000)">
                <path d="M0.0755086703,18.3385481 C0.0673942324,18.0946946 0.0659427312,17.8995083 0.0665215218,17.4864888 C0.0666305882,17.4089346 0.0666305882,17.4089346 0.0666666667,17.3333333 L0.0666666667,14.2726686 C0.0666666667,13.0475418 1.04802078,12.0666667 2.26635865,12.0666667 L7.06697468,12.0666667 C8.28682447,12.0666667 9.26666667,13.05304 9.26666667,14.2726686 L9.26666639,17.3339114 C9.26663013,17.4095637 9.26663013,17.4095637 9.26666669,17.4871938 C9.26686222,17.9035323 9.2652116,18.0992493 9.2567302,18.3446342 C9.20324712,19.8920136 8.86297557,20.9006548 7.93333333,21.184585 L7.93333333,27.9333333 L1.4,27.9333333 L1.4,21.1849152 C0.467113578,20.9011513 0.1271513,19.8905023 0.0755086703,18.3385481 Z M6.73333333,20.0666667 L7.33333333,20.0666667 C7.79041034,20.0666667 8.01422551,19.5536534 8.05744635,18.3031826 C8.06528573,18.0763727 8.06685583,17.890203 8.06666682,17.4877574 C8.06663003,17.4098534 8.06663003,17.4098534 8.06666667,17.3333333 L8.06666667,14.2726686 C8.06666667,13.7140037 7.62229164,13.2666667 7.06697468,13.2666667 L2.26635865,13.2666667 C1.71063137,13.2666667 1.26666667,13.7104147 1.26666667,14.2726686 L1.26666667,17.3333333 C1.26662988,17.4103574 1.26662988,17.4103574 1.26652034,17.4881704 C1.2659608,17.8874561 1.26734177,18.073158 1.27484485,18.2986392 C1.31658806,19.5530977 1.54007028,20.0666667 2,20.0666667 L2.6,20.0666667 L2.6,26.7333333 L6.73333333,26.7333333 L6.73333333,20.0666667 Z" id="Stroke-4459" fill="#828D99" fill-rule="nonzero"></path>
                <path d="M30.7333333,17.3333333 L30.7333333,14.2726686 C30.7333333,13.0475418 31.7146874,12.0666667 32.9330253,12.0666667 L37.7336413,12.0666667 C38.9534911,12.0666667 39.9333333,13.05304 39.9333333,14.2726686 L39.9333331,17.3339114 C39.9320042,18.7132778 39.416518,20.0137393 38.6,20.4476649 L38.6,27.9333333 L32.0666667,27.9333333 L32.0666667,20.4586208 C31.2509924,20.0538349 30.7333333,18.8232677 30.7333333,17.3333333 Z M37.4,19.4 L38,19.4 C38.2623931,19.4 38.7322604,18.4467486 38.7333333,17.3333333 L38.7333333,14.2726686 C38.7333333,13.7140037 38.2889583,13.2666667 37.7336413,13.2666667 L32.9330253,13.2666667 C32.377298,13.2666667 31.9333333,13.7104147 31.9333333,14.2726686 L31.9333333,17.3333333 C31.9333333,18.5873084 32.3740554,19.4 32.6666667,19.4 L33.2666667,19.4 L33.2666667,26.7333333 L37.4,26.7333333 L37.4,19.4 Z" id="Stroke-4460" fill="#828D99" fill-rule="nonzero"></path>
                <path d="M22.7333333,24.0666667 L23.3333333,24.0666667 C24.6736628,24.0666667 25.4,23.0623589 25.4,21.3333333 L25.4,14.2663668 C25.4,13.7095626 24.9574848,13.2666667 24.4064927,13.2666667 L15.5935073,13.2666667 C15.0460938,13.2666667 14.6,13.7142457 14.6,14.2663668 L14.6,21.3333333 C14.6,23.0630921 15.3255291,24.0666667 16.6666667,24.0666667 L17.2666667,24.0666667 L17.2666667,33.4 L22.7333333,33.4 L22.7333333,24.0666667 Z M16.0666667,25.2197074 C14.3432313,24.939198 13.4,23.4261498 13.4,21.3333333 L13.4,14.2663668 C13.4,13.0523953 14.3824576,12.0666667 15.5935073,12.0666667 L24.4064927,12.0666667 C25.6204577,12.0666667 26.6,13.0470518 26.6,14.2663668 L26.6,21.3333333 C26.6,23.4254472 25.6560925,24.9389437 23.9333333,25.2196523 L23.9333333,34.6 L16.0666667,34.6 L16.0666667,25.2197074 Z" id="Stroke-4461" fill="#00A4C7" fill-rule="nonzero"></path>
                <path d="M37.4,7.33333333 C37.4,6.19270418 36.4739625,5.26666667 35.3333333,5.26666667 C34.1927042,5.26666667 33.2666667,6.19270418 33.2666667,7.33333333 C33.2666667,8.47396248 34.1927042,9.4 35.3333333,9.4 C36.4739625,9.4 37.4,8.47396248 37.4,7.33333333 Z M38.6,7.33333333 C38.6,9.13670418 37.1367042,10.6 35.3333333,10.6 C33.5299625,10.6 32.0666667,9.13670418 32.0666667,7.33333333 C32.0666667,5.52996248 33.5299625,4.06666667 35.3333333,4.06666667 C37.1367042,4.06666667 38.6,5.52996248 38.6,7.33333333 Z" id="Stroke-4462" fill="#828D99" fill-rule="nonzero"></path>
                <path d="M6.73333333,7.33333333 C6.73333333,6.19270418 5.80729582,5.26666667 4.66666667,5.26666667 C3.52603752,5.26666667 2.6,6.19270418 2.6,7.33333333 C2.6,8.47396248 3.52603752,9.4 4.66666667,9.4 C5.80729582,9.4 6.73333333,8.47396248 6.73333333,7.33333333 Z M7.93333333,7.33333333 C7.93333333,9.13670418 6.47003752,10.6 4.66666667,10.6 C2.86329582,10.6 1.4,9.13670418 1.4,7.33333333 C1.4,5.52996248 2.86329582,4.06666667 4.66666667,4.06666667 C6.47003752,4.06666667 7.93333333,5.52996248 7.93333333,7.33333333 Z" id="Stroke-4463" fill="#828D99" fill-rule="nonzero"></path>
                <path d="M24.0666667,5.33333333 C24.0666667,3.08737085 22.2459625,1.26666667 20,1.26666667 C17.7540375,1.26666667 15.9333333,3.08737085 15.9333333,5.33333333 C15.9333333,7.57929582 17.7540375,9.4 20,9.4 C22.2459625,9.4 24.0666667,7.57929582 24.0666667,5.33333333 Z M25.2666667,5.33333333 C25.2666667,8.24203752 22.9087042,10.6 20,10.6 C17.0912958,10.6 14.7333333,8.24203752 14.7333333,5.33333333 C14.7333333,2.42462915 17.0912958,0.0666666667 20,0.0666666667 C22.9087042,0.0666666667 25.2666667,2.42462915 25.2666667,5.33333333 Z" id="Stroke-4464" fill="#00A4C7" fill-rule="nonzero"></path>
            </g>
        </g>
    </g>
</svg>