<?xml version="1.0" encoding="UTF-8"?>
<svg width="93px" height="93px" viewBox="0 0 93 93" version="1.1" xmlns="http://www.w3.org/2000/svg" xmlns:xlink="http://www.w3.org/1999/xlink">
    <!-- Generator: Sketch 51.2 (57519) - http://www.bohemiancoding.com/sketch -->
    <title>icons / save time quick - pebble</title>
    <desc>Created with Sketch.</desc>
    <defs></defs>
    <g id="Page-1" stroke="none" stroke-width="1" fill="none" fill-rule="evenodd">
        <g id="icons-/-mobile---pebble-">
            <path d="M46.3235294,92.6470588 C20.7397506,92.6470588 0,71.9073083 0,46.3235294 C0,20.7397506 20.7397506,0 46.3235294,0 C71.9073083,0 92.6470588,20.7397506 92.6470588,46.3235294 C92.6470588,71.9073083 71.9073083,92.6470588 46.3235294,92.6470588 Z M46.3235294,90 C70.445378,90 90,70.445378 90,46.3235294 C90,22.2016808 70.445378,2.64705882 46.3235294,2.64705882 C22.2016808,2.64705882 2.64705882,22.2016808 2.64705882,46.3235294 C2.64705882,70.445378 22.2016808,90 46.3235294,90 Z" id="Oval-5" fill="#828D99" fill-rule="nonzero"></path>
            <g id="icon---mobile" stroke-width="1" fill-rule="evenodd" transform="translate(32.823529, 22.235294)" fill="#00A4C7">
                <path d="M26.4705882,41.5588235 L26.4705882,5.02941176 C26.4705882,2.8474026 24.6820092,1.05882353 22.5,1.05882353 L5.02941176,1.05882353 C2.8474026,1.05882353 1.05882353,2.8474026 1.05882353,5.02941176 L1.05882353,41.5588235 C1.05882353,43.7408327 2.8474026,45.5294118 5.02941176,45.5294118 L22.5,45.5294118 C24.6820092,45.5294118 26.4705882,43.7408327 26.4705882,41.5588235 Z M28.0588235,41.5588235 C28.0588235,44.6179908 25.5591673,47.1176471 22.5,47.1176471 L5.02941176,47.1176471 C1.97024446,47.1176471 -0.529411765,44.6179908 -0.529411765,41.5588235 L-0.529411765,5.02941176 C-0.529411765,1.97024446 1.97024446,-0.529411765 5.02941176,-0.529411765 L22.5,-0.529411765 C25.5591673,-0.529411765 28.0588235,1.97024446 28.0588235,5.02941176 L28.0588235,41.5588235 Z" id="Stroke-6138" fill-rule="nonzero"></path>
                <path d="M0.264705882,7.41176471 C-0.173873184,7.41176471 -0.529411765,7.05622612 -0.529411765,6.61764706 C-0.529411765,6.17906799 -0.173873184,5.82352941 0.264705882,5.82352941 L27.2647059,5.82352941 C27.7032849,5.82352941 28.0588235,6.17906799 28.0588235,6.61764706 C28.0588235,7.05622612 27.7032849,7.41176471 27.2647059,7.41176471 L0.264705882,7.41176471 Z" id="Stroke-6139" fill-rule="nonzero"></path>
                <path d="M0.264705882,39.1764706 C-0.173873184,39.1764706 -0.529411765,38.820932 -0.529411765,38.3823529 C-0.529411765,37.9437739 -0.173873184,37.5882353 0.264705882,37.5882353 L27.2647059,37.5882353 C27.7032849,37.5882353 28.0588235,37.9437739 28.0588235,38.3823529 C28.0588235,38.820932 27.7032849,39.1764706 27.2647059,39.1764706 L0.264705882,39.1764706 Z" id="Stroke-6140" fill-rule="nonzero"></path>
                <path d="M14.5588235,42.3529412 C14.5588235,41.9141428 14.2037497,41.5588235 13.7647059,41.5588235 C13.3256621,41.5588235 12.9705882,41.9141428 12.9705882,42.3529412 C12.9705882,42.7917396 13.3256621,43.1470588 13.7647059,43.1470588 C14.2037497,43.1470588 14.5588235,42.7917396 14.5588235,42.3529412 Z M16.1470588,42.3529412 C16.1470588,43.6686522 15.0811535,44.7352941 13.7647059,44.7352941 C12.4482583,44.7352941 11.3823529,43.6686522 11.3823529,42.3529412 C11.3823529,41.0372302 12.4482583,39.9705882 13.7647059,39.9705882 C15.0811535,39.9705882 16.1470588,41.0372302 16.1470588,42.3529412 Z" id="Stroke-6142" fill-rule="nonzero"></path>
            </g>
        </g>
    </g>
</svg>