<?xml version="1.0" encoding="UTF-8"?>
<svg width="93px" height="93px" viewBox="0 0 93 93" version="1.1" xmlns="http://www.w3.org/2000/svg" xmlns:xlink="http://www.w3.org/1999/xlink">
    <!-- Generator: Sketch 51.2 (57519) - http://www.bohemiancoding.com/sketch -->
    <title>icons / search agent - pebble</title>
    <desc>Created with Sketch.</desc>
    <defs></defs>
    <g id="Page-1" stroke="none" stroke-width="1" fill="none" fill-rule="evenodd">
        <g id="icons-/-SMS---pebble">
            <path d="M46.3235294,92.6470588 C20.7397506,92.6470588 0,71.9073083 0,46.3235294 C0,20.7397506 20.7397506,0 46.3235294,0 C71.9073083,0 92.6470588,20.7397506 92.6470588,46.3235294 C92.6470588,71.9073083 71.9073083,92.6470588 46.3235294,92.6470588 Z M46.3235294,90 C70.445378,90 90,70.445378 90,46.3235294 C90,22.2016808 70.445378,2.64705882 46.3235294,2.64705882 C22.2016808,2.64705882 2.64705882,22.2016808 2.64705882,46.3235294 C2.64705882,70.445378 22.2016808,90 46.3235294,90 Z" id="Oval-5" fill="#828D99" fill-rule="nonzero"></path>
            <g id="Group" stroke-width="1" fill-rule="evenodd" transform="translate(25.411765, 24.352941)">
                <path d="M12.4637143,41.8666387 C12.4637143,41.7780362 12.3934162,41.7078151 12.3048908,41.7078151 C12.2148916,41.7078151 12.1445546,41.777998 12.1445546,41.8666387 C12.1445546,41.9552793 12.2148916,42.0254622 12.3048908,42.0254622 C12.3934162,42.0254622 12.4637143,41.9552412 12.4637143,41.8666387 Z M14.0519496,41.8666387 C14.0519496,42.8327896 13.2701845,43.6136975 12.3048908,43.6136975 C11.3385122,43.6136975 10.5563193,42.8332181 10.5563193,41.8666387 C10.5563193,40.9000592 11.3385122,40.1195798 12.3048908,40.1195798 C13.2701845,40.1195798 14.0519496,40.9004877 14.0519496,41.8666387 Z" id="Stroke-454" fill="#00A4C7" fill-rule="nonzero"></path>
                <path d="M22.197479,28.2857143 C22.197479,27.8471352 22.5530176,27.4915966 22.9915966,27.4915966 C23.4301757,27.4915966 23.7857143,27.8471352 23.7857143,28.2857143 L23.7822786,41.9729491 C23.5421441,44.5460825 21.6829493,46.4747899 19.210084,46.4747899 L5.59663866,46.4747899 C3.05545978,46.4747899 1.0210084,44.4160853 1.0210084,41.867395 L1.0210084,13.1596639 C1.0210084,10.614026 3.05100077,8.58403361 5.59663866,8.58403361 L11.6470588,8.58403361 C12.0856379,8.58403361 12.4411765,8.93957219 12.4411765,9.37815126 C12.4411765,9.81673033 12.0856379,10.1722689 11.6470588,10.1722689 L5.59663866,10.1722689 C3.9281589,10.1722689 2.6092437,11.4911841 2.6092437,13.1596639 L2.6092437,41.867395 C2.6092437,43.5431128 3.93685872,44.8865546 5.59663866,44.8865546 L19.210084,44.8865546 C20.8150468,44.8865546 22.0331629,43.6228949 22.197479,41.8991597 L22.197479,28.2857143 Z" id="Stroke-455" fill="#00A4C7" fill-rule="nonzero"></path>
                <path d="M10.8907563,16.1470588 C11.3293354,16.1470588 11.6848739,16.5025974 11.6848739,16.9411765 C11.6848739,17.3797555 11.3293354,17.7352941 10.8907563,17.7352941 L1.81512605,17.7352941 C1.37654698,17.7352941 1.0210084,17.3797555 1.0210084,16.9411765 C1.0210084,16.5025974 1.37654698,16.1470588 1.81512605,16.1470588 L10.8907563,16.1470588 Z" id="Stroke-456" fill="#00A4C7" fill-rule="nonzero"></path>
                <path d="M22.9915966,37.3235294 C23.4301757,37.3235294 23.7857143,37.679068 23.7857143,38.1176471 C23.7857143,38.5562261 23.4301757,38.9117647 22.9915966,38.9117647 L1.81512605,38.9117647 C1.37654698,38.9117647 1.0210084,38.5562261 1.0210084,38.1176471 C1.0210084,37.679068 1.37654698,37.3235294 1.81512605,37.3235294 L22.9915966,37.3235294 Z" id="Stroke-457" fill="#00A4C7" fill-rule="nonzero"></path>
                <path d="M9.37815126,13.9537815 C8.93957219,13.9537815 8.58403361,13.5982429 8.58403361,13.1596639 C8.58403361,12.7210848 8.93957219,12.3655462 9.37815126,12.3655462 L10.8907563,12.3655462 C11.3293354,12.3655462 11.6848739,12.7210848 11.6848739,13.1596639 C11.6848739,13.5982429 11.3293354,13.9537815 10.8907563,13.9537815 L9.37815126,13.9537815 Z" id="Stroke-458" fill="#00A4C7" fill-rule="nonzero"></path>
                <path d="M31.608564,17.8877483 C31.7571052,17.7415823 31.95715,17.6596639 32.1655462,17.6596639 L39.6302521,17.6596639 C40.7708327,17.6596639 41.8613445,16.569152 41.8613445,15.4285714 L41.8613445,4.84033613 C41.8613445,3.69975554 40.7708327,2.6092437 39.6302521,2.6092437 L19.9663866,2.6092437 C18.825806,2.6092437 17.7352941,3.69975554 17.7352941,4.84033613 L17.7352941,15.4285714 C17.7352941,16.569152 18.825806,17.6596639 19.9663866,17.6596639 L26.0168067,17.6596639 C26.4553858,17.6596639 26.8109244,18.0152024 26.8109244,18.4537815 L26.8109244,22.6086729 L31.608564,17.8877483 Z M19.9663866,19.2478992 C17.9486478,19.2478992 16.1470588,17.4463102 16.1470588,15.4285714 L16.1470588,4.84033613 C16.1470588,2.8225974 17.9486478,1.0210084 19.9663866,1.0210084 L39.6302521,1.0210084 C41.6479908,1.0210084 43.4495798,2.8225974 43.4495798,4.84033613 L43.4495798,15.4285714 C43.4495798,17.4463102 41.6479908,19.2478992 39.6302521,19.2478992 L32.4907377,19.2478992 L26.573789,25.0702349 C26.0717038,25.5642917 25.2226891,25.2086033 25.2226891,24.5042017 L25.2226891,19.2478992 L19.9663866,19.2478992 Z" id="Stroke-459" fill="#828D99" fill-rule="nonzero"></path>
                <path d="M22.2752269,8.24672269 C21.4617508,8.24672269 20.8025546,8.90825642 20.8025546,9.71939496 C20.8025546,10.5352086 21.4617508,11.1944048 22.2752269,11.1944048 C23.0910406,11.1944048 23.7478992,10.5352086 23.7478992,9.71939496 C23.7478992,8.90825642 23.0910406,8.24672269 22.2752269,8.24672269" id="Fill-462" fill="#00A4C7"></path>
                <path d="M29.8382521,8.24672269 C29.024776,8.24672269 28.3655798,8.90825642 28.3655798,9.71939496 C28.3655798,10.5352086 29.024776,11.1944048 29.8382521,11.1944048 C30.6540658,11.1944048 31.3109244,10.5352086 31.3109244,9.71939496 C31.3109244,8.90825642 30.6540658,8.24672269 29.8382521,8.24672269" id="Fill-462-Copy" fill="#00A4C7"></path>
                <path d="M37.4012773,8.24672269 C36.5878012,8.24672269 35.928605,8.90825642 35.928605,9.71939496 C35.928605,10.5352086 36.5878012,11.1944048 37.4012773,11.1944048 C38.217091,11.1944048 38.8739496,10.5352086 38.8739496,9.71939496 C38.8739496,8.90825642 38.217091,8.24672269 37.4012773,8.24672269" id="Fill-462-Copy-2" fill="#00A4C7"></path>
            </g>
        </g>
    </g>
</svg>