<?xml version="1.0" encoding="UTF-8"?>
<svg width="85px" height="85px" viewBox="0 0 85 85" version="1.1" xmlns="http://www.w3.org/2000/svg" xmlns:xlink="http://www.w3.org/1999/xlink">
    <!-- Generator: Sketch 63.1 (92452) - https://sketch.com -->
    <title>Slice 1</title>
    <desc>Created with Sketch.</desc>
    <g id="Page-1" stroke="none" stroke-width="1" fill="none" fill-rule="evenodd">
        <g id="Group-4">
            <g id="Group-9" transform="translate(26.000000, 48.000000)" fill="#00A4C7">
                <path d="M8.64055982,10.961509 L8.64055982,0 L22.3594402,0 L22.3594402,10.961509 L31,10.961509 L15.5,26 L0,10.961509 L8.64055982,10.961509 Z M9.44755278,0.782964929 L9.44755278,11.7444739 L1.94825335,11.7444739 L15.5,24.8927204 L29.0517466,11.7444739 L21.5524472,11.7444739 L21.5524472,0.782964929 L9.44755278,0.782964929 Z" id="Path-6" fill-rule="nonzero" transform="translate(15.500000, 13.000000) rotate(-180.000000) translate(-15.500000, -13.000000) "></path>
                <path d="M12.4,17.1223684 L13.176618,16.1084064 C13.176618,16.1084064 14.0308977,16.8923977 15.1403519,16.8923977 C15.7394572,16.8923977 16.2830898,16.5997076 16.2830898,15.9934211 C16.2830898,14.7390351 12.5331345,14.8644737 12.5331345,12.6170322 C12.5331345,11.5403509 13.3874143,10.7040936 14.6189084,10.5159357 L14.6189084,9.53333333 L15.5730391,9.53333333 L15.5730391,10.4950292 C16.860006,10.5995614 17.5256785,11.258114 17.5256785,11.258114 L16.9043841,12.3557018 C16.9043841,12.3557018 16.1499553,11.7076023 15.162541,11.7076023 C14.4968685,11.7076023 13.975425,12.0734649 13.975425,12.5961257 C13.975425,13.8400585 17.7142857,13.6205409 17.7142857,15.9620614 C17.7142857,17.0282895 16.9265732,17.9377193 15.5730391,18.1049708 L15.5730391,19.0666667 L14.6189084,19.0666667 L14.6189084,18.1049708 C13.1877125,17.9481725 12.4,17.1223684 12.4,17.1223684 Z" id="$"></path>
            </g>
            <path d="M55.2435168,49.4596607 C55.5152182,49.5881947 55.7933356,49.7203218 56.1606147,49.8952153 C56.6190018,50.1135943 56.8725168,50.2343694 57.077773,50.3320152 C57.7401236,50.6471127 58.2387508,50.8826168 58.7294015,51.1113111 C59.1238708,51.2951748 59.2916451,51.7577894 59.1041361,52.1445898 C58.9166271,52.5313902 58.4448405,52.6959029 58.0503713,52.5120392 C57.5552476,52.28126 57.0531824,52.0441321 56.3873738,51.7273895 C56.1816478,51.6295203 55.9276344,51.5085077 55.4696745,51.2903321 C55.1035117,51.1159702 54.8265054,50.984371 54.5562418,50.8565172 C52.4365197,49.8537382 50.9490014,49.1909055 49.4197559,48.5905191 C49.1196373,48.4726917 48.9228732,48.1876123 48.9228732,47.8706164 L48.9228732,40.8279811 C48.9228732,40.5085083 49.1226814,40.2217305 49.4261935,40.105583 C49.6794072,40.0086836 50.1523842,39.6421728 50.6674273,38.8390406 C51.596944,37.3895994 52.169257,35.1503156 52.169257,31.9458095 C52.169257,31.5175334 52.5233268,31.1703471 52.960094,31.1703471 C53.5947277,31.1703471 54.3537466,29.9162845 54.4901277,28.3297785 C54.632577,26.6726805 54.0787773,25.6194785 53.0778831,25.6194785 C52.6411159,25.6194785 52.2870461,25.2722921 52.2870461,24.8440161 C52.2870461,24.6154224 52.59999,22.7323512 52.6292392,22.5338641 C52.9084037,20.6394395 53.0255934,18.9373977 52.9150611,17.3205322 C52.8375814,16.1871591 52.6470213,15.1667455 52.331167,14.2788099 C51.6838533,12.4590698 47.8218397,10.8307239 43.3138129,10.5687608 C38.3623276,10.2810282 34.1204911,11.654184 32.3751111,14.4395846 C31.8460574,15.25523 31.49707,16.1644182 31.3080715,17.1613546 C30.9933063,18.8216896 31.1221363,20.5496745 31.5605554,22.585301 C31.6080348,22.8057526 31.6572611,23.0223826 31.718968,23.2853815 C31.7254635,23.3130657 31.8331694,23.7685643 31.8604428,23.8866762 C31.971418,24.3672722 32.0173968,24.6195021 32.0173968,24.8440161 C32.0173968,25.2722921 31.663327,25.6194785 31.2265598,25.6194785 C30.1632431,25.6194785 29.5826516,26.6737508 29.7117607,28.3360239 C29.8343465,29.9143095 30.5910887,31.1703471 31.2265598,31.1703471 C31.663327,31.1703471 32.0173968,31.5175334 32.0173968,31.9458095 C32.0173968,35.1195657 32.7348316,37.3300354 33.9058457,38.7679466 C34.2991848,39.2509354 34.71428,39.6067919 35.1228587,39.8561072 C35.3521266,39.9960069 35.5153612,40.0668034 35.5814948,40.0867323 C35.9134541,40.1867658 36.140017,40.4874511 36.140017,40.8279811 L36.140017,47.8706164 C36.140017,48.1878007 35.943022,48.4730098 35.642645,48.590711 C35.4052692,48.6837256 35.1026665,48.8021593 34.5459075,49.0200662 C34.0959492,49.1962395 33.7482868,49.3326116 33.4061571,49.4672484 C32.5263765,49.8134649 31.7744321,50.1125004 31.0566539,50.4025103 C29.839481,50.8942949 28.7638725,51.3429741 27.784459,51.7702335 C27.1944787,52.0276065 26.6437452,52.2753876 26.1308378,52.5147158 C25.7364476,52.6987425 25.2645904,52.5344249 25.0769151,52.1477021 C24.8892398,51.7609792 25.0568152,51.2982953 25.4512054,51.1142686 C25.9768997,50.8689739 26.5397711,50.6157318 27.1415439,50.3532144 C28.1357138,49.9195177 29.2243304,49.4654122 30.4540765,48.9685477 C31.1768836,48.6765059 31.9331207,48.3757631 32.817058,48.027911 C33.1601886,47.8928802 33.5086383,47.7561993 33.9593813,47.5797188 C34.2022291,47.4846719 34.3966461,47.4085801 34.558343,47.3452855 L34.558343,41.3397044 C33.9886789,41.0474492 33.3214567,40.5357987 32.669894,39.7357321 C31.3498523,38.1148269 30.5387547,35.7647155 30.4448804,32.576507 C29.1510279,32.0805409 28.2838007,30.3740562 28.134654,28.4538016 C27.9733872,26.3775001 28.7226394,24.6620008 30.3097751,24.1945513 C30.2746545,24.043967 30.1842688,23.6616988 30.1775618,23.6331132 C30.1138997,23.3617811 30.0627287,23.1365933 30.0130148,22.9057664 C29.5355368,20.6887855 29.3930048,18.7770171 29.7530375,16.8779033 C29.9776625,15.693043 30.3981558,14.5975665 31.033989,13.6174731 C35.2008207,6.96732151 51.7475047,7.92885536 53.8246001,13.7680242 C54.1911678,14.7985261 54.406817,15.9532872 54.4931935,17.2168018 C54.6124095,18.9606918 54.4883335,20.7627487 54.1946554,22.7556634 C54.1592691,22.9957963 54.048579,23.6726952 53.9659479,24.1920358 C55.5255999,24.657057 56.2448106,26.3824336 56.0662124,28.460047 C55.9009641,30.3823632 55.0333342,32.0804748 53.7436851,32.5758626 C53.670035,35.732947 53.0383693,38.0554013 52.0063768,39.6646381 C51.4990607,40.4557212 50.9697972,40.9763581 50.5045472,41.2850333 L50.5045472,47.3485002 C51.9051701,47.9137061 53.3211618,48.5502503 55.2435168,49.4596607 Z" id="Stroke-2541" fill="#9B9B9B" fill-rule="nonzero"></path>
            <path d="M42.5,85 C19.0278981,85 0,65.9721019 0,42.5 C0,19.0278981 19.0278981,0 42.5,0 C65.9721019,0 85,19.0278981 85,42.5 C85,65.9721019 65.9721019,85 42.5,85 Z M42.5,82.5714286 C64.6308389,82.5714286 82.5714286,64.6308389 82.5714286,42.5 C82.5714286,20.3691611 64.6308389,2.42857143 42.5,2.42857143 C20.3691611,2.42857143 2.42857143,20.3691611 2.42857143,42.5 C2.42857143,64.6308389 20.3691611,82.5714286 42.5,82.5714286 Z" id="Oval-5" fill="#828D99" fill-rule="nonzero"></path>
        </g>
    </g>
</svg>