<?xml version="1.0" encoding="UTF-8"?>
<svg width="70px" height="70px" viewBox="0 0 70 70" version="1.1" xmlns="http://www.w3.org/2000/svg" xmlns:xlink="http://www.w3.org/1999/xlink">
    <!-- Generator: Sketch 51.2 (57519) - http://www.bohemiancoding.com/sketch -->
    <title>icons / sale - pebble</title>
    <desc>Created with Sketch.</desc>
    <defs></defs>
    <g id="Page-1" stroke="none" stroke-width="1" fill="none" fill-rule="evenodd">
        <g id="icons-/-sale---pebble" transform="translate(1.000000, 1.000000)">
            <g>
                <circle id="Oval-5" stroke="#828D99" stroke-width="1.5" cx="34" cy="34" r="34"></circle>
                <path d="M36.0248046,19.7480554 C36.0248046,20.7132961 35.225854,21.4961108 34.2395388,21.4961108 C33.2544021,21.4961108 32.4554515,20.7132961 32.4554515,19.7480554 C32.4554515,18.7828148 33.2544021,18 34.2395388,18 C35.225854,18 36.0248046,18.7828148 36.0248046,19.7480554 Z M36.0248046,19.7982541 L41.7647059,24.9131574 L36.0248046,19.7982541 Z M32.4406037,19.9196603 L26.7058824,25.0588235 L32.4406037,19.9196603 Z" id="Stroke-1" stroke="#828D99" stroke-width="1.5" stroke-linecap="round" stroke-linejoin="round"></path>
                <path d="M51.0803985,46.2352941 L16.9196015,46.2352941 C15.3138207,46.2352941 14,45.1693644 14,43.8665614 L14,27.4275563 C14,26.1259376 15.3138207,25.0588235 16.9196015,25.0588235 L51.0803985,25.0588235 C52.6861793,25.0588235 54,26.1259376 54,27.4275563 L54,43.8665614 C54,45.1693644 52.6861793,46.2352941 51.0803985,46.2352941 L51.0803985,46.2352941 Z" id="Stroke-6" stroke="#828D99" stroke-width="1.5" stroke-linecap="round" stroke-linejoin="round"></path>
                <path d="M19.29,39.4299625 L20.0546878,38.4058271 C20.0546878,38.4058271 21.0788232,39.4436176 22.5126128,39.4436176 C23.413852,39.4436176 24.1785398,38.9383775 24.1785398,38.0234832 C24.1785398,35.9342469 19.5084822,36.3848665 19.5084822,33.4217014 C19.5084822,31.9196361 20.8057204,30.731639 22.6218539,30.731639 C24.4106771,30.731639 25.3528817,31.7011538 25.3528817,31.7011538 L24.7384005,32.8208752 C24.7384005,32.8208752 23.8508164,31.9879118 22.6218539,31.9879118 C21.5977185,31.9879118 20.8739961,32.6297033 20.8739961,33.3943911 C20.8739961,35.3880414 25.5440537,34.855491 25.5440537,37.9825178 C25.5440537,39.4709279 24.397022,40.6998904 22.4853025,40.6998904 C20.4370317,40.6998904 19.29,39.4299625 19.29,39.4299625 Z M33.2318969,40.5360288 L32.262382,37.7640356 L28.6301151,37.7640356 L27.6742553,40.5360288 L26.2814312,40.5360288 L29.7498365,30.8955006 L31.1699709,30.8955006 L34.6383762,40.5360288 L33.2318969,40.5360288 Z M30.4735588,32.2200491 L30.4462485,32.2200491 C30.4462485,32.2200491 30.2277663,33.093978 30.0639047,33.585563 L28.9851487,36.6443142 L31.9073484,36.6443142 L30.8422476,33.585563 C30.6783859,33.093978 30.4735588,32.2200491 30.4735588,32.2200491 Z M36.0585107,40.5360288 L36.0585107,30.8955006 L37.4103694,30.8955006 L37.4103694,39.3616868 L41.7253933,39.3616868 L41.7253933,40.5360288 L36.0585107,40.5360288 Z M43.2820792,40.5360288 L43.2820792,30.8955006 L48.8806862,30.8955006 L48.8806862,32.0698426 L44.6339379,32.0698426 L44.6339379,35.0876283 L48.0886881,35.0876283 L48.0886881,36.2619703 L44.6339379,36.2619703 L44.6339379,39.3616868 L49.1128235,39.3616868 L49.1128235,40.5360288 L43.2820792,40.5360288 Z" id="Sale" fill="#00A4C7"></path>
            </g>
        </g>
    </g>
</svg>