<?xml version="1.0" encoding="UTF-8"?>
<svg width="93px" height="93px" viewBox="0 0 93 93" version="1.1" xmlns="http://www.w3.org/2000/svg" xmlns:xlink="http://www.w3.org/1999/xlink">
    <!-- Generator: Sketch 51.2 (57519) - http://www.bohemiancoding.com/sketch -->
    <title>Slice 1</title>
    <desc>Created with Sketch.</desc>
    <defs></defs>
    <g id="Page-1" stroke="none" stroke-width="1" fill="none" fill-rule="evenodd">
        <g id="icons-/-download---pebble" fill-rule="nonzero">
            <path d="M46.3235294,92.6470588 C20.7397506,92.6470588 0,71.9073083 0,46.3235294 C0,20.7397506 20.7397506,0 46.3235294,0 C71.9073083,0 92.6470588,20.7397506 92.6470588,46.3235294 C92.6470588,71.9073083 71.9073083,92.6470588 46.3235294,92.6470588 Z M46.3235294,90 C70.445378,90 90,70.445378 90,46.3235294 C90,22.2016808 70.445378,2.64705882 46.3235294,2.64705882 C22.2016808,2.64705882 2.64705882,22.2016808 2.64705882,46.3235294 C2.64705882,70.445378 22.2016808,90 46.3235294,90 Z" id="Oval-5" fill="#828D99"></path>
            <path d="M47.3823529,53.4705882 C47.3823529,53.9091673 47.0268144,54.2647059 46.5882353,54.2647059 C46.1496562,54.2647059 45.7941176,53.9091673 45.7941176,53.4705882 L45.7941176,27.5294118 C45.7941176,27.0908327 46.1496562,26.7352941 46.5882353,26.7352941 C47.0268144,26.7352941 47.3823529,27.0908327 47.3823529,27.5294118 L47.3823529,53.4705882 Z" id="Stroke-3808" fill="#00A4C7"></path>
            <path d="M46.3235294,52.6122422 L55.0267093,43.9090623 C55.3368316,43.59894 55.839639,43.59894 56.1497613,43.9090623 C56.4598835,44.2191845 56.4598835,44.721992 56.1497613,45.0321142 L46.8850554,54.2968201 C46.5749332,54.6069423 46.0721257,54.6069423 45.7620034,54.2968201 L36.4972976,45.0321142 C36.1871753,44.721992 36.1871753,44.2191845 36.4972976,43.9090623 C36.8074198,43.59894 37.3102273,43.59894 37.6203495,43.9090623 L46.3235294,52.6122422 Z" id="Stroke-3809" fill="#00A4C7"></path>
            <path d="M24.6176471,44.4705882 L26.2058824,44.4705882 L26.2058824,57.3543199 C26.2058824,59.2548291 27.7465495,60.7954963 29.6470588,60.7954963 L62.4705882,60.7954963 C64.3710975,60.7954963 65.9117647,59.2548291 65.9117647,57.3543199 L65.9117647,44.4705882 L67.5,44.4705882 L67.5,57.3543199 C67.5,60.1319873 65.2482557,62.3837316 62.4705882,62.3837316 L29.6470588,62.3837316 C26.8693914,62.3837316 24.6176471,60.1319873 24.6176471,57.3543199 L24.6176471,44.4705882 Z" id="Path-13" fill="#00A4C7"></path>
        </g>
    </g>
</svg>