<?xml version="1.0" encoding="UTF-8"?>
<svg width="70px" height="70px" viewBox="0 0 70 70" version="1.1" xmlns="http://www.w3.org/2000/svg" xmlns:xlink="http://www.w3.org/1999/xlink">
    <!-- Generator: Sketch 51.2 (57519) - http://www.bohemiancoding.com/sketch -->
    <title>icons / search agent - pebble</title>
    <desc>Created with Sketch.</desc>
    <defs></defs>
    <g id="Page-1" stroke="none" stroke-width="1" fill="none" fill-rule="evenodd">
        <g id="icons-/-proof-ID---pebble">
            <path d="M35,70 C15.6700338,70 0,54.3299662 0,35 C0,15.6700338 15.6700338,0 35,0 C54.3299662,0 70,15.6700338 70,35 C70,54.3299662 54.3299662,70 35,70 Z M35,68 C53.2253967,68 68,53.2253967 68,35 C68,16.7746033 53.2253967,2 35,2 C16.7746033,2 2,16.7746033 2,35 C2,53.2253967 16.7746033,68 35,68 Z" id="Oval-5" fill="#828D99" fill-rule="nonzero"></path>
            <g id="passport-ticket" stroke-width="1" fill-rule="evenodd" transform="translate(14.400000, 14.400000)">
                <path d="M30.3260159,18.3665703 C30.6467818,18.4497318 30.8393983,18.7771798 30.7562367,19.0979457 C30.6730752,19.4187117 30.3456273,19.6113281 30.0248613,19.5281666 L20.5511771,17.0720262 C20.2304111,16.9888647 20.0377947,16.6614167 20.1209562,16.3406508 C20.2041178,16.0198848 20.5315657,15.8272684 20.8523317,15.9104299 L30.3260159,18.3665703 Z" id="Path" fill="#828D99" fill-rule="nonzero"></path>
                <path d="M31.3795233,15.5597805 C31.7001635,15.6434258 31.8922858,15.9711639 31.8086405,16.291804 C31.7249953,16.6124442 31.3972572,16.8045665 31.076617,16.7209212 L23.0064416,14.6156581 C22.6858014,14.5320128 22.4936791,14.2042747 22.5773244,13.8836346 C22.6609696,13.5629944 22.9887077,13.3708721 23.3093479,13.4545174 L31.3795233,15.5597805 Z" id="Path" fill="#828D99" fill-rule="nonzero"></path>
                <path d="M28.270618,24.5904453 C28.8829726,24.3601545 29.5626695,24.3998273 30.1480406,24.701437 C30.8951031,25.0923208 31.3919591,25.841856 31.4666902,26.6850179 C31.4918994,26.9554037 31.4716491,27.2281679 31.4092365,27.4813851 C31.2185924,28.3198566 30.6094612,28.9982541 29.7940767,29.2719615 L20.8862128,32.1498896 C20.5708901,32.2517632 20.2326857,32.0787285 20.1308121,31.7634058 C20.0289385,31.4480831 20.2019732,31.1098787 20.5172959,31.0080051 L29.4186553,28.1322195 C29.8292465,27.9943719 30.1408856,27.6472953 30.2415523,27.2049786 C30.2743836,27.0715697 30.2846424,26.9333872 30.2716244,26.7936928 C30.2326033,26.3534701 29.9753775,25.9654304 29.5950753,25.7664324 C29.3144227,25.6218339 28.9878367,25.6027716 28.691247,25.7143082 L25.1447581,27.0352666 C24.9598287,27.1041471 24.752853,27.0776884 24.5911981,26.9645022 L20.3576204,24.0002715 C20.0861727,23.8102115 20.0201949,23.4360856 20.2102549,23.1646379 C20.4003148,22.8931902 20.7744407,22.8272124 21.0458884,23.0172724 L25.0212731,25.8007238 L28.270618,24.5904453 Z" id="Path" fill="#828D99" fill-rule="nonzero"></path>
                <path d="M20.6028986,37.8562089 C20.2814896,37.7755684 20.0863082,37.4496428 20.1669488,37.1282338 C20.2475893,36.8068248 20.5735149,36.6116434 20.8949239,36.692284 L30.1711792,39.0196689 C30.419229,39.0822383 30.6821752,39.0442194 30.901748,38.914154 C31.1205697,38.7845335 31.2782119,38.5742398 31.3403303,38.3297337 L39.3705685,6.72631736 C39.4997393,6.21814215 39.1894393,5.70112219 38.6753209,5.57194109 L32.6048721,4.04975931 C32.4822999,4.01900519 32.3551663,4.07674486 32.2999864,4.18570672 C31.517793,5.74008797 29.7545644,6.54343264 28.0613186,6.11837365 C26.3669913,5.69304317 25.1975108,4.15188346 25.2517619,2.41358663 C25.2554607,2.29154762 25.1724322,2.18238892 25.0499534,2.15182006 L18.9787718,0.629453925 C18.730722,0.566884544 18.4677758,0.604903376 18.248203,0.734968831 C18.0293813,0.864589327 17.8717391,1.07488302 17.8097714,1.31879442 L14.6167595,13.93911 C14.5354818,14.2603584 14.2091699,14.4548932 13.8879214,14.3736155 C13.566673,14.2923378 13.3721382,13.9660259 13.4534159,13.6447774 L16.6465734,1.02388749 C16.7873316,0.469845395 17.1436398,-0.00546744322 17.6366203,-0.297487793 C18.1288497,-0.589063183 18.7171564,-0.674125204 19.2714559,-0.534305207 L25.3411793,0.987695052 C26.0095123,1.15449882 26.4720436,1.76259509 26.4511945,2.45047987 C26.4145625,3.62423638 27.2052722,4.66624589 28.3534918,4.95448584 C29.5027929,5.24299727 30.6987689,4.69809859 31.2287419,3.64493613 C31.5382425,3.03375237 32.2315235,2.71888803 32.8968234,2.88581582 L38.9674698,4.40804722 C40.1244804,4.69876589 40.8266975,5.86879582 40.5335979,7.02188931 L32.5033775,38.6252353 C32.3626194,39.1792774 32.0063112,39.6545903 31.5133307,39.9466106 C31.0211013,40.238186 30.4327946,40.323248 29.8784161,40.1834082 L20.6028986,37.8562089 Z" id="Path" fill="#828D99" fill-rule="nonzero"></path>
                <path d="M20.1490118,8.4363871 C20.2139766,8.85312046 20.020471,9.26775959 19.6593412,9.48564122 C19.2982115,9.70352285 18.8411781,9.68137559 18.5028074,9.42959704 C18.1644368,9.1778185 18.0119295,8.74641202 18.1174717,8.33564411 C18.2599341,7.7900101 18.8111552,7.45726038 19.3602747,7.58528052 C19.7738424,7.68394561 20.0840813,8.01987445 20.1490118,8.4363871 Z" id="Path" fill="#828D99" fill-rule="nonzero"></path>
                <path d="M23.6575079,9.48743554 C23.7231442,9.9037856 23.5306437,10.3185168 23.1702815,10.5371365 C22.8099193,10.7557563 22.3531659,10.7349058 22.0142206,10.4843631 C21.6752753,10.2338205 21.5213611,9.80327571 21.6246576,9.39463731 C21.7637424,8.8444212 22.3187318,8.50772759 22.8709734,8.63853907 C23.2811933,8.73577444 23.5918797,9.07113723 23.6575079,9.48743554 Z" id="Path" fill="#828D99" fill-rule="nonzero"></path>
                <path d="M27.517157,10.1890147 C27.5827933,10.6053648 27.3902928,11.020096 27.0299306,11.2387157 C26.6695684,11.4573354 26.212815,11.4364849 25.8738697,11.1859423 C25.5349245,10.9353997 25.3810102,10.5048549 25.4848872,10.093939 C25.6255206,9.54662846 26.1773071,9.21169726 26.7276882,9.33943079 C27.1410953,9.43762671 27.4515555,9.77288589 27.517157,10.1890147 Z" id="Path" fill="#828D99" fill-rule="nonzero"></path>
                <path d="M30.5072062,11.4438992 C30.5235167,11.3804162 30.4998163,11.3133733 30.4472316,11.2742455 C30.394647,11.2351178 30.3236216,11.231676 30.2675,11.265536 C30.2113785,11.299396 30.1813067,11.3638331 30.1914026,11.4285957 C30.2014375,11.4929674 30.2491758,11.5449535 30.3123689,11.5604765 C30.3989512,11.580786 30.4859641,11.5279729 30.5072062,11.4438992 Z M31.3770819,11.2437593 C31.4420468,11.6604926 31.2485412,12.0751318 30.8874114,12.2930134 C30.5262816,12.510895 30.0692483,12.4887478 29.7308776,12.2369692 C29.392507,11.9851907 29.2399997,11.5537842 29.3443687,11.147583 C29.4835835,10.5967132 30.0401817,10.2605744 30.5924233,10.3936161 C31.0021657,10.4915919 31.3121779,10.8274165 31.3770819,11.2437593 Z" id="Path" fill="#828D99" fill-rule="nonzero"></path>
                <path d="M35.2367311,12.2960362 C35.3016959,12.7127696 35.1081903,13.1274087 34.7470605,13.3452903 C34.3859308,13.563172 33.9288974,13.5410247 33.5905267,13.2892462 C33.2521561,13.0374676 33.0996488,12.6060611 33.205191,12.1952932 C33.3476534,11.6496592 33.8988744,11.3169095 34.447994,11.4449296 C34.8615617,11.5435947 35.1718006,11.8795236 35.2367311,12.2960362 Z" id="Path" fill="#828D99" fill-rule="nonzero"></path>
                <path d="M1.6,14.6350877 C1.04771525,14.6350877 0.6,15.082803 0.6,15.6350877 L0.6,38.4 C0.6,38.9522847 1.04771525,39.4 1.6,39.4 L19.1017544,39.4 C19.6540391,39.4 20.1017544,38.9522847 20.1017544,38.4 L20.1017544,15.6350877 C20.1017544,15.082803 19.6540391,14.6350877 19.1017544,14.6350877 L1.6,14.6350877 Z M1.6,13.4350877 L19.1017544,13.4350877 C20.3167808,13.4350877 21.3017544,14.4200613 21.3017544,15.6350877 L21.3017544,38.4 C21.3017544,39.6150264 20.3167808,40.6 19.1017544,40.6 L1.6,40.6 C0.38497355,40.6 -0.6,39.6150264 -0.6,38.4 L-0.6,15.6350877 C-0.6,14.4200613 0.38497355,13.4350877 1.6,13.4350877 Z" id="Rectangle" fill="#828D99" fill-rule="nonzero"></path>
                <path d="M10.3508772,33.3824561 C6.3511729,33.3824561 3.10877193,30.1400552 3.10877193,26.1403509 C3.10877193,22.1406466 6.3511729,18.8982456 10.3508772,18.8982456 C14.3505815,18.8982456 17.5929825,22.1406466 17.5929825,26.1403509 C17.5929825,30.1400552 14.3505815,33.3824561 10.3508772,33.3824561 Z M10.3508772,32.5824561 C13.9087537,32.5824561 16.7929825,29.6982274 16.7929825,26.1403509 C16.7929825,22.5824744 13.9087537,19.6982456 10.3508772,19.6982456 C6.7930007,19.6982456 3.90877193,22.5824744 3.90877193,26.1403509 C3.90877193,29.6982274 6.7930007,32.5824561 10.3508772,32.5824561 Z" id="Oval" fill="#00A4C7" fill-rule="nonzero"></path>
                <path d="M10.3508772,33.3824561 C8.57222906,33.3824561 7.31929825,30.124836 7.31929825,26.1403509 C7.31929825,22.1558657 8.57222906,18.8982456 10.3508772,18.8982456 C12.1295253,18.8982456 13.3824561,22.1558657 13.3824561,26.1403509 C13.3824561,30.124836 12.1295253,33.3824561 10.3508772,33.3824561 Z M10.3508772,32.5824561 C11.4789909,32.5824561 12.5824561,29.7134465 12.5824561,26.1403509 C12.5824561,22.5672552 11.4789909,19.6982456 10.3508772,19.6982456 C9.22276348,19.6982456 8.11929825,22.5672552 8.11929825,26.1403509 C8.11929825,29.7134465 9.22276348,32.5824561 10.3508772,32.5824561 Z" id="Oval" fill="#00A4C7" fill-rule="nonzero"></path>
                <path d="M3.50877193,26.5403509 C3.28785803,26.5403509 3.10877193,26.3612648 3.10877193,26.1403509 C3.10877193,25.919437 3.28785803,25.7403509 3.50877193,25.7403509 L17.1929825,25.7403509 C17.4138964,25.7403509 17.5929825,25.919437 17.5929825,26.1403509 C17.5929825,26.3612648 17.4138964,26.5403509 17.1929825,26.5403509 L3.50877193,26.5403509 Z" id="Path" fill="#00A4C7" fill-rule="nonzero"></path>
            </g>
        </g>
    </g>
</svg>