<?xml version="1.0" encoding="UTF-8"?>
<svg width="70px" height="70px" viewBox="0 0 70 70" version="1.1" xmlns="http://www.w3.org/2000/svg" xmlns:xlink="http://www.w3.org/1999/xlink">
    <!-- Generator: Sketch 51.2 (57519) - http://www.bohemiancoding.com/sketch -->
    <title>Slice 1</title>
    <desc>Created with Sketch.</desc>
    <defs></defs>
    <g id="Page-1" stroke="none" stroke-width="1" fill="none" fill-rule="evenodd">
        <g id="icons-/-sold---pebble" transform="translate(1.000000, 1.000000)">
            <g>
                <circle id="Oval-5" stroke="#828D99" stroke-width="1.5" cx="34" cy="34" r="34"></circle>
                <path d="M34,15 L34,18.3168945" id="Stroke-5216" stroke="#828D99" stroke-width="1.5" stroke-linecap="round" stroke-linejoin="round"></path>
                <path d="M33.75,36 L33.75,49.9186482" id="Stroke-5217" stroke="#828D99" stroke-width="1.5" stroke-linecap="round" stroke-linejoin="round"></path>
                <polygon id="Stroke-5218" stroke="#828D99" stroke-width="1.5" stroke-linecap="round" stroke-linejoin="round" points="50.9746094 35.7123067 14 35.7123067 14 19 50.9746094 19 57.6972656 27.3561534"></polygon>
                <path d="M21.5916055,30.6120661 L22.2084426,29.7859449 C22.2084426,29.7859449 23.0345638,30.623081 24.1911334,30.623081 C24.91812,30.623081 25.5349572,30.2155279 25.5349572,29.4775264 C25.5349572,27.7922392 21.7678447,28.1557325 21.7678447,25.7654886 C21.7678447,24.5538442 22.8142648,23.5955437 24.279253,23.5955437 C25.7222113,23.5955437 26.4822428,24.377605 26.4822428,24.377605 L25.9865701,25.2808308 C25.9865701,25.2808308 25.2705984,24.608919 24.279253,24.608919 C23.4531318,24.608919 22.8693395,25.1266216 22.8693395,25.7434587 C22.8693395,27.3516412 26.6364521,26.9220582 26.6364521,29.4444815 C26.6364521,30.6451109 25.7111964,31.6364563 24.1691035,31.6364563 C22.5168612,31.6364563 21.5916055,30.6120661 21.5916055,30.6120661 Z M27.6718572,27.5609253 C27.6718572,25.3248906 29.4232341,23.5955437 31.6702837,23.5955437 C33.9173333,23.5955437 35.6576952,25.3248906 35.6576952,27.5609253 C35.6576952,29.8520346 33.9173333,31.6364563 31.6702837,31.6364563 C29.4232341,31.6364563 27.6718572,29.8520346 27.6718572,27.5609253 Z M28.795382,27.5609253 C28.795382,29.3123021 30.084131,30.634096 31.6702837,30.634096 C33.2564363,30.634096 34.5341704,29.3123021 34.5341704,27.5609253 C34.5341704,25.8646231 33.2564363,24.5868891 31.6702837,24.5868891 C30.084131,24.5868891 28.795382,25.8646231 28.795382,27.5609253 Z M37.2438478,31.5042769 L37.2438478,23.7277231 L38.3343277,23.7277231 L38.3343277,30.5569913 L41.8150516,30.5569913 L41.8150516,31.5042769 L37.2438478,31.5042769 Z M43.0707558,31.5042769 L43.0707558,23.7277231 L45.6482538,23.7277231 C48.0274827,23.7277231 49.5916055,25.1486515 49.5916055,27.6049851 C49.5916055,30.0723336 48.0274827,31.5042769 45.6482538,31.5042769 L43.0707558,31.5042769 Z M44.1612357,30.5569913 L45.5711491,30.5569913 C47.322526,30.5569913 48.4680807,29.5215862 48.4680807,27.6049851 C48.4680807,25.6993989 47.3115111,24.6750087 45.5711491,24.6750087 L44.1612357,24.6750087 L44.1612357,30.5569913 Z" id="SOLD" fill="#00A4C7"></path>
            </g>
        </g>
    </g>
</svg>