<?xml version="1.0" encoding="UTF-8"?>
<svg width="98px" height="86px" viewBox="0 0 98 86" version="1.1" xmlns="http://www.w3.org/2000/svg" xmlns:xlink="http://www.w3.org/1999/xlink">
    <!-- Generator: Sketch 51.2 (57519) - http://www.bohemiancoding.com/sketch -->
    <title>icons / speech - pebble</title>
    <desc>Created with Sketch.</desc>
    <defs></defs>
    <g id="Page-1" stroke="none" stroke-width="1" fill="none" fill-rule="evenodd">
        <g id="icons-/-speech---pebble" transform="translate(2.000000, 2.000000)">
            <path d="M71.5217391,0 L20.4347826,0 C9.0526087,0 0,9.31015385 0,21.025641 L0,39.9487179 C0,51.6642051 9.22834783,58.8717949 20.6105217,58.8717949 L28.6086957,58.8717949 L28.6086957,82 L48.9576522,58.8717949 L71.5217391,58.8717949 C82.908,58.8717949 94,49.561641 94,37.8461538 L94,21.025641 C94,9.31015385 82.908,0 71.5217391,0 L71.5217391,0 Z" id="Stroke-236" stroke="#828D99" stroke-width="2.5" stroke-linecap="round" stroke-linejoin="round"></path>
            <path d="M47.5529412,26.5945946 C45.1024463,26.5945946 43.1294118,28.5840924 43.1294118,31.023512 C43.1294118,33.4769917 45.1024463,35.4594595 47.5529412,35.4594595 C50.003436,35.4594595 51.9764706,33.4769917 51.9764706,31.023512 C51.9764706,28.5840924 50.003436,26.5945946 47.5529412,26.5945946" id="Fill-460" fill="#00A4C7" fill-rule="evenodd"></path>
            <path d="M23.2235294,26.5945946 C20.780056,26.5945946 18.8,28.5840924 18.8,31.023512 C18.8,33.4769917 20.780056,35.4594595 23.2235294,35.4594595 C25.6740243,35.4594595 27.6470588,33.4769917 27.6470588,31.023512 C27.6470588,28.5840924 25.6740243,26.5945946 23.2235294,26.5945946" id="Fill-462" fill="#00A4C7" fill-rule="evenodd"></path>
            <path d="M69.6705882,26.5945946 C67.2200934,26.5945946 65.2470588,28.5840924 65.2470588,31.023512 C65.2470588,33.4769917 67.2200934,35.4594595 69.6705882,35.4594595 C72.1210831,35.4594595 74.0941176,33.4769917 74.0941176,31.023512 C74.0941176,28.5840924 72.1210831,26.5945946 69.6705882,26.5945946" id="Fill-460-Copy" fill="#00A4C7" fill-rule="evenodd"></path>
        </g>
    </g>
</svg>