<?xml version="1.0" encoding="UTF-8"?>
<svg width="90px" height="90px" viewBox="0 0 90 90" version="1.1" xmlns="http://www.w3.org/2000/svg" xmlns:xlink="http://www.w3.org/1999/xlink">
    <!-- Generator: Sketch 51.2 (57519) - http://www.bohemiancoding.com/sketch -->
    <title>Slice 1</title>
    <desc>Created with Sketch.</desc>
    <defs></defs>
    <g id="Page-1" stroke="none" stroke-width="1" fill="none" fill-rule="evenodd">
        <g id="icons-/-target---pebble">
            <path d="M45,90 C20.1471863,90 0,69.8528137 0,45 C0,20.1471863 20.1471863,0 45,0 C69.8528137,0 90,20.1471863 90,45 C90,69.8528137 69.8528137,90 45,90 Z M45,87.4285714 C68.432653,87.4285714 87.4285714,68.432653 87.4285714,45 C87.4285714,21.567347 68.432653,2.57142857 45,2.57142857 C21.567347,2.57142857 2.57142857,21.567347 2.57142857,45 C2.57142857,68.432653 21.567347,87.4285714 45,87.4285714 Z" id="Oval-5" fill="#828D99" fill-rule="nonzero"></path>
            <path d="M57.4411765,45.5294118 C57.4411765,38.950532 52.1082915,33.6176471 45.5294118,33.6176471 C38.950532,33.6176471 33.6176471,38.950532 33.6176471,45.5294118 C33.6176471,52.107472 38.9509831,57.4411765 45.5294118,57.4411765 C52.1078404,57.4411765 57.4411765,52.107472 57.4411765,45.5294118 Z M59.0294118,45.5294118 C59.0294118,52.9846056 52.9850231,59.0294118 45.5294118,59.0294118 C38.0738004,59.0294118 32.0294118,52.9846056 32.0294118,45.5294118 C32.0294118,38.0733739 38.0733739,32.0294118 45.5294118,32.0294118 C52.9854497,32.0294118 59.0294118,38.0733739 59.0294118,45.5294118 Z" id="Stroke-4236" fill="#00A4C7" fill-rule="nonzero"></path>
            <path d="M47.6470588,45.5294118 C47.6470588,46.6987765 46.6989882,47.6470588 45.5294118,47.6470588 C44.3598353,47.6470588 43.4117647,46.6987765 43.4117647,45.5294118 C43.4117647,44.3598353 44.3598353,43.4117647 45.5294118,43.4117647 C46.6989882,43.4117647 47.6470588,44.3598353 47.6470588,45.5294118 L47.6470588,45.5294118 Z" id="Stroke-4236-Copy-2" fill="#00A4C7" fill-rule="evenodd"></path>
            <path d="M71.2058824,45.5294118 C71.2058824,31.3482849 59.7105386,19.8529412 45.5294118,19.8529412 C31.3482849,19.8529412 19.8529412,31.3482849 19.8529412,45.5294118 C19.8529412,59.708818 31.3492114,71.2058824 45.5294118,71.2058824 C59.7096121,71.2058824 71.2058824,59.708818 71.2058824,45.5294118 Z M72.7941176,45.5294118 C72.7941176,60.5859516 60.5867948,72.7941176 45.5294118,72.7941176 C30.4720287,72.7941176 18.2647059,60.5859516 18.2647059,45.5294118 C18.2647059,30.4711268 30.4711268,18.2647059 45.5294118,18.2647059 C60.5876967,18.2647059 72.7941176,30.4711268 72.7941176,45.5294118 Z" id="Stroke-4236-Copy" fill="#828D99" fill-rule="nonzero"></path>
            <polygon id="Path-14" fill="#00A4C7" fill-rule="nonzero" points="46.0909377 46.0909377 44.9678858 44.9678858 70.3796505 19.5561211 71.5027024 20.679173"></polygon>
            <polygon id="Path-15-Copy" fill="#00A4C7" fill-rule="nonzero" transform="translate(66.091713, 24.984771) rotate(-315.000000) translate(-66.091713, -24.984771) " points="66.0917133 26.7541775 71.1279289 21.7179619 71.8766302 22.4666632 66.0917133 28.2515801 60.3067964 22.4666632 61.0554977 21.7179619"></polygon>
            <polygon id="Path-15-Copy-2" fill="#00A4C7" fill-rule="nonzero" transform="translate(61.856419, 29.220065) rotate(-315.000000) translate(-61.856419, -29.220065) " points="66.8926348 25.953256 67.6413361 26.7019573 61.8564192 32.4868742 56.0715023 26.7019573 56.8202036 25.953256 61.8564192 30.9894716"></polygon>
        </g>
    </g>
</svg>