<?xml version="1.0" encoding="UTF-8"?>
<svg width="90px" height="90px" viewBox="0 0 90 90" version="1.1" xmlns="http://www.w3.org/2000/svg" xmlns:xlink="http://www.w3.org/1999/xlink">
    <!-- Generator: Sketch 51.2 (57519) - http://www.bohemiancoding.com/sketch -->
    <title>icons / search agent - pebble</title>
    <desc>Created with Sketch.</desc>
    <defs></defs>
    <g id="Page-1" stroke="none" stroke-width="1" fill="none" fill-rule="evenodd">
        <g id="icons-/-link-to-property---pebble">
            <path d="M45,90 C20.1471863,90 0,69.8528137 0,45 C0,20.1471863 20.1471863,0 45,0 C69.8528137,0 90,20.1471863 90,45 C90,69.8528137 69.8528137,90 45,90 Z M45,87.4285714 C68.432653,87.4285714 87.4285714,68.432653 87.4285714,45 C87.4285714,21.567347 68.432653,2.57142857 45,2.57142857 C21.567347,2.57142857 2.57142857,21.567347 2.57142857,45 C2.57142857,68.432653 21.567347,87.4285714 45,87.4285714 Z" id="Oval-5" fill="#828D99" fill-rule="nonzero"></path>
            <path d="M58.2352941,33.6590503 L44.1483376,19.0588235 L37.887468,25.4956051 L37.887468,23.8864097 L37.887468,22.471927 C37.887468,21.4806626 37.0970332,20.6680189 36.1328593,20.6680189 L30.2507724,20.6680189 C29.2865985,20.6680189 28.4961637,21.4806626 28.4961637,22.471927 L28.4961637,35.1507776 L22.2352941,41.5875592 L26.9309463,41.5875592 L26.9309463,62.5070994 C26.9309463,64.2772143 28.3396419,65.7254902 30.0613811,65.7254902 L43.4997308,65.7254902" id="Path-Copy-2" stroke="#828D99" stroke-width="1.5" stroke-linecap="round" stroke-linejoin="round"></path>
            <ellipse id="Oval-5" stroke="#00A4C7" stroke-width="1.5" cx="57.7058824" cy="52.7823529" rx="12.1764706" ry="12.5823529"></ellipse>
            <polygon id="Path-16" fill="#00A4C7" fill-rule="nonzero" points="56.1497613 57.6737681 55.0267093 58.7968201 49.7004775 53.4705882 55.0267093 48.1443564 56.1497613 49.2674083 51.9465814 53.4705882"></polygon>
            <polygon id="Path-17" fill="#00A4C7" fill-rule="nonzero" points="51.8823529 54 51.8823529 52.4117647 65.6470588 52.4117647 65.6470588 54"></polygon>
        </g>
    </g>
</svg>