<?xml version="1.0" encoding="UTF-8"?>
<svg width="90px" height="93px" viewBox="0 0 90 93" version="1.1" xmlns="http://www.w3.org/2000/svg" xmlns:xlink="http://www.w3.org/1999/xlink">
    <!-- Generator: Sketch 63.1 (92452) - https://sketch.com -->
    <title>Slice 1</title>
    <desc>Created with Sketch.</desc>
    <defs>
        <polygon id="path-1" points="0.0004 0.791 89.224 0.791 89.224 90.9997 0.0004 90.9997"></polygon>
    </defs>
    <g id="Page-1" stroke="none" stroke-width="1" fill="none" fill-rule="evenodd">
        <g id="Group-8">
            <path d="M52.3883,50.5617 C51.7653,50.2037 50.5733,49.2537 48.7143,48.5537 L48.7143,43.3567 C48.7143,43.3567 51.7653,41.8087 51.7653,36.6077 C53.4753,36.6077 53.4753,32.0837 51.7653,32.0837 C51.7653,31.5727 52.3183,27.4317 51.2913,25.3097 C49.0833,20.7437 39.4913,20.5767 37.2813,25.3097 C35.6773,28.4307 36.4733,31.5437 36.4733,32.2397 C34.7633,32.2397 34.7633,36.6077 36.4733,36.6077 C36.4733,41.8087 40.0513,44.2227 40.0513,44.2227 L40.0513,48.5537 C33.9843,50.8607 26.4503,52.4597 25.5513,55.1777 C24.5173,58.2997 24.4583,64.1477 24.4583,64.1477 L48.7143,64.1477" id="Stroke-1" stroke="#828D99" stroke-width="1.5" stroke-linecap="round" stroke-linejoin="round"></path>
            <polygon id="Stroke-3" stroke="#00A4C7" stroke-width="1.5" stroke-linecap="round" stroke-linejoin="round" points="59.4259 48.822 62.5059 55.175 69.3929 56.195 64.4099 61.14 65.5859 68.123 59.4259 64.826 53.2659 68.123 54.4419 61.14 49.4579 56.195 56.3459 55.175"></polygon>
            <g id="Group-7" transform="translate(0.000000, 0.209500)">
                <mask id="mask-2" fill="white">
                    <use xlink:href="#path-1"></use>
                </mask>
                <g id="Clip-6"></g>
                <path d="M44.6124,3.2907 C21.3914,3.2907 2.5004,22.4027 2.5004,45.8957 C2.5004,69.3877 21.3914,88.4997 44.6124,88.4997 C67.8334,88.4997 86.7244,69.3877 86.7244,45.8957 C86.7244,22.4027 67.8334,3.2907 44.6124,3.2907 M44.6124,90.9997 C20.0134,90.9997 0.0004,70.7667 0.0004,45.8957 C0.0004,21.0247 20.0134,0.7907 44.6124,0.7907 C69.2114,0.7907 89.2244,21.0247 89.2244,45.8957 C89.2244,70.7667 69.2114,90.9997 44.6124,90.9997" id="Fill-5" fill="#828D99" mask="url(#mask-2)"></path>
            </g>
        </g>
    </g>
</svg>