<svg width="103" height="102" viewBox="0 0 103 102" fill="none" xmlns="http://www.w3.org/2000/svg">
<path d="M83.637 35.9888C88.79 35.9888 92.9673 31.8114 92.9673 26.6584C92.9673 21.5055 88.79 17.3281 83.637 17.3281C78.484 17.3281 74.3066 21.5055 74.3066 26.6584C74.3066 31.8114 78.484 35.9888 83.637 35.9888Z" stroke="#E4002B" stroke-width="4" stroke-linecap="round" stroke-linejoin="round"/>
<path d="M19.6575 35.9888C24.8105 35.9888 28.9878 31.8114 28.9878 26.6584C28.9878 21.5055 24.8105 17.3281 19.6575 17.3281C14.5045 17.3281 10.3271 21.5055 10.3271 26.6584C10.3271 31.8114 14.5045 35.9888 19.6575 35.9888Z" stroke="#E4002B" stroke-width="4" stroke-linecap="round" stroke-linejoin="round"/>
<path d="M3.66406 98.6349V62.6465C3.66406 62.6465 3.66406 50.6504 15.6602 50.6504H19.7255" stroke="#E4002B" stroke-width="4" stroke-linecap="round" stroke-linejoin="round"/>
<path d="M99.6982 98.6349V62.6465C99.6982 62.6465 99.6982 50.6504 87.7021 50.6504H83.6367" stroke="#E4002B" stroke-width="4" stroke-linecap="round" stroke-linejoin="round"/>
<path d="M51.6465 26.6583C58.2718 26.6583 63.6426 21.2874 63.6426 14.6621C63.6426 8.03686 58.2718 2.66602 51.6465 2.66602C45.0212 2.66602 39.6504 8.03686 39.6504 14.6621C39.6504 21.2874 45.0212 26.6583 51.6465 26.6583Z" stroke="#E4002B" stroke-width="4" stroke-linecap="round" stroke-linejoin="round"/>
<path d="M27.6553 98.6351V50.6507C27.6553 50.6507 27.6553 38.6545 39.6514 38.6545H63.6436C63.6436 38.6545 75.6398 38.6545 75.6398 50.6507V98.6351" stroke="#E4002B" stroke-width="4" stroke-linecap="round" stroke-linejoin="round"/>
</svg>
