<svg width="119" height="97" viewBox="0 0 119 97" fill="none" xmlns="http://www.w3.org/2000/svg">
<path d="M98.2729 94.2627L84.4131 61.9004L116.775 75.7603L102.893 80.3802L98.2729 94.2627Z" stroke="#E4002B" stroke-width="4" stroke-linecap="round" stroke-linejoin="round"/>
<path d="M111.298 54.2621V13.3067C111.298 7.06218 106.236 2 99.9914 2H13.3067C7.06218 2 2 7.06218 2 13.3067V73.6091C2 79.8536 7.06218 84.9158 13.3067 84.9158H73.9609" stroke="#E4002B" stroke-width="4" stroke-linecap="round" stroke-linejoin="round"/>
<path d="M2 20.8445H111.298" stroke="#E4002B" stroke-width="4" stroke-linecap="round" stroke-linejoin="round"/>
<path d="M15.1911 13.3067C16.2318 13.3067 17.0755 12.463 17.0755 11.4222C17.0755 10.3815 16.2318 9.53778 15.1911 9.53778C14.1503 9.53778 13.3066 10.3815 13.3066 11.4222C13.3066 12.463 14.1503 13.3067 15.1911 13.3067Z" stroke="#E4002B" stroke-width="4" stroke-linecap="round" stroke-linejoin="round"/>
<path d="M26.4977 13.3067C27.5385 13.3067 28.3822 12.463 28.3822 11.4222C28.3822 10.3815 27.5385 9.53778 26.4977 9.53778C25.457 9.53778 24.6133 10.3815 24.6133 11.4222C24.6133 12.463 25.457 13.3067 26.4977 13.3067Z" stroke="#E4002B" stroke-width="4" stroke-linecap="round" stroke-linejoin="round"/>
<path d="M37.8049 13.3067C38.8456 13.3067 39.6893 12.463 39.6893 11.4222C39.6893 10.3815 38.8456 9.53778 37.8049 9.53778C36.7641 9.53778 35.9204 10.3815 35.9204 11.4222C35.9204 12.463 36.7641 13.3067 37.8049 13.3067Z" stroke="#E4002B" stroke-width="4" stroke-linecap="round" stroke-linejoin="round"/>
<path d="M35.9197 32.1512H17.0752V47.2268H35.9197V32.1512Z" stroke="#E4002B" stroke-width="4" stroke-linecap="round" stroke-linejoin="round"/>
<path d="M66.0711 32.1512H47.2266V47.2268H66.0711V32.1512Z" stroke="#E4002B" stroke-width="4" stroke-linecap="round" stroke-linejoin="round"/>
<path d="M96.2229 32.1512H77.3784V47.2268H96.2229V32.1512Z" stroke="#E4002B" stroke-width="4" stroke-linecap="round" stroke-linejoin="round"/>
<path d="M35.9197 58.5335H17.0752V73.6091H35.9197V58.5335Z" stroke="#E4002B" stroke-width="4" stroke-linecap="round" stroke-linejoin="round"/>
<path d="M66.0711 58.5335H47.2266V73.6091H66.0711V58.5335Z" stroke="#E4002B" stroke-width="4" stroke-linecap="round" stroke-linejoin="round"/>
</svg>
