<svg width="117" height="111" viewBox="0 0 117 111" fill="none" xmlns="http://www.w3.org/2000/svg">
<path d="M43.4912 84.864V64.254L28.0514 48.7908L12.6001 64.254V84.864" stroke="#E4002B" stroke-width="4" stroke-linecap="round" stroke-linejoin="round"/>
<path d="M2.31104 84.864V64.254L17.7509 48.7908L22.9013 53.9375" stroke="#E4002B" stroke-width="4" stroke-linecap="round" stroke-linejoin="round"/>
<path d="M33.2018 84.8641V67.804H22.9009V84.8641" stroke="#E4002B" stroke-width="4" stroke-linecap="round" stroke-linejoin="round"/>
<path d="M64.139 12.706V7.9843C64.139 4.848 61.2993 2.30908 57.7814 2.30908H29.2126C25.6946 2.30908 22.855 4.87097 22.855 7.9843V38.704" stroke="#E4002B" stroke-width="4" stroke-linecap="round" stroke-linejoin="round"/>
<path d="M84.6026 54.2937V18.7374C84.6026 15.4058 82.0849 12.7061 79.0268 12.7061H59.3907C56.3097 12.7061 53.8149 15.4058 53.8149 18.7374V84.8756" stroke="#E4002B" stroke-width="4" stroke-linecap="round" stroke-linejoin="round"/>
<path d="M64.1276 33.5H74.4399V23.1031H64.1276V33.5Z" stroke="#E4002B" stroke-width="4" stroke-linecap="round" stroke-linejoin="round"/>
<path d="M33.1906 23.103H43.5029V12.7061L33.1906 12.7061V23.103Z" stroke="#E4002B" stroke-width="4" stroke-linecap="round" stroke-linejoin="round"/>
<path d="M33.1906 43.8967H43.5029V33.4998H33.1906V43.8967Z" stroke="#E4002B" stroke-width="4" stroke-linecap="round" stroke-linejoin="round"/>
<path d="M64.1276 54.2937H74.4399V43.8968H64.1276V54.2937Z" stroke="#E4002B" stroke-width="4" stroke-linecap="round" stroke-linejoin="round"/>
<path d="M70.669 102.418L76.9576 108.702L83.2462 102.418H108.412C108.412 102.418 114.701 102.418 114.701 96.1341V70.9863C114.701 70.9863 114.701 64.7021 108.412 64.7021H70.669C70.669 64.7021 64.3804 64.7022 64.3804 70.9863V96.1341C64.3804 96.1341 64.3804 102.418 70.669 102.418Z" stroke="#E4002B" stroke-width="4" stroke-linecap="round" stroke-linejoin="round"/>
<path d="M76.9575 75.168H102.123" stroke="#E4002B" stroke-width="4" stroke-linecap="round" stroke-linejoin="round"/>
<path d="M76.9575 83.5544H102.123" stroke="#E4002B" stroke-width="4" stroke-linecap="round" stroke-linejoin="round"/>
<path d="M76.9575 91.9409H93.7309" stroke="#E4002B" stroke-width="4" stroke-linecap="round" stroke-linejoin="round"/>
</svg>
