<svg width="114" height="113" viewBox="0 0 114 113" fill="none" xmlns="http://www.w3.org/2000/svg">
<path d="M84.0368 102.54C94.8412 102.54 103.6 93.7204 103.6 82.8414C103.6 71.9623 94.8412 63.1431 84.0368 63.1431C73.2324 63.1431 64.4736 71.9623 64.4736 82.8414C64.4736 93.7204 73.2324 102.54 84.0368 102.54Z" stroke="#E4002B" stroke-width="4" stroke-linecap="round" stroke-linejoin="round"/>
<path d="M97.873 96.7617L111.709 110.694" stroke="#E4002B" stroke-width="4" stroke-linecap="round" stroke-linejoin="round"/>
<path d="M43.3297 85.194V64.5038L27.9472 48.9805L12.5532 64.5038V85.194" stroke="#E4002B" stroke-width="4" stroke-linecap="round" stroke-linejoin="round"/>
<path d="M2.30225 85.194V64.5038L17.6847 48.9805L22.8161 54.1472" stroke="#E4002B" stroke-width="4" stroke-linecap="round" stroke-linejoin="round"/>
<path d="M33.0786 85.1941V68.0676H22.8159V85.1941" stroke="#E4002B" stroke-width="4" stroke-linecap="round" stroke-linejoin="round"/>
<path d="M63.9007 12.7554V8.0154C63.9007 4.8669 61.0716 2.31812 57.5668 2.31812H29.104C25.5991 2.31812 22.77 4.88997 22.77 8.0154V38.8545" stroke="#E4002B" stroke-width="4" stroke-linecap="round" stroke-linejoin="round"/>
<path d="M84.2886 54.5047V18.8102C84.2886 15.4656 81.7802 12.7554 78.7335 12.7554H59.1703C56.1007 12.7554 53.6152 15.4656 53.6152 18.8102V85.2055" stroke="#E4002B" stroke-width="4" stroke-linecap="round" stroke-linejoin="round"/>
<path d="M63.8895 33.6301H74.1636V23.1928H63.8895V33.6301Z" stroke="#E4002B" stroke-width="4" stroke-linecap="round" stroke-linejoin="round"/>
<path d="M33.0672 23.1929H43.3413V12.7555L33.0672 12.7555V23.1929Z" stroke="#E4002B" stroke-width="4" stroke-linecap="round" stroke-linejoin="round"/>
<path d="M33.0672 44.0674H43.3413V33.63H33.0672V44.0674Z" stroke="#E4002B" stroke-width="4" stroke-linecap="round" stroke-linejoin="round"/>
<path d="M63.8895 54.5049H74.1636V44.0675H63.8895V54.5049Z" stroke="#E4002B" stroke-width="4" stroke-linecap="round" stroke-linejoin="round"/>
</svg>
