<svg width="92" height="111" viewBox="0 0 92 111" fill="none" xmlns="http://www.w3.org/2000/svg">
<path d="M77.3467 85.8589L88.6742 103.574C89.7428 105.202 89.2696 107.378 87.6514 108.429C86.0179 109.494 83.8348 109.022 82.7815 107.409L71.3013 89.4658" stroke="#E4002B" stroke-width="4" stroke-linecap="round" stroke-linejoin="round"/>
<path d="M66.9074 90.1093C77.6012 90.1093 86.2703 81.4402 86.2703 70.7463C86.2703 60.0525 77.6012 51.3834 66.9074 51.3834C56.2135 51.3834 47.5444 60.0525 47.5444 70.7463C47.5444 81.4402 56.2135 90.1093 66.9074 90.1093Z" stroke="#E4002B" stroke-width="4" stroke-linecap="round" stroke-linejoin="round"/>
<path d="M79.2662 33.2018L49.0222 2.7294L35.5819 16.1698V9.84937C35.5819 7.78064 33.8812 6.07997 31.8125 6.07997H19.1971C17.1283 6.07997 15.4277 7.78064 15.4277 9.84937V36.324L2 49.7516H12.0771V93.4233C12.0771 97.1166 15.0977 100.137 18.7909 100.137H40.9123" stroke="#E4002B" stroke-width="4" stroke-linecap="round" stroke-linejoin="round"/>
</svg>
