<svg width="106" height="114" viewBox="0 0 106 114" fill="none" xmlns="http://www.w3.org/2000/svg">
<path d="M30.5598 102.036C30.5598 103.358 29.502 104.416 28.1798 104.416C26.8576 104.416 25.7998 103.358 25.7998 102.036C25.7998 100.713 26.8576 99.6557 28.1798 99.6557C29.502 99.6557 30.5598 100.713 30.5598 102.036Z" stroke="#E4002B" stroke-width="4" stroke-linecap="round" stroke-linejoin="round"/>
<path d="M54.8889 68.1111V102.111C54.3978 107.362 50.6956 111.556 45.4444 111.556H11.4444C6.19333 111.556 2 107.287 2 102.036V30.3333C2 25.0822 6.19333 20.8889 11.4444 20.8889H26.5556" stroke="#E4002B" stroke-width="4" stroke-linecap="round" stroke-linejoin="round"/>
<path d="M24.6667 39.7778H2" stroke="#E4002B" stroke-width="4" stroke-linecap="round" stroke-linejoin="round"/>
<path d="M54.8889 92.6667H2" stroke="#E4002B" stroke-width="4" stroke-linecap="round" stroke-linejoin="round"/>
<path d="M20.8887 30.3333H24.6664" stroke="#E4002B" stroke-width="4" stroke-linecap="round" stroke-linejoin="round"/>
<path d="M96.444 43.5556H77.7818L62.444 58.6667V43.5556H47.3329C43.404 43.5556 39.7773 39.9289 39.7773 36V9.55556C39.7773 5.62667 43.404 2 47.3329 2H96.444C100.373 2 104 5.62667 104 9.55556V36C104 39.9289 100.373 43.5556 96.444 43.5556Z" stroke="#E4002B" stroke-width="4" stroke-linecap="round" stroke-linejoin="round"/>
</svg>
