<svg width="102" height="102" viewBox="0 0 102 102" fill="none" xmlns="http://www.w3.org/2000/svg">
<path d="M82.6409 35.9887C87.7939 35.9887 91.9712 31.8114 91.9712 26.6584C91.9712 21.5054 87.7939 17.3281 82.6409 17.3281C77.4879 17.3281 73.3105 21.5054 73.3105 26.6584C73.3105 31.8114 77.4879 35.9887 82.6409 35.9887Z" stroke="#E4002B" stroke-width="4" stroke-linecap="round" stroke-linejoin="round"/>
<path d="M18.6614 35.9887C23.8144 35.9887 27.9917 31.8114 27.9917 26.6584C27.9917 21.5054 23.8144 17.3281 18.6614 17.3281C13.5084 17.3281 9.33105 21.5054 9.33105 26.6584C9.33105 31.8114 13.5084 35.9887 18.6614 35.9887Z" stroke="#E4002B" stroke-width="4" stroke-linecap="round" stroke-linejoin="round"/>
<path d="M2.66797 98.635V62.6466C2.66797 62.6466 2.66797 50.6505 14.6641 50.6505H18.7294" stroke="#E4002B" stroke-width="4" stroke-linecap="round" stroke-linejoin="round"/>
<path d="M98.7021 98.635V62.6466C98.7021 62.6466 98.7021 50.6505 86.706 50.6505H82.6406" stroke="#E4002B" stroke-width="4" stroke-linecap="round" stroke-linejoin="round"/>
<path d="M50.6504 26.6583C57.2757 26.6583 62.6465 21.2875 62.6465 14.6622C62.6465 8.03692 57.2757 2.66608 50.6504 2.66608C44.0251 2.66608 38.6543 8.03692 38.6543 14.6622C38.6543 21.2875 44.0251 26.6583 50.6504 26.6583Z" stroke="#E4002B" stroke-width="4" stroke-linecap="round" stroke-linejoin="round"/>
<path d="M26.6592 98.6351V50.6507C26.6592 50.6507 26.6592 38.6545 38.6553 38.6545H62.6475C62.6475 38.6545 74.6437 38.6545 74.6437 50.6507V98.6351" stroke="#E4002B" stroke-width="4" stroke-linecap="round" stroke-linejoin="round"/>
</svg>
