<svg id="Layer_1" data-name="Layer 1" xmlns="http://www.w3.org/2000/svg" viewBox="0 0 626.48 357.76"><defs><style>.cls-1{fill:transparent;}.cls-2{fill:#df002e;}.cls-3{fill:#cccccb;}.cls-4{fill:#e2e1e1;}</style></defs><title>desktop-container</title><path class="cls-1" d="M318.18,357.65H577.09a1.87,1.87,0,0,0,1.76-1.18,19.08,19.08,0,0,0,1.23-6.72V30.93c0-10.79-9.1-19.63-20.28-19.63H70.4c-11.16,0-20.29,8.84-20.29,19.63V349.74a18.74,18.74,0,0,0,1.25,6.74,1.87,1.87,0,0,0,1.76,1.17H318.18Z" transform="translate(-14.9 -10.8)"/><path class="cls-2" d="M577.09,358.15h-524a2.38,2.38,0,0,1-2.23-1.49,19.23,19.23,0,0,1-1.29-6.92V30.93c0-11.1,9.33-20.13,20.79-20.13h489.4c11.46,0,20.78,9,20.78,20.13V349.74a19.55,19.55,0,0,1-1.26,6.9A2.37,2.37,0,0,1,577.09,358.15ZM70.4,11.8c-10.91,0-19.79,8.58-19.79,19.13V349.74a18.22,18.22,0,0,0,1.22,6.56,1.37,1.37,0,0,0,1.29.85h524a1.37,1.37,0,0,0,1.29-.86,18.57,18.57,0,0,0,1.2-6.55V30.93c0-10.55-8.87-19.13-19.78-19.13Z" transform="translate(-14.9 -10.8)"/><path class="cls-2" d="M561.38,333.66H71.45a2.39,2.39,0,0,1-2.39-2.39V49.61a2.39,2.39,0,0,1,2.39-2.39H561.38a2.39,2.39,0,0,1,2.39,2.39V331.27A2.39,2.39,0,0,1,561.38,333.66ZM71.45,48.22a1.39,1.39,0,0,0-1.39,1.39V331.27a1.39,1.39,0,0,0,1.39,1.39H561.38a1.39,1.39,0,0,0,1.39-1.39V49.61a1.39,1.39,0,0,0-1.39-1.39Z" transform="translate(-14.9 -10.8)"/><path class="cls-3" d="M578.37,355.35H16.79a1.89,1.89,0,0,0-1.89,1.89h0a1.89,1.89,0,0,0,1.89,1.89H639.48a1.89,1.89,0,0,0,1.89-1.89h0a1.89,1.89,0,0,0-1.89-1.89Z" transform="translate(-14.9 -10.8)"/><path class="cls-4" d="M14.9,359.26c2.79,1-.09,7.28,50,9.3H568.17c50.61-2,70.72-8.47,73.2-9.32v-.1H14.9Z" transform="translate(-14.9 -10.8)"/></svg>
