<!-- Generator: Adobe Illustrator 21.0.2, SVG Export Plug-In  -->
<svg version="1.1"
	 xmlns="http://www.w3.org/2000/svg" xmlns:xlink="http://www.w3.org/1999/xlink" xmlns:a="http://ns.adobe.com/AdobeSVGViewerExtensions/3.0/"
	 x="0px" y="0px" width="516px" height="761px" viewBox="0 0 516 761" style="enable-background:new 0 0 516 761;"
	 xml:space="preserve">
<style type="text/css">
	.st0{fill:none;stroke:#D50023;}
	.st1{fill:#D50023;}
</style>
<defs>
</defs>
<path class="st0" d="M48,0.5c0,0-47.5,0-47.5,47.5v665c0,0,0,47.5,47.5,47.5h419.7c0,0,47.5,0,47.5-47.5V48c0,0,0-47.5-47.5-47.5H48
	z"/>
<path class="st1" d="M257.2,49.6c3.3,0,5.9-2.7,5.9-5.9c0-3.3-2.7-5.9-5.9-5.9c-3.3,0-5.9,2.7-5.9,5.9
	C251.3,46.9,253.9,49.6,257.2,49.6"/>
<circle class="st0" cx="258.5" cy="728.4" r="16.3"/>
<path class="st1" d="M488.6,693.7H26.8c-1.6,0-3-1.4-3-3V72.1c0-1.7,1.4-3,3-3h461.8c1.7,0,3,1.3,3,3v618.6
	C491.6,692.3,490.3,693.7,488.6,693.7z"/>
</svg>
