<svg id="Layer_1" data-name="Layer 1" xmlns="http://www.w3.org/2000/svg" viewBox="0 0 153.85 326.59"><defs><style>.cls-1{fill:#df002e;}</style></defs><title>phone-container</title><path class="cls-1" d="M140.42,5.39H29A21.24,21.24,0,0,0,7.77,26.61V310.77A21.24,21.24,0,0,0,29,332H140.42a21.24,21.24,0,0,0,21.21-21.21V26.61A21.24,21.24,0,0,0,140.42,5.39Zm20.21,305.38A20.24,20.24,0,0,1,140.42,331H29A20.23,20.23,0,0,1,8.77,310.77V26.61A20.23,20.23,0,0,1,29,6.39H140.42a20.23,20.23,0,0,1,20.21,20.21Z" transform="translate(-7.77 -5.39)"/><path class="cls-1" d="M84.49,292a15,15,0,1,0,15,15A15,15,0,0,0,84.49,292Zm0,29a14,14,0,1,1,14-14A14,14,0,0,1,84.49,321Z" transform="translate(-7.77 -5.39)"/><path class="cls-1" d="M17.72,286.83H151.27V50.55H17.72Zm1-235.29H150.27V285.83H18.72Z" transform="translate(-7.77 -5.39)"/><path class="cls-1" d="M73.52,21.77H95.89a3.81,3.81,0,1,0,0-7.63H73.52a3.81,3.81,0,0,0,0,7.63Zm0-6.63H95.89a2.81,2.81,0,1,1,0,5.63H73.52a2.81,2.81,0,0,1,0-5.63Z" transform="translate(-7.77 -5.39)"/></svg>