<?xml version="1.0" encoding="UTF-8"?>
<svg width="35px" height="35px" viewBox="0 0 35 35" version="1.1" xmlns="http://www.w3.org/2000/svg" xmlns:xlink="http://www.w3.org/1999/xlink">
    <title>button/calendar drop down</title>
    <g id="Resi-Customer-Health-Check-Slides" stroke="none" stroke-width="1" fill="none" fill-rule="evenodd" stroke-linecap="round" stroke-linejoin="round">
        <g id="Slide-03---1-" transform="translate(-1740.000000, -393.000000)" stroke="#716E75" stroke-width="1.125">
            <g id="Group" transform="translate(1741.187500, 394.189750)">
                <path d="M5.625,2.25 L2.25549169,2.25 C1.00981803,2.25 0,3.26063061 0,4.50824618 L0,30.3667538 C0,31.6139487 1.01217677,32.625 2.24244837,32.625 L30.3825516,32.625 C31.6210217,32.625 32.625,31.6143694 32.625,30.3667538 L32.625,4.50824618 C32.625,3.26105125 31.6193627,2.25 30.3695083,2.25 L27,2.25" id="Stroke-1680"></path>
                <polygon id="Stroke-1681" points="10.125 5.625 5.625 5.625 5.625 0 10.125 0"></polygon>
                <polygon id="Stroke-1682" points="27 5.625 22.5 5.625 22.5 0 27 0"></polygon>
                <line x1="10.125" y1="2.25" x2="22.5" y2="2.25" id="Stroke-1683"></line>
                <line x1="0" y1="10.125" x2="32.625" y2="10.125" id="Stroke-1684"></line>
                <line x1="11.25" y1="12.76605" x2="11.25" y2="29.7873" id="Stroke-1685"></line>
                <line x1="20.25" y1="12.76605" x2="20.25" y2="29.7873" id="Stroke-1687"></line>
                <line x1="2.8366875" y1="18" x2="29.7883125" y2="18" id="Stroke-1688"></line>
                <line x1="2.8366875" y1="24.75" x2="29.7883125" y2="24.75" id="Stroke-1690"></line>
            </g>
        </g>
    </g>
</svg>