<?xml version="1.0" encoding="utf-8"?>
<!-- Generator: Adobe Illustrator 22.0.0, SVG Export Plug-In . SVG Version: 6.00 Build 0)  -->
<svg version="1.1" id="NSW" xmlns="http://www.w3.org/2000/svg" xmlns:xlink="http://www.w3.org/1999/xlink" x="0px" y="0px"
	 viewBox="0 0 100 83" style="enable-background:new 0 0 100 83;" xml:space="preserve">
<style type="text/css">
	.st0{fill:#FFFFFF;}
</style>
<g>
	<g>
		<path class="st0" d="M69.7,82.4c-0.2,0-0.3,0-0.4-0.1l-9.7-4.8c-2.4-1.2-2.6-1.3-3.4-3.5L56,73.6c-0.2-0.7-0.4-1.4-0.5-1.9
			c-0.4-1.8-0.7-2.8-2.4-3.2c-0.9-0.2-1.7,0.1-2.5,0.5c-0.6,0.3-1.2,0.5-1.7,0.6c-0.8,0.1-1.5-0.1-2.1-0.3c-0.4-0.1-0.8-0.2-1.3-0.3
			c-0.7-0.1-0.9,0-1.2,0.1c-0.3,0.1-0.7,0.2-1.4,0.2c-0.5,0-1.4-0.2-2.7-0.6c-1.8-0.5-5.1-1.5-5.9-0.8c0,0-0.2,0.2-0.1,0.7
			c0.1,0.5-0.3,1-0.8,1.1c-2.1,0.4-3.1-0.8-4.2-2.1c-0.3-0.4-0.6-0.7-0.9-1.1c-0.9-0.9-1.9-1.6-2.9-2.2c-0.8-0.5-1.5-0.9-2.1-1.5
			c-0.6-0.5-1.3-1.7-2.2-3.5c0-0.1-0.1-0.2-0.1-0.3c-0.1-0.5,0-1,0.1-1.4c-0.2-0.1-0.5-0.2-0.7-0.4c-0.1,0-0.2-0.1-0.3-0.2
			c-0.2-0.2-0.5-0.2-0.9-0.3c-0.4-0.1-0.9-0.2-1.3-0.4c-0.3,0.7-0.7,1.1-1.2,1.2c-0.7,0-1.2-0.4-2-1.5c-0.4-0.6-0.6-1.1-0.8-1.5
			c-0.2-0.5-0.3-0.8-0.9-1.4c-1.1-1-1.6-0.9-2.5-0.8c-0.4,0-0.8,0.1-1.4,0.1c-0.6,0-1.4-0.3-2.1-0.5c-0.8-0.2-1.5-0.5-2.2-0.5
			c-0.5,0-0.9-0.5-0.9-1L3.9,7.8c0-0.5,0.4-1,1-1l55.3-0.2c1.9,0,1.9,0,2.6-0.6c0.2-0.2,0.6-0.5,1-0.8C66.7,3,72,2.8,75.3,4
			c0.4,0.1,0.6,0.2,0.8,0.2c0.4,0.1,0.7,0.1,1.4,0.5c0.8,0.4,1.3,1.2,1.8,1.8c0.2,0.3,0.5,0.7,0.6,0.8c0.2,0.1,0.3,0.2,0.5,0.3
			c0.4-0.8,1-1.3,1.9-1.6c0.2-0.1,0.5,0,0.7,0.1c0.1,0.1,0.2,0.1,0.3,0.2c0.3-0.4,0.6-0.7,0.8-0.9c0.2-0.2,0.3-0.2,0.3-0.2l0,0
			c0,0,0-0.2-0.3-0.8c-0.1-0.2-0.1-0.5-0.1-0.8s0.3-0.5,0.5-0.6c0.4-0.2,0.8-0.5,1.3-0.8c0.6-0.5,1.2-0.9,1.8-1.1
			c0.9-0.2,1.6-0.1,2.2,0.1c0.5,0.1,0.9,0.2,1.5,0.2c1.3-0.1,2.5-0.5,3.9-1.2c0.3-0.1,0.6-0.2,0.9,0c0.3,0.1,0.5,0.4,0.6,0.7
			c0.7,2.7,0.2,7.6-2,10.1c0.6,0.7,0.7,2-0.7,6.5c-0.1,0.3-0.2,0.5-0.2,0.6c-0.5,1.8-0.7,3.4-0.9,5c-0.2,2.1-0.4,4-1.3,6.2
			c-0.4,1-0.9,1.8-1.3,2.7c-0.4,0.7-0.8,1.5-1.2,2.3c-0.1,0.3-0.3,0.6-0.4,0.8c-0.1,0.1-0.1,0.2-0.2,0.3c0,0,0,0,0,0
			c0,0,0.2,0.2,0.3,0.4c0.1,0.2,0.1,0.5,0,0.7c-0.4,1.3-1.3,1.7-2.1,2.1c-0.4,0.2-0.7,0.3-1.1,0.6c-0.9,0.7-1.8,1.8-2.7,3.2
			c-0.2,0.3-0.5,0.5-0.8,0.5c0,0-0.1,0-0.1,0c-0.1,0.3-0.3,0.7-0.4,1.1c-0.4,1.1-0.8,2.3-1.8,2.7c0.2,0.1,0.4,0.4,0.5,0.6
			c0.1,0.5,0.3,1.2-3,6.8c-0.3,0.5-0.4,0.7-0.5,0.8c-0.1,0.3-0.7,2.8-0.5,4.1c0,0.4-0.1,0.7-0.4,0.9c0,0.1,0,0.2,0,0.4
			c0.1,0.4-0.1,0.8-0.5,1c-0.3,0.1-0.5,0.2-0.8,0.1c0,0.2-0.1,0.3-0.2,0.5c-1.6,1.9-2.4,5.6-2.7,8.5c-0.2,1.4-0.5,2.8-0.9,4.2
			c-0.3,1.2-0.6,2.4-0.8,3.6c0.1,0.1,0.2,0.1,0.3,0.2c0.2,0.2,0.8,0.7,0.3,3.6c-0.1,0.3-0.3,0.6-0.5,0.7
			C70,82.3,69.8,82.4,69.7,82.4z M52.6,66.4c0.3,0,0.7,0,1.1,0.1c3,0.8,3.5,3,3.8,4.7c0.1,0.6,0.2,1.1,0.4,1.7l0.1,0.3
			c0.5,1.5,0.5,1.5,2.4,2.4l8.5,4.2c0-0.1,0-0.1,0-0.2c-0.1,0-0.2-0.1-0.3-0.2c-0.4-0.3-0.6-0.7-0.5-1.2c0.1-1.6,0.5-3.1,0.9-4.6
			c0.3-1.3,0.7-2.6,0.8-3.9c0.2-1.4,0.8-6.3,2.9-9.2c0-0.2,0-0.3,0.1-0.4c0.2-0.6,0.7-1,1.3-1.2c0.1-0.3,0.2-0.5,0.3-0.6
			c0-1.7,0.6-4.1,0.7-4.4c0.1-0.2,0.2-0.4,0.6-1.2c1.3-2.2,2-3.6,2.4-4.4c0,0,0,0,0,0c-0.4-0.2-0.7-0.6-0.7-1.1c0-0.2,0-0.4-0.1-0.6
			c-0.1-0.5-0.2-1-0.1-1.5c0.1-0.5,0.4-0.9,0.8-1.1c0.4-0.2,1-0.1,1.3,0.2c0,0,0,0,0,0c0.2-0.3,0.4-1,0.5-1.3
			c0.3-0.9,0.6-1.8,1.3-2.3c0.2-0.2,0.4-0.2,0.7-0.3c0.9-1.4,1.8-2.4,2.8-3.1c0.5-0.4,1.1-0.7,1.5-0.9c0.2-0.1,0.4-0.2,0.5-0.3
			c-0.2-0.3-0.3-0.8-0.2-1.2c0.2-0.6,0.4-1,0.6-1.2c0.1-0.2,0.2-0.3,0.3-0.5c0.4-0.9,0.8-1.7,1.3-2.5c0.4-0.8,0.9-1.6,1.2-2.4
			c0.8-2,1-3.8,1.2-5.7c0.2-1.7,0.4-3.4,0.9-5.3c0-0.2,0.1-0.4,0.2-0.7c0.7-2.2,0.9-3.4,1-4.1c-0.4,0-0.9-0.3-1.1-0.7
			c-0.4-0.6-0.1-1.5,0.5-1.8c1.9-1.1,2.7-5,2.5-7.6c-1.2,0.5-2.3,0.8-3.5,0.9c-0.8,0.1-1.5-0.1-2-0.2C88.9,3,88.5,3,88.1,3.1
			c-0.2,0.1-0.8,0.5-1.1,0.7c-0.3,0.2-0.5,0.4-0.8,0.6c0.3,1.1,0.1,1.9-0.9,2.7c-0.3,0.2-0.3,0.3-0.4,0.5c-0.1,0.4-0.4,0.8-0.8,1
			c-0.4,0.2-0.9,0.1-1.3-0.1c-0.1-0.1-0.3-0.2-0.4-0.3c-0.1,0.1-0.3,0.3-0.3,0.6c-0.1,0.4-0.4,0.8-0.9,0.9c-0.1,0-0.2,0.1-0.3,0.1
			c-0.4,0.3-1.2,0.2-1.7-0.2c-0.1-0.1-0.2-0.3-0.3-0.5c0,0,0,0,0,0c-0.5-0.3-0.9-0.8-1.3-1.4c-0.3-0.5-0.7-1-1.1-1.2
			c-0.4-0.2-0.6-0.2-0.8-0.3c-0.3,0-0.6-0.1-1.1-0.3c-2.7-1-7.3-0.8-9.5,0.9c-0.4,0.3-0.7,0.6-0.9,0.7c-1.2,1-1.6,1.1-3.9,1.1
			L5.9,8.8L5.8,49.4c0.6,0.1,1.2,0.3,1.7,0.5c0.6,0.2,1.2,0.4,1.6,0.4c0.4,0,0.7,0,1.1,0c1.1-0.1,2.3-0.2,4,1.3
			c1,0.9,1.2,1.6,1.5,2.2c0.1,0.3,0.2,0.6,0.5,1.1c0-0.1,0-0.1,0.1-0.2c0.2-0.6,0.7-0.9,1.3-0.9c0.6,0,1.1,0.4,1.3,0.9
			c0.1,0.1,0.4,0.1,0.5,0.2c0.5,0.1,1.2,0.2,1.8,0.7c0.4,0.2,0.9,0.4,1.3,0.7c0.3,0.2,0.5,0.5,0.6,0.9c0.1,0.4,0,0.7-0.2,1
			c-0.1,0.2-0.2,0.3-0.2,0.5c0.9,1.8,1.4,2.5,1.6,2.7c0.6,0.5,1.2,0.9,1.9,1.3c1.1,0.7,2.3,1.4,3.4,2.6c0.4,0.4,0.7,0.8,1,1.2
			c0.7,0.8,1,1.2,1.5,1.4c0.1-0.6,0.4-1,0.7-1.3c1.6-1.5,4.9-0.5,7.8,0.3c0.8,0.2,1.9,0.6,2.2,0.6c0.3,0,0.5,0,0.7-0.1
			c0.6-0.2,1.1-0.3,2.2-0.2c0.6,0.1,1.1,0.2,1.5,0.3c0.6,0.2,1,0.3,1.4,0.2c0.2,0,0.7-0.2,1.1-0.4C50.6,66.8,51.5,66.4,52.6,66.4z
			 M69.9,79.7C69.9,79.7,69.9,79.7,69.9,79.7C69.9,79.7,69.9,79.7,69.9,79.7z M70,78.4C70,78.4,70,78.5,70,78.4
			C70,78.5,70,78.4,70,78.4z M17,55.2C17,55.2,17,55.2,17,55.2C17,55.2,17,55.2,17,55.2z M78.5,47.4L78.5,47.4L78.5,47.4z
			 M79.2,44.6L79.2,44.6L79.2,44.6z M79.5,44.5L79.5,44.5L79.5,44.5z M87.5,34.9C87.5,34.9,87.5,34.9,87.5,34.9
			C87.5,34.9,87.5,34.9,87.5,34.9z M93.5,11.8C93.5,11.8,93.5,11.8,93.5,11.8C93.5,11.8,93.5,11.8,93.5,11.8z M92.9,10.7
			C92.9,10.7,92.9,10.7,92.9,10.7C92.9,10.7,92.9,10.7,92.9,10.7z M80.1,8.2C80.1,8.2,80.1,8.2,80.1,8.2C80.1,8.2,80.1,8.2,80.1,8.2
			z M79.9,8C79.9,8,79.9,8,79.9,8C79.9,8,79.9,8,79.9,8z M63.5,69c-1.9,0-3.9-3.2-3.9-4.7c0-1.4,0.7-3,1.6-3.9
			c1.3-1.2,2.7-2.1,4.3-0.3c0.2,0.3,0.5,0.5,0.8,0.7c0.4,0.2,0.7,0.6,0.8,1.1c0,0.5-0.2,0.9-0.5,1.2c0,0,0,0,0,0
			c-0.6,0.5-1.1,0.7-1.4,0.8c0,0.1-0.1,0.2-0.1,0.4c0.1,3.3,0,3.8-0.5,4.2C64.2,68.9,63.8,69,63.5,69z M63.6,61.2c0,0-0.3,0-1.1,0.8
			c-0.5,0.5-1,1.6-1,2.4c0,0.5,0.8,1.8,1.5,2.4c0-0.4,0-1.2,0-2.4c0-0.1,0-0.2,0-0.3c0.3-1,0.4-1.5,1.3-1.8c0.1,0,0.1-0.1,0.2-0.1
			c-0.2-0.2-0.4-0.3-0.5-0.5C63.7,61.2,63.6,61.2,63.6,61.2z M65.9,62.4L65.9,62.4L65.9,62.4z"/>
	</g>
</g>
</svg>
