<?xml version="1.0" encoding="utf-8"?>
<!-- Generator: Adobe Illustrator 22.0.0, SVG Export Plug-In . SVG Version: 6.00 Build 0)  -->
<svg version="1.1" id="NT" xmlns="http://www.w3.org/2000/svg" xmlns:xlink="http://www.w3.org/1999/xlink" x="0px" y="0px"
	 viewBox="0 0 100 83" style="enable-background:new 0 0 100 83;" xml:space="preserve">
<style type="text/css">
	.st0{fill:#FFFFFF;}
</style>
<g>
	<path class="st0" d="M74.5,82.9C74.5,82.9,74.5,82.9,74.5,82.9l-46.1-0.2c-0.5,0-1-0.4-1-1l-0.2-60.5c0-0.4,0.2-0.7,0.6-0.9
		c0.3-0.1,0.7-0.1,0.9,0c0.1-0.1,0.2-0.2,0.3-0.3c0.2-0.2,0.5-0.2,0.8-0.2c0.3,0,0.6,0.2,0.9,0.4c0,0,0,0,0,0
		c0.1-0.1,0.2-0.3,0.4-0.3c-0.1-0.2-0.1-0.4,0-0.6c-0.7-0.2-1.1-0.5-1.3-1.1c-0.2-0.6,0.1-1.3,0.5-1.9c0.2-0.3,0.4-0.5,0.6-0.8
		c0.3-0.3,0.4-0.4,0.6-0.7c0-0.1,0.1-0.4,0.1-0.6c0-0.4,0.1-0.8,0.2-1.2c0.1-0.3,0.3-0.5,0.6-0.6c0.3-0.1,0.6-0.1,0.8,0.1
		c0,0,0.1-0.1,0.2-0.2c0.1-0.1,0.3-0.2,0.4-0.3c0,0,0,0,0,0c-0.2-0.8-0.2-1.4-0.1-1.9c0-0.2,0.1-0.3,0.2-0.5
		c0.1-0.1,0.3-0.4,0.6-0.8l0.3-0.5C34.9,8.1,35.1,8,35.5,8c0-0.1,0-0.1,0-0.2c0-0.3,0.2-0.7,0.5-0.8c0.3-0.2,0.7-0.2,1,0
		c0.1,0,0.2,0.1,0.2,0.1c0-0.1,0.1-0.2,0.2-0.3c0.3-0.3,0.7-0.7,1.1-1l0.4-0.3c0.2-0.2,0.5-0.3,0.8-0.2c0.3,0,0.5,0.2,0.7,0.4
		c0.5,0.4,2.8,0.4,3.6,0.2c1.1-0.2,1.8-0.6,2.1-1c0-0.1,0-0.2,0-0.4c0-0.1,0-0.3,0-0.4c-0.2-0.1-0.4-0.4-0.5-0.6
		C45.5,3.1,45.5,3,45.5,3c0,0-0.2,0-1,0.4c-0.2,0.1-0.5,0.1-0.8,0c-0.3-0.1-0.5-0.3-0.6-0.5c-0.1-0.1-0.2-0.3-0.4-0.4
		c-0.3-0.2-0.6-0.6-0.7-1c-0.1-0.3,0-0.5,0.1-0.8c0.1-0.2,0.4-0.4,0.6-0.5c0.6-0.2,1,0,1.3,0.2c0.1-0.1,0.2-0.2,0.4-0.3
		C45-0.2,45.5,0.2,46,0.5c0.1,0,0.1,0.1,0.2,0.1c0.2,0,0.3,0,0.4,0.1c0.3,0.2,0.6,0.5,0.6,0.9c0,0.1,0,0.2,0,0.2c0,0,0,0,0.1,0
		c0.4-0.1,1-0.4,1.6-0.1c0.5,0.2,0.6,0.7,0.8,1.1c0,0.1,0.1,0.3,0.1,0.3c0,0,0.2,0,0.3,0c0.2,0,0.4,0,0.6,0.1
		c0.7,0.2,0.8,0.2,1.3,0.1c0.2,0,0.3-0.1,0.5-0.1c0.3-0.1,0.6,0,0.8,0.2c0.2,0.2,0.4,0.5,0.4,0.8c0,0,0,0.1,0,0.1c0,0,0,0,0,0
		c0,0,0.1,0,0.1,0c0.2,0.1,0.6,0.4,0.9,0.6c0.7-0.2,2.7-0.3,3.2-0.2c0,0,0.1,0,0.1,0c0.5,0.1,0.8,0.5,1.2,0.8
		C59.6,5.8,59.8,5.9,60,6c0.1-0.2,0.2-0.5,0.4-0.6c0.3-0.2,0.7-0.3,1.1-0.4c0.1,0,0.1,0,0.2,0c0.1-0.2,0.2-0.4,0.4-0.5
		c0.3-0.2,0.6-0.3,0.9-0.3c0.4,0,0.7,0.1,0.9,0.4c0.2,0.3,0.2,0.7,0.1,1l0,0.1c0,0.1-0.1,0.1-0.1,0.2c0.4,0,0.7,0.3,0.8,0.7
		c0,0.1,0.1,0.3,0.1,0.5c0.2,0,0.3-0.1,0.4-0.2c-0.2-0.2-0.4-0.5-0.4-0.7c0-0.3,0.1-0.7,0.4-0.9c0.3-0.2,0.7-0.4,0.9-0.6
		c0.3-0.1,0.6-0.2,0.8-0.1c0.3,0.1,0.5,0.3,0.6,0.6c0,0.1,0.1,0.3,0.2,0.4c0.2-0.1,0.4-0.2,0.6-0.2c0.4,0,0.8,0.2,1,0.6
		c0,0,0,0.1,0.1,0.1c0.3,0.6,0.4,1.1-0.1,1.7c0,0-0.1,0.1-0.1,0.2C69,8,68.9,8.1,68.7,8.2c0,0-0.2,0.3-0.3,0.6
		c0,0.1-0.1,0.1-0.1,0.1c-0.2,0.3-0.4,0.5-0.6,0.7c0,0,0,0.1,0.1,0.1c0.1,0.3,0.1,0.6,0,0.8s-0.4,0.4-0.6,0.5l0,0
		c0,0.1-0.1,0.1-0.2,0.2c-0.1,0.1-0.3,0.2-0.5,0.3c-0.1,0.1-0.2,0.2-0.3,0.3L65.9,12c-0.3,0.3-0.6,0.4-1,0.3c-0.1,0-0.1,0-0.2-0.1
		c-0.1,0.1-0.2,0.1-0.2,0.1c0,0,0,0-0.1,0c0.1,0.4-0.1,0.8-0.4,1c0.1,0.1,0.1,0.1,0.2,0.2c0.4,0.3,0.8,0.7,0.7,1.3
		c-0.1,1.3-0.8,2.2-1.6,3.1c-0.4,0.5-0.9,1.1-1.1,1.6c-0.4,1-0.2,1.2,1.2,1.9c0.6,0.3,1.3,0.6,2,1.2c0.3,0.3,0.7,0.6,1,0.9
		c0.5,0.5,0.9,0.9,1.4,1.2c0.1,0.1,0.3,0.2,0.4,0.4c0,0,0,0.1,0.1,0.1c0,0.1,0.1,0.2,0.1,0.2c0.4-0.1,0.6-0.1,0.9-0.1
		c0.1,0,0.1,0,0.2,0.1c2.5,1.1,4.2,2.4,5.7,3.7c0.2,0.2,0.3,0.5,0.3,0.7l0.1,52c0,0.3-0.1,0.5-0.3,0.7C75,82.8,74.7,82.9,74.5,82.9z
		 M29.3,80.7l44.1,0.2l-0.1-50.5c-1.4-1.2-2.8-2.2-4.6-3c0,0-0.1,0-0.1,0c-0.4,0.1-0.8,0.2-1.2,0c-0.5-0.2-0.8-0.6-1-1.1
		c-0.5-0.4-1-0.8-1.4-1.2c-0.3-0.3-0.6-0.6-0.9-0.8c-0.5-0.4-1.1-0.7-1.6-0.9c-1.2-0.6-3.2-1.6-2.1-4.4c0.3-0.9,0.9-1.6,1.4-2.2
		c0.5-0.6,0.9-1.1,1-1.6c0,0,0,0-0.1,0c-0.4-0.4-1.1-1.1-0.9-2c0-0.2,0.2-0.5,0.4-0.8c0-0.6,0.4-1.2,1.1-1.6c0.1,0,0.1-0.1,0.2-0.1
		c0.1-0.3,0.5-0.6,0.9-0.6c0.2,0,0.4,0,0.6,0c0.1,0,0.1-0.1,0.2-0.1c0,0,0.1,0,0.1-0.1c0.1-0.1,0.1-0.1,0.2-0.2c0-0.3,0-0.5,0.2-0.8
		c-0.6,0.3-1.3,0.4-2,0.2c-0.5-0.1-0.9-0.5-0.9-1c-0.1,0-0.2,0-0.3,0c-0.3,0-0.7-0.2-0.9-0.5c-1.5,1.4-3,0.1-3.6-0.4
		c-0.1-0.1-0.3-0.3-0.5-0.4c-0.3,0-1.5,0.1-2,0.2c-0.3,0.2-0.8,0.3-1.3,0.1c-0.2-0.1-0.3-0.2-0.4-0.3c-0.2-0.1-0.5-0.3-0.7-0.5
		c-0.2-0.1-0.3-0.1-0.4-0.3c-0.2-0.2-0.4-0.4-0.6-0.6c-0.5,0.1-1,0.1-1.8-0.2c0,0-0.1,0-0.2,0c-0.4,0-1,0-1.5-0.5
		c-0.2-0.1-0.3-0.3-0.4-0.5c0,0,0,0,0,0c0,0,0,0.1,0,0.2c0,0.4,0,1-0.3,1.6c-0.6,1-1.8,1.6-3.5,1.9c0,0-3.1,0.5-4.8-0.3
		c-0.1,0.1-0.3,0.2-0.4,0.3c0,0.3-0.1,0.6-0.1,0.8c-0.1,0.6-0.5,0.9-1,1.1c-0.3,0.5-0.8,0.7-1.1,0.8c-0.5,0.1-0.9,0-1.3-0.2
		c-0.1,0.2-0.2,0.3-0.3,0.4c0,0.3,0.1,0.8,0.5,1.8c0.2,0.4,0.1,0.9-0.2,1.2c-0.3,0.4-0.7,0.5-1.1,0.5c-0.1,0-0.3-0.1-0.4-0.1
		c-0.2,0.2-0.5,0.3-0.8,0.4c0,0.4-0.1,0.7-0.2,1.1c-0.3,0.7-0.7,1.1-1,1.4c-0.2,0.2-0.3,0.3-0.4,0.4c0,0,0,0,0,0.1
		c0.2,0.1,0.3,0.1,0.5,0.2l0.1,0c0.3,0.1,0.6,0.4,0.8,0.7c0.1,0.1,0.1,0.3,0.1,0.4c0.2,0.1,0.4,0.3,0.6,0.4c0.3,0.3,0.5,0.9,0.3,1.3
		c-0.2,0.5-0.6,0.8-1.1,0.8c0,0,0,0,0,0c0.1,0.2,0.2,0.4,0.2,0.7c0,0,0,0,0,0c0,0.1,0,0.1,0,0.2c0,0.1,0,0.1,0,0.2c0,0,0,0.1,0,0.1
		c0,0.1,0,0.1-0.1,0.2c0,0,0,0,0,0.1l0,0c0,0,0,0.1-0.1,0.2c0,0-0.1,0.1-0.1,0.1h0c0,0-0.1,0.1-0.1,0.1c0,0,0,0,0,0c0,0,0,0-0.1,0
		c-0.1,0.1-0.1,0.1-0.2,0.1c-0.2,0.1-0.5,0.1-0.7,0.1c0,0,0,0-0.1,0c-0.1,0-0.2-0.1-0.2-0.1c-0.5-0.2-0.9-0.5-1.3-0.9
		c-0.1,0.3-0.2,0.6-0.3,0.7c-0.2,0.3-0.4,0.4-0.7,0.5L29.3,80.7z M31.2,18.6C31.2,18.6,31.2,18.6,31.2,18.6
		C31.2,18.6,31.2,18.6,31.2,18.6z M31.5,17.9L31.5,17.9L31.5,17.9z M63.1,15.3L63.1,15.3L63.1,15.3z M65.8,11.5
		C65.8,11.5,65.8,11.5,65.8,11.5C65.8,11.5,65.8,11.5,65.8,11.5z M64.8,7.6C64.8,7.6,64.8,7.7,64.8,7.6C64.8,7.6,64.8,7.6,64.8,7.6z
		 M63.2,6.9C63.2,6.9,63.2,6.9,63.2,6.9C63.2,6.9,63.2,6.9,63.2,6.9z M67.2,6.7c0,0,0,0.1,0,0.1C67.2,6.8,67.2,6.7,67.2,6.7z
		 M54.1,5.5C54.1,5.5,54.1,5.5,54.1,5.5C54.1,5.5,54.1,5.5,54.1,5.5z"/>
</g>
</svg>
