<?xml version="1.0" encoding="utf-8"?>
<!-- Generator: Adobe Illustrator 22.0.0, SVG Export Plug-In . SVG Version: 6.00 Build 0)  -->
<svg version="1.1" id="QLD" xmlns="http://www.w3.org/2000/svg" xmlns:xlink="http://www.w3.org/1999/xlink" x="0px" y="0px"
	 viewBox="0 0 100 83" style="enable-background:new 0 0 100 83;" xml:space="preserve">
<style type="text/css">
	.st0{fill:#FFFFFF;}
</style>
<g>
	<path class="st0" d="M74.6,82.5c-0.3,0-0.6-0.1-0.8-0.4c0,0,0,0-0.1-0.1c-0.3-0.2-0.5-0.5-0.7-0.8c-0.2-0.3-0.4-0.6-0.6-0.7
		c-0.2-0.1-0.3-0.1-0.4-0.2c-0.2,0-0.3-0.1-0.6-0.2c-1.5-0.5-4.1-0.4-5.3,0.5c-0.2,0.2-0.4,0.3-0.5,0.4c-0.7,0.6-1,0.6-2.2,0.6
		L32.4,82c-0.3,0-0.5-0.1-0.7-0.3c-0.2-0.2-0.3-0.4-0.3-0.7V68.2l-11.4,0c-0.6,0-1-0.4-1-1L19,26.6c0-0.4,0.2-0.7,0.5-0.9
		c0.3-0.2,0.7-0.2,1,0c0.4,0.3,1,0.4,1.5,0.5c0.8,0.1,1.6,0.3,2.2,0.8c0.6,0.4,0.7,1,0.8,1.4c0.1,0.2,0.1,0.4,0.2,0.4
		c0.1,0,0.4,0.1,0.6,0.2c0.3,0.1,0.5,0.1,0.6,0.2c0.3,0.1,0.6,0.3,0.8,0.5c0.3,0.2,0.6,0.4,0.8,0.5c0.2,0,0.8-0.2,1.1-0.3
		c0.5-0.1,0.9-0.3,1.2-0.3c0.1-0.1,0.1-0.2,0.2-0.2c0.1-0.1,0.2-0.2,0.3-0.4c0.1-0.1,0.1-0.2,0.2-0.3c0-0.1,0-0.1,0-0.2
		c0.3-1,0.4-1.6,0.8-1.9c0-0.1,0.1-0.2,0.2-0.3c0.1-0.1,0.1-0.1,0.2-0.1c0.1-0.3,0.2-0.7,0.4-1.3c0.1-0.3,0.2-0.6,0.2-0.7
		c0-0.3,0.1-0.6,0.1-0.8c0-0.4,0-0.9,0.1-1.4c0,0,0-0.1,0-0.1c0.1-0.2,0.6-1.2,0.8-1.6c0-0.3,0-0.7-0.1-1c0-0.1-0.1-0.3-0.1-0.5
		c-0.1-0.3-0.3-0.7-0.3-1.1c0-0.4,0.1-0.7,0.2-1.1c0-0.1,0.1-0.4,0.1-0.5c0-0.2-0.1-0.5-0.2-0.7c-0.2-0.8-0.5-1.8,0.2-3
		c0-0.1,0.1-0.2,0.2-0.2c-0.1-0.3-0.2-0.6-0.2-1.1c0-0.6,0.4-1.1,0.7-1.4c0.1-0.1,0.1-0.1,0.2-0.2c0,0,0,0,0,0
		c-0.3-0.3-0.6-0.6-0.6-1c0-0.2,0-0.6,0.3-0.9c0-0.3,0.1-0.6,0.3-0.8c0.1-0.1,0.2-0.2,0.3-0.3c0-0.1,0-0.2,0.1-0.3
		c0.1-0.3,0.3-0.5,0.4-0.6c0,0,0,0,0.1-0.1c0-0.2,0-0.4,0-0.7c0-0.6,0-1.3,0.3-1.9c0.2-0.4,0.9-1.6,1.5-2C37.8,1,38.1,1,38.4,1.1
		c0.3,0.1,0.5,0.4,0.6,0.7c0,0,0,0.1,0,0.1C39.5,2,39.8,2.3,40,3c0,0.1,0.1,0.3,0.1,0.5c0.2,0.4,0.2,0.8,0.3,1.2
		c0,0.2,0.1,0.4,0.1,0.7c0,0.2,0,0.4,0,0.6c0.2,0,0.4,0,0.6,0.2c0.2,0.2,0.4,0.4,0.4,0.7c0,0.3,0,0.5,0,0.7c0,0.3,0,0.4,0.1,0.6
		l0.1,0.1c0.7,1,0.9,1.5,1,1.9c0.2,0.2,0.3,0.4,0.3,0.7c0,2.1,0.1,4,1.1,5.6c0.4-0.4,1-0.8,1.9-0.8c0.2,0,0.3,0,0.4,0
		c0.3,0,0.5,0.2,0.7,0.4c0,0,0.1,0,0.1,0.1c0.3,0.2,0.6,0.6,0.9,1c0.2,0.2,0.4,0.6,0.6,0.7c0.2,0.1,0.4,0.2,0.5,0.3
		c0.6,0.4,0.9,0.6,1.1,1.4c0.1,0.2,0.2,1.1,0.2,1.3c0,0.4,0,0.6,0,0.8c0,0.1,0,0.2,0.1,0.4l0.1,0.2c0,0.2,0.1,0.4,0.2,0.6
		c0.1,0.4,0.3,0.8,0.3,1.2c0,0.3-0.1,0.6-0.1,0.9c0,0.2-0.1,0.4-0.1,0.5c0.1,0.4,1,1.4,1.5,1.6c0.4,0.2,0.6,0.6,0.5,1
		c0,0.3,0.1,0.8,0.3,1.3c0.2,0.6,0.5,1.3,0.4,2c0,0.4-0.1,0.7-0.2,1c-0.1,0.5-0.2,0.7,0,1.1c0,0,0.2,0.2,0.3,0.2
		c0.2,0.2,0.6,0.4,0.7,0.8c0.2,0.4,0.1,0.8,0,1.1c0,0.1-0.1,0.2-0.1,0.2c0.1,0.3,1.1,1,1.8,1.3c0.1-0.1,0.3-0.1,0.4-0.1
		c0.3,0,0.6,0.1,0.8,0.3c0,0,0.1,0,0.2,0c0.3,0,0.7,0.1,1,0.3c0.4,0.3,0.6,0.7,0.8,1.1c0.1,0.1,0.1,0.2,0.2,0.3
		c0.1,0,0.2-0.1,0.3-0.1c0.3,0,0.7,0.2,0.9,0.5c0,0,0.1,0.2,0.5,0.5c0.5,0.3,1.1,0.6,1.3,0.6c0.3,0,0.6,0.1,0.8,0.4
		c0.1,0.1,0.2,0.2,0.4,0.4c0.2,0.2,0.5,0.5,0.7,0.7c0.2,0.3,0.3,0.7,0.1,1.1c-0.1,0.1-0.1,0.2-0.2,0.3c0.2,0.5,0.7,1.1,1.1,1.6
		c0.4,0.5,0.8,1,1.1,1.5c0.5,1,0.8,2,1.2,3.3l0.1,0.2c0,0.1,0.1,0.2,0.1,0.3c0,0,0,0,0,0c0.1-0.3,0.4-0.5,0.6-0.5
		c0.3-0.1,0.6,0,0.8,0.1c0.2,0.1,0.5,0.4,0.9,0.9c0,0,0.1,0.1,0.2,0.2c0.1-0.2,0.3-0.3,0.5-0.4c0.4-0.1,0.9,0,1.1,0.3
		c0.9,1.1,0.9,4.6,0.9,4.6c0,0.1,0,0.2-0.1,0.3c0,0.1,0,0.1-0.1,0.2c0.2,0,0.4,0,0.6,0.2c0.5,0.3,0.8,0.8,1.2,1.2
		c0.3,0.4,0.6,0.8,0.9,0.9c0.1,0,0.3,0.1,0.4,0.1c0.6,0.1,1.9,0.4,1.9,2.1c0.1,0.1,0.2,0.2,0.3,0.3c0.2,0.2,0.4,0.4,0.6,0.6
		c0.2,0.3,0.4,0.5,0.5,0.8c0.1,0.2,0.2,0.3,0.3,0.5c0.1,0.2,0.4,0.3,0.7,0.5c0.4,0.2,0.7,0.4,0.9,0.7c0.3,0.4,0.2,0.8,0.1,1
		c0.1,0.2,0.1,0.5,0.2,0.7c0.1,0.3,0.1,0.6,0.2,0.7c0.1,0.3,0.2,0.4,0.3,0.5c0.2,0.4,0.3,0.6,0.3,1.3c0,0.2,0,0.6,0,0.9
		c0,0.2,0,0.3,0,0.4c0,0,0,0.1,0.1,0.2c0.1,0.4,0.2,0.7,0.2,1c0,0.5-0.2,0.8-0.3,1.1c0,0-0.1,0.1-0.1,0.2c0.2,0.3,0.3,0.8,0.1,1.1
		c0,0.1,0.1,0.3,0.2,0.4c0.1,0.2,0.3,0.5,0.4,0.8c0.1,0.4,0.3,0.7,0.4,1.1c0.3,0.7,0.5,1.2,0.7,1.8c0.2,0.5,0,1-0.5,1.2
		c-1,0.5-1.8,0.8-2.7,0.9c-0.5,0-0.8,0-1.1-0.1c-0.4-0.1-0.5-0.1-0.8,0c-0.1,0-0.4,0.3-0.6,0.4c-0.1,0.1-0.3,0.2-0.4,0.3
		c0.1,0.5,0.1,1-0.5,1.5c-0.1,0.1-0.2,0.1-0.2,0.2c-0.1,0.3-0.3,0.5-0.6,0.6c-0.3,0.1-0.6,0.1-0.8-0.1c0,0,0,0,0,0
		c-0.1,0.1-0.1,0.1-0.1,0.2c-0.1,0.3-0.3,0.5-0.6,0.6C74.8,82.5,74.7,82.5,74.6,82.5z M75.9,81.5C75.9,81.5,75.9,81.5,75.9,81.5
		C75.9,81.5,75.9,81.5,75.9,81.5z M69.2,78c1,0,2,0.2,2.8,0.4c0.1,0,0.2,0.1,0.3,0.1c0.3,0,0.5,0.1,1,0.3c0.5,0.3,0.9,0.7,1.2,1.1
		c0.3-0.2,0.6-0.4,1-0.4c0.1,0,0.1,0,0.2,0c-0.1-0.3-0.1-0.6,0-0.8c0.1-0.3,0.4-0.6,0.7-0.7c0.1,0,0.4-0.3,0.6-0.4
		c0.4-0.3,0.8-0.6,1.3-0.7c0.7-0.2,1.2-0.1,1.6,0c0.2,0,0.4,0.1,0.6,0.1c0.4,0,0.7-0.1,1.1-0.2c-0.1-0.3-0.2-0.5-0.3-0.8
		c-0.2-0.5-0.4-0.9-0.5-1.3c-0.1-0.1-0.1-0.3-0.2-0.4c-0.2-0.4-0.7-1.1-0.5-1.9c-0.3-0.8,0-1.4,0.2-1.7c0-0.1,0.1-0.1,0.1-0.2
		c0,0-0.1-0.3-0.1-0.4c-0.1-0.2-0.1-0.4-0.1-0.5c0-0.1,0-0.3,0-0.6c0-0.2,0-0.5,0-0.7c0-0.2,0-0.3,0-0.4c-0.1-0.2-0.2-0.4-0.4-0.7
		c-0.2-0.4-0.2-0.8-0.3-1.1c0-0.2-0.1-0.3-0.1-0.5c-0.1-0.2-0.1-0.4-0.1-0.6c0,0,0,0,0,0c-0.4-0.3-0.9-0.6-1.3-1.1
		c-0.2-0.2-0.3-0.5-0.4-0.7c-0.1-0.2-0.2-0.4-0.4-0.6c-0.1-0.1-0.2-0.2-0.3-0.3c-0.3-0.2-0.6-0.5-0.9-0.9c-0.1-0.2-0.2-0.5-0.2-0.7
		c0-0.1,0-0.2,0-0.2c-0.1,0-0.3-0.1-0.4-0.1c-0.3-0.1-0.6-0.1-0.9-0.3c-0.7-0.4-1.2-1-1.6-1.5c-0.1-0.1-0.2-0.3-0.3-0.4
		c-0.1,0-0.2,0-0.3,0c-1-0.1-1.6-1-1.8-1.5c0,0-0.1-0.2-0.1-0.2c-0.1-0.3,0-0.6,0.1-0.9c0.1-0.2,0.2-0.3,0.4-0.4
		c0-0.3-0.1-0.9-0.1-1.4c-0.4-0.1-0.7-0.3-1.1-0.7c-0.3,0.4-0.9,0.5-1.4,0.3c-0.2-0.1-0.4-0.3-0.5-0.5c-0.1,0-0.1,0-0.2,0
		c-0.3,0-0.7-0.1-0.9-0.4c-0.6-0.6-0.7-1-0.8-1.5c0-0.1,0-0.2-0.1-0.4l-0.1-0.2c-0.4-1.2-0.7-2.1-1.1-3.1c-0.1-0.3-0.5-0.7-0.8-1.1
		c-0.8-0.9-1.7-2.1-1.7-3.4c0-0.1,0-0.1,0-0.2c0,0,0,0,0,0c-0.9-0.2-1.8-0.8-2-0.9c-0.1-0.1-0.2-0.1-0.3-0.2c-0.1,0-0.1,0-0.2,0
		c-0.4,0.1-0.7,0-1-0.3c-0.5-0.5-0.8-1-1-1.4c-0.1-0.1-0.2-0.3-0.2-0.4c0,0,0,0,0,0c-0.2,0-0.4,0-0.7-0.1c-0.2,0.1-0.4,0-0.7,0
		c-0.7-0.2-2.9-1.4-3.4-2.6c-0.2-0.6-0.2-1.1-0.1-1.4c0,0,0,0,0,0c-0.3-0.2-0.6-0.5-0.9-1c-0.4-1-0.3-1.7-0.1-2.3
		c0.1-0.3,0.1-0.5,0.1-0.7c0-0.3-0.2-0.8-0.3-1.2c-0.2-0.5-0.4-1-0.4-1.6c-0.8-0.6-1.7-1.8-1.9-2.5c-0.2-0.6,0-1.1,0-1.5
		c0-0.1,0.1-0.3,0.1-0.4c0-0.1-0.1-0.4-0.2-0.6c-0.1-0.3-0.2-0.6-0.3-0.9l-0.1-0.2c-0.1-0.5-0.1-0.6-0.1-1c0-0.1,0-0.3,0-0.6
		c0-0.1-0.1-0.6-0.1-0.7c0,0,0-0.1,0-0.1c-0.1,0-0.1-0.1-0.2-0.1c-0.1-0.1-0.3-0.2-0.5-0.3c-0.5-0.3-0.8-0.8-1.1-1.2
		c-0.1-0.2-0.3-0.4-0.4-0.5c-0.1-0.1-0.2-0.1-0.2-0.2c-0.1,0-0.2,0-0.5,0.4c-0.2,0.2-0.4,0.4-0.6,0.5c-0.5,0.4-1.2,0.3-1.6-0.1
		c-1.8-2-2-4.6-2.1-6.6c-0.2-0.1-0.4-0.3-0.5-0.5c-0.1-0.3-0.1-0.7,0-1c-0.1-0.2-0.3-0.5-0.5-0.9C40,9.2,40,9.2,40,9.1
		c-0.3-0.5-0.4-0.9-0.4-1.3c-0.2-0.1-0.3-0.2-0.5-0.3c-0.1-0.1-0.2-0.2-0.3-0.3c-0.4-0.5-0.5-1.1-0.3-1.7c0-0.2-0.1-0.4-0.1-0.5
		c-0.1-0.3-0.1-0.6-0.2-0.9c-0.1-0.1-0.1-0.3-0.1-0.4c-0.1,0-0.1,0-0.2,0c0,0,0,0,0,0.1c-0.1,0.2-0.1,0.8-0.1,1.2c0,0.4,0,0.7-0.1,1
		c0,0.3-0.2,0.5-0.3,0.6c0.1,0.2,0.1,0.4,0.1,0.7c0,0.2-0.1,0.4-0.2,0.5c-0.1,0.1-0.1,0.2-0.2,0.2c0,0.2-0.1,0.3-0.2,0.5
		c0.1,0.2,0.2,0.4,0.3,0.6c0,0.1,0,0.1,0,0.2c0.2,0.4,0.2,0.8,0.1,0.9c0,0.1-0.1,0.3-0.2,0.4c0,0.5-0.4,1-1,1.1c-0.1,0-0.2,0-0.3,0
		c0,0,0,0,0,0c0.1,0.3,0.3,0.8,0.3,1.3c0,0.5-0.3,1-0.8,1.1c0,0,0,0,0,0c0,0.2,0.1,0.5,0.2,0.8c0.1,0.3,0.2,0.6,0.2,1
		c0.1,0.5-0.1,1-0.2,1.3c0,0.1-0.1,0.3-0.1,0.4c0,0.1,0.1,0.2,0.1,0.4c0.1,0.3,0.2,0.6,0.3,0.9c0.1,0.5,0.1,1.2,0.1,1.5
		c0,0.3-0.1,0.6-0.3,0.8c-0.1,0.3-0.5,0.9-0.6,1.1c-0.1,0.3-0.1,0.6-0.1,0.9c0,0.4,0,0.7-0.1,1.1c0,0.3-0.2,0.6-0.3,1.1
		c-0.2,0.6-0.3,0.9-0.3,1c0.1,0.3,0,0.7-0.2,1c-0.1,0.2-0.3,0.3-0.5,0.4c0,0-0.1,0.1-0.1,0.1c-0.1,0.1-0.1,0.1-0.2,0.2
		c-0.1,0.2-0.1,0.4-0.2,0.8c-0.1,0.4-0.2,0.6-0.2,0.7c-0.1,0.2-0.2,0.4-0.4,0.5c-0.1,0.1-0.2,0.2-0.2,0.3c-0.1,0.2-0.2,0.2-0.2,0.3
		c-0.1,0.4-0.5,0.7-0.9,0.8c-0.2,0-0.4,0-0.6,0c-0.2,0-0.5,0.1-0.6,0.2c-0.7,0.2-1.4,0.4-2,0.3c-0.7-0.1-1.3-0.5-1.7-0.8
		c-0.2-0.1-0.4-0.3-0.5-0.3c-0.1,0-0.2-0.1-0.3-0.1c-0.5-0.2-1.1-0.3-1.5-0.7c-0.5-0.5-0.6-1-0.7-1.3c0-0.1-0.1-0.3-0.1-0.3
		c-0.3-0.2-0.8-0.3-1.4-0.4c-0.2,0-0.5-0.1-0.7-0.1l0,38.1l11.4,0c0.6,0,1,0.4,1,1V80l29.9-0.1c0.4,0,0.7,0,0.8,0c0,0,0-0.1,0.1-0.1
		c0.1-0.1,0.3-0.3,0.6-0.5C65.9,78.4,67.6,78,69.2,78z M70.4,52.6C70.4,52.6,70.4,52.6,70.4,52.6C70.4,52.6,70.4,52.6,70.4,52.6z
		 M63.2,43.6C63.2,43.6,63.2,43.6,63.2,43.6C63.2,43.6,63.2,43.6,63.2,43.6z M57.4,39.4C57.4,39.4,57.4,39.4,57.4,39.4
		S57.4,39.4,57.4,39.4z M55.7,37.7C55.7,37.7,55.7,37.7,55.7,37.7L55.7,37.7z M56.7,37.4C56.7,37.4,56.7,37.4,56.7,37.4
		C56.7,37.4,56.7,37.4,56.7,37.4z M30.7,31.7L30.7,31.7L30.7,31.7z M30.1,30.3C30.1,30.3,30.1,30.3,30.1,30.3
		C30.1,30.3,30.1,30.3,30.1,30.3z M32.6,27.4C32.6,27.4,32.6,27.4,32.6,27.4C32.6,27.4,32.6,27.4,32.6,27.4z M34.3,26.7L34.3,26.7
		L34.3,26.7z M34.4,19.9C34.4,19.9,34.4,19.9,34.4,19.9C34.4,19.9,34.4,19.9,34.4,19.9z M35.6,12.6C35.6,12.6,35.7,12.6,35.6,12.6
		C35.7,12.6,35.6,12.6,35.6,12.6z M35.7,10.1C35.7,10.1,35.7,10.1,35.7,10.1C35.7,10.1,35.7,10.1,35.7,10.1z M36.1,9.3
		C36.1,9.3,36.1,9.3,36.1,9.3C36.1,9.3,36.1,9.3,36.1,9.3z M34.6,8.4C34.6,8.4,34.6,8.4,34.6,8.4C34.6,8.4,34.6,8.4,34.6,8.4z
		 M34.9,7.4C34.9,7.4,34.9,7.4,34.9,7.4C34.9,7.4,34.9,7.4,34.9,7.4z M39,2.7C39,2.7,39,2.7,39,2.7C39,2.7,39,2.7,39,2.7z"/>
</g>
</svg>
