<?xml version="1.0" encoding="utf-8"?>
<!-- Generator: Adobe Illustrator 22.0.0, SVG Export Plug-In . SVG Version: 6.00 Build 0)  -->
<svg version="1.1" id="Layer_1" xmlns="http://www.w3.org/2000/svg" xmlns:xlink="http://www.w3.org/1999/xlink" x="0px" y="0px"
	 viewBox="0 0 100 83" style="enable-background:new 0 0 100 83;" xml:space="preserve">
<style type="text/css">
	.st0{fill:#FFFFFF;}
</style>
<g id="SA">
	<g>
		<g>
			<path class="st0" d="M63,68.1c-0.2,0-0.4-0.1-0.5-0.2c-0.5-0.3-0.7-0.4-0.7-0.4s0,0-0.1,0c-0.4,0.2-0.8,0.3-1.7,0.3
				c-2,0-3-0.6-3-1.5c0-0.4,0.2-1,1-1.6c1.2-0.9,3.6-1.5,4.7-1.2c0.8,0.2,1.1,0.6,1.3,0.9c0.1,0.1,0.1,0.1,0.1,0.1l0,0
				c0,0,0,0,0.1,0c0.3,0.1,0.6,0.2,0.7,0.5s0.2,0.6,0,0.9c-0.2,0.4-0.4,0.7-0.6,0.9c-0.2,0.2-0.3,0.4-0.5,0.7
				c-0.1,0.2-0.4,0.4-0.6,0.5C63.1,68.1,63.1,68.1,63,68.1z M60,65.9L60,65.9c0.6,0,0.7,0,0.9-0.1c0.4-0.2,0.9-0.3,1.5-0.1
				c0,0,0-0.1-0.1-0.1c0-0.1-0.1-0.1-0.2-0.1C61.8,65.4,60.8,65.5,60,65.9z"/>
		</g>
		<g>
			<path class="st0" d="M82,82c-0.1,0-0.1,0-0.2,0c-2.3-0.4-2.9-1.2-3.9-2.7c-0.3-0.4-0.6-0.8-1-1.3c-0.1-0.1-0.1-0.1-0.2-0.1
				c-0.3-0.1-0.7-0.3-1-0.8c-0.2-0.3-0.3-0.8-0.5-1.3c-0.1-0.5-0.3-1.1-0.5-1.3c-0.2-0.2-0.3-0.5-0.3-0.8s0.2-0.6,0.4-0.7
				c0.3-0.2,0.5-0.5,0.6-0.9c0.2-1.1-0.7-3-2.5-5.2c-0.2-0.3-0.5-0.6-0.7-0.9C72,65.8,72,65.5,72,65.2s0.2-0.5,0.4-0.7
				c0,0,0.1-0.1,0.1-0.3c0.1-0.4,0-0.8,0-0.9c-0.1-0.1-0.1-0.1-0.1-0.1s-0.2,0.1-0.2,0.2c-0.2,0.1-0.4,0.3-0.8,0.4
				c-0.4,0.1-0.9,0.4-1.3,0.6c-0.9,0.5-2,1.1-3.2,1c-0.4,0-0.7-0.3-0.8-0.6s-0.1-0.7,0.2-1c1-1.2,2-3.1,2-4.1c0-0.7-0.5-1.5-1.1-2.3
				c-0.3-0.4-0.6-0.9-0.9-1.4c-0.2,0.6-0.3,1.2-0.4,1.9c-0.2,1.2-0.4,2.5-1.2,3.3c-0.5,0.4-1.1,0.4-2,0.4c-0.3,0-0.6,0-0.7,0
				c-0.3,0.1-0.5,0.2-0.8,0.4c-0.4,0.3-0.8,0.5-1.4,0.7c-0.3,0.1-0.7,0-0.9-0.3c-0.2-0.2-0.3-0.6-0.3-0.9c0.2-0.9,0.5-1.8,1.6-2.5
				c0.6-0.4,1.1-0.5,1.4-0.5c0.2,0,0.2,0,0.2,0l0,0c0,0,0.1-0.2,0.3-1c0.1-0.7,0.1-1.2,0.1-1.9c0-1.1,0-2.2,0.7-3.4
				c0.1-0.1,0.2-0.2,0.3-0.4c0.3-0.4,0.9-1,1-1.3c0.1-0.2,0-0.5-0.1-0.9c-0.1-0.5-0.3-1-0.1-1.7c0.1-0.6,0.6-0.8,1-0.9
				c-0.1-0.2-0.2-0.5-0.3-0.9c-0.1,0.2-0.2,0.4-0.3,0.6l-0.1,0.1c-0.2,0.2-0.3,0.3-0.7,0.5c-0.2,0.1-0.6,0.3-0.7,0.4
				c-0.1,0.2-0.2,0.6-0.3,1.1s-0.2,1-0.5,1.4c-0.5,0.9-0.8,1.4-1.6,1.4c-0.2,0-0.4,0-0.9,0.3c-1.5,0.7-2.7,2.4-3.7,3.8l-0.3,0.5
				c-0.1,0.1-0.2,0.2-0.3,0.3l-0.1,0.1c-0.4,0.5-1.3,1.5-1.2,2.1c0.1,0.4-0.1,0.7-0.4,0.9c-0.3,0.2-0.6,0.3-0.9,0.2
				c-0.2,0.1-0.4,0.2-0.7,0.1c-0.3,0-0.6-0.2-0.7-0.5c-0.2-0.3-0.4-0.6-0.6-0.9c-0.2-0.2-0.3-0.6-0.2-0.9c0-0.1,0-0.1,0.1-0.2
				c-0.3-1-0.6-2-1-3c-0.3-0.9-0.6-1.3-1-1.9c-0.2-0.3-0.4-0.5-0.6-0.9c-0.4-0.6-0.6-1.3-0.7-1.9c-0.2-0.7-0.4-1.4-0.7-1.7
				c-0.1-0.1-0.5-0.1-0.8-0.2c-0.6-0.1-1.4-0.2-2-0.7c-0.2-0.2-0.4-0.5-0.3-0.8c0,0,0,0,0-0.1c-0.3-0.3-0.3-0.8,0-1.2
				c0.1-0.2,0.4-0.5,0.7-0.5c0.1-0.3,0.2-0.4,0.2-0.5c-0.1,0-0.4-0.1-0.9,0c-0.4,0.1-0.8-0.1-1-0.5c-0.1-0.2-0.2-0.5-0.1-0.7
				c-0.4-1.3-1.1-1.3-2.3-1.3c-0.7,0-1.4,0-2.1-0.3c-0.4-0.1-0.7-0.3-1-0.5c-0.4-0.2-0.7-0.5-1-0.5c-0.2,0-0.4,0-0.7,0.1
				s-0.6,0.3-1,0.2c-1-0.1-1.3-0.2-1.8-0.6c-0.1-0.1-0.3-0.3-0.7-0.5c-0.4-0.2-0.7-0.5-1.1-0.8c-0.6-0.5-1.3-1-2-1.2
				c-0.9-0.2-1.4-0.1-2.1,0.1c-0.5,0.1-1,0.3-1.8,0.3c-0.7,0.1-1.5,0.1-2.2,0h-0.1c-0.5,0-1,0-1.5,0c-0.8,0-1.7,0.2-2.5,0.3
				c-0.9,0.1-1.7,0.3-2.6,0.3c-0.3,0-0.5-0.1-0.7-0.3s-0.3-0.5-0.3-0.7L15,2c0-0.3,0.1-0.5,0.3-0.7S15.8,1,16,1l0,0l49.6,0.2h16.6
				c0.6,0,1,0.4,1,1v18.5l-0.1,32.9L83,81c0,0.3-0.1,0.6-0.4,0.8C82.4,81.9,82.2,82,82,82z M77.4,76c0.3,0.1,0.7,0.3,1.1,0.8
				s0.7,1,1,1.4c0.6,0.9,0.9,1.3,1.5,1.5l0.2-59V3.2H65.6L17,3v33.6c0.4-0.1,0.9-0.1,1.3-0.2c0.9-0.1,1.8-0.3,2.7-0.3
				c0.5,0,1.1,0,1.6,0h0.1c0.7,0,1.4,0,2,0c0.6-0.1,1-0.2,1.4-0.3c0.8-0.2,1.7-0.5,3.1-0.1c1,0.3,1.9,0.9,2.6,1.5
				c0.3,0.3,0.7,0.5,1,0.7c0.5,0.3,0.8,0.6,1,0.7c0.1,0,0.2,0.1,0.5,0.1l0,0c0.4-0.2,1-0.5,1.9-0.3c0.7,0.1,1.2,0.5,1.7,0.8
				c0.3,0.2,0.5,0.3,0.7,0.4c0.4,0.1,0.9,0.1,1.4,0.1c1.3,0,3.3,0,4.2,2.5c0.6,0,1.3,0.2,1.8,0.8c0.8,1.1,0.1,2.4-0.2,3
				c0.1,0,0.3,0,0.4,0.1c0.6,0.1,1.2,0.2,1.7,0.6c0.9,0.7,1.2,1.8,1.4,2.8c0.1,0.5,0.3,1,0.4,1.3c0.2,0.3,0.4,0.6,0.6,0.8
				c0.5,0.7,0.9,1.3,1.3,2.4c0.3,1,0.7,2.1,1,3.1c0.3-0.6,0.8-1.1,1.1-1.6l0.1-0.1c0.1-0.1,0.1-0.2,0.2-0.3l0.3-0.4
				c1.2-1.6,2.5-3.4,4.5-4.4c0.6-0.3,1-0.4,1.3-0.4c0.1-0.1,0.1-0.2,0.2-0.4c0.1-0.2,0.2-0.5,0.3-0.9c0.1-0.6,0.3-1.2,0.6-1.7
				s0.9-0.8,1.3-1.1c0.1,0,0.1-0.1,0.2-0.1c0.1-0.2,0.1-0.5,0.1-1c0-0.4,0-0.9,0.1-1.5c0.1-0.5,0.4-0.9,0.9-1s1,0,1.3,0.4
				c0.5,0.5,2.1,4.2,1.9,5.4c0,0.3-0.2,0.9-1.1,1.1v0.1c0.2,0.6,0.4,1.4,0,2.2c-0.2,0.5-0.7,1.1-1.2,1.7c-0.1,0.1-0.2,0.2-0.2,0.2
				c-0.4,0.7-0.4,1.4-0.4,2.4v0.1c0.2-0.9,0.6-1.7,1.3-2.4c0.3-0.3,0.8-0.5,1.3-0.3c0.5,0.1,0.8,0.5,0.9,1c0.1,0.7,0.6,1.4,1.1,2.1
				c0.6,0.9,1.4,2,1.4,3.3c0,0.9-0.3,2-0.8,3c0.5-0.2,0.9-0.5,1.4-0.6c0.1,0,0.2-0.1,0.3-0.2c0.4-0.3,1.5-1,2.8,0.1
				c0.8,0.7,0.9,1.9,0.6,2.9c-0.1,0.2-0.1,0.5-0.2,0.7c0.1,0.1,0.1,0.1,0.2,0.2c2.3,2.8,3.3,5.1,3,6.9c-0.1,0.6-0.4,1.1-0.7,1.5
				c0.2,0.4,0.3,0.9,0.4,1.3C77.3,75.4,77.4,75.8,77.4,76z M65.9,54.3L65.9,54.3L65.9,54.3z M44.1,44.9L44.1,44.9L44.1,44.9z
				 M45.2,44.8L45.2,44.8L45.2,44.8z M45.2,44.8L45.2,44.8L45.2,44.8z M65.1,43.3C65.1,43.3,65.1,43.4,65.1,43.3
				C65.1,43.4,65.1,43.3,65.1,43.3z M34.6,38.6L34.6,38.6L34.6,38.6z"/>
		</g>
	</g>
</g>
</svg>
