<?xml version="1.0" encoding="utf-8"?>
<!-- Generator: Adobe Illustrator 22.0.0, SVG Export Plug-In . SVG Version: 6.00 Build 0)  -->
<svg version="1.1" id="Layer_1" xmlns="http://www.w3.org/2000/svg" xmlns:xlink="http://www.w3.org/1999/xlink" x="0px" y="0px"
	 viewBox="0 0 100 83" style="enable-background:new 0 0 100 83;" xml:space="preserve">
<style type="text/css">
	.st0{fill:#FFFFFF;}
</style>
<g id="TAS">
	<g>
		<g>
			<path class="st0" d="M56.1,81.5L56.1,81.5c-1.1-0.1-3-0.2-6.5-0.4c-4.5-0.2-7.6-0.3-8.7-0.3h-0.1c-0.2,0.1-0.5-0.1-0.7-0.2
				c-1.8-1.3-4.8-6.1-7.7-10.9c-0.9-1.4-1.6-2.6-2.1-3.3c-3.4-5.1-6-11.9-7.6-19.8c-0.1-0.4,0.1-0.9,0.5-1.1
				c0.4-0.2,0.9-0.2,1.2,0.2c1.1,1,2.3,2.4,2.5,4.2c0.2-0.3,0.5-0.4,0.8-0.5c0.3,0,0.7,0.1,0.9,0.3c0.1,0.1,0.2,0.2,0.3,0.4
				c-0.6-5.3-5-11.9-8.4-17.2c-0.7-1-1.2-1.9-1.8-2.7C16.6,26.8,10,16.3,10,8.8c0-1.4,0.4-2.5,0.9-3.6c0.4-1,0.8-2,0.8-3.2
				c0-0.3,0.2-0.6,0.4-0.8C12.3,1,12.7,1,13,1.1c3.9,1.4,7.9,2.7,12.1,4c8.7,2.8,17.7,5.7,25.6,9.6c0.4-2.1,1-3.3,1.9-3.6
				c0.9-0.2,2.5,0.2,6.3,5.3c-0.8-1.8-1.5-4.1-1.9-6.3c0-0.3,0-0.6,0.2-0.8C57.4,9,57.7,8.8,58,8.9c0.7,0,1.4,0.1,2.1,0.1
				c4.5,0.3,9.2,0.6,11.5-3.8c0.2-0.4,0.8-0.6,1.2-0.5c2.7,1,4.2,0,5.5-0.9c1.8-1.2,3.1-1.7,5.9,1.2c2,2,2,2.9,1.5,4.6
				c-0.2,0.7-0.4,1.6-0.4,2.9c0.1,2.8,0.1,5.7,0.1,8.5c0,4.8,0,9.7,0.4,14.3c0,0.3-0.1,0.6-0.3,0.8c-0.2,0.2-0.5,0.3-0.9,0.2
				c-3.9,1.6-5.1,11.1-5.7,16.2c-0.1,1.1-0.2,1.9-0.3,2.5c-0.1,0.5-0.3,1.1-0.7,2.1c-0.5,1.2-1,2.6-1.1,3.6c0,0.4-0.2,0.7-0.6,0.8
				c-0.3,0.2-0.7,0.1-1-0.1c-2-1.3-4.5-1.1-5.8-0.2c-0.3,0.2-0.7,0.6-0.9,1.1c-0.2,0.5-0.7,0.7-1.2,0.6c-0.1,0-0.1,0-0.2,0
				c-0.3,0-0.7,0.3-1.3,2.1c-0.1,0.3-0.3,0.5-0.6,0.6c-0.3,0.1-0.6,0.1-0.8-0.1c-0.1,0.1,0,0.2,0,0.2c0.9,4.1,0.6,5.7,0.5,6
				c-0.1,0.4-0.5,0.7-1,0.7c-1.8-0.1-2.7-0.6-2.8-1.4c0-0.2,0-0.5,0.1-0.7c-0.7,0-1.2-0.2-1.7-0.3c-0.3-0.1-0.7-0.2-1.1-0.3
				c1,1.5,1.3,4.9,0.7,7.8c-0.4,1.9-1.2,3.2-2.3,3.9C56.5,81.5,56.3,81.5,56.1,81.5z M41,78.9c1.6,0,6.1,0.2,8.7,0.3
				c3.2,0.1,5,0.2,6.1,0.3c0.5-0.5,0.9-1.3,1.1-2.5c0.6-2.5,0.2-5.3-0.4-6c-0.5-0.7-0.5-1.6-0.1-2.3c0.4-0.7,1.2-1.1,2.1-1
				c0.6,0.1,1.1,0.3,1.5,0.4s0.6,0.2,0.8,0.2c0.7,0,1.4,0.3,1.8,0.8c0.1,0.1,0.2,0.3,0.2,0.4c-0.1-0.8-0.2-1.8-0.5-3.3
				c0-0.1-0.1-0.4-0.1-0.4c-0.1-0.8,0.3-1.6,1-2c0.3-0.2,0.6-0.2,0.9-0.3c0.5-1.3,1.3-2.4,2.6-2.6c0.1,0,0.1,0,0.2,0
				c0.3-0.5,0.7-0.9,1.2-1.3c1.8-1.3,4.5-1.5,6.7-0.6c0.3-0.9,0.6-1.9,1-2.7c0.2-0.6,0.6-1.4,0.6-1.7c0.1-0.5,0.2-1.3,0.3-2.3
				c1-8,2.3-15.9,6.8-17.8c-0.4-4.4-0.3-9-0.3-13.5c0-2.8,0-5.7-0.1-8.4c0-1.6,0.2-2.7,0.5-3.5c0.3-1.1,0.3-1.2-1.1-2.7
				c-1.8-1.9-2.1-1.8-3.3-0.9c-1.3,0.9-3.3,2.2-6.5,1.3c-3,4.7-8.5,4.4-13,4.1c-0.3,0-0.5,0-0.8-0.1c0.4,1.6,0.9,3.2,1.6,4.5
				c0.5,1,0.2,2.1-0.8,2.7c-0.9,0.6-2.1,0.3-2.7-0.5c-2.4-3.3-3.6-4.2-4.1-4.4c-0.1,0.3-0.3,0.8-0.5,1.8c-0.1,0.6-0.5,1.2-1.1,1.5
				c-0.6,0.3-1.3,0.3-1.9,0C42,12.6,33.1,9.8,24.5,7c-3.8-1.2-7.4-2.4-11-3.6c-0.2,1-0.5,1.8-0.8,2.5c-0.4,1-0.7,1.8-0.7,2.9
				c0,7,6.4,17.1,8.5,20.4c0.5,0.8,1.1,1.7,1.7,2.7c3.6,5.5,8,12.3,8.8,18c0.1,0.9-0.4,1.8-1.2,2.2c-0.7,0.3-1.4,0.2-2-0.2
				c-0.2,0.1-0.5,0.2-0.8,0.2s-0.7-0.1-0.9-0.2c1.5,5.3,3.6,10,6,13.6c0.5,0.8,1.2,2,2.1,3.4C36,71.8,39.3,77.4,41,78.9z M53,13
				L53,13L53,13z"/>
		</g>
	</g>
</g>
</svg>
