<?xml version="1.0" encoding="utf-8"?>
<!-- Generator: Adobe Illustrator 22.0.0, SVG Export Plug-In . SVG Version: 6.00 Build 0)  -->
<svg version="1.1" id="VIC" xmlns="http://www.w3.org/2000/svg" xmlns:xlink="http://www.w3.org/1999/xlink" x="0px" y="0px"
	 viewBox="0 0 100 83" style="enable-background:new 0 0 100 83;" xml:space="preserve">
<style type="text/css">
	.st0{fill:#FFFFFF;}
</style>
<g>
	<path class="st0" d="M56.7,74.4C56.7,74.4,56.7,74.4,56.7,74.4c-0.4,0-0.8-0.3-0.9-0.6c-0.2-0.5-0.3-1.1-0.4-1.5
		c-0.1-0.5-0.2-1-0.4-1.1c-0.1,0-0.5,0-0.9,0c-0.9,0-2,0-2.8-0.6c-0.9-0.7-1.1-1.3-1.1-2c0-0.4-0.1-0.5-0.4-0.7
		c-0.7-0.3-1.7,0.2-2.5,0.6l-0.2,0.1c-0.6,0.3-1,0.5-1.5,0.4c-0.3-0.1-0.5-0.1-0.7-0.2c-0.4-0.1-0.7-0.4-0.7-0.8s0.1-0.8,0.4-1
		c0.3-0.2,0.5-0.5,0.5-0.7c0.1-0.3,0.2-0.7,0.4-1.1c0.5-1.3,1.3-3.1,0.7-4.1c-0.2-0.4-0.7-0.7-1.4-0.8c-0.9-0.2-3.6,2-4.5,3.6
		c-0.1,0.1-0.1,0.2-0.1,0.3c0,0,0,0,0,0c0.4,0,0.8,0.2,1,0.6c0.2,0.4,0.1,0.9-0.3,1.2c-2.5,2.1-7,5.3-8.2,6.1
		c-0.7,0.4-1.1,0.8-1.4,1c-0.9,0.7-1.2,0.7-2.8,0.6c-1.2,0-2.3-0.8-3.3-1.4c-0.4-0.3-0.8-0.5-1.1-0.7c-11.2-5.9-14.1-5.2-14.8-4.8
		c-0.2,0.1-0.4,0.3-0.4,0.5c-0.1,0.3-0.3,0.5-0.6,0.6c-0.3,0.1-0.6,0.1-0.8,0c-1-0.5-1.8-1.3-2.6-2.1c-0.9-0.9-1.9-1.9-3.3-2.3
		c-0.4-0.1-0.8-0.5-0.8-1L1.1,8c0-0.3,0.1-0.5,0.3-0.7C1.7,7.1,2,7,2.2,7c1.2,0.1,2.4,0.5,3.6,0.8c1.1,0.3,2.1,0.6,2.9,0.7
		c0.7,0,1.3,0,1.9-0.1c1.7-0.2,2.9-0.2,4.9,1.6c1.2,1.1,1.5,1.8,1.8,2.6c0.2,0.6,0.4,1.2,1,2c0.8,1.2,1.4,1.8,1.7,1.7
		c0.1,0,0.4-0.2,0.9-1.4c0.1-0.3,0.4-0.5,0.7-0.6c0.3-0.1,0.7,0,0.9,0.3c0.4,0.4,1,0.5,1.6,0.6c0.7,0.1,1.5,0.3,2.1,0.9
		c0.5,0.2,1,0.5,1.5,0.8c0.4,0.3,0.6,0.8,0.4,1.3c-0.3,0.6-0.3,1.1-0.2,1.7c1.6,3.5,2.6,4.5,3,4.9c1,0.8,2.1,1.5,3.1,2.1
		c1.6,1,3.3,2,4.8,3.6c0.5,0.6,1,1.1,1.4,1.7c1.5,1.9,2.6,3.2,5.1,2.7c-0.2-1,0-1.9,0.6-2.4c1.6-1.5,5.6-0.5,10.3,0.9
		c1.6,0.5,3.1,0.9,3.8,0.9c0.9,0,1.3-0.1,1.7-0.3c0.7-0.2,1.2-0.4,2.5-0.2c0.8,0.1,1.4,0.3,2.1,0.5c1,0.3,1.8,0.5,2.7,0.4
		c0.7-0.1,1.4-0.4,2.2-0.7c1.4-0.6,3-1.3,4.8-0.8c3.6,0.9,4.1,3.4,4.6,5.9c0.2,0.9,0.4,1.8,0.7,2.8l0.1,0.4c1,2.9,1,2.9,4.4,4.6
		l12.3,6.1c0.3,0.2,0.6,0.5,0.6,0.9c0,0.3-0.1,0.5-0.3,0.7c0.1,3.7-2,4.2-5.4,4.5c-0.7,0.1-7,0.7-8.3,0.2c-0.4,0.4-1.1,0.6-2,0.7
		c-0.2,0-1.3,0.1-2-0.3c-0.8,1.1-2.2,0.8-3.4,0.5c-0.7-0.2-1.4-0.3-1.9-0.2c0.1,0.1,0.2,0.4,0.3,0.6c0.3,0.5,0.1,1.2-0.3,1.4
		c-0.2,0.1-0.5,0.2-0.7,0.3c-0.7,0.2-0.9,0.4-1,0.7c0.1,0.1,0.2,0.3,0.2,0.5c0.1,0.3-0.1,0.6-0.3,0.9c-4.4,4.4-6.9,6.6-13.8,7.8
		c0,0.2,0.1,0.3,0.1,0.5c0.1,0.4,0,0.9-0.4,1.1c-0.4,0.2-0.9,0.2-1.2-0.1c-0.2-0.2-0.3-0.3-0.4-0.3c-0.1,0-0.2,0.1-0.3,0.4
		C57.5,74.2,57.1,74.4,56.7,74.4z M10.7,64.3c2.2,0,6.3,1,14.5,5.3c0.4,0.2,0.8,0.5,1.3,0.8c0.8,0.5,1.7,1.1,2.3,1.1
		c0.6,0,1.2,0,1.3,0c0.1,0,0.1-0.1,0.2-0.2c0.3-0.3,0.8-0.6,1.6-1.1c1-0.6,4.4-3.1,6.8-5c-0.3-0.4-0.6-1.2,0.1-2.4
		c0.9-1.6,4.3-5.1,6.6-4.6c1.6,0.3,2.4,1.2,2.7,1.9c1,1.9,0.1,4.1-0.6,5.8c-0.1,0.1-0.1,0.3-0.2,0.4c1-0.4,2.2-0.7,3.3-0.2
		c1.5,0.6,1.6,1.8,1.6,2.3c0,0.3,0,0.3,0.3,0.5c0.3,0.2,1.1,0.2,1.6,0.2c0.8,0,1.5,0,2.1,0.5c0.6,0.5,0.8,1.2,1,1.9
		c0.1,0,0.3-0.1,0.4-0.1c0.1,0,0.1,0,0.2,0c0.2-0.6,0.6-1.1,1.3-1.2c6.4-1,8.6-2.8,12.6-6.8c0-0.1,0-0.2,0-0.3
		c0-1.6,1.1-2.3,1.9-2.6c-0.1-0.4-0.2-0.9,0-1.3c0.1-0.5,0.5-0.8,0.9-1c1.1-0.5,2.3-0.3,3.3,0c0.3,0.1,1,0.2,1.3,0.2
		c0.2-0.5,0.7-0.9,1.2-0.9c0.5-0.1,0.9,0.1,1.3,0.4c0.1,0,0.5,0.1,1,0.1c0.4,0,0.7-0.1,0.8-0.2c0.3-0.4,0.7-0.6,1.2-0.7
		c0.3,0,0.7,0.1,1,0.3c0.8,0.1,3.5,0,7.2-0.3c3.5-0.3,3.6-0.7,3.6-2.6c0,0,0,0,0,0c0,0,0-0.1,0-0.1l-11.5-5.7c-4-2-4.2-2.2-5.4-5.7
		l-0.1-0.4c-0.4-1.1-0.6-2-0.8-3c-0.5-2.5-0.8-3.8-3.2-4.4c-1.1-0.3-2.2,0.2-3.5,0.7c-0.9,0.4-1.8,0.8-2.8,0.9
		c-1.3,0.1-2.4-0.2-3.4-0.5c-0.6-0.2-1.2-0.3-1.8-0.4c-0.9-0.1-1.1,0-1.6,0.1c-0.6,0.2-1.2,0.4-2.3,0.4c-1,0-2.4-0.4-4.3-1
		c-2-0.6-7.4-2.2-8.3-1.4c0,0-0.1,0.3,0.1,0.9c0.1,0.4,0,0.8-0.2,1.2c-0.2,0.4-0.6,0.6-1,0.7c-4.1,1-5.9-1.1-7.6-3.2
		c-0.4-0.5-0.9-1.1-1.4-1.6c-1.3-1.4-2.8-2.3-4.3-3.3c-1.1-0.7-2.3-1.4-3.3-2.3c-1-0.8-2.2-2.6-3.6-5.6c-0.1-0.1-0.1-0.3-0.1-0.4
		c-0.1-0.7-0.1-1.4,0.1-2.1c-0.2-0.1-0.5-0.2-0.7-0.3c-0.2-0.1-0.3-0.2-0.4-0.3c-0.2-0.2-0.6-0.3-1.1-0.4c-0.4-0.1-1-0.2-1.5-0.4
		c-0.4,0.8-1,1.4-2,1.6c-1.6,0.2-2.7-1.2-3.6-2.6c-0.7-1-1-1.8-1.2-2.4c-0.3-0.7-0.4-1.1-1.2-1.8c-1.4-1.3-2-1.2-3.3-1.1
		c-0.6,0.1-1.3,0.1-2.2,0.1c-1-0.1-2.2-0.4-3.3-0.8C4.5,9.5,3.8,9.3,3.1,9.2L3,61.6c1.5,0.6,2.6,1.6,3.5,2.6
		c0.4,0.5,0.9,0.9,1.3,1.2C8,65.2,8.2,65,8.5,64.9C8.8,64.7,9.4,64.3,10.7,64.3z M81.8,58C81.8,58,81.8,58,81.8,58
		C81.8,58,81.8,58,81.8,58z M83.3,57.8C83.3,57.8,83.3,57.8,83.3,57.8C83.3,57.8,83.3,57.8,83.3,57.8z M83.4,57.7L83.4,57.7
		L83.4,57.7z M85.4,57.3L85.4,57.3L85.4,57.3z M45.4,35.4C45.4,35.4,45.4,35.4,45.4,35.4C45.4,35.4,45.4,35.4,45.4,35.4z"/>
</g>
</svg>
