<?xml version="1.0" encoding="utf-8"?>
<!-- Generator: Adobe Illustrator 22.0.0, SVG Export Plug-In . SVG Version: 6.00 Build 0)  -->
<svg version="1.1" id="Layer_1" xmlns="http://www.w3.org/2000/svg" xmlns:xlink="http://www.w3.org/1999/xlink" x="0px" y="0px"
	 viewBox="0 0 100 83" style="enable-background:new 0 0 100 83;" xml:space="preserve">
<style type="text/css">
	.st0{fill:#FFFFFF;}
</style>
<g id="WA">
	<g>
		<g>
			<path class="st0" d="M36.8,82L36.8,82c-0.8-0.1-1.3-0.2-1.7-0.4l-0.3-0.1c-0.3,0-1.4,0-1.7,0.1c-0.3,0.2-0.6,0.2-0.9,0
				c-0.3-0.2-0.6-0.3-0.9-0.4c-0.5-0.2-1-0.4-1.5-0.8c-0.1-0.1-0.3-0.3-0.5-0.5c-0.6-0.7-1.1-1.1-1.3-1.2c-0.2,0.1-0.3,0.1-0.5,0.1
				c-0.3,0-0.5-0.2-0.7-0.4c-0.7-0.9-0.6-2.3-0.4-3.5c0-0.3,0.2-0.6,0.5-0.8c0.3-0.2,0.6-0.1,0.9,0c0.1,0,0.2,0.1,0.2,0.1
				c0.2-0.1,0.5-0.8,0.4-1.7c-0.1-1,0-1.6,0.2-2.2c0-0.2,0.1-0.4,0.1-0.6c0.3-1.5-0.4-3-1.1-4.5c-0.5-1-1-2-1.2-3.1
				c-0.2-0.7-0.1-1.4-0.1-2.1c0-0.7,0-1.5-0.2-2c-0.1-0.3-0.3-0.5-0.5-0.7c-0.2-0.3-0.5-0.6-0.7-1c-0.3-0.5-0.5-1-0.8-1.5L24,54.7
				L23.8,54c-0.4-0.7-0.4-1.4-0.5-2c0-0.4,0-0.7-0.2-1.1c-0.2-0.5-0.7-1.1-1.2-1.7c-0.5-0.5-0.9-1.1-1.2-1.7c-0.2-0.3-0.1-0.6,0-0.9
				c0.1-0.4,0.4-0.7,0.7-0.8c0.2,0,0.4,0,0.6,0v-0.1c0.1-0.3,0.3-0.5,0.6-0.6c0.3-0.1,0.6-0.1,0.9,0.1l0.1,0.1c0-0.1,0-0.1,0-0.1
				c-0.1-0.4-0.5-0.9-0.8-1.4c-0.2-0.3-0.4-0.6-0.5-0.8s-0.2-0.4-0.4-0.7c-0.3-0.6-0.7-1.2-0.9-2c-0.5-1.7-0.1-2.6,0.4-3.7
				c0.1-0.2,0.2-0.5,0.3-0.7c0.3-0.7,0.2-1,0.2-1.5c0-0.3-0.1-0.6-0.1-0.9c0-0.5,0.2-3,1.1-3.9l0.1-0.1c0.3-0.3,0.7-0.3,1.1-0.2
				c0.4,0.2,0.6,0.5,0.6,0.9c0,0,0,0,0,0.1c0.1-0.2,0.2-0.3,0.4-0.5c0.5-0.6,1.2-0.8,1.8-1c0.4-0.1,0.7-0.2,1-0.4
				c0.4-0.3,0.8-0.6,1.2-1c0.5-0.4,0.9-0.9,1.5-1.2c0.1,0,0.2-0.1,0.4-0.2c0.4-0.2,0.8-0.4,1.1-0.6c0.2-0.2,0.5-0.2,0.8-0.2H33
				c0.2-0.1,0.5-0.2,0.9-0.2c0.1,0,0.2,0.1,0.4,0.1s0.3,0.1,0.4,0.1c0.6,0,0.8,0,1.4-0.4c0.6-0.4,1.3-0.6,1.9-0.8
				c0.6-0.2,1.1-0.4,1.6-0.6c0.1-0.1,0.2-0.2,0.3-0.2c0.2-0.2,0.5-0.5,0.9-0.6c0.3-0.1,0.7,0,1,0.1c0.2,0,0.5,0.1,0.6,0.1
				c0.7,0,2-0.4,3.3-1c1.4-0.6,2-1.6,2.6-2.7c0.4-0.7,0.9-1.5,1.6-2.1c0.2-0.2,0.4-0.3,0.6-0.4c0,0,0.1-0.1,0.2-0.1
				c-0.1-0.1-0.2-0.3-0.2-0.5c0-0.1,0-0.2,0-0.3s0-0.1,0-0.2c-0.5-1.4,0.2-2.3,0.7-2.9c0.2-0.3,0.4-0.5,0.4-0.7
				c0-0.3,0.2-0.5,0.4-0.7c0.1-0.1,0.2-0.1,0.4-0.1c0-0.3,0.1-0.5,0.3-0.8c0.2-0.2,0.5-0.4,0.8-0.4s0.6,0,0.8,0.2s0.3,0.5,0.3,0.8
				s0.3,0.8,0.4,1c0.1,0.1,0.2,0.4,0.4,0.7c0-0.1,0.1-0.1,0.2-0.2c-0.1-0.2-0.3-0.4-0.3-0.4c-0.2-0.2-0.3-0.5-0.3-0.8
				c0-0.6,0.2-1.2,0.3-1.4c0.1-0.4,0.5-0.6,0.9-0.7c0.3,0,0.5,0.1,0.7,0.3c0.3-0.1,0.6-0.2,0.8-0.1c0.1,0,0.1,0.1,0.2,0.1
				C58,9.2,58.1,9.1,58.2,9l-0.1-0.1c-0.6-0.6-0.3-1.3-0.1-1.5c0.3-0.5,0.5-0.7,1-0.9l0.2-0.1c0.2-0.1,0.3-0.2,0.6-0.3
				c0.1-0.2,0.2-0.3,0.4-0.4l0,0c0.1-0.1,0.2-0.2,0.3-0.2s0.1-0.1,0.2-0.1c0-0.1,0-0.1,0-0.2c0-0.3,0.1-1.4,0.8-1.7
				c0.2-0.1,0.4-0.1,0.5,0c0,0,0,0,0.1,0c0.2-0.2,0.5-0.3,0.8-0.3c0,0,0,0,0.1,0s0.3,0,0.4,0c0.1-0.2,0.2-0.5,0.5-0.7
				s0.6-0.3,0.8-0.3c0.1-0.2,0.2-0.3,0.4-0.4c0.2-0.2,0.6-0.2,0.9-0.2c0,0,0,0,0.1,0c0-0.1,0-0.1,0-0.2c0.1-0.3,0.4-0.6,0.8-0.6
				c0.2-0.1,0.5-0.2,0.8-0.1s0.4,0.3,0.6,0.5l0,0c0.2,0,0.6,0,1,0.2c0.3,0.2,0.5,0.5,0.5,0.6c0.4,0.3,0.6,0.5,0.8,0.7
				c0.1,0.1,0.2,0.2,0.3,0.3c0,0,0.2,0.1,0.3,0.2c0.6,0.5,0.7,0.6,0.8,0.7C71.9,4,71.9,4,72,4.1c0,0.1,0.1,0.2,0.1,0.3
				c0.2-0.2,0.4-0.3,0.7-0.2c0.5,0,1.1,0.1,1.7,0.4C74.8,4.7,75,5.1,75,5.5l0.1,39.8v21.9c0,0.5-0.4,0.9-0.9,1
				c-0.6,0.1-1.6,0.6-2.3,1c-0.7,0.4-1.3,0.7-1.9,0.9c-1.5,0.5-2.8,0.7-4.2,0.6h-0.4c-0.8-0.1-0.8-0.1-1.6,0.3l-0.3,0.2
				c-0.9,0.5-1.8,1-2.8,1.5c-0.3,0.2-0.6,0.3-1,0.4s-0.8,0.3-1,0.4c-0.3,0.2-0.5,0.7-0.7,1.1s-0.5,0.9-0.8,1.4
				c-0.1,0.1-0.1,0.2-0.2,0.3c-0.3,0.6-0.7,1.1-2,1.2c-0.5,0-0.8-0.1-1.2-0.2c-0.3-0.1-0.6-0.2-1-0.1c-0.1,0-0.3,0.1-0.5,0.1
				c-0.7,0.2-1,0.3-1.3,0.3c-0.1,0-0.3-0.1-0.4-0.1c-0.2-0.1-0.4-0.3-0.5-0.5H50c-0.3,0-0.5,0.1-0.7,0c-1.3-0.2-2.4,0-3.7,0.2
				l-0.5,0.1c-0.3,0-0.6,0.1-0.9,0.1c-0.5,0-0.8,0-1.1,0.3c-0.1,0.1-0.2,0.3-0.3,0.5c-0.2,0.4-0.4,0.8-0.8,1.1
				c-0.6,0.4-1.2,0.3-1.4,0.2h-0.1c-0.4,0.2-2.8,1.7-3.1,2.2C37.5,81.8,37.1,82,36.8,82z M34,79.5c0.6,0,1.1,0.1,1.2,0.1l0.3,0.1
				c0.3,0.1,0.6,0.1,0.9,0.2c1.1-1.1,3.4-2.4,3.6-2.5c0.5-0.2,0.9-0.2,1.2-0.1c0-0.1,0.1-0.1,0.1-0.1c0.2-0.3,0.4-0.8,0.7-1.1
				c0.9-0.8,1.8-0.8,2.4-0.8c0.2,0,0.4,0,0.6,0l0.5-0.1c1.3-0.2,2.7-0.4,4.2-0.2c0,0,0,0,0.1,0c0.3-0.1,0.7-0.1,1,0s0.6,0.3,0.8,0.5
				c0.1,0,0.1,0,0.2-0.1c0.3-0.1,0.6-0.2,0.8-0.2c0.8-0.1,1.4,0.1,1.8,0.2c0.2,0.1,0.4,0.1,0.5,0.1c0.2,0,0.2,0,0.3,0v-0.1
				c0.1-0.2,0.2-0.4,0.5-0.7c0.2-0.2,0.4-0.6,0.5-0.9c0.3-0.6,0.6-1.3,1.3-1.8c0.5-0.4,1.1-0.6,1.6-0.8c0.3-0.1,0.5-0.2,0.7-0.3
				c0.9-0.4,1.8-0.9,2.7-1.4l0.3-0.2c1.1-0.6,1.5-0.7,2.6-0.6h0.4c1.2,0.1,2.2,0,3.5-0.5c0.4-0.1,0.9-0.4,1.5-0.7
				c0.7-0.4,1.5-0.8,2.2-1V45.4l0-38.8l0,0l-0.1,0.1c0,0-0.1,0-0.1,0.1c0,0,0,0-0.1,0.1c0,0.3-0.2,0.6-0.4,0.8
				c0,0.1-0.1,0.1-0.1,0.2c-0.2,0.3-0.4,0.5-0.7,0.5c-0.5,0.1-1.1-0.1-1.3-0.6c-0.1,0-0.1-0.1-0.2-0.1c-0.2-0.2-0.4-0.5-0.4-0.8
				s0.1-0.6,0.3-0.9c0-0.1,0.1-0.2,0.1-0.3l0,0c0-0.1,0-0.1,0-0.3c0-0.2,0-0.3,0-0.5c-0.1,0-0.1-0.1-0.2-0.1
				c-0.2-0.2-0.4-0.3-0.4-0.3c-0.1-0.1-0.3-0.3-0.4-0.4c-0.2-0.2-0.3-0.3-0.6-0.5c-0.2-0.1-0.3-0.3-0.4-0.4c-0.1,0-0.2,0-0.2,0
				c-0.1,0.1-0.2,0.1-0.3,0.1c-0.1,0-0.1,0-0.2,0.2C67,4,66.6,4.3,66.1,4.2c-0.2,0-0.3,0-0.4-0.1c-0.2,0-0.3,0.1-0.4,0.1
				c-0.1,0.2-0.1,0.4-0.3,0.6c-0.1,0.4-0.3,0.7-0.7,0.8c-0.3,0.1-0.7,0.1-1-0.1v0.1c0.1,0.2,0.2,0.5,0.1,0.8
				c-0.1,0.4-0.4,0.7-0.8,0.9h-0.1c0.1,0.2,0.1,0.5,0,0.8c-0.2,0.6-0.8,0.9-1.4,0.8c-0.1,0-0.2-0.1-0.3-0.1
				c-0.1,0.3-0.2,0.6-0.3,0.9l0,0l0,0c0.5,0.2,0.8,0.6,0.8,1.1c0,0.4-0.2,0.7-0.5,0.9s-0.7,0.3-1,0.2c-0.1,0-0.2,0-0.3-0.1
				c-0.2,0.2-0.4,0.4-0.7,0.4c-0.2,0-0.5,0-0.7-0.1c0,0,0,0,0,0.1c0,0.2,0,0.5-0.1,0.7c0,0.1,0,0.1,0,0.2c0.3,0.5,0.2,1-0.1,1.4
				c-0.2,0.3-0.6,0.5-1,0.4V15c0.1,0.3,0,0.6-0.2,0.9c-0.3,0.4-0.8,0.5-1.3,0.4c-0.4-0.1-0.7-0.4-0.8-0.8c-0.3-0.5-0.9-1.8-1.1-2.3
				c-0.1,0-0.1,0-0.2,0.1c-0.2,0.3-0.4,0.5-0.5,0.8c-0.4,0.5-0.5,0.6-0.3,1c0,0.1,0,0.2,0.1,0.2c0.5,0.3,0.6,0.7,0.7,1.1
				c0,1.2-1,1.8-1.5,2.1c-0.1,0.1-0.2,0.1-0.3,0.2c-0.5,0.4-0.8,0.9-1.2,1.6c-0.7,1.2-1.6,2.6-3.5,3.4c-0.6,0.3-2.6,1.1-4,1.2
				c-0.4,0-0.8-0.1-1.1-0.1c-0.1,0-0.1,0-0.2,0l0,0c-0.1,0.1-0.3,0.3-0.6,0.5c-0.7,0.4-1.4,0.6-2,0.8c-0.5,0.2-1,0.3-1.5,0.6
				c-0.9,0.5-1.4,0.7-2.5,0.7c-0.3,0-0.6-0.1-0.9-0.2c-0.2,0.1-0.6,0.2-1,0.2c-0.3,0.2-0.6,0.3-0.9,0.5C32,28,31.9,28,31.9,28
				c-0.4,0.2-0.7,0.6-1.2,1c-0.4,0.4-0.9,0.9-1.5,1.2c-0.5,0.3-1,0.5-1.4,0.6s-0.8,0.3-0.9,0.4c-0.2,0.3-0.3,0.5-0.4,0.8
				c-0.2,0.5-0.5,1.3-1.5,1.8c-0.2,0.1-0.5,0.1-0.7,0.1c0,0.1,0,0.2,0.1,0.3c0.1,0.7,0.2,1.4-0.3,2.6c-0.1,0.3-0.2,0.5-0.3,0.8
				c-0.5,1-0.6,1.3-0.3,2.3c0.2,0.6,0.5,1.1,0.8,1.6c0.1,0.2,0.3,0.5,0.4,0.7s0.3,0.5,0.4,0.7c0.4,0.7,0.8,1.4,1,2.1
				c0.1,0.3,0,2.4-0.7,3c-0.3,0.2-0.5,0.3-0.8,0.4c-0.1,0.2-0.1,0.3-0.2,0.4c0.4,0.5,0.8,1,1,1.6s0.3,1.2,0.3,1.7s0,0.8,0.2,1.1
				l0.3,0.6L25,54.2l0.9-0.5c0.3,0.5,0.6,1.1,0.9,1.7c0.1,0.2,0.2,0.4,0.4,0.6c0.3,0.3,0.5,0.7,0.8,1.2c0.4,0.9,0.3,1.9,0.3,2.8
				c0,0.6,0,1.2,0.1,1.6c0.2,0.9,0.6,1.8,1.1,2.7c0.8,1.7,1.7,3.6,1.3,5.7c0,0.3-0.1,0.5-0.1,0.7c-0.1,0.6-0.2,1-0.1,1.7
				c0.1,1.2-0.3,2.9-1.4,3.5c-0.2,0.1-0.5,0.2-0.8,0.3c0,0.2,0,0.3,0,0.4c0.9,0.1,1.7,1,2.6,1.9c0.1,0.1,0.2,0.3,0.3,0.3
				c0.2,0.2,0.6,0.3,0.9,0.5c0.2,0.1,0.5,0.2,0.7,0.3C33.1,79.6,33.6,79.5,34,79.5z M28.2,78.5L28.2,78.5L28.2,78.5z M51.2,75.4
				L51.2,75.4L51.2,75.4z M74.2,67.2L74.2,67.2L74.2,67.2z M20.7,47L20.7,47L20.7,47z M21.1,46.3L21.1,46.3L21.1,46.3z M33.6,25.6
				L33.6,25.6L33.6,25.6z M57,13L57,13L57,13z M61.1,8.5C61.2,8.5,61.2,8.5,61.1,8.5C61.2,8.5,61.2,8.5,61.1,8.5z M60.3,5.7
				L60.3,5.7L60.3,5.7z M60.4,5.6L60.4,5.6L60.4,5.6z M61.7,5.1L61.7,5.1C61.6,5.1,61.6,5.1,61.7,5.1L61.7,5.1z M61.1,5.1L61.1,5.1
				L61.1,5.1z M72.5,4.9L72.5,4.9L72.5,4.9z M72.8,4.7L72.8,4.7L72.8,4.7z M61.4,4L61.4,4L61.4,4z M63.7,3.8L63.7,3.8L63.7,3.8z
				 M64.6,3.2L64.6,3.2L64.6,3.2z M66.7,2.7C66.7,2.7,66.7,2.8,66.7,2.7C66.7,2.8,66.7,2.7,66.7,2.7z M69.6,1.9L69.6,1.9L69.6,1.9z"
				/>
		</g>
	</g>
</g>
</svg>
