<svg width="42" height="42" viewBox="0 0 42 42" fill="none" xmlns="http://www.w3.org/2000/svg">
<path fill-rule="evenodd" clip-rule="evenodd" d="M6.67114 1.50308C6.67114 0.746301 7.28463 0.132812 8.04141 0.132812H33.0672C33.824 0.132812 34.4375 0.746301 34.4375 1.50308V15.2057C34.4375 15.9625 33.824 16.576 33.0672 16.576C32.3105 16.576 31.697 15.9625 31.697 15.2057V2.87334H9.41167V15.2057C9.41167 15.9625 8.79818 16.576 8.04141 16.576C7.28463 16.576 6.67114 15.9625 6.67114 15.2057V1.50308Z" fill="white"/>
<path fill-rule="evenodd" clip-rule="evenodd" d="M31.9418 9.41656C32.3736 8.79511 33.2275 8.64141 33.849 9.07326L39.4664 12.9769C39.9744 13.3342 40.3898 13.8077 40.6777 14.3581C40.9658 14.9088 41.1178 15.5201 41.1216 16.1409L41.1216 16.1493L41.1216 38.1997C41.1216 39.0062 40.8013 39.7798 40.2309 40.3503C39.6604 40.9207 38.8868 41.241 38.0803 41.241H3.04151C2.23498 41.241 1.46136 40.9207 0.890923 40.3503C0.320735 39.7801 0 39.0066 0 38.1997V16.1343C0.00672614 15.52 0.156267 14.9159 0.436163 14.3696L0.448299 14.3465C0.738016 13.8066 1.14767 13.3404 1.64591 12.9836L1.66034 12.9733L7.25792 9.07415C7.87888 8.64159 8.73294 8.79432 9.1655 9.41528C9.59807 10.0362 9.44534 10.8903 8.82438 11.3229L3.23546 15.2161C3.08432 15.3256 2.95932 15.4672 2.86934 15.6308C2.78746 15.7949 2.74345 15.9752 2.74053 16.1582V38.1997C2.74053 38.2792 2.77217 38.3558 2.82877 38.4124C2.88512 38.4688 2.96163 38.5005 3.04151 38.5005H38.0803C38.1601 38.5005 38.2366 38.4688 38.293 38.4124C38.3493 38.3561 38.3811 38.2796 38.3811 38.1997V16.1545C38.3794 15.9709 38.3343 15.7906 38.2495 15.6285C38.1645 15.4661 38.0421 15.3262 37.8924 15.2203C37.8915 15.2198 37.8907 15.2192 37.8899 15.2186L32.2851 11.3238C31.6636 10.8919 31.5099 10.038 31.9418 9.41656Z" fill="white"/>
<path fill-rule="evenodd" clip-rule="evenodd" d="M19.1815 27.42C19.6115 28.0427 19.4552 28.8961 18.8325 29.3261L2.6377 40.5076C2.01494 40.9376 1.16153 40.7813 0.731552 40.1585C0.301575 39.5358 0.457858 38.6823 1.08062 38.2524L17.2754 27.0709C17.8982 26.6409 18.7516 26.7972 19.1815 27.42Z" fill="white"/>
<path fill-rule="evenodd" clip-rule="evenodd" d="M21.9261 27.42C22.3561 26.7972 23.2095 26.6409 23.8323 27.0709L40.0271 38.2524C40.6498 38.6823 40.8061 39.5358 40.3761 40.1585C39.9462 40.7813 39.0927 40.9376 38.47 40.5076L22.2752 29.3261C21.6524 28.8961 21.4962 28.0427 21.9261 27.42Z" fill="white"/>
<path fill-rule="evenodd" clip-rule="evenodd" d="M0.588482 14.1359C1.06314 13.5465 1.92574 13.4534 2.51516 13.9281L18.5374 26.8309H22.5709L38.5931 13.9281C39.1826 13.4534 40.0452 13.5465 40.5198 14.1359C40.9945 14.7253 40.9014 15.5879 40.312 16.0625L23.9135 29.2684C23.6699 29.4645 23.3667 29.5714 23.054 29.5714H18.0543C17.7416 29.5714 17.4384 29.4645 17.1948 29.2684L0.796269 16.0625C0.206854 15.5879 0.113824 14.7253 0.588482 14.1359Z" fill="white"/>
<path fill-rule="evenodd" clip-rule="evenodd" d="M20.0972 6.98355C20.0972 6.22677 20.7107 5.61328 21.4674 5.61328L28.7755 5.61328C29.5323 5.61328 30.1458 6.22677 30.1458 6.98355C30.1458 7.74032 29.5323 8.35381 28.7755 8.35381L21.4674 8.35381C20.7107 8.35381 20.0972 7.74032 20.0972 6.98355Z" fill="white"/>
<path fill-rule="evenodd" clip-rule="evenodd" d="M20.0972 10.6398C20.0972 9.88302 20.7107 9.26953 21.4674 9.26953L28.7755 9.26953C29.5323 9.26953 30.1458 9.88302 30.1458 10.6398C30.1458 11.3966 29.5323 12.0101 28.7755 12.0101L21.4674 12.0101C20.7107 12.0101 20.0972 11.3966 20.0972 10.6398Z" fill="white"/>
<path fill-rule="evenodd" clip-rule="evenodd" d="M20.0972 14.2921C20.0972 13.5354 20.7107 12.9219 21.4674 12.9219L28.7755 12.9219C29.5323 12.9219 30.1458 13.5354 30.1458 14.2921C30.1458 15.0489 29.5323 15.6624 28.7755 15.6624L21.4674 15.6624C20.7107 15.6624 20.0972 15.0489 20.0972 14.2921Z" fill="white"/>
<path fill-rule="evenodd" clip-rule="evenodd" d="M20.0972 17.9484C20.0972 17.1916 20.7107 16.5781 21.4674 16.5781L28.7755 16.5781C29.5323 16.5781 30.1458 17.1916 30.1458 17.9484C30.1458 18.7052 29.5323 19.3187 28.7755 19.3187L21.4674 19.3187C20.7107 19.3187 20.0972 18.7052 20.0972 17.9484Z" fill="white"/>
<path fill-rule="evenodd" clip-rule="evenodd" d="M20.0972 21.6007C20.0972 20.844 20.7107 20.2305 21.4674 20.2305L25.1215 20.2305C25.8783 20.2305 26.4917 20.844 26.4917 21.6007C26.4917 22.3575 25.8783 22.971 25.1215 22.971L21.4674 22.971C20.7107 22.971 20.0972 22.3575 20.0972 21.6007Z" fill="white"/>
<path fill-rule="evenodd" clip-rule="evenodd" d="M10.9622 5.15933C10.9622 4.40255 11.5756 3.78906 12.3324 3.78906H17.8135C18.5703 3.78906 19.1838 4.40255 19.1838 5.15933V8.81337C19.1838 9.57015 18.5703 10.1836 17.8135 10.1836H12.3324C11.5756 10.1836 10.9622 9.57015 10.9622 8.81337V5.15933ZM13.7027 6.52959V7.4431H16.4432V6.52959H13.7027Z" fill="white"/>
<path fill-rule="evenodd" clip-rule="evenodd" d="M10.9622 12.464C10.9622 11.7072 11.5756 11.0938 12.3324 11.0938H17.8135C18.5703 11.0938 19.1838 11.7072 19.1838 12.464V16.1181C19.1838 16.8748 18.5703 17.4883 17.8135 17.4883H12.3324C11.5756 17.4883 10.9622 16.8748 10.9622 16.1181V12.464ZM13.7027 13.8343V14.7478H16.4432V13.8343H13.7027Z" fill="white"/>
<path fill-rule="evenodd" clip-rule="evenodd" d="M10.9622 19.7726C10.9622 19.0158 11.5756 18.4023 12.3324 18.4023H17.8135C18.5703 18.4023 19.1838 19.0158 19.1838 19.7726V23.4267C19.1838 24.1834 18.5703 24.7969 17.8135 24.7969C17.0567 24.7969 16.4432 24.1834 16.4432 23.4267V21.1429H12.3324C11.5756 21.1429 10.9622 20.5294 10.9622 19.7726Z" fill="white"/>
</svg>
