<svg id="Layer_1" data-name="Layer 1" xmlns="http://www.w3.org/2000/svg" viewBox="0 0 96.35 41.96">
  <defs>
    <style>.cls-1{fill:#000;fill-opacity:0.8;}.cls-2{fill:#fff;}</style>
  </defs>
  <title>contact</title>
  <rect class="cls-1" width="96.35" height="25.29" rx="7.45" ry="7.45"/>
  <path class="cls-2" d="M219,238.63a4.14,4.14,0,0,1,6,.38,3.22,3.22,0,0,1,.61,1.66h-1.86a2.55,2.55,0,0,0-.46-1,2,2,0,0,0-3,.24,4,4,0,0,0-.57,2.32,3.53,3.53,0,0,0,.6,2.25,1.9,1.9,0,0,0,1.54.75,1.74,1.74,0,0,0,1.46-.64,2.83,2.83,0,0,0,.46-1h1.85a4,4,0,0,1-1.22,2.37,3.55,3.55,0,0,1-2.52.91,3.77,3.77,0,0,1-3-1.23,5.87,5.87,0,0,1,.15-7Z" transform="translate(-202.32 -229.37)"/>
  <path class="cls-2" d="M232.47,245.82a3.62,3.62,0,0,1-5.06,0,4.1,4.1,0,0,1,0-5,3.58,3.58,0,0,1,5.06,0,4.1,4.1,0,0,1,0,5Zm-1.38-1a3.09,3.09,0,0,0,0-3.06,1.53,1.53,0,0,0-2.32,0,3.07,3.07,0,0,0,0,3.06,1.52,1.52,0,0,0,2.32,0Z" transform="translate(-202.32 -229.37)"/>
  <path class="cls-2" d="M239.84,240.4a2.19,2.19,0,0,1,.65,1.78v4.44h-1.76v-4a1.85,1.85,0,0,0-.14-.8,1,1,0,0,0-1-.51,1.19,1.19,0,0,0-1.19.74,2.57,2.57,0,0,0-.17,1v3.57h-1.72V240h1.67v1a2.93,2.93,0,0,1,.63-.73,2.16,2.16,0,0,1,1.34-.4A2.52,2.52,0,0,1,239.84,240.4Z" transform="translate(-202.32 -229.37)"/>
  <path class="cls-2" d="M241.41,241.31v-1.23h.92v-1.84H244v1.84h1.07v1.23H244v3.49a.79.79,0,0,0,.1.51,1.13,1.13,0,0,0,.63.1h.34v1.29l-.81,0a2.18,2.18,0,0,1-1.67-.42,1.26,1.26,0,0,1-.29-.91v-4.06Z" transform="translate(-202.32 -229.37)"/>
  <path class="cls-2" d="M248.8,242.61a2.72,2.72,0,0,0,.69-.15.52.52,0,0,0,.37-.49.58.58,0,0,0-.28-.56,1.8,1.8,0,0,0-.84-.15,1.1,1.1,0,0,0-.87.3,1.25,1.25,0,0,0-.24.61H246a2.53,2.53,0,0,1,.49-1.42,2.82,2.82,0,0,1,2.35-.87,4.18,4.18,0,0,1,1.93.43,1.65,1.65,0,0,1,.84,1.62v3q0,.31,0,.76a1,1,0,0,0,.1.46.61.61,0,0,0,.25.2v.25h-1.87a1.86,1.86,0,0,1-.11-.38c0-.12,0-.25,0-.4a3.53,3.53,0,0,1-.83.66,2.49,2.49,0,0,1-1.26.32,2.18,2.18,0,0,1-1.48-.51,1.82,1.82,0,0,1-.59-1.45,1.88,1.88,0,0,1,.94-1.76,4.21,4.21,0,0,1,1.52-.42Zm1.05.8a1.87,1.87,0,0,1-.33.17,2.77,2.77,0,0,1-.46.12l-.39.07a2.57,2.57,0,0,0-.79.24.79.79,0,0,0-.41.73.77.77,0,0,0,.25.64.94.94,0,0,0,.6.2,1.79,1.79,0,0,0,1-.33,1.39,1.39,0,0,0,.49-1.19Z" transform="translate(-202.32 -229.37)"/>
  <path class="cls-2" d="M257,242.39a1.54,1.54,0,0,0-.25-.67,1,1,0,0,0-.9-.4,1.19,1.19,0,0,0-1.19.87,3.62,3.62,0,0,0-.17,1.22,3.33,3.33,0,0,0,.17,1.17,1.15,1.15,0,0,0,1.16.82,1,1,0,0,0,.86-.33,1.64,1.64,0,0,0,.31-.85h1.76a2.89,2.89,0,0,1-.57,1.49,2.76,2.76,0,0,1-2.4,1.13,2.8,2.8,0,0,1-2.34-.94,3.82,3.82,0,0,1-.75-2.45,3.88,3.88,0,0,1,.83-2.64,2.88,2.88,0,0,1,2.28-.94,3.43,3.43,0,0,1,2,.56,2.59,2.59,0,0,1,.93,2Z" transform="translate(-202.32 -229.37)"/>
  <path class="cls-2" d="M259.27,241.31v-1.23h.92v-1.84h1.7v1.84H263v1.23h-1.07v3.49a.79.79,0,0,0,.1.51,1.13,1.13,0,0,0,.63.1H263v1.29l-.81,0a2.18,2.18,0,0,1-1.67-.42,1.26,1.26,0,0,1-.29-.91v-4.06Z" transform="translate(-202.32 -229.37)"/>
  <path class="cls-2" d="M267.64,237.7h1.89v5.48a3.11,3.11,0,0,0,.22,1.34,1.8,1.8,0,0,0,2.93,0,3.11,3.11,0,0,0,.22-1.34V237.7h1.89v5.48a4.62,4.62,0,0,1-.44,2.22,4.1,4.1,0,0,1-6.26,0,4.6,4.6,0,0,1-.44-2.22Z" transform="translate(-202.32 -229.37)"/>
  <path class="cls-2" d="M277.76,244.52a1.15,1.15,0,0,0,.24.65,1.6,1.6,0,0,0,1.19.34,1.81,1.81,0,0,0,.81-.15.48.48,0,0,0,.3-.45.49.49,0,0,0-.24-.44,9.84,9.84,0,0,0-1.8-.52,3.74,3.74,0,0,1-1.58-.7,1.51,1.51,0,0,1-.46-1.19,2.06,2.06,0,0,1,.72-1.57,2.88,2.88,0,0,1,2-.66,3.7,3.7,0,0,1,2,.49,2.11,2.11,0,0,1,.89,1.7h-1.72a1,1,0,0,0-.19-.53,1.18,1.18,0,0,0-1-.35,1.39,1.39,0,0,0-.8.18.51.51,0,0,0-.24.41.45.45,0,0,0,.25.43,10.93,10.93,0,0,0,1.8.48,3.29,3.29,0,0,1,1.54.73,1.67,1.67,0,0,1,.51,1.24,2,2,0,0,1-.73,1.6,4.37,4.37,0,0,1-4.55,0,2.14,2.14,0,0,1-.74-1.67Z" transform="translate(-202.32 -229.37)"/>
  <path class="cls-2" d="M204.58,269.76a4,4,0,0,1,1.41-1.5,10.44,10.44,0,0,0,1.25-1,1.47,1.47,0,0,0,.43-1,1.13,1.13,0,0,0-.25-.75,1,1,0,0,0-1.58.18,2.37,2.37,0,0,0-.16.87h-1.35a3.42,3.42,0,0,1,.33-1.46,2,2,0,0,1,2-1.06,2.51,2.51,0,0,1,1.79.63,2.16,2.16,0,0,1,.67,1.65,2.24,2.24,0,0,1-.47,1.4,4.66,4.66,0,0,1-1,.91l-.56.4q-.52.37-.72.54a1.57,1.57,0,0,0-.33.39h3.09v1.23h-4.85A3.34,3.34,0,0,1,204.58,269.76Z" transform="translate(-202.32 -229.37)"/>
  <path class="cls-2" d="M210.87,269a1.6,1.6,0,0,0,.14.71.93.93,0,0,0,.92.51,1,1,0,0,0,.71-.28,1,1,0,0,0,.3-.81.91.91,0,0,0-.57-.94,2.83,2.83,0,0,0-1-.13v-1a2.61,2.61,0,0,0,.94-.13.82.82,0,0,0,.46-.83.94.94,0,0,0-.24-.66.86.86,0,0,0-.67-.25.84.84,0,0,0-.72.31,1.34,1.34,0,0,0-.22.84h-1.3a3.5,3.5,0,0,1,.18-1,2.27,2.27,0,0,1,.54-.77,1.87,1.87,0,0,1,.65-.38,2.81,2.81,0,0,1,.92-.13,2.44,2.44,0,0,1,1.64.53,1.76,1.76,0,0,1,.62,1.41,1.57,1.57,0,0,1-.37,1.06,1.27,1.27,0,0,1-.49.37,1,1,0,0,1,.55.33,1.76,1.76,0,0,1,.53,1.35,2.28,2.28,0,0,1-.62,1.58,2.37,2.37,0,0,1-1.84.68,2.23,2.23,0,0,1-2.09-1,2.93,2.93,0,0,1-.34-1.37Z" transform="translate(-202.32 -229.37)"/>
  <path class="cls-2" d="M219.2,265a7,7,0,0,1,0,5.42,2.37,2.37,0,0,1-3.8,0,7,7,0,0,1,0-5.42,2.36,2.36,0,0,1,3.8,0Zm-2.72,4.59a.81.81,0,0,0,.82.65.8.8,0,0,0,.81-.65,6.94,6.94,0,0,0,.19-1.87,6.87,6.87,0,0,0-.19-1.9.79.79,0,0,0-.81-.62.8.8,0,0,0-.82.62,6.63,6.63,0,0,0-.2,1.9A6.7,6.7,0,0,0,216.48,269.54Z" transform="translate(-202.32 -229.37)"/>
  <path class="cls-2" d="M224.82,263.93h1.7l2.55,7.22h-1.63l-.47-1.48h-2.65l-.49,1.48h-1.57Zm-.1,4.49h1.84l-.91-2.84Z" transform="translate(-202.32 -229.37)"/>
  <path class="cls-2" d="M233.91,266.12a1.77,1.77,0,0,1,.52,1.44v3.6H233v-3.25a1.49,1.49,0,0,0-.11-.65.78.78,0,0,0-.78-.41,1,1,0,0,0-1,.6,2.09,2.09,0,0,0-.14.81v2.89h-1.39v-5.33H231v.78a2.37,2.37,0,0,1,.51-.59,1.75,1.75,0,0,1,1.08-.32A2,2,0,0,1,233.91,266.12Z" transform="translate(-202.32 -229.37)"/>
  <path class="cls-2" d="M238.29,265.9a1.69,1.69,0,0,1,.61.59v-2.55h1.41v7.21H239v-.74a2,2,0,0,1-.68.69,1.9,1.9,0,0,1-.95.22,2,2,0,0,1-1.57-.76,2.91,2.91,0,0,1-.64-1.94,3.35,3.35,0,0,1,.63-2.15,2,2,0,0,1,1.68-.78A1.72,1.72,0,0,1,238.29,265.9Zm.34,3.8a2,2,0,0,0,.31-1.14,1.75,1.75,0,0,0-.49-1.4,1.06,1.06,0,0,0-.7-.25,1,1,0,0,0-.9.46,2.5,2.5,0,0,0,0,2.33,1,1,0,0,0,.88.44A1,1,0,0,0,238.63,269.7Z" transform="translate(-202.32 -229.37)"/>
  <path class="cls-2" d="M244.79,265.92a2.17,2.17,0,0,1,.92.79,2.63,2.63,0,0,1,.42,1.1,6.77,6.77,0,0,1,0,1.06H242.3a1.28,1.28,0,0,0,.56,1.13,1.41,1.41,0,0,0,.77.2,1.08,1.08,0,0,0,1.06-.61h1.42a1.75,1.75,0,0,1-.52,1,2.58,2.58,0,0,1-2,.78,2.9,2.9,0,0,1-1.88-.66,2.59,2.59,0,0,1-.81-2.14,2.9,2.9,0,0,1,.73-2.13,2.57,2.57,0,0,1,1.9-.74A3,3,0,0,1,244.79,265.92Zm-2.08,1.21a1.45,1.45,0,0,0-.37.83h2.4a1.16,1.16,0,0,0-.37-.84,1.21,1.21,0,0,0-.83-.29A1.1,1.1,0,0,0,242.71,267.13Z" transform="translate(-202.32 -229.37)"/>
  <path class="cls-2" d="M249.58,265.69h.12v1.43l-.23,0h-.17a1.15,1.15,0,0,0-1.13.55,2.14,2.14,0,0,0-.16,1v2.55h-1.4v-5.34h1.33v.93a3,3,0,0,1,.56-.73,1.53,1.53,0,0,1,1-.33Z" transform="translate(-202.32 -229.37)"/>
  <path class="cls-2" d="M251.34,269.45a.93.93,0,0,0,.19.53,1.29,1.29,0,0,0,1,.28,1.46,1.46,0,0,0,.66-.12.39.39,0,0,0,.24-.37.4.4,0,0,0-.2-.36,8,8,0,0,0-1.46-.42,3,3,0,0,1-1.28-.56,1.23,1.23,0,0,1-.37-1,1.67,1.67,0,0,1,.58-1.27,2.33,2.33,0,0,1,1.63-.53,3,3,0,0,1,1.63.4,1.71,1.71,0,0,1,.72,1.38h-1.39a.82.82,0,0,0-.15-.43,1,1,0,0,0-.78-.28,1.13,1.13,0,0,0-.65.14.41.41,0,0,0-.19.33.37.37,0,0,0,.21.35,8.84,8.84,0,0,0,1.45.39,2.66,2.66,0,0,1,1.25.59,1.34,1.34,0,0,1,.41,1,1.62,1.62,0,0,1-.59,1.3,3.53,3.53,0,0,1-3.68,0,1.73,1.73,0,0,1-.6-1.35Z" transform="translate(-202.32 -229.37)"/>
  <path class="cls-2" d="M260,270.5a2.93,2.93,0,0,1-4.09,0,3.32,3.32,0,0,1,0-4,2.9,2.9,0,0,1,4.09,0,3.32,3.32,0,0,1,0,4Zm-1.11-.77a2.5,2.5,0,0,0,0-2.47,1.24,1.24,0,0,0-1.88,0,2.48,2.48,0,0,0,0,2.47,1.23,1.23,0,0,0,1.88,0Z" transform="translate(-202.32 -229.37)"/>
  <path class="cls-2" d="M265.71,266.12a1.77,1.77,0,0,1,.52,1.44v3.6H264.8v-3.25a1.49,1.49,0,0,0-.11-.65.78.78,0,0,0-.78-.41,1,1,0,0,0-1,.6,2.09,2.09,0,0,0-.14.81v2.89h-1.39v-5.33h1.35v.78a2.37,2.37,0,0,1,.51-.59,1.75,1.75,0,0,1,1.08-.32A2,2,0,0,1,265.71,266.12Z" transform="translate(-202.32 -229.37)"/>
  <path class="cls-2" d="M271,268.92a1.47,1.47,0,0,0,.27.74,1.6,1.6,0,0,0,1.28.45,2.76,2.76,0,0,0,.88-.12.84.84,0,0,0,.64-.84.62.62,0,0,0-.32-.55,3.42,3.42,0,0,0-1-.34l-.78-.17a4.82,4.82,0,0,1-1.58-.55,1.76,1.76,0,0,1-.73-1.56,2.08,2.08,0,0,1,.71-1.61,3,3,0,0,1,2.09-.64,3.2,3.2,0,0,1,2,.61,2.15,2.15,0,0,1,.85,1.76h-1.45a1,1,0,0,0-.58-.93,2,2,0,0,0-.9-.18,1.7,1.7,0,0,0-1,.24.74.74,0,0,0-.36.66.62.62,0,0,0,.35.58,4.34,4.34,0,0,0,1,.3l1.26.3a3.21,3.21,0,0,1,1.25.52,1.77,1.77,0,0,1,.64,1.47,2.07,2.07,0,0,1-.76,1.64,3.22,3.22,0,0,1-2.16.65,3.52,3.52,0,0,1-2.24-.64,2.13,2.13,0,0,1-.81-1.77Z" transform="translate(-202.32 -229.37)"/>
  <path class="cls-2" d="M275.65,266.86v-1h.74v-1.49h1.38v1.49h.87v1h-.87v2.82a.64.64,0,0,0,.08.41.91.91,0,0,0,.51.08h.27v1l-.66,0a1.76,1.76,0,0,1-1.35-.34,1,1,0,0,1-.24-.74v-3.29Z" transform="translate(-202.32 -229.37)"/>
  <path class="cls-2" d="M282.23,265.69h.12v1.43l-.23,0h-.17a1.15,1.15,0,0,0-1.13.55,2.14,2.14,0,0,0-.16,1v2.55h-1.4v-5.34h1.33v.93a3,3,0,0,1,.56-.73,1.53,1.53,0,0,1,1-.33Z" transform="translate(-202.32 -229.37)"/>
  <path class="cls-2" d="M286.37,265.92a2.17,2.17,0,0,1,.92.79,2.63,2.63,0,0,1,.42,1.1,6.77,6.77,0,0,1,0,1.06h-3.88a1.28,1.28,0,0,0,.56,1.13,1.41,1.41,0,0,0,.77.2,1.08,1.08,0,0,0,1.06-.61h1.42a1.75,1.75,0,0,1-.52,1,2.58,2.58,0,0,1-2,.78,2.9,2.9,0,0,1-1.88-.66,2.59,2.59,0,0,1-.81-2.14,2.9,2.9,0,0,1,.73-2.13,2.57,2.57,0,0,1,1.9-.74A3,3,0,0,1,286.37,265.92Zm-2.08,1.21a1.45,1.45,0,0,0-.37.83h2.4a1.16,1.16,0,0,0-.37-.84,1.21,1.21,0,0,0-.83-.29A1.1,1.1,0,0,0,284.29,267.13Z" transform="translate(-202.32 -229.37)"/>
  <path class="cls-2" d="M291.68,265.92a2.17,2.17,0,0,1,.92.79,2.63,2.63,0,0,1,.42,1.1,6.77,6.77,0,0,1,0,1.06h-3.88a1.28,1.28,0,0,0,.56,1.13,1.41,1.41,0,0,0,.77.2,1.08,1.08,0,0,0,1.06-.61H293a1.75,1.75,0,0,1-.52,1,2.58,2.58,0,0,1-2,.78,2.9,2.9,0,0,1-1.88-.66,2.59,2.59,0,0,1-.81-2.14,2.9,2.9,0,0,1,.73-2.13,2.57,2.57,0,0,1,1.9-.74A3,3,0,0,1,291.68,265.92Zm-2.08,1.21a1.45,1.45,0,0,0-.37.83h2.4a1.16,1.16,0,0,0-.37-.84,1.21,1.21,0,0,0-.83-.29A1.1,1.1,0,0,0,289.59,267.13Z" transform="translate(-202.32 -229.37)"/>
  <path class="cls-2" d="M293,266.86v-1h.74v-1.49h1.38v1.49h.87v1h-.87v2.82a.64.64,0,0,0,.08.41.91.91,0,0,0,.51.08h.27v1l-.66,0a1.76,1.76,0,0,1-1.35-.34,1,1,0,0,1-.24-.74v-3.29Z" transform="translate(-202.32 -229.37)"/>
</svg>
