<svg id="Layer_1" data-name="Layer 1" xmlns="http://www.w3.org/2000/svg" viewBox="0 0 43.65 41.36">
  <defs>
    <style>.cls-1{fill:#fff;}</style>
  </defs>
  <title>open</title>
  <path class="cls-1" d="M234.35,248.34l9.38-13.29a3,3,0,0,0,5.1-1.17l13.51,9.38.31-.45-13.7-9.51a3,3,0,1,0-6-.32,3,3,0,0,0,.47,1.62L233.9,248Z" transform="translate(-228.75 -229.96)"/>
  <path class="cls-1" d="M247.84,256c-.34-1.82-1.21-2.47-2.34-2.26l-.09,0,1,5.21h0c1.07-.27,1.76-1.18,1.43-2.92Z" transform="translate(-228.75 -229.96)"/>
  <path class="cls-1" d="M239.75,259.43c-.69-3.69-1.42-4.61-2.2-4.47s-1.13,1.27-.43,5l.14.74c.69,3.69,1.42,4.61,2.2,4.47s1.13-1.27.43-5Z" transform="translate(-228.75 -229.96)"/>
  <path class="cls-1" d="M272.35,261.17l-2.62-14.24a3.19,3.19,0,0,0-3.71-2.56l-34.66,6.38a3.19,3.19,0,0,0-2.56,3.71l2.62,14.24a3.19,3.19,0,0,0,3.71,2.56l34.66-6.38A3.19,3.19,0,0,0,272.35,261.17Zm-32.46,6.25c-2.36.44-4.38-1.53-5.27-6.27l-.14-.74c-.89-4.73.28-7.31,2.64-7.75s4.38,1.53,5.27,6.27l.14.74C243.42,264.41,242.25,267,239.89,267.43Zm7-6.19h0l.85,4.51-2.59.49-2.7-14.35,2.32-.44c2.83-.53,5.08.57,5.71,3.93v0C251,258.67,249.45,260.56,246.85,261.24Zm6.42,3.46-2.7-14.35,5.7-1.07.45,2.38-3.1.58.67,3.57,2.74-.52.45,2.38-2.74.52.69,3.65,3.17-.6.45,2.38Zm12.28-2.31-4.17-7.09,1.43,7.6-2.53.48L257.58,249l2.42-.46,4,6.76-1.36-7.26,2.53-.48,2.7,14.35Z" transform="translate(-228.75 -229.96)"/>
</svg>
