<svg width="46" height="46" viewBox="0 0 46 46" fill="none" xmlns="http://www.w3.org/2000/svg">
<g clip-path="url(#clip0_368_3656)">
<path fill-rule="evenodd" clip-rule="evenodd" d="M0.478516 7.66667C0.478516 5.81421 1.98023 4.3125 3.83268 4.3125H42.166C44.0185 4.3125 45.5202 5.81421 45.5202 7.66667V42.1667C45.5202 44.0191 44.0185 45.5208 42.166 45.5208H3.83268C1.98023 45.5208 0.478516 44.0191 0.478516 42.1667V7.66667ZM3.83268 7.1875C3.56805 7.1875 3.35352 7.40203 3.35352 7.66667V42.1667C3.35352 42.4313 3.56805 42.6458 3.83268 42.6458H42.166C42.4307 42.6458 42.6452 42.4313 42.6452 42.1667V7.66667C42.6452 7.40203 42.4307 7.1875 42.166 7.1875H3.83268Z" fill="#66408D"/>
<path fill-rule="evenodd" clip-rule="evenodd" d="M13.416 0.479492C14.2099 0.479492 14.8535 1.12308 14.8535 1.91699V9.58366C14.8535 10.3776 14.2099 11.0212 13.416 11.0212C12.6221 11.0212 11.9785 10.3776 11.9785 9.58366V1.91699C11.9785 1.12308 12.6221 0.479492 13.416 0.479492ZM32.5827 0.479492C33.3766 0.479492 34.0202 1.12308 34.0202 1.91699V9.58366C34.0202 10.3776 33.3766 11.0212 32.5827 11.0212C31.7888 11.0212 31.1452 10.3776 31.1452 9.58366V1.91699C31.1452 1.12308 31.7888 0.479492 32.5827 0.479492ZM0.478516 13.417C0.478516 12.6231 1.12211 11.9795 1.91602 11.9795H44.0827C44.8766 11.9795 45.5202 12.6231 45.5202 13.417C45.5202 14.2109 44.8766 14.8545 44.0827 14.8545H1.91602C1.12211 14.8545 0.478516 14.2109 0.478516 13.417Z" fill="#66408D"/>
<path fill-rule="evenodd" clip-rule="evenodd" d="M17.7285 21.0837C17.7285 19.2312 19.2302 17.7295 21.0827 17.7295H24.916C26.7685 17.7295 28.2702 19.2312 28.2702 21.0837V24.917C28.2702 26.7694 26.7685 28.2712 24.916 28.2712H21.0827C19.2302 28.2712 17.7285 26.7694 17.7285 24.917V21.0837ZM21.0827 20.6045C20.818 20.6045 20.6035 20.819 20.6035 21.0837V24.917C20.6035 25.1816 20.818 25.3962 21.0827 25.3962H24.916C25.1807 25.3962 25.3952 25.1816 25.3952 24.917V21.0837C25.3952 20.819 25.1807 20.6045 24.916 20.6045H21.0827Z" fill="#66408D"/>
<path fill-rule="evenodd" clip-rule="evenodd" d="M6.22852 21.0837C6.22852 19.2312 7.73023 17.7295 9.58268 17.7295H13.416C15.2685 17.7295 16.7702 19.2312 16.7702 21.0837V24.917C16.7702 26.7694 15.2685 28.2712 13.416 28.2712H9.58268C7.73023 28.2712 6.22852 26.7694 6.22852 24.917V21.0837ZM9.58268 20.6045C9.31805 20.6045 9.10352 20.819 9.10352 21.0837V24.917C9.10352 25.1816 9.31805 25.3962 9.58268 25.3962H13.416C13.6807 25.3962 13.8952 25.1816 13.8952 24.917V21.0837C13.8952 20.819 13.6807 20.6045 13.416 20.6045H9.58268Z" fill="#66408D"/>
<path fill-rule="evenodd" clip-rule="evenodd" d="M29.2285 21.0837C29.2285 19.2312 30.7302 17.7295 32.5827 17.7295H36.416C38.2685 17.7295 39.7702 19.2312 39.7702 21.0837V24.917C39.7702 26.7694 38.2685 28.2712 36.416 28.2712H32.5827C30.7302 28.2712 29.2285 26.7694 29.2285 24.917V21.0837ZM32.5827 20.6045C32.318 20.6045 32.1035 20.819 32.1035 21.0837V24.917C32.1035 25.1816 32.318 25.3962 32.5827 25.3962H36.416C36.6807 25.3962 36.8952 25.1816 36.8952 24.917V21.0837C36.8952 20.819 36.6807 20.6045 36.416 20.6045H32.5827Z" fill="#66408D"/>
<path fill-rule="evenodd" clip-rule="evenodd" d="M17.7285 32.5846C17.7285 30.7322 19.2302 29.2305 21.0827 29.2305H24.916C26.7685 29.2305 28.2702 30.7322 28.2702 32.5846V36.418C28.2702 38.2704 26.7685 39.7721 24.916 39.7721H21.0827C19.2302 39.7721 17.7285 38.2704 17.7285 36.418V32.5846ZM21.0827 32.1055C20.818 32.1055 20.6035 32.32 20.6035 32.5846V36.418C20.6035 36.6826 20.818 36.8971 21.0827 36.8971H24.916C25.1807 36.8971 25.3952 36.6826 25.3952 36.418V32.5846C25.3952 32.32 25.1807 32.1055 24.916 32.1055H21.0827Z" fill="#66408D"/>
<path fill-rule="evenodd" clip-rule="evenodd" d="M6.22852 32.5846C6.22852 30.7322 7.73023 29.2305 9.58268 29.2305H13.416C15.2685 29.2305 16.7702 30.7322 16.7702 32.5846V36.418C16.7702 38.2704 15.2685 39.7721 13.416 39.7721H9.58268C7.73023 39.7721 6.22852 38.2704 6.22852 36.418V32.5846ZM9.58268 32.1055C9.31805 32.1055 9.10352 32.32 9.10352 32.5846V36.418C9.10352 36.6826 9.31805 36.8971 9.58268 36.8971H13.416C13.6807 36.8971 13.8952 36.6826 13.8952 36.418V32.5846C13.8952 32.32 13.6807 32.1055 13.416 32.1055H9.58268Z" fill="#66408D"/>
<path fill-rule="evenodd" clip-rule="evenodd" d="M29.2285 32.5846C29.2285 30.7322 30.7302 29.2305 32.5827 29.2305H36.416C38.2685 29.2305 39.7702 30.7322 39.7702 32.5846V36.418C39.7702 38.2704 38.2685 39.7721 36.416 39.7721H32.5827C30.7302 39.7721 29.2285 38.2704 29.2285 36.418V32.5846ZM32.5827 32.1055C32.318 32.1055 32.1035 32.32 32.1035 32.5846V36.418C32.1035 36.6826 32.318 36.8971 32.5827 36.8971H36.416C36.6807 36.8971 36.8952 36.6826 36.8952 36.418V32.5846C36.8952 32.32 36.6807 32.1055 36.416 32.1055H32.5827Z" fill="#66408D"/>
</g>
<defs>
<clipPath id="clip0_368_3656">
<rect width="46" height="46" fill="white"/>
</clipPath>
</defs>
</svg>
