<svg width="45" height="45" viewBox="0 0 45 45" fill="none" xmlns="http://www.w3.org/2000/svg">
<path fill-rule="evenodd" clip-rule="evenodd" d="M0 6.64953C0 5.85916 0.640717 5.21844 1.43108 5.21844H43.1612C43.9516 5.21844 44.5923 5.85916 44.5923 6.64953C44.5923 7.43989 43.9516 8.08061 43.1612 8.08061H1.43108C0.640717 8.08061 0 7.43989 0 6.64953Z" fill="#E4002B"/>
<path fill-rule="evenodd" clip-rule="evenodd" d="M8.94866 0C9.73902 0 10.3797 0.640717 10.3797 1.43108V6.64956C10.3797 7.43992 9.73902 8.08064 8.94866 8.08064C8.1583 8.08064 7.51758 7.43992 7.51758 6.64956V1.43108C7.51758 0.640717 8.1583 0 8.94866 0Z" fill="#E4002B"/>
<path fill-rule="evenodd" clip-rule="evenodd" d="M5.72461 24.1376C5.72461 23.3473 6.36533 22.7065 7.15569 22.7065H18.4135C19.2039 22.7065 19.8446 23.3473 19.8446 24.1376V35.3955C19.8446 36.1858 19.2039 36.8265 18.4135 36.8265H7.15569C6.36533 36.8265 5.72461 36.1858 5.72461 35.3955V24.1376ZM8.58677 25.5687V33.9644H16.9824V25.5687H8.58677Z" fill="#E4002B"/>
<path fill-rule="evenodd" clip-rule="evenodd" d="M5.72461 12.8798C5.72461 12.0894 6.36533 11.4487 7.15569 11.4487H37.6854C38.4758 11.4487 39.1165 12.0894 39.1165 12.8798V18.6041C39.1165 19.3945 38.4758 20.0352 37.6854 20.0352H7.15569C6.36533 20.0352 5.72461 19.3945 5.72461 18.6041V12.8798ZM8.58677 14.3109V17.1731H36.2543V14.3109H8.58677Z" fill="#E4002B"/>
<path fill-rule="evenodd" clip-rule="evenodd" d="M23.3157 23.3167C23.7295 22.9028 24.3536 22.7827 24.8915 23.0133L42.8277 30.703C43.374 30.9371 43.7186 31.4846 43.6936 32.0784C43.6687 32.6722 43.2793 33.1887 42.7154 33.3762L35.7059 35.7069L33.3753 42.7163C33.1877 43.2803 32.6712 43.6697 32.0774 43.6946C31.4836 43.7196 30.9362 43.3749 30.702 42.8287L23.0123 24.8925C22.7817 24.3546 22.9019 23.7305 23.3157 23.3167ZM27.0532 27.0542L31.848 38.2382L33.2162 34.1236C33.3585 33.6954 33.6945 33.3595 34.1226 33.2171L38.2372 31.849L27.0532 27.0542Z" fill="#E4002B"/>
<path fill-rule="evenodd" clip-rule="evenodd" d="M0 3.33919C0 1.49501 1.49501 0 3.33919 0H41.5014C43.3455 0 44.8405 1.49501 44.8405 3.33919V26.2365C44.8405 27.0269 44.1998 27.6676 43.4095 27.6676C42.6191 27.6676 41.9784 27.0269 41.9784 26.2365V3.33919C41.9784 3.07574 41.7648 2.86216 41.5014 2.86216H3.33919C3.07573 2.86216 2.86216 3.07573 2.86216 3.33919V41.5014C2.86216 41.7648 3.07574 41.9784 3.33919 41.9784H25.2824C26.0728 41.9784 26.7135 42.6191 26.7135 43.4095C26.7135 44.1998 26.0728 44.8405 25.2824 44.8405H3.33919C1.49501 44.8405 0 43.3455 0 41.5014V3.33919Z" fill="#E4002B"/>
</svg>
