<svg width="46" height="46" viewBox="0 0 46 46" fill="none" xmlns="http://www.w3.org/2000/svg">
<g clip-path="url(#clip0_368_3640)">
<path fill-rule="evenodd" clip-rule="evenodd" d="M21.9829 0.898573C22.5443 0.337194 23.4545 0.337194 24.0159 0.898573L45.0992 21.9819C45.5103 22.393 45.6333 23.0113 45.4108 23.5485C45.1883 24.0856 44.6641 24.4359 44.0827 24.4359H39.7702V44.0817C39.7702 44.8756 39.1266 45.5192 38.3327 45.5192H7.66606C6.87215 45.5192 6.22856 44.8756 6.22856 44.0817V24.4359H1.91606C1.33464 24.4359 0.810479 24.0856 0.587981 23.5485C0.365483 23.0113 0.48847 22.393 0.899592 21.9819L21.9829 0.898573ZM5.38649 21.5609H7.66606C8.45997 21.5609 9.10356 22.2045 9.10356 22.9984V42.6442H36.8952V22.9984C36.8952 22.2045 37.5388 21.5609 38.3327 21.5609H40.6123L22.9994 3.94797L5.38649 21.5609Z" fill="white"/>
<path fill-rule="evenodd" clip-rule="evenodd" d="M15.8125 18.6862C15.8125 16.8337 17.3142 15.332 19.1667 15.332H26.8333C28.6858 15.332 30.1875 16.8337 30.1875 18.6862V20.6029C30.1875 21.3968 29.5439 22.0404 28.75 22.0404C27.9561 22.0404 27.3125 21.3968 27.3125 20.6029V18.6862C27.3125 18.4216 27.098 18.207 26.8333 18.207H19.1667C18.902 18.207 18.6875 18.4216 18.6875 18.6862V24.4362C18.6875 24.7008 18.902 24.9154 19.1667 24.9154H26.8333C28.6858 24.9154 30.1875 26.4171 30.1875 28.2695V34.0195C30.1875 35.872 28.6858 37.3737 26.8333 37.3737H19.1667C17.3142 37.3737 15.8125 35.872 15.8125 34.0195V32.1029C15.8125 31.309 16.4561 30.6654 17.25 30.6654C18.0439 30.6654 18.6875 31.309 18.6875 32.1029V34.0195C18.6875 34.2842 18.902 34.4987 19.1667 34.4987H26.8333C27.098 34.4987 27.3125 34.2842 27.3125 34.0195V28.2695C27.3125 28.0049 27.098 27.7904 26.8333 27.7904H19.1667C17.3142 27.7904 15.8125 26.2887 15.8125 24.4362V18.6862Z" fill="white"/>
<path fill-rule="evenodd" clip-rule="evenodd" d="M23 11.498C23.7939 11.498 24.4375 12.1416 24.4375 12.9355V16.7689C24.4375 17.5628 23.7939 18.2064 23 18.2064C22.2061 18.2064 21.5625 17.5628 21.5625 16.7689V12.9355C21.5625 12.1416 22.2061 11.498 23 11.498ZM23 34.498C23.7939 34.498 24.4375 35.1416 24.4375 35.9355V39.7689C24.4375 40.5628 23.7939 41.2064 23 41.2064C22.2061 41.2064 21.5625 40.5628 21.5625 39.7689V35.9355C21.5625 35.1416 22.2061 34.498 23 34.498Z" fill="white"/>
</g>
<defs>
<clipPath id="clip0_368_3640">
<rect width="46" height="46" fill="white"/>
</clipPath>
</defs>
</svg>
