<svg xmlns="http://www.w3.org/2000/svg" viewBox="0 0 137.72 123.02">
  <defs>
    <style>
      .cls-3{fill:#fff}
    </style>
  </defs>
  <g id="Layer_2" data-name="Layer 2">
    <g id="text">
      <path d="M135.72 123l-21.61-10.28a41.35 41.35 0 0 1-12.1 2.07c-19.69 0-35.71-13.11-35.71-29.23 0-16.4 16-29.74 35.71-29.74s35.71 13.34 35.71 29.74c0 7.54-3.93 15.06-10.8 20.68zm-21.53-11.35l.17.08 19.08 9.07-7.78-14.8.32-.26c6.83-5.46 10.74-12.81 10.74-20.16 0-15.84-15.57-28.74-34.71-28.74s-34.72 12.9-34.72 28.75c0 15.57 15.57 28.23 34.71 28.23a40.74 40.74 0 0 0 12-2.09z" fill="#d90021"/>
      <path id="Stroke-317" d="M109 45.26c0 24.56-24.41 44.47-54.51 44.47a63.6 63.6 0 0 1-18.8-3.26l-31.63 15 12.86-24.4C6.83 69 0 57.7 0 45.26 0 20.69 24.41 0 54.51 0S109 20.69 109 45.26z" fill="#273038"/>
      <path class="cls-3" d="M25 36.29a7.81 7.81 0 0 0-2.26-3.83l.2-.29a15 15 0 0 1 3.15 2q.88.84-.2 2.11h3.34a15.63 15.63 0 0 0 2.16-4.13l2 1.28a3.51 3.51 0 0 0-1.52.88q-.74.69-2 2h5l1.38-1.38 2 2h-7.5v6.29h5l1.47-1.47 2.06 2.06h-20a8.94 8.94 0 0 0-2.36.29l-.88-.88h8.55v-6.34h-4.26l-1.47.2-.79-.79zm-5 1.77l.29-.2a12.79 12.79 0 0 1 2.5 2.14 1.37 1.37 0 0 1 0 2q-.88 1-1.13-.44a9.73 9.73 0 0 0-1.66-3.5zm14 8.75q0 6.19.1 7.67l-1.47.69v-1.38h-9.55v.79l-1.47.79q.1-1.87.1-5t-.1-5.41l1.47.88h9.34l1-1 1.47 1.38zm-10.91-.39v3h9.53v-3zm0 3.64v3.14h9.53v-3.14zM26 36.88v6.29h3.34v-6.29zm5.8 5.8a18.05 18.05 0 0 0 2.46-5.21l2.06 1.28A3 3 0 0 0 34.68 40a25 25 0 0 1-2.46 2.75l-.39-.1zm15.94 7a8.22 8.22 0 0 0 2.6 2 15.3 15.3 0 0 0 5.85 1 66.23 66.23 0 0 0 9.53-.44v.39q-2 .49-1.87 1.77-4.62 0-7.52-.2a18.33 18.33 0 0 1-4.72-.84 7.39 7.39 0 0 1-2.95-1.82q-1.13-1.18-1.62-1.13t-1.52 1.18a9.59 9.59 0 0 0-1.52 2.1l-1.47-1.28a12.77 12.77 0 0 1 3.93-2.56V41.6h-.69a8.94 8.94 0 0 0-2.36.29l-.85-.89h3.84l.6-1 1.57 1.18-.79.69zm-3.34-16l.2-.2a11.94 11.94 0 0 1 2.21 1.38 1.88 1.88 0 0 1 .84 1.38 2 2 0 0 1-.65 1.33q-.64.69-.93-.64a10 10 0 0 0-1.64-3.29zM59 49.56q1.57.1 2.36.1a.69.69 0 0 0 .79-.79v-3H57.5v4.42l-1.28.59v-5H51.9v4.72l-1.38.59q.1-2.65.1-7.17t-.1-6.78l1.67 1h4.23a3.91 3.91 0 0 0-2.26-2.75l.2-.29a9.09 9.09 0 0 1 3.24 1.28L60.55 34H54a9.35 9.35 0 0 0-2.46.29l-.88-.88h10l.88-.88 1.77 1.87q-1.57-.1-5.41 2.26a1.11 1.11 0 0 1-.39 1.47h4.42l.69-1 1.47 1.08-.69.69v10.47q.1 1.67-1.87 2.36-.1-1.38-2.53-1.73zm-7.1-10.81v2.95h4.32v-2.95zm0 3.54v2.95h4.32v-2.95zm5.6-3.54v2.95h4.62v-2.95zm0 3.54v2.95h4.62v-2.95zM74.62 51.53l4-2.75.2.29q-1.38 1.28-2.7 2.6A29 29 0 0 0 74 54l-1-1.49a2 2 0 0 0 .39-1.18V41.8h-1.22a8.94 8.94 0 0 0-2.36.29l-.88-.88h4.32l1-1 1.38 1.38-1 .69zm-2.75-18.18l.2-.29a8.86 8.86 0 0 1 2.85 2.21 1.61 1.61 0 0 1 .15 1.38 1.18 1.18 0 0 1-.74.79q-.49.15-.84-1.18a8 8 0 0 0-1.62-2.91zm17.5 13.27q0 5.9.1 7.47l-1.38.59v-1.77h-7.27v1.57l-1.38.59q.1-2.56.1-5.16t-.1-5l1.38.69h2.85v-4.78h-3.74a8.94 8.94 0 0 0-2.36.29l-.88-.88h7v-5l-5 .39-.1-.49a50.44 50.44 0 0 0 6.68-1.23 14.21 14.21 0 0 0 3.64-1.33l1.28 1.87a28.82 28.82 0 0 0-5.21.59v5.21h4.32L90.45 39l1.67 1.77h-7.18v4.82h3l1-1 1.28 1.28zm-8.55-.39v6.09h7.27v-6.1z"/>
    </g>
  </g>
</svg>
