<!-- Generator: Adobe Illustrator 21.1.0, SVG Export Plug-In  -->
<svg version="1.1"
	 xmlns="http://www.w3.org/2000/svg" xmlns:xlink="http://www.w3.org/1999/xlink" xmlns:a="http://ns.adobe.com/AdobeSVGViewerExtensions/3.0/"
	 x="0px" y="0px" width="24.8px" height="31.1px" viewBox="0 0 24.8 31.1" style="enable-background:new 0 0 24.8 31.1;"
	 xml:space="preserve">
<style type="text/css">
	.st0{fill:#273038;}
</style>
<defs>
</defs>
<g>
	<path class="st0" d="M8.8,31.1c-2.9,0-5.3-1-6.8-2.9C0.1,26-0.4,22.7,0.3,19c0.8-4.1,3.9-8.7,6.9-13.2c0.3-0.5,0.6-1,0.9-1.4
		c0.1-0.2,0.3-0.3,0.6-0.3h0c0.2,0,0.5,0.1,0.6,0.3c0.3,0.5,0.6,0.9,0.9,1.4c3,4.4,6,9,6.9,13.2c0.8,3.7,0.2,7-1.6,9.2
		C14.1,30.1,11.7,31.1,8.8,31.1z M8.8,6.1C8.6,6.2,8.5,6.4,8.4,6.6c0,0,0,0,0,0c-2.9,4.3-5.9,8.8-6.7,12.7c-0.7,3.3-0.2,6.2,1.3,8
		c1.3,1.6,3.3,2.4,5.8,2.4s4.5-0.8,5.8-2.4c1.5-1.9,2-4.7,1.3-8C15,15.4,12,10.9,9.1,6.6C9,6.4,8.9,6.2,8.8,6.1z M7.8,6.2L7.8,6.2
		L7.8,6.2z"/>
	<path class="st0" d="M5.7,26c-0.2,0-0.4-0.1-0.5-0.2c-1.4-1.6-1.9-3.9-1.3-6.6c0.1-0.4,0.5-0.6,0.8-0.5c0.4,0.1,0.6,0.5,0.5,0.8
		c-0.5,2.2-0.2,4.2,0.9,5.4c0.3,0.3,0.2,0.7-0.1,1C6,26,5.8,26,5.7,26z"/>
	<path class="st0" d="M15.8,27.7c-0.4,0-0.7-0.3-0.7-0.7s0.3-0.7,0.7-0.7c2.6,0,4.5-0.8,5.9-2.5c1.6-1.9,2.1-4.8,1.4-8.3
		c-0.8-3.9-4.1-8.6-7.2-13c-0.1-0.2-0.3-0.4-0.4-0.6c-0.5,0.8-1.2,1.9-1.9,2.9c-1,1.6-1.9,3.1-2.1,3.3c-0.2,0.3-0.7,0.4-1,0.2
		s-0.4-0.7-0.2-1c0.2-0.2,1.1-1.8,2.1-3.3c1.4-2.2,2.3-3.6,2.5-3.8C15,0.1,15.3,0,15.5,0c0,0,0,0,0,0c0.2,0,0.4,0.1,0.6,0.3
		c0.3,0.5,0.7,1,1,1.5c3.2,4.6,6.5,9.3,7.4,13.5c0.8,3.9,0.2,7.2-1.7,9.5C21.1,26.7,18.8,27.7,15.8,27.7z"/>
</g>
</svg>
