<!-- Generator: Adobe Illustrator 21.1.0, SVG Export Plug-In  -->
<svg version="1.1"
	 xmlns="http://www.w3.org/2000/svg" xmlns:xlink="http://www.w3.org/1999/xlink" xmlns:a="http://ns.adobe.com/AdobeSVGViewerExtensions/3.0/"
	 x="0px" y="0px" width="256px" height="59.9px" viewBox="0 0 256 59.9" style="enable-background:new 0 0 256 59.9;"
	 xml:space="preserve">
<style type="text/css">
	.st0{fill:#1A1818;}
	.st1{opacity:0;fill:#8B8D8F;}
	.st2{opacity:4.761905e-02;fill:#8B8D8F;}
	.st3{opacity:9.523810e-02;fill:#8B8D8F;}
	.st4{opacity:0.1429;fill:#8B8D8F;}
	.st5{opacity:0.1905;fill:#8B8C8E;}
	.st6{opacity:0.2381;fill:#8B8C8E;}
	.st7{opacity:0.2857;fill:#8B8C8E;}
	.st8{opacity:0.3333;fill:#8B8C8E;}
	.st9{opacity:0.381;fill:#8B8C8E;}
	.st10{opacity:0.4286;fill:#8B8C8E;}
	.st11{opacity:0.4762;fill:#8B8C8E;}
	.st12{opacity:0.5238;fill:#8B8C8D;}
	.st13{opacity:0.5714;fill:#8C8C8D;}
	.st14{opacity:0.619;fill:#8C8C8D;}
	.st15{opacity:0.6667;fill:#8C8C8D;}
	.st16{opacity:0.7143;fill:#8C8C8D;}
	.st17{opacity:0.7619;fill:#8C8C8D;}
	.st18{opacity:0.8095;fill:#8C8C8C;}
	.st19{opacity:0.8571;fill:#8C8C8C;}
	.st20{opacity:0.9048;fill:#8C8C8C;}
	.st21{opacity:0.9524;fill:#8C8C8C;}
	.st22{fill:#8C8C8C;}
	.st23{fill:#AA101F;}
	.st24{fill:url(#SVGID_1_);}
	.st25{fill:url(#SVGID_2_);}
	.st26{fill:url(#SVGID_3_);}
	.st27{fill:url(#SVGID_4_);}
	.st28{fill:url(#SVGID_5_);}
	.st29{fill:#FFFFFF;}
	.st30{fill:url(#SVGID_6_);}
	.st31{fill:url(#SVGID_7_);}
	.st32{fill:url(#SVGID_8_);}
	.st33{fill:url(#SVGID_9_);}
	.st34{fill:url(#SVGID_10_);}
</style>
<defs>
</defs>
<g>
	<g>
		<path class="st0" d="M77.3,18.5v1.6c0,2-1.6,3.6-3.6,3.6h-0.9v21.1h-7.2V17.6c0-7.2,2.1-9.9,11.7-8.9v5.9c-5.1,0-4.4,0.2-4.5,4
			H77.3z"/>
		<path class="st0" d="M122.8,24.3c0,0-1.7,0-2.1,0c-5.3,0-6.5,3-6.5,5.7v14.8h-7.3V30.1c0-7.7,5.3-13.3,13.8-13.3
			c0.6,0,2.1,0,2.1,0V24.3z"/>
		<path class="st0" d="M104.5,30.9c0,8.4-4.1,14.6-13,14.6s-12.9-6.3-12.9-14.6s3.9-14.7,12.9-14.7S104.5,22.5,104.5,30.9z M97.2,31
			c0-4.8-1.4-8.5-5.7-8.5c-4.3,0-5.7,3.7-5.7,8.5c0,4.7,1.7,8.5,5.7,8.5S97.2,35.7,97.2,31z"/>
		<path class="st0" d="M212.8,34.7c0,6.2-3,10.8-9.6,10.8s-9.5-4.6-9.5-10.8s2.9-10.9,9.5-10.9S212.8,28.6,212.8,34.7z M207.4,34.8
			c0-3.6-1.1-6.3-4.2-6.3c-3.2,0-4.2,2.7-4.2,6.3c0,3.5,1.2,6.3,4.2,6.3S207.4,38.3,207.4,34.8z"/>
		<path class="st0" d="M154.4,16.3c-5,0-6.5,1-8.6,2.5c-2.1-1.5-3.6-2.5-8.6-2.5c-6.5,0-12.3,2.6-12.3,11.8v16.9h7.2V28.6
			c0-3.1,0.4-6.4,4.8-6.4c5.5,0,5,4.8,5,6.4v16.3h7.6V28.6c0-1.6-0.5-6.4,5-6.4c4.5,0,4.8,3.3,4.8,6.4v12.8c0,2,1.6,3.6,3.6,3.6h3.6
			V28C166.6,18.8,160.8,16.3,154.4,16.3z"/>
		<path class="st0" d="M236.4,24.1c-3.7,0-4.8,0.8-6.3,1.9c-1.5-1.1-2.7-1.9-6.3-1.9c-4.8,0-9,1.9-9,8.7v12.4h5.3v-12
			c0-2.3,0.3-4.7,3.6-4.7c4,0,3.7,3.6,3.7,4.7v12h5.6v-12c0-1.2-0.3-4.7,3.7-4.7c3.3,0,3.6,2.4,3.6,4.7v9.4c0,1.4,1.2,2.6,2.6,2.6
			h2.7V32.8C245.5,26,241.2,24.1,236.4,24.1z"/>
		<path class="st0" d="M169.7,40.9h3.1v4.3h-4.3V42C168.5,41.4,169.1,40.9,169.7,40.9z"/>
		<path class="st0" d="M188,38.7c-0.5,0-0.9,0.2-1.2,0.6c-0.7,1.1-1.9,1.7-3.7,1.7c-3,0-4.2-2.8-4.2-6.3c0-3.6,1.1-6.3,4.2-6.3
			c1.8,0,2.9,0.9,3.5,2.3h5.6c-1.1-4.1-3.9-6.9-9.1-6.9c-6.7,0-9.5,4.7-9.5,10.9c0,6.2,3,10.8,9.5,10.8c5,0,8.2-2.7,9.3-6.8H188z"/>
		<g>
			<path class="st0" d="M251.1,40.3v0.8h-1.3v3.7h-0.9v-3.7h-1.4v-0.8H251.1z"/>
			<path class="st0" d="M254.6,40.3h1.4v4.5h-0.9v-3c0-0.1,0-0.2,0-0.4c0-0.2,0-0.3,0-0.4l-0.9,3.8h-0.9l-0.8-3.8c0,0.1,0,0.2,0,0.4
				c0,0.2,0,0.3,0,0.4v3h-0.9v-4.5h1.4l0.8,3.5L254.6,40.3z"/>
		</g>
	</g>
	<g>
		<path class="st1" d="M0.6,50.6c0,5.1,4.2,9.3,9.3,9.3h36.8c5.1,0,9.3-4.2,9.3-9.3V13.7c0-5.1-4.2-9.3-9.3-9.3H9.9
			c-5.1,0-9.3,4.2-9.3,9.3V50.6z"/>
		<path class="st2" d="M0.6,50.4c0,5.1,4.2,9.3,9.3,9.3h36.8c5.1,0,9.3-4.2,9.3-9.3V13.5c0-5.1-4.2-9.3-9.3-9.3H9.9
			c-5.1,0-9.3,4.2-9.3,9.3V50.4z"/>
		<path class="st3" d="M0.6,50.2c0,5.1,4.2,9.3,9.3,9.3h36.8c5.1,0,9.3-4.2,9.3-9.3V13.4c0-5.1-4.2-9.3-9.3-9.3H9.9
			c-5.1,0-9.3,4.2-9.3,9.3V50.2z"/>
		<path class="st4" d="M0.6,50c0,5.1,4.2,9.3,9.3,9.3h36.8c5.1,0,9.3-4.2,9.3-9.3V13.2c0-5.1-4.2-9.3-9.3-9.3H9.9
			c-5.1,0-9.3,4.2-9.3,9.3V50z"/>
		<path class="st5" d="M0.6,49.8c0,5.1,4.2,9.3,9.3,9.3h36.8c5.1,0,9.3-4.2,9.3-9.3V13c0-5.1-4.2-9.3-9.3-9.3H9.9
			c-5.1,0-9.3,4.2-9.3,9.3V49.8z"/>
		<path class="st6" d="M0.6,49.7c0,5.1,4.2,9.3,9.3,9.3h36.8c5.1,0,9.3-4.2,9.3-9.3V12.8c0-5.1-4.2-9.3-9.3-9.3H9.9
			c-5.1,0-9.3,4.2-9.3,9.3V49.7z"/>
		<path class="st7" d="M0.6,49.5c0,5.1,4.2,9.3,9.3,9.3h36.8c5.1,0,9.3-4.2,9.3-9.3V12.7c0-5.1-4.2-9.3-9.3-9.3H9.9
			c-5.1,0-9.3,4.2-9.3,9.3V49.5z"/>
		<path class="st8" d="M0.6,49.3c0,5.1,4.2,9.3,9.3,9.3h36.8c5.1,0,9.3-4.2,9.3-9.3V12.5c0-5.1-4.2-9.3-9.3-9.3H9.9
			c-5.1,0-9.3,4.2-9.3,9.3V49.3z"/>
		<path class="st9" d="M0.6,49.1c0,5.1,4.2,9.3,9.3,9.3h36.8c5.1,0,9.3-4.2,9.3-9.3V12.3c0-5.1-4.2-9.3-9.3-9.3H9.9
			c-5.1,0-9.3,4.2-9.3,9.3V49.1z"/>
		<path class="st10" d="M0.6,49c0,5.1,4.2,9.3,9.3,9.3h36.8c5.1,0,9.3-4.2,9.3-9.3V12.1c0-5.1-4.2-9.3-9.3-9.3H9.9
			c-5.1,0-9.3,4.2-9.3,9.3V49z"/>
		<path class="st11" d="M0.6,48.8c0,5.1,4.2,9.3,9.3,9.3h36.8c5.1,0,9.3-4.2,9.3-9.3V11.9c0-5.1-4.2-9.3-9.3-9.3H9.9
			c-5.1,0-9.3,4.2-9.3,9.3V48.8z"/>
		<path class="st12" d="M0.6,48.6c0,5.1,4.2,9.3,9.3,9.3h36.8c5.1,0,9.3-4.2,9.3-9.3V11.8c0-5.1-4.2-9.3-9.3-9.3H9.9
			c-5.1,0-9.3,4.2-9.3,9.3V48.6z"/>
		<path class="st13" d="M0.6,48.4c0,5.1,4.2,9.3,9.3,9.3h36.8c5.1,0,9.3-4.2,9.3-9.3V11.6c0-5.1-4.2-9.3-9.3-9.3H9.9
			c-5.1,0-9.3,4.2-9.3,9.3V48.4z"/>
		<path class="st14" d="M0.6,48.2c0,5.1,4.2,9.3,9.3,9.3h36.8c5.1,0,9.3-4.2,9.3-9.3V11.4c0-5.1-4.2-9.3-9.3-9.3H9.9
			c-5.1,0-9.3,4.2-9.3,9.3V48.2z"/>
		<path class="st15" d="M0.6,48.1c0,5.1,4.2,9.3,9.3,9.3h36.8c5.1,0,9.3-4.2,9.3-9.3V11.2c0-5.1-4.2-9.3-9.3-9.3H9.9
			c-5.1,0-9.3,4.2-9.3,9.3V48.1z"/>
		<path class="st16" d="M0.6,47.9c0,5.1,4.2,9.3,9.3,9.3h36.8c5.1,0,9.3-4.2,9.3-9.3V11.1c0-5.1-4.2-9.3-9.3-9.3H9.9
			c-5.1,0-9.3,4.2-9.3,9.3V47.9z"/>
		<path class="st17" d="M0.6,47.7c0,5.1,4.2,9.3,9.3,9.3h36.8c5.1,0,9.3-4.2,9.3-9.3V10.9c0-5.1-4.2-9.3-9.3-9.3H9.9
			c-5.1,0-9.3,4.2-9.3,9.3V47.7z"/>
		<path class="st18" d="M0.6,47.5c0,5.1,4.2,9.3,9.3,9.3h36.8c5.1,0,9.3-4.2,9.3-9.3V10.7c0-5.1-4.2-9.3-9.3-9.3H9.9
			c-5.1,0-9.3,4.2-9.3,9.3V47.5z"/>
		<path class="st19" d="M0.6,47.4c0,5.1,4.2,9.3,9.3,9.3h36.8c5.1,0,9.3-4.2,9.3-9.3V10.5c0-5.1-4.2-9.3-9.3-9.3H9.9
			c-5.1,0-9.3,4.2-9.3,9.3V47.4z"/>
		<path class="st20" d="M0.6,47.2c0,5.1,4.2,9.3,9.3,9.3h36.8c5.1,0,9.3-4.2,9.3-9.3V10.3c0-5.1-4.2-9.3-9.3-9.3H9.9
			c-5.1,0-9.3,4.2-9.3,9.3V47.2z"/>
		<path class="st21" d="M0.6,47c0,5.1,4.2,9.3,9.3,9.3h36.8c5.1,0,9.3-4.2,9.3-9.3V10.2c0-5.1-4.2-9.3-9.3-9.3H9.9
			c-5.1,0-9.3,4.2-9.3,9.3V47z"/>
		<path class="st22" d="M0.6,46.8c0,5.1,4.2,9.3,9.3,9.3h36.8c5.1,0,9.3-4.2,9.3-9.3V10c0-5.1-4.2-9.3-9.3-9.3H9.9
			c-5.1,0-9.3,4.2-9.3,9.3V46.8z"/>
	</g>
	<path class="st23" d="M0,47.1c0,5.2,4.3,9.5,9.5,9.5h37.6c5.2,0,9.5-4.3,9.5-9.5V9.5c0-5.2-4.3-9.5-9.5-9.5L9.5,0
		C4.3,0,0,4.3,0,9.5L0,47.1z"/>
	<g>

			<linearGradient id="SVGID_1_" gradientUnits="userSpaceOnUse" x1="-7483.2056" y1="31.4591" x2="-7483.2056" y2="0.3941" gradientTransform="matrix(-1 0 0 1 -7454.8979 0)">
			<stop  offset="0.3672" style="stop-color:#B11322"/>
			<stop  offset="0.5538" style="stop-color:#B51222"/>
			<stop  offset="0.7259" style="stop-color:#C00D21"/>
			<stop  offset="0.8916" style="stop-color:#D2061F"/>
			<stop  offset="1" style="stop-color:#E3001E"/>
		</linearGradient>
		<path class="st24" d="M0,9.5C0,4.3,4.3,0,9.5,0l37.6,0c5.2,0,9.5,4.3,9.5,9.5v10.7c0,0-7.7,11.9-28.3,11.9S0,20.3,0,20.3L0,9.5z"
			/>
	</g>
	<g>

			<linearGradient id="SVGID_2_" gradientUnits="userSpaceOnUse" x1="-7464.6235" y1="47.4815" x2="-7458.0928" y2="54.012" gradientTransform="matrix(-1 0 0 1 -7454.8979 0)">
			<stop  offset="0" style="stop-color:#999999"/>
			<stop  offset="6.499878e-02" style="stop-color:#B5B5B5"/>
			<stop  offset="0.1435" style="stop-color:#D0D0D0"/>
			<stop  offset="0.2233" style="stop-color:#E3E3E3"/>
			<stop  offset="0.3046" style="stop-color:#EEEEEF"/>
			<stop  offset="0.3896" style="stop-color:#F2F2F2"/>
		</linearGradient>
		<path class="st25" d="M16.9,54.6c0.7,0.7,2.2,1.8,3.6,2c-0.2,0-0.4,0-0.6,0c-2.9,0-6.8,0-10.4,0c-5.2,0-9.5-4.3-9.5-9.5
			c0-3.3,0-6.7,0-8.8c0-0.3,0-0.6,0-1c0,0,0.3,0.8,1.7,2.2C5.6,43.4,13.8,51.5,16.9,54.6z"/>

			<linearGradient id="SVGID_3_" gradientUnits="userSpaceOnUse" x1="-7469.3101" y1="2374.2273" x2="-7463.6094" y2="2379.9282" gradientTransform="matrix(-1 0 0 1 -7453.9009 -2332.4297)">
			<stop  offset="0" style="stop-color:#DAD9D9"/>
			<stop  offset="0.1846" style="stop-color:#E4E4E4"/>
			<stop  offset="0.4855" style="stop-color:#F2F2F2"/>
			<stop  offset="0.5743" style="stop-color:#E6E6E6"/>
			<stop  offset="0.7362" style="stop-color:#C5C5C5"/>
			<stop  offset="0.8122" style="stop-color:#B3B4B4"/>
			<stop  offset="0.8677" style="stop-color:#B8B8B8"/>
			<stop  offset="0.9316" style="stop-color:#C6C6C6"/>
			<stop  offset="0.9907" style="stop-color:#DAD9D9"/>
		</linearGradient>
		<path class="st26" d="M0,37.3c1.7,2.8,11.3,0.4,15.4,4.4c4,4,0.6,12.9,4.9,14.8c0.2,0.1,0.3,0.1,0.3,0.1c-1.4-0.2-2.9-1.3-3.6-2
			C13.8,51.5,5.6,43.4,1.7,39.5C0.3,38.1,0,37.3,0,37.3z"/>
	</g>

		<linearGradient id="SVGID_4_" gradientUnits="userSpaceOnUse" x1="-7476.4536" y1="2367.1199" x2="-7467.7368" y2="2378.6873" gradientTransform="matrix(-1 0 0 1 -7453.9009 -2332.4297)">
		<stop  offset="0.5563" style="stop-color:#FFFFFF"/>
		<stop  offset="0.6998" style="stop-color:#F3F3F3"/>
		<stop  offset="0.9613" style="stop-color:#D2D2D2"/>
		<stop  offset="1" style="stop-color:#CCCCCC"/>
	</linearGradient>
	<path class="st27" d="M0,34.1c4.1,3.1,10.6-4.4,18.9-1.8C26.2,34.6,23,51.4,29,56.6c0.2,0.1-3.2-1.3-4.1-2C20.9,51.3,0,34.1,0,34.1
		z"/>

		<linearGradient id="SVGID_5_" gradientUnits="userSpaceOnUse" x1="-7468.8687" y1="46.0083" x2="-7460.999" y2="55.3869" gradientTransform="matrix(-1 0 0 1 -7454.8979 0)">
		<stop  offset="0" style="stop-color:#C8C8C8"/>
		<stop  offset="7.911112e-02" style="stop-color:#DCDCDC"/>
		<stop  offset="0.1796" style="stop-color:#F0F0F0"/>
		<stop  offset="0.2823" style="stop-color:#FBFBFB"/>
		<stop  offset="0.3896" style="stop-color:#FFFFFF"/>
	</linearGradient>
	<path class="st28" d="M29,56.6c-0.3,0-5,0-5.2,0c-3.5,0-8.2,0-12.4,0C5.1,56.6,0,51.5,0,45.2c0-4,0-11.1,0-11.1S27.4,56.3,29,56.6z
		"/>
	<g>

			<image style="overflow:visible;opacity:0.4;" width="21" height="38" xlink:href="47C27C324B60373A.png"  transform="matrix(1 0 0 1 32.2058 10.0826)">
		</image>
		<g>
			<g>
				<path class="st29" d="M33.5,22.9l1-5.7c2.2-0.1,3.7-0.2,4.6-0.4c1.4-0.3,2.7-0.9,3.7-1.8c0.7-0.6,1.3-1.4,1.9-2.5
					c0.3-0.6,0.5-1.1,0.6-1.4h5.6l-7.3,34.5h-6.9l5-22.7H33.5z"/>
			</g>
		</g>
	</g>
</g>
</svg>
