<!-- Generator: Adobe Illustrator 21.1.0, SVG Export Plug-In  -->
<svg version="1.1"
	 xmlns="http://www.w3.org/2000/svg" xmlns:xlink="http://www.w3.org/1999/xlink" xmlns:a="http://ns.adobe.com/AdobeSVGViewerExtensions/3.0/"
	 x="0px" y="0px" width="120px" height="110.5px" viewBox="0 0 120 110.5" style="enable-background:new 0 0 120 110.5;"
	 xml:space="preserve">
<style type="text/css">
	.st0{fill:#D90021;}
	.st1{fill:#273038;}
</style>
<defs>
</defs>
<g>
	<g>
		<path class="st0" d="M40.4,31.1c1.1-1.3,2.2-2.8,3.4-4c6.3-6.4,12.5-12.8,19-19C70.9,0.4,80.6-2,91.1,1.8
			c10.7,3.8,17.2,11.7,18.8,23.1c1.2,8.7-1.5,16.3-7.6,22.6C96,53.9,89.6,60.3,83.1,66.7c-10.7,10.4-27.9,10.3-38.2-0.2
			c-3.1-3.2-2.5-8.2,1.2-10.3c2.6-1.5,5.5-1,7.9,1.2c4.5,4.1,9.7,5.2,15.4,3c1.7-0.7,3.4-1.8,4.7-3.1c6.3-6.2,12.6-12.5,18.8-18.7
			c5.9-6,5.7-14.8-0.4-20.9c-6.1-6-14.8-6.1-20.8-0.2C67,22.2,62.2,27,57.4,31.8c-0.6,0.6-1.1,0.8-2,0.5
			C50.6,30.9,45.7,30.5,40.4,31.1z"/>
		<path class="st0" d="M69.8,79.4c-1.2,1.4-2.3,2.8-3.5,4.1c-6.2,6.3-12.4,12.5-18.7,18.7c-8.2,7.9-17.9,10.4-28.5,6.5
			C8.4,104.8,1.9,97,0.3,85.6c-1.2-8.5,1.4-16,7.3-22.2c6.4-6.7,13-13.2,19.7-19.7C37.9,33.4,55.2,33.6,65.4,44
			c2.2,2.3,2.6,5.6,1,8.1c-1.7,2.6-4.9,3.7-7.8,2.5c-0.9-0.4-1.7-1-2.4-1.6c-6.1-5.5-14.6-5.4-20.4,0.4
			c-6.2,6.1-12.3,12.3-18.5,18.5c-6,6-5.9,14.8,0.2,20.9c6.1,6.1,14.9,6.2,20.9,0.3c4.8-4.7,9.5-9.4,14.2-14.2
			c0.7-0.7,1.3-1,2.3-0.7c4.8,1.5,9.7,1.8,14.6,0.9C69.7,79.2,69.7,79.3,69.8,79.4z"/>
	</g>
	<path class="st1" d="M100,95c-2.7,1.2-5,2.3-7.4,3.3c-3.6,1.4-6.1-0.1-6.1-4c-0.1-12.2-0.1-24.3,0-36.5c0-1.1,0.6-2.9,1.4-3.1
		c1-0.3,2.7,0.3,3.5,1c8.9,8,17.8,16,26.6,24.1c3,2.7,2.5,5.6-1.1,7.4c-2.4,1.2-4.9,2.3-7.7,3.6c1.7,3.9,3.7,7.5,4.9,11.4
		c0.5,1.6,0.2,4-0.8,5.4c-0.8,1.1-3.2,1.8-4.6,1.4c-1.4-0.3-2.9-1.9-3.7-3.3C103.2,102.4,101.8,98.9,100,95z"/>
</g>
</svg>
