<!-- Generator: Adobe Illustrator 21.1.0, SVG Export Plug-In  -->
<svg version="1.1"
	 xmlns="http://www.w3.org/2000/svg" xmlns:xlink="http://www.w3.org/1999/xlink" xmlns:a="http://ns.adobe.com/AdobeSVGViewerExtensions/3.0/"
	 x="0px" y="0px" width="200.2px" height="141.2px" viewBox="0 0 200.2 141.2" style="enable-background:new 0 0 200.2 141.2;"
	 xml:space="preserve">
<style type="text/css">
	.st0{fill:#273038;}
	.st1{fill:#F4E739;}
	.st2{fill:#2C3BE2;}
	.st3{fill:#89006B;}
	.st4{fill:#40747B;}
	.st5{fill:#37A6DF;}
	.st6{fill:#D90021;}
</style>
<defs>
</defs>
<g>
	<rect x="12.9" y="37.4" class="st0" width="174.2" height="65.1"/>
	<rect x="12.9" y="107.1" class="st1" width="31" height="17.3"/>
	<rect x="48.7" y="107.1" class="st2" width="31" height="17.3"/>
	<rect x="84.7" y="107.1" class="st3" width="31" height="17.3"/>
	<rect x="120.8" y="107.1" class="st4" width="31" height="17.3"/>
	<rect x="156.1" y="107.1" class="st5" width="31" height="17.3"/>
	<path class="st0" d="M197.7,141.2H2.5c-1.4,0-2.5-1.1-2.5-2.5V2.5C0,1.1,1.1,0,2.5,0h195.2c1.4,0,2.5,1.1,2.5,2.5v136.2
		C200.2,140,199.1,141.2,197.7,141.2z M2.5,1C1.7,1,1,1.7,1,2.5v136.2c0,0.8,0.7,1.5,1.5,1.5h195.2c0.8,0,1.5-0.7,1.5-1.5V2.5
		c0-0.8-0.7-1.5-1.5-1.5H2.5z"/>
	<g>
		<circle class="st6" cx="71.9" cy="17.9" r="7.1"/>
		<rect x="86.4" y="17.4" class="st0" width="49" height="1"/>
	</g>
</g>
</svg>
