<!-- Generator: Adobe Illustrator 21.1.0, SVG Export Plug-In  -->
<svg version="1.1"
	 xmlns="http://www.w3.org/2000/svg" xmlns:xlink="http://www.w3.org/1999/xlink" xmlns:a="http://ns.adobe.com/AdobeSVGViewerExtensions/3.0/"
	 x="0px" y="0px" width="84.2px" height="141.2px" viewBox="0 0 84.2 141.2" style="enable-background:new 0 0 84.2 141.2;"
	 xml:space="preserve">
<style type="text/css">
	.st0{fill:#BDBCBA;}
	.st1{fill:#D90021;}
	.st2{fill:#FFFFFF;}
	.st3{fill:#273038;}
</style>
<defs>
</defs>
<g>
	<g>
		<circle class="st0" cx="17.3" cy="129.7" r="3.4"/>
		<circle class="st0" cx="28" cy="129.7" r="3.4"/>
	</g>
	<rect x="10.8" y="30.8" class="st1" width="62.7" height="34"/>
	<rect x="10.8" y="64.6" class="st2" width="62.7" height="52.1"/>
	<path class="st3" d="M81.7,141.2H2.5c-1.4,0-2.5-1.1-2.5-2.5V2.5C0,1.1,1.1,0,2.5,0h79.2c1.4,0,2.5,1.1,2.5,2.5v136.2
		C84.2,140,83.1,141.2,81.7,141.2z M2.5,1C1.7,1,1,1.7,1,2.5v136.2c0,0.8,0.7,1.5,1.5,1.5h79.2c0.8,0,1.5-0.7,1.5-1.5V2.5
		c0-0.8-0.7-1.5-1.5-1.5H2.5z"/>
	<g>
		<circle class="st1" cx="26.4" cy="15.4" r="4"/>
		<rect x="34.5" y="14.9" class="st3" width="27.3" height="1"/>
	</g>
	<path class="st1" d="M66.9,75.8H39.5c-0.6,0-1-0.5-1-1v-3.2c0-0.5,0.4-1,1-1h27.4c0.5,0,1,0.5,1,1v3.2
		C67.9,75.4,67.5,75.8,66.9,75.8z"/>
</g>
</svg>
