<!-- Generator: Adobe Illustrator 21.1.0, SVG Export Plug-In  -->
<svg version="1.1"
	 xmlns="http://www.w3.org/2000/svg" xmlns:xlink="http://www.w3.org/1999/xlink" xmlns:a="http://ns.adobe.com/AdobeSVGViewerExtensions/3.0/"
	 x="0px" y="0px" width="210.5px" height="141.2px" viewBox="0 0 210.5 141.2" style="enable-background:new 0 0 210.5 141.2;"
	 xml:space="preserve">
<style type="text/css">
	.st0{fill:#273038;}
	.st1{fill:#FFFFFF;}
	.st2{fill:#D90021;}
</style>
<defs>
</defs>
<g>
	<path class="st0" d="M93.7,141.2H2.5c-1.4,0-2.5-1.1-2.5-2.5V2.5C0,1.1,1.1,0,2.5,0h91.2c1.4,0,2.5,1.1,2.5,2.5v136.2
		C96.2,140,95.1,141.2,93.7,141.2z M2.5,1C1.7,1,1,1.7,1,2.5v136.2c0,0.8,0.7,1.5,1.5,1.5h91.2c0.8,0,1.5-0.7,1.5-1.5V2.5
		c0-0.8-0.7-1.5-1.5-1.5H2.5z"/>
	<rect x="12.5" y="28.2" class="st0" width="73.5" height="5.1"/>
	<rect x="12.5" y="39.4" class="st1" width="73.5" height="42.2"/>
	<rect x="125.6" y="30.8" class="st2" width="73.5" height="26.2"/>
	<rect x="12.5" y="92.2" class="st0" width="73.5" height="5.1"/>
	<rect x="125.6" y="73.9" class="st2" width="73.5" height="5.1"/>
	<rect x="125.6" y="99.9" class="st2" width="73.5" height="5.1"/>
	<rect x="125.6" y="111.9" class="st2" width="73.5" height="5.1"/>
	<rect x="125.6" y="123.9" class="st2" width="73.5" height="5.1"/>
	<rect x="12.5" y="104.3" class="st0" width="73.5" height="1.5"/>
	<rect x="12.5" y="112.7" class="st0" width="73.5" height="1.5"/>
	<rect x="12.5" y="121.2" class="st0" width="73.5" height="1.5"/>
	<g>
		<circle class="st2" cx="17.8" cy="15.4" r="4"/>
		<rect x="25.9" y="14.9" class="st0" width="27.3" height="1"/>
	</g>
	<path class="st0" d="M208,141.2h-91.2c-1.4,0-2.5-1.1-2.5-2.5V2.5c0-1.4,1.1-2.5,2.5-2.5H208c1.4,0,2.5,1.1,2.5,2.5v136.2
		C210.5,140,209.4,141.2,208,141.2z M116.7,1c-0.8,0-1.5,0.7-1.5,1.5v136.2c0,0.8,0.7,1.5,1.5,1.5H208c0.8,0,1.5-0.7,1.5-1.5V2.5
		c0-0.8-0.7-1.5-1.5-1.5H116.7z"/>
	<g>
		<circle class="st2" cx="146.6" cy="15.4" r="4"/>
		<rect x="154.7" y="14.9" class="st0" width="27.3" height="1"/>
	</g>
</g>
</svg>
