<!-- Generator: Adobe Illustrator 21.1.0, SVG Export Plug-In  -->
<svg version="1.1"
	 xmlns="http://www.w3.org/2000/svg" xmlns:xlink="http://www.w3.org/1999/xlink" xmlns:a="http://ns.adobe.com/AdobeSVGViewerExtensions/3.0/"
	 x="0px" y="0px" width="25.3px" height="33.6px" viewBox="0 0 25.3 33.6" style="enable-background:new 0 0 25.3 33.6;"
	 xml:space="preserve">
<style type="text/css">
	.st0{fill:#273038;}
</style>
<defs>
</defs>
<g>
	<path class="st0" d="M12.6,33.6C5.7,33.6,0,28,0,21.1l0-0.4c0-4.6,3.6-7.9,6.7-10.9c2.9-2.7,5.6-5.2,5.2-8.2L11.7,0L13,0.9
		c7.3,5.2,12.2,13.3,12.2,20.2C25.3,28,19.6,33.6,12.6,33.6z M13.4,2.9c-0.3,3-2.9,5.4-5.7,8c-3.1,2.9-6.3,5.9-6.3,9.9l0,0.4
		c0,6.1,5,11.1,11.2,11.1s11.2-5,11.2-11.1C23.9,15,19.7,7.8,13.4,2.9z"/>
	<path class="st0" d="M12.9,33.4c-2.6,0-4.4-1.8-4.4-1.8c-1.5-1.4-2.3-3.5-2.3-5.8l0-0.1c0-2.9,1.8-4.9,3.5-6.7
		c1.5-1.6,2.7-3,2.5-4.7L12,12.6l1.4,1.1c3.7,3.1,6.3,8,6.3,12.1c0,2-0.7,3.9-1.9,5.4l-0.2,0.2C15.8,33,14.2,33.4,12.9,33.4z
		 M13.5,15.8c-0.4,1.6-1.6,2.9-2.8,4.2c-1.5,1.7-3.1,3.4-3.1,5.6l0,0.2c0,1.8,0.7,3.6,1.9,4.8c0.1,0.1,3.3,3.2,7-0.2l0.1-0.2
		c1-1.2,1.6-2.8,1.6-4.4C18.2,22.5,16.3,18.6,13.5,15.8z"/>
</g>
</svg>
