<!-- Generator: Adobe Illustrator 21.1.0, SVG Export Plug-In  -->
<svg version="1.1"
	 xmlns="http://www.w3.org/2000/svg" xmlns:xlink="http://www.w3.org/1999/xlink" xmlns:a="http://ns.adobe.com/AdobeSVGViewerExtensions/3.0/"
	 x="0px" y="0px" width="32.1px" height="28.2px" viewBox="0 0 32.1 28.2" style="enable-background:new 0 0 32.1 28.2;"
	 xml:space="preserve">
<style type="text/css">
	.st0{fill:#273038;}
</style>
<defs>
</defs>
<g>
	<path class="st0" d="M16,28.2c-0.4,0-0.7-0.3-0.7-0.7V15.5c0-0.4,0.3-0.7,0.7-0.7s0.7,0.3,0.7,0.7v12.1
		C16.7,27.9,16.4,28.2,16,28.2z"/>
	<path class="st0" d="M16,16.2c-2.8,0-5.1-2.3-5.1-5.1S13.2,6,16,6s5.1,2.3,5.1,5.1S18.8,16.2,16,16.2z M16,7.4
		c-2,0-3.7,1.7-3.7,3.7s1.7,3.7,3.7,3.7s3.7-1.7,3.7-3.7S18.1,7.4,16,7.4z"/>
	<path class="st0" d="M25.5,23.8c-0.2,0-0.4-0.1-0.6-0.3c-0.2-0.3-0.2-0.7,0.1-1c3.5-2.8,5.6-7,5.6-11.5c0-3.7-1.4-7.2-3.9-9.9
		c-0.3-0.3-0.2-0.7,0-1c0.3-0.3,0.7-0.2,1,0c2.7,3,4.2,6.8,4.2,10.9c0,4.9-2.2,9.5-6.1,12.6C25.8,23.8,25.7,23.8,25.5,23.8z"/>
	<path class="st0" d="M6.5,23.8c-0.2,0-0.3,0-0.4-0.2C2.2,20.6,0,16,0,11.1c0-4,1.5-7.9,4.2-10.9c0.3-0.3,0.7-0.3,1,0
		c0.3,0.3,0.3,0.7,0,1c-2.5,2.7-3.9,6.2-3.9,9.9c0,4.5,2,8.7,5.6,11.5c0.3,0.2,0.4,0.7,0.1,1C7,23.7,6.8,23.8,6.5,23.8z"/>
	<path class="st0" d="M9.9,19.5c-0.2,0-0.3,0-0.4-0.2c-2.5-2-4-5-4-8.3c0-2.6,1-5.1,2.7-7c0.3-0.3,0.7-0.3,1-0.1
		c0.3,0.3,0.3,0.7,0.1,1c-1.5,1.7-2.3,3.9-2.3,6.1c0,2.8,1.3,5.4,3.5,7.2c0.3,0.2,0.4,0.7,0.1,1C10.3,19.4,10.1,19.5,9.9,19.5z"/>
	<path class="st0" d="M22.2,19.5c-0.2,0-0.4-0.1-0.5-0.3c-0.2-0.3-0.2-0.7,0.1-1c2.2-1.8,3.4-4.4,3.4-7.2c0-2.3-0.8-4.4-2.4-6.1
		c-0.3-0.3-0.2-0.7,0.1-1c0.3-0.3,0.7-0.2,1,0.1c1.8,1.9,2.7,4.5,2.7,7.1c0,3.2-1.4,6.2-4,8.2C22.5,19.4,22.4,19.5,22.2,19.5z"/>
</g>
</svg>
