<!-- Generator: Adobe Illustrator 21.1.0, SVG Export Plug-In  -->
<svg version="1.1"
	 xmlns="http://www.w3.org/2000/svg" xmlns:xlink="http://www.w3.org/1999/xlink" xmlns:a="http://ns.adobe.com/AdobeSVGViewerExtensions/3.0/"
	 x="0px" y="0px" width="27.9px" height="27.8px" viewBox="0 0 27.9 27.8" style="enable-background:new 0 0 27.9 27.8;"
	 xml:space="preserve">
<style type="text/css">
	.st0{fill:#273038;}
</style>
<defs>
</defs>
<path class="st0" d="M22.3,27.8c-0.8,0-1.6-0.2-2.3-0.3c-1.3-0.3-2.6-0.8-4-1.6c-1.4-0.7-2.5-1.4-3.6-2.2c-1-0.8-2-1.6-3-2.4
	c-1-0.9-2-1.9-2.9-2.9l-0.2-0.2c-1.1-1.1-2-2.4-2.7-3.4c-0.8-1.1-1.4-2.2-2-3.3C1,10.1,0.6,8.9,0.3,7.7C0.2,7.4,0.2,7.1,0.1,6.8
	L0,6.1L0,5l0.1-0.3c0-0.2,0.1-0.4,0.1-0.6c0.2-0.7,0.6-1.2,1-1.6l0.3-0.3C2,1.8,2.4,1.4,2.8,1c0.9-0.7,1.7-1.1,2.7-1
	c0.7,0.1,1.4,0.4,2.1,1C8.5,1.8,9.3,2.8,10,4c0.4,0.8,0.9,1.9,0.4,3.1C10.2,7.5,10,7.9,9.6,8.4c-0.3,0.4-0.7,0.8-1,1.1
	c-0.2,0.2-0.3,0.4-0.2,0.8c0.2,0.6,0.6,1.2,0.9,1.7c0.9,1.3,2,2.5,3.5,3.9c0.8,0.8,1.6,1.5,2.4,2.1c0.6,0.5,1.3,1,2.1,1.3
	c0.2,0.1,0.3,0.1,0.5,0.1c0.2,0,0.3,0,0.5-0.2c0.4-0.4,0.9-0.9,1.4-1.3c0.9-0.7,1.9-0.9,3-0.6c0.8,0.2,1.6,0.7,2.5,1.3
	c0.6,0.4,1.1,0.9,1.5,1.3c0.5,0.5,0.8,1,1,1.7c0.3,0.9,0.1,1.9-0.5,2.8c-0.3,0.5-0.7,0.9-1.1,1.3c-0.2,0.2-0.4,0.4-0.5,0.5
	c-0.1,0.1-0.3,0.3-0.4,0.4c-0.6,0.6-1.3,0.9-2.3,1.1C22.8,27.8,22.5,27.8,22.3,27.8z M1.4,6l0.1,0.6c0,0.3,0.1,0.6,0.1,0.8
	c0.2,1.1,0.6,2.2,1.2,3.4C3.4,11.9,4,12.9,4.8,14c0.6,0.9,1.5,2.1,2.5,3.2l0.2,0.2c0.9,1,1.8,1.9,2.8,2.8c0.9,0.8,1.9,1.6,2.9,2.4
	c1,0.7,2.1,1.4,3.3,2.1c1.4,0.7,2.6,1.2,3.7,1.4c0.8,0.2,1.7,0.4,2.6,0.2c0.6-0.1,1.1-0.3,1.4-0.6c0.2-0.2,0.3-0.3,0.5-0.5
	c0.2-0.2,0.3-0.3,0.5-0.5c0.4-0.4,0.7-0.8,1-1.2c0.3-0.5,0.4-1,0.3-1.6c-0.1-0.4-0.3-0.8-0.7-1.1c-0.4-0.4-0.9-0.8-1.4-1.2
	c-0.7-0.6-1.4-0.9-2-1.1c-0.7-0.2-1.2-0.1-1.7,0.4c-0.4,0.4-0.8,0.8-1.3,1.2c-0.5,0.5-1.1,0.7-1.8,0.6c-0.2,0-0.5-0.1-0.7-0.2
	c-1-0.4-1.9-1-2.6-1.6c-0.8-0.7-1.6-1.4-2.5-2.2c-1.6-1.5-2.8-2.8-3.7-4.2c-0.4-0.6-0.8-1.2-1.1-2.1C6.8,9.5,7.2,8.8,7.6,8.5
	c0.3-0.3,0.6-0.6,0.9-1C8.8,7.2,9,6.9,9.1,6.6c0.2-0.5,0.1-1.1-0.3-1.9C8.2,3.6,7.5,2.7,6.7,2C6.2,1.7,5.8,1.5,5.4,1.4
	c-0.5,0-1.1,0.1-1.6,0.6C3.3,2.4,2.9,2.8,2.5,3.2L2.2,3.5c-0.3,0.3-0.6,0.6-0.7,1c0,0.2-0.1,0.4-0.1,0.6l0,0.2V6z"/>
</svg>
