<!-- Generator: Adobe Illustrator 21.1.0, SVG Export Plug-In  -->
<svg version="1.1"
	 xmlns="http://www.w3.org/2000/svg" xmlns:xlink="http://www.w3.org/1999/xlink" xmlns:a="http://ns.adobe.com/AdobeSVGViewerExtensions/3.0/"
	 x="0px" y="0px" width="30.5px" height="29.6px" viewBox="0 0 30.5 29.6" style="enable-background:new 0 0 30.5 29.6;"
	 xml:space="preserve">
<style type="text/css">
	.st0{fill:#273038;}
</style>
<defs>
</defs>
<g>
	<path class="st0" d="M25.8,24.7H4.7C2.1,24.7,0,22.6,0,20V4.7C0,2.1,2.1,0,4.7,0h21.1c2.6,0,4.7,2.1,4.7,4.7V20
		C30.5,22.6,28.4,24.7,25.8,24.7z M4.7,1.4c-1.8,0-3.3,1.5-3.3,3.3V20c0,1.8,1.5,3.3,3.3,3.3h21.1c1.8,0,3.3-1.5,3.3-3.3V4.7
		c0-1.8-1.5-3.3-3.3-3.3H4.7z"/>
	<path class="st0" d="M12.9,17.3c-0.2,0-0.4-0.1-0.5-0.2c-0.3-0.3-0.2-0.7,0-1l4.1-3.8l-4.1-3.8c-0.3-0.3-0.3-0.7,0-1
		c0.3-0.3,0.7-0.3,1,0l4.7,4.3c0.1,0.1,0.2,0.3,0.2,0.5s-0.1,0.4-0.2,0.5l-4.7,4.3C13.3,17.3,13.1,17.3,12.9,17.3z"/>
	<path class="st0" d="M29.8,29.6H0.7c-0.4,0-0.7-0.3-0.7-0.7s0.3-0.7,0.7-0.7h29.1c0.4,0,0.7,0.3,0.7,0.7S30.2,29.6,29.8,29.6z"/>
</g>
</svg>
