<!-- Generator: Adobe Illustrator 21.1.0, SVG Export Plug-In  -->
<svg version="1.1"
	 xmlns="http://www.w3.org/2000/svg" xmlns:xlink="http://www.w3.org/1999/xlink" xmlns:a="http://ns.adobe.com/AdobeSVGViewerExtensions/3.0/"
	 x="0px" y="0px" width="29.1px" height="33.2px" viewBox="0 0 29.1 33.2" style="enable-background:new 0 0 29.1 33.2;"
	 xml:space="preserve">
<style type="text/css">
	.st0{fill:#273038;}
</style>
<defs>
</defs>
<g>
	<path class="st0" d="M16.3,22.2c-1.9,0-3.8-0.8-5.1-2.1L9,17.9c-2.8-2.8-2.8-7.5,0-10.3l6.3-6.3c0.3-0.3,0.7-0.3,1,0s0.3,0.7,0,1
		L9.9,8.6c-2.3,2.3-2.3,6,0,8.3l2.2,2.2c1.1,1.1,2.6,1.7,4.2,1.7c1.6,0,3-0.6,4.2-1.7l6.3-6.3c0.3-0.3,0.7-0.3,1,0s0.3,0.7,0,1
		l-6.3,6.3C20.1,21.5,18.3,22.2,16.3,22.2z"/>
	<path class="st0" d="M27.3,14c-0.2,0-0.4-0.1-0.5-0.2L15.3,2.3c-0.3-0.3-0.3-0.7,0-1s0.7-0.3,1,0l11.5,11.5c0.3,0.3,0.3,0.7,0,1
		C27.6,13.9,27.4,14,27.3,14z"/>
	<path class="st0" d="M18.5,5.2c-0.2,0-0.4-0.1-0.5-0.2c-0.3-0.3-0.3-0.7,0-1l3.8-3.8c0.3-0.3,0.7-0.3,1,0s0.3,0.7,0,1L19,5
		C18.9,5.2,18.7,5.2,18.5,5.2z"/>
	<path class="st0" d="M24.5,11.3c-0.2,0-0.4-0.1-0.5-0.2c-0.3-0.3-0.3-0.7,0-1l3.8-3.8c0.3-0.3,0.7-0.3,1,0s0.3,0.7,0,1L25,11.1
		C24.9,11.2,24.7,11.3,24.5,11.3z"/>
	<path class="st0" d="M9.2,23.3c-0.2,0-0.4-0.1-0.5-0.2l-2.7-2.7c-0.3-0.3-0.3-0.7,0-1l2.7-2.7c0.3-0.3,0.7-0.3,1,0s0.3,0.7,0,1
		l-2.2,2.2l1.8,1.8l2.2-2.2c0.3-0.3,0.7-0.3,1,0s0.3,0.7,0,1l-2.7,2.7C9.5,23.3,9.4,23.3,9.2,23.3z"/>
	<path class="st0" d="M9.7,33.2c-0.2,0-0.4-0.1-0.5-0.2c-0.3-0.3-0.3-0.7,0-1l2.7-2.7c0.3-0.3,0.4-0.6,0.4-0.9s-0.1-0.6-0.4-0.9
		c-0.5-0.5-1.2-0.5-1.8,0l-4.4,4.4c-1.4,1.4-3.5,1.4-4.8,0c-1.4-1.4-1.4-3.5,0-4.8l6.3-6.3c0.3-0.3,0.7-0.3,1,0s0.3,0.7,0,1L2,28
		c-0.8,0.8-0.8,2,0,2.8c0.8,0.8,2,0.8,2.8,0l4.4-4.4c1-1,2.7-1,3.7,0c0.5,0.5,0.8,1.2,0.8,1.9c0,0.7-0.3,1.3-0.8,1.9L10.2,33
		C10.1,33.1,9.9,33.2,9.7,33.2z"/>
</g>
</svg>
