<!-- Generator: Adobe Illustrator 21.1.0, SVG Export Plug-In  -->
<svg version="1.1"
	 xmlns="http://www.w3.org/2000/svg" xmlns:xlink="http://www.w3.org/1999/xlink" xmlns:a="http://ns.adobe.com/AdobeSVGViewerExtensions/3.0/"
	 x="0px" y="0px" width="92px" height="107.9px" viewBox="0 0 92 107.9" style="enable-background:new 0 0 92 107.9;"
	 xml:space="preserve">
<style type="text/css">
	.st0{fill:#273038;}
	.st1{fill:#D90021;}
</style>
<defs>
</defs>
<g>
	<path class="st0" d="M89,107.9H3c-1.7,0-3-1.3-3-3V3c0-1.7,1.3-3,3-3h86c1.7,0,3,1.3,3,3v101.9C92,106.6,90.7,107.9,89,107.9z M3,2
		C2.4,2,2,2.4,2,3v101.9c0,0.6,0.4,1,1,1h86c0.6,0,1-0.4,1-1V3c0-0.6-0.4-1-1-1H3z"/>
	<g>
		<path class="st0" d="M71.2,32.4H35.4c-0.6,0-1-0.4-1-1s0.4-1,1-1h35.7c0.6,0,1,0.4,1,1S71.7,32.4,71.2,32.4z"/>
		<path class="st0" d="M71.2,55.9H35.4c-0.6,0-1-0.4-1-1s0.4-1,1-1h35.7c0.6,0,1,0.4,1,1S71.7,55.9,71.2,55.9z"/>
		<path class="st0" d="M71.2,77.6H35.4c-0.6,0-1-0.4-1-1s0.4-1,1-1h35.7c0.6,0,1,0.4,1,1S71.7,77.6,71.2,77.6z"/>
	</g>
	<path class="st1" d="M19.3,33.2c0.1-0.1,0.1-0.2,0.2-0.2c2.1-2.1,4.2-4.2,6.3-6.3c0.5-0.5,1.2-0.6,1.8-0.3c0.7,0.4,0.9,1.4,0.4,2.1
		c-0.1,0.1-0.1,0.2-0.2,0.3c-2.5,2.5-4.9,4.9-7.4,7.4c-0.6,0.6-1.2,0.7-1.8,0.3c-0.1-0.1-0.2-0.2-0.4-0.3c-1.3-1.2-2.5-2.5-3.8-3.8
		c-0.6-0.6-0.7-1.4-0.1-2c0.5-0.6,1.4-0.7,1.9-0.2c0.1,0.1,0.2,0.2,0.3,0.3c0.9,0.9,1.7,1.7,2.6,2.6C19.2,33,19.2,33.1,19.3,33.2z"
		/>
	<path class="st1" d="M19.3,56.7c0.1-0.1,0.1-0.2,0.2-0.2c2.1-2.1,4.2-4.2,6.3-6.3c0.5-0.5,1.2-0.6,1.8-0.3c0.7,0.4,0.9,1.4,0.4,2.1
		c-0.1,0.1-0.1,0.2-0.2,0.3c-2.5,2.5-4.9,4.9-7.4,7.4c-0.6,0.6-1.2,0.7-1.8,0.3c-0.1-0.1-0.2-0.2-0.4-0.3c-1.3-1.2-2.5-2.5-3.8-3.8
		c-0.6-0.6-0.7-1.4-0.1-2c0.5-0.6,1.4-0.7,1.9-0.2c0.1,0.1,0.2,0.2,0.3,0.3c0.9,0.9,1.7,1.7,2.6,2.6C19.2,56.5,19.2,56.6,19.3,56.7z
		"/>
	<path class="st1" d="M19.3,78.4c0.1-0.1,0.1-0.2,0.2-0.2c2.1-2.1,4.2-4.2,6.3-6.3c0.5-0.5,1.2-0.6,1.8-0.3c0.7,0.4,0.9,1.4,0.4,2.1
		c-0.1,0.1-0.1,0.2-0.2,0.3c-2.5,2.5-4.9,4.9-7.4,7.4c-0.6,0.6-1.2,0.7-1.8,0.3c-0.1-0.1-0.2-0.2-0.4-0.3c-1.3-1.2-2.5-2.5-3.8-3.8
		c-0.6-0.6-0.7-1.4-0.1-2c0.5-0.6,1.4-0.7,1.9-0.2c0.1,0.1,0.2,0.2,0.3,0.3c0.9,0.9,1.7,1.7,2.6,2.6C19.2,78.2,19.2,78.3,19.3,78.4z
		"/>
</g>
</svg>
