<svg width="30" height="31" viewBox="0 0 30 31" fill="none" xmlns="http://www.w3.org/2000/svg">
<g clip-path="url(#clip0_424_2649)">
<path fill-rule="evenodd" clip-rule="evenodd" d="M2.8125 3.06763C2.8125 1.8595 3.79188 0.880127 5 0.880127H25C26.2081 0.880127 27.1875 1.8595 27.1875 3.06763V28.0676C27.1875 29.2757 26.2081 30.2551 25 30.2551H5C3.79188 30.2551 2.8125 29.2758 2.8125 28.0676V3.06763ZM5 2.75513C4.82741 2.75513 4.6875 2.89504 4.6875 3.06763V28.0676C4.6875 28.2402 4.82741 28.3801 5 28.3801H25C25.1726 28.3801 25.3125 28.2402 25.3125 28.0676V3.06763C25.3125 2.89504 25.1726 2.75513 25 2.75513H5Z" fill="#13A4AE"/>
<path fill-rule="evenodd" clip-rule="evenodd" d="M11.5625 25.5676C11.5625 25.0499 11.9822 24.6301 12.5 24.6301H17.5C18.0178 24.6301 18.4375 25.0499 18.4375 25.5676C18.4375 26.0854 18.0178 26.5051 17.5 26.5051H12.5C11.9822 26.5051 11.5625 26.0854 11.5625 25.5676Z" fill="#13A4AE"/>
<path fill-rule="evenodd" clip-rule="evenodd" d="M15 6.50513C14.1371 6.50513 13.4375 7.20468 13.4375 8.06763C13.4375 8.93057 14.1371 9.63013 15 9.63013C15.8629 9.63013 16.5625 8.93057 16.5625 8.06763C16.5625 7.20468 15.8629 6.50513 15 6.50513ZM11.5625 8.06763C11.5625 6.16915 13.1015 4.63013 15 4.63013C16.8985 4.63013 18.4375 6.16915 18.4375 8.06763C18.4375 9.6411 17.3803 10.9677 15.9375 11.3757V13.3782H20C20.5178 13.3782 20.9375 13.7979 20.9375 14.3157V17.2595C22.3803 17.6676 23.4375 18.9942 23.4375 20.5676C23.4375 22.4661 21.8985 24.0051 20 24.0051C18.1015 24.0051 16.5625 22.4661 16.5625 20.5676C16.5625 18.9942 17.6197 17.6676 19.0625 17.2595V15.2532H15H10.9375V17.2595C12.3803 17.6676 13.4375 18.9942 13.4375 20.5676C13.4375 22.4661 11.8985 24.0051 10 24.0051C8.10152 24.0051 6.5625 22.4661 6.5625 20.5676C6.5625 18.9942 7.61968 17.6676 9.0625 17.2595V14.3157C9.0625 13.7979 9.48223 13.3782 10 13.3782H14.0625V11.3757C12.6197 10.9677 11.5625 9.6411 11.5625 8.06763ZM8.4375 20.5676C8.4375 19.7047 9.13706 19.0051 10 19.0051C10.8629 19.0051 11.5625 19.7047 11.5625 20.5676C11.5625 21.4306 10.8629 22.1301 10 22.1301C9.13706 22.1301 8.4375 21.4306 8.4375 20.5676ZM18.4375 20.5676C18.4375 19.7047 19.1371 19.0051 20 19.0051C20.8629 19.0051 21.5625 19.7047 21.5625 20.5676C21.5625 21.4306 20.8629 22.1301 20 22.1301C19.1371 22.1301 18.4375 21.4306 18.4375 20.5676Z" fill="#13A4AE"/>
</g>
<defs>
<clipPath id="clip0_424_2649">
<rect width="30" height="30" fill="white" transform="translate(0 0.567627)"/>
</clipPath>
</defs>
</svg>
