<svg width="44" height="43" viewBox="0 0 44 43" fill="none" xmlns="http://www.w3.org/2000/svg">
<path fill-rule="evenodd" clip-rule="evenodd" d="M21.9852 3.01173e-08C22.3512 -7.66347e-05 22.7019 0.146214 22.9594 0.406277L43.0651 20.7174C43.4541 21.1103 43.5687 21.6986 43.3558 22.2089C43.1429 22.7193 42.6442 23.0516 42.0912 23.0516H38.4435V41.5728C38.4435 41.9367 38.2987 42.2857 38.0411 42.5428C37.7834 42.7998 37.4341 42.9438 37.0702 42.943L6.91162 42.8759C6.15604 42.8742 5.54441 42.2612 5.54441 41.5056V23.0516H1.89667C1.34382 23.0516 0.845128 22.7194 0.632158 22.2092C0.419188 21.699 0.533665 21.1108 0.922432 20.7178L21.0113 0.406686C21.2686 0.146515 21.6193 7.6695e-05 21.9852 3.01173e-08ZM21.9859 3.31845L5.17922 20.3111H6.91467C7.67145 20.3111 8.28494 20.9246 8.28494 21.6813V40.1384L35.7029 40.1994V21.6813C35.7029 20.9246 36.3164 20.3111 37.0732 20.3111H38.8067L21.9859 3.31845Z" fill="white"/>
<g clip-path="url(#clip0_112_64992)">
<path d="M26.9455 24.0635C25.758 22.949 24.1685 23.0038 24.0771 23.0038H18.7239C18.2672 23.0038 17.9383 22.9124 17.7374 22.7115C17.4633 22.4374 17.4085 21.9441 17.4268 21.7066V19.0391C17.4268 18.5824 17.5364 18.2535 17.7191 18.0526C17.9931 17.7785 18.4864 17.742 18.7239 17.742H24.0588C25.1368 17.742 25.3195 18.7103 25.356 19.1305C25.4108 19.8796 26.0503 20.446 26.7994 20.4094C27.5485 20.3729 28.1331 19.7151 28.0966 18.9661C28.0052 17.3766 26.8542 15.0014 24.0588 15.0014H22.7617V13.7042C22.7617 12.9552 22.1405 12.334 21.3914 12.334C20.6423 12.334 20.0211 12.9552 20.0211 13.7042V15.0014H18.797C18.6143 15.0014 17.0248 14.9466 15.8373 16.0611C15.3257 16.5544 14.6862 17.4862 14.6862 19.0391V21.6335C14.6862 21.8162 14.6314 23.4057 15.7459 24.5933C16.2392 25.1231 17.171 25.7626 18.7239 25.7626H24.1137C24.2781 25.726 24.7714 25.7991 25.0637 26.0732C25.2647 26.2742 25.356 26.603 25.356 27.0598V29.6541C25.356 29.8917 25.2281 31.0244 24.0588 31.0244H18.8153C18.3951 30.9879 17.4268 30.8052 17.4268 29.7272C17.4268 28.9781 16.8056 28.357 16.0565 28.357C15.3074 28.357 14.6862 28.9599 14.6862 29.709C14.6862 32.5226 17.0614 33.6736 18.7239 33.7467H20.0211V35.0438C20.0211 35.7929 20.6423 36.4141 21.3914 36.4141C22.1405 36.4141 22.7617 35.7929 22.7617 35.0438V33.7467H24.0588C26.8542 33.7467 28.0052 31.3715 28.0966 29.709V27.0415C28.0966 25.4885 27.4571 24.5568 26.9273 24.0635H26.9455Z" fill="white"/>
</g>
<defs>
<clipPath id="clip0_112_64992">
<rect width="13.4103" height="24.0984" fill="white" transform="translate(14.6858 12.334)"/>
</clipPath>
</defs>
</svg>
