<svg width="50" height="50" viewBox="0 0 50 50" fill="none" xmlns="http://www.w3.org/2000/svg">
<path d="M17.6456 41.9256L17.5726 41.8525L42.1924 17.1777L47.1834 22.1799L47.8985 1.42502L27.2045 2.14171L32.1956 7.14396L7.56125 31.8334L7.48828 31.7603L32.0497 7.14396L26.971 2.05395L27.0878 2.03933L48.0007 1.32263V1.38114L47.2856 22.414L47.198 22.3262L42.1924 17.324L17.6456 41.9256Z" stroke="white" stroke-width="2.5" stroke-linecap="round" stroke-linejoin="round"/>
<path d="M47.533 28.7911L37.0692 29.1714L39.7545 31.8626L27.9043 43.7393L32.6181 48.449L44.4683 36.5723L47.1535 39.2636L47.533 28.7911Z" stroke="white" stroke-width="2.5" stroke-linecap="round" stroke-linejoin="round"/>
<path d="M21.6287 2.81458L11.1649 3.19486L13.8502 5.90076L2 17.7774L6.69921 22.4871L18.5494 10.6105L21.2346 13.3017L21.6287 2.81458Z" stroke="white" stroke-width="2.5" stroke-linecap="round" stroke-linejoin="round"/>
<path d="M5.49827 34.9433L3.4668 36.9822L3.53909 37.0545L5.57056 35.0157L5.49827 34.9433Z" stroke="white" stroke-width="2.5" stroke-linecap="round" stroke-linejoin="round"/>
<path d="M13.6028 32.7842L2.40625 44.0058L2.47849 44.0782L13.675 32.8566L13.6028 32.7842Z" stroke="white" stroke-width="2.5" stroke-linecap="round" stroke-linejoin="round"/>
<path d="M14.577 37.744L10.498 41.8264L10.5702 41.8988L14.6492 37.8164L14.577 37.744Z" stroke="white" stroke-width="2.5" stroke-linecap="round" stroke-linejoin="round"/>
</svg>
