<svg id="Layer_1" data-name="Layer 1" xmlns="http://www.w3.org/2000/svg" viewBox="0 0 88.44 81.81"><defs><style>.cls-1{fill:#fff;}.cls-2{fill:none;stroke:#fff;stroke-linecap:round;stroke-linejoin:round;stroke-width:2px;}</style></defs><title>aged_between</title><g id="Man"><ellipse class="cls-1" cx="13.72" cy="8.51" rx="7.65" ry="7.51"/><path class="cls-1" d="M233.16,245.89A13.6,13.6,0,0,0,219,232.43a14,14,0,0,0-13.3,14v12.77a.89.89,0,0,0,.33.69l5.39,4.41L216,287.89a3.43,3.43,0,0,0,6.86,0l4.57-23.57,5.39-4.41a.89.89,0,0,0,.33-.69V245.89" transform="translate(-205.73 -210.45)"/></g><g id="Man-2" data-name="Man"><ellipse class="cls-2" cx="73.72" cy="8.51" rx="7.65" ry="7.51"/><path class="cls-2" d="M293.16,245.89A13.6,13.6,0,0,0,279,232.43a14,14,0,0,0-13.3,14v12.77a.89.89,0,0,0,.33.69l5.39,4.41L276,287.89a3.43,3.43,0,0,0,6.86,0l4.57-23.57,5.39-4.41a.89.89,0,0,0,.33-.69V245.89" transform="translate(-205.73 -210.45)"/></g></svg>