<svg id="Layer_1" data-name="Layer 1" xmlns="http://www.w3.org/2000/svg" viewBox="0 0 53.22 70.65"><defs><style>.cls-1{fill:none;stroke:#fff;stroke-miterlimit:10;stroke-width:1.4px;}</style></defs><title>buy_visits</title><path class="cls-1" d="M117.74,41.42A26.11,26.11,0,0,0,92,18.81c-1.43.15-2.87,0.24-4.28,0.46A26,26,0,0,0,66.13,43.9a33.86,33.86,0,0,0,2.43,12.71A81.38,81.38,0,0,0,79.73,76.44c2.37,3.2,5,6.24,7.58,9.23a7.83,7.83,0,0,0,3.18,2.08,5.28,5.28,0,0,0,5.75-1.56c1.83-1.9,3.59-3.86,5.23-5.93,5.61-7.11,10.53-14.64,13.84-23.12,2-5.05,3.15-10.24,2.43-15.72" transform="translate(-65.43 -18.11)"/><path class="cls-1" d="M91.92,57.56a11.39,11.39,0,1,1,11.39-11.39A11.39,11.39,0,0,1,91.92,57.56" transform="translate(-65.43 -18.11)"/></svg>