<svg id="Layer_1" data-name="Layer 1" xmlns="http://www.w3.org/2000/svg" xmlns:xlink="http://www.w3.org/1999/xlink" viewBox="0 0 113.16 113.16"><defs><style>.cls-1,.cls-3,.cls-4,.cls-5,.cls-6,.cls-7,.cls-8{fill:none;}.cls-2{fill:#253039;}.cls-3,.cls-4{stroke:#fff;stroke-linecap:round;stroke-linejoin:round;}.cls-3,.cls-4,.cls-5,.cls-6,.cls-7,.cls-8{stroke-width:1.4px;}.cls-3{stroke-dasharray:2.97 2.97;}.cls-4{stroke-dasharray:2.97 2.97;}.cls-5{stroke:#385eea;}.cls-5,.cls-6,.cls-7,.cls-8{stroke-miterlimit:10;}.cls-6{stroke:url(#New_Pattern_Swatch_2);}.cls-7{stroke:url(#New_Pattern_Swatch_2-5);}.cls-8{stroke:url(#New_Pattern_Swatch_2-9);}</style><pattern id="New_Pattern_Swatch_2" data-name="New Pattern Swatch 2" width="7.06" height="7.06" patternTransform="matrix(0, -0.35, -0.28, 0, 5331.81, -3899.3)" patternUnits="userSpaceOnUse" viewBox="0 0 7.06 7.06"><rect class="cls-1" width="7.06" height="7.06"/><rect class="cls-2" width="7.06" height="7.06"/></pattern><pattern id="New_Pattern_Swatch_2-5" data-name="New Pattern Swatch 2" width="7.06" height="7.06" patternTransform="matrix(0, -0.35, -0.28, 0, 5331.61, -3902.02)" patternUnits="userSpaceOnUse" viewBox="0 0 7.06 7.06"><rect class="cls-1" width="7.06" height="7.06"/><rect class="cls-2" width="7.06" height="7.06"/></pattern><pattern id="New_Pattern_Swatch_2-9" data-name="New Pattern Swatch 2" width="7.06" height="7.06" patternTransform="matrix(0, -0.35, -0.28, 0, 5330.59, -3900.96)" patternUnits="userSpaceOnUse" viewBox="0 0 7.06 7.06"><rect class="cls-1" width="7.06" height="7.06"/><rect class="cls-2" width="7.06" height="7.06"/></pattern></defs><title>buyers_search</title><circle class="cls-3" cx="56.58" cy="56.58" r="55.88"/><circle class="cls-4" cx="56.58" cy="56.58" r="34.05"/><path class="cls-5" d="M71.2,54.59a11.5,11.5,0,0,0-11.32-10c-.63.07-1.26.11-1.89.2a11.44,11.44,0,0,0-9.52,10.85,14.91,14.91,0,0,0,1.07,5.6A35.84,35.84,0,0,0,54.46,70c1,1.41,2.18,2.75,3.34,4.07a3.45,3.45,0,0,0,1.4.92,2.32,2.32,0,0,0,2.53-.69c.8-.84,1.58-1.7,2.3-2.61a40,40,0,0,0,6.1-10.18,13.9,13.9,0,0,0,1.07-6.92" transform="translate(-3.3 -3.3)"/><path class="cls-5" d="M59.83,61.7a5,5,0,1,1,5-5,5,5,0,0,1-5,5" transform="translate(-3.3 -3.3)"/><path class="cls-6" d="M110.63,50a6.81,6.81,0,0,0-6.7-5.89c-.37,0-.75.06-1.12.12a6.77,6.77,0,0,0-5.64,6.42A8.83,8.83,0,0,0,97.81,54a21.22,21.22,0,0,0,2.91,5.17c.62.83,1.29,1.63,2,2.41a2,2,0,0,0,.83.54,1.38,1.38,0,0,0,1.5-.41c.48-.49.94-1,1.36-1.55a23.68,23.68,0,0,0,3.61-6,8.23,8.23,0,0,0,.63-4.1" transform="translate(-3.3 -3.3)"/><path class="cls-6" d="M103.9,54.2a3,3,0,1,1,3-3,3,3,0,0,1-3,3" transform="translate(-3.3 -3.3)"/><path class="cls-7" d="M45.19,9.9A6.81,6.81,0,0,0,38.48,4c-.37,0-.75.06-1.12.12a6.77,6.77,0,0,0-5.64,6.42,8.83,8.83,0,0,0,.63,3.31A21.22,21.22,0,0,0,35.27,19c.62.83,1.29,1.63,2,2.41a2,2,0,0,0,.83.54,1.38,1.38,0,0,0,1.5-.41c.48-.49.94-1,1.36-1.55a23.68,23.68,0,0,0,3.61-6,8.23,8.23,0,0,0,.63-4.1" transform="translate(-3.3 -3.3)"/><path class="cls-7" d="M38.45,14.11a3,3,0,1,1,3-3,3,3,0,0,1-3,3" transform="translate(-3.3 -3.3)"/><path class="cls-8" d="M48.13,85.72a6.81,6.81,0,0,0-6.7-5.89c-.37,0-.75.06-1.12.12a6.77,6.77,0,0,0-5.64,6.42,8.83,8.83,0,0,0,.63,3.31,21.22,21.22,0,0,0,2.91,5.17c.62.83,1.29,1.63,2,2.41a2,2,0,0,0,.83.54,1.38,1.38,0,0,0,1.5-.41c.48-.49.94-1,1.36-1.55a23.68,23.68,0,0,0,3.61-6,8.23,8.23,0,0,0,.63-4.1" transform="translate(-3.3 -3.3)"/><path class="cls-8" d="M41.39,89.93a3,3,0,1,1,3-3,3,3,0,0,1-3,3" transform="translate(-3.3 -3.3)"/></svg>