<svg id="Layer_1" data-name="Layer 1" xmlns="http://www.w3.org/2000/svg" viewBox="0 0 99.51 99.51"><defs><style>.cls-1,.cls-2{fill:none;}.cls-1{stroke:#fff;stroke-linecap:round;stroke-linejoin:round;stroke-width:1.4px;}</style></defs><title>consumers_prefer</title><polyline class="cls-1" points="57.02 86.24 35.69 86.24 12.37 86.24 12.37 33.09"/><line class="cls-1" x1="78.46" y1="33.09" x2="78.46" y2="54.88"/><path id="Stroke-3392" class="cls-1" d="M108.94,87A22,22,0,1,1,87,65a22,22,0,0,1,22,22Z" transform="translate(-10.12 -10.13)"/><path id="Line" class="cls-1" d="M87,75.89V98.45" transform="translate(-10.12 -10.13)"/><polyline class="cls-1" points="0.7 43.47 45.41 0.7 90.13 43.47"/><path class="cls-2" d="M93.2,79.29a5,5,0,0,0-1-1.57,4.87,4.87,0,0,0-1.54-1.06,4.71,4.71,0,0,0-1.88-.39H85.21a4.71,4.71,0,0,0-1.88.39,4.87,4.87,0,0,0-1.54,1.06,5,5,0,0,0-1.42,3.5h0a5,5,0,0,0,1.42,3.5,4.87,4.87,0,0,0,1.54,1.06,4.71,4.71,0,0,0,1.88.39h3.52a4.71,4.71,0,0,1,1.88.39,4.87,4.87,0,0,1,1.54,1.06,5,5,0,0,1,1.42,3.5h0a5,5,0,0,1-1.42,3.5,4.87,4.87,0,0,1-1.54,1.06,4.71,4.71,0,0,1-1.88.39H85.21a4.71,4.71,0,0,1-1.88-.39,4.87,4.87,0,0,1-1.54-1.06,5,5,0,0,1-1-1.57" transform="translate(-10.12 -10.13)"/><line class="cls-2" x1="76.85" y1="63.93" x2="76.85" y2="88.15"/></svg>