<svg id="Layer_1" data-name="Layer 1" xmlns="http://www.w3.org/2000/svg" xmlns:xlink="http://www.w3.org/1999/xlink" viewBox="0 0 84.41 73.58"><defs><style>.cls-1,.cls-3,.cls-4{fill:none;}.cls-2{fill:#253039;}.cls-3{stroke:#fff;}.cls-3,.cls-4{stroke-linecap:round;stroke-linejoin:round;stroke-width:1.4px;}.cls-4{stroke:url(#New_Pattern_Swatch_2);}</style><pattern id="New_Pattern_Swatch_2" data-name="New Pattern Swatch 2" width="7.06" height="7.06" patternTransform="matrix(0, -0.35, -0.28, 0, 5126.17, -4121.52)" patternUnits="userSpaceOnUse" viewBox="0 0 7.06 7.06"><rect class="cls-1" width="7.06" height="7.06"/><rect class="cls-2" width="7.06" height="7.06"/></pattern></defs><title>grow_wealth</title><polygon class="cls-3" points="25.96 72.88 0.7 72.88 4.31 58.44 22.35 58.44 25.96 72.88"/><polygon class="cls-3" points="83.71 72.88 58.44 72.88 62.05 58.44 80.1 58.44 83.71 72.88"/><polygon class="cls-3" points="54.84 72.88 29.57 72.88 33.18 58.44 51.23 58.44 54.84 72.88"/><polygon class="cls-4" points="69.27 54.84 44.01 54.84 47.62 40.4 65.66 40.4 69.27 54.84"/><polygon class="cls-3" points="54.84 36.79 29.57 36.79 33.18 22.35 51.23 22.35 54.84 36.79"/><polygon class="cls-4" points="40.4 54.84 15.14 54.84 18.75 40.4 36.79 40.4 40.4 54.84"/><line class="cls-3" x1="42.2" y1="0.7" x2="42.2" y2="7.92"/><line class="cls-3" x1="71.55" y1="12.86" x2="66.45" y2="17.96"/><line class="cls-3" x1="17.96" y1="17.96" x2="12.86" y2="12.86"/><line class="cls-3" x1="58.09" y1="3.86" x2="55.32" y2="10.53"/><line class="cls-3" x1="10.53" y1="29.08" x2="3.86" y2="26.32"/><line class="cls-3" x1="80.55" y1="26.32" x2="73.88" y2="29.08"/><line class="cls-3" x1="29.08" y1="10.53" x2="26.32" y2="3.86"/></svg>