<svg id="Layer_1" data-name="Layer 1" xmlns="http://www.w3.org/2000/svg" xmlns:xlink="http://www.w3.org/1999/xlink" viewBox="0 0 74.13 74.13"><defs><style>.cls-1,.cls-3,.cls-4,.cls-5{fill:none;}.cls-2{fill:#253039;}.cls-3{stroke:#fff;}.cls-3,.cls-4,.cls-5{stroke-linecap:round;stroke-linejoin:round;stroke-width:1.4px;}.cls-4{stroke:url(#New_Pattern_Swatch_2);}.cls-5{stroke:url(#New_Pattern_Swatch_2-11);}</style><pattern id="New_Pattern_Swatch_2" data-name="New Pattern Swatch 2" width="7.06" height="7.06" patternTransform="matrix(0, -0.35, -0.28, 0, 5121.62, -4121.52)" patternUnits="userSpaceOnUse" viewBox="0 0 7.06 7.06"><rect class="cls-1" width="7.06" height="7.06"/><rect class="cls-2" width="7.06" height="7.06"/></pattern><pattern id="New_Pattern_Swatch_2-11" data-name="New Pattern Swatch 2" width="7.06" height="7.06" patternTransform="matrix(0, -0.35, -0.28, 0, 5334.55, -3907.2)" patternUnits="userSpaceOnUse" viewBox="0 0 7.06 7.06"><rect class="cls-1" width="7.06" height="7.06"/><rect class="cls-2" width="7.06" height="7.06"/></pattern></defs><title>income_protection</title><path class="cls-3" d="M220,227.67v-9.49a3.17,3.17,0,0,1,3.16-3.16H283.2a3.17,3.17,0,0,1,3.16,3.16v66.4a3.17,3.17,0,0,1-3.16,3.16H223.12a3.17,3.17,0,0,1-3.16-3.16V275.1" transform="translate(-212.94 -214.32)"/><line class="cls-3" x1="7.02" y1="51.29" x2="7.02" y2="22.83"/><rect class="cls-3" x="0.7" y="13.35" width="12.65" height="9.49" rx="0.5" ry="0.5"/><rect class="cls-3" x="0.7" y="51.29" width="12.65" height="9.49" rx="0.5" ry="0.5"/><circle class="cls-4" cx="40.23" cy="37.06" r="7.91"/><circle class="cls-4" cx="40.23" cy="21.25" r="1.58"/><circle class="cls-4" cx="40.23" cy="52.87" r="1.58"/><circle class="cls-4" cx="56.04" cy="37.06" r="1.58"/><circle class="cls-4" cx="24.42" cy="37.06" r="1.58"/><circle class="cls-5" cx="264.34" cy="240.2" r="1.58" transform="translate(-305.36 42.95) rotate(-45)"/><circle class="cls-5" cx="241.98" cy="262.56" r="1.58" transform="translate(-327.72 33.69) rotate(-45)"/><circle class="cls-5" cx="264.34" cy="262.56" r="1.58" transform="translate(-321.17 49.5) rotate(-45)"/><circle class="cls-5" cx="241.98" cy="240.2" r="1.58" transform="translate(-311.91 27.14) rotate(-45)"/><path class="cls-3" d="M286.36,259.29H275.49a23.72,23.72,0,1,1,0-15.81h10.88" transform="translate(-212.94 -214.32)"/></svg>