<svg id="Layer_1" data-name="Layer 1" xmlns="http://www.w3.org/2000/svg" viewBox="0 0 159.2 171.48"><defs><style>.cls-1,.cls-3{fill:none;stroke:#fff;stroke-width:2px;}.cls-1{stroke-linecap:round;stroke-linejoin:round;}.cls-2{fill:#fff;}.cls-3{stroke-miterlimit:10;}</style></defs><title>icon1</title><path id="Stroke-3392" class="cls-1" d="M159.2,136.73A34.75,34.75,0,1,1,124.44,102a34.76,34.76,0,0,1,34.75,34.75h0Z" transform="translate(-1 -1)"/><path class="cls-2" d="M136.21,121.16h2.44L113.71,154h-2.44Zm-24.84,5.59a6.13,6.13,0,1,1,6.1,6.1A6.13,6.13,0,0,1,111.36,126.75Zm10.24,0a4.11,4.11,0,1,0-8.22,0A4.11,4.11,0,1,0,121.6,126.75Zm10.71,15.59a6.13,6.13,0,1,1,0,12.26A6.13,6.13,0,0,1,132.31,142.34Zm0,10.38a4.25,4.25,0,1,0-4.09-4.23A4.13,4.13,0,0,0,132.31,152.72Z" transform="translate(-1 -1)"/><polyline class="cls-1" points="88.69 135.73 19.37 135.73 19.37 52.01"/><path class="cls-1" d="M124.48,53" transform="translate(-1 -1)"/><polyline class="cls-1" points="1 68.36 71.43 1 141.85 68.36"/><path class="cls-3" d="M124.48,89.4" transform="translate(-1 -1)"/><path class="cls-3" d="M165.22,89.14" transform="translate(-1 -1)"/><line class="cls-3" x1="123.48" y1="52.01" x2="123.48" y2="100.98"/></svg>