<svg id="Layer_1" data-name="Layer 1" xmlns="http://www.w3.org/2000/svg" viewBox="0 0 145.33 139.1"><defs><style>.cls-1{fill:none;stroke:#fff;stroke-linecap:round;stroke-linejoin:round;stroke-width:2px;}</style></defs><title>life_stage</title><polyline class="cls-1" points="1 69.55 72.67 1 144.33 69.55"/><polyline class="cls-1" points="125.63 52.91 125.63 138.1 88.24 138.1 57.09 138.1 19.7 138.1 19.7 52.91"/><g id="Man"><ellipse class="cls-1" cx="82.06" cy="95.81" rx="3.79" ry="3.72"/><path class="cls-1" d="M94.18,117.59a6.73,6.73,0,0,0-7-6.66,6.9,6.9,0,0,0-6.58,6.94v6.32a.44.44,0,0,0,.16.34l2.66,2.18,2.26,11.66a1.7,1.7,0,0,0,3.39,0l2.26-11.66L94,124.52a.44.44,0,0,0,.16-.34v-6.6" transform="translate(-5.34 -8.45)"/></g><g id="Man-2" data-name="Man"><ellipse class="cls-1" cx="63.27" cy="95.81" rx="3.79" ry="3.72"/><path class="cls-1" d="M75.39,117.59a6.73,6.73,0,0,0-7-6.66,6.9,6.9,0,0,0-6.58,6.94v6.32a.44.44,0,0,0,.16.34l2.66,2.18,2.26,11.66a1.7,1.7,0,0,0,3.39,0l2.26-11.66,2.66-2.18a.44.44,0,0,0,.16-.34v-6.6" transform="translate(-5.34 -8.45)"/></g><g id="Man-3" data-name="Man"><ellipse class="cls-1" cx="41.66" cy="80.27" rx="5.43" ry="5.33"/><path class="cls-1" d="M56.73,107.83a9.65,9.65,0,0,0-10-9.55,9.9,9.9,0,0,0-9.44,10v9.06a.63.63,0,0,0,.23.49l3.82,3.13,3.24,16.72a2.43,2.43,0,0,0,4.87,0l3.24-16.72,3.82-3.13a.63.63,0,0,0,.23-.49v-9.46" transform="translate(-5.34 -8.45)"/></g><g id="Man-4" data-name="Man"><ellipse class="cls-1" cx="103.67" cy="80.27" rx="5.43" ry="5.33"/><path class="cls-1" d="M118.74,107.83a9.65,9.65,0,0,0-10-9.55,9.9,9.9,0,0,0-9.44,10v9.06a.63.63,0,0,0,.23.49l3.82,3.13,3.24,16.72a2.43,2.43,0,0,0,4.87,0l3.24-16.72,3.82-3.13a.63.63,0,0,0,.23-.49v-9.46" transform="translate(-5.34 -8.45)"/></g></svg>