<svg xmlns="http://www.w3.org/2000/svg" viewBox="0 0 93.15 87.55"><defs><style>.cls-1{fill:none;stroke:#273038;stroke-width:1.4px;}.cls-1,.cls-2{stroke-miterlimit:10;}.cls-2{fill:#c5c9cf;stroke:#fff;}</style></defs><title>manage_repairs</title><g id="Layer_2" data-name="Layer 2"><g id="graphics"><path class="cls-1" d="M40.74,28.11a21.12,21.12,0,0,0,1-9.51A20.67,20.67,0,0,0,23.66.85a20.05,20.05,0,0,0-7.83.6L28,13.62a3.78,3.78,0,0,1,0,5.32L18.94,28a3.78,3.78,0,0,1-5.32,0L1.45,15.83a20.05,20.05,0,0,0-.6,7.83A20.67,20.67,0,0,0,18.6,41.71a21.12,21.12,0,0,0,9.51-1"/><path class="cls-1" d="M40.74,28.11,84.22,71.6A8.93,8.93,0,1,1,71.6,84.22L28.11,40.74A20.67,20.67,0,0,0,40.74,28.11Z"/><circle class="cls-1" cx="77.48" cy="77.48" r="1.87"/><path class="cls-2" d="M41.43,46.64l-2.51-2.51a3.57,3.57,0,0,0-5.06,0L11,67a3.62,3.62,0,0,0,0,5.1L21.15,82.21a3.62,3.62,0,0,0,5.1,0L49.07,59.35a3.57,3.57,0,0,0,0-5.06l-2.51-2.51Z"/><polyline class="cls-2" points="46.56 51.77 76.81 21.56 81.08 25.83 92.5 9.86 83.35 0.7 67.38 12.12 71.68 16.42 41.43 46.64"/><line class="cls-2" x1="30.12" y1="78.3" x2="14.91" y2="63.08"/></g></g></svg>