<svg id="Layer_1" data-name="Layer 1" xmlns="http://www.w3.org/2000/svg" xmlns:xlink="http://www.w3.org/1999/xlink" viewBox="0 0 145.58 82.69"><defs><style>.cls-1,.cls-3,.cls-4,.cls-5,.cls-6{fill:none;}.cls-2{fill:#26313a;}.cls-3{stroke:#fff;}.cls-3,.cls-4,.cls-5,.cls-6{stroke-linecap:round;stroke-linejoin:round;stroke-width:2px;}.cls-4{stroke:url(#New_Pattern_Swatch_2);}.cls-5{stroke:url(#New_Pattern_Swatch_2-3);}.cls-6{stroke:#0084FF;}</style><pattern id="New_Pattern_Swatch_2" data-name="New Pattern Swatch 2" width="7.06" height="7.06" patternTransform="matrix(0, -0.12, -0.09, 0, 1759.53, -1298.85)" patternUnits="userSpaceOnUse" viewBox="0 0 7.06 7.06"><rect class="cls-1" width="7.06" height="7.06"/><rect class="cls-2" width="7.06" height="7.06"/></pattern><pattern id="New_Pattern_Swatch_2-3" data-name="New Pattern Swatch 2" width="7.06" height="7.06" patternTransform="matrix(0, -0.12, -0.09, 0, 1759.53, -1297.84)" patternUnits="userSpaceOnUse" viewBox="0 0 7.06 7.06"><rect class="cls-1" width="7.06" height="7.06"/><rect class="cls-2" width="7.06" height="7.06"/></pattern></defs><title>mortgage_rates</title><polyline class="cls-3" points="1 62.67 20.89 43.65 40.77 62.67"/><polyline class="cls-3" points="35.58 58.05 35.58 81.69 25.21 81.69 16.56 81.69 6.19 81.69 6.19 58.05"/><polyline class="cls-4" points="52.42 48.45 72.3 29.43 92.19 48.45"/><polyline class="cls-5" points="87 43.83 87 81.69 76.62 81.69 67.98 81.69 57.6 81.69 57.6 43.83"/><polyline class="cls-6" points="104.81 20.02 124.69 1 144.58 20.02"/><polyline class="cls-6" points="139.39 15.4 139.39 81.69 129.01 81.69 120.37 81.69 109.99 81.69 109.99 15.4"/></svg>
