<svg id="Layer_4" data-name="Layer 4" xmlns="http://www.w3.org/2000/svg" xmlns:xlink="http://www.w3.org/1999/xlink" viewBox="0 0 200.1 82.1"><defs><style>.cls-1,.cls-4,.cls-5,.cls-6{fill:none;}.cls-2{fill:#253039;}.cls-3{fill:#0084FF;stroke:#0084FF;}.cls-3,.cls-7{stroke-miterlimit:10;}.cls-4,.cls-5,.cls-6{stroke-linecap:round;stroke-linejoin:round;stroke-width:2px;}.cls-4{stroke:url(#Unnamed_Pattern_3);}.cls-5{stroke:url(#Unnamed_Pattern_3-5);}.cls-6{stroke:#fff;}.cls-7{fill:url(#New_Pattern_Swatch_2);stroke:url(#New_Pattern_Swatch_2-3);}</style><pattern id="Unnamed_Pattern_3" data-name="Unnamed Pattern 3" width="7.06" height="7.06" patternTransform="matrix(0, 7.88, 5.83, 0, -111801.53, -26431.89)" patternUnits="userSpaceOnUse" viewBox="0 0 7.06 7.06"><rect class="cls-1" width="7.06" height="7.06"/><rect class="cls-2" width="7.06" height="7.06"/></pattern><pattern id="Unnamed_Pattern_3-5" data-name="Unnamed Pattern 3" width="7.06" height="7.06" patternTransform="matrix(0, 7.88, 5.83, 0, -111801.53, -26434.06)" patternUnits="userSpaceOnUse" viewBox="0 0 7.06 7.06"><rect class="cls-1" width="7.06" height="7.06"/><rect class="cls-2" width="7.06" height="7.06"/></pattern><pattern id="New_Pattern_Swatch_2" data-name="New Pattern Swatch 2" width="7.06" height="7.06" patternTransform="matrix(0, -0.05, -0.04, 0, 819.65, -605.96)" patternUnits="userSpaceOnUse" viewBox="0 0 7.06 7.06"><rect class="cls-1" width="7.06" height="7.06"/><rect class="cls-2" width="7.06" height="7.06"/></pattern><pattern id="New_Pattern_Swatch_2-3" data-name="New Pattern Swatch 2" width="7.06" height="7.06" patternTransform="matrix(0, -0.35, -0.28, 0, 5333.65, -3899.33)" patternUnits="userSpaceOnUse" viewBox="0 0 7.06 7.06"><rect class="cls-1" width="7.06" height="7.06"/><rect class="cls-2" width="7.06" height="7.06"/></pattern></defs><title>no_address</title><path class="cls-3" d="M136.64,128.54c0-4.2,4.58-4.53,4.58-8.24a3.43,3.43,0,0,0-3.74-3.3,5.8,5.8,0,0,0-3.25,1.07l-.59-.87a6.33,6.33,0,0,1,3.81-1.28c2.94,0,4.91,1.89,4.91,4.4,0,4.25-4.63,4.55-4.63,8.21v1.13h-1.1Zm-.2,4h1.51v1.56h-1.51Z" transform="translate(-4.28 -72.58)"/><path class="cls-3" d="M150.37,128.54c0-4.2,4.58-4.53,4.58-8.24a3.43,3.43,0,0,0-3.74-3.3,5.8,5.8,0,0,0-3.25,1.07l-.59-.87a6.33,6.33,0,0,1,3.81-1.28c2.94,0,4.91,1.89,4.91,4.4,0,4.25-4.63,4.55-4.63,8.21v1.13h-1.1Zm-.2,4h1.51v1.56h-1.51Z" transform="translate(-4.28 -72.58)"/><path class="cls-3" d="M163.74,128.54c0-4.2,4.58-4.53,4.58-8.24a3.43,3.43,0,0,0-3.74-3.3,5.8,5.8,0,0,0-3.25,1.07l-.59-.87a6.33,6.33,0,0,1,3.81-1.28c2.94,0,4.91,1.89,4.91,4.4,0,4.25-4.63,4.55-4.63,8.21v1.13h-1.1Zm-.2,4H165v1.56h-1.51Z" transform="translate(-4.28 -72.58)"/><rect class="cls-4" x="1" y="1" width="198.1" height="80.1" rx="1" ry="1"/><line class="cls-4" x1="85.43" y1="2.95" x2="85.43" y2="79.18"/><polyline class="cls-5" points="21.58 40.82 44.45 18.94 67.33 40.82"/><polyline class="cls-5" points="61.36 35.51 61.36 62.7 49.43 62.7 39.48 62.7 27.55 62.7 27.55 35.51"/><path class="cls-6" d="M126.93,121a8.49,8.49,0,0,0-8.35-7.35c-.46,0-.93.08-1.39.15a8.44,8.44,0,0,0-7,8,11,11,0,0,0,.79,4.13,26.45,26.45,0,0,0,3.63,6.44c.77,1,1.61,2,2.46,3a2.54,2.54,0,0,0,1,.68,1.71,1.71,0,0,0,1.87-.51c.59-.62,1.17-1.26,1.7-1.93a29.51,29.51,0,0,0,4.5-7.51,10.26,10.26,0,0,0,.79-5.11" transform="translate(-4.28 -72.58)"/><path class="cls-6" d="M118.53,126.22a3.7,3.7,0,1,1,3.7-3.7,3.7,3.7,0,0,1-3.7,3.7" transform="translate(-4.28 -72.58)"/><path class="cls-7" d="M111.33,100.6a3.75,3.75,0,0,0,2.6,1.08,2,2,0,0,0,2.17-1.92c0-2.69-5-2.07-5-5a2.64,2.64,0,0,1,2.53-2.49V90.92h.6v1.31a3.49,3.49,0,0,1,2.26.89l-.33.51a3.23,3.23,0,0,0-2.13-.83,2.11,2.11,0,0,0-2.31,1.92c0,2.5,5,1.85,5,5a2.53,2.53,0,0,1-2.51,2.51v1.29h-.6v-1.29a4.08,4.08,0,0,1-2.68-1.19Z" transform="translate(-4.28 -72.58)"/><path class="cls-7" d="M118.93,100.49a2.61,2.61,0,0,0,2.25,1.19,2.56,2.56,0,1,0,0-5.11,3.41,3.41,0,0,0-1.89.58l-.44-.15.56-4.63h4.51v.56h-4l-.35,2.9a5,5,0,0,1-.1.6h0a3.3,3.3,0,0,1,1.67-.44,3.14,3.14,0,1,1,0,6.28,3.27,3.27,0,0,1-2.74-1.4Z" transform="translate(-4.28 -72.58)"/><path class="cls-7" d="M126.36,97.24c0-2.81.81-5,3.28-5s3.28,2.22,3.28,5-.81,5-3.28,5S126.36,100.06,126.36,97.24Zm5.93,0c0-2.5-.58-4.45-2.65-4.45S127,94.74,127,97.24s.58,4.45,2.65,4.45S132.29,99.75,132.29,97.24Z" transform="translate(-4.28 -72.58)"/><path class="cls-7" d="M135,97.24c0-2.81.81-5,3.28-5s3.28,2.22,3.28,5-.81,5-3.28,5S135,100.06,135,97.24Zm5.93,0c0-2.5-.58-4.45-2.65-4.45s-2.65,1.94-2.65,4.45.58,4.45,2.65,4.45S140.93,99.75,140.93,97.24Z" transform="translate(-4.28 -72.58)"/><path class="cls-7" d="M143.53,101.25h.78l-.93,2.15h-.58Z" transform="translate(-4.28 -72.58)"/><path class="cls-7" d="M146.14,97.24c0-2.81.81-5,3.28-5s3.28,2.22,3.28,5-.81,5-3.28,5S146.14,100.06,146.14,97.24Zm5.93,0c0-2.5-.58-4.45-2.65-4.45s-2.65,1.94-2.65,4.45.58,4.45,2.65,4.45S152.07,99.75,152.07,97.24Z" transform="translate(-4.28 -72.58)"/><path class="cls-7" d="M154.78,97.24c0-2.81.81-5,3.28-5s3.28,2.22,3.28,5-.81,5-3.28,5S154.78,100.06,154.78,97.24Zm5.93,0c0-2.5-.58-4.45-2.65-4.45s-2.65,1.94-2.65,4.45.58,4.45,2.65,4.45S160.71,99.75,160.71,97.24Z" transform="translate(-4.28 -72.58)"/><path class="cls-7" d="M163.42,97.24c0-2.81.81-5,3.28-5s3.28,2.22,3.28,5-.81,5-3.28,5S163.42,100.06,163.42,97.24Zm5.93,0c0-2.5-.58-4.45-2.65-4.45S164,94.74,164,97.24s.58,4.45,2.65,4.45S169.35,99.75,169.35,97.24Z" transform="translate(-4.28 -72.58)"/></svg>
