<svg id="Layer_3" data-name="Layer 3" xmlns="http://www.w3.org/2000/svg" viewBox="0 0 128.07 110.28"><defs><style>.cls-1,.cls-3{fill:none;stroke-linecap:round;stroke-linejoin:round;stroke-width:2px;}.cls-1{stroke:#fff;}.cls-2{fill:#93227E;stroke-miterlimit:10;}.cls-2,.cls-3{stroke:#93227E;}</style></defs><title>no_floor_plan</title><path id="Rectangle-20-Copy" class="cls-1" d="M147.17,105.17H93.11V60" transform="translate(-40.3 -58.91)"/><path id="Rectangle-20-Copy-2" class="cls-1" d="M93.11,151.51V129.22" transform="translate(-40.3 -58.91)"/><path class="cls-2" d="M143.7,149c0-4.49,4.9-4.85,4.9-8.82,0-2-1.62-3.53-4-3.53a6.21,6.21,0,0,0-3.48,1.15l-.63-.93a6.77,6.77,0,0,1,4.08-1.37c3.15,0,5.26,2,5.26,4.71,0,4.54-5,4.87-5,8.79v1.2H143.7Zm-.22,4.33h1.62V155h-1.62Z" transform="translate(-40.3 -58.91)"/><path class="cls-1" d="M144.38,122.22a23.19,23.19,0,0,1,2.78.17V72.61a12.7,12.7,0,0,0-12.7-12.7H54a12.7,12.7,0,0,0-12.7,12.7v67.76A12.7,12.7,0,0,0,54,153.07h68.78a23,23,0,0,1,21.6-30.85Z" transform="translate(-40.3 -58.91)"/><path class="cls-3" d="M122.78,153.07a23,23,0,1,0,24.39-30.68" transform="translate(-40.3 -58.91)"/></svg>
