<svg id="Layer_2" data-name="Layer 2" xmlns="http://www.w3.org/2000/svg" viewBox="0 0 171.01 171"><defs><style>.cls-1{fill:none;stroke:#fff;stroke-linecap:round;stroke-linejoin:round;stroke-width:2px;}.cls-2{fill:#fff;}</style></defs><title>no_price</title><path id="Stroke-3392" class="cls-1" d="M188.66,137.5a37.83,37.83,0,1,1-37.83-37.83,37.84,37.84,0,0,1,37.83,37.83Z" transform="translate(-18.65 -5.33)"/><path class="cls-2" d="M149.48,144.47c0-9.79,10.68-10.56,10.68-19.22,0-4.3-3.52-7.7-8.71-7.7a13.53,13.53,0,0,0-7.58,2.51l-1.37-2a14.76,14.76,0,0,1,8.89-3c6.86,0,11.46,4.42,11.46,10.27,0,9.91-10.8,10.62-10.8,19.16v2.63h-2.57ZM149,153.9h3.52v3.64H149Z" transform="translate(-18.65 -5.33)"/><polyline class="cls-1" points="98.02 148.35 61.28 148.35 21.09 148.35 21.09 56.79"/><line class="cls-1" x1="134.96" y1="56.79" x2="134.96" y2="94.33"/><polyline class="cls-1" points="1 74.68 78.03 1 155.05 74.68"/></svg>