<svg id="Layer_1" data-name="Layer 1" xmlns="http://www.w3.org/2000/svg" viewBox="0 0 164.47 137.11"><defs><style>.cls-1{fill:none;}.cls-1,.cls-2{stroke:#fff;stroke-linecap:round;stroke-linejoin:round;stroke-width:1.4px;}.cls-2{fill:#9e247f;}</style></defs><title>poor_quality_photos</title><g id="Photo"><path class="cls-1" d="M271.31,294.88l-79.6-.88c-13.27-.15-23.89-9.6-23.72-21.12l1-70c.17-11.52,11.06-20.75,24.34-20.6l79.6.88c13.27.15,23.89,9.6,23.72,21.12l-1,70C295.48,285.8,284.58,295,271.31,294.88Z" transform="translate(-167.29 -181.59)"/><path class="cls-1" d="M283.35,274.18l-34.08-50.42a.8.8,0,0,0-1.35,0l-27,36.94a.8.8,0,0,1-1.33,0l-14.78-17.48a.8.8,0,0,0-1.33,0l-23,29.65a.8.8,0,0,0,.65,1.26l101.56,1.29A.8.8,0,0,0,283.35,274.18Z" transform="translate(-167.29 -181.59)"/><circle class="cls-1" cx="219.21" cy="222.33" r="12.06" transform="translate(-173.17 257.11) rotate(-89.27)"/></g><circle class="cls-2" cx="132.77" cy="105.41" r="31"/><line class="cls-1" x1="147.15" y1="103.5" x2="144.55" y2="103.5"/><path class="cls-1" d="M314.43,290.29a2.6,2.6,0,0,0,0-5.2" transform="translate(-167.29 -181.59)"/><line class="cls-1" x1="145.87" y1="98.3" x2="143.27" y2="98.3"/><path class="cls-1" d="M313.16,285.09a2.6,2.6,0,0,0,0-5.2" transform="translate(-167.29 -181.59)"/><path class="cls-1" d="M292.54,290.41a62.49,62.49,0,0,1,4.75,5.91,19.44,19.44,0,0,1,1.18,2,5.28,5.28,0,0,1,.47,1.62,42.48,42.48,0,0,1,.35,4.65,1.86,1.86,0,0,0,1,.49c1.41.22,2.75-1.56,3.32-2.71a6.29,6.29,0,0,0,.55-1.7c.2-1.11.43-2.1-.5-5.36l11.47.21a2.59,2.59,0,0,0,2.51-3,2.65,2.65,0,0,0-2.64-2.17h-2.57" transform="translate(-167.29 -181.59)"/><path class="cls-1" d="M310.84,279.89a2.59,2.59,0,0,0,2.51-3,2.65,2.65,0,0,0-2.64-2.17h-9.84a11,11,0,0,0-4.19.83l-4.25,2.76" transform="translate(-167.29 -181.59)"/><rect class="cls-1" x="116.19" y="93.74" width="8.86" height="18.98" rx="2" ry="2"/></svg>