<svg id="Layer_1" data-name="Layer 1" xmlns="http://www.w3.org/2000/svg" viewBox="0 0 235.69 106.6"><defs><style>.cls-1{fill:none;stroke-linecap:round;stroke-linejoin:round;stroke-width:2px;}.cls-1,.cls-2{stroke:#fff;}.cls-2{fill:#fff;stroke-miterlimit:10;stroke-width:0.5px;}</style></defs><title>price_estimates_2</title><rect class="cls-1" x="1" y="1" width="104.6" height="104.6" rx="3" ry="3"/><rect class="cls-1" x="130.09" y="1" width="104.6" height="104.6" rx="3" ry="3"/><path class="cls-2" d="M310,260.52c0-12.55,13.7-13.55,13.7-24.64,0-5.51-4.52-9.87-11.17-9.87a17.35,17.35,0,0,0-9.72,3.21l-1.76-2.6a18.93,18.93,0,0,1,11.4-3.83c8.8,0,14.69,5.66,14.69,13.16,0,12.71-13.85,13.62-13.85,24.57v3.37H310Zm-.61,12.09h4.52v4.67h-4.52Z" transform="translate(-131.7 -196.74)"/><path class="cls-2" d="M174.79,265.88A17.62,17.62,0,0,0,187,271c5.68,0,10.19-3.53,10.19-9,0-12.68-23.59-9.74-23.59-23.72,0-5.62,4.64-10.91,11.89-11.7v-6.21h2.81v6.14A16.4,16.4,0,0,1,199,230.67l-1.57,2.42a15.18,15.18,0,0,0-10-3.92c-6.79,0-10.85,4.57-10.85,9,0,11.76,23.59,8.69,23.59,23.65,0,6.21-4.51,11.24-11.83,11.83v6.08H185.5v-6.08A19.19,19.19,0,0,1,172.89,268Z" transform="translate(-131.7 -196.74)"/></svg>