<svg id="Layer_1" data-name="Layer 1" xmlns="http://www.w3.org/2000/svg" xmlns:xlink="http://www.w3.org/1999/xlink" viewBox="0 0 119.41 54.55"><defs><style>.cls-1,.cls-3,.cls-4{fill:none;}.cls-2{fill:#26313a;}.cls-3,.cls-4{stroke-linecap:round;stroke-linejoin:round;stroke-width:2px;}.cls-3{stroke:url(#New_Pattern_Swatch_2);}.cls-4{stroke:#fff;}.cls-5,.cls-6{stroke-miterlimit:10;stroke-width:0.5px;}.cls-5{fill:url(#New_Pattern_Swatch_2-3);stroke:url(#New_Pattern_Swatch_2-5);}.cls-6{fill:#0084FF;stroke:#0084FF;}</style><pattern id="New_Pattern_Swatch_2" data-name="New Pattern Swatch 2" width="7.06" height="7.06" patternTransform="matrix(0, -0.11, -0.09, 0, 1609.73, -1228.68)" patternUnits="userSpaceOnUse" viewBox="0 0 7.06 7.06"><rect class="cls-1" width="7.06" height="7.06"/><rect class="cls-2" width="7.06" height="7.06"/></pattern><pattern id="New_Pattern_Swatch_2-3" data-name="New Pattern Swatch 2" width="7.06" height="7.06" patternTransform="matrix(0, -0.23, -0.18, 0, 3423.88, -2499.17)" patternUnits="userSpaceOnUse" viewBox="0 0 7.06 7.06"><rect class="cls-1" width="7.06" height="7.06"/><rect class="cls-2" width="7.06" height="7.06"/></pattern><pattern id="New_Pattern_Swatch_2-5" data-name="New Pattern Swatch 2" width="7.06" height="7.06" patternTransform="matrix(0, -0.35, -0.28, 0, 5334.27, -3899)" patternUnits="userSpaceOnUse" viewBox="0 0 7.06 7.06"><rect class="cls-1" width="7.06" height="7.06"/><rect class="cls-2" width="7.06" height="7.06"/></pattern></defs><title>price_estimates</title><rect class="cls-3" x="1" y="1" width="52.55" height="52.55" rx="3" ry="3"/><rect class="cls-4" x="65.86" y="1" width="52.55" height="52.55" rx="3" ry="3"/><path class="cls-5" d="M112.87,69.27c0-6.31,6.88-6.81,6.88-12.38,0-2.77-2.27-5-5.61-5a8.72,8.72,0,0,0-4.88,1.61l-0.88-1.31a9.51,9.51,0,0,1,5.73-1.92c4.42,0,7.38,2.85,7.38,6.61,0,6.38-7,6.84-7,12.34V71h-1.65V69.27Zm-0.31,6.08h2.27v2.35h-2.27V75.34Z" transform="translate(-22.8 -36.72)"/><path class="cls-6" d="M44.94,72a8.85,8.85,0,0,0,6.14,2.56c2.86,0,5.12-1.77,5.12-4.53,0-6.37-11.85-4.89-11.85-11.92,0-2.82,2.33-5.48,6-5.88V49.08h1.41v3.09a8.24,8.24,0,0,1,5.35,2.1L56.3,55.48a7.63,7.63,0,0,0-5-2c-3.41,0-5.45,2.3-5.45,4.53,0,5.91,11.85,4.37,11.85,11.88,0,3.12-2.26,5.65-5.94,5.94v3.05H50.32V75.87A9.64,9.64,0,0,1,44,73Z" transform="translate(-22.8 -36.72)"/></svg>
