<svg id="Layer_1" data-name="Layer 1" xmlns="http://www.w3.org/2000/svg" viewBox="0 0 63.17 95.63"><defs><style>.cls-1,.cls-2,.cls-3{fill:none;stroke-width:1.4px;}.cls-1,.cls-3{stroke:#273038;}.cls-1{stroke-miterlimit:10;}.cls-2{stroke:#0084FF;}.cls-2,.cls-3{stroke-linecap:round;stroke-linejoin:round;}</style></defs><title>property_saves</title><path class="cls-1" d="M103,61h0.31v-49a5.74,5.74,0,0,0-5.74-5.74H66.78A5.74,5.74,0,0,0,61,12.06V84.25A5.74,5.74,0,0,0,66.78,90H85.54" transform="translate(-60.34 -5.62)"/><path class="cls-2" d="M85.54,90a19.77,19.77,0,1,0,17.81-29" transform="translate(-60.34 -5.62)"/><g id="Favorite"><path class="cls-1" d="M108.45,88.23L103,85.46a0.28,0.28,0,0,0-.27,0L97.28,88a0.29,0.29,0,0,1-.41-0.33l1.6-5.65a0.31,0.31,0,0,0-.08-0.27l-3.88-4.09a0.31,0.31,0,0,1,.17-0.51l5.47-.73a0.29,0.29,0,0,0,.22-0.16l2.53-5.11a0.28,0.28,0,0,1,.52,0l2.42,5.35,5.59,1a0.31,0.31,0,0,1,.15.52l-4,3.94a0.31,0.31,0,0,0-.09.27l1.41,5.69A0.29,0.29,0,0,1,108.45,88.23Z" transform="translate(-60.34 -5.62)"/></g><line class="cls-3" x1="17.63" y1="13.74" x2="26.08" y2="13.74"/><path class="cls-2" d="M85.54,90A19.77,19.77,0,0,1,103,61" transform="translate(-60.34 -5.62)"/></svg>
