<svg id="Layer_1" data-name="Layer 1" xmlns="http://www.w3.org/2000/svg" xmlns:xlink="http://www.w3.org/1999/xlink" viewBox="0 0 259.46 179.55"><defs><style>.cls-1,.cls-10,.cls-11,.cls-3,.cls-4,.cls-8,.cls-9{fill:none;}.cls-2{fill:#253039;}.cls-3,.cls-4{stroke:#fff;}.cls-11,.cls-3{stroke-linecap:round;stroke-linejoin:round;}.cls-10,.cls-11,.cls-3,.cls-4,.cls-8,.cls-9{stroke-width:2px;}.cls-10,.cls-4,.cls-8,.cls-9{stroke-miterlimit:10;}.cls-5{fill:url(#New_Pattern_Swatch_2);}.cls-6{fill:url(#New_Pattern_Swatch_2-3);}.cls-7{fill:url(#New_Pattern_Swatch_2-23);}.cls-8{stroke:url(#New_Pattern_Swatch_2);}.cls-11,.cls-9{stroke:url(#New_Pattern_Swatch_2-33);}.cls-10{stroke:#00beb4;}</style><pattern id="New_Pattern_Swatch_2" data-name="New Pattern Swatch 2" width="7.06" height="7.06" patternTransform="matrix(0, -0.35, -0.28, 0, 5331, -3915.65)" patternUnits="userSpaceOnUse" viewBox="0 0 7.06 7.06"><rect class="cls-1" width="7.06" height="7.06"/><rect class="cls-2" width="7.06" height="7.06"/></pattern><pattern id="New_Pattern_Swatch_2-3" data-name="New Pattern Swatch 2" width="7.06" height="7.06" patternTransform="matrix(0, -0.35, -0.28, 0, 5332.7, -3915.32)" patternUnits="userSpaceOnUse" viewBox="0 0 7.06 7.06"><rect class="cls-1" width="7.06" height="7.06"/><rect class="cls-2" width="7.06" height="7.06"/></pattern><pattern id="New_Pattern_Swatch_2-23" data-name="New Pattern Swatch 2" width="7.06" height="7.06" patternTransform="matrix(0, -0.35, -0.28, 0, 5212.89, -4075.6)" patternUnits="userSpaceOnUse" viewBox="0 0 7.06 7.06"><rect class="cls-1" width="7.06" height="7.06"/><rect class="cls-2" width="7.06" height="7.06"/></pattern><pattern id="New_Pattern_Swatch_2-33" data-name="New Pattern Swatch 2" width="7.06" height="7.06" patternTransform="matrix(0, -0.35, -0.28, 0, 5211.2, -4075.93)" patternUnits="userSpaceOnUse" viewBox="0 0 7.06 7.06"><rect class="cls-1" width="7.06" height="7.06"/><rect class="cls-2" width="7.06" height="7.06"/></pattern></defs><title>realestate_resources</title><path class="cls-3" d="M370.46,338.83H128.6a7.85,7.85,0,0,1-7.8-7.89V169.17a7.85,7.85,0,0,1,7.8-7.89H370.46a7.85,7.85,0,0,1,7.8,7.89V330.94A7.85,7.85,0,0,1,370.46,338.83Z" transform="translate(-119.8 -160.28)"/><line class="cls-4" x1="1.77" y1="59.8" x2="257.68" y2="61.37"/><path class="cls-5" d="M210.25,237.27a2.68,2.68,0,0,0-2.83,3v.87a2.72,2.72,0,0,0,2.86,3,10.61,10.61,0,0,0,2.29-.2c.21,0,.25-.12.25-.31v-.78c0-.12-.1-.18-.21-.18h0c-.5,0-1.31.12-2.17.12a1.33,1.33,0,0,1-1.42-1.5v0h3.85c.17,0,.24-.11.24-.3v-.66A2.7,2.7,0,0,0,210.25,237.27Zm1.24,2.85H209v-.05a1.27,1.27,0,0,1,1.26-1.45c.73,0,1.24.53,1.24,1.45Z" transform="translate(-119.8 -160.28)"/><path class="cls-6" d="M206.78,244a4.73,4.73,0,0,1-.8.08c-1.33,0-1.88-.3-1.88-1.88v-3.7l-1.11-.17a.26.26,0,0,1-.24-.24v-.53a.24.24,0,0,1,.24-.24h1.11v-1.56a.25.25,0,0,1,.24-.24l1.1-.19h0a.17.17,0,0,1,.19.18v1.81h1.06a.24.24,0,0,1,.24.24v.69a.24.24,0,0,1-.24.24h-1.06v3.7c0,.59,0,.66.46.66h.62c.16,0,.25.06.25.18v.74c0,.12-.07.19-.23.21" transform="translate(-119.8 -160.28)"/><path class="cls-5" d="M200,237.27a10.11,10.11,0,0,0-2,.19c-.15,0-.23.12-.23.25v.75c0,.16.09.2.21.2h.06a18.23,18.23,0,0,1,1.92-.09c.7,0,1,.19,1,1V240h-.75c-2.05,0-2.88.7-2.88,2v0a1.8,1.8,0,0,0,2,2,3.23,3.23,0,0,0,1.66-.52v.19a.23.23,0,0,0,.24.23h1a.24.24,0,0,0,.24-.23v-4.25C202.57,238,201.65,237.27,200,237.27Zm1,5.26a2.57,2.57,0,0,1-1.2.33c-.59,0-.85-.15-.85-.73v0c0-.66.23-1,1.31-1H201Z" transform="translate(-119.8 -160.28)"/><path class="cls-6" d="M196.77,244a4.71,4.71,0,0,1-.8.08c-1.33,0-1.87-.3-1.87-1.88v-3.7l-1.11-.17a.25.25,0,0,1-.23-.24v-.53a.24.24,0,0,1,.23-.24h1.11v-1.56a.25.25,0,0,1,.23-.24l1.1-.19h0a.17.17,0,0,1,.19.18v1.81h1.06a.24.24,0,0,1,.24.24v.69a.24.24,0,0,1-.24.24h-1.06v3.7c0,.59,0,.66.46.66h.63c.15,0,.25.06.25.18v.74c0,.12-.07.19-.22.21" transform="translate(-119.8 -160.28)"/><path class="cls-6" d="M190.22,244.1a10,10,0,0,1-2.12-.24.27.27,0,0,1-.22-.27v-.71a.19.19,0,0,1,.2-.19h0c.57.07,1.63.13,2,.13.73,0,.84-.25.84-.57s-.14-.36-.52-.6l-1.62-1a1.94,1.94,0,0,1-1-1.63q0-1.77,2.25-1.77a8.78,8.78,0,0,1,2.1.24.26.26,0,0,1,.21.27v.68c0,.14-.07.23-.19.23h0a17.58,17.58,0,0,0-2-.14c-.57,0-.81.13-.81.5,0,.19.18.31.47.48l1.55.94a1.89,1.89,0,0,1,1.13,1.79c0,1-.77,1.84-2.31,1.84" transform="translate(-119.8 -160.28)"/><path class="cls-5" d="M184.45,237.27a2.68,2.68,0,0,0-2.83,3v.87a2.72,2.72,0,0,0,2.85,3,10.62,10.62,0,0,0,2.29-.2c.21,0,.25-.12.25-.31v-.78c0-.12-.1-.18-.21-.18h0c-.5,0-1.31.12-2.17.12a1.33,1.33,0,0,1-1.42-1.5v0H187c.16,0,.23-.11.23-.3v-.66A2.7,2.7,0,0,0,184.45,237.27Zm1.24,2.85h-2.5v-.05c0-.93.53-1.45,1.26-1.45s1.24.53,1.24,1.45Z" transform="translate(-119.8 -160.28)"/><path class="cls-6" d="M180.68,244h-1.1a.25.25,0,0,1-.24-.25v-8.5a.23.23,0,0,1,.24-.23h1.1a.22.22,0,0,1,.22.23v8.5a.24.24,0,0,1-.22.25" transform="translate(-119.8 -160.28)"/><path class="cls-5" d="M175.93,237.27a10.11,10.11,0,0,0-2,.19c-.15,0-.22.12-.22.25v.75c0,.16.09.2.21.2H174a18.32,18.32,0,0,1,1.92-.09c.69,0,1,.19,1,1V240h-.74c-2.05,0-2.88.7-2.88,2v0a1.8,1.8,0,0,0,2,2,3.21,3.21,0,0,0,1.66-.52v.19a.24.24,0,0,0,.24.23h1a.24.24,0,0,0,.23-.23v-4.25C178.53,238,177.61,237.27,175.93,237.27Zm1,5.26a2.58,2.58,0,0,1-1.2.33c-.59,0-.85-.15-.85-.73v0c0-.66.23-1,1.31-1H177Z" transform="translate(-119.8 -160.28)"/><path class="cls-5" d="M170.07,237.27a2.68,2.68,0,0,0-2.83,3v.87a2.72,2.72,0,0,0,2.86,3,10.58,10.58,0,0,0,2.29-.2c.21,0,.25-.12.25-.31v-.78c0-.12-.09-.18-.21-.18h0c-.49,0-1.31.12-2.17.12a1.33,1.33,0,0,1-1.41-1.5v0h3.84c.17,0,.24-.11.24-.3v-.66A2.7,2.7,0,0,0,170.07,237.27Zm1.24,2.85h-2.5v-.05a1.27,1.27,0,0,1,1.26-1.45c.73,0,1.24.53,1.24,1.45Z" transform="translate(-119.8 -160.28)"/><path class="cls-6" d="M166.72,238.59a3.39,3.39,0,0,0-1.63.42v4.74a.25.25,0,0,1-.24.25h-1.09a.25.25,0,0,1-.24-.25v-6.17a.24.24,0,0,1,.24-.24h1a.24.24,0,0,1,.24.24v.24a2.75,2.75,0,0,1,1.69-.57.24.24,0,0,1,.24.24v.85a.24.24,0,0,1-.24.23" transform="translate(-119.8 -160.28)"/><path class="cls-5" d="M151,232.31h-.06a9.93,9.93,0,1,0,.06,0Zm5.52,10.77h-.81v4.48a.84.84,0,0,1-.83.84h-8a.84.84,0,0,1-.83-.84v-4.48h-.81a1.28,1.28,0,0,1-.9-2.18h0l5.92-5.89a.83.83,0,0,1,.61-.27h0a.84.84,0,0,1,.61.27l5.92,5.89h0a1.28,1.28,0,0,1-.9,2.18Z" transform="translate(-119.8 -160.28)"/><polygon class="cls-7" points="26.11 81.26 27.82 81.26 27.82 86.56 34.31 86.56 34.31 81.26 36.03 81.26 31.07 76.32 26.11 81.26"/><path class="cls-5" d="M180.51,249.35H180a.12.12,0,0,1-.12-.12v-.14a1.56,1.56,0,0,1-.95.3,1,1,0,0,1-.74-.25,1.52,1.52,0,0,1-.3-1.1v-2a.13.13,0,0,1,.12-.13h.55a.13.13,0,0,1,.12.13v2c0,.3,0,.47.14.58a.52.52,0,0,0,.37.11,1.7,1.7,0,0,0,.68-.24v-2.41a.13.13,0,0,1,.12-.13h.56a.13.13,0,0,1,.12.13v3.15a.12.12,0,0,1-.12.12m-3.86-1.49h-.38c-.55,0-.67.17-.67.51v0c0,.3.13.37.43.37a1.3,1.3,0,0,0,.62-.17Zm.68,1.49h-.51a.12.12,0,0,1-.12-.12v-.1a1.65,1.65,0,0,1-.85.27.92.92,0,0,1-1-1v0c0-.69.42-1,1.47-1h.38v-.26c0-.39-.17-.49-.53-.49a9.36,9.36,0,0,0-1,0h0c-.06,0-.11,0-.11-.1v-.39c0-.07,0-.11.11-.13a5.18,5.18,0,0,1,1-.1c.86,0,1.33.38,1.33,1.15v2.17a.12.12,0,0,1-.12.12m-2.93,0h-.54a.12.12,0,0,1-.12-.12v-.68a.12.12,0,0,1,.12-.11h.54a.12.12,0,0,1,.12.11v.68a.12.12,0,0,1-.12.12m-1.12,0h-.56a.13.13,0,0,1-.12-.13v-2c0-.46-.1-.59-.43-.59a1.33,1.33,0,0,0-.56.15,3.34,3.34,0,0,1,0,.44v2a.12.12,0,0,1-.12.13H171a.13.13,0,0,1-.12-.13v-2c0-.46-.08-.59-.42-.59a1.33,1.33,0,0,0-.55.2v2.44a.13.13,0,0,1-.12.13h-.55a.12.12,0,0,1-.12-.13v-3.15a.12.12,0,0,1,.12-.12h.53a.12.12,0,0,1,.12.12v.12a1.51,1.51,0,0,1,.86-.29.86.86,0,0,1,.71.27,1.88,1.88,0,0,1,1-.27c.82,0,1,.56,1,1.27v2a.13.13,0,0,1-.12.13m-5.35-1.94c0-.49-.22-.81-.65-.81s-.65.32-.65.81v.49c0,.49.22.81.65.81s.65-.32.65-.81Zm-.65,2a1.37,1.37,0,0,1-1.44-1.5v-.49a1.44,1.44,0,1,1,2.88,0v.49a1.37,1.37,0,0,1-1.44,1.5m-1.86-.08a3.29,3.29,0,0,1-.78.08,1.31,1.31,0,0,1-1.37-1.46v-.56a1.31,1.31,0,0,1,1.37-1.46,3.32,3.32,0,0,1,.78.08c.1,0,.13.06.13.16v.39c0,.06,0,.09-.11.09h0a5.11,5.11,0,0,0-.78,0c-.28,0-.58.16-.58.79v.56c0,.63.3.79.58.79a5.49,5.49,0,0,0,.78,0h0c.06,0,.11,0,.11.09v.39c0,.1,0,.13-.13.16" transform="translate(-119.8 -160.28)"/><path class="cls-6" d="M162.78,249.22h-.54a.12.12,0,0,1-.12-.12v-.68a.12.12,0,0,1,.12-.11h.54a.12.12,0,0,1,.12.11v.68a.12.12,0,0,1-.12.12" transform="translate(-119.8 -160.28)"/><path id="Stroke-4235" class="cls-8" d="M219.6,293.42l5.1,5.1" transform="translate(-119.8 -160.28)"/><path id="Stroke-4236" class="cls-8" d="M221.22,289.28a5.76,5.76,0,1,1-5.76-5.76,5.76,5.76,0,0,1,5.76,5.76Z" transform="translate(-119.8 -160.28)"/><line class="cls-9" x1="81.09" y1="115.62" x2="81.09" y2="145.88"/><line class="cls-10" x1="117.02" y1="81.44" x2="101.9" y2="81.44"/><line class="cls-10" x1="140.72" y1="81.44" x2="125.59" y2="81.44"/><line class="cls-10" x1="164.93" y1="81.44" x2="149.8" y2="81.44"/><line class="cls-10" x1="188.62" y1="81.44" x2="173.5" y2="81.44"/><line class="cls-10" x1="211.26" y1="81.44" x2="196.13" y2="81.44"/><line class="cls-10" x1="238.77" y1="81.44" x2="223.64" y2="81.44"/><rect class="cls-11" x="50.23" y="115.62" width="159" height="30.26" rx="1" ry="1"/><polyline class="cls-11" points="72.34 127.45 66.34 135 60.34 127.45"/><circle class="cls-4" cx="67.6" cy="31.67" r="4.87"/><circle class="cls-4" cx="29.42" cy="31.67" r="4.87"/><circle class="cls-4" cx="106.59" cy="31.67" r="4.87"/></svg>