<svg id="Layer_1" data-name="Layer 1" xmlns="http://www.w3.org/2000/svg" xmlns:xlink="http://www.w3.org/1999/xlink" viewBox="0 0 75.76 75.76"><defs><style>.cls-1,.cls-3,.cls-4{fill:none;}.cls-2{fill:#253039;}.cls-3{stroke:#fff;}.cls-3,.cls-4{stroke-linecap:round;stroke-linejoin:round;stroke-width:1.4px;}.cls-4{stroke:url(#New_Pattern_Swatch_2);}</style><pattern id="New_Pattern_Swatch_2" data-name="New Pattern Swatch 2" width="7.06" height="7.06" patternTransform="matrix(0, -0.35, -0.28, 0, 5123.23, -4119.35)" patternUnits="userSpaceOnUse" viewBox="0 0 7.06 7.06"><rect class="cls-1" width="7.06" height="7.06"/><rect class="cls-2" width="7.06" height="7.06"/></pattern></defs><title>reduce_personal_tax</title><path class="cls-3" d="M260.37,238.18a8.27,8.27,0,0,0-1.53-2.57,7.18,7.18,0,0,0-2.26-1.74,6.32,6.32,0,0,0-2.76-.64h-5.17a6.32,6.32,0,0,0-2.76.64,7.18,7.18,0,0,0-2.26,1.74,8.27,8.27,0,0,0-1.53,2.57,9,9,0,0,0-.56,3.14h0a9,9,0,0,0,.56,3.14,8.27,8.27,0,0,0,1.53,2.57,7.19,7.19,0,0,0,2.26,1.74,6.32,6.32,0,0,0,2.76.64h5.17a6.32,6.32,0,0,1,2.76.64,7.19,7.19,0,0,1,2.26,1.74,8.28,8.28,0,0,1,1.53,2.57,9,9,0,0,1,.56,3.14h0a9,9,0,0,1-.56,3.14,8.28,8.28,0,0,1-1.53,2.57,7.19,7.19,0,0,1-2.26,1.74,6.32,6.32,0,0,1-2.76.64h-5.17a6.32,6.32,0,0,1-2.76-.64,7.19,7.19,0,0,1-2.26-1.74,8.27,8.27,0,0,1-1.53-2.57" transform="translate(-211.74 -213.14)"/><line class="cls-3" x1="39.5" y1="16.86" x2="39.5" y2="55.66"/><polygon class="cls-3" points="26.56 16.86 13.63 0.7 0.7 16.86 7.53 16.86 10.4 42.73 16.86 42.73 19.74 16.86 26.56 16.86"/><polygon class="cls-4" points="49.2 58.89 62.13 75.06 75.06 58.89 68.23 58.89 65.36 33.03 58.89 33.03 56.02 58.89 49.2 58.89"/></svg>