<svg id="Layer_1" data-name="Layer 1" xmlns="http://www.w3.org/2000/svg" xmlns:xlink="http://www.w3.org/1999/xlink" viewBox="0 0 135.25 110.19"><defs><style>.cls-1,.cls-12,.cls-4,.cls-5,.cls-6{fill:none;}.cls-2{fill:#253039;}.cls-3{fill:url(#New_Pattern_Swatch_2);}.cls-12,.cls-4,.cls-5,.cls-6{stroke-miterlimit:10;}.cls-4,.cls-5,.cls-6{stroke-width:1.4px;}.cls-4{stroke:url(#New_Pattern_Swatch_2-7);}.cls-12,.cls-5{stroke:#93227E;}.cls-6{stroke:url(#New_Pattern_Swatch_2-9);}.cls-7{fill:url(#New_Pattern_Swatch_2-11);}.cls-8{fill:url(#New_Pattern_Swatch_2-21);}.cls-9{fill:url(#New_Pattern_Swatch_2-49);}.cls-10{fill:url(#New_Pattern_Swatch_2-67);}.cls-11{fill:url(#New_Pattern_Swatch_2-77);}</style><pattern id="New_Pattern_Swatch_2" data-name="New Pattern Swatch 2" width="7.06" height="7.06" patternTransform="matrix(0, -0.19, -0.15, 0, 2913.67, -2135.61)" patternUnits="userSpaceOnUse" viewBox="0 0 7.06 7.06"><rect class="cls-1" width="7.06" height="7.06"/><rect class="cls-2" width="7.06" height="7.06"/></pattern><pattern id="New_Pattern_Swatch_2-7" data-name="New Pattern Swatch 2" width="7.06" height="7.06" patternTransform="matrix(0, -0.29, -0.2, 0, 3827.22, -3160.86)" patternUnits="userSpaceOnUse" viewBox="0 0 7.06 7.06"><rect class="cls-1" width="7.06" height="7.06"/><rect class="cls-2" width="7.06" height="7.06"/></pattern><pattern id="New_Pattern_Swatch_2-9" data-name="New Pattern Swatch 2" width="7.06" height="7.06" patternTransform="matrix(0, 0.23, 0.16, 0, -3117.99, 2501.55)" patternUnits="userSpaceOnUse" viewBox="0 0 7.06 7.06"><rect class="cls-1" width="7.06" height="7.06"/><rect class="cls-2" width="7.06" height="7.06"/></pattern><pattern id="New_Pattern_Swatch_2-11" data-name="New Pattern Swatch 2" width="7.06" height="7.06" patternTransform="matrix(0, -0.19, -0.15, 0, 2881.79, -2111.85)" patternUnits="userSpaceOnUse" viewBox="0 0 7.06 7.06"><rect class="cls-1" width="7.06" height="7.06"/><rect class="cls-2" width="7.06" height="7.06"/></pattern><pattern id="New_Pattern_Swatch_2-21" data-name="New Pattern Swatch 2" width="7.06" height="7.06" patternTransform="matrix(0, -0.19, -0.15, 0, 2882.66, -2107.79)" patternUnits="userSpaceOnUse" viewBox="0 0 7.06 7.06"><rect class="cls-1" width="7.06" height="7.06"/><rect class="cls-2" width="7.06" height="7.06"/></pattern><pattern id="New_Pattern_Swatch_2-49" data-name="New Pattern Swatch 2" width="7.06" height="7.06" patternTransform="matrix(0, -0.19, -0.15, 0, 2882.72, -2104.54)" patternUnits="userSpaceOnUse" viewBox="0 0 7.06 7.06"><rect class="cls-1" width="7.06" height="7.06"/><rect class="cls-2" width="7.06" height="7.06"/></pattern><pattern id="New_Pattern_Swatch_2-67" data-name="New Pattern Swatch 2" width="7.06" height="7.06" patternTransform="matrix(0, -0.19, -0.15, 0, 2882.67, -2101.29)" patternUnits="userSpaceOnUse" viewBox="0 0 7.06 7.06"><rect class="cls-1" width="7.06" height="7.06"/><rect class="cls-2" width="7.06" height="7.06"/></pattern><pattern id="New_Pattern_Swatch_2-77" data-name="New Pattern Swatch 2" width="7.06" height="7.06" patternTransform="matrix(0, -0.19, -0.15, 0, 2881.79, -2098.05)" patternUnits="userSpaceOnUse" viewBox="0 0 7.06 7.06"><rect class="cls-1" width="7.06" height="7.06"/><rect class="cls-2" width="7.06" height="7.06"/></pattern></defs><title>refine_property</title><path class="cls-3" d="M68,19.67H65.18l-.79,2.21h-.72L66.22,15h.73l2.54,6.92h-.72Zm-1.4-4s-.15.57-.27.9l-.93,2.51h2.38l-.91-2.51c-.12-.32-.27-.9-.27-.9Z" transform="translate(-46.04 -2.57)"/><path class="cls-3" d="M70.37,15H71v5.6c0,.65.3.75.55.75h.17v.6a1.68,1.68,0,0,1-.25,0c-.41,0-1.14-.13-1.14-1.21Z" transform="translate(-46.04 -2.57)"/><path class="cls-3" d="M72.8,15h.67v5.6c0,.65.3.75.55.75h.17v.6a1.69,1.69,0,0,1-.25,0c-.41,0-1.14-.13-1.14-1.21Z" transform="translate(-46.04 -2.57)"/><rect class="cls-4" x="0.7" y="0.7" width="133.85" height="27.33" rx="3" ry="3"/><rect class="cls-5" x="0.7" y="28.03" width="133.85" height="81.46" rx="3" ry="3"/><polygon class="cls-6" points="126.53 10.45 116.9 10.45 121.72 17.52 126.53 10.45"/><path class="cls-7" d="M63.68,39.54h.67v3.11h4V39.54H69v6.84h-.67V43.25h-4v3.12h-.67Z" transform="translate(-46.04 -2.57)"/><path class="cls-7" d="M73,41.37a2.56,2.56,0,1,1-2.59,2.54A2.53,2.53,0,0,1,73,41.37Zm0,4.53a1.93,1.93,0,0,0,1.91-2,1.91,1.91,0,1,0-3.81,0A1.93,1.93,0,0,0,73,45.9Z" transform="translate(-46.04 -2.57)"/><path class="cls-7" d="M76.75,41.48h.66v2.94c0,.77.12,1.45,1.06,1.45a1.9,1.9,0,0,0,1.81-2V41.48h.66v4.89H80.3v-.73c0-.21,0-.39,0-.39h0a2.09,2.09,0,0,1-1.92,1.23c-1.15,0-1.63-.62-1.63-1.9Z" transform="translate(-46.04 -2.57)"/><path class="cls-7" d="M82.49,45.3A2.1,2.1,0,0,0,84,45.9c.53,0,1-.26,1-.78,0-1.07-2.63-.81-2.63-2.4,0-.87.79-1.35,1.67-1.35a2.06,2.06,0,0,1,1.51.53l-.3.51A1.74,1.74,0,0,0,84,42c-.5,0-1,.21-1,.76,0,1.08,2.64.79,2.64,2.4a1.48,1.48,0,0,1-1.67,1.37,2.49,2.49,0,0,1-1.81-.71Z" transform="translate(-46.04 -2.57)"/><path class="cls-7" d="M88.91,41.37a2,2,0,0,1,2,2.26c0,.12,0,.34,0,.34H87.18a1.84,1.84,0,0,0,1.9,1.93,2.27,2.27,0,0,0,1.49-.59l.3.51a2.8,2.8,0,0,1-1.81.68,2.47,2.47,0,0,1-2.56-2.56A2.39,2.39,0,0,1,88.91,41.37Zm1.37,2.05a1.38,1.38,0,0,0-1.39-1.5,1.66,1.66,0,0,0-1.68,1.5Z" transform="translate(-46.04 -2.57)"/><path class="cls-8" d="M67.91,59.05H65.16l-.78,2.18h-.71l2.51-6.84h.72l2.51,6.84H68.7Zm-1.38-3.95s-.15.56-.26.88l-.91,2.48h2.35L66.82,56c-.12-.32-.26-.88-.26-.88Z" transform="translate(-46.04 -2.57)"/><path class="cls-8" d="M70.33,56.34H71v.48a3.7,3.7,0,0,1,0,.38h0a1.78,1.78,0,0,1,1.69-1c1.31,0,2.13,1.05,2.13,2.57a2.28,2.28,0,0,1-2.19,2.56,1.77,1.77,0,0,1-1.6-.93h0a4.27,4.27,0,0,1,0,.43v2.33h-.66Zm2.2,4.42c.87,0,1.58-.73,1.58-2s-.63-2-1.55-2-1.58.58-1.58,2C71,59.78,71.52,60.76,72.53,60.76Z" transform="translate(-46.04 -2.57)"/><path class="cls-8" d="M78.65,58.21h.27v-.13a1.1,1.1,0,0,0-1.22-1.26,2.38,2.38,0,0,0-1.38.47L76,56.78a2.81,2.81,0,0,1,1.74-.55,1.67,1.67,0,0,1,1.83,1.88v3.13H79V60.7a3.75,3.75,0,0,1,0-.41h0a1.77,1.77,0,0,1-1.63,1.06,1.51,1.51,0,0,1-1.66-1.45C75.66,58.25,77.81,58.21,78.65,58.21Zm-1.23,2.58A1.7,1.7,0,0,0,78.93,59v-.21h-.28c-.77,0-2.3,0-2.3,1.11A1,1,0,0,0,77.43,60.78Z" transform="translate(-46.04 -2.57)"/><path class="cls-8" d="M81.11,56.34h.65v.87c0,.21,0,.39,0,.39h0a1.67,1.67,0,0,1,1.55-1.3,1.32,1.32,0,0,1,.26,0V57a1.68,1.68,0,0,0-.24,0,1.57,1.57,0,0,0-1.42,1.26,3.23,3.23,0,0,0-.14,1v2.06h-.66Z" transform="translate(-46.04 -2.57)"/><path class="cls-8" d="M84.76,57h-.64V56.4h.65V55h.65V56.4h1.23V57H85.42v2.43c0,1.15.73,1.29,1.1,1.29a1.14,1.14,0,0,0,.22,0v.59a1.74,1.74,0,0,1-.28,0,1.59,1.59,0,0,1-1.7-1.82Z" transform="translate(-46.04 -2.57)"/><path class="cls-8" d="M87.83,56.34h.65v.73c0,.21,0,.39,0,.39h0a2,2,0,0,1,1.77-1.23,1.35,1.35,0,0,1,1.52,1.23h0a2,2,0,0,1,1.8-1.23c1.19,0,1.62.69,1.62,1.9v3.11h-.66V58.29c0-.8-.17-1.46-1.06-1.46a1.74,1.74,0,0,0-1.55,1.38,2.31,2.31,0,0,0-.09.71v2.31h-.66V58.29c0-.74-.11-1.46-1-1.46a1.8,1.8,0,0,0-1.6,1.44,2.82,2.82,0,0,0-.07.65v2.31h-.66Z" transform="translate(-46.04 -2.57)"/><path class="cls-8" d="M98.8,56.22a2,2,0,0,1,2,2.26c0,.12,0,.34,0,.34H97.07A1.84,1.84,0,0,0,99,60.76a2.27,2.27,0,0,0,1.49-.59l.3.51a2.8,2.8,0,0,1-1.81.68,2.47,2.47,0,0,1-2.56-2.56A2.39,2.39,0,0,1,98.8,56.22Zm1.37,2.05a1.38,1.38,0,0,0-1.39-1.5,1.66,1.66,0,0,0-1.68,1.5Z" transform="translate(-46.04 -2.57)"/><path class="cls-8" d="M102.11,56.34h.65v.73c0,.21,0,.39,0,.39h0a2.08,2.08,0,0,1,2-1.23c1.21,0,1.63.69,1.63,1.9v3.11h-.66V58.3c0-.77-.12-1.45-1.06-1.45a1.86,1.86,0,0,0-1.78,1.38,2.43,2.43,0,0,0-.08.66v2.34h-.66Z" transform="translate(-46.04 -2.57)"/><path class="cls-8" d="M108.06,57h-.64V56.4h.65V55h.65V56.4h1.23V57h-1.23v2.43c0,1.15.73,1.29,1.1,1.29a1.14,1.14,0,0,0,.22,0v.59a1.73,1.73,0,0,1-.28,0,1.59,1.59,0,0,1-1.7-1.82Z" transform="translate(-46.04 -2.57)"/><path class="cls-8" d="M114.77,57.55v0a1.52,1.52,0,0,1-1-1.52c0-1.05.81-1.73,2.05-1.73a4.51,4.51,0,0,1,.78.1l-.19.56a3.33,3.33,0,0,0-.56-.07A1.22,1.22,0,0,0,114.52,56c0,.46.2,1.23,1.47,1.23h1.44v-1h.67v1H119v.6h-.92v1a2.15,2.15,0,0,1-2.27,2.46,2.09,2.09,0,0,1-2.3-2A1.83,1.83,0,0,1,114.77,57.55Zm1.06,3.17c1,0,1.59-.53,1.59-1.85v-1H116c-1.19,0-1.77.56-1.77,1.42A1.45,1.45,0,0,0,115.83,60.72Z" transform="translate(-46.04 -2.57)"/><path class="cls-8" d="M123,54.4h.68v4.44a1.94,1.94,0,0,0,3.88,0V54.4h.67v4.45a2.62,2.62,0,0,1-5.23,0Z" transform="translate(-46.04 -2.57)"/><path class="cls-8" d="M129.94,56.34h.65v.73c0,.21,0,.39,0,.39h0a2.08,2.08,0,0,1,2-1.23c1.21,0,1.63.69,1.63,1.9v3.11h-.66V58.3c0-.77-.12-1.45-1.06-1.45a1.86,1.86,0,0,0-1.78,1.38,2.41,2.41,0,0,0-.08.66v2.34h-.66Z" transform="translate(-46.04 -2.57)"/><path class="cls-8" d="M135.69,54.4h.69v.83h-.69Zm0,1.94h.66v4.89h-.66Z" transform="translate(-46.04 -2.57)"/><path class="cls-8" d="M138.15,57h-.64V56.4h.65V55h.65V56.4H140V57h-1.23v2.43c0,1.15.73,1.29,1.1,1.29a1.14,1.14,0,0,0,.22,0v.59a1.75,1.75,0,0,1-.28,0,1.59,1.59,0,0,1-1.7-1.82Z" transform="translate(-46.04 -2.57)"/><path class="cls-9" d="M66.14,69H63.68v-.6h5.58V69H66.81v6.23h-.67Z" transform="translate(-46.04 -2.57)"/><path class="cls-9" d="M71.42,70.27a2.56,2.56,0,1,1-2.59,2.54A2.53,2.53,0,0,1,71.42,70.27Zm0,4.53a1.93,1.93,0,0,0,1.91-2,1.91,1.91,0,1,0-3.81,0A1.93,1.93,0,0,0,71.42,74.8Z" transform="translate(-46.04 -2.57)"/><path class="cls-9" d="M74.61,70.39h.7L76.5,74c.08.23.15.53.15.53h0s.07-.29.15-.53L78,70.41h.65L79.87,74c.08.23.15.53.15.53h0s.07-.28.15-.53l1.19-3.65h.7l-1.65,4.89H79.7L78.5,71.8c-.09-.24-.16-.52-.16-.52h0s-.07.28-.15.52L77,75.28h-.72Z" transform="translate(-46.04 -2.57)"/><path class="cls-9" d="M83,70.39h.65v.73c0,.21,0,.39,0,.39h0a2.08,2.08,0,0,1,2-1.23c1.21,0,1.63.69,1.63,1.9v3.11h-.66V72.34c0-.77-.12-1.45-1.06-1.45a1.86,1.86,0,0,0-1.78,1.38,2.41,2.41,0,0,0-.08.66v2.34H83Z" transform="translate(-46.04 -2.57)"/><path class="cls-9" d="M88.79,68.44h.66v2.64a3.9,3.9,0,0,1,0,.4h0a2.09,2.09,0,0,1,1.94-1.22c1.21,0,1.63.69,1.63,1.9v3.11h-.66V72.34c0-.77-.12-1.45-1.06-1.45a1.86,1.86,0,0,0-1.78,1.39,2.3,2.3,0,0,0-.08.65v2.34h-.66Z" transform="translate(-46.04 -2.57)"/><path class="cls-9" d="M96.78,70.27a2.56,2.56,0,1,1-2.59,2.54A2.53,2.53,0,0,1,96.78,70.27Zm0,4.53a1.93,1.93,0,0,0,1.91-2,1.91,1.91,0,1,0-3.81,0A1.93,1.93,0,0,0,96.78,74.8Z" transform="translate(-46.04 -2.57)"/><path class="cls-9" d="M100.53,70.39h.66v2.94c0,.77.12,1.45,1.06,1.45a1.9,1.9,0,0,0,1.81-2V70.39h.66v4.89h-.64v-.73c0-.21,0-.39,0-.39h0a2.09,2.09,0,0,1-1.92,1.23c-1.15,0-1.63-.62-1.63-1.9Z" transform="translate(-46.04 -2.57)"/><path class="cls-9" d="M106.28,74.21a2.1,2.1,0,0,0,1.46.59c.53,0,1-.26,1-.78,0-1.07-2.63-.81-2.63-2.4,0-.87.79-1.35,1.67-1.35a2.06,2.06,0,0,1,1.51.53l-.3.51a1.73,1.73,0,0,0-1.23-.45c-.5,0-1,.21-1,.76,0,1.08,2.64.79,2.64,2.4a1.48,1.48,0,0,1-1.67,1.37,2.49,2.49,0,0,1-1.81-.71Z" transform="translate(-46.04 -2.57)"/><path class="cls-9" d="M112.69,70.27a2,2,0,0,1,2,2.26c0,.12,0,.34,0,.34H111a1.84,1.84,0,0,0,1.9,1.93,2.27,2.27,0,0,0,1.49-.59l.3.51a2.8,2.8,0,0,1-1.81.68,2.47,2.47,0,0,1-2.56-2.56A2.39,2.39,0,0,1,112.69,70.27Zm1.37,2.05a1.38,1.38,0,0,0-1.39-1.5,1.66,1.66,0,0,0-1.68,1.5Z" transform="translate(-46.04 -2.57)"/><path class="cls-10" d="M63.68,82.49h.72l1.9,5.19c.13.35.26.88.26.88h0s.14-.53.26-.88l1.9-5.19h.72l-2.54,6.84h-.7Z" transform="translate(-46.04 -2.57)"/><path class="cls-10" d="M70.34,82.49H71v.83h-.69Zm0,1.94H71v4.89h-.66Z" transform="translate(-46.04 -2.57)"/><path class="cls-10" d="M72.57,82.49h.66V88c0,.64.29.74.54.74h.17v.59a1.66,1.66,0,0,1-.24,0c-.41,0-1.13-.13-1.13-1.2Z" transform="translate(-46.04 -2.57)"/><path class="cls-10" d="M75,82.49h.66V88c0,.64.29.74.54.74h.17v.59a1.67,1.67,0,0,1-.24,0c-.41,0-1.13-.13-1.13-1.2Z" transform="translate(-46.04 -2.57)"/><path class="cls-10" d="M80,86.3h.27v-.13a1.1,1.1,0,0,0-1.22-1.26,2.38,2.38,0,0,0-1.38.47l-.31-.51a2.81,2.81,0,0,1,1.74-.55,1.67,1.67,0,0,1,1.83,1.88v3.13h-.63v-.53a3.85,3.85,0,0,1,0-.41h0a1.77,1.77,0,0,1-1.63,1.06A1.51,1.51,0,0,1,77,88C77,86.34,79.17,86.3,80,86.3Zm-1.23,2.58a1.7,1.7,0,0,0,1.5-1.82v-.21H80c-.77,0-2.3,0-2.3,1.11A1,1,0,0,0,78.79,88.88Z" transform="translate(-46.04 -2.57)"/><path class="cls-11" d="M63.68,96.54h.67v6.23h3.17v.6H63.68Z" transform="translate(-46.04 -2.57)"/><path class="cls-11" d="M71.11,100.35h.27v-.13A1.1,1.1,0,0,0,70.17,99a2.38,2.38,0,0,0-1.38.47l-.31-.51a2.81,2.81,0,0,1,1.74-.55A1.67,1.67,0,0,1,72,100.24v3.13h-.63v-.53a4,4,0,0,1,0-.41h0a1.77,1.77,0,0,1-1.63,1.06A1.51,1.51,0,0,1,68.12,102C68.12,100.39,70.27,100.35,71.11,100.35Zm-1.23,2.58a1.7,1.7,0,0,0,1.5-1.82v-.21H71.1c-.77,0-2.3,0-2.3,1.11A1,1,0,0,0,69.89,102.93Z" transform="translate(-46.04 -2.57)"/><path class="cls-11" d="M73.57,98.48h.65v.73c0,.21,0,.39,0,.39h0a2.08,2.08,0,0,1,2-1.23c1.21,0,1.63.69,1.63,1.9v3.11h-.66v-2.94c0-.77-.12-1.45-1.06-1.45a1.86,1.86,0,0,0-1.78,1.38,2.41,2.41,0,0,0-.08.66v2.34h-.66Z" transform="translate(-46.04 -2.57)"/><path class="cls-11" d="M81.21,98.37a1.73,1.73,0,0,1,1.59.92h0a3.52,3.52,0,0,1,0-.37V96.54h.66v6.84h-.64v-.52a2.73,2.73,0,0,1,0-.35h0a1.77,1.77,0,0,1-1.68,1c-1.31,0-2.13-1.05-2.13-2.57A2.28,2.28,0,0,1,81.21,98.37Zm0,4.53c.82,0,1.58-.58,1.58-2,0-1-.51-2-1.56-2-.87,0-1.58.73-1.58,2S80.33,102.9,81.24,102.9Z" transform="translate(-46.04 -2.57)"/><rect class="cls-12" x="8.06" y="37.9" width="5.25" height="5.25" rx="1" ry="1"/><rect class="cls-12" x="8.06" y="53.04" width="5.25" height="5.25" rx="1" ry="1"/><rect class="cls-12" x="8.06" y="66.83" width="5.25" height="5.25" rx="1" ry="1"/><rect class="cls-12" x="8.06" y="80.68" width="5.25" height="5.25" rx="1" ry="1"/><rect class="cls-12" x="8.06" y="94.76" width="5.25" height="5.25" rx="1" ry="1"/></svg>
