<svg id="Layer_1" data-name="Layer 1" xmlns="http://www.w3.org/2000/svg" xmlns:xlink="http://www.w3.org/1999/xlink" viewBox="0 0 34.19 74.54"><defs><style>.cls-1{fill:none;}.cls-2{fill:#253039;}.cls-3{fill:url(#New_Pattern_Swatch_2);}</style><pattern id="New_Pattern_Swatch_2" data-name="New Pattern Swatch 2" width="7.06" height="7.06" patternTransform="matrix(0, -0.35, -0.28, 0, 5334.2, -3910.24)" patternUnits="userSpaceOnUse" viewBox="0 0 7.06 7.06"><rect class="cls-1" width="7.06" height="7.06"/><rect class="cls-2" width="7.06" height="7.06"/></pattern></defs><title>refine_by_price</title><path class="cls-3" d="M98.95,77.55a22.12,22.12,0,0,0,15.33,6.4c7.13,0,12.79-4.43,12.79-11.32,0-15.91-29.6-12.22-29.6-29.77,0-7.05,5.82-13.69,14.92-14.68V20.4h3.53v7.71a20.58,20.58,0,0,1,13.37,5.25l-2,3a19.06,19.06,0,0,0-12.55-4.92c-8.53,0-13.61,5.74-13.61,11.32,0,14.76,29.6,10.91,29.6,29.68,0,7.79-5.66,14.1-14.84,14.84v7.63H112.4V87.31a24.08,24.08,0,0,1-15.83-7.05Z" transform="translate(-96.57 -20.4)"/></svg>