<svg id="Layer_1" data-name="Layer 1" xmlns="http://www.w3.org/2000/svg" viewBox="0 0 258.86 178.95"><defs><style>.cls-1,.cls-2{fill:none;stroke:#fff;stroke-width:1.4px;}.cls-1{stroke-miterlimit:10;}.cls-2{stroke-linecap:round;stroke-linejoin:round;}.cls-3{fill:#fff;}</style></defs><title>searching_online</title><circle class="cls-1" cx="67.3" cy="27.34" r="4.87"/><circle class="cls-1" cx="29.12" cy="27.34" r="4.87"/><circle class="cls-1" cx="106.29" cy="27.34" r="4.87"/><path class="cls-2" d="M370.69,339.42H128.83a7.85,7.85,0,0,1-7.8-7.89V169.76a7.85,7.85,0,0,1,7.8-7.89H370.69a7.85,7.85,0,0,1,7.8,7.89V331.53A7.85,7.85,0,0,1,370.69,339.42Z" transform="translate(-120.33 -161.17)"/><line class="cls-1" x1="1.47" y1="59.5" x2="257.38" y2="61.07"/><path class="cls-3" d="M210.48,237.85a2.68,2.68,0,0,0-2.83,3v.87a2.72,2.72,0,0,0,2.86,3,10.61,10.61,0,0,0,2.29-.2c.21,0,.25-.12.25-.31v-.78c0-.12-.1-.18-.21-.18h0c-.5,0-1.31.12-2.17.12a1.33,1.33,0,0,1-1.42-1.5v0H213c.17,0,.24-.11.24-.3v-.66A2.7,2.7,0,0,0,210.48,237.85Zm1.24,2.85h-2.5v-.05a1.27,1.27,0,0,1,1.26-1.45c.73,0,1.24.53,1.24,1.45Z" transform="translate(-120.33 -161.17)"/><path class="cls-3" d="M207,244.6a4.73,4.73,0,0,1-.8.08c-1.33,0-1.88-.3-1.88-1.88v-3.7l-1.11-.17a.26.26,0,0,1-.24-.24v-.53a.24.24,0,0,1,.24-.24h1.11v-1.56a.25.25,0,0,1,.24-.24l1.1-.19h0a.17.17,0,0,1,.19.18v1.81H207a.24.24,0,0,1,.24.24v.69a.24.24,0,0,1-.24.24H205.9v3.7c0,.59,0,.66.46.66H207c.16,0,.25.06.25.18v.74c0,.12-.07.19-.23.21" transform="translate(-120.33 -161.17)"/><path class="cls-3" d="M200.2,237.85a10.11,10.11,0,0,0-2,.19c-.15,0-.23.12-.23.25V239c0,.16.09.2.21.2h.06a18.23,18.23,0,0,1,1.92-.09c.7,0,1,.19,1,1v.52h-.75c-2.05,0-2.88.7-2.88,2v0a1.8,1.8,0,0,0,2,2,3.23,3.23,0,0,0,1.66-.52v.19a.23.23,0,0,0,.24.23h1a.24.24,0,0,0,.24-.23v-4.25C202.8,238.6,201.88,237.85,200.2,237.85Zm1,5.26a2.57,2.57,0,0,1-1.2.33c-.59,0-.85-.15-.85-.73v0c0-.66.23-1,1.31-1h.75Z" transform="translate(-120.33 -161.17)"/><path class="cls-3" d="M197,244.6a4.71,4.71,0,0,1-.8.08c-1.33,0-1.87-.3-1.87-1.88v-3.7l-1.11-.17a.25.25,0,0,1-.23-.24v-.53a.24.24,0,0,1,.23-.24h1.11v-1.56a.25.25,0,0,1,.23-.24l1.1-.19h0a.17.17,0,0,1,.19.18v1.81H197a.24.24,0,0,1,.24.24v.69a.24.24,0,0,1-.24.24h-1.06v3.7c0,.59,0,.66.46.66H197c.15,0,.25.06.25.18v.74c0,.12-.07.19-.22.21" transform="translate(-120.33 -161.17)"/><path class="cls-3" d="M190.44,244.69a10,10,0,0,1-2.12-.24.27.27,0,0,1-.22-.27v-.71a.19.19,0,0,1,.2-.19h0c.57.07,1.63.13,2,.13.73,0,.84-.25.84-.57s-.14-.36-.52-.6l-1.62-1a1.94,1.94,0,0,1-1-1.63q0-1.77,2.25-1.77a8.78,8.78,0,0,1,2.1.24.26.26,0,0,1,.21.27V239c0,.14-.07.23-.19.23h0a17.58,17.58,0,0,0-2-.14c-.57,0-.81.13-.81.5,0,.19.18.31.47.48l1.55.94a1.89,1.89,0,0,1,1.13,1.79c0,1-.77,1.84-2.31,1.84" transform="translate(-120.33 -161.17)"/><path class="cls-3" d="M184.68,237.85a2.68,2.68,0,0,0-2.83,3v.87a2.72,2.72,0,0,0,2.85,3,10.62,10.62,0,0,0,2.29-.2c.21,0,.25-.12.25-.31v-.78c0-.12-.1-.18-.21-.18h0c-.5,0-1.31.12-2.17.12a1.33,1.33,0,0,1-1.42-1.5v0h3.85c.16,0,.23-.11.23-.3v-.66A2.7,2.7,0,0,0,184.68,237.85Zm1.24,2.85h-2.5v-.05c0-.93.53-1.45,1.26-1.45s1.24.53,1.24,1.45Z" transform="translate(-120.33 -161.17)"/><path class="cls-3" d="M180.91,244.59h-1.1a.25.25,0,0,1-.24-.25v-8.5a.23.23,0,0,1,.24-.23h1.1a.22.22,0,0,1,.22.23v8.5a.24.24,0,0,1-.22.25" transform="translate(-120.33 -161.17)"/><path class="cls-3" d="M176.16,237.85a10.11,10.11,0,0,0-2,.19c-.15,0-.22.12-.22.25V239c0,.16.09.2.21.2h.06a18.32,18.32,0,0,1,1.92-.09c.69,0,1,.19,1,1v.52h-.74c-2.05,0-2.88.7-2.88,2v0a1.8,1.8,0,0,0,2,2,3.21,3.21,0,0,0,1.66-.52v.19a.24.24,0,0,0,.24.23h1a.24.24,0,0,0,.23-.23v-4.25C178.76,238.6,177.84,237.85,176.16,237.85Zm1,5.26a2.58,2.58,0,0,1-1.2.33c-.59,0-.85-.15-.85-.73v0c0-.66.23-1,1.31-1h.74Z" transform="translate(-120.33 -161.17)"/><path class="cls-3" d="M170.29,237.85a2.68,2.68,0,0,0-2.83,3v.87a2.72,2.72,0,0,0,2.86,3,10.58,10.58,0,0,0,2.29-.2c.21,0,.25-.12.25-.31v-.78c0-.12-.09-.18-.21-.18h0c-.49,0-1.31.12-2.17.12a1.33,1.33,0,0,1-1.41-1.5v0h3.84c.17,0,.24-.11.24-.3v-.66A2.7,2.7,0,0,0,170.29,237.85Zm1.24,2.85H169v-.05a1.27,1.27,0,0,1,1.26-1.45c.73,0,1.24.53,1.24,1.45Z" transform="translate(-120.33 -161.17)"/><path class="cls-3" d="M166.95,239.18a3.39,3.39,0,0,0-1.63.42v4.74a.25.25,0,0,1-.24.25H164a.25.25,0,0,1-.24-.25v-6.17a.24.24,0,0,1,.24-.24h1a.24.24,0,0,1,.24.24v.24a2.75,2.75,0,0,1,1.69-.57.24.24,0,0,1,.24.24v.85a.24.24,0,0,1-.24.23" transform="translate(-120.33 -161.17)"/><path class="cls-3" d="M151.2,232.9h-.06a9.93,9.93,0,1,0,.06,0Zm5.52,10.77h-.81v4.48a.84.84,0,0,1-.83.84h-8a.84.84,0,0,1-.83-.84v-4.48h-.81a1.28,1.28,0,0,1-.9-2.18h0l5.92-5.89a.83.83,0,0,1,.61-.27h0a.84.84,0,0,1,.61.27l5.92,5.89h0a1.28,1.28,0,0,1-.9,2.18Z" transform="translate(-120.33 -161.17)"/><polygon class="cls-3" points="25.8 80.96 27.52 80.96 27.52 86.26 34.02 86.26 34.02 80.96 35.73 80.96 30.77 76.02 25.8 80.96"/><path class="cls-3" d="M180.73,249.93h-.56a.12.12,0,0,1-.12-.12v-.14a1.56,1.56,0,0,1-.95.3,1,1,0,0,1-.74-.25,1.52,1.52,0,0,1-.3-1.1v-2a.13.13,0,0,1,.12-.13h.55a.13.13,0,0,1,.12.13v2c0,.3,0,.47.14.58a.52.52,0,0,0,.37.11,1.7,1.7,0,0,0,.68-.24v-2.41a.13.13,0,0,1,.12-.13h.56a.13.13,0,0,1,.12.13v3.15a.12.12,0,0,1-.12.12m-3.86-1.49h-.38c-.55,0-.67.17-.67.51v0c0,.3.13.37.43.37a1.3,1.3,0,0,0,.62-.17Zm.68,1.49H177a.12.12,0,0,1-.12-.12v-.1a1.65,1.65,0,0,1-.85.27.92.92,0,0,1-1-1v0c0-.69.42-1,1.47-1h.38v-.26c0-.39-.17-.49-.53-.49a9.36,9.36,0,0,0-1,0h0c-.06,0-.11,0-.11-.1v-.39c0-.07,0-.11.11-.13a5.18,5.18,0,0,1,1-.1c.86,0,1.33.38,1.33,1.15v2.17a.12.12,0,0,1-.12.12m-2.93,0h-.54a.12.12,0,0,1-.12-.12v-.68a.12.12,0,0,1,.12-.11h.54a.12.12,0,0,1,.12.11v.68a.12.12,0,0,1-.12.12m-1.12,0h-.56a.13.13,0,0,1-.12-.13v-2c0-.46-.1-.59-.43-.59a1.33,1.33,0,0,0-.56.15,3.34,3.34,0,0,1,0,.44v2a.12.12,0,0,1-.12.13h-.55a.13.13,0,0,1-.12-.13v-2c0-.46-.08-.59-.42-.59a1.33,1.33,0,0,0-.55.2v2.44a.13.13,0,0,1-.12.13h-.55a.12.12,0,0,1-.12-.13v-3.15a.12.12,0,0,1,.12-.12h.53a.12.12,0,0,1,.12.12v.12a1.51,1.51,0,0,1,.86-.29.86.86,0,0,1,.71.27,1.88,1.88,0,0,1,1-.27c.82,0,1,.56,1,1.27v2a.13.13,0,0,1-.12.13M168.15,248c0-.49-.22-.81-.65-.81s-.65.32-.65.81v.49c0,.49.22.81.65.81s.65-.32.65-.81Zm-.65,2a1.37,1.37,0,0,1-1.44-1.5V248a1.44,1.44,0,1,1,2.88,0v.49a1.37,1.37,0,0,1-1.44,1.5m-1.86-.08a3.29,3.29,0,0,1-.78.08,1.31,1.31,0,0,1-1.37-1.46V248a1.31,1.31,0,0,1,1.37-1.46,3.32,3.32,0,0,1,.78.08c.1,0,.13.06.13.16v.39c0,.06,0,.09-.11.09h0a5.11,5.11,0,0,0-.78,0c-.28,0-.58.16-.58.79v.56c0,.63.3.79.58.79a5.49,5.49,0,0,0,.78,0h0c.06,0,.11,0,.11.09v.39c0,.1,0,.13-.13.16" transform="translate(-120.33 -161.17)"/><path class="cls-3" d="M163,249.81h-.54a.12.12,0,0,1-.12-.12V249a.12.12,0,0,1,.12-.11H163a.12.12,0,0,1,.12.11v.68a.12.12,0,0,1-.12.12" transform="translate(-120.33 -161.17)"/><path id="Stroke-4235" class="cls-1" d="M219.83,294l5.1,5.1" transform="translate(-120.33 -161.17)"/><path id="Stroke-4236" class="cls-1" d="M221.44,289.87a5.76,5.76,0,1,1-5.76-5.76,5.76,5.76,0,0,1,5.76,5.76Z" transform="translate(-120.33 -161.17)"/><line class="cls-1" x1="80.79" y1="115.32" x2="80.79" y2="145.58"/><line class="cls-1" x1="116.72" y1="81.14" x2="101.6" y2="81.14"/><line class="cls-1" x1="140.42" y1="81.14" x2="125.29" y2="81.14"/><line class="cls-1" x1="164.63" y1="81.14" x2="149.5" y2="81.14"/><line class="cls-1" x1="188.32" y1="81.14" x2="173.2" y2="81.14"/><line class="cls-1" x1="210.96" y1="81.14" x2="195.83" y2="81.14"/><line class="cls-1" x1="234.66" y1="81.14" x2="219.53" y2="81.14"/><rect class="cls-2" x="49.93" y="115.32" width="159" height="30.26" rx="1" ry="1"/><polyline class="cls-2" points="72.04 127.15 66.04 134.7 60.04 127.15"/></svg>