<svg id="Layer_2" data-name="Layer 2" xmlns="http://www.w3.org/2000/svg" viewBox="0 0 182.67 250.77"><defs><style>.cls-1,.cls-2{fill:none;stroke:#fff;stroke-width:2px;}.cls-1{stroke-miterlimit:10;}.cls-2{stroke-linecap:round;stroke-linejoin:round;}.cls-3{fill:#fff;}</style></defs><title>sold_visits</title><path class="cls-1" d="M113.34,31a28.48,28.48,0,0,0-28-24.65c-1.56.16-3.13.26-4.67.5A28.32,28.32,0,0,0,57.06,33.73a36.92,36.92,0,0,0,2.65,13.86A88.74,88.74,0,0,0,71.89,69.21c2.59,3.48,5.4,6.81,8.27,10.07a8.54,8.54,0,0,0,3.46,2.27,5.75,5.75,0,0,0,6.27-1.7c2-2.07,3.92-4.21,5.7-6.47,6.12-7.75,11.49-16,15.1-25.21,2.15-5.51,3.43-11.17,2.65-17.15" transform="translate(-5.95 -5.37)"/><path class="cls-1" d="M85.19,48.63A12.42,12.42,0,1,1,97.61,36.2,12.42,12.42,0,0,1,85.19,48.63" transform="translate(-5.95 -5.37)"/><polyline class="cls-2" points="46.77 239.93 21.4 239.93 21.4 146.96"/><polyline class="cls-2" points="1 165.12 79.22 90.31 157.43 165.12"/><path class="cls-3" d="M150.16,218.69c-3.82,0-7,3.22-7,8.67s2.79,8.72,6.83,8.72c3.61,0,7-2.58,7-8.72C157,223,154.8,218.69,150.16,218.69Z" transform="translate(-5.95 -5.37)"/><path class="cls-3" d="M112,218.73a8.38,8.38,0,0,0-8.42,8.54,8.42,8.42,0,1,0,16.83,0A8.38,8.38,0,0,0,112,218.73Z" transform="translate(-5.95 -5.37)"/><path class="cls-3" d="M188.22,192.45l-45.25.28-89.41.21.07,63.2,135-.84ZM88.3,238.7a11,11,0,0,1-8-3.13l1.59-2.1a9.26,9.26,0,0,0,6.44,2.62c2.32,0,4.34-1.16,4.34-3.43,0-4.72-11.63-3.56-11.63-10.6,0-3.86,3.48-6,7.38-6,4.55,0,6.65,2.36,6.65,2.36l-1.33,2.23a7.66,7.66,0,0,0-5.41-2c-2.19,0-4.29.94-4.29,3.35,0,4.77,11.63,3.48,11.63,10.6C95.68,236.16,92.64,238.7,88.3,238.7Zm23.7,0a11.31,11.31,0,1,1,11.42-11.42A11.28,11.28,0,0,1,112,238.7Zm23.78-.43a7.39,7.39,0,0,1-1.07.09c-1.8,0-5-.56-5-5.28V208h2.92v24.43c0,2.83,1.29,3.26,2.4,3.26a6.66,6.66,0,0,0,.73,0Zm24.08-.09H157v-2.28a11.92,11.92,0,0,1,.09-1.55H157a7.81,7.81,0,0,1-7.43,4.34c-5.8,0-9.4-4.64-9.4-11.33s4-11.29,9.7-11.29a7.62,7.62,0,0,1,7,4.08H157a15.66,15.66,0,0,1-.09-1.63V208h2.92Z" transform="translate(-5.95 -5.37)"/><line class="cls-1" x1="137.03" y1="145.6" x2="137.03" y2="186.37"/></svg>