<svg id="Layer_1" data-name="Layer 1" xmlns="http://www.w3.org/2000/svg" xmlns:xlink="http://www.w3.org/1999/xlink" viewBox="0 0 193.88 46.12"><defs><style>.cls-1,.cls-4,.cls-5{fill:none;}.cls-2{fill:#253039;}.cls-3{fill:url(#New_Pattern_Swatch_2);}.cls-4,.cls-5{stroke-miterlimit:10;stroke-width:1.4px;}.cls-4{stroke:url(#New_Pattern_Swatch_2-25);}.cls-5{stroke:#93227E;}</style><pattern id="New_Pattern_Swatch_2" data-name="New Pattern Swatch 2" width="7.06" height="7.06" patternTransform="matrix(0, -0.47, -0.37, 0, 7075.54, -5195.13)" patternUnits="userSpaceOnUse" viewBox="0 0 7.06 7.06"><rect class="cls-1" width="7.06" height="7.06"/><rect class="cls-2" width="7.06" height="7.06"/></pattern><pattern id="New_Pattern_Swatch_2-25" data-name="New Pattern Swatch 2" width="7.06" height="7.06" patternTransform="matrix(0, -0.47, -0.33, 0, 6324.76, -5215.17)" patternUnits="userSpaceOnUse" viewBox="0 0 7.06 7.06"><rect class="cls-1" width="7.06" height="7.06"/><rect class="cls-2" width="7.06" height="7.06"/></pattern></defs><title>sort_relevance</title><path class="cls-3" d="M35.47,51.28h1.15l2.93,6.58c.26.57.54,1.37.54,1.37h0s.3-.8.56-1.37l2.93-6.58h1.13l.89,11.2h-1.1l-.62-7.84c0-.61,0-1.56,0-1.56h0s-.33,1-.59,1.56l-2.63,5.75h-1L37,54.64c-.26-.56-.61-1.59-.61-1.59h0s0,1,0,1.59l-.62,7.84h-1.1Z" transform="translate(-16.73 -34.6)"/><path class="cls-3" d="M51.88,54.27a4.2,4.2,0,1,1-4.24,4.16A4.15,4.15,0,0,1,51.88,54.27Zm0,7.42A3.16,3.16,0,0,0,55,58.43a3.12,3.12,0,1,0-6.25,0A3.16,3.16,0,0,0,51.88,61.7Z" transform="translate(-16.73 -34.6)"/><path class="cls-3" d="M58.08,60.73a3.44,3.44,0,0,0,2.39,1c.86,0,1.61-.43,1.61-1.27,0-1.75-4.32-1.32-4.32-3.94,0-1.43,1.29-2.21,2.74-2.21a3.37,3.37,0,0,1,2.47.88l-.49.83a2.84,2.84,0,0,0-2-.73c-.81,0-1.59.35-1.59,1.24,0,1.77,4.32,1.29,4.32,3.94,0,1.31-1.13,2.25-2.74,2.25a4.08,4.08,0,0,1-3-1.16Z" transform="translate(-16.73 -34.6)"/><path class="cls-3" d="M65.51,55.47H64.46v-.91h1.07V52.25h1.07v2.31h2v.91h-2v4c0,1.88,1.19,2.12,1.8,2.12a1.85,1.85,0,0,0,.37,0v1a2.83,2.83,0,0,1-.46,0c-.92,0-2.79-.3-2.79-3Z" transform="translate(-16.73 -34.6)"/><path class="cls-3" d="M74.83,54.46H75.9v1.42c0,.35,0,.64,0,.64h0a2.73,2.73,0,0,1,2.53-2.13,2.18,2.18,0,0,1,.43,0V55.5a2.76,2.76,0,0,0-.4,0,2.57,2.57,0,0,0-2.33,2.07,5.32,5.32,0,0,0-.22,1.56v3.38H74.83Z" transform="translate(-16.73 -34.6)"/><path class="cls-3" d="M83.81,54.27c2.21,0,3.35,1.7,3.35,3.7,0,.19,0,.56,0,.56H81a3,3,0,0,0,3.11,3.17,3.72,3.72,0,0,0,2.44-1l.49.83a4.6,4.6,0,0,1-3,1.12,4.05,4.05,0,0,1-4.19-4.19A3.91,3.91,0,0,1,83.81,54.27Zm2.25,3.36a2.25,2.25,0,0,0-2.28-2.45A2.72,2.72,0,0,0,81,57.63Z" transform="translate(-16.73 -34.6)"/><path class="cls-3" d="M89.15,51.28h1.08v9.07c0,1.05.48,1.21.89,1.21l.27,0v1a2.74,2.74,0,0,1-.4,0c-.67,0-1.85-.21-1.85-2Z" transform="translate(-16.73 -34.6)"/><path class="cls-3" d="M96.56,54.27c2.22,0,3.35,1.7,3.35,3.7,0,.19,0,.56,0,.56H93.72a3,3,0,0,0,3.11,3.17,3.72,3.72,0,0,0,2.44-1l.49.83a4.6,4.6,0,0,1-3,1.12,4.05,4.05,0,0,1-4.19-4.19A3.91,3.91,0,0,1,96.56,54.27Zm2.25,3.36a2.25,2.25,0,0,0-2.28-2.45,2.72,2.72,0,0,0-2.76,2.45Z" transform="translate(-16.73 -34.6)"/><path class="cls-3" d="M100.88,54.46H102l2.23,5.88c.14.4.27,1,.27,1h0a8.93,8.93,0,0,1,.29-1l2.22-5.88h1.13l-3.06,8H104Z" transform="translate(-16.73 -34.6)"/><path class="cls-3" d="M114,57.52h.45v-.21a1.8,1.8,0,0,0-2-2.07,3.9,3.9,0,0,0-2.26.76l-.51-.83a4.61,4.61,0,0,1,2.85-.91,2.73,2.73,0,0,1,3,3.07v5.13h-1V61.6a6.22,6.22,0,0,1,0-.67h0a2.89,2.89,0,0,1-2.68,1.74,2.48,2.48,0,0,1-2.72-2.37C109.06,57.59,112.58,57.52,114,57.52Zm-2,4.22c1.53,0,2.45-1.59,2.45-3v-.35H114c-1.26,0-3.78,0-3.78,1.82A1.59,1.59,0,0,0,112,61.74Z" transform="translate(-16.73 -34.6)"/><path class="cls-3" d="M118,54.46h1.07v1.2a6.33,6.33,0,0,1,0,.64h0a3.41,3.41,0,0,1,3.2-2c2,0,2.68,1.13,2.68,3.11v5.1h-1.08V57.67c0-1.26-.19-2.37-1.74-2.37a3,3,0,0,0-2.92,2.26,4,4,0,0,0-.13,1.08v3.84H118Z" transform="translate(-16.73 -34.6)"/><path class="cls-3" d="M127.76,55.47h-1.05v-.91h1.07V52.25h1.07v2.31h2v.91h-2v4c0,1.88,1.19,2.12,1.8,2.12a1.85,1.85,0,0,0,.37,0v1a2.83,2.83,0,0,1-.46,0c-.92,0-2.79-.3-2.79-3Z" transform="translate(-16.73 -34.6)"/><rect class="cls-4" x="0.7" y="0.7" width="192.48" height="44.72" rx="3" ry="3"/><polygon class="cls-5" points="178.81 25.06 165.53 25.06 172.17 34.8 178.81 25.06"/><polygon class="cls-5" points="165.53 21.2 178.81 21.2 172.17 11.46 165.53 21.2"/></svg>
