<svg id="Layer_1" data-name="Layer 1" xmlns="http://www.w3.org/2000/svg" xmlns:xlink="http://www.w3.org/1999/xlink" viewBox="0 0 161.88 159.11"><defs><style>.cls-1,.cls-3,.cls-5,.cls-6,.cls-7,.cls-8{fill:none;}.cls-2{fill:#253039;}.cls-3,.cls-5,.cls-6,.cls-7{stroke-linecap:round;stroke-linejoin:round;}.cls-3,.cls-5,.cls-6,.cls-7,.cls-8{stroke-width:1.4px;}.cls-3{stroke:url(#New_Pattern_Swatch_2);}.cls-4{fill:#fff;}.cls-4,.cls-8{stroke:#fff;stroke-miterlimit:10;}.cls-5{stroke:url(#New_Pattern_Swatch_2-3);}.cls-6{stroke:url(#Unnamed_Pattern_3);}.cls-7{stroke:url(#Unnamed_Pattern_3-7);}.cls-9{fill:url(#New_Pattern_Swatch_2-5);}</style><pattern id="New_Pattern_Swatch_2" data-name="New Pattern Swatch 2" width="7.06" height="7.06" patternTransform="matrix(0, -0.11, -0.09, 0, 1467.82, -1369.72)" patternUnits="userSpaceOnUse" viewBox="0 0 7.06 7.06"><rect class="cls-1" width="7.06" height="7.06"/><rect class="cls-2" width="7.06" height="7.06"/></pattern><pattern id="New_Pattern_Swatch_2-3" data-name="New Pattern Swatch 2" width="7.06" height="7.06" patternTransform="matrix(0, -0.11, -0.09, 0, 1468.13, -1369.72)" patternUnits="userSpaceOnUse" viewBox="0 0 7.06 7.06"><rect class="cls-1" width="7.06" height="7.06"/><rect class="cls-2" width="7.06" height="7.06"/></pattern><pattern id="Unnamed_Pattern_3" data-name="Unnamed Pattern 3" width="7.06" height="7.06" patternTransform="matrix(0, 5.15, 5.15, 0, -59680.55, -3318.93)" patternUnits="userSpaceOnUse" viewBox="0 0 7.06 7.06"><rect class="cls-1" width="7.06" height="7.06"/><rect class="cls-2" width="7.06" height="7.06"/></pattern><pattern id="Unnamed_Pattern_3-7" data-name="Unnamed Pattern 3" width="7.06" height="7.06" patternTransform="matrix(0, 5.15, 5.15, 0, -59688.24, -3318.93)" patternUnits="userSpaceOnUse" viewBox="0 0 7.06 7.06"><rect class="cls-1" width="7.06" height="7.06"/><rect class="cls-2" width="7.06" height="7.06"/></pattern><pattern id="New_Pattern_Swatch_2-5" data-name="New Pattern Swatch 2" width="7.06" height="7.06" patternTransform="matrix(0, -0.35, -0.28, 0, 5333.84, -3923.04)" patternUnits="userSpaceOnUse" viewBox="0 0 7.06 7.06"><rect class="cls-1" width="7.06" height="7.06"/><rect class="cls-2" width="7.06" height="7.06"/></pattern></defs><title>suburb_sold_prices_3</title><rect class="cls-3" x="105.35" y="0.7" width="52.55" height="52.55" rx="3" ry="3"/><path class="cls-4" d="M295,206.42a8.85,8.85,0,0,0,6.14,2.56c2.86,0,5.12-1.77,5.12-4.53,0-6.37-11.85-4.89-11.85-11.92,0-2.82,2.33-5.48,6-5.88v-3.12h1.41v3.09a8.24,8.24,0,0,1,5.35,2.1l-.79,1.21a7.63,7.63,0,0,0-5-2c-3.41,0-5.45,2.3-5.45,4.53,0,5.91,11.85,4.37,11.85,11.88,0,3.12-2.26,5.65-5.94,5.94v3.05h-1.41v-3.05A9.64,9.64,0,0,1,294,207.5Z" transform="translate(-169.24 -171.48)"/><rect class="cls-5" x="3.21" y="0.7" width="52.55" height="52.55" rx="3" ry="3"/><path class="cls-4" d="M193.59,206.42a8.85,8.85,0,0,0,6.14,2.56c2.86,0,5.12-1.77,5.12-4.53,0-6.37-11.85-4.89-11.85-11.92,0-2.82,2.33-5.48,6-5.88v-3.12h1.41v3.09a8.24,8.24,0,0,1,5.35,2.1l-.79,1.21a7.63,7.63,0,0,0-5-2c-3.41,0-5.45,2.3-5.45,4.53,0,5.91,11.85,4.37,11.85,11.88,0,3.12-2.26,5.65-5.94,5.94v3.05H199v-3.05a9.64,9.64,0,0,1-6.34-2.82Z" transform="translate(-169.24 -171.48)"/><polyline class="cls-6" points="15.59 154.88 7.34 154.88 7.34 124.64"/><polyline class="cls-6" points="0.7 130.54 26.14 106.21 51.59 130.54"/><line class="cls-6" x1="44.95" y1="124.64" x2="44.95" y2="137.78"/><polyline class="cls-7" points="116.97 154.88 108.72 154.88 108.72 124.64"/><polyline class="cls-7" points="102.08 130.54 127.53 106.21 152.97 130.54"/><line class="cls-7" x1="146.33" y1="124.64" x2="146.33" y2="137.78"/><polyline class="cls-8" points="44.95 137.78 59.67 137.69 59.8 158.13 15.88 158.41 15.86 137.85 44.95 137.78"/><path class="cls-9" d="M194.64,322.51a3,3,0,0,0,2.09.85c.75,0,1.41-.38,1.41-1.12,0-1.54-3.78-1.16-3.78-3.45,0-1.26,1.13-1.94,2.4-1.94a3,3,0,0,1,2.16.77l-.43.73a2.49,2.49,0,0,0-1.76-.64c-.71,0-1.4.31-1.4,1.09,0,1.55,3.78,1.13,3.78,3.45a2.13,2.13,0,0,1-2.4,2,3.58,3.58,0,0,1-2.6-1Z" transform="translate(-169.24 -171.48)"/><path class="cls-9" d="M204.43,316.85a3.68,3.68,0,1,1-3.71,3.64A3.64,3.64,0,0,1,204.43,316.85Zm0,6.51a2.77,2.77,0,0,0,2.74-2.86,2.74,2.74,0,1,0-5.47,0A2.77,2.77,0,0,0,204.43,323.36Z" transform="translate(-169.24 -171.48)"/><path class="cls-9" d="M210.2,314.23h.95v7.95c0,.92.42,1.06.78,1.06h.24v.85a2.4,2.4,0,0,1-.35,0c-.59,0-1.62-.18-1.62-1.72Z" transform="translate(-169.24 -171.48)"/><path class="cls-9" d="M216.76,316.85a2.48,2.48,0,0,1,2.29,1.33h0a5.09,5.09,0,0,1,0-.53v-3.42H220V324h-.92v-.74a3.88,3.88,0,0,1,0-.5h0a2.54,2.54,0,0,1-2.42,1.41c-1.89,0-3.06-1.51-3.06-3.69S214.92,316.85,216.76,316.85Zm0,6.51c1.17,0,2.28-.84,2.28-2.83,0-1.42-.73-2.82-2.23-2.82-1.24,0-2.26,1-2.26,2.82S215.49,323.36,216.81,323.36Z" transform="translate(-169.24 -171.48)"/><polyline class="cls-8" points="146.33 137.78 161.05 137.69 161.18 158.13 117.27 158.41 117.25 137.85 146.33 137.78"/><path class="cls-9" d="M296,322.51a3,3,0,0,0,2.09.85c.75,0,1.41-.38,1.41-1.12,0-1.54-3.78-1.16-3.78-3.45,0-1.26,1.13-1.94,2.4-1.94a3,3,0,0,1,2.16.77l-.43.73a2.49,2.49,0,0,0-1.76-.64c-.71,0-1.4.31-1.4,1.09,0,1.55,3.78,1.13,3.78,3.45a2.13,2.13,0,0,1-2.4,2,3.58,3.58,0,0,1-2.6-1Z" transform="translate(-169.24 -171.48)"/><path class="cls-9" d="M305.82,316.85a3.68,3.68,0,1,1-3.71,3.64A3.64,3.64,0,0,1,305.82,316.85Zm0,6.51a2.77,2.77,0,0,0,2.74-2.86,2.74,2.74,0,1,0-5.47,0A2.77,2.77,0,0,0,305.82,323.36Z" transform="translate(-169.24 -171.48)"/><path class="cls-9" d="M311.58,314.23h.95v7.95c0,.92.42,1.06.78,1.06h.24v.85a2.4,2.4,0,0,1-.35,0c-.59,0-1.62-.18-1.62-1.72Z" transform="translate(-169.24 -171.48)"/><path class="cls-9" d="M318.15,316.85a2.48,2.48,0,0,1,2.29,1.33h0a5.09,5.09,0,0,1,0-.53v-3.42h.95V324h-.92v-.74a3.88,3.88,0,0,1,0-.5h0a2.54,2.54,0,0,1-2.42,1.41c-1.89,0-3.06-1.51-3.06-3.69S316.3,316.85,318.15,316.85Zm0,6.51c1.17,0,2.28-.84,2.28-2.83,0-1.42-.73-2.82-2.23-2.82-1.24,0-2.26,1-2.26,2.82S316.88,323.36,318.19,323.36Z" transform="translate(-169.24 -171.48)"/></svg>