<svg id="Layer_1" data-name="Layer 1" xmlns="http://www.w3.org/2000/svg" viewBox="0 0 260.86 113.88"><defs><style>.cls-1{fill:none;stroke:#fff;stroke-linecap:round;stroke-linejoin:round;stroke-width:1.4px;}</style></defs><title>suburb_amenities</title><polyline class="cls-1" points="93.56 63.05 93.56 112.57 14.49 112.57 14.49 63.05"/><polyline class="cls-1" points="40.56 112.57 40.56 81.8 67.49 81.8 67.49 112.57"/><line class="cls-1" x1="19.25" y1="63.05" x2="28.52" y2="39.86"/><line class="cls-1" x1="37.8" y1="63.05" x2="42.43" y2="39.86"/><line class="cls-1" x1="70.25" y1="63.05" x2="65.62" y2="39.86"/><line class="cls-1" x1="79.53" y1="39.86" x2="88.8" y2="63.05"/><path class="cls-1" d="M121.87,248.33l12.74-15.45h78.83l12.74,15.45a4.65,4.65,0,0,1-3.37,7.74H125.24A4.65,4.65,0,0,1,121.87,248.33Z" transform="translate(-119.99 -193.03)"/><line class="cls-1" x1="54.02" y1="39.86" x2="54.02" y2="63.05"/><polyline class="cls-1" points="93.44 39.86 93.44 27.73 14.61 27.73 14.61 39.86"/><rect id="_Path_" data-name="&lt;Path&gt;" class="cls-1" x="143.67" y="97.11" width="64.27" height="12.05"/><rect id="_Path_2" data-name="&lt;Path&gt;" class="cls-1" x="147.68" y="81.04" width="56.24" height="16.07"/><polyline id="_Path_3" data-name="&lt;Path&gt;" class="cls-1" points="217.99 73.01 217.99 113.18 230.04 113.18 230.04 73.01"/><line id="_Path_4" data-name="&lt;Path&gt;" class="cls-1" x1="147.68" y1="109.16" x2="147.68" y2="113.18"/><line id="_Path_5" data-name="&lt;Path&gt;" class="cls-1" x1="203.92" y1="109.16" x2="203.92" y2="113.18"/><circle id="_Path_6" data-name="&lt;Path&gt;" class="cls-1" cx="224.01" cy="36.85" r="36.15"/><path id="_Path_7" data-name="&lt;Path&gt;" class="cls-1" d="M327.93,213.81a4,4,0,0,1,8,0" transform="translate(-119.99 -193.03)"/><path id="_Path_8" data-name="&lt;Path&gt;" class="cls-1" d="M319.9,233.9a4,4,0,0,1,8,0" transform="translate(-119.99 -193.03)"/><path id="_Path_9" data-name="&lt;Path&gt;" class="cls-1" d="M356.05,225.86a4,4,0,1,1,8,0" transform="translate(-119.99 -193.03)"/><path id="_Path_10" data-name="&lt;Path&gt;" class="cls-1" d="M344,245.95a4,4,0,1,1,8,0" transform="translate(-119.99 -193.03)"/></svg>