<svg id="Layer_1" data-name="Layer 1" xmlns="http://www.w3.org/2000/svg" xmlns:xlink="http://www.w3.org/1999/xlink" viewBox="0 0 220.45 46.12"><defs><style>.cls-1,.cls-5,.cls-6{fill:none;}.cls-2{fill:#253039;}.cls-3{fill:url(#New_Pattern_Swatch_2);}.cls-4{fill:#0084FF;}.cls-5,.cls-6{stroke-miterlimit:10;stroke-width:1.4px;}.cls-5{stroke:url(#New_Pattern_Swatch_2-17);}.cls-6{stroke:url(#New_Pattern_Swatch_2-19);}</style><pattern id="New_Pattern_Swatch_2" data-name="New Pattern Swatch 2" width="7.06" height="7.06" patternTransform="matrix(0, -0.28, -0.22, 0, 4157.31, -3047.6)" patternUnits="userSpaceOnUse" viewBox="0 0 7.06 7.06"><rect class="cls-1" width="7.06" height="7.06"/><rect class="cls-2" width="7.06" height="7.06"/></pattern><pattern id="New_Pattern_Swatch_2-17" data-name="New Pattern Swatch 2" width="7.06" height="7.06" patternTransform="matrix(0, -0.47, -0.33, 0, 6329.46, -5211.86)" patternUnits="userSpaceOnUse" viewBox="0 0 7.06 7.06"><rect class="cls-1" width="7.06" height="7.06"/><rect class="cls-2" width="7.06" height="7.06"/></pattern><pattern id="New_Pattern_Swatch_2-19" data-name="New Pattern Swatch 2" width="7.06" height="7.06" patternTransform="matrix(0, 0.37, 0.26, 0, -5035.79, 4056.63)" patternUnits="userSpaceOnUse" viewBox="0 0 7.06 7.06"><rect class="cls-1" width="7.06" height="7.06"/><rect class="cls-2" width="7.06" height="7.06"/></pattern></defs><title>suburb_search</title><path class="cls-3" d="M21.47,61A3.85,3.85,0,0,0,24.05,62a1.78,1.78,0,0,0,2-1.71c0-2.48-4.92-1.85-4.92-4.91a2.84,2.84,0,0,1,3.07-2.65,3.83,3.83,0,0,1,2.64,1l-.48.81a3.36,3.36,0,0,0-2.16-.84,1.89,1.89,0,0,0-2.08,1.7c0,2.34,4.92,1.67,4.92,4.91A2.72,2.72,0,0,1,24,63a4.35,4.35,0,0,1-3.13-1.26Z" transform="translate(-3.44 -34.6)"/><path class="cls-3" d="M28.79,55.75h1V60c0,1.11.17,2.09,1.53,2.09a2.74,2.74,0,0,0,2.61-2.95V55.75h1v7.06h-.93V61.75c0-.31,0-.56,0-.56h0A3,3,0,0,1,31.15,63c-1.65,0-2.36-.9-2.36-2.74Z" transform="translate(-3.44 -34.6)"/><path class="cls-3" d="M37.14,52.94h1v3.42c0,.32,0,.58,0,.58h0a2.56,2.56,0,0,1,2.4-1.36c1.89,0,3.07,1.52,3.07,3.7S42.23,63,40.38,63a2.57,2.57,0,0,1-2.31-1.37h0a5.43,5.43,0,0,1,0,.58v.63h-.93Zm3.17,9.19c1.25,0,2.27-1.05,2.27-2.85s-.91-2.83-2.23-2.83-2.29.84-2.29,2.85C38.06,60.72,38.79,62.13,40.31,62.13Z" transform="translate(-3.44 -34.6)"/><path class="cls-3" d="M45.3,55.75h1V60c0,1.11.17,2.09,1.53,2.09a2.74,2.74,0,0,0,2.61-2.95V55.75h1v7.06h-.93V61.75c0-.31,0-.56,0-.56h0A3,3,0,0,1,47.65,63c-1.66,0-2.36-.9-2.36-2.74Z" transform="translate(-3.44 -34.6)"/><path class="cls-3" d="M53.64,55.75h.94V57c0,.31,0,.56,0,.56h0a2.41,2.41,0,0,1,2.23-1.88,1.9,1.9,0,0,1,.38,0v.94a2.4,2.4,0,0,0-.35,0,2.26,2.26,0,0,0-2,1.82,4.66,4.66,0,0,0-.2,1.37v3h-1Z" transform="translate(-3.44 -34.6)"/><path class="cls-3" d="M58.64,52.94h1v3.42c0,.32,0,.58,0,.58h0A2.56,2.56,0,0,1,62,55.58c1.89,0,3.07,1.52,3.07,3.7S63.73,63,61.88,63a2.57,2.57,0,0,1-2.31-1.37h0a5.43,5.43,0,0,1,0,.58v.63h-.93Zm3.17,9.19c1.25,0,2.27-1.05,2.27-2.85s-.91-2.83-2.23-2.83-2.29.84-2.29,2.85C59.56,60.72,60.29,62.13,61.81,62.13Z" transform="translate(-3.44 -34.6)"/><path class="cls-3" d="M70.3,61.94h2.22V54.7c0-.28,0-.55,0-.55h0a2.42,2.42,0,0,1-.49.59L71,55.79l-.62-.63,2.23-2.22h.9v9h2.17v.87H70.3Z" transform="translate(-3.44 -34.6)"/><path class="cls-3" d="M77.36,61.66h1.05l-1,2.51h-.81Z" transform="translate(-3.44 -34.6)"/><path class="cls-4" d="M84.52,61A3.85,3.85,0,0,0,87.11,62a1.78,1.78,0,0,0,2-1.71c0-2.48-4.92-1.85-4.92-4.91a2.84,2.84,0,0,1,3.07-2.65,3.83,3.83,0,0,1,2.64,1l-.48.81a3.36,3.36,0,0,0-2.16-.84,1.89,1.89,0,0,0-2.08,1.7c0,2.34,4.92,1.67,4.92,4.91a2.72,2.72,0,0,1-3,2.67,4.35,4.35,0,0,1-3.13-1.26Z" transform="translate(-3.44 -34.6)"/><path class="cls-4" d="M91.85,55.75h1V60c0,1.11.17,2.09,1.53,2.09a2.74,2.74,0,0,0,2.61-2.95V55.75h1v7.06H97V61.75c0-.31,0-.56,0-.56h0A3,3,0,0,1,94.2,63c-1.66,0-2.36-.9-2.36-2.74Z" transform="translate(-3.44 -34.6)"/><path class="cls-4" d="M100.19,52.94h1v3.42c0,.32,0,.58,0,.58h0a2.56,2.56,0,0,1,2.4-1.36c1.89,0,3.07,1.52,3.07,3.7S105.28,63,103.43,63a2.57,2.57,0,0,1-2.31-1.37h0a5.43,5.43,0,0,1,0,.58v.63h-.93Zm3.17,9.19c1.25,0,2.27-1.05,2.27-2.85s-.91-2.83-2.23-2.83-2.29.84-2.29,2.85C101.12,60.72,101.85,62.13,103.36,62.13Z" transform="translate(-3.44 -34.6)"/><path class="cls-4" d="M108.35,55.75h1V60c0,1.11.17,2.09,1.53,2.09a2.74,2.74,0,0,0,2.61-2.95V55.75h1v7.06h-.93V61.75c0-.31,0-.56,0-.56h0A3,3,0,0,1,110.71,63c-1.66,0-2.36-.9-2.36-2.74Z" transform="translate(-3.44 -34.6)"/><path class="cls-4" d="M116.7,55.75h.94V57c0,.31,0,.56,0,.56h0a2.41,2.41,0,0,1,2.23-1.88,1.91,1.91,0,0,1,.38,0v.94a2.4,2.4,0,0,0-.35,0,2.26,2.26,0,0,0-2,1.82,4.66,4.66,0,0,0-.2,1.37v3h-1Z" transform="translate(-3.44 -34.6)"/><path class="cls-4" d="M121.69,52.94h1v3.42c0,.32,0,.58,0,.58h0a2.56,2.56,0,0,1,2.4-1.36c1.89,0,3.07,1.52,3.07,3.7S126.78,63,124.93,63a2.57,2.57,0,0,1-2.31-1.37h0a5.43,5.43,0,0,1,0,.58v.63h-.93Zm3.17,9.19c1.25,0,2.27-1.05,2.27-2.85s-.91-2.83-2.23-2.83-2.29.84-2.29,2.85C122.62,60.72,123.35,62.13,124.86,62.13Z" transform="translate(-3.44 -34.6)"/><path class="cls-4" d="M133.41,62.17c0-3.47,5.05-3.91,5.05-6.58a1.89,1.89,0,0,0-2-1.89,2.75,2.75,0,0,0-2.2,1.35l-.73-.49a3.47,3.47,0,0,1,3-1.78,2.75,2.75,0,0,1,3,2.76c0,3.31-5,3.77-5,6.4h5.15v.87h-6.16A3.35,3.35,0,0,1,133.41,62.17Z" transform="translate(-3.44 -34.6)"/><rect class="cls-5" x="0.7" y="0.7" width="219.05" height="44.72" rx="3" ry="3"/><polygon class="cls-6" points="206.63 16.66 190.86 16.66 198.74 28.22 206.63 16.66"/></svg>
