<svg id="Layer_1" data-name="Layer 1" xmlns="http://www.w3.org/2000/svg" xmlns:xlink="http://www.w3.org/1999/xlink" viewBox="0 0 258.36 159.71"><defs><style>.cls-1,.cls-11,.cls-12,.cls-13,.cls-14,.cls-15,.cls-3,.cls-5,.cls-6,.cls-7,.cls-8,.cls-9{fill:none;}.cls-2{fill:#253039;}.cls-11,.cls-12,.cls-13,.cls-14,.cls-3,.cls-5,.cls-6,.cls-7,.cls-8{stroke-linecap:round;stroke-linejoin:round;}.cls-11,.cls-12,.cls-13,.cls-14,.cls-15,.cls-3,.cls-5,.cls-6,.cls-7,.cls-8,.cls-9{stroke-width:2px;}.cls-3{stroke:url(#New_Pattern_Swatch_2);}.cls-4{fill:#00beb4;}.cls-4,.cls-9{stroke:#00beb4;}.cls-10,.cls-15,.cls-4,.cls-9{stroke-miterlimit:10;}.cls-10,.cls-4{stroke-width:0.5px;}.cls-5{stroke:url(#New_Pattern_Swatch_2-3);}.cls-6{stroke:url(#New_Pattern_Swatch_2-5);}.cls-7{stroke:url(#Unnamed_Pattern_3);}.cls-8{stroke:url(#Unnamed_Pattern_3-3);}.cls-10{fill:url(#New_Pattern_Swatch_2-7);stroke:url(#New_Pattern_Swatch_2-9);}.cls-11{stroke:url(#Unnamed_Pattern_3-9);}.cls-12{stroke:url(#Unnamed_Pattern_3-11);}.cls-13{stroke:url(#Unnamed_Pattern_3-17);}.cls-14{stroke:url(#Unnamed_Pattern_3-19);}.cls-15{stroke:#fff;}</style><pattern id="New_Pattern_Swatch_2" data-name="New Pattern Swatch 2" width="7.06" height="7.06" patternTransform="matrix(0, -0.11, -0.09, 0, 1514.19, -1367.89)" patternUnits="userSpaceOnUse" viewBox="0 0 7.06 7.06"><rect class="cls-1" width="7.06" height="7.06"/><rect class="cls-2" width="7.06" height="7.06"/></pattern><pattern id="New_Pattern_Swatch_2-3" data-name="New Pattern Swatch 2" width="7.06" height="7.06" patternTransform="matrix(0, -0.11, -0.09, 0, 1513.53, -1367.89)" patternUnits="userSpaceOnUse" viewBox="0 0 7.06 7.06"><rect class="cls-1" width="7.06" height="7.06"/><rect class="cls-2" width="7.06" height="7.06"/></pattern><pattern id="New_Pattern_Swatch_2-5" data-name="New Pattern Swatch 2" width="7.06" height="7.06" patternTransform="matrix(0, -0.11, -0.09, 0, 1514.5, -1367.89)" patternUnits="userSpaceOnUse" viewBox="0 0 7.06 7.06"><rect class="cls-1" width="7.06" height="7.06"/><rect class="cls-2" width="7.06" height="7.06"/></pattern><pattern id="Unnamed_Pattern_3" data-name="Unnamed Pattern 3" width="7.06" height="7.06" patternTransform="matrix(0, 5.15, 5.15, 0, -59789.33, -3136.83)" patternUnits="userSpaceOnUse" viewBox="0 0 7.06 7.06"><rect class="cls-1" width="7.06" height="7.06"/><rect class="cls-2" width="7.06" height="7.06"/></pattern><pattern id="Unnamed_Pattern_3-3" data-name="Unnamed Pattern 3" width="7.06" height="7.06" patternTransform="matrix(0, 5.15, 5.15, 0, -59668.89, -2966.65)" patternUnits="userSpaceOnUse" viewBox="0 0 7.06 7.06"><rect class="cls-1" width="7.06" height="7.06"/><rect class="cls-2" width="7.06" height="7.06"/></pattern><pattern id="New_Pattern_Swatch_2-7" data-name="New Pattern Swatch 2" width="7.06" height="7.06" patternTransform="matrix(0, -0.35, -0.28, 0, 5326.86, -3921.55)" patternUnits="userSpaceOnUse" viewBox="0 0 7.06 7.06"><rect class="cls-1" width="7.06" height="7.06"/><rect class="cls-2" width="7.06" height="7.06"/></pattern><pattern id="New_Pattern_Swatch_2-9" data-name="New Pattern Swatch 2" width="7.06" height="7.06" patternTransform="matrix(0, -0.35, -0.28, 0, 5323.63, -3921.55)" patternUnits="userSpaceOnUse" viewBox="0 0 7.06 7.06"><rect class="cls-1" width="7.06" height="7.06"/><rect class="cls-2" width="7.06" height="7.06"/></pattern><pattern id="Unnamed_Pattern_3-9" data-name="Unnamed Pattern 3" width="7.06" height="7.06" patternTransform="matrix(0, 5.15, 5.15, 0, -59797.02, -3136.83)" patternUnits="userSpaceOnUse" viewBox="0 0 7.06 7.06"><rect class="cls-1" width="7.06" height="7.06"/><rect class="cls-2" width="7.06" height="7.06"/></pattern><pattern id="Unnamed_Pattern_3-11" data-name="Unnamed Pattern 3" width="7.06" height="7.06" patternTransform="matrix(0, 5.15, 5.15, 0, -59676.58, -2966.65)" patternUnits="userSpaceOnUse" viewBox="0 0 7.06 7.06"><rect class="cls-1" width="7.06" height="7.06"/><rect class="cls-2" width="7.06" height="7.06"/></pattern><pattern id="Unnamed_Pattern_3-17" data-name="Unnamed Pattern 3" width="7.06" height="7.06" patternTransform="matrix(0, 5.15, 5.15, 0, -59773.85, -3136.83)" patternUnits="userSpaceOnUse" viewBox="0 0 7.06 7.06"><rect class="cls-1" width="7.06" height="7.06"/><rect class="cls-2" width="7.06" height="7.06"/></pattern><pattern id="Unnamed_Pattern_3-19" data-name="Unnamed Pattern 3" width="7.06" height="7.06" patternTransform="matrix(0, 5.15, 5.15, 0, -59653.42, -2966.65)" patternUnits="userSpaceOnUse" viewBox="0 0 7.06 7.06"><rect class="cls-1" width="7.06" height="7.06"/><rect class="cls-2" width="7.06" height="7.06"/></pattern></defs><title>suburb_sold_prices_2</title><rect class="cls-3" x="105.65" y="1" width="52.55" height="52.55" rx="3" ry="3"/><path class="cls-4" d="M246.47,205.42a8.85,8.85,0,0,0,6.14,2.56c2.86,0,5.12-1.77,5.12-4.53,0-6.37-11.85-4.89-11.85-11.92,0-2.82,2.33-5.48,6-5.88v-3.12h1.41v3.09a8.24,8.24,0,0,1,5.35,2.1l-.79,1.21a7.63,7.63,0,0,0-5-2c-3.41,0-5.45,2.3-5.45,4.53,0,5.91,11.85,4.37,11.85,11.88,0,3.12-2.26,5.65-5.94,5.94v3.05h-1.41v-3.05a9.64,9.64,0,0,1-6.34-2.82Z" transform="translate(-120.44 -170.18)"/><rect class="cls-5" x="200.77" y="1" width="52.55" height="52.55" rx="3" ry="3"/><path class="cls-4" d="M342.35,205.42a8.85,8.85,0,0,0,6.14,2.56c2.86,0,5.12-1.77,5.12-4.53,0-6.37-11.85-4.89-11.85-11.92,0-2.82,2.33-5.48,6-5.88v-3.12h1.41v3.09a8.24,8.24,0,0,1,5.35,2.1l-.79,1.21a7.63,7.63,0,0,0-5-2c-3.41,0-5.45,2.3-5.45,4.53,0,5.91,11.85,4.37,11.85,11.88,0,3.12-2.26,5.65-5.94,5.94v3.05h-1.41v-3.05a9.64,9.64,0,0,1-6.34-2.82Z" transform="translate(-120.44 -170.18)"/><rect class="cls-6" x="3.51" y="1" width="52.55" height="52.55" rx="3" ry="3"/><path class="cls-4" d="M145.09,205.42a8.85,8.85,0,0,0,6.14,2.56c2.86,0,5.12-1.77,5.12-4.53,0-6.37-11.85-4.89-11.85-11.92,0-2.82,2.33-5.48,6-5.88v-3.12h1.41v3.09a8.24,8.24,0,0,1,5.35,2.1l-.79,1.21a7.63,7.63,0,0,0-5-2c-3.41,0-5.45,2.3-5.45,4.53,0,5.91,11.85,4.37,11.85,11.88,0,3.12-2.26,5.65-5.94,5.94v3.05h-1.41v-3.05a9.64,9.64,0,0,1-6.34-2.82Z" transform="translate(-120.44 -170.18)"/><polyline class="cls-7" points="15.89 155.18 7.64 155.18 7.64 124.94"/><path class="cls-8" d="M165.68,295.12" transform="translate(-120.44 -170.18)"/><polyline class="cls-7" points="1 130.84 26.44 106.51 51.89 130.84"/><path class="cls-9" d="M165.68,295.12" transform="translate(-120.44 -170.18)"/><path class="cls-10" d="M146.14,321.51a3,3,0,0,0,2.09.85c.75,0,1.41-.38,1.41-1.12,0-1.54-3.78-1.16-3.78-3.45,0-1.26,1.13-1.94,2.4-1.94a3,3,0,0,1,2.16.77l-.43.73a2.49,2.49,0,0,0-1.76-.64c-.71,0-1.4.31-1.4,1.09,0,1.55,3.78,1.13,3.78,3.45a2.13,2.13,0,0,1-2.4,2,3.58,3.58,0,0,1-2.6-1Z" transform="translate(-120.44 -170.18)"/><path class="cls-10" d="M155.93,315.85a3.68,3.68,0,1,1-3.71,3.64A3.64,3.64,0,0,1,155.93,315.85Zm0,6.51a2.77,2.77,0,0,0,2.74-2.86,2.74,2.74,0,1,0-5.47,0A2.77,2.77,0,0,0,155.93,322.36Z" transform="translate(-120.44 -170.18)"/><path class="cls-10" d="M161.7,313.23h.95v7.95c0,.92.42,1.06.78,1.06h.24v.85a2.4,2.4,0,0,1-.35,0c-.59,0-1.62-.18-1.62-1.72Z" transform="translate(-120.44 -170.18)"/><path class="cls-10" d="M168.26,315.85a2.48,2.48,0,0,1,2.29,1.33h0a5.09,5.09,0,0,1,0-.53v-3.42h.95V323h-.92v-.74a3.88,3.88,0,0,1,0-.5h0a2.54,2.54,0,0,1-2.42,1.41c-1.89,0-3.06-1.51-3.06-3.69S166.42,315.85,168.26,315.85Zm0,6.51c1.17,0,2.28-.84,2.28-2.83,0-1.42-.73-2.82-2.23-2.82-1.24,0-2.26,1-2.26,2.82S167,322.36,168.31,322.36Z" transform="translate(-120.44 -170.18)"/><line class="cls-7" x1="45.25" y1="124.94" x2="45.25" y2="138.08"/><polyline class="cls-11" points="117.27 155.18 109.02 155.18 109.02 124.94"/><path class="cls-12" d="M267.07,295.12" transform="translate(-120.44 -170.18)"/><polyline class="cls-11" points="102.38 130.84 127.83 106.51 153.27 130.84"/><path class="cls-9" d="M267.07,295.12" transform="translate(-120.44 -170.18)"/><path class="cls-10" d="M247.53,321.51a3,3,0,0,0,2.09.85c.75,0,1.41-.38,1.41-1.12,0-1.54-3.78-1.16-3.78-3.45,0-1.26,1.13-1.94,2.4-1.94a3,3,0,0,1,2.16.77l-.43.73a2.49,2.49,0,0,0-1.76-.64c-.71,0-1.4.31-1.4,1.09,0,1.55,3.78,1.13,3.78,3.45a2.13,2.13,0,0,1-2.4,2,3.58,3.58,0,0,1-2.6-1Z" transform="translate(-120.44 -170.18)"/><path class="cls-10" d="M257.32,315.85a3.68,3.68,0,1,1-3.71,3.64A3.64,3.64,0,0,1,257.32,315.85Zm0,6.51a2.77,2.77,0,0,0,2.74-2.86,2.74,2.74,0,1,0-5.47,0A2.77,2.77,0,0,0,257.32,322.36Z" transform="translate(-120.44 -170.18)"/><path class="cls-10" d="M263.08,313.23H264v7.95c0,.92.42,1.06.78,1.06h.24v.85a2.4,2.4,0,0,1-.35,0c-.59,0-1.62-.18-1.62-1.72Z" transform="translate(-120.44 -170.18)"/><path class="cls-10" d="M269.65,315.85a2.48,2.48,0,0,1,2.29,1.33h0a5.09,5.09,0,0,1,0-.53v-3.42h.95V323H272v-.74a3.88,3.88,0,0,1,0-.5h0a2.54,2.54,0,0,1-2.42,1.41c-1.89,0-3.06-1.51-3.06-3.69S267.8,315.85,269.65,315.85Zm0,6.51c1.17,0,2.28-.84,2.28-2.83,0-1.42-.73-2.82-2.23-2.82-1.24,0-2.26,1-2.26,2.82S268.38,322.36,269.69,322.36Z" transform="translate(-120.44 -170.18)"/><line class="cls-11" x1="146.63" y1="124.94" x2="146.63" y2="138.08"/><polyline class="cls-13" points="213.15 155.18 204.9 155.18 204.9 124.94"/><path class="cls-14" d="M362.95,295.12" transform="translate(-120.44 -170.18)"/><polyline class="cls-13" points="198.26 130.84 223.71 106.51 249.15 130.84"/><path class="cls-9" d="M362.95,295.12" transform="translate(-120.44 -170.18)"/><path class="cls-10" d="M343.41,321.51a3,3,0,0,0,2.09.85c.75,0,1.41-.38,1.41-1.12,0-1.54-3.78-1.16-3.78-3.45,0-1.26,1.13-1.94,2.4-1.94a3,3,0,0,1,2.16.77l-.43.73a2.49,2.49,0,0,0-1.76-.64c-.71,0-1.4.31-1.4,1.09,0,1.55,3.78,1.13,3.78,3.45a2.13,2.13,0,0,1-2.4,2,3.58,3.58,0,0,1-2.6-1Z" transform="translate(-120.44 -170.18)"/><path class="cls-10" d="M353.19,315.85a3.68,3.68,0,1,1-3.71,3.64A3.64,3.64,0,0,1,353.19,315.85Zm0,6.51a2.77,2.77,0,0,0,2.74-2.86,2.74,2.74,0,1,0-5.47,0A2.77,2.77,0,0,0,353.19,322.36Z" transform="translate(-120.44 -170.18)"/><path class="cls-10" d="M359,313.23h.95v7.95c0,.92.42,1.06.78,1.06h.24v.85a2.4,2.4,0,0,1-.35,0c-.59,0-1.62-.18-1.62-1.72Z" transform="translate(-120.44 -170.18)"/><path class="cls-10" d="M365.53,315.85a2.48,2.48,0,0,1,2.29,1.33h0a5.09,5.09,0,0,1,0-.53v-3.42h.95V323h-.92v-.74a3.88,3.88,0,0,1,0-.5h0a2.54,2.54,0,0,1-2.42,1.41c-1.89,0-3.06-1.51-3.06-3.69S363.68,315.85,365.53,315.85Zm0,6.51c1.17,0,2.28-.84,2.28-2.83,0-1.42-.73-2.82-2.23-2.82-1.24,0-2.26,1-2.26,2.82S364.26,322.36,365.57,322.36Z" transform="translate(-120.44 -170.18)"/><line class="cls-13" x1="242.51" y1="124.94" x2="242.51" y2="138.08"/><polyline class="cls-15" points="45.25 138.08 59.97 137.99 60.09 158.43 16.18 158.71 16.16 138.15 45.25 138.08"/><polyline class="cls-15" points="146.63 138.08 161.35 137.99 161.48 158.43 117.57 158.71 117.55 138.15 146.63 138.08"/><polyline class="cls-15" points="242.51 138.08 257.23 137.99 257.36 158.43 213.45 158.71 213.42 138.15 242.51 138.08"/></svg>