<svg id="Layer_1" data-name="Layer 1" xmlns="http://www.w3.org/2000/svg" xmlns:xlink="http://www.w3.org/1999/xlink" viewBox="0 0 93.35 82.69"><defs><style>.cls-1,.cls-3,.cls-4,.cls-6{fill:none;}.cls-2{fill:#26313a;}.cls-3{stroke-linecap:round;stroke-linejoin:round;stroke:url(#Unnamed_Pattern_3);}.cls-3,.cls-4,.cls-6{stroke-width:2px;}.cls-4{stroke:#0084FF;}.cls-4,.cls-5,.cls-6{stroke-miterlimit:10;}.cls-5{fill:#fff;stroke:#fff;stroke-width:0.5px;}.cls-6{stroke:url(#New_Pattern_Swatch_2);}</style><pattern id="Unnamed_Pattern_3" data-name="Unnamed Pattern 3" width="7.06" height="7.06" patternTransform="matrix(0, 7.96, 7.96, 0, -92164.94, -4412.52)" patternUnits="userSpaceOnUse" viewBox="0 0 7.06 7.06"><rect class="cls-1" width="7.06" height="7.06"/><rect class="cls-2" width="7.06" height="7.06"/></pattern><pattern id="New_Pattern_Swatch_2" data-name="New Pattern Swatch 2" width="7.06" height="7.06" patternTransform="matrix(0, -0.35, -0.28, 0, 5297.91, -3909.2)" patternUnits="userSpaceOnUse" viewBox="0 0 7.06 7.06"><rect class="cls-1" width="7.06" height="7.06"/><rect class="cls-2" width="7.06" height="7.06"/></pattern></defs><title>suburb_sold_prices</title><polyline class="cls-3" points="24.02 76.24 11.26 76.24 11.26 29.49"/><polyline class="cls-3" points="1 38.62 40.33 1 79.66 38.62"/><polyline class="cls-4" points="69.4 49.8 92.15 49.66 92.34 81.26 24.47 81.69 24.44 49.91 69.4 49.8"/><path class="cls-5" d="M75,78.94a4.66,4.66,0,0,0,3.24,1.32c1.17,0,2.18-.58,2.18-1.73,0-2.37-5.85-1.79-5.85-5.33,0-1.94,1.75-3,3.71-3a4.57,4.57,0,0,1,3.35,1.19L81,72.51a3.85,3.85,0,0,0-2.72-1c-1.1,0-2.16.47-2.16,1.68,0,2.4,5.85,1.75,5.85,5.33,0,1.77-1.53,3-3.71,3a5.53,5.53,0,0,1-4-1.58Z" transform="translate(-35.83 -8.66)"/><path class="cls-5" d="M90.15,70.2a5.69,5.69,0,1,1-5.74,5.63A5.62,5.62,0,0,1,90.15,70.2Zm0,10.06a4.28,4.28,0,0,0,4.23-4.43,4.23,4.23,0,1,0-8.46,0A4.28,4.28,0,0,0,90.15,80.26Z" transform="translate(-35.83 -8.66)"/><path class="cls-5" d="M99.06,66.14h1.47V78.42c0,1.42.65,1.64,1.21,1.64a3.35,3.35,0,0,0,.37,0v1.32a3.72,3.72,0,0,1-.54,0c-0.91,0-2.5-.28-2.5-2.66V66.14Z" transform="translate(-35.83 -8.66)"/><path class="cls-5" d="M109.21,70.2a3.83,3.83,0,0,1,3.54,2.05h0a7.87,7.87,0,0,1,0-.82V66.14h1.47V81.31h-1.43V80.17a6,6,0,0,1,0-.78h0a3.93,3.93,0,0,1-3.73,2.18c-2.91,0-4.73-2.33-4.73-5.7S106.36,70.2,109.21,70.2Zm0.06,10.06c1.81,0,3.52-1.3,3.52-4.38,0-2.2-1.12-4.36-3.45-4.36-1.92,0-3.5,1.62-3.5,4.36S107.25,80.26,109.27,80.26Z" transform="translate(-35.83 -8.66)"/><line class="cls-6" x1="69.4" y1="29.49" x2="69.4" y2="48.8"/></svg>
