<svg xmlns="http://www.w3.org/2000/svg" viewBox="0 0 104.33 74.83"><defs><style>.cls-1,.cls-2{fill:none;stroke-width:1.4px;}.cls-1{stroke:#273038;stroke-miterlimit:10;}.cls-2{stroke:#fff;stroke-linecap:round;stroke-linejoin:round;}</style></defs><title>valuable_management</title><g id="Layer_2" data-name="Layer 2"><g id="graphics"><polyline class="cls-1" points="27.36 37.55 65.6 0.97 103.84 37.55"/><polyline class="cls-1" points="93.87 28.67 93.87 74.13 73.91 74.13 57.29 74.13 37.33 74.13 37.33 28.67"/><g id="Man"><ellipse class="cls-1" cx="65.6" cy="42.78" rx="2.91" ry="2.86"/><path class="cls-1" d="M70.81,53a5.17,5.17,0,0,0-5.37-5.11,5.3,5.3,0,0,0-5.05,5.33v4.85a.34.34,0,0,0,.13.26l2,1.67,1.74,9a1.3,1.3,0,0,0,2.61,0l1.74-9,2-1.67a.34.34,0,0,0,.13-.26V53"/></g><g id="Man-2" data-name="Man"><ellipse class="cls-2" cx="5.91" cy="42.78" rx="2.91" ry="2.86"/><path class="cls-2" d="M11.12,53A5.17,5.17,0,0,0,5.75,47.9,5.3,5.3,0,0,0,.7,53.23v4.85a.34.34,0,0,0,.13.26l2,1.67,1.74,9a1.3,1.3,0,0,0,2.61,0L9,60l2-1.67a.34.34,0,0,0,.13-.26V53"/></g></g></g></svg>