<svg id="Layer_1" data-name="Layer 1" xmlns="http://www.w3.org/2000/svg" xmlns:xlink="http://www.w3.org/1999/xlink" viewBox="0 0 85.44 81.81"><defs><style>.cls-1,.cls-3,.cls-4{fill:none;}.cls-2{fill:#253039;}.cls-3,.cls-4{stroke-linecap:round;stroke-linejoin:round;stroke-width:2px;}.cls-3{stroke:url(#New_Pattern_Swatch_2);}.cls-4{stroke:url(#New_Pattern_Swatch_2-3);}</style><pattern id="New_Pattern_Swatch_2" data-name="New Pattern Swatch 2" width="7.06" height="7.06" patternTransform="matrix(0, -0.47, -0.37, 0, 7090.8, -5199.13)" patternUnits="userSpaceOnUse" viewBox="0 0 7.06 7.06"><rect class="cls-1" width="7.06" height="7.06"/><rect class="cls-2" width="7.06" height="7.06"/></pattern><pattern id="New_Pattern_Swatch_2-3" data-name="New Pattern Swatch 2" width="7.06" height="7.06" patternTransform="matrix(0, -0.47, -0.37, 0, 6883.73, -5409.57)" patternUnits="userSpaceOnUse" viewBox="0 0 7.06 7.06"><rect class="cls-1" width="7.06" height="7.06"/><rect class="cls-2" width="7.06" height="7.06"/></pattern></defs><title>value_for_money</title><path class="cls-3" d="M250.35,228.69a16.46,16.46,0,0,0-3.43-5.19,16.05,16.05,0,0,0-5.08-3.51,15.51,15.51,0,0,0-6.2-1.29H224a15.51,15.51,0,0,0-6.2,1.29,16.05,16.05,0,0,0-5.08,3.51A16.46,16.46,0,0,0,208.08,235h0a16.46,16.46,0,0,0,4.69,11.53,16.05,16.05,0,0,0,5.08,3.51,15.51,15.51,0,0,0,6.2,1.29h11.61a15.51,15.51,0,0,1,6.2,1.29,16.05,16.05,0,0,1,5.08,3.51,16.46,16.46,0,0,1,4.69,11.53h0a16.46,16.46,0,0,1-4.69,11.53,16.05,16.05,0,0,1-5.08,3.51,15.51,15.51,0,0,1-6.2,1.29H224a15.51,15.51,0,0,1-6.2-1.29,16.05,16.05,0,0,1-5.08-3.51,16.46,16.46,0,0,1-3.43-5.19" transform="translate(-207.08 -210.45)"/><line class="cls-4" x1="22.77" y1="1" x2="22.77" y2="80.81"/><line class="cls-4" x1="69.93" y1="37.28" x2="69.93" y2="1"/><polyline class="cls-4" points="55.42 15.51 69.93 1 84.44 15.51"/></svg>