<svg id="Layer_3" data-name="Layer 3" xmlns="http://www.w3.org/2000/svg" viewBox="0 0 110.48 88.04"><defs><style>.cls-1,.cls-2,.cls-3{fill:none;stroke-miterlimit:10;stroke-width:2px;}.cls-1,.cls-3{stroke:#fff;}.cls-2{stroke:#273038;}.cls-3{stroke-linecap:round;}</style></defs><title>wealth_creation</title><ellipse class="cls-1" cx="23.44" cy="10.35" rx="22.44" ry="9.35"/><ellipse class="cls-2" cx="87.04" cy="49.63" rx="22.44" ry="9.35"/><path class="cls-1" d="M68.65,79.21c0,5.16-10,9.35-22.44,9.35s-22.44-4.19-22.44-9.35" transform="translate(-22.76 -59.5)"/><path class="cls-1" d="M68.65,88.56c0,5.16-10,9.35-22.44,9.35s-22.44-4.19-22.44-9.35" transform="translate(-22.76 -59.5)"/><path class="cls-1" d="M68.65,97.91c0,5.16-10,9.35-22.44,9.35s-22.44-4.19-22.44-9.35" transform="translate(-22.76 -59.5)"/><path class="cls-1" d="M68.65,107.26c0,5.16-10,9.35-22.44,9.35s-22.44-4.19-22.44-9.35" transform="translate(-22.76 -59.5)"/><path class="cls-1" d="M68.65,69.86v65.46c0,5.16-10,9.35-22.44,9.35s-22.44-4.19-22.44-9.35" transform="translate(-22.76 -59.5)"/><path class="cls-1" d="M68.65,116.61c0,5.16-10,9.35-22.44,9.35s-22.44-4.19-22.44-9.35" transform="translate(-22.76 -59.5)"/><path class="cls-1" d="M68.65,126c0,5.16-10,9.35-22.44,9.35S23.76,131.13,23.76,126" transform="translate(-22.76 -59.5)"/><path class="cls-2" d="M132.24,118.49c0,5.16-10,9.35-22.44,9.35s-22.44-4.19-22.44-9.35" transform="translate(-22.76 -59.5)"/><path class="cls-2" d="M132.24,127.84c0,5.16-10,9.35-22.44,9.35S87.35,133,87.35,127.84" transform="translate(-22.76 -59.5)"/><path class="cls-2" d="M132.24,109.13v28.05c0,5.16-10,9.35-22.44,9.35s-22.44-4.19-22.44-9.35V109.13" transform="translate(-22.76 -59.5)"/><line class="cls-3" x1="1" y1="10.35" x2="1" y2="75.81"/></svg>