<svg id="Layer_1" data-name="Layer 1" xmlns="http://www.w3.org/2000/svg" viewBox="0 0 124.94 86.6"><defs><style>.cls-1,.cls-2{fill:none;stroke:#fff;stroke-width:1.4px;}.cls-1{stroke-linecap:round;stroke-linejoin:round;}.cls-2{stroke-miterlimit:10;}</style></defs><title>website_resources</title><path class="cls-1" d="M308.38,292.91H192.33a3.77,3.77,0,0,1-3.74-3.79V211.5a3.77,3.77,0,0,1,3.74-3.79H308.38a3.77,3.77,0,0,1,3.74,3.79v77.62A3.77,3.77,0,0,1,308.38,292.91Z" transform="translate(-187.88 -207.01)"/><line class="cls-2" x1="1.07" y1="28.91" x2="123.87" y2="29.67"/><circle class="cls-2" cx="41.8" cy="15.1" r="1.99"/><circle class="cls-2" cx="26.17" cy="15.1" r="1.99"/><circle class="cls-2" cx="57.75" cy="15.1" r="1.99"/><line class="cls-1" x1="40.15" y1="46.88" x2="84.79" y2="46.88"/><line class="cls-1" x1="40.15" y1="57.71" x2="84.79" y2="57.71"/><line class="cls-1" x1="49.59" y1="67.68" x2="75.36" y2="67.68"/></svg>