<svg width="35" height="35" viewBox="0 0 35 35" fill="none" xmlns="http://www.w3.org/2000/svg">
<g clip-path="url(#clip0_401_7608)">
<path d="M34.0798 34.079H0.921875V5.0658H34.0798V34.079Z" stroke="#E4002B" stroke-width="2" stroke-linecap="round" stroke-linejoin="round"/>
<path d="M5.06641 0.921021V5.06576" stroke="#E4002B" stroke-width="2" stroke-linecap="round" stroke-linejoin="round"/>
<path d="M13.2402 0.921021V5.06576" stroke="#E4002B" stroke-width="2" stroke-linecap="round" stroke-linejoin="round"/>
<path d="M21.5293 0.921021V5.06576" stroke="#E4002B" stroke-width="2" stroke-linecap="round" stroke-linejoin="round"/>
<path d="M29.8184 0.921021V5.06576" stroke="#E4002B" stroke-width="2" stroke-linecap="round" stroke-linejoin="round"/>
<path d="M27.8615 9.21057H23.7168V13.3553H27.8615V9.21057Z" stroke="#E4002B" stroke-width="2" stroke-linecap="round" stroke-linejoin="round"/>
<path d="M19.5725 9.21057H15.4277V13.3553H19.5725V9.21057Z" stroke="#E4002B" stroke-width="2" stroke-linecap="round" stroke-linejoin="round"/>
<path d="M11.2834 9.21057H7.13867V13.3553H11.2834V9.21057Z" stroke="#E4002B" stroke-width="2" stroke-linecap="round" stroke-linejoin="round"/>
<path d="M27.8615 17.5H23.7168V21.6447H27.8615V17.5Z" stroke="#E4002B" stroke-width="2" stroke-linecap="round" stroke-linejoin="round"/>
<path d="M19.5725 17.5H15.4277V21.6447H19.5725V17.5Z" stroke="#E4002B" stroke-width="2" stroke-linecap="round" stroke-linejoin="round"/>
<path d="M11.2834 17.5H7.13867V21.6447H11.2834V17.5Z" stroke="#E4002B" stroke-width="2" stroke-linecap="round" stroke-linejoin="round"/>
<path d="M27.8615 25.7896H23.7168V29.9343H27.8615V25.7896Z" stroke="#E4002B" stroke-width="2" stroke-linecap="round" stroke-linejoin="round"/>
<path d="M19.5725 25.7896H15.4277V29.9343H19.5725V25.7896Z" stroke="#E4002B" stroke-width="2" stroke-linecap="round" stroke-linejoin="round"/>
<path d="M11.2834 25.7896H7.13867V29.9343H11.2834V25.7896Z" stroke="#E4002B" stroke-width="2" stroke-linecap="round" stroke-linejoin="round"/>
</g>
<defs>
<clipPath id="clip0_401_7608">
<rect width="35" height="35" fill="white"/>
</clipPath>
</defs>
</svg>
