<svg width="37" height="43" viewBox="0 0 37 43" fill="none" xmlns="http://www.w3.org/2000/svg">
<path d="M5.94369 36.0737H20.7747M5.94369 31.0676H30.6621M5.94369 26.0615H30.6621M5.94369 21.0399H30.6621M20.7747 16.0338H30.6621M20.7747 11.0277H30.6621M20.7747 6.02166H30.6621M5.94369 16.0338H15.8311V6.00607H5.94369V16.0182V16.0338ZM5.94369 1C5.94369 1 1 1 1 6.00607V36.0737C1 36.0737 1 41.0797 5.94369 41.0797H30.6621C30.6621 41.0797 35.6058 41.0797 35.6058 36.0737V6.00607C35.6058 6.00607 35.6058 1 30.6621 1H5.94369Z" stroke="#E4002B" stroke-width="2" stroke-linecap="round" stroke-linejoin="round"/>
</svg>
