<svg width="34" height="35" viewBox="0 0 34 35" fill="none" xmlns="http://www.w3.org/2000/svg">
<path d="M1 5.125C1 5.125 1 1 6.33333 1H27.6667C27.6667 1 33 1 33 5.125V29.875C33 29.875 33 34 27.6667 34H6.33333C6.33333 34 1 34 1 29.875V5.125Z" stroke="#E4002B" stroke-width="1.84438" stroke-linecap="round" stroke-linejoin="round"/>
<path d="M16.7388 17.4776C19.356 17.4776 21.4776 15.356 21.4776 12.7388C21.4776 10.1216 19.356 8 16.7388 8C14.1216 8 12 10.1216 12 12.7388C12 15.356 14.1216 17.4776 16.7388 17.4776Z" stroke="#E4002B" stroke-width="2" stroke-linecap="round" stroke-linejoin="round"/>
<path d="M7 33V26.8298C7 26.8298 7 22 12.0012 22H21.9988C21.9988 22 27 22 27 26.8298V33" stroke="#E4002B" stroke-width="2" stroke-linecap="round" stroke-linejoin="round"/>
</svg>
