<svg width="33" height="40" viewBox="0 0 33 40" fill="none" xmlns="http://www.w3.org/2000/svg">
<path d="M11.1525 15.6595C11.1525 12.9615 13.4294 10.7782 16.2209 10.7782C19.0125 10.7782 21.2894 12.9615 21.2894 15.6595C21.2894 18.3575 19.0125 20.5408 16.2209 20.5408C13.4294 20.5408 11.1525 18.3575 11.1525 15.6595V15.6595ZM1 15.6595C1 7.56559 7.81511 1 16.2209 1C24.6268 1 31.4419 7.56559 31.4419 15.6595C31.4419 22.0535 21.9288 33.6096 17.9364 38.179C17.0319 39.2083 15.3944 39.2083 14.4899 38.179C10.5131 33.6252 1 22.0691 1 15.6595Z" stroke="#E4002B" stroke-width="2" stroke-linecap="round" stroke-linejoin="round"/>
</svg>
