<svg width="41" height="33" viewBox="0 0 41 33" fill="none" xmlns="http://www.w3.org/2000/svg">
<path d="M9.07763 16.2833C9.07763 7.8463 15.9551 1 24.4233 1C32.8915 1 39.769 7.8463 39.769 16.2833C39.769 24.7203 32.8915 31.5666 24.4233 31.5666C15.9551 31.5666 9.07763 24.7203 9.07763 16.2833ZM5.24121 16.2833C5.24121 7.8463 12.1187 1 20.5869 1C29.0551 1 35.9326 7.8463 35.9326 16.2833C35.9326 24.7203 29.0551 31.5666 20.5869 31.5666C12.1187 31.5666 5.24121 24.7203 5.24121 16.2833V16.2833Z" stroke="#E4002B" stroke-width="2" stroke-linecap="round" stroke-linejoin="round"/>
<path d="M1 16.3925C1 7.95546 7.78392 1.12476 16.1586 1.12476C24.5332 1.12476 31.3171 7.97106 31.3171 16.4081C31.3171 24.8451 24.5332 31.6914 16.1586 31.6914C7.78392 31.6914 1 24.8451 1 16.3925Z" fill="white"/>
<path d="M1 16.3925C1 7.95546 7.78392 1.12476 16.1586 1.12476C24.5332 1.12476 31.3171 7.97106 31.3171 16.4081C31.3171 24.8451 24.5332 31.6914 16.1586 31.6914C7.78392 31.6914 1 24.8451 1 16.3925Z" stroke="#E4002B" stroke-width="2" stroke-linecap="round" stroke-linejoin="round"/>
<path d="M16.1579 21.6637V23.1608M16.1579 11.1369V9.63977M18.6219 13.0239C18.6219 13.0239 18.5596 11.3396 17.3899 11.3396H14.9259C14.9259 11.3396 13.6938 11.2461 13.6938 13.0239V14.7082C13.6938 14.7082 13.6315 16.3925 14.9259 16.3925H17.3899C17.3899 16.3925 18.6219 16.2989 18.6219 18.0768V19.7611C18.6219 19.7611 18.5596 21.4454 17.3899 21.4454H14.9259C14.9259 21.4454 13.6938 21.3518 13.6938 19.7611" stroke="#E4002B" stroke-width="2" stroke-miterlimit="10" stroke-linecap="round"/>
</svg>
