<svg width="35" height="35" viewBox="0 0 35 35" fill="none" xmlns="http://www.w3.org/2000/svg">
<g clip-path="url(#clip0_401_7588)">
<path d="M34.0798 34.0789H0.921875V0.921021H34.0798V34.0789Z" stroke="#E4002B" stroke-width="2" stroke-linecap="round" stroke-linejoin="round"/>
<path d="M0.921875 5.0658H34.0798" stroke="#E4002B" stroke-width="2" stroke-linecap="round" stroke-linejoin="round"/>
<path d="M5.06641 25.7894H29.9901" stroke="#E4002B" stroke-width="2" stroke-linecap="round" stroke-linejoin="round"/>
<path d="M5.06641 29.9342H29.9901" stroke="#E4002B" stroke-width="2" stroke-linecap="round" stroke-linejoin="round"/>
<path d="M5.06641 0.921021V5.06576" stroke="#E4002B" stroke-width="2" stroke-linecap="round" stroke-linejoin="round"/>
<path d="M4.95117 20.8941C4.95117 20.8941 4.95117 17.9744 7.87091 17.9744H13.7104C13.7104 17.9744 16.6301 17.9744 16.6301 20.8941" stroke="#E4002B" stroke-width="2" stroke-linecap="round" stroke-linejoin="round"/>
<path d="M10.7947 15.05C12.4073 15.05 13.7145 13.7428 13.7145 12.1303C13.7145 10.5178 12.4073 9.21057 10.7947 9.21057C9.18221 9.21057 7.875 10.5178 7.875 12.1303C7.875 13.7428 9.18221 15.05 10.7947 15.05Z" stroke="#E4002B" stroke-width="2" stroke-linecap="round" stroke-linejoin="round"/>
</g>
<defs>
<clipPath id="clip0_401_7588">
<rect width="35" height="35" fill="white"/>
</clipPath>
</defs>
</svg>
