<svg width="35" height="35" viewBox="0 0 35 35" fill="none" xmlns="http://www.w3.org/2000/svg">
<g clip-path="url(#clip0_401_7663)">
<path d="M22.3257 10.7487C22.5974 11.3612 23.3757 11.8586 24.0296 11.8586H32.5401C33.8803 11.8586 34.1796 12.6093 33.1987 13.5395L26.3921 20.0007C25.8994 20.4658 25.6323 21.3869 25.7842 22.0408L28.3263 32.7343C28.6395 34.056 28.027 34.4796 26.9355 33.6691L18.3375 27.2816C17.7941 26.8764 16.9145 26.8764 16.3711 27.2816L7.77304 33.6691C6.69081 34.4704 6.07831 34.056 6.40067 32.7481L8.9566 22.4093C9.11778 21.7553 8.86449 20.8435 8.39015 20.3783L1.48225 13.5764C0.519755 12.6277 0.814491 11.8586 2.16844 11.8586H10.679C11.3467 11.8586 12.1112 11.3612 12.3829 10.7487L16.3573 1.84214C16.9053 0.607934 17.7987 0.612539 18.3513 1.84214L22.3257 10.7487V10.7487Z" stroke="#E4002B" stroke-width="2" stroke-linecap="round" stroke-linejoin="round"/>
</g>
<defs>
<clipPath id="clip0_401_7663">
<rect width="34.7007" height="35" fill="white"/>
</clipPath>
</defs>
</svg>
