<svg width="27" height="20" viewBox="0 0 27 20" fill="none" xmlns="http://www.w3.org/2000/svg">
<path d="M18.2007 11.6764L23.1435 4.2583" stroke="white" stroke-width="2" stroke-miterlimit="10"/>
<path d="M11.4868 10.6918L15.4213 12.661" stroke="white" stroke-width="2" stroke-miterlimit="10"/>
<path d="M4.03711 15.7571L8.63587 11.1544" stroke="white" stroke-width="2" stroke-miterlimit="10"/>
<path d="M2.7794 18.794C3.76213 18.794 4.5588 17.9974 4.5588 17.0146C4.5588 16.0319 3.76213 15.2352 2.7794 15.2352C1.79666 15.2352 1 16.0319 1 17.0146C1 17.9974 1.79666 18.794 2.7794 18.794Z" stroke="white" stroke-width="2" stroke-linecap="round" stroke-linejoin="round"/>
<path d="M9.89707 11.6763C10.8798 11.6763 11.6765 10.8797 11.6765 9.89695C11.6765 8.91422 10.8798 8.11755 9.89707 8.11755C8.91434 8.11755 8.11768 8.91422 8.11768 9.89695C8.11768 10.8797 8.91434 11.6763 9.89707 11.6763Z" stroke="white" stroke-width="2" stroke-linecap="round" stroke-linejoin="round"/>
<path d="M17.0147 15.2352C17.9975 15.2352 18.7941 14.4385 18.7941 13.4558C18.7941 12.4731 17.9975 11.6764 17.0147 11.6764C16.032 11.6764 15.2354 12.4731 15.2354 13.4558C15.2354 14.4385 16.032 15.2352 17.0147 15.2352Z" stroke="white" stroke-width="2" stroke-linecap="round" stroke-linejoin="round"/>
<path d="M24.1319 4.5588C25.1147 4.5588 25.9113 3.76213 25.9113 2.7794C25.9113 1.79666 25.1147 1 24.1319 1C23.1492 1 22.3525 1.79666 22.3525 2.7794C22.3525 3.76213 23.1492 4.5588 24.1319 4.5588Z" stroke="white" stroke-width="2" stroke-linecap="round" stroke-linejoin="round"/>
</svg>
