<svg width="45" height="45" viewBox="0 0 45 45" fill="none" xmlns="http://www.w3.org/2000/svg">
<path fill-rule="evenodd" clip-rule="evenodd" d="M7.42146 9.27159C5.95919 9.27159 4.77378 10.457 4.77378 11.9193C4.77378 13.3815 5.95919 14.5669 7.42146 14.5669C8.88373 14.5669 10.0691 13.3815 10.0691 11.9193C10.0691 10.457 8.88373 9.27159 7.42146 9.27159ZM1.91162 11.9193C1.91162 8.87626 4.37846 6.40942 7.42146 6.40942C10.4645 6.40942 12.9313 8.87626 12.9313 11.9193C12.9313 14.9623 10.4645 17.4291 7.42146 17.4291C4.37846 17.4291 1.91162 14.9623 1.91162 11.9193Z" fill="#E4002B"/>
<path fill-rule="evenodd" clip-rule="evenodd" d="M2.86237 27.6586L2.86285 27.6404C2.86357 27.6188 2.86523 27.5806 2.86897 27.5282C2.8765 27.4229 2.89224 27.263 2.92483 27.0674C2.99115 26.6695 3.12112 26.1609 3.3668 25.6695C3.60967 25.1838 3.9515 24.7416 4.43747 24.4176C4.91447 24.0996 5.61479 23.8385 6.6754 23.8385H8.42343C9.2138 23.8385 9.85452 23.1978 9.85452 22.4075C9.85452 21.6171 9.2138 20.9764 8.42343 20.9764H6.6754C5.11395 20.9764 3.84773 21.3709 2.84982 22.0361C1.86088 22.6954 1.21944 23.5642 0.806801 24.3895C0.396961 25.2092 0.199174 26.0116 0.101614 26.5969C0.0522688 26.893 0.0270426 27.1428 0.0140826 27.3243C0.00758528 27.4152 0.004121 27.4897 0.00227808 27.545C0.00135594 27.5727 0.00083755 27.5956 0.00054958 27.6134L0.000268435 27.6364L0.000217028 27.645L0.000206451 27.6485C-0.000256265 28.4014 0.00020338 39.0403 0.00020338 43.3839C0.00020338 44.1743 0.64092 44.815 1.43128 44.815C2.22165 44.815 2.86237 44.1743 2.86237 43.3839V27.6586Z" fill="#E4002B"/>
<path fill-rule="evenodd" clip-rule="evenodd" d="M37.4711 9.27159C38.9334 9.27159 40.1188 10.457 40.1188 11.9193C40.1188 13.3815 38.9334 14.5669 37.4711 14.5669C36.0089 14.5669 34.8235 13.3815 34.8235 11.9193C34.8235 10.457 36.0089 9.27159 37.4711 9.27159ZM42.981 11.9193C42.981 8.87626 40.5141 6.40942 37.4711 6.40942C34.4281 6.40942 31.9613 8.87626 31.9613 11.9193C31.9613 14.9623 34.4281 17.4291 37.4711 17.4291C40.5141 17.4291 42.981 14.9623 42.981 11.9193Z" fill="#E4002B"/>
<path fill-rule="evenodd" clip-rule="evenodd" d="M42.0302 27.6586L42.0297 27.6404C42.029 27.6188 42.0274 27.5806 42.0236 27.5282C42.0161 27.4229 42.0003 27.263 41.9677 27.0674C41.9014 26.6695 41.7715 26.1609 41.5258 25.6695C41.2829 25.1838 40.9411 24.7416 40.4551 24.4176C39.9781 24.0996 39.2778 23.8385 38.2172 23.8385H36.4691C35.6788 23.8385 35.0381 23.1978 35.0381 22.4075C35.0381 21.6171 35.6788 20.9764 36.4691 20.9764H38.2172C39.7786 20.9764 41.0449 21.3709 42.0428 22.0361C43.0317 22.6954 43.6731 23.5642 44.0858 24.3895C44.4956 25.2092 44.6934 26.0116 44.791 26.5969C44.8403 26.893 44.8655 27.1428 44.8785 27.3243C44.885 27.4152 44.8885 27.4897 44.8903 27.545C44.8912 27.5727 44.8917 27.5956 44.892 27.6134L44.8923 27.6364L44.8924 27.645L44.8924 27.6485C44.8928 28.4014 44.8924 39.0403 44.8924 43.3839C44.8924 44.1743 44.2517 44.815 43.4613 44.815C42.6709 44.815 42.0302 44.1743 42.0302 43.3839V27.6586Z" fill="#E4002B"/>
<path fill-rule="evenodd" clip-rule="evenodd" d="M22.5121 2.86216C20.4062 2.86216 18.6991 4.56931 18.6991 6.67519C18.6991 8.78107 20.4062 10.4882 22.5121 10.4882C24.618 10.4882 26.3251 8.78107 26.3251 6.67519C26.3251 4.56931 24.618 2.86216 22.5121 2.86216ZM15.8369 6.67519C15.8369 2.98859 18.8255 0 22.5121 0C26.1987 0 29.1873 2.98859 29.1873 6.67519C29.1873 10.3618 26.1987 13.3504 22.5121 13.3504C18.8255 13.3504 15.8369 10.3618 15.8369 6.67519Z" fill="#E4002B"/>
<path d="M14.3143 22.0397V43.4053C14.3143 44.1957 13.6736 44.8364 12.8832 44.8364C12.0929 44.8364 11.4521 44.1957 11.4521 43.4053V22.0318L11.4522 22.0285L11.4522 22.0205L11.4524 21.9986C11.4527 21.9814 11.4531 21.9591 11.4539 21.932C11.4556 21.8777 11.4586 21.8041 11.4644 21.7139C11.4759 21.5338 11.4983 21.2847 11.5423 20.9891C11.6292 20.4051 11.8057 19.6021 12.1727 18.7798C12.5405 17.956 13.1213 17.0655 14.0395 16.3799C14.975 15.6814 16.1748 15.2607 17.6535 15.2607H27.1081L27.301 15.263C27.3548 15.2651 27.4264 15.2688 27.5131 15.2757C27.6861 15.2896 27.9226 15.3164 28.202 15.3685C28.7548 15.4717 29.5095 15.6805 30.2784 16.111C31.0557 16.5463 31.8524 17.2121 32.4487 18.2138C33.0459 19.2172 33.3954 20.4794 33.3954 22.0345V43.4053C33.3954 44.1957 32.7547 44.8364 31.9643 44.8364C31.1739 44.8364 30.5332 44.1957 30.5332 43.4053V22.0345C30.5332 20.9183 30.2864 20.177 29.9892 19.6778C29.6911 19.1769 29.2952 18.8408 28.8799 18.6083C28.4562 18.371 28.0184 18.2459 27.6768 18.1821C27.509 18.1508 27.3728 18.1358 27.2849 18.1288C27.2514 18.1261 27.2178 18.1239 27.1842 18.1229H17.6535C16.7471 18.1229 16.158 18.3701 15.7519 18.6733C15.3284 18.9895 15.0148 19.4347 14.7863 19.9466C14.5571 20.46 14.4354 20.9926 14.3733 21.4104C14.3427 21.6156 14.3279 21.7839 14.3207 21.896C14.3172 21.9519 14.3156 21.993 14.3148 22.0171L14.3143 22.0397Z" fill="#E4002B"/>
</svg>
