<svg width="55" height="28" viewBox="0 0 55 28" fill="none" xmlns="http://www.w3.org/2000/svg">
<path fill-rule="evenodd" clip-rule="evenodd" d="M0.933037 11.6636L3.18559 13.9161L0.933037 16.1687C-0.311012 14.9246 -0.311012 12.9076 0.933037 11.6636ZM5.6041 11.8224C4.04589 13.0558 3.18559 13.9161 3.18559 13.9161C0.933037 11.6636 0.934231 11.6624 0.935518 11.6611L0.938561 11.658L0.946332 11.6503L0.968576 11.6283L1.03965 11.559C1.09876 11.5018 1.18124 11.4229 1.28637 11.3245C1.49654 11.1279 1.79766 10.8532 2.18382 10.5185C2.9553 9.84992 4.07102 8.93775 5.48365 7.92873C8.29644 5.91959 12.3533 3.47839 17.2678 1.84023C22.1956 0.197657 28.0485 -0.656777 34.3668 0.606895C40.7087 1.87527 47.2949 5.23355 53.7249 11.6636C54.969 12.9076 54.969 14.9246 53.7249 16.1687C47.2949 22.5987 40.7087 25.957 34.3668 27.2253C28.0485 28.489 22.1956 27.6346 17.2678 25.992C12.3533 24.3538 8.29644 21.9126 5.48365 19.9035C4.07102 18.8945 2.9553 17.9823 2.18382 17.3137C1.79766 16.979 1.49654 16.7043 1.28637 16.5077C1.18124 16.4094 1.09876 16.3304 1.03965 16.2732L0.968576 16.2039L0.946332 16.1819L0.938561 16.1742L0.935518 16.1711C0.934231 16.1699 0.933037 16.1687 3.18559 13.9161C3.18559 13.9161 4.04589 14.7764 5.6041 16.0098C12.0354 21.1006 30.3556 32.5473 49.1466 16.0956C49.9213 15.4173 50.6968 14.6916 51.4724 13.9161C50.6968 13.1406 49.9213 12.4149 49.1466 11.7366C30.3556 -4.71512 12.0354 6.73164 5.6041 11.8224Z" fill="#E4002B"/>
<path fill-rule="evenodd" clip-rule="evenodd" d="M36.5503 13.9161C36.5503 19.0089 32.4217 23.1375 27.3289 23.1375C22.236 23.1375 18.1074 19.0089 18.1074 13.9161C18.1074 8.82322 22.236 4.69464 27.3289 4.69464C32.4217 4.69464 36.5503 8.82322 36.5503 13.9161ZM33.3647 13.9161C33.3647 17.2496 30.6624 19.9519 27.3289 19.9519C23.9953 19.9519 21.293 17.2496 21.293 13.9161C21.293 10.5826 23.9953 7.88023 27.3289 7.88023C30.6624 7.88023 33.3647 10.5826 33.3647 13.9161Z" fill="#E4002B"/>
</svg>
