<!-- Generator: Adobe Illustrator 22.0.1, SVG Export Plug-In  -->
<svg version="1.1"
	 xmlns="http://www.w3.org/2000/svg" xmlns:xlink="http://www.w3.org/1999/xlink" xmlns:a="http://ns.adobe.com/AdobeSVGViewerExtensions/3.0/"
	 x="0px" y="0px" width="35px" height="35px" viewBox="0 0 35 35" style="enable-background:new 0 0 35 35;"
	 xml:space="preserve">
<style type="text/css">
	.st0{fill:#D90021;}
	.st1{fill:#FFFFFF;}
</style>
<defs>
</defs>
<g>
	<path class="st0" d="M0,17c-0.1,9.5,7.6,17.2,17,17.2c9.5,0.1,17.2-7.6,17.2-17.1c0.1-9.5-7.6-17.2-17-17.2c0,0-0.1,0-0.1,0
		C7.7,0,0.1,7.6,0,17"/>
	<path class="st1" d="M28.4,14.8L28.4,14.8L18.2,4.6c-0.3-0.3-0.6-0.5-1.1-0.5h0c-0.4,0-0.8,0.2-1.1,0.5L5.9,14.8l0,0
		c-0.4,0.4-0.6,0.9-0.6,1.5c0,1.2,1,2.2,2.2,2.2l1.4,0c0,0,0,7.7,0,7.7c0,0.8,0.6,1.4,1.4,1.4H24c0.8,0,1.4-0.6,1.4-1.4
		c0,0,0-7.7,0-7.7l1.4,0c1.2,0,2.2-1,2.2-2.2C29,15.7,28.8,15.2,28.4,14.8 M22.7,15.9V25H11.5v-9.1l-2.9,0l8.5-8.5l8.5,8.5
		L22.7,15.9z"/>
</g>
</svg>
