<svg width="120" height="46" viewBox="0 0 120 46" fill="none" xmlns="http://www.w3.org/2000/svg">
<g id="Group 18885">
<path id="Vector" d="M23.1535 29.4127H6.67512C6.36469 29.4127 6.05427 29.3609 5.76971 29.2316C5.48516 29.1023 5.22647 28.947 4.99365 28.7142C4.76084 28.4814 4.60562 28.2227 4.47628 27.9382C4.34694 27.6536 4.2952 27.3432 4.2952 27.0328V17.3579H2.32918C1.86354 17.3579 1.42378 17.2027 1.03575 16.944C0.647717 16.6853 0.363162 16.3231 0.182081 15.8834C0.0010004 15.4695 -0.050737 15.0038 0.0527377 14.5382C0.130344 14.0726 0.363162 13.6587 0.673586 13.3224L13.2458 0.698457C13.6855 0.25869 14.3064 0 14.9272 0C15.5481 0 16.1431 0.23282 16.5828 0.672587L29.1809 13.3224C29.4913 13.6587 29.7241 14.0726 29.8017 14.5382C29.8793 15.0038 29.8276 15.4695 29.6724 15.8834C29.4913 16.2973 29.2067 16.6853 28.8187 16.944C28.4307 17.2027 27.9909 17.332 27.5253 17.3579H25.5592V27.0845C25.5592 27.7053 25.3006 28.3262 24.8608 28.766C24.3952 29.154 23.8002 29.4127 23.1535 29.4127ZM14.9272 2.01775C14.8755 2.01775 14.8496 2.01775 14.7979 2.04362C14.7461 2.06949 14.7203 2.09537 14.6944 2.12123L2.09636 14.771C2.04463 14.8227 2.01876 14.8745 2.01876 14.9262C2.01876 14.978 2.01876 15.0556 2.04463 15.1073C2.07049 15.159 2.09636 15.2108 2.17397 15.2366C2.22571 15.2625 2.27744 15.2884 2.35505 15.2884H5.35582C5.6145 15.2884 5.89906 15.3919 6.08014 15.5988C6.26122 15.7799 6.39056 16.0386 6.39056 16.3231V27.0328C6.39056 27.1104 6.41643 27.188 6.49404 27.2656C6.57164 27.3432 6.62338 27.369 6.72686 27.369H23.2311C23.3087 27.369 23.3863 27.3432 23.4639 27.2656C23.5156 27.2138 23.5674 27.1362 23.5674 27.0328V16.3231C23.5674 16.1938 23.5932 16.0644 23.645 15.9351C23.6967 15.8058 23.7743 15.7023 23.8778 15.5988C23.9813 15.4953 24.0847 15.4177 24.2141 15.366C24.3434 15.3143 24.4728 15.2884 24.6021 15.2884H27.6029C27.6546 15.2884 27.7322 15.2625 27.784 15.2366C27.8357 15.2108 27.8874 15.159 27.8874 15.1073C27.9133 15.0556 27.9133 14.978 27.9133 14.9262C27.9133 14.8745 27.8616 14.7969 27.8357 14.771L15.1342 2.12123C15.1083 2.09537 15.0824 2.06949 15.0307 2.04362C15.0048 2.04362 14.9531 2.01775 14.9272 2.01775Z" fill="#E4002B"/>
<path id="Vector_2" d="M24.6799 32.543C24.8868 32.543 25.0938 32.6206 25.249 32.7758C25.4042 32.931 25.4818 33.138 25.4818 33.3449V36.9924C25.4818 37.1994 25.4042 37.4063 25.249 37.5615C25.0938 37.7167 24.8868 37.7943 24.6799 37.7943C24.4729 37.7943 24.266 37.7167 24.1107 37.5615C23.9555 37.4063 23.8779 37.1994 23.8779 36.9924V33.3708C23.8779 33.1639 23.9555 32.9569 24.1107 32.8017C24.266 32.6206 24.4729 32.543 24.6799 32.543Z" fill="#E4002B"/>
<path id="Vector_3" d="M19.7902 32.543C19.9972 32.543 20.2041 32.6465 20.3593 32.8017C20.5145 32.9569 20.5921 33.1639 20.5921 33.3708V39.0102C20.5921 39.2171 20.5145 39.4241 20.3593 39.5793C20.2041 39.7345 19.9972 39.8121 19.7902 39.8121C19.5833 39.8121 19.3763 39.7345 19.2211 39.5793C19.0659 39.4241 18.9883 39.2171 18.9883 39.0102V33.3708C18.9883 33.2673 19.0141 33.1638 19.04 33.0604C19.0918 32.9569 19.1435 32.8793 19.2211 32.8017C19.2987 32.7241 19.4022 32.6723 19.5057 32.6206C19.5833 32.5689 19.6867 32.543 19.7902 32.543Z" fill="#E4002B"/>
<path id="Vector_4" d="M10.0129 32.543C10.1163 32.543 10.2198 32.5689 10.3233 32.6206C10.4268 32.6723 10.5044 32.7241 10.582 32.8017C10.6596 32.8793 10.7372 32.9828 10.7631 33.0862C10.8148 33.1897 10.8148 33.3191 10.8148 33.4225V41.0538C10.8148 41.2607 10.7372 41.4677 10.582 41.6229C10.4268 41.7781 10.2198 41.8557 10.0129 41.8557C9.80592 41.8557 9.59897 41.7781 9.44376 41.6229C9.28854 41.4677 9.21094 41.2607 9.21094 41.0538V33.4225C9.21094 33.3191 9.21094 33.1897 9.26268 33.0862C9.31441 32.9828 9.36615 32.8793 9.44376 32.8017C9.52136 32.7241 9.62484 32.6465 9.70244 32.6206C9.78005 32.5689 9.90939 32.5689 10.0129 32.543Z" fill="#E4002B"/>
<path id="Vector_5" d="M5.14861 32.543C5.25208 32.543 5.35556 32.5689 5.45903 32.6206C5.56251 32.6723 5.64011 32.7241 5.71772 32.8017C5.79533 32.8793 5.84706 32.9828 5.8988 33.0862C5.92467 33.1897 5.95054 33.3191 5.95054 33.4225V35.7507C5.95054 35.9577 5.87293 36.1646 5.71772 36.3198C5.56251 36.475 5.35556 36.5526 5.14861 36.5526C4.94166 36.5526 4.73471 36.475 4.5795 36.3198C4.42429 36.1646 4.34668 35.9577 4.34668 35.7507V33.4225C4.34668 33.3191 4.34668 33.1897 4.39842 33.0862C4.42429 32.9828 4.50189 32.8793 4.5795 32.8017C4.6571 32.7241 4.76058 32.6465 4.86405 32.5947C4.91579 32.5689 5.01927 32.543 5.14861 32.543Z" fill="#E4002B"/>
<path id="Vector_6" d="M14.9015 32.543C15.005 32.543 15.1085 32.5689 15.212 32.5947C15.3154 32.6465 15.393 32.6982 15.4706 32.7758C15.6259 32.931 15.7035 33.138 15.7035 33.3449V44.9341C15.7035 45.141 15.6259 45.348 15.4706 45.5032C15.3154 45.6584 15.1085 45.736 14.9015 45.736C14.6946 45.736 14.4876 45.6584 14.3324 45.5032C14.1772 45.348 14.0996 45.141 14.0996 44.9341V33.3967C14.0996 33.2932 14.0996 33.1638 14.1513 33.0604C14.1772 32.9569 14.2548 32.8534 14.3324 32.7758C14.41 32.6982 14.5135 32.6206 14.617 32.5947C14.6687 32.5689 14.7981 32.543 14.9015 32.543Z" fill="#E4002B"/>
<path id="Vector_7" d="M19.7902 42.6057C20.23 42.6057 20.5921 42.2435 20.5921 41.8038C20.5921 41.364 20.23 41.0018 19.7902 41.0018C19.3504 41.0018 18.9883 41.364 18.9883 41.8038C18.9883 42.2435 19.3504 42.6057 19.7902 42.6057Z" fill="#E4002B"/>
<path id="Vector_8" d="M5.12346 39.2428C5.56323 39.2428 5.92539 38.8806 5.92539 38.4408C5.92539 38.0011 5.56323 37.6389 5.12346 37.6389C4.6837 37.6389 4.32154 38.0011 4.32154 38.4408C4.29567 38.8806 4.6837 39.2428 5.12346 39.2428Z" fill="#E4002B"/>
<path id="Vector_9" d="M43.6672 6.49344V29.4907H39.166V6.49344H43.6672Z" fill="#2E2C30"/>
<path id="Vector_10" d="M58.7491 12.5723H62.9916V27.2916C62.9916 32.517 59.4734 35.5437 54.3256 35.5437C52.7217 35.5695 51.1696 35.1557 49.7985 34.3279C48.4275 33.5001 47.3151 32.3101 46.6167 30.8873L49.7985 28.792C50.7815 30.6028 52.463 31.8445 54.4549 31.8445C56.8348 31.8445 58.8008 30.4217 58.8008 27.5503V25.5584C58.2835 26.3862 57.5591 27.0846 56.6796 27.5503C55.8259 28.0159 54.8429 28.2487 53.8599 28.197C49.6951 28.197 46.5908 24.7564 46.5908 20.1777C46.5908 15.5989 49.6692 12.1584 53.8599 12.1584C54.8429 12.1325 55.8259 12.3395 56.6796 12.8051C57.5591 13.2708 58.2835 13.9692 58.775 14.797L58.7491 12.5723ZM58.8267 20.1518C58.8267 17.6167 57.197 15.9094 54.8947 15.9094C52.5924 15.9094 50.885 17.6167 50.885 20.1518C50.885 22.6869 52.5147 24.3943 54.8947 24.3943C57.2746 24.3943 58.8267 22.6869 58.8267 20.1518Z" fill="#2E2C30"/>
<path id="Vector_11" d="M81.125 18.5738V29.4904H76.8825V19.2981C76.8825 17.0993 75.6408 15.8576 73.9335 15.8576C71.9416 15.8576 70.4929 17.2027 70.4929 19.5309V29.4904H66.2246V12.5722H70.4671V14.7711C70.9068 13.9433 71.5794 13.2707 72.4072 12.8051C73.235 12.3394 74.1663 12.1325 75.0976 12.1842C78.564 12.1583 81.125 14.6935 81.125 18.5738Z" fill="#2E2C30"/>
<path id="Vector_12" d="M83.6602 8.09649C83.7119 7.39803 84.0223 6.75132 84.5138 6.28568C85.0312 5.82005 85.6779 5.53549 86.3764 5.53549C87.0748 5.53549 87.7474 5.79418 88.2389 6.28568C88.7563 6.75132 89.0408 7.39803 89.0926 8.09649C89.0926 9.70035 87.8767 10.6316 86.3764 10.6316C84.876 10.6058 83.6602 9.70035 83.6602 8.09649ZM88.4976 12.5718V29.4899H84.2551V12.5718H88.4976Z" fill="#2E2C30"/>
<path id="Vector_13" d="M101.639 15.9351H97.8618V23.3594C97.8618 24.9632 98.5086 25.7911 99.8279 25.7911H101.639V29.4385H99.3105C95.6889 29.4385 93.6194 27.1621 93.6194 23.5663V15.9351H90.541V12.5463H93.6194V9.31271L97.8618 6.98453V12.5722H101.639V15.9351Z" fill="#2E2C30"/>
<path id="Vector_14" d="M119.153 21.9884H107.227C107.486 24.9891 109.064 26.2826 111.237 26.2826C113.229 26.2826 114.677 25.3513 115.583 23.049L119.153 24.3683C117.833 28.171 114.859 29.8783 111.392 29.8783C106.4 29.8783 102.907 26.3343 102.907 21.0054C102.907 15.6764 106.348 12.1583 111.185 12.1583C116.023 12.1583 119.204 15.7023 119.204 20.9536C119.204 21.3158 119.179 21.6521 119.153 21.9884ZM107.357 19.1169H114.884C114.419 16.7111 113.074 15.6247 111.211 15.6247C109.142 15.5729 107.822 16.7112 107.357 19.0652V19.1169Z" fill="#2E2C30"/>
</g>
</svg>
