<svg width="94" height="94" viewBox="0 0 94 94" fill="none" xmlns="http://www.w3.org/2000/svg">
<g clip-path="url(#clip0_9_7140)">
<path d="M47 94C72.9574 94 94 72.9574 94 47C94 21.0426 72.9574 0 47 0C21.0426 0 0 21.0426 0 47C0 72.9574 21.0426 94 47 94Z" fill="#36A5D9"/>
<path d="M64.6615 40.3678C61.0064 40.3678 58.0293 37.3907 58.0293 33.7356C58.0293 30.0806 61.0064 27.1035 64.6615 27.1035C68.3165 27.1035 71.2936 30.0806 71.2936 33.7356C71.2936 37.3907 68.3165 40.3678 64.6615 40.3678ZM64.6615 30.0511C62.6276 30.0511 60.9769 31.7018 60.9769 33.7356C60.9769 35.7695 62.6276 37.4202 64.6615 37.4202C66.6953 37.4202 68.346 35.7695 68.346 33.7356C68.346 31.7018 66.6953 30.0511 64.6615 30.0511Z" fill="white"/>
<path d="M29.2904 40.3678C25.6353 40.3678 22.6582 37.3907 22.6582 33.7356C22.6582 30.0806 25.6353 27.1035 29.2904 27.1035C32.9454 27.1035 35.9225 30.0806 35.9225 33.7356C35.9225 37.3907 32.9454 40.3678 29.2904 40.3678ZM29.2904 30.0511C27.2565 30.0511 25.6058 31.7018 25.6058 33.7356C25.6058 35.7695 27.2565 37.4202 29.2904 37.4202C31.3242 37.4202 32.9749 35.7695 32.9749 33.7356C32.9749 31.7018 31.3242 30.0511 29.2904 30.0511Z" fill="white"/>
<path d="M20.4484 75.0025C19.6378 75.0025 18.9746 74.3393 18.9746 73.5287V53.6322C18.9746 50.8319 20.6695 45.5262 27.0806 45.5262H29.3282C30.1388 45.5262 30.802 46.1894 30.802 47C30.802 47.8106 30.1388 48.4738 29.3282 48.4738H27.0806C22.0696 48.4738 21.9222 53.1016 21.9222 53.6322V73.5287C21.9222 74.3393 21.259 75.0025 20.4484 75.0025Z" fill="white"/>
<path d="M73.5489 75.0025C72.7383 75.0025 72.0751 74.3393 72.0751 73.5287V53.6322C72.0751 53.109 71.8835 48.4738 66.9167 48.4738H64.6691C63.8585 48.4738 63.1953 47.8106 63.1953 47C63.1953 46.1894 63.8585 45.5262 64.6691 45.5262H66.9167C73.3278 45.5262 75.0227 50.8319 75.0227 53.6322V73.5287C75.0227 74.3393 74.3595 75.0025 73.5489 75.0025Z" fill="white"/>
<path d="M46.9771 35.2095C42.5041 35.2095 38.8711 31.5765 38.8711 27.1035C38.8711 22.6305 42.5041 18.9975 46.9771 18.9975C51.4501 18.9975 55.0831 22.6305 55.0831 27.1035C55.0831 31.5765 51.4501 35.2095 46.9771 35.2095ZM46.9771 21.9451C44.1326 21.9451 41.8187 24.259 41.8187 27.1035C41.8187 29.948 44.1326 32.2618 46.9771 32.2618C49.8215 32.2618 52.1354 29.948 52.1354 27.1035C52.1354 24.259 49.8215 21.9451 46.9771 21.9451Z" fill="white"/>
<path d="M60.2408 75.0025C59.4302 75.0025 58.767 74.3393 58.767 73.5287V47C58.767 42.0333 54.1318 41.849 53.6012 41.8417H40.3443C35.3775 41.8417 35.1933 46.4768 35.1859 47.0074V73.5287C35.1859 74.3393 34.5227 75.0025 33.7121 75.0025C32.9015 75.0025 32.2383 74.3393 32.2383 73.5287V47C32.2383 44.1998 33.9332 38.894 40.3443 38.894H53.6086C56.4089 38.894 61.7146 40.5889 61.7146 47V73.5287C61.7146 74.3393 61.0514 75.0025 60.2408 75.0025Z" fill="white"/>
</g>
<defs>
<clipPath id="clip0_9_7140">
<rect width="94" height="94" fill="white"/>
</clipPath>
</defs>
</svg>
