<svg width="64" height="38" viewBox="0 0 64 38" fill="none" xmlns="http://www.w3.org/2000/svg">
<path d="M26.9267 14.6587H28.7549V24H26.9267V14.6587ZM34.878 18.0482V17.1274H36.5994V23.1059C36.5994 25.2277 35.1715 26.4554 33.0764 26.4554C31.9955 26.4554 30.6076 25.9483 29.9404 24.5605L31.2215 23.7064C31.6218 24.4404 32.3024 24.9475 33.1165 24.9475C34.0773 24.9475 34.878 24.3737 34.878 23.1993V22.3853C34.4776 22.9991 33.8504 23.4529 32.8762 23.4529C31.1815 23.4529 29.927 22.0517 29.927 20.2101C29.927 18.3685 31.1815 16.9673 32.8762 16.9673C33.8504 16.9673 34.4776 17.421 34.878 18.0482ZM33.3033 21.9316C34.2374 21.9316 34.9047 21.2376 34.9047 20.2101C34.9047 19.1825 34.2374 18.4886 33.3033 18.4886C32.3425 18.4886 31.6752 19.1825 31.6752 20.2101C31.6752 21.2376 32.3425 21.9316 33.3033 21.9316ZM41.5256 16.9673C42.9268 16.9673 43.9677 17.9948 43.9677 19.5695V24H42.2463V19.8631C42.2463 18.969 41.7392 18.4619 41.0452 18.4619C40.2312 18.4619 39.644 19.0091 39.644 19.9565V24H37.9226V17.1274H39.644V18.0215C40.0577 17.2742 40.7516 16.9673 41.5256 16.9673ZM46.1009 16.3401C45.4871 16.3401 44.9933 15.9664 44.9933 15.3125C44.9933 14.672 45.4871 14.2717 46.1009 14.2717C46.7148 14.2717 47.2085 14.672 47.2085 15.3125C47.2085 15.9664 46.7148 16.3401 46.1009 16.3401ZM45.2335 17.1274H46.955V24H45.2335V17.1274ZM52.2864 17.1274V18.502H50.7518V21.5312C50.7518 22.1851 51.0187 22.5187 51.5525 22.5187H52.2864V24H51.339C49.871 24 49.0303 23.0792 49.0303 21.6113V18.502H47.7759V17.1274H49.0303V15.8063L50.7518 14.8588V17.1274H52.2864ZM59.4169 20.5437C59.4169 20.6638 59.4169 20.8239 59.4036 20.944H54.5594C54.6662 22.1584 55.3067 22.6922 56.1875 22.6922C57.0015 22.6922 57.5887 22.3186 57.949 21.3844L59.4036 21.9182C58.8698 23.4662 57.6554 24.1601 56.2542 24.1601C54.2258 24.1601 52.8113 22.7189 52.8113 20.557C52.8113 18.4219 54.1991 16.9673 56.1741 16.9673C58.0824 16.9673 59.4169 18.4085 59.4169 20.5437ZM56.1741 18.3552C55.3334 18.3552 54.7996 18.8222 54.6128 19.7697H57.6688C57.4819 18.7955 56.9348 18.3552 56.1741 18.3552Z" fill="white"/>
<path d="M13.2893 22.8819L3.83129 22.8819C3.65312 22.8819 3.47495 22.8522 3.31162 22.778C3.1483 22.7037 2.99982 22.6146 2.86619 22.481C2.73256 22.3474 2.64347 22.1989 2.56923 22.0356C2.495 21.8722 2.4653 21.6941 2.4653 21.5159L2.4653 15.9628L1.33687 15.9628C1.06961 15.9628 0.8172 15.8738 0.594483 15.7253C0.371767 15.5768 0.208442 15.3689 0.104508 15.1165C0.000573417 14.879 -0.0291221 14.6117 0.030269 14.3444C0.0748123 14.0772 0.208442 13.8396 0.386615 13.6466L7.60262 6.40089C7.85504 6.14848 8.21138 6 8.56773 6C8.92407 6 9.26557 6.13363 9.51798 6.38604L16.7488 13.6466C16.927 13.8396 17.0606 14.0772 17.1052 14.3444C17.1497 14.6117 17.12 14.879 17.0309 15.1165C16.927 15.3541 16.7637 15.5768 16.541 15.7253C16.3183 15.8738 16.0658 15.948 15.7986 15.9628L14.6702 15.9628L14.6702 21.5456C14.6702 21.9019 14.5217 22.2583 14.2693 22.5107C14.002 22.7334 13.6605 22.8819 13.2893 22.8819ZM8.56773 7.15813C8.53803 7.15813 8.52318 7.15813 8.49349 7.17297C8.46379 7.18782 8.44895 7.20267 8.4341 7.21752L1.20324 14.4781C1.17355 14.5078 1.1587 14.5375 1.1587 14.5672C1.1587 14.5968 1.1587 14.6414 1.17355 14.6711C1.18839 14.7008 1.20324 14.7305 1.24778 14.7453C1.27748 14.7602 1.30718 14.775 1.35172 14.775L3.07406 14.775C3.22254 14.775 3.38586 14.8344 3.4898 14.9532C3.59373 15.0571 3.66797 15.2056 3.66797 15.3689L3.66797 21.5159C3.66797 21.5604 3.68282 21.605 3.72736 21.6495C3.7719 21.6941 3.8016 21.7089 3.86099 21.7089L13.3339 21.7089C13.3784 21.7089 13.4229 21.6941 13.4675 21.6495C13.4972 21.6198 13.5269 21.5753 13.5269 21.5159L13.5269 15.3689C13.5269 15.2947 13.5417 15.2205 13.5714 15.1462C13.6011 15.072 13.6457 15.0126 13.7051 14.9532C13.7644 14.8938 13.8238 14.8493 13.8981 14.8196C13.9723 14.7899 14.0465 14.775 14.1208 14.775L15.8431 14.775C15.8728 14.775 15.9174 14.7602 15.9471 14.7453C15.9768 14.7305 16.0065 14.7008 16.0065 14.6711C16.0213 14.6414 16.0213 14.5969 16.0213 14.5672C16.0213 14.5375 15.9916 14.4929 15.9768 14.4781L8.68651 7.21752C8.67166 7.20267 8.65681 7.18782 8.62712 7.17297C8.61227 7.17297 8.58258 7.15813 8.56773 7.15813Z" fill="white"/>
<path d="M14.1663 24.6787C14.2851 24.6787 14.4039 24.7233 14.493 24.8123C14.5821 24.9014 14.6266 25.0202 14.6266 25.139L14.6266 27.2325C14.6266 27.3513 14.5821 27.4701 14.493 27.5592C14.4039 27.6483 14.2851 27.6928 14.1663 27.6928C14.0476 27.6928 13.9288 27.6483 13.8397 27.5592C13.7506 27.4701 13.7061 27.3513 13.7061 27.2325L13.7061 25.1538C13.7061 25.0351 13.7506 24.9163 13.8397 24.8272C13.9288 24.7233 14.0476 24.6787 14.1663 24.6787Z" fill="white"/>
<path d="M11.3597 24.6787C11.4785 24.6787 11.5973 24.7381 11.6863 24.8272C11.7754 24.9163 11.82 25.0351 11.82 25.1538L11.82 28.3906C11.82 28.5094 11.7754 28.6282 11.6863 28.7173C11.5973 28.8064 11.4785 28.8509 11.3597 28.8509C11.2409 28.8509 11.1221 28.8064 11.033 28.7173C10.944 28.6282 10.8994 28.5094 10.8994 28.3906L10.8994 25.1538C10.8994 25.0944 10.9143 25.0351 10.9291 24.9757C10.9588 24.9163 10.9885 24.8717 11.033 24.8272C11.0776 24.7826 11.137 24.7529 11.1964 24.7233C11.2409 24.6936 11.3003 24.6787 11.3597 24.6787Z" fill="white"/>
<path d="M5.74739 24.6787C5.80678 24.6787 5.86617 24.6936 5.92556 24.7233C5.98495 24.7529 6.0295 24.7826 6.07404 24.8272C6.11858 24.8717 6.16313 24.9311 6.17797 24.9905C6.20767 25.0499 6.20767 25.1241 6.20767 25.1835L6.20767 29.5636C6.20767 29.6824 6.16313 29.8012 6.07404 29.8903C5.98495 29.9794 5.86617 30.0239 5.74739 30.0239C5.62861 30.0239 5.50983 29.9794 5.42074 29.8903C5.33165 29.8012 5.28711 29.6824 5.28711 29.5636L5.28711 25.1835C5.28711 25.1241 5.28711 25.0499 5.3168 24.9905C5.3465 24.9311 5.3762 24.8717 5.42074 24.8272C5.46528 24.7826 5.52467 24.7381 5.56922 24.7233C5.61376 24.6936 5.688 24.6936 5.74739 24.6787Z" fill="white"/>
<path d="M2.9554 24.6787C3.01479 24.6787 3.07418 24.6936 3.13357 24.7233C3.19296 24.7529 3.23751 24.7826 3.28205 24.8272C3.32659 24.8717 3.35629 24.9311 3.38598 24.9905C3.40083 25.0499 3.41568 25.1241 3.41568 25.1835L3.41568 26.5198C3.41568 26.6386 3.37113 26.7574 3.28205 26.8465C3.19296 26.9356 3.07418 26.9801 2.9554 26.9801C2.83662 26.9801 2.71783 26.9356 2.62875 26.8465C2.53966 26.7574 2.49512 26.6386 2.49512 26.5198L2.49512 25.1835C2.49512 25.1241 2.49512 25.0499 2.52481 24.9905C2.53966 24.9311 2.5842 24.8717 2.62875 24.8272C2.67329 24.7826 2.73268 24.7381 2.79207 24.7084C2.82177 24.6936 2.88116 24.6787 2.9554 24.6787Z" fill="white"/>
<path d="M8.55305 24.6787C8.61244 24.6787 8.67184 24.6936 8.73123 24.7084C8.79062 24.7381 8.83516 24.7678 8.8797 24.8123C8.96879 24.9014 9.01333 25.0202 9.01333 25.139L9.01333 31.7908C9.01333 31.9096 8.96879 32.0283 8.8797 32.1174C8.79062 32.2065 8.67183 32.2511 8.55305 32.2511C8.43427 32.2511 8.31549 32.2065 8.2264 32.1174C8.13732 32.0283 8.09277 31.9096 8.09277 31.7908L8.09277 25.1687C8.09277 25.1093 8.09277 25.0351 8.12247 24.9757C8.13732 24.9163 8.18186 24.8569 8.2264 24.8123C8.27095 24.7678 8.33034 24.7233 8.38973 24.7084C8.41942 24.6936 8.49366 24.6787 8.55305 24.6787Z" fill="white"/>
<path d="M2.94047 28.5241C3.19289 28.5241 3.40076 28.3162 3.40076 28.0638C3.40076 27.8114 3.19289 27.6035 2.94047 27.6035C2.68806 27.6035 2.48019 27.8114 2.48019 28.0638C2.46535 28.3162 2.68806 28.5241 2.94047 28.5241Z" fill="white"/>
</svg>
