<?xml version="1.0" encoding="UTF-8"?>
<svg width="116px" height="116px" viewBox="0 0 116 116" version="1.1" xmlns="http://www.w3.org/2000/svg" xmlns:xlink="http://www.w3.org/1999/xlink">
    <!-- Generator: Sketch 63.1 (92452) - https://sketch.com -->
    <title>AMAX-all icon</title>
    <desc>Created with Sketch.</desc>
    <defs>
        <polygon id="path-1" points="4.87627368e-15 69.3217993 61.6462447 69.3217993 61.6462447 -4.87627368e-15 4.87627368e-15 -4.87627368e-15"></polygon>
    </defs>
    <g id="Spring-Campaign" stroke="none" stroke-width="1" fill="none" fill-rule="evenodd">
        <g id="Spring-Campaign----Slide-01" transform="translate(-902.000000, -637.000000)">
            <g id="2" transform="translate(690.000000, 377.000000)">
                <g id="AMAX-all-icon" transform="translate(213.000000, 261.000000)">
                    <circle id="Oval" stroke="#697684" stroke-width="2" cx="57" cy="57" r="57"></circle>
                    <g id="people-icon" transform="translate(26.000000, 20.000000)">
                        <path d="M30.819825,1.83224099 C28.0628537,1.83224099 25.8206391,4.07445553 25.8206391,6.83142683 C25.8206391,9.75326684 28.2460411,13.5250967 30.819825,13.5250967 C33.3936088,13.5250967 35.8190108,9.75326684 35.8190108,6.83142683 C35.8190108,4.07445553 33.5767963,1.83224099 30.819825,1.83224099 M30.819825,15.3569713 C27.0370039,15.3569713 23.9887645,10.6930185 23.9887645,6.83142683 C23.9887645,3.06326074 27.0534907,0.000366374924 30.819825,0.000366374924 C34.5861592,0.000366374924 37.6508854,3.06326074 37.6508854,6.83142683 C37.6508854,10.6930185 34.602646,15.3569713 30.819825,15.3569713" id="Fill-1" stroke="#FFFFFF" stroke-width="0.5" fill="#E4002B"></path>
                        <path d="M40.508793,44.8847751 C38.5908203,44.8847751 37.0300631,43.3240179 37.0300631,41.4042133 L37.0300631,31.2611235 L38.8619377,31.2611235 L38.8619377,41.4042133 C38.8619377,42.3128231 39.6001832,43.0529005 40.508793,43.0529005 C41.4174028,43.0529005 42.1574802,42.3128231 42.1574802,41.4042133 L42.1574802,28.1432729 C42.1574802,23.3602483 38.2665785,19.4711785 33.4853857,19.4711785 L28.1546306,19.4711785 C23.3734378,19.4711785 19.4807043,23.3602483 19.4807043,28.1432729 L19.4807043,41.4042133 C19.4807043,42.3128231 20.2226135,43.0529005 21.1312233,43.0529005 C22.0398331,43.0529005 22.7780786,42.3128231 22.7780786,41.4042133 L22.7780786,31.2611235 L24.6099532,31.2611235 L24.6099532,41.4042133 C24.6099532,43.3240179 23.049196,44.8847751 21.1312233,44.8847751 C19.2114187,44.8847751 17.6488296,43.3240179 17.6488296,41.4042133 L17.6488296,28.1432729 C17.6488296,22.3508854 22.362243,17.6393039 28.1546306,17.6393039 L33.4853857,17.6393039 C39.2777733,17.6393039 43.9893548,22.3508854 43.9893548,28.1432729 L43.9893548,41.4042133 C43.9893548,43.3240179 42.4285976,44.8847751 40.508793,44.8847751" id="Fill-3" stroke="#FFFFFF" stroke-width="0.5" fill="#E4002B"></path>
                        <mask id="mask-2" fill="white">
                            <use xlink:href="#path-1"></use>
                        </mask>
                        <use id="Clip-6" stroke="#FFFFFF" stroke-width="0.5" xlink:href="#path-1"></use>
                        <polygon id="Fill-5" stroke="#FFFFFF" stroke-width="0.5" fill="#E4002B" points="29.9035213 68.405862 31.7353959 68.405862 31.7353959 41.4040301 29.9035213 41.4040301"></polygon>
                        <path d="M30.819825,69.3217993 L25.0732343,69.3217993 C23.8092408,69.3217993 22.7778954,68.2922858 22.7778954,67.0282923 L22.7778954,28.0130267 L24.60977,28.0130267 L24.60977,67.0282923 C24.60977,67.2829229 24.8186037,67.4899247 25.0732343,67.4899247 L30.819825,67.4899247 L30.819825,69.3217993 Z" id="Fill-7" stroke="#FFFFFF" stroke-width="0.5" fill="#E4002B"></path>
                        <path d="M36.5660493,69.3217993 L29.9035213,69.3217993 L29.9035213,41.4040301 L31.7353959,41.4040301 L31.7353959,67.4899247 L36.5660493,67.4899247 C36.8225117,67.4899247 37.0295135,67.2829229 37.0295135,67.0282923 L37.0295135,28.0130267 L38.8613882,28.0130267 L38.8613882,67.0282923 C38.8613882,68.2922858 37.8300427,69.3217993 36.5660493,69.3217993" id="Fill-8" stroke="#FFFFFF" stroke-width="0.5" fill="#E4002B"></path>
                        <path d="M12.0808467,7.82686749 C9.61331162,7.82686749 7.60924079,9.8327702 7.60924079,12.3003053 C7.60924079,14.9290454 9.77634846,18.3198453 12.0808467,18.3198453 C14.385345,18.3198453 16.5542846,14.9290454 16.5542846,12.3003053 C16.5542846,9.8327702 14.5483818,7.82686749 12.0808467,7.82686749 M12.0808467,20.1517199 C8.58929371,20.1517199 5.77736617,15.8559739 5.77736617,12.3003053 C5.77736617,8.82340729 8.60578058,5.99499288 12.0808467,5.99499288 C15.5577448,5.99499288 18.3861592,8.82340729 18.3861592,12.3003053 C18.3861592,15.8559739 15.5742316,20.1517199 12.0808467,20.1517199" id="Fill-9" stroke="#FFFFFF" stroke-width="0.5" fill="#697684"></path>
                        <path d="M3.2523102,47.0557297 C1.45890495,47.0557297 0.000732749847,45.5957256 0.000732749847,43.8023204 L0.000732749847,31.7192754 C0.000732749847,26.3976796 4.33128435,22.067128 9.65288011,22.067128 L14.5110116,22.067128 C14.972644,22.067128 15.4269489,22.1001018 15.8702626,22.1623855 C16.2970894,22.2100142 16.6140037,22.242988 16.9400773,22.3932017 L16.1743538,24.0565439 C16.1212294,24.0327295 15.96552,24.0162426 15.8519438,24.0052514 L15.615632,23.9759414 C15.2510889,23.9246489 14.884714,23.8990026 14.5110116,23.8990026 L9.65288011,23.8990026 C5.34064726,23.8990026 1.83260737,27.4070425 1.83260737,31.7192754 L1.83260737,43.8023204 C1.83260737,44.5863627 2.46826786,45.2238551 3.2523102,45.2238551 C4.03635253,45.2238551 4.6738449,44.5863627 4.6738449,43.8023204 L4.6738449,34.5623448 L6.50571952,34.5623448 L6.50571952,43.8023204 C6.50571952,45.5957256 5.04571545,47.0557297 3.2523102,47.0557297" id="Fill-10" stroke="#FFFFFF" stroke-width="0.5" fill="#697684"></path>
                        <polygon id="Fill-11" stroke="#FFFFFF" stroke-width="0.5" fill="#697684" points="11.1652758 68.405862 12.9971504 68.405862 12.9971504 43.801954 11.1652758 43.801954"></polygon>
                        <path d="M12.0808467,69.3217993 L6.84718095,69.3217993 C5.64913495,69.3217993 4.67457765,68.347242 4.67457765,67.149196 L4.67457765,31.601669 L6.50645227,31.601669 L6.50645227,67.149196 C6.50645227,67.3378791 6.65849786,67.4899247 6.84718095,67.4899247 L12.0808467,67.4899247 L12.0808467,69.3217993 Z" id="Fill-12" stroke="#FFFFFF" stroke-width="0.5" fill="#697684"></path>
                        <path d="M17.3170771,69.3217993 L11.1656422,69.3217993 L11.1656422,43.801954 L12.9975168,43.801954 L12.9975168,67.4899247 L17.3170771,67.4899247 C17.5057602,67.4899247 17.6578058,67.3378791 17.6578058,67.149196 L17.6578058,46.3665785 L19.4896804,46.3665785 L19.4896804,67.149196 C19.4896804,68.347242 18.5132913,69.3217993 17.3170771,69.3217993" id="Fill-13" stroke="#FFFFFF" stroke-width="0.5" fill="#697684"></path>
                        <path d="M49.5661307,7.82686749 C47.0985956,7.82686749 45.0926929,9.8327702 45.0926929,12.3003053 C45.0926929,14.9290454 47.2616324,18.3198453 49.5661307,18.3198453 C51.8706289,18.3198453 54.0377366,14.9290454 54.0377366,12.3003053 C54.0377366,9.8327702 52.0336658,7.82686749 49.5661307,7.82686749 M49.5661307,20.1517199 C46.0727458,20.1517199 43.2608182,15.8559739 43.2608182,12.3003053 C43.2608182,8.82340729 46.0892326,5.99499288 49.5661307,5.99499288 C53.0411968,5.99499288 55.8696112,8.82340729 55.8696112,12.3003053 C55.8696112,15.8559739 53.0576837,20.1517199 49.5661307,20.1517199" id="Fill-14" stroke="#FFFFFF" stroke-width="0.5" fill="#697684"></path>
                        <path d="M58.3946672,47.0557297 C56.601262,47.0557297 55.1412579,45.5957256 55.1412579,43.8023204 L55.1412579,34.5623448 L56.9731325,34.5623448 L56.9731325,43.8023204 C56.9731325,44.5863627 57.6106249,45.2238551 58.3946672,45.2238551 C59.1787095,45.2238551 59.81437,44.5863627 59.81437,43.8023204 L59.81437,31.7192754 C59.81437,27.4070425 56.3063301,23.8990026 51.9940973,23.8990026 L47.1359658,23.8990026 C46.7622634,23.8990026 46.3958885,23.9246489 46.0350092,23.9759414 L45.7950336,24.0052514 C45.6814574,24.0162426 45.525748,24.0327295 45.4726237,24.0565439 L44.7069001,22.3932017 C45.0329737,22.242988 45.3498881,22.2100142 45.6063505,22.1825361 C46.2200285,22.1001018 46.6743334,22.067128 47.1359658,22.067128 L51.9940973,22.067128 C57.3156931,22.067128 61.6462447,26.3976796 61.6462447,31.7192754 L61.6462447,43.8023204 C61.6462447,45.5957256 60.1880725,47.0557297 58.3946672,47.0557297" id="Fill-15" stroke="#FFFFFF" stroke-width="0.5" fill="#697684"></path>
                        <polygon id="Fill-16" stroke="#FFFFFF" stroke-width="0.5" fill="#697684" points="48.6509261 68.405862 50.4828007 68.405862 50.4828007 43.801954 48.6509261 43.801954"></polygon>
                        <path d="M54.8007124,69.3217993 L49.5670466,69.3217993 L49.5670466,67.4899247 L54.8007124,67.4899247 C54.9893955,67.4899247 55.1414411,67.3378791 55.1414411,67.149196 L55.1414411,31.601669 L56.9733157,31.601669 L56.9733157,67.149196 C56.9733157,68.347242 55.9969265,69.3217993 54.8007124,69.3217993" id="Fill-17" stroke="#FFFFFF" stroke-width="0.5" fill="#697684"></path>
                        <path d="M50.482068,69.3217993 L44.330633,69.3217993 C43.132587,69.3217993 42.1580297,68.347242 42.1580297,67.149196 L42.1580297,46.3665785 L43.9899043,46.3665785 L43.9899043,67.149196 C43.9899043,67.3378791 44.1419499,67.4899247 44.330633,67.4899247 L48.6501934,67.4899247 L48.6501934,43.801954 L50.482068,43.801954 L50.482068,69.3217993 Z" id="Fill-18" stroke="#FFFFFF" stroke-width="0.5" fill="#697684"></path>
                    </g>
                </g>
            </g>
        </g>
    </g>
</svg>