<?xml version="1.0" encoding="UTF-8"?>
<svg width="212px" height="84px" viewBox="0 0 212 84" version="1.1" xmlns="http://www.w3.org/2000/svg" xmlns:xlink="http://www.w3.org/1999/xlink">
    <!-- Generator: Sketch 63.1 (92452) - https://sketch.com -->
    <title>target on rea icon</title>
    <desc>Created with Sketch.</desc>
    <g id="Spring-Campaign" stroke="none" stroke-width="1" fill="none" fill-rule="evenodd">
        <g id="Spring-Campaign----Slide-02---version-3" transform="translate(-295.000000, -384.000000)">
            <g id="1" transform="translate(166.000000, 386.000000)">
                <g id="target-on-rea-icon" transform="translate(131.000000, 0.000000)">
                    <g id="icon---email" transform="translate(76.862745, 30.400000)">
                        <polygon id="Path" fill="#697684" transform="translate(24.705882, 7.600000) rotate(-270.000000) translate(-24.705882, -7.600000) " points="23.4258824 -17.1058824 25.9858824 -17.1058824 25.9858824 32.3058824 23.4258824 32.3058824"></polygon>
                        <polyline id="Path-2" stroke="#697684" stroke-width="2.35294118" points="43.5294118 0 50.9803922 7.6 43.5294118 15.2"></polyline>
                    </g>
                    <g id="icon---laptop">
                        <path d="M7.84313725,68 L7.84313725,7.28571429 C7.84313725,3.25914286 10.854902,0 14.5658263,0 L95.2380952,0 C98.9490196,0 101.960784,3.25914286 101.960784,7.28571429 L101.960784,68" id="Stroke-5625" stroke="#565F73" stroke-width="2.35294118" stroke-linecap="round" stroke-linejoin="round"></path>
                        <rect id="Rectangle" stroke="#697684" stroke-width="2.35294118" x="141.960784" y="12" width="65.8823529" height="52" rx="1.56862745"></rect>
                        <path d="M181.176471,33.5110048 L172.276215,24 L168.320546,28.1931034 L168.320546,27.1448276 L168.320546,26.2233931 C168.320546,25.5776552 167.821142,25.0482759 167.211969,25.0482759 L163.495618,25.0482759 C162.886445,25.0482759 162.387042,25.5776552 162.387042,26.2233931 L162.387042,34.4827586 L158.431373,38.6758621 L161.398124,38.6758621 L161.398124,52.3034483 C161.398124,53.4565517 162.28815,54.4 163.375959,54.4 L171.86642,54.4" id="Path-Copy-2" stroke="#565F73" stroke-width="1.56862745" stroke-linecap="round" stroke-linejoin="round"></path>
                        <polygon id="Path-19" fill="#565F73" fill-rule="nonzero" points="173.333333 40 173.333333 38.4 191.599648 38.4 191.599648 40"></polygon>
                        <polygon id="Path-19-Copy" fill="#565F73" fill-rule="nonzero" points="173.333333 44 173.333333 42.4 191.599648 42.4 191.599648 44"></polygon>
                        <polygon id="Path-19-Copy-2" fill="#565F73" fill-rule="nonzero" points="173.333333 48 173.333333 46.4 191.599648 46.4 191.599648 48"></polygon>
                        <path d="M42.9667519,68 L0,68 L0,76 C0,78.208 2.13878943,80 4.77408355,80 L105.029838,80 C107.669906,80 109.803922,78.208 109.803922,76 L109.803922,68 L66.8371697,68 L42.9667519,68 Z" id="Stroke-5626" stroke="#565F73" stroke-width="2.35294118" stroke-linecap="round" stroke-linejoin="round"></path>
                        <polygon id="Stroke-5624" stroke="#565F73" stroke-width="2.35294118" stroke-linecap="round" stroke-linejoin="round" points="94.1176471 60 54.9019608 60 15.6862745 60 15.6862745 8 94.1176471 8"></polygon>
                    </g>
                </g>
            </g>
        </g>
    </g>
</svg>