<?xml version="1.0" encoding="UTF-8"?>
<svg width="116px" height="116px" viewBox="0 0 116 116" version="1.1" xmlns="http://www.w3.org/2000/svg" xmlns:xlink="http://www.w3.org/1999/xlink">
    <!-- Generator: Sketch 63.1 (92452) - https://sketch.com -->
    <title>Prem-all icon</title>
    <desc>Created with Sketch.</desc>
    <g id="Spring-Campaign" stroke="none" stroke-width="1" fill="none" fill-rule="evenodd">
        <g id="Spring-Campaign----Slide-01" transform="translate(-314.000000, -637.000000)" stroke-width="2">
            <g id="1" transform="translate(121.000000, 396.000000)">
                <g id="Prem-all-icon" transform="translate(194.000000, 242.000000)">
                    <circle id="Oval" stroke="#697684" cx="57" cy="57" r="57"></circle>
                    <path d="M64.1120667,47.4679649 C64.3368526,47.9668864 64.9577669,48.3713423 65.524075,48.3713423 L80.2646587,48.3713423 C81.3699432,48.3713423 81.6172804,48.9814147 80.8116526,49.7391022 L69.1565456,60.7006506 C68.7565358,61.0768571 68.5358656,61.813511 68.6648539,62.3509669 L72.925867,80.1053386 C73.1835899,81.1791928 72.6680825,81.5165749 71.7759527,80.8600092 L57.3461538,70.2403541 C56.8970523,69.9098364 56.165169,69.9125932 55.7198133,70.2403541 L41.2900144,80.8600092 C40.3972114,81.5170703 39.8889514,81.1854134 40.1588935,80.1027499 L44.4468219,62.9050486 C44.5804178,62.3692322 44.3725385,61.6260898 43.9712478,61.2341946 L32.2340378,49.7717912 C31.4420482,48.9983446 31.7044824,48.3713423 32.8013084,48.3713423 L47.5418921,48.3713423 C48.0969368,48.3713423 48.7286951,47.9678172 48.9539004,47.4679649 L55.7084106,32.4760521 C56.1638096,31.4652751 56.8968814,31.4535647 57.3575565,32.4760521 L64.1120667,47.4679649 Z" id="Stroke-4332" stroke="#E4002B" stroke-linejoin="round"></path>
                </g>
            </g>
        </g>
    </g>
</svg>