<svg width="35" height="35" viewBox="0 0 35 35" fill="none" xmlns="http://www.w3.org/2000/svg">
<circle cx="17.5" cy="17.5" r="17.5" fill="#FCC32F"/>
<path d="M17.5538 23.4892C14.0635 23.4892 11.2344 20.66 11.2344 17.1698V8.90588H23.8733V17.1698C23.8733 20.66 21.0441 23.4892 17.5538 23.4892V23.4892Z" stroke="white" stroke-width="1.7" stroke-linecap="round" stroke-linejoin="round"/>
<path d="M11.2322 10.8505H7.34332C6.80859 10.8505 6.37109 11.288 6.37109 11.8227C6.37109 16.4019 9.24887 20.3053 13.2933 21.8317" stroke="white" stroke-width="1.7" stroke-linecap="round" stroke-linejoin="round"/>
<path d="M21.8047 21.8317C25.8491 20.3053 28.7269 16.4019 28.7269 11.8227C28.7269 11.288 28.2894 10.8505 27.7547 10.8505H23.8658" stroke="white" stroke-width="1.7" stroke-linecap="round" stroke-linejoin="round"/>
<path d="M16.0959 23.3141V24.4905C16.0959 25.5745 15.1966 26.3863 14.1126 26.4106C13.0577 26.4301 12.207 27.2953 12.207 28.3551V28.8412C12.207 29.1085 12.4258 29.3273 12.6931 29.3273H22.4154C22.6827 29.3273 22.9015 29.1085 22.9015 28.8412V28.3308C22.9015 27.2467 22.0022 26.4349 20.9181 26.4106C19.8633 26.3912 19.0126 25.5259 19.0126 24.4662V23.3189" stroke="white" stroke-width="1.7" stroke-linecap="round" stroke-linejoin="round"/>
</svg>
