<svg width="39" height="31" viewBox="0 0 39 31" fill="none" xmlns="http://www.w3.org/2000/svg">
<g clip-path="url(#clip0_424_2673)">
<path fill-rule="evenodd" clip-rule="evenodd" d="M22.054 13.9297C22.3483 13.6354 22.7921 13.55 23.1746 13.7139L37.7802 19.9735C38.1686 20.1399 38.4138 20.5291 38.3962 20.9513C38.3787 21.3735 38.102 21.7409 37.7012 21.8746L31.9244 23.8001L29.9988 29.5769C29.8652 29.9778 29.4978 30.2544 29.0755 30.272C28.6533 30.2895 28.2642 30.0444 28.0977 29.656L21.8382 15.0504C21.6742 14.6678 21.7597 14.224 22.054 13.9297ZM24.7116 16.5873L28.9142 26.3935L30.1542 22.6736C30.2555 22.3697 30.494 22.1312 30.7979 22.0299L34.5178 20.79L24.7116 16.5873Z" fill="#13A4AE"/>
<path fill-rule="evenodd" clip-rule="evenodd" d="M9.16016 5.87023C9.16016 5.30811 9.61585 4.85242 10.178 4.85242H14.7581C15.3202 4.85242 15.7759 5.30811 15.7759 5.87023V15.0305C15.7759 15.5927 15.3202 16.0483 14.7581 16.0483H10.178C9.61585 16.0483 9.16016 15.5927 9.16016 15.0305V5.87023ZM11.1958 6.88804V14.0127H13.7403V6.88804H11.1958Z" fill="#13A4AE"/>
<path fill-rule="evenodd" clip-rule="evenodd" d="M18.3203 5.87011C18.3203 5.30798 18.776 4.85229 19.3381 4.85229H28.4984C29.0606 4.85229 29.5162 5.30798 29.5162 5.87011V10.4503C29.5162 11.0124 29.0606 11.4681 28.4984 11.4681H19.3381C18.776 11.4681 18.3203 11.0124 18.3203 10.4503V5.87011ZM20.3559 6.88792V9.43245H27.4806V6.88792H20.3559Z" fill="#13A4AE"/>
<path fill-rule="evenodd" clip-rule="evenodd" d="M4.58008 1.29003C4.58008 0.727907 5.03577 0.272217 5.59789 0.272217H33.0788C33.6409 0.272217 34.0966 0.727907 34.0966 1.29003V10.4503C34.0966 11.0125 33.6409 11.4681 33.0788 11.4681C32.5167 11.4681 32.061 11.0125 32.061 10.4503V2.30784H6.6157V19.6106C6.6157 20.1728 6.16001 20.6285 5.59789 20.6285C5.03577 20.6285 4.58008 20.1728 4.58008 19.6106V1.29003Z" fill="#13A4AE"/>
<path fill-rule="evenodd" clip-rule="evenodd" d="M0 19.6103C0 19.0482 0.45569 18.5925 1.01781 18.5925H19.3384C19.9005 18.5925 20.3562 19.0482 20.3562 19.6103C20.3562 20.1725 19.9005 20.6282 19.3384 20.6282H1.01781C0.45569 20.6282 0 20.1725 0 19.6103Z" fill="#13A4AE"/>
</g>
<defs>
<clipPath id="clip0_424_2673">
<rect width="38.3969" height="30" fill="white" transform="translate(0 0.272217)"/>
</clipPath>
</defs>
</svg>
