<svg width="188" height="76" viewBox="0 0 188 76" fill="none" xmlns="http://www.w3.org/2000/svg">
<path d="M36.4495 48.9365H10.5084C10.0197 48.9365 9.53099 48.8511 9.08302 48.6375C8.63506 48.4239 8.22782 48.1675 7.8613 47.783C7.49479 47.3985 7.25044 46.9713 7.04682 46.5014C6.8432 46.0314 6.76176 45.5187 6.76176 45.0061V29.0279H3.66673C2.9337 29.0279 2.24139 28.7715 1.63053 28.3443C1.01967 27.9171 0.571711 27.319 0.286643 26.5927C0.00157488 25.9091 -0.0798731 25.1401 0.0830228 24.3711C0.205195 23.6021 0.571711 22.9186 1.0604 22.3632L20.8523 1.5146C21.5446 0.788314 22.5219 0.361084 23.4993 0.361084C24.4767 0.361084 25.4133 0.745589 26.1056 1.47187L45.9382 22.3632C46.4269 22.9186 46.7934 23.6021 46.9156 24.3711C47.0378 25.1401 46.9563 25.9091 46.712 26.5927C46.4269 27.2762 45.979 27.9171 45.3681 28.3443C44.7572 28.7715 44.0649 28.9851 43.3319 29.0279H40.2369V45.0915C40.2369 46.1169 39.8296 47.1422 39.1373 47.8685C38.4043 48.5093 37.4676 48.9365 36.4495 48.9365ZM23.4993 3.69343C23.4179 3.69343 23.3771 3.69343 23.2957 3.73616C23.2142 3.77888 23.1735 3.82161 23.1328 3.86433L3.30022 24.7556C3.21877 24.8411 3.17805 24.9265 3.17805 25.012C3.17805 25.0974 3.17805 25.2256 3.21877 25.311C3.25949 25.3965 3.30022 25.4819 3.42239 25.5246C3.50384 25.5673 3.58529 25.6101 3.70746 25.6101H8.43144C8.83868 25.6101 9.28664 25.781 9.57171 26.1227C9.85678 26.4218 10.0604 26.849 10.0604 27.319V45.0061C10.0604 45.1342 10.1011 45.2624 10.2233 45.3906C10.3455 45.5187 10.4269 45.5615 10.5898 45.5615H36.5717C36.6939 45.5615 36.8161 45.5187 36.9382 45.3906C37.0197 45.3051 37.1011 45.177 37.1011 45.0061V27.319C37.1011 27.1054 37.1418 26.8917 37.2233 26.6781C37.3047 26.4645 37.4269 26.2936 37.5898 26.1227C37.7527 25.9518 37.9156 25.8237 38.1192 25.7382C38.3228 25.6528 38.5265 25.6101 38.7301 25.6101H43.4541C43.5355 25.6101 43.6577 25.5673 43.7391 25.5246C43.8206 25.4819 43.902 25.3965 43.902 25.311C43.9428 25.2256 43.9428 25.0974 43.9428 25.012C43.9428 24.9265 43.8613 24.7983 43.8206 24.7556L23.8251 3.86433C23.7844 3.82161 23.7437 3.77888 23.6622 3.73616C23.6215 3.73616 23.54 3.69343 23.4993 3.69343Z" fill="#E4002B"/>
<path d="M38.8523 54.1063C39.1781 54.1063 39.5039 54.2345 39.7482 54.4908C39.9926 54.7472 40.1147 55.0889 40.1147 55.4307V61.4546C40.1147 61.7964 39.9926 62.1382 39.7482 62.3945C39.5039 62.6508 39.1781 62.779 38.8523 62.779C38.5265 62.779 38.2007 62.6508 37.9564 62.3945C37.712 62.1382 37.5898 61.7964 37.5898 61.4546V55.4734C37.5898 55.1317 37.712 54.7899 37.9564 54.5335C38.2007 54.2345 38.5265 54.1063 38.8523 54.1063Z" fill="#E4002B"/>
<path d="M31.1555 54.1063C31.4813 54.1063 31.8071 54.2772 32.0514 54.5335C32.2958 54.7899 32.418 55.1317 32.418 55.4734V64.7869C32.418 65.1287 32.2958 65.4705 32.0514 65.7268C31.8071 65.9832 31.4813 66.1113 31.1555 66.1113C30.8297 66.1113 30.5039 65.9832 30.2596 65.7268C30.0152 65.4705 29.8931 65.1287 29.8931 64.7869V55.4734C29.8931 55.3026 29.9338 55.1317 29.9745 54.9608C30.056 54.7899 30.1374 54.6617 30.2596 54.5335C30.3818 54.4054 30.5447 54.3199 30.7075 54.2345C30.8297 54.1491 30.9926 54.1063 31.1555 54.1063Z" fill="#E4002B"/>
<path d="M15.7615 54.1063C15.9244 54.1063 16.0873 54.1491 16.2502 54.2345C16.4131 54.3199 16.5352 54.4054 16.6574 54.5335C16.7796 54.6617 16.9017 54.8326 16.9425 55.0035C17.0239 55.1744 17.0239 55.388 17.0239 55.5589V68.162C17.0239 68.5038 16.9017 68.8456 16.6574 69.1019C16.4131 69.3582 16.0873 69.4864 15.7615 69.4864C15.4357 69.4864 15.1099 69.3582 14.8655 69.1019C14.6212 68.8456 14.499 68.5038 14.499 68.162V55.5589C14.499 55.388 14.499 55.1744 14.5805 55.0035C14.6619 54.8326 14.7434 54.6617 14.8655 54.5335C14.9877 54.4054 15.1506 54.2772 15.2728 54.2345C15.395 54.1491 15.5986 54.149 15.7615 54.1063Z" fill="#E4002B"/>
<path d="M8.10571 54.1063C8.2686 54.1063 8.4315 54.1491 8.59439 54.2345C8.75729 54.3199 8.87946 54.4054 9.00163 54.5335C9.12381 54.6617 9.20525 54.8326 9.2867 55.0035C9.32742 55.1744 9.36815 55.388 9.36815 55.5589V59.4039C9.36815 59.7457 9.24598 60.0875 9.00163 60.3438C8.75729 60.6001 8.4315 60.7283 8.10571 60.7283C7.77991 60.7283 7.45412 60.6001 7.20978 60.3438C6.96543 60.0875 6.84326 59.7457 6.84326 59.4039V55.5589C6.84326 55.388 6.84326 55.1744 6.92471 55.0035C6.96543 54.8326 7.08761 54.6617 7.20978 54.5335C7.33195 54.4054 7.49485 54.2772 7.65774 54.1918C7.73919 54.1491 7.90209 54.1063 8.10571 54.1063Z" fill="#E4002B"/>
<path d="M23.4587 54.1063C23.6216 54.1063 23.7845 54.1491 23.9474 54.1918C24.1103 54.2772 24.2325 54.3627 24.3547 54.4908C24.599 54.7472 24.7212 55.0889 24.7212 55.4307V74.5704C24.7212 74.9122 24.599 75.254 24.3547 75.5103C24.1103 75.7666 23.7845 75.8948 23.4587 75.8948C23.1329 75.8948 22.8071 75.7666 22.5628 75.5103C22.3185 75.254 22.1963 74.9122 22.1963 74.5704V55.5162C22.1963 55.3453 22.1963 55.1317 22.2777 54.9608C22.3185 54.7899 22.4406 54.619 22.5628 54.4908C22.685 54.3627 22.8479 54.2345 23.0108 54.1918C23.0922 54.1491 23.2958 54.1063 23.4587 54.1063Z" fill="#E4002B"/>
<path d="M31.1555 70.725C31.8478 70.725 32.418 70.1269 32.418 69.4006C32.418 68.6743 31.8478 68.0762 31.1555 68.0762C30.4632 68.0762 29.8931 68.6743 29.8931 69.4006C29.8931 70.1269 30.4632 70.725 31.1555 70.725Z" fill="#E4002B"/>
<path d="M8.06515 65.1711C8.75746 65.1711 9.32759 64.573 9.32759 63.8467C9.32759 63.1205 8.75746 62.5223 8.06515 62.5223C7.37284 62.5223 6.80271 63.1205 6.80271 63.8467C6.76198 64.573 7.37284 65.1711 8.06515 65.1711Z" fill="#E4002B"/>
<path d="M68.7437 11.0851V49.0654H61.6577V11.0851H68.7437Z" fill="#3E3B41"/>
<path d="M92.4855 21.1244H99.1642V45.4335C99.1642 54.0634 93.6258 59.0619 85.5217 59.0619C82.9968 59.1046 80.5534 58.4211 78.395 57.054C76.2366 55.6869 74.4855 53.7216 73.3859 51.3719L78.395 47.9114C79.9425 50.9019 82.5896 52.9526 85.7253 52.9526C89.4719 52.9526 92.5669 50.6029 92.5669 45.8607V42.571C91.7525 43.9382 90.6122 45.0917 89.2276 45.8607C87.8837 46.6297 86.3362 47.0142 84.7887 46.9287C78.2321 46.9287 73.3452 41.2467 73.3452 33.6848C73.3452 26.1229 78.1914 20.4408 84.7887 20.4408C86.3362 20.3981 87.8837 20.7399 89.2276 21.5089C90.6122 22.2779 91.7525 23.4314 92.5262 24.7985L92.4855 21.1244ZM92.6077 33.6421C92.6077 29.4552 90.042 26.6356 86.4176 26.6356C82.7932 26.6356 80.1054 29.4552 80.1054 33.6421C80.1054 37.8289 82.671 40.6485 86.4176 40.6485C90.1642 40.6485 92.6077 37.8289 92.6077 33.6421Z" fill="#3E3B41"/>
<path d="M127.712 31.036V49.0649H121.033V32.2322C121.033 28.6008 119.078 26.5501 116.391 26.5501C113.255 26.5501 110.974 28.7717 110.974 32.6167V49.0649H104.255V21.1244H110.934V24.7558C111.626 23.3886 112.685 22.2779 113.988 21.5089C115.291 20.7399 116.757 20.3981 118.223 20.4835C123.68 20.4408 127.712 24.6276 127.712 31.036Z" fill="#3E3B41"/>
<path d="M131.703 13.7326C131.785 12.5791 132.273 11.511 133.047 10.742C133.862 9.973 134.88 9.50305 135.979 9.50305C137.079 9.50305 138.138 9.93027 138.911 10.742C139.726 11.511 140.174 12.5791 140.255 13.7326C140.255 16.3814 138.341 17.9194 135.979 17.9194C133.617 17.8767 131.703 16.3814 131.703 13.7326ZM139.319 21.1236V49.0641H132.64V21.1236H139.319Z" fill="#3E3B41"/>
<path d="M160.006 26.6781H154.061V38.9394C154.061 41.5882 155.079 42.9554 157.156 42.9554H160.006V48.9792H156.341C150.64 48.9792 147.382 45.2197 147.382 39.2812V26.6781H142.536V21.0815H147.382V15.7411L154.061 11.8961V21.1242H160.006V26.6781Z" fill="#3E3B41"/>
<path d="M187.576 36.6752H168.802C169.21 41.631 171.694 43.7671 175.115 43.7671C178.25 43.7671 180.531 42.2291 181.956 38.4268L187.576 40.6057C185.499 46.8859 180.816 49.7056 175.359 49.7056C167.499 49.7056 162.001 43.8526 162.001 35.0518C162.001 26.2509 167.418 20.4407 175.033 20.4407C182.649 20.4407 187.658 26.2937 187.658 34.9663C187.658 35.5644 187.617 36.1198 187.576 36.6752ZM169.006 31.933H180.857C180.124 27.9598 178.006 26.1655 175.074 26.1655C171.816 26.08 169.739 27.9598 169.006 31.8476V31.933Z" fill="#3E3B41"/>
</svg>
