<svg width="17" height="22" viewBox="0 0 17 22" fill="none" xmlns="http://www.w3.org/2000/svg">
<g clip-path="url(#clip0_225_38127)">
<path d="M3.34988 20.58H13.5299C14.8278 20.58 15.8799 19.5279 15.8799 18.23L15.8799 11.97C15.8799 10.6721 14.8278 9.61999 13.5299 9.61999L3.34988 9.61999C2.05201 9.61999 0.999883 10.6721 0.999883 11.97L0.999883 18.23C0.999883 19.5279 2.05201 20.58 3.34988 20.58Z" stroke="#0078BD" stroke-width="2" stroke-linecap="round" stroke-linejoin="round"/>
<path d="M13.5301 9.61V6.09C13.5301 3.28 11.2501 1 8.4401 1C5.6301 1 3.3501 3.28 3.3501 6.09V6.48V9.61" stroke="#0078BD" stroke-width="2" stroke-linecap="round" stroke-linejoin="round"/>
<path d="M8.44002 15.87C9.08619 15.87 9.61002 15.3462 9.61002 14.7C9.61002 14.0538 9.08619 13.53 8.44002 13.53C7.79385 13.53 7.27002 14.0538 7.27002 14.7C7.27002 15.3462 7.79385 15.87 8.44002 15.87Z" stroke="#0078BD" stroke-width="2" stroke-linecap="round" stroke-linejoin="round"/>
<path d="M8.43994 17.45V15.88" stroke="#0078BD" stroke-width="2" stroke-linecap="round" stroke-linejoin="round"/>
</g>
<defs>
<clipPath id="clip0_225_38127">
<rect width="16.88" height="21.58" fill="white"/>
</clipPath>
</defs>
</svg>
