<?xml version="1.0" encoding="UTF-8"?>
<svg width="105px" height="105px" viewBox="0 0 105 105" version="1.1" xmlns="http://www.w3.org/2000/svg" xmlns:xlink="http://www.w3.org/1999/xlink">
    <!-- Generator: Sketch 52.6 (67491) - http://www.bohemiancoding.com/sketch -->
    <title>icons / agency profiles</title>
    <desc>Created with Sketch.</desc>
    <g id="Private-Landlords-Listing" stroke="none" stroke-width="1" fill="none" fill-rule="evenodd" stroke-linecap="round">
        <g id="PLL---Slide-02" transform="translate(-466.000000, -339.000000)" stroke-width="2">
            <g id="1" transform="translate(407.000000, 299.000000)">
                <g id="icons-/-agency-profiles" transform="translate(59.000000, 40.000000)">
                    <g id="icons-/-agency-dash-" transform="translate(0.831020, 0.831020)">
                        <path d="M102.498776,51.4987755 C102.498776,79.6683208 79.6638266,102.498776 51.4987755,102.498776 C23.3292302,102.498776 0.49877551,79.6683208 0.49877551,51.4987755 C0.49877551,23.3292302 23.3292302,0.49877551 51.4987755,0.49877551 C79.6638266,0.49877551 102.498776,23.3292302 102.498776,51.4987755 L102.498776,51.4987755 Z" id="Stroke-2539" stroke="#828D99"></path>
                        <path d="M76.1053061,84.5277967 C71.5515223,82.3631776 67.1863568,80.1042494 62.5427548,78.2450122 L62.5427548,67.0177347 C62.5427548,67.0177347 67.6174843,65.0372429 67.6174843,52.8578922 C71.5560133,52.8578922 73.2805231,41.5363055 67.8016116,41.5363055 C67.8016116,40.3417232 70.1515441,31.0233951 67.8016123,24.2862474 C65.2627237,17.0073692 40.9690072,13.5879657 34.3960288,24.2862472 C30.0972638,31.0450777 33.6437424,39.9016139 33.6437424,41.5363055 C27.9807036,41.5363055 29.7052135,52.8578922 33.6437424,52.8578922 C33.6437424,65.0372429 40.0881997,67.0177347 40.0881997,67.0177347 L40.0881997,78.2450122 C35.4356159,80.1042494 29.7052135,82.3631776 25.1469388,84.5322877" id="Stroke-2541" stroke="#D0021B" stroke-linejoin="round"></path>
                    </g>
                </g>
            </g>
        </g>
    </g>
</svg>