<?xml version="1.0" encoding="utf-8"?>
<!-- Generator: Adobe Illustrator 22.0.1, SVG Export Plug-In . SVG Version: 6.00 Build 0)  -->
<svg version="1.1" id="Layer_1" xmlns="http://www.w3.org/2000/svg" xmlns:xlink="http://www.w3.org/1999/xlink" x="0px" y="0px"
	 width="30px" height="30px" viewBox="0 0 30 30" style="enable-background:new 0 0 30 30;" xml:space="preserve">
<style type="text/css">
	.st0{fill:#566074;}
</style>
<g>
	<path class="st0" d="M15,0c8.3,0,15,6.7,15,15c0,8.3-6.7,15-15,15C6.7,30,0,23.3,0,15C0,6.7,6.7,0,15,0z M15,29c7.7,0,14-6.3,14-14
		S22.7,1,15,1S1,7.3,1,15S7.3,29,15,29z"/>
	<path class="st0" d="M6,10c0.1,0,0.3,0.1,0.4,0.2l8.6,9.6l8.6-9.6c0.2-0.2,0.5-0.2,0.7,0c0.2,0.2,0.2,0.5,0,0.7l-9,10
		c-0.2,0.2-0.6,0.2-0.7,0l-9-10c-0.2-0.2-0.2-0.5,0-0.7C5.8,10,5.9,10,6,10z"/>
</g>
</svg>
