<?xml version="1.0" encoding="utf-8"?>
<!-- Generator: Adobe Illustrator 22.0.1, SVG Export Plug-In . SVG Version: 6.00 Build 0)  -->
<svg version="1.1" id="Layer_1" xmlns="http://www.w3.org/2000/svg" xmlns:xlink="http://www.w3.org/1999/xlink" x="0px" y="0px"
	 width="30px" height="30px" viewBox="0 0 30 30" style="enable-background:new 0 0 30 30;" xml:space="preserve">
<style type="text/css">
	.st0{fill:#566074;}
</style>
<g>
	<path class="st0" d="M15,30C6.7,30,0,23.3,0,15C0,6.7,6.7,0,15,0c8.3,0,15,6.7,15,15C30,23.3,23.3,30,15,30z M15,1
		C7.3,1,1,7.3,1,15s6.3,14,14,14s14-6.3,14-14S22.7,1,15,1z"/>
	<path class="st0" d="M24,20c-0.1,0-0.3-0.1-0.4-0.2L15,10.2l-8.6,9.6c-0.2,0.2-0.5,0.2-0.7,0c-0.2-0.2-0.2-0.5,0-0.7l9-10
		c0.2-0.2,0.6-0.2,0.7,0l9,10c0.2,0.2,0.2,0.5,0,0.7C24.2,20,24.1,20,24,20z"/>
</g>
</svg>
