<?xml version="1.0" encoding="UTF-8"?>
<svg width="110px" height="104px" viewBox="0 0 110 104" version="1.1" xmlns="http://www.w3.org/2000/svg" xmlns:xlink="http://www.w3.org/1999/xlink">
    <!-- Generator: Sketch 52.6 (67491) - http://www.bohemiancoding.com/sketch -->
    <title>icon</title>
    <desc>Created with Sketch.</desc>
    <g id="Private-Landlords-Listing" stroke="none" stroke-width="1" fill="none" fill-rule="evenodd">
        <g id="PLL---Slide-01" transform="translate(-334.000000, -501.000000)">
            <g id="1" transform="translate(120.000000, 349.000000)">
                <g id="icon" transform="translate(215.000000, 153.000000)">
                    <path d="M85.3408989,91.8712241 C85.0958644,91.8712241 84.9084736,92.0586149 84.9084736,92.2889943 L84.9084736,92.7128218 C84.9084736,92.7716379 84.9205885,92.8286954 84.9444276,92.8822356 L85.9273011,95.0937989 C86.0294966,95.3237874 86.0812782,95.5678448 86.0812782,95.8191322 L86.0812782,97.739546 C86.0812782,97.8563966 86.1307149,97.9687529 86.216692,98.0476954 L87.4870023,99.2119023 C87.6290598,99.3422356 87.7482552,99.493477 87.8416575,99.661523 L88.172669,100.257305 C88.2463356,100.389983 88.3862437,100.472443 88.5378759,100.472443 L88.9949218,100.472443 C89.1477264,100.472443 89.2884161,100.389006 89.361692,100.254569 L89.8845885,99.2959253 C89.9310943,99.2107299 89.9852207,99.1286609 90.0452092,99.051477 L92.3949218,96.0493161 C92.4519793,95.976431 92.4834391,95.8847874 92.4834391,95.7917759 L92.4834391,93.0219483 C92.4834391,92.791569 92.2960483,92.6041782 92.065669,92.6041782 L91.5791172,92.6041782 C91.5361287,92.6041782 91.493531,92.6108218 91.4523011,92.6239138 L88.9120713,93.4320977 C88.3831172,93.6003391 87.7943701,93.5092816 87.3410368,93.1896034 L85.5818299,91.9476264 C85.5112897,91.8977989 85.4276575,91.8712241 85.3408989,91.8712241 M88.9949218,101.840259 L88.5378759,101.840259 C87.8897264,101.840259 87.2916,101.488144 86.9770023,100.921477 L86.6456,100.3255 C86.6237149,100.285833 86.5959678,100.250661 86.5627494,100.220374 L85.2924391,99.0559713 C84.9244966,98.7185115 84.7134621,98.2386034 84.7134621,97.739546 L84.7134621,95.8191322 C84.7134621,95.7603161 84.7013471,95.7032586 84.677508,95.649523 L83.6944391,93.4379598 C83.5924391,93.2081667 83.5406575,92.9643046 83.5406575,92.7128218 L83.5406575,92.2889943 C83.5406575,91.3045575 84.3418069,90.503408 85.3262437,90.503408 C85.7113816,90.503408 86.0672092,90.6161552 86.3702782,90.8297299 L88.1298759,92.0719023 C88.2357839,92.1467414 88.3739333,92.1678448 88.4974276,92.1287644 L91.0376575,91.3205805 C91.2133241,91.2645 91.3952437,91.2363621 91.5791172,91.2363621 L92.065669,91.2363621 C93.0501057,91.2363621 93.8512552,92.0373161 93.8512552,93.0219483 L93.8512552,95.7917759 C93.8512552,96.1888333 93.7164276,96.5796379 93.4719793,96.8920862 L91.1230483,99.8936609 C91.1091747,99.9116379 91.0958874,99.9313736 91.0851402,99.9515 L90.5624391,100.909557 C90.2492092,101.483454 89.6487379,101.840259 88.9949218,101.840259" id="Fill-4" stroke="#697684" stroke-width="0.5" fill="#697684"></path>
                    <path d="M83.2979678,82.3350448 C83.6512552,82.3350448 83.9947724,82.4362632 84.2915885,82.6275621 L87.5882207,84.7545161 C87.7492322,84.8582747 87.9667149,84.8504586 88.1191287,84.7357575 L88.5867264,84.3852057 C88.6037264,84.3725046 88.6201402,84.3582402 88.6353816,84.3429989 L91.5292897,81.4494816 C91.8118414,81.1665391 92.1862322,80.9814931 92.5832897,80.9287345 L95.8283356,80.4959184 C96.0168989,80.4709069 96.169508,80.3356885 96.2167954,80.1514241 L97.1807149,76.417677 C97.1969333,76.3535851 97.217646,76.2883207 97.2420713,76.2244241 L101.147968,65.9532977 C101.179232,65.8708379 101.217336,65.7891598 101.26091,65.7111943 L104.657784,59.6248034 C104.679474,59.5859184 104.695497,59.5444931 104.705267,59.5015046 L106.118611,53.2822402 C106.135611,53.2079874 106.157301,53.1341253 106.18329,53.0622172 L107.194887,50.2806655 C107.230646,50.1823782 107.232014,50.0737345 107.198991,49.9744701 L105.849738,45.9245621 L104.890313,42.4975966 C104.872336,42.4337 104.841657,42.3754701 104.799255,42.3248609 L99.9480023,36.5300103 C99.6722897,36.2007575 99.5204621,35.7829874 99.5204621,35.3536885 L99.5204621,34.3768724 C99.5204621,34.2451713 99.4641862,34.1191368 99.3664851,34.0312057 L98.6085195,33.3490563 C98.5229333,33.2720678 98.412531,33.2296655 98.2976345,33.2296655 L98.1106345,33.2296655 C97.4300483,33.2296655 96.8094506,32.8560563 96.4909448,32.254608 L94.2885655,28.0948839 C94.2582782,28.0374356 94.2170483,27.9878034 94.1658529,27.9475506 L88.3588874,23.3559874 C88.0433126,23.1064586 87.8154736,22.7537575 87.717577,22.3629529 L86.6977724,18.2833437 C86.6821402,18.2212057 86.6545885,18.1635621 86.6153126,18.1125621 L85.4638069,16.6157805 C85.287554,16.3865736 85.1667954,16.1153552 85.1144276,15.8318264 L84.5333011,12.6950333 C84.5073126,12.5537575 84.4191862,12.4345621 84.2919793,12.3679299 L82.1742092,11.258631 C81.7017264,11.0110563 81.3611402,10.5710103 81.2399908,10.051631 L80.359508,6.27802184 C80.3524736,6.24792989 80.342508,6.21881494 80.3298069,6.19087241 L78.3382667,1.83476897 C78.2628414,1.66984943 78.0971402,1.56335517 77.9156115,1.56335517 C77.6402897,1.56335517 77.4317954,1.77184943 77.4317954,2.02821724 L77.4317954,5.03584943 C77.4317954,5.1355046 77.4233931,5.23652759 77.4069793,5.33618276 L76.5132092,10.6425276 L74.6557149,17.5005621 C74.6209333,17.6303092 74.5707149,17.7581023 74.5068184,17.8788609 L73.7807034,19.2499989 C73.4623931,19.8516425 72.8414046,20.2252517 72.1602322,20.2254471 C71.8681057,20.2254471 71.5759793,20.1539299 71.3157034,20.0185161 L68.6623356,18.6385851 L63.7012667,16.2294701 C63.5388874,16.1505276 63.3894046,16.0483322 63.2569218,15.9258149 L60.0867149,12.9904816 C59.4639678,12.413654 59.3178069,11.4935046 59.7314736,10.7523437 L62.451669,5.87881494 C62.5397954,5.72112529 62.5278759,5.52494138 62.421577,5.37858506 L62.0622322,4.88460805 C61.9672667,4.75388391 61.8086,4.68080345 61.6464161,4.69487241 L57.4329563,5.05597586 C57.1457149,5.08098736 56.8616,5.03780345 56.5960483,4.9317 L51.9579793,3.07635517 C51.9028759,3.05427471 51.844646,3.04313678 51.7852437,3.04313678 L51.7561287,3.04411379 L46.0544851,3.40052759 C45.8102322,3.41576897 45.6187379,3.61957356 45.6187379,3.86441264 L45.6187379,5.53725172 C45.6187379,5.72776897 45.5892322,5.91652759 45.5308069,6.09805632 L44.3236115,9.85388391 C44.2630368,10.0418609 44.1733471,10.2179184 44.0564966,10.3771713 L42.8737264,11.9900218 C42.5497494,12.431631 42.0503011,12.7034356 41.5035655,12.735677 L40.3067264,12.8060218 C39.5659563,12.8492057 38.8884966,12.4531253 38.5600253,11.7961828 L38.1088414,10.8938149 C38.0480713,10.7722747 37.9374736,10.6835621 37.8057724,10.6507345 L35.3884506,10.0463552 C35.240531,10.0094241 35.0803011,10.0490908 34.9667724,10.1499184 L31.6271517,13.1184701 C31.5827954,13.1579414 31.5468414,13.2048379 31.5202667,13.2579874 L30.899669,14.4991828 C30.7326,14.8333207 30.4711517,15.1051253 30.1436575,15.2852862 L25.1884506,18.0107575 C25.0399448,18.0924356 24.9475195,18.2485621 24.9475195,18.4181713 L24.9475195,21.1901483 C24.9475195,21.5661023 24.8339908,21.9279874 24.6192437,22.236723 L22.7027379,24.9920908 C22.4731402,25.3221253 22.1354851,25.570677 21.7521057,25.6924126 L16.1782552,27.4598264 C16.160669,27.4652977 16.1440598,27.471746 16.1278414,27.4791713 L11.844623,29.4134586 C11.6322207,29.5092057 11.4067264,29.5631368 11.1740023,29.5738839 L8.43328966,29.6985506 C8.36314023,29.701677 8.29357701,29.7210218 8.23182989,29.7548264 L2.50537011,32.8783322 C2.37894483,32.9473092 2.29296782,33.0680678 2.26932414,33.2099299 L1.37438161,38.5797805 C1.36382989,38.6430908 1.36637011,38.7069874 1.3820023,38.7693207 L2.26150805,42.2875391 C2.35393333,42.657631 2.32989885,43.0412057 2.19174943,43.3964471 L1.50354253,45.1658149 C1.45137011,45.2998609 1.46504828,45.4532517 1.53969195,45.5759644 L3.19162299,48.2899069 C3.3033931,48.4731943 3.38135862,48.6730908 3.42337011,48.8839299 L3.92887586,51.4108724 C3.94001379,51.4661713 3.96072644,51.5187345 3.99062299,51.5668034 L4.76089885,52.7988149 C5.21110575,53.5194586 5.44930115,54.3495276 5.44930115,55.1991368 L5.44930115,57.6369759 C5.44930115,57.7086885 5.46630115,57.7805966 5.49834713,57.8448839 L7.38143908,61.6110678 C7.66985287,62.1877 7.76618621,62.8286195 7.66008276,63.464654 L7.24407126,65.9605276 C7.19717471,66.2422977 7.08325517,66.5127345 6.91423218,66.7431138 L5.97376092,68.0257345 C5.85222069,68.1914356 5.85476092,68.4210333 5.9802092,68.5838034 L6.80891034,69.6614471 C6.83861149,69.7001368 6.87437011,69.7339414 6.91501379,69.7614931 L9.25632414,71.363792 C9.33389885,71.416746 9.42456552,71.4448839 9.51894483,71.4448839 L12.9502092,71.4448839 C13.034623,71.4448839 13.1170828,71.4218264 13.1891862,71.3786425 L16.4803471,69.4041023 C16.5073126,69.3878839 16.5331057,69.3687345 16.556554,69.3468494 L18.0615425,67.9577345 C18.3847379,67.6593552 18.8044621,67.4874011 19.243531,67.4725506 L23.2373586,67.3400678 L27.0131172,67.3400678 C27.1371977,67.3400678 27.2538529,67.291608 27.3417839,67.203677 L29.9449333,64.600723 C30.0920713,64.4531943 30.2624621,64.3328264 30.4506345,64.2431368 L33.4690138,62.7995046 C33.6544506,62.710792 33.8523931,62.6541253 34.0567839,62.6312632 L36.9368184,62.3113897 C37.4571747,62.2535506 37.9656115,62.1195046 38.4474736,61.9131598 L41.0056805,60.8167575 C41.5504621,60.5832517 42.1253356,60.4316195 42.7140828,60.3663552 L46.879669,59.9034471 C47.2183011,59.8659299 47.564554,59.924746 47.8699678,60.0703207 L50.4764391,61.3113207 C50.5239218,61.3339874 50.5747264,61.3484471 50.6272897,61.3541138 L54.0507379,61.7206885 C54.5439333,61.7736425 55.0005885,62.0286425 55.3040483,62.4202287 L59.3631402,67.6579874 C59.5575655,67.9084931 59.6839908,68.2072632 59.7287379,68.5216655 L59.8975655,69.702677 C59.9182782,69.8470793 60.0069908,69.9748724 60.1349793,70.0448264 L62.5974391,71.3882172 C62.6656345,71.4251483 62.7428184,71.4448839 62.8201977,71.4448839 L64.7118874,71.4448839 C65.0331287,71.4448839 65.3498759,71.5296885 65.6279333,71.6903092 L68.9890483,73.6294816 C69.1834736,73.7412517 69.3540598,73.8868264 69.4957264,74.0611253 L71.092554,76.0264816 C71.275646,76.2515851 71.4038299,76.520654 71.463623,76.804769 L71.9222322,78.9840908 C71.9409908,79.0724126 71.9845655,79.1529184 72.0482667,79.2164241 L74.0929563,81.2613092 C74.147669,81.3160218 74.215669,81.3564701 74.289531,81.3783552 L77.8714506,82.4395851 C77.9732552,82.469677 78.0740828,82.5095391 78.1704161,82.557608 L80.1795425,83.5619759 C80.3135885,83.6291943 80.4800713,83.6262632 80.6117724,83.5535736 L82.4147494,82.5619069 C82.6846,82.4134011 82.9902092,82.3350448 83.2979678,82.3350448 M87.8400943,86.1967805 C87.4868069,86.1965851 87.1434851,86.0953667 86.846669,85.9040678 L83.5500368,83.7771138 C83.4091517,83.6860563 83.2211747,83.6790218 83.0740368,83.7605046 L81.270669,84.7521713 C80.7524621,85.0374586 80.0961057,85.0499644 79.5675425,84.7853897 L77.5586115,83.7810218 C77.5339908,83.7687115 77.5085885,83.7585506 77.4831862,83.7511253 L73.9010713,82.6897 C73.6093356,82.6033322 73.3412437,82.4438839 73.1257149,82.2283552 L71.0812207,80.1838609 C70.8295425,79.9325736 70.6575885,79.6150448 70.5839218,79.2660563 L70.1251172,77.0863437 C70.1100713,77.0142402 70.0774391,76.9462402 70.0309333,76.8891828 L68.4341057,74.923631 C68.3981517,74.8794701 68.3549678,74.8427345 68.3059218,74.8144011 L64.9440253,72.8748379 C64.8734851,72.8339989 64.7933701,72.8127 64.7118874,72.8127 L62.8201977,72.8127 C62.5145885,72.8127 62.2111287,72.7353207 61.942646,72.5889644 L59.4801862,71.2455736 C58.9748759,70.9702517 58.6249103,70.465723 58.543623,69.8959299 L58.3746,68.714723 C58.3634621,68.6349989 58.3312207,68.5593782 58.2821747,68.4960678 L54.2228874,63.2581138 C54.1460943,63.1588494 54.0300253,63.0941713 53.9047724,63.0806885 L50.4811287,62.7141138 C50.2743931,62.6918379 50.0750828,62.6353667 49.8882782,62.5464586 L47.2818069,61.3052632 C47.2044276,61.2683322 47.1168874,61.2532862 47.0309103,61.2628609 L42.8649333,61.725769 C42.4098414,61.7761828 41.965692,61.8934241 41.5446,62.0739759 L38.9861977,63.1703782 C38.380646,63.4298724 37.7418759,63.5981138 37.0878644,63.6708034 L34.2082207,63.990677 C34.1568299,63.9963437 34.1064161,64.0109989 34.0591287,64.0334701 L31.0403586,65.4772977 C30.9922897,65.5001598 30.9494966,65.5304471 30.9123701,65.5675736 L28.3090253,68.1709184 C27.9627724,68.5171713 27.5024046,68.7078839 27.0131172,68.7078839 L23.2488874,68.7078839 L19.2890598,68.8397805 C19.1776805,68.8432977 19.0711862,68.8872632 18.9891172,68.9628839 L17.4843241,70.3519989 C17.3920943,70.4369989 17.2912667,70.5126195 17.1841862,70.5769069 L13.8932207,72.5514471 C13.6085195,72.7224241 13.2825885,72.8127 12.9502092,72.8127 L9.51894483,72.8127 C9.14787586,72.8127 8.78989885,72.7019069 8.48389885,72.492631 L6.1423931,70.8905276 C5.98314023,70.7812977 5.84264598,70.6484241 5.72481839,70.4956195 L4.89592184,69.4179759 C4.40174943,68.7754931 4.3913931,67.8705851 4.87071494,67.216769 L5.81118621,65.9341483 C5.85417471,65.875723 5.88309425,65.8071368 5.89481839,65.7358149 L6.31102529,63.239746 C6.36905977,62.8907575 6.31630115,62.5392287 6.15802529,62.2228724 L4.27493333,58.4566885 C4.14831264,58.2032517 4.08148506,57.9199184 4.08148506,57.6369759 L4.08148506,55.1991368 C4.08148506,54.6060908 3.9153931,54.026723 3.6009908,53.5237575 L2.83051954,52.2913552 C2.71269195,52.1024011 2.63101379,51.8966425 2.58763448,51.6791598 L2.08193333,49.1518264 C2.07138161,49.0980908 2.05164598,49.047677 2.02350805,49.0015621 L0.371381609,46.2872287 C0.0765195402,45.8030218 0.0231747126,45.1986425 0.228737931,44.6700793 L0.916749425,42.9007115 C0.951921839,42.810631 0.95797931,42.7133207 0.934531034,42.6193322 L0.0548298851,39.1009184 C-0.00652643678,38.8549069 -0.0162965517,38.6042057 0.0251287356,38.3548724 L0.920071264,32.9852172 C1.01327816,32.4257805 1.35230115,31.9491943 1.85038161,31.6775851 L7.57684138,28.5538839 C7.81992184,28.4212057 8.09465747,28.344608 8.37134713,28.3319069 L11.1114736,28.2074356 C11.1704851,28.2047 11.2277379,28.1910218 11.2818644,28.166792 L15.5643011,26.2327 C15.6295655,26.2031943 15.6967839,26.1774011 15.7653701,26.1557115 L21.3388299,24.3884931 C21.4359448,24.3576195 21.5217264,24.2947 21.5797609,24.2110678 L23.4964621,21.4557 C23.5509793,21.3773437 23.5797034,21.2855046 23.5797034,21.1901483 L23.5797034,18.4181713 C23.5797034,17.7497 23.9435425,17.1343782 24.5291632,16.8121598 L29.4845655,14.0866885 C29.5674161,14.0411598 29.6338529,13.9721828 29.6762552,13.8873782 L30.2968529,12.6461828 C30.4013931,12.4369069 30.5434506,12.2516655 30.7183356,12.0961253 L34.0579563,9.12757356 C34.5054276,8.72973448 35.1379448,8.57380345 35.7200483,8.71937816 L38.1373701,9.32375747 C38.6571402,9.4537 39.092692,9.80288391 39.3322552,10.2820103 L39.7834391,11.1843782 C39.862577,11.3430448 40.0218299,11.4413322 40.1988644,11.4413322 L40.2264161,11.440746 L41.4230598,11.3702057 C41.5617954,11.3621943 41.6886115,11.2932172 41.7708759,11.1808609 L42.953646,9.56801034 C42.9833471,9.52775747 43.0060138,9.48301034 43.0212552,9.43552759 L44.228646,5.6795046 C44.2433011,5.63338966 44.2509218,5.58551609 44.2509218,5.53725172 L44.2509218,3.86441264 C44.2509218,2.89912529 45.0057609,2.09563103 45.9690943,2.03525172 L51.6709333,1.67903333 C51.9437149,1.66144713 52.2129793,1.70521724 52.4658299,1.80643563 L57.1037034,3.66178046 C57.1711172,3.68835517 57.2422437,3.6991023 57.3163011,3.69324023 L61.5297609,3.33194138 C62.1702897,3.27722874 62.7938184,3.56525172 63.1682092,4.08013678 L63.5277494,4.57411379 C63.946692,5.15035517 63.9928069,5.92395287 63.6459678,6.54552759 L60.9259678,11.4190563 C60.8210368,11.6070333 60.8579678,11.8403437 61.0160483,11.9867 L64.1860598,14.9220333 C64.2194736,14.9531023 64.2577724,14.9788954 64.2990023,14.9990218 L69.2764851,17.4167345 L71.9464621,18.8048724 C72.1700023,18.9209414 72.4562667,18.8285161 72.5717494,18.6100563 L73.2978644,17.2389184 C73.3138874,17.208631 73.3265885,17.1765851 73.3353816,17.1441483 L75.205577,10.2233897 L76.057531,5.11205632 C76.0618299,5.08704483 76.0639793,5.06105632 76.0639793,5.03584943 L76.0639793,2.02821724 C76.0639793,1.01759655 76.8860368,0.19553908 77.8964621,0.19553908 C78.6309793,0.19553908 79.2851862,0.615849425 79.5823931,1.26634368 L81.5735425,5.62166552 C81.6241517,5.73206782 81.6638184,5.84852759 81.6913701,5.96733218 L82.5718529,9.74074598 C82.602531,9.87264253 82.6890943,9.98402184 82.8088759,10.0469414 L84.926646,11.1562402 C85.4284391,11.4192517 85.7754736,11.8891943 85.8782552,12.4460908 L86.4593816,15.5830793 C86.472669,15.6549874 86.5031517,15.723769 86.5480943,15.7819989 L87.6994046,17.2787805 C87.8539678,17.4794586 87.9631977,17.7057345 88.0249448,17.9513552 L89.044554,22.0311598 C89.0693701,22.1302287 89.1272092,22.219723 89.2071287,22.2828379 L95.0146805,26.874792 C95.2153586,27.033654 95.3777379,27.2286655 95.4975195,27.454746 L97.699508,31.6144701 C97.7804046,31.7670793 97.9378989,31.8618494 98.1106345,31.8618494 L98.2976345,31.8618494 C98.7509678,31.8618494 99.1863241,32.0289184 99.5233931,32.3321828 L100.281554,33.0145276 C100.667278,33.3615621 100.888278,33.8580793 100.888278,34.3768724 L100.888278,35.3536885 C100.888278,35.4625276 100.926772,35.5684356 100.996726,35.6520678 L105.847589,41.4465276 C106.015244,41.6462287 106.136393,41.8758264 106.207324,42.1280908 L107.162451,45.5394241 L108.496657,49.5422402 C108.626795,49.9330448 108.620933,50.3611713 108.480244,50.7480678 L107.468841,53.5294241 C107.462393,53.5475966 107.456922,53.5663552 107.452428,53.5857 L106.039083,59.8043782 C106.000393,59.974769 105.937278,60.1389069 105.852083,60.2917115 L102.455209,66.3781023 C102.443876,66.3978379 102.434497,66.4181598 102.42668,66.4390678 L98.5205885,76.7103897 C98.5149218,76.725631 98.5098414,76.7412632 98.5055425,76.7572862 L97.5414276,80.4931828 C97.3542322,81.2192977 96.7527839,81.752746 96.0092782,81.8518149 L92.763646,82.284631 C92.6630138,82.2981138 92.5680483,82.3448149 92.4967264,82.4163322 L89.6037954,85.3090678 C89.5440023,85.3690563 89.4775655,85.4268954 89.4076115,85.4794586 L88.9398184,85.8302057 C88.6201402,86.069769 88.2398874,86.1967805 87.8400943,86.1967805" id="Fill-1" stroke="#697684" stroke-width="0.5" fill="#697684"></path>
                    <g id="icons-/-property---pebble" transform="translate(41.851255, 23.154958)" stroke="#E4002B" stroke-linecap="round" stroke-linejoin="round" stroke-width="1.5">
                        <g id="Imported-Layers">
                            <path d="M10.1487448,2.96604202 C10.1487448,2.35004202 9.64374483,1.84504202 9.02774483,1.84504202 L5.26974483,1.84504202 C4.65374483,1.84504202 4.14874483,2.35004202 4.14874483,2.96604202 L4.14874483,10.845042 L0.148744828,14.845042 L3.14874483,14.845042 L3.14874483,27.845042 C3.14874483,28.945042 4.04874483,29.845042 5.14874483,29.845042 L23.1487448,29.845042 C24.2487448,29.845042 25.1487448,28.945042 25.1487448,27.845042 L25.1487448,14.845042 L28.1487448,14.845042 L14.1487448,0.845042017 L10.1487448,4.84504202 L10.1487448,3.84504202 L10.1487448,2.96604202 L10.1487448,2.96604202 Z M10.1487448,29.845042 L10.1487448,18.845042 C10.1487448,18.295042 10.5487448,17.845042 11.0377448,17.845042 L17.2597448,17.845042 C17.7487448,17.845042 18.1487448,18.295042 18.1487448,18.845042 L18.1487448,29.845042"></path>
                        </g>
                    </g>
                </g>
            </g>
        </g>
    </g>
</svg>