<?xml version="1.0" encoding="utf-8"?>
<!-- Generator: Adobe Illustrator 21.0.2, SVG Export Plug-In . SVG Version: 6.00 Build 0)  -->
<svg version="1.1" id="Layer_1" xmlns="http://www.w3.org/2000/svg" xmlns:xlink="http://www.w3.org/1999/xlink" x="0px" y="0px"
	 viewBox="0 0 288 96" style="enable-background:new 0 0 288 96;" xml:space="preserve">
<style type="text/css">
	.st0{fill:#3B4145;}
	.st1{fill:none;stroke:#FFFFFF;stroke-width:2;stroke-linecap:round;stroke-linejoin:round;stroke-miterlimit:10;}
	.st2{fill:#FFFFFF;}
</style>
<g>
	<circle class="st0" cx="12" cy="12" r="12"/>
	<polyline class="st1" points="5.9,10 12.1,16.3 18.1,10 	"/>
</g>
<g>
	<circle class="st0" cx="60" cy="12" r="12"/>
	<polyline class="st1" points="66.1,14 59.9,7.7 53.9,14 	"/>
</g>
<g>
	<circle class="st0" cx="108" cy="12" r="12"/>
	<polyline class="st1" points="103,18.1 109.3,11.9 103,5.9 	"/>
	<polyline class="st1" points="109,18.1 115.3,11.9 109,5.9 	"/>
</g>
<g>
	<circle class="st0" cx="156" cy="12" r="12"/>
	<polyline class="st1" points="161,5.9 154.7,12.1 161,18.1 	"/>
	<polyline class="st1" points="155,5.9 148.7,12.1 155,18.1 	"/>
</g>
<g>
	<circle class="st0" cx="252" cy="12" r="12"/>
	<line class="st1" x1="256.2" y1="7.8" x2="247.8" y2="16.2"/>
	<line class="st1" x1="247.8" y1="7.8" x2="256.2" y2="16.2"/>
</g>
<g>
	<circle class="st0" cx="204" cy="12" r="12"/>
	<line class="st1" x1="204" y1="6" x2="204" y2="18"/>
	<line class="st1" x1="198" y1="12" x2="210" y2="12"/>
</g>
<path class="st2" d="M12,48C5.4,48,0,53.4,0,60s5.4,12,12,12s12-5.4,12-12S18.6,48,12,48z M18.8,58.7l-6,6.3
	c-0.2,0.2-0.4,0.3-0.7,0.3l0,0c-0.3,0-0.5-0.1-0.7-0.3l-6.2-6.3c-0.4-0.4-0.4-1,0-1.4s1-0.4,1.4,0l5.5,5.6l5.3-5.6
	c0.4-0.4,1-0.4,1.4,0S19.2,58.3,18.8,58.7z"/>
<path class="st2" d="M60,48c-6.6,0-12,5.4-12,12s5.4,12,12,12s12-5.4,12-12S66.6,48,60,48z M66.8,62.7c-0.4,0.4-1,0.4-1.4,0
	l-5.5-5.6l-5.3,5.6c-0.2,0.2-0.5,0.3-0.7,0.3s-0.5-0.1-0.7-0.3c-0.4-0.4-0.4-1,0-1.4l6-6.3c0.2-0.2,0.4-0.3,0.7-0.3
	c0.2,0,0.5,0.1,0.7,0.3l6.2,6.3C67.2,61.7,67.2,62.3,66.8,62.7z"/>
<path class="st2" d="M108,48c-6.6,0-12,5.4-12,12s5.4,12,12,12s12-5.4,12-12S114.6,48,108,48z M103.7,66.8c-0.2,0.2-0.4,0.3-0.7,0.3
	c-0.3,0-0.5-0.1-0.7-0.3c-0.4-0.4-0.4-1,0-1.4l5.6-5.5l-5.6-5.3c-0.4-0.4-0.4-1,0-1.4s1-0.4,1.4,0l6.3,6c0.2,0.2,0.3,0.4,0.3,0.7
	s-0.1,0.5-0.3,0.7L103.7,66.8z M116,60.6l-6.3,6.2c-0.2,0.2-0.4,0.3-0.7,0.3c-0.3,0-0.5-0.1-0.7-0.3c-0.4-0.4-0.4-1,0-1.4l5.6-5.5
	l-5.6-5.3c-0.4-0.4-0.4-1,0-1.4s1-0.4,1.4,0l6.3,6c0.2,0.2,0.3,0.4,0.3,0.7C116.3,60.2,116.2,60.4,116,60.6z"/>
<path class="st2" d="M156,48c-6.6,0-12,5.4-12,12s5.4,12,12,12s12-5.4,12-12S162.6,48,156,48z M155.7,66.8c-0.2,0.2-0.5,0.3-0.7,0.3
	s-0.5-0.1-0.7-0.3l-6.3-6c-0.2-0.2-0.3-0.4-0.3-0.7s0.1-0.5,0.3-0.7l6.3-6.2c0.4-0.4,1-0.4,1.4,0s0.4,1,0,1.4l-5.6,5.5l5.6,5.3
	C156.1,65.8,156.1,66.4,155.7,66.8z M161.7,65.4c0.4,0.4,0.4,1,0,1.4c-0.2,0.2-0.5,0.3-0.7,0.3s-0.5-0.1-0.7-0.3l-6.3-6
	c-0.2-0.2-0.3-0.4-0.3-0.7s0.1-0.5,0.3-0.7l6.3-6.2c0.4-0.4,1-0.4,1.4,0s0.4,1,0,1.4l-5.6,5.5L161.7,65.4z"/>
<path class="st2" d="M252,48c-6.6,0-12,5.4-12,12s5.4,12,12,12s12-5.4,12-12S258.6,48,252,48z M256.9,63.5c0.4,0.4,0.4,1,0,1.4
	c-0.2,0.2-0.5,0.3-0.7,0.3s-0.5-0.1-0.7-0.3l-3.5-3.5l-3.5,3.5c-0.2,0.2-0.5,0.3-0.7,0.3s-0.5-0.1-0.7-0.3c-0.4-0.4-0.4-1,0-1.4
	l3.5-3.5l-3.5-3.5c-0.4-0.4-0.4-1,0-1.4s1-0.4,1.4,0l3.5,3.5l3.5-3.5c0.4-0.4,1-0.4,1.4,0s0.4,1,0,1.4l-3.5,3.5L256.9,63.5z"/>
<path class="st2" d="M204,48c-6.6,0-12,5.4-12,12s5.4,12,12,12s12-5.4,12-12S210.6,48,204,48z M210,61h-5v5c0,0.6-0.4,1-1,1
	s-1-0.4-1-1v-5h-5c-0.6,0-1-0.4-1-1s0.4-1,1-1h5v-5c0-0.6,0.4-1,1-1s1,0.4,1,1v5h5c0.6,0,1,0.4,1,1S210.6,61,210,61z"/>
</svg>
