<?xml version="1.0" encoding="UTF-8"?>
<svg width="103px" height="98px" viewBox="0 0 103 98" version="1.1" xmlns="http://www.w3.org/2000/svg" xmlns:xlink="http://www.w3.org/1999/xlink">
    <!-- Generator: Sketch 52.6 (67491) - http://www.bohemiancoding.com/sketch -->
    <title>icons / landing page</title>
    <desc>Created with Sketch.</desc>
    <g id="Private-Landlords-Listing" stroke="none" stroke-width="1" fill="none" fill-rule="evenodd">
        <g id="PLL---Slide-01" transform="translate(-1480.000000, -504.000000)" stroke-width="2.35384615">
            <g id="3" transform="translate(1260.000000, 349.000000)">
                <g id="icons-/-landing-page" transform="translate(221.000000, 156.000000)">
                    <g id="Group-2" transform="translate(0.784322, 0.231907)">
                        <path d="M18.6293047,94.8138072 L80.9221618,94.8138072" id="Stroke-6030" stroke="#697684" stroke-linecap="round" stroke-linejoin="round"></path>
                        <path d="M0.269304665,68.5852357 L99.9378761,68.5852357" id="Stroke-6032" stroke="#697684"></path>
                        <path d="M93.0641815,86.9452357 L7.14299925,86.9452357 C3.36246723,86.9452357 0.269304665,83.9491258 0.269304665,80.2872138 L0.269304665,7.048972 C0.269304665,3.38705991 3.36246723,0.390950023 7.14299925,0.390950023 L93.0641815,0.390950023 C96.8447135,0.390950023 99.9378761,3.38705991 99.9378761,7.048972 L99.9378761,80.2872138 C99.9378761,83.9491258 96.8447135,86.9452357 93.0641815,86.9452357 Z" id="Stroke-6033" stroke="#697684" stroke-linecap="round" stroke-linejoin="round"></path>
                        <path d="M93.0641815,86.9452357 L7.14299925,86.9452357 C3.36246723,86.9452357 0.269304665,83.9491258 0.269304665,80.2872138 L0.269304665,7.048972 C0.269304665,3.38705991 3.36246723,0.390950023 7.14299925,0.390950023 L93.0641815,0.390950023 C96.8447135,0.390950023 99.9378761,3.38705991 99.9378761,7.048972 L99.9378761,80.2872138 C99.9378761,83.9491258 96.8447135,86.9452357 93.0641815,86.9452357 Z" id="Stroke-6033-Copy" stroke="#697684" stroke-linecap="round" stroke-linejoin="round"></path>
                        <path d="M50.1035904,77.7652357 C50.1035904,78.4891443 49.5160704,79.0766643 48.7921618,79.0766643 C48.0682532,79.0766643 47.4807332,78.4891443 47.4807332,77.7652357 C47.4807332,77.0413272 48.0682532,76.4538072 48.7921618,76.4538072 C49.5160704,76.4538072 50.1035904,77.0413272 50.1035904,77.7652357 L50.1035904,77.7652357 Z" id="Stroke-6034" stroke="#697684"></path>
                        <path d="M76.4829007,56.6254555 L23.72428,56.6254555 C21.4029007,56.6254555 19.5035904,55.1588283 19.5035904,53.3662839 L19.5035904,17.5153963 C19.5035904,15.722852 21.4029007,14.2562247 23.72428,14.2562247 L76.4829007,14.2562247 C78.80428,14.2562247 80.7035904,15.722852 80.7035904,17.5153963 L80.7035904,53.3662839 C80.7035904,55.1588283 78.80428,56.6254555 76.4829007,56.6254555 Z" id="Stroke-6033-Copy-2" stroke="#E4002B" stroke-linecap="round" stroke-linejoin="round"></path>
                    </g>
                </g>
            </g>
        </g>
    </g>
</svg>