<svg width="85" height="85" viewBox="0 0 85 85" fill="none" xmlns="http://www.w3.org/2000/svg">
<path fill-rule="evenodd" clip-rule="evenodd" d="M42.2739 84.9987C18.797 84.8787 -0.137725 65.7408 0.00075476 42.2639C0.12077 18.8701 19.1294 -0.00922858 42.4862 3.38436e-06H42.7263C66.2032 0.120019 85.1195 19.2486 84.9994 42.7163C84.8794 66.1932 65.7508 85.1372 42.2739 84.9987ZM23.3666 63.0077C23.3666 65.3619 25.2777 67.2729 27.6318 67.2729H57.3587C59.7129 67.2729 61.6239 65.3619 61.6239 63.0077V45.5316H65.169C66.8954 45.5316 68.4371 44.5069 69.1018 42.9097C69.7665 41.3126 69.4064 39.4939 68.1878 38.2661L45.5049 15.4723C44.7109 14.6784 43.6123 14.2168 42.486 14.2168C41.3597 14.2168 40.2611 14.6784 39.4672 15.4723L16.7843 38.2661C15.5656 39.4939 15.2056 41.3126 15.8703 42.9097C16.535 44.4976 18.0767 45.5316 19.8031 45.5316H23.3666V63.0077ZM42.0891 18.0758C42.1999 17.965 42.3383 17.9096 42.4953 17.9096C42.6522 17.9096 42.7907 17.965 42.9015 18.0758L65.6029 40.8695C65.7598 41.0357 65.8152 41.2757 65.7229 41.488C65.6306 41.7004 65.4275 41.8388 65.1967 41.8388H59.7867C58.7712 41.8388 57.9403 42.6697 57.9403 43.6852V63.0077C57.9403 63.3216 57.6819 63.5801 57.368 63.5801H27.641C27.3272 63.5801 27.0687 63.3216 27.0687 63.0077V43.6852C27.0687 42.6697 26.2378 41.8388 25.2223 41.8388H19.8123C19.5815 41.8388 19.3784 41.7004 19.2861 41.488C19.1938 41.2757 19.24 41.0357 19.4061 40.8695L42.0891 18.0758Z" fill="white"/>
</svg>
