<svg width="883" height="1031" viewBox="0 0 883 1031" fill="none" xmlns="http://www.w3.org/2000/svg">
<path d="M926.24 1157.33H252.922C232.856 1157.31 213.618 1149.34 199.428 1135.17C185.239 1121.01 177.257 1101.8 177.233 1081.77V666.02H75.6116C60.7062 665.93 46.1547 661.476 33.7607 653.209C21.3668 644.942 11.6754 633.225 5.88758 619.512C0.0828752 605.754 -1.47446 590.579 1.41519 575.932C4.30484 561.284 11.5098 547.832 22.1067 537.3L536.504 22.212C543.514 15.1727 551.848 9.58638 561.028 5.7744C570.208 1.96243 580.053 0 589.995 0C599.938 0 609.782 1.96243 618.962 5.7744C628.142 9.58638 636.477 15.1727 643.487 22.212L1157.27 537.336C1167.82 547.912 1174.98 561.372 1177.87 576.013C1180.75 590.655 1179.22 605.822 1173.47 619.597C1167.72 633.371 1158.01 645.135 1145.57 653.401C1133.13 661.667 1118.51 666.065 1103.56 666.038H1001.96V1081.8C1001.93 1101.84 993.937 1121.04 979.741 1135.2C965.546 1149.35 946.305 1157.31 926.24 1157.33ZM590.009 41.7778C581.038 41.8237 572.447 45.4023 566.104 51.7361L51.7515 566.824C47.0279 571.519 43.8178 577.517 42.5333 584.047C41.2489 590.578 41.9487 597.342 44.5431 603.472C47.1161 609.591 51.4334 614.821 56.9587 618.51C62.4839 622.2 68.9734 624.187 75.6206 624.225H198.165C200.914 624.224 203.636 624.764 206.176 625.814C208.716 626.863 211.024 628.403 212.968 630.343C214.912 632.284 216.454 634.588 217.506 637.124C218.557 639.66 219.098 642.378 219.096 645.123V1081.79C219.111 1090.74 222.681 1099.32 229.024 1105.65C235.367 1111.97 243.965 1115.53 252.931 1115.54H926.248C935.219 1115.54 943.823 1111.98 950.171 1105.65C956.519 1099.32 960.094 1090.74 960.11 1081.79V645.123C960.109 642.378 960.65 639.66 961.701 637.124C962.753 634.588 964.294 632.284 966.238 630.343C968.182 628.403 970.49 626.863 973.03 625.814C975.57 624.764 978.293 624.224 981.042 624.225H1103.59C1110.27 624.258 1116.81 622.305 1122.39 618.617C1127.96 614.928 1132.3 609.669 1134.87 603.509C1137.44 597.348 1138.12 590.564 1136.82 584.017C1135.52 577.471 1132.3 571.458 1127.57 566.743L613.86 51.7181C607.53 45.3991 598.96 41.8272 590.009 41.7778Z" fill="black"/>
</svg>
