<svg width="81" height="28" viewBox="0 0 81 28" fill="none" xmlns="http://www.w3.org/2000/svg">
<g clip-path="url(#clip0_265_8314)">
<path d="M23.847 27.8742H5.22463C2.75432 27.8742 0.664062 25.7746 0.664062 23.2934V5.16091C0.664062 2.67963 2.75432 0.580078 5.22463 0.580078H23.847C26.3173 0.580078 28.4075 2.67963 28.4075 5.16091V23.2934C28.5976 25.7746 26.5073 27.8742 23.847 27.8742Z" fill="#716E75"/>
<path d="M48.1696 27.874H36.5781C34.1078 27.874 32.0176 25.7745 32.0176 23.2932V12.032C32.0176 9.55072 34.1078 7.45117 36.5781 7.45117H48.1696C50.6399 7.45117 52.7302 9.55072 52.7302 12.032V23.4841C52.9202 25.7745 50.8299 27.874 48.1696 27.874Z" fill="#D0D0D0"/>
<path d="M66.033 27.8734H60.5223C58.242 27.8734 56.3418 25.9647 56.3418 23.6743V18.33C56.3418 16.0395 58.242 14.1309 60.5223 14.1309H66.033C68.3133 14.1309 70.2135 16.0395 70.2135 18.33V23.6743C70.2135 25.9647 68.3133 27.8734 66.033 27.8734Z" fill="#D0D0D0"/>
<path d="M78.3828 27.8737H76.2926C74.9624 27.8737 73.8223 26.7285 73.8223 25.5833V23.4838C73.8223 22.1477 74.9624 21.1934 76.2926 21.1934H78.3828C79.713 21.1934 80.8531 22.3386 80.8531 23.4838V25.5833C80.6631 26.7285 79.713 27.8737 78.3828 27.8737Z" fill="#D0D0D0"/>
</g>
<defs>
<clipPath id="clip0_265_8314">
<rect width="80" height="27.2941" fill="white" transform="translate(0.664062 0.580078)"/>
</clipPath>
</defs>
</svg>
