<svg width="80" height="28" viewBox="0 0 80 28" fill="none" xmlns="http://www.w3.org/2000/svg">
<g clip-path="url(#clip0_295_4293)">
<path d="M23.1829 27.2941H4.56057C2.09026 27.2941 0 25.1946 0 22.7133V4.58083C0 2.09955 2.09026 0 4.56057 0H23.1829C25.6532 0 27.7435 2.09955 27.7435 4.58083V22.7133C27.9335 25.1946 25.8432 27.2941 23.1829 27.2941Z" fill="#8154AB"/>
<path d="M47.506 27.294H35.9146C33.4443 27.294 31.354 25.1944 31.354 22.7131V11.4519C31.354 8.97064 33.4443 6.87109 35.9146 6.87109H47.506C49.9763 6.87109 52.0666 8.97064 52.0666 11.4519V22.904C52.2566 25.1944 50.1664 27.294 47.506 27.294Z" fill="#D4BEE9"/>
<path d="M65.368 27.2943H59.8573C57.577 27.2943 55.6768 25.3856 55.6768 23.0952V17.7509C55.6768 15.4604 57.577 13.5518 59.8573 13.5518H65.368C67.6483 13.5518 69.5485 15.4604 69.5485 17.7509V23.0952C69.5485 25.3856 67.6483 27.2943 65.368 27.2943Z" fill="#D4BEE9"/>
<path d="M77.7198 27.2941H75.6295C74.2993 27.2941 73.1592 26.1489 73.1592 25.0037V22.9042C73.1592 21.5681 74.2993 20.6138 75.6295 20.6138H77.7198C79.0499 20.6138 80.1901 21.759 80.1901 22.9042V25.0037C80 26.1489 79.0499 27.2941 77.7198 27.2941Z" fill="#D4BEE9"/>
</g>
<defs>
<clipPath id="clip0_295_4293">
<rect width="80" height="27.2941" fill="white"/>
</clipPath>
</defs>
</svg>
