<svg width="35" height="39" viewBox="0 0 35 39" fill="none" xmlns="http://www.w3.org/2000/svg">
<g clip-path="url(#clip0_295_4400)">
<path d="M32.7895 14.252L17.5 20.7302L2.21053 14.252C2.02632 14.252 1.84211 14.252 1.65789 14.252C0.736842 14.252 0 14.9923 0 15.9178C0 16.6581 0.368421 17.2134 0.921053 17.3985L16.7632 24.2469C16.9474 24.2469 17.1316 24.432 17.3158 24.432C17.5 24.432 17.6842 24.432 17.8684 24.2469L33.7105 17.3985C34.6316 17.2134 35 16.6581 35 15.9178C35 14.9923 34.2632 14.252 33.3421 14.252C33.1579 14.252 32.9737 14.252 32.7895 14.252Z" fill="#D0D0D0" fill-opacity="0.6"/>
<path d="M16.9474 0.185092L0.921053 7.03349C0.368421 7.21858 0 7.77386 0 8.51423C0 9.2546 0.368421 9.80987 0.921053 10.1801L16.7632 17.0285C16.9474 17.0285 17.1316 17.2135 17.3158 17.2135C17.5 17.2135 17.6842 17.2135 17.8684 17.0285L33.7105 10.1801C34.6316 9.80987 35 9.2546 35 8.51423C35 7.77386 34.6316 7.21858 34.0789 6.8484L18.0526 0.185092C17.8684 0 17.6842 0 17.5 0C17.3158 0 17.1316 0 16.9474 0.185092Z" fill="#D0D0D0" fill-opacity="0.6"/>
<path d="M32.7895 21.6558L17.5 28.134L2.21053 21.6558C2.02632 21.6558 1.84211 21.4707 1.65789 21.4707C0.736842 21.4707 0 22.2111 0 23.1365C0 23.8769 0.368421 24.4322 0.921053 24.8024L16.7632 31.6508C16.9474 31.6508 17.1316 31.8358 17.3158 31.8358C17.5 31.8358 17.6842 31.8358 17.8684 31.6508L33.7105 24.8024C34.2632 24.6173 34.6316 23.8769 34.6316 23.3216C34.6316 22.3962 33.8947 21.6558 32.9737 21.6558C33.1579 21.6558 32.9737 21.6558 32.7895 21.6558Z" fill="#DADADA"/>
<path d="M32.7895 28.6895L17.5 35.1677L2.21053 28.6895C2.02632 28.6895 1.84211 28.5044 1.65789 28.5044C0.736842 28.5044 0 29.2448 0 30.1702C0 30.9106 0.368421 31.4659 0.921053 31.8361L16.7632 38.6845C16.9474 38.6845 17.1316 38.8695 17.3158 38.8695C17.5 38.8695 17.6842 38.8695 17.8684 38.6845L33.7105 31.8361C34.2632 31.651 34.6316 30.9106 34.6316 30.1702C34.6316 29.2448 33.8947 28.5044 32.9737 28.5044C33.1579 28.5044 32.9737 28.5044 32.7895 28.6895Z" fill="#716E75"/>
</g>
<defs>
<clipPath id="clip0_295_4400">
<rect width="35" height="38.6842" fill="white"/>
</clipPath>
</defs>
</svg>
