<svg width="81" height="28" viewBox="0 0 81 28" fill="none" xmlns="http://www.w3.org/2000/svg">
<g clip-path="url(#clip0_265_8357)">
<path d="M23.5188 27.8742H4.89651C2.4262 27.8742 0.335938 25.7746 0.335938 23.2934V5.16091C0.335938 2.67963 2.4262 0.580078 4.89651 0.580078H23.5188C25.9891 0.580078 28.0794 2.67963 28.0794 5.16091V23.2934C28.2694 25.7746 26.1792 27.8742 23.5188 27.8742Z" fill="#D0D0D0"/>
<path d="M47.8415 27.874H36.25C33.7797 27.874 31.6895 25.7745 31.6895 23.2932V12.032C31.6895 9.55072 33.7797 7.45117 36.25 7.45117H47.8415C50.3118 7.45117 52.402 9.55072 52.402 12.032V23.4841C52.5921 25.7745 50.5018 27.874 47.8415 27.874Z" fill="#716E75"/>
<path d="M65.7049 27.8734H60.1942C57.9139 27.8734 56.0137 25.9647 56.0137 23.6743V18.33C56.0137 16.0395 57.9139 14.1309 60.1942 14.1309H65.7049C67.9852 14.1309 69.8854 16.0395 69.8854 18.33V23.6743C69.8854 25.9647 67.9852 27.8734 65.7049 27.8734Z" fill="#D0D0D0"/>
<path d="M78.0547 27.8737H75.9644C74.6343 27.8737 73.4941 26.7285 73.4941 25.5833V23.4838C73.4941 22.1477 74.6343 21.1934 75.9644 21.1934H78.0547C79.3849 21.1934 80.525 22.3386 80.525 23.4838V25.5833C80.335 26.7285 79.3849 27.8737 78.0547 27.8737Z" fill="#D0D0D0"/>
</g>
<defs>
<clipPath id="clip0_265_8357">
<rect width="80" height="27.2941" fill="white" transform="translate(0.335938 0.580078)"/>
</clipPath>
</defs>
</svg>
