<svg width="36" height="40" viewBox="0 0 36 40" fill="none" xmlns="http://www.w3.org/2000/svg">
<g clip-path="url(#clip0_265_8338)">
<path d="M33.2895 14.6094L18 21.0876L2.71053 14.6094C2.52632 14.6094 2.34211 14.6094 2.15789 14.6094C1.23684 14.6094 0.5 15.3497 0.5 16.2752C0.5 17.0156 0.868421 17.5708 1.42105 17.7559L17.2632 24.6043C17.4474 24.6043 17.6316 24.7894 17.8158 24.7894C18 24.7894 18.1842 24.7894 18.3684 24.6043L34.2105 17.7559C35.1316 17.5708 35.5 17.0156 35.5 16.2752C35.5 15.3497 34.7632 14.6094 33.8421 14.6094C33.6579 14.6094 33.4737 14.6094 33.2895 14.6094Z" fill="#716E75"/>
<path d="M17.4474 0.542514L1.42105 7.39091C0.868421 7.57601 0.5 8.13128 0.5 8.87165C0.5 9.61202 0.868421 10.1673 1.42105 10.5375L17.2632 17.3859C17.4474 17.3859 17.6316 17.571 17.8158 17.571C18 17.571 18.1842 17.571 18.3684 17.3859L34.2105 10.5375C35.1316 10.1673 35.5 9.61202 35.5 8.87165C35.5 8.13128 35.1316 7.57601 34.5789 7.20582L18.5526 0.542514C18.3684 0.357422 18.1842 0.357422 18 0.357422C17.8158 0.357422 17.6316 0.357422 17.4474 0.542514Z" fill="#D0D0D0"/>
<path d="M33.2895 22.0132L18 28.4914L2.71053 22.0132C2.52632 22.0132 2.34211 21.8281 2.15789 21.8281C1.23684 21.8281 0.5 22.5685 0.5 23.494C0.5 24.2343 0.868421 24.7896 1.42105 25.1598L17.2632 32.0082C17.4474 32.0082 17.6316 32.1933 17.8158 32.1933C18 32.1933 18.1842 32.1933 18.3684 32.0082L34.2105 25.1598C34.7632 24.9747 35.1316 24.2343 35.1316 23.679C35.1316 22.7536 34.3947 22.0132 33.4737 22.0132C33.6579 22.0132 33.4737 22.0132 33.2895 22.0132Z" fill="#D0D0D0"/>
<path d="M33.2895 29.0464L18 35.5246L2.71053 29.0464C2.52632 29.0464 2.34211 28.8613 2.15789 28.8613C1.23684 28.8613 0.5 29.6017 0.5 30.5272C0.5 31.2675 0.868421 31.8228 1.42105 32.193L17.2632 39.0414C17.4474 39.0414 17.6316 39.2265 17.8158 39.2265C18 39.2265 18.1842 39.2265 18.3684 39.0414L34.2105 32.193C34.7632 32.0079 35.1316 31.2675 35.1316 30.5272C35.1316 29.6017 34.3947 28.8613 33.4737 28.8613C33.6579 28.8613 33.4737 28.8613 33.2895 29.0464Z" fill="#D0D0D0"/>
</g>
<defs>
<clipPath id="clip0_265_8338">
<rect width="35" height="38.6842" fill="white" transform="translate(0.5 0.357422)"/>
</clipPath>
</defs>
</svg>
