<?xml version="1.0" encoding="UTF-8"?>
<svg width="101px" height="89px" viewBox="0 0 101 89" version="1.1" xmlns="http://www.w3.org/2000/svg" xmlns:xlink="http://www.w3.org/1999/xlink">
    <!-- Generator: Sketch 63.1 (92452) - https://sketch.com -->
    <title>Slice 1</title>
    <desc>Created with Sketch.</desc>
    <g id="Page-1" stroke="none" stroke-width="1" fill="none" fill-rule="evenodd">
        <g id="icon-relief" transform="translate(1.000000, 1.000000)">
            <path d="M67.9900294,51.0393235 C67.9900294,51.0393235 77.0085588,44.2231471 83.1444412,39.6172647 C89.5979706,34.7705 94.6088529,36.8246176 98.6482647,40.8640294 L67.8867941,69.8307941 L29.5256176,69.8307941" id="Stroke-1" stroke="#565F73" stroke-width="2" stroke-linecap="round" stroke-linejoin="round"></path>
            <path d="M13.1387353,56.6150882 C20.6960882,47.1359706 26.6890294,43.5200882 34.1510882,43.5200882 C40.3981471,43.5200882 43.7228529,44.2559706 49.0487353,47.8321471 L60.4787353,47.8321471 C62.3157941,47.8321471 68.3775588,48.6474412 68.3775588,57.5759706 L44.3157941,57.5759706" id="Stroke-3" stroke="#565F73" stroke-width="2" stroke-linecap="round" stroke-linejoin="round"></path>
            <g id="Group-8" transform="translate(0.000000, 51.244412)">
                <polyline id="Fill-5" fill="#FFFFFF" points="0.419088235 9.03129412 9.43761765 0.0127647059 35.0452647 25.6204118 26.0267353 34.6415882"></polyline>
                <polyline id="Stroke-7" stroke="#565F73" stroke-width="2" stroke-linecap="round" stroke-linejoin="round" points="0.419088235 9.03129412 9.43761765 0.0127647059 35.0452647 25.6204118 26.0267353 34.6415882"></polyline>
            </g>
            <path d="M9.03870588,63.1345294 C8.12017647,64.0557059 8.12017647,65.546 9.03870588,66.4671765 C9.95988235,67.3830588 11.4501765,67.3830588 12.3687059,66.4671765 C13.2898824,65.546 13.2898824,64.0557059 12.3687059,63.1345294 C11.4501765,62.2133529 9.95988235,62.2133529 9.03870588,63.1345294" id="Fill-9" fill="#565F73"></path>
            <path d="M76.1329118,18.6697647 C76.1329118,28.6438824 68.0487941,36.728 58.0746765,36.728 C48.1005588,36.728 40.0137941,28.6438824 40.0137941,18.6697647 C40.0137941,8.69564706 48.1005588,0.611529412 58.0746765,0.611529412 C68.0487941,0.611529412 76.1329118,8.69564706 76.1329118,18.6697647" id="Fill-11" fill="#FFFFFF"></path>
            <path d="M76.1329118,18.6697647 C76.1329118,28.6438824 68.0487941,36.728 58.0746765,36.728 C48.1005588,36.728 40.0137941,28.6438824 40.0137941,18.6697647 C40.0137941,8.69564706 48.1005588,0.611529412 58.0746765,0.611529412 C68.0487941,0.611529412 76.1329118,8.69564706 76.1329118,18.6697647 Z" id="Stroke-13" stroke="#565F73" stroke-width="2" stroke-linecap="round" stroke-linejoin="round"></path>
            <path d="M76.1329118,18.6697647 C76.1329118,28.6438824 68.0487941,36.728 58.0746765,36.728 C48.1005588,36.728 40.0137941,28.6438824 40.0137941,18.6697647 C40.0137941,8.69564706 48.1005588,0.611529412 58.0746765,0.611529412 C68.0487941,0.611529412 76.1329118,8.69564706 76.1329118,18.6697647" id="Fill-15" fill="#FFFFFF"></path>
            <path d="M76.1329118,18.6697647 C76.1329118,28.6438824 68.0487941,36.728 58.0746765,36.728 C48.1005588,36.728 40.0137941,28.6438824 40.0137941,18.6697647 C40.0137941,8.69564706 48.1005588,0.611529412 58.0746765,0.611529412 C68.0487941,0.611529412 76.1329118,8.69564706 76.1329118,18.6697647 Z" id="Stroke-17" stroke="#565F73" stroke-width="2" stroke-linecap="round" stroke-linejoin="round"></path>
            <g id="Group-22" transform="translate(51.941176, 10.538529)">
                <path d="M11.4360882,3.50920588 C9.69697059,-1.12314706 1.85373529,-0.572558824 1.7955,4.25302941 C1.77167647,6.41302941 4.30226471,7.40832353 6.41726471,7.74185294 C14.1307941,8.9595 11.9999118,16.2124412 6.41726471,15.9345 C2.18197059,15.7280294 0.959029412,12.8639118 0.829323529,12.1783235" id="Fill-19" fill="#FFFFFF"></path>
                <path d="M11.4360882,3.50920588 C9.69697059,-1.12314706 1.85373529,-0.572558824 1.7955,4.25302941 C1.77167647,6.41302941 4.30226471,7.40832353 6.41726471,7.74185294 C14.1307941,8.9595 11.9999118,16.2124412 6.41726471,15.9345 C2.18197059,15.7280294 0.959029412,12.8639118 0.829323529,12.1783235" id="Stroke-21" stroke="#565F73" stroke-width="2" stroke-linecap="round" stroke-linejoin="round"></path>
            </g>
            <g id="Group-26" transform="translate(56.588235, 6.244412)">
                <line x1="1.86179412" y1="0.722970588" x2="1.86179412" y2="4.6115" id="Fill-23" fill="#FFFFFF"></line>
                <line x1="1.86179412" y1="0.722970588" x2="1.86179412" y2="4.6115" id="Stroke-25" stroke="#565F73" stroke-width="2" stroke-linecap="round" stroke-linejoin="round"></line>
            </g>
            <g id="Group-30" transform="translate(56.588235, 26.420882)">
                <line x1="1.86179412" y1="0.0606176471" x2="1.86179412" y2="3.95179412" id="Fill-27" fill="#FFFFFF"></line>
                <line x1="1.86179412" y1="0.0606176471" x2="1.86179412" y2="3.95179412" id="Stroke-29" stroke="#565F73" stroke-width="2" stroke-linecap="round" stroke-linejoin="round"></line>
            </g>
        </g>
    </g>
</svg>