<?xml version="1.0" encoding="UTF-8"?>
<svg width="92px" height="103px" viewBox="0 0 92 103" version="1.1" xmlns="http://www.w3.org/2000/svg" xmlns:xlink="http://www.w3.org/1999/xlink">
    <!-- Generator: Sketch 52.6 (67491) - http://www.bohemiancoding.com/sketch -->
    <title>people icon</title>
    <desc>Created with Sketch.</desc>
    <defs>
        <polygon id="path-1" points="7.10542736e-15 101.011765 89.8273851 101.011765 89.8273851 -7.10542736e-15 7.10542736e-15 -7.10542736e-15"></polygon>
    </defs>
    <g id="Pricing-Preset" stroke="none" stroke-width="1" fill="none" fill-rule="evenodd">
        <g id="Slide-01---Connect-with-our-Audience" transform="translate(-914.000000, -455.000000)">
            <g id="2" transform="translate(690.000000, 305.000000)">
                <g id="people-icon" transform="translate(225.000000, 151.000000)">
                    <path d="M44.9088878,2.66983688 C40.8915868,2.66983688 37.6243599,5.93706377 37.6243599,9.9543648 C37.6243599,14.2119031 41.1585171,19.707998 44.9088878,19.707998 C48.6592585,19.707998 52.1934157,14.2119031 52.1934157,9.9543648 C52.1934157,5.93706377 48.9261888,2.66983688 44.9088878,2.66983688 M44.9088878,22.377301 C39.3967771,22.377301 34.9550568,15.5812556 34.9550568,9.9543648 C34.9550568,4.4636085 39.4208008,0.000533860603 44.9088878,0.000533860603 C50.3969748,0.000533860603 54.8627187,4.4636085 54.8627187,9.9543648 C54.8627187,15.5812556 50.4209985,22.377301 44.9088878,22.377301" id="Fill-1" stroke="#FFFFFF" stroke-width="0.5" fill="#E4002B"></path>
                    <path d="M59.0270984,65.4035294 C56.2323381,65.4035294 53.9580919,63.1292832 53.9580919,60.3318537 L53.9580919,45.5519229 L56.627395,45.5519229 L56.627395,60.3318537 C56.627395,61.655828 57.7031241,62.7342264 59.0270984,62.7342264 C60.3510727,62.7342264 61.4294711,61.655828 61.4294711,60.3318537 L61.4294711,41.0087692 C61.4294711,34.039219 55.7598715,28.3722887 48.7929906,28.3722887 L41.0253188,28.3722887 C34.058438,28.3722887 28.3861691,34.039219 28.3861691,41.0087692 L28.3861691,60.3318537 C28.3861691,61.655828 29.4672368,62.7342264 30.7912111,62.7342264 C32.1151854,62.7342264 33.1909145,61.655828 33.1909145,60.3318537 L33.1909145,45.5519229 L35.8602175,45.5519229 L35.8602175,60.3318537 C35.8602175,63.1292832 33.5859713,65.4035294 30.7912111,65.4035294 C27.9937815,65.4035294 25.716866,63.1292832 25.716866,60.3318537 L25.716866,41.0087692 C25.716866,32.568433 32.5849827,25.7029857 41.0253188,25.7029857 L48.7929906,25.7029857 C57.2333267,25.7029857 64.0987741,32.568433 64.0987741,41.0087692 L64.0987741,60.3318537 C64.0987741,63.1292832 61.8245279,65.4035294 59.0270984,65.4035294" id="Fill-3" stroke="#FFFFFF" stroke-width="0.5" fill="#E4002B"></path>
                    <mask id="mask-2" fill="white">
                        <use xlink:href="#path-1"></use>
                    </mask>
                    <use id="Clip-6" stroke="#FFFFFF" stroke-width="0.5" xlink:href="#path-1"></use>
                    <polygon id="Fill-5" stroke="#FFFFFF" stroke-width="0.5" fill="#E4002B" points="43.5737024 99.6771132 46.2430054 99.6771132 46.2430054 60.3315868 43.5737024 60.3315868"></polygon>
                    <path d="M44.9088878,101.011765 L36.5352842,101.011765 C34.6934652,101.011765 33.1906476,99.5116164 33.1906476,97.6697973 L33.1906476,40.8189817 L35.8599506,40.8189817 L35.8599506,97.6697973 C35.8599506,98.0408304 36.1642511,98.3424617 36.5352842,98.3424617 L44.9088878,98.3424617 L44.9088878,101.011765 Z" id="Fill-7" stroke="#FFFFFF" stroke-width="0.5" fill="#E4002B"></path>
                    <path d="M53.2819575,101.011765 L43.5737024,101.011765 L43.5737024,60.3315868 L46.2430054,60.3315868 L46.2430054,98.3424617 L53.2819575,98.3424617 C53.6556599,98.3424617 53.9572912,98.0408304 53.9572912,97.6697973 L53.9572912,40.8189817 L56.6265942,40.8189817 L56.6265942,97.6697973 C56.6265942,99.5116164 55.1237766,101.011765 53.2819575,101.011765" id="Fill-8" stroke="#FFFFFF" stroke-width="0.5" fill="#E4002B"></path>
                    <path d="M17.6035195,11.4048641 C14.0079684,11.4048641 11.0877509,14.3277509 11.0877509,17.923302 C11.0877509,21.7537519 14.2455363,26.6946317 17.6035195,26.6946317 C20.9615027,26.6946317 24.1219575,21.7537519 24.1219575,17.923302 C24.1219575,14.3277509 21.1990707,11.4048641 17.6035195,11.4048641 M17.6035195,29.3639348 C12.515828,29.3639348 8.41844785,23.1044192 8.41844785,17.923302 C8.41844785,12.8569649 12.5398517,8.73556105 17.6035195,8.73556105 C22.6698566,8.73556105 26.7912605,12.8569649 26.7912605,17.923302 C26.7912605,23.1044192 22.6938804,29.3639348 17.6035195,29.3639348" id="Fill-9" stroke="#FFFFFF" stroke-width="0.5" fill="#697684"></path>
                    <path d="M4.73908057,68.5669204 C2.12583292,68.5669204 0.00106772121,66.4394859 0.00106772121,63.8262383 L0.00106772121,46.2195156 C0.00106772121,38.4651903 6.31130005,32.154958 14.0656253,32.154958 L21.1446169,32.154958 C21.8172813,32.154958 22.4792684,32.2030054 23.1252397,32.2937617 C23.7471873,32.3631636 24.2089768,32.4112111 24.6841127,32.6300939 L23.568344,35.0538211 C23.4909343,35.0191201 23.2640435,34.9950964 23.0985467,34.9790806 L22.7542066,34.9363717 C22.2230153,34.8616312 21.6891547,34.824261 21.1446169,34.824261 L14.0656253,34.824261 C7.78208601,34.824261 2.67037074,39.9359763 2.67037074,46.2195156 L2.67037074,63.8262383 C2.67037074,64.9687 3.59661888,65.8976174 4.73908057,65.8976174 C5.88154226,65.8976174 6.81045971,64.9687 6.81045971,63.8262383 L6.81045971,50.3622739 L9.47976273,50.3622739 L9.47976273,63.8262383 C9.47976273,66.4394859 7.35232823,68.5669204 4.73908057,68.5669204" id="Fill-10" stroke="#FFFFFF" stroke-width="0.5" fill="#697684"></path>
                    <polygon id="Fill-11" stroke="#FFFFFF" stroke-width="0.5" fill="#697684" points="16.2694019 99.6771132 18.9387049 99.6771132 18.9387049 63.8257044 16.2694019 63.8257044"></polygon>
                    <path d="M17.6035195,101.011765 L9.97732081,101.011765 C8.23159664,101.011765 6.81152743,99.5916955 6.81152743,97.8459713 L6.81152743,46.0481463 L9.48083045,46.0481463 L9.48083045,97.8459713 C9.48083045,98.1209095 9.7023826,98.3424617 9.97732081,98.3424617 L17.6035195,98.3424617 L17.6035195,101.011765 Z" id="Fill-12" stroke="#FFFFFF" stroke-width="0.5" fill="#697684"></path>
                    <path d="M25.2334553,101.011765 L16.2699357,101.011765 L16.2699357,63.8257044 L18.9392388,63.8257044 L18.9392388,98.3424617 L25.2334553,98.3424617 C25.5083935,98.3424617 25.7299456,98.1209095 25.7299456,97.8459713 L25.7299456,67.5627286 L28.3992486,67.5627286 L28.3992486,97.8459713 C28.3992486,99.5916955 26.9765101,101.011765 25.2334553,101.011765" id="Fill-13" stroke="#FFFFFF" stroke-width="0.5" fill="#697684"></path>
                    <path d="M72.2249333,11.4048641 C68.6293821,11.4048641 65.7064953,14.3277509 65.7064953,17.923302 C65.7064953,21.7537519 68.8669501,26.6946317 72.2249333,26.6946317 C75.5829165,26.6946317 78.7407019,21.7537519 78.7407019,17.923302 C78.7407019,14.3277509 75.8204844,11.4048641 72.2249333,11.4048641 M72.2249333,29.3639348 C67.1345724,29.3639348 63.0371923,23.1044192 63.0371923,17.923302 C63.0371923,12.8569649 67.1585961,8.73556105 72.2249333,8.73556105 C77.2886011,8.73556105 81.4100049,12.8569649 81.4100049,17.923302 C81.4100049,23.1044192 77.3126248,29.3639348 72.2249333,29.3639348" id="Fill-14" stroke="#FFFFFF" stroke-width="0.5" fill="#697684"></path>
                    <path d="M85.0893722,68.5669204 C82.4761246,68.5669204 80.3486901,66.4394859 80.3486901,63.8262383 L80.3486901,50.3622739 L83.0179931,50.3622739 L83.0179931,63.8262383 C83.0179931,64.9687 83.9469105,65.8976174 85.0893722,65.8976174 C86.2318339,65.8976174 87.1580821,64.9687 87.1580821,63.8262383 L87.1580821,46.2195156 C87.1580821,39.9359763 82.0463668,34.824261 75.7628275,34.824261 L68.6838359,34.824261 C68.1392981,34.824261 67.6054375,34.8616312 67.0795848,34.9363717 L66.7299061,34.9790806 C66.5644093,34.9950964 66.3375185,35.0191201 66.2601087,35.0538211 L65.1443401,32.6300939 C65.619476,32.4112111 66.0812654,32.3631636 66.4549679,32.3231241 C67.3491844,32.2030054 68.0111715,32.154958 68.6838359,32.154958 L75.7628275,32.154958 C83.5171527,32.154958 89.8273851,38.4651903 89.8273851,46.2195156 L89.8273851,63.8262383 C89.8273851,66.4394859 87.7026199,68.5669204 85.0893722,68.5669204" id="Fill-15" stroke="#FFFFFF" stroke-width="0.5" fill="#697684"></path>
                    <polygon id="Fill-16" stroke="#FFFFFF" stroke-width="0.5" fill="#697684" points="70.8913495 99.6771132 73.5606525 99.6771132 73.5606525 63.8257044 70.8913495 63.8257044"></polygon>
                    <path d="M79.8524666,101.011765 L72.2262679,101.011765 L72.2262679,98.3424617 L79.8524666,98.3424617 C80.1274048,98.3424617 80.348957,98.1209095 80.348957,97.8459713 L80.348957,46.0481463 L83.01826,46.0481463 L83.01826,97.8459713 C83.01826,99.5916955 81.5955215,101.011765 79.8524666,101.011765" id="Fill-17" stroke="#FFFFFF" stroke-width="0.5" fill="#697684"></path>
                    <path d="M73.5595848,101.011765 L64.5960652,101.011765 C62.8503411,101.011765 61.4302719,99.5916955 61.4302719,97.8459713 L61.4302719,67.5627286 L64.0995749,67.5627286 L64.0995749,97.8459713 C64.0995749,98.1209095 64.321127,98.3424617 64.5960652,98.3424617 L70.8902818,98.3424617 L70.8902818,63.8257044 L73.5595848,63.8257044 L73.5595848,101.011765 Z" id="Fill-18" stroke="#FFFFFF" stroke-width="0.5" fill="#697684"></path>
                </g>
            </g>
        </g>
    </g>
</svg>