<?xml version="1.0" encoding="UTF-8"?>
<svg width="150px" height="103px" viewBox="0 0 150 103" version="1.1" xmlns="http://www.w3.org/2000/svg" xmlns:xlink="http://www.w3.org/1999/xlink">
    <!-- Generator: Sketch 52.6 (67491) - http://www.bohemiancoding.com/sketch -->
    <title>icon</title>
    <desc>Created with Sketch.</desc>
    <defs>
        <polygon id="path-1" points="1.20792265e-13 101.011765 89.8273851 101.011765 89.8273851 -2.84217094e-14 1.20792265e-13 -2.84217094e-14"></polygon>
    </defs>
    <g id="Private-Landlords-Listing" stroke="none" stroke-width="1" fill="none" fill-rule="evenodd">
        <g id="PLL---Slide-02" transform="translate(-438.000000, -562.000000)">
            <g id="2" transform="translate(407.000000, 519.000000)">
                <g id="icon" transform="translate(32.000000, 44.000000)">
                    <g id="Group">
                        <path d="M44.9088878,2.66983688 C40.8915868,2.66983688 37.6243599,5.93706377 37.6243599,9.9543648 C37.6243599,14.2119031 41.1585171,19.707998 44.9088878,19.707998 C48.6592585,19.707998 52.1934157,14.2119031 52.1934157,9.9543648 C52.1934157,5.93706377 48.9261888,2.66983688 44.9088878,2.66983688 M44.9088878,22.377301 C39.3967771,22.377301 34.9550568,15.5812556 34.9550568,9.9543648 C34.9550568,4.4636085 39.4208008,0.000533860603 44.9088878,0.000533860603 C50.3969748,0.000533860603 54.8627187,4.4636085 54.8627187,9.9543648 C54.8627187,15.5812556 50.4209985,22.377301 44.9088878,22.377301" id="Fill-1" stroke="#FFFFFF" stroke-width="0.5" fill="#E4002B"></path>
                        <path d="M59.0270984,65.4035294 C56.2323381,65.4035294 53.9580919,63.1292832 53.9580919,60.3318537 L53.9580919,45.5519229 L56.627395,45.5519229 L56.627395,60.3318537 C56.627395,61.655828 57.7031241,62.7342264 59.0270984,62.7342264 C60.3510727,62.7342264 61.4294711,61.655828 61.4294711,60.3318537 L61.4294711,41.0087692 C61.4294711,34.039219 55.7598715,28.3722887 48.7929906,28.3722887 L41.0253188,28.3722887 C34.058438,28.3722887 28.3861691,34.039219 28.3861691,41.0087692 L28.3861691,60.3318537 C28.3861691,61.655828 29.4672368,62.7342264 30.7912111,62.7342264 C32.1151854,62.7342264 33.1909145,61.655828 33.1909145,60.3318537 L33.1909145,45.5519229 L35.8602175,45.5519229 L35.8602175,60.3318537 C35.8602175,63.1292832 33.5859713,65.4035294 30.7912111,65.4035294 C27.9937815,65.4035294 25.716866,63.1292832 25.716866,60.3318537 L25.716866,41.0087692 C25.716866,32.568433 32.5849827,25.7029857 41.0253188,25.7029857 L48.7929906,25.7029857 C57.2333267,25.7029857 64.0987741,32.568433 64.0987741,41.0087692 L64.0987741,60.3318537 C64.0987741,63.1292832 61.8245279,65.4035294 59.0270984,65.4035294" id="Fill-3" stroke="#FFFFFF" stroke-width="0.5" fill="#E4002B"></path>
                        <mask id="mask-2" fill="white">
                            <use xlink:href="#path-1"></use>
                        </mask>
                        <use id="Clip-6" stroke="#FFFFFF" stroke-width="0.5" xlink:href="#path-1"></use>
                        <polygon id="Fill-5" stroke="#FFFFFF" stroke-width="0.5" fill="#E4002B" points="43.5737024 99.6771132 46.2430054 99.6771132 46.2430054 60.3315868 43.5737024 60.3315868"></polygon>
                        <path d="M44.9088878,101.011765 L36.5352842,101.011765 C34.6934652,101.011765 33.1906476,99.5116164 33.1906476,97.6697973 L33.1906476,40.8189817 L35.8599506,40.8189817 L35.8599506,97.6697973 C35.8599506,98.0408304 36.1642511,98.3424617 36.5352842,98.3424617 L44.9088878,98.3424617 L44.9088878,101.011765 Z" id="Fill-7" stroke="#FFFFFF" stroke-width="0.5" fill="#E4002B"></path>
                        <path d="M53.2819575,101.011765 L43.5737024,101.011765 L43.5737024,60.3315868 L46.2430054,60.3315868 L46.2430054,98.3424617 L53.2819575,98.3424617 C53.6556599,98.3424617 53.9572912,98.0408304 53.9572912,97.6697973 L53.9572912,40.8189817 L56.6265942,40.8189817 L56.6265942,97.6697973 C56.6265942,99.5116164 55.1237766,101.011765 53.2819575,101.011765" id="Fill-8" stroke="#FFFFFF" stroke-width="0.5" fill="#E4002B"></path>
                    </g>
                    <g id="icons-/-landing-page" transform="translate(77.000000, 31.000000)" stroke-width="1.64769231">
                        <g id="Group-2" transform="translate(0.549025, 0.162335)">
                            <path d="M13.0405133,66.369665 L56.6455133,66.369665" id="Stroke-6030" stroke="#697684" stroke-linecap="round" stroke-linejoin="round"></path>
                            <path d="M0.188513266,48.009665 L69.9565133,48.009665" id="Stroke-6032" stroke="#697684"></path>
                            <path d="M65.1449271,60.861665 L5.00009947,60.861665 C2.35372706,60.861665 0.188513266,58.7643881 0.188513266,56.2010496 L0.188513266,4.9342804 C0.188513266,2.37094194 2.35372706,0.273665016 5.00009947,0.273665016 L65.1449271,0.273665016 C67.7912995,0.273665016 69.9565133,2.37094194 69.9565133,4.9342804 L69.9565133,56.2010496 C69.9565133,58.7643881 67.7912995,60.861665 65.1449271,60.861665 Z" id="Stroke-6033" stroke="#697684" stroke-linecap="round" stroke-linejoin="round"></path>
                            <path d="M65.1449271,60.861665 L5.00009947,60.861665 C2.35372706,60.861665 0.188513266,58.7643881 0.188513266,56.2010496 L0.188513266,4.9342804 C0.188513266,2.37094194 2.35372706,0.273665016 5.00009947,0.273665016 L65.1449271,0.273665016 C67.7912995,0.273665016 69.9565133,2.37094194 69.9565133,4.9342804 L69.9565133,56.2010496 C69.9565133,58.7643881 67.7912995,60.861665 65.1449271,60.861665 Z" id="Stroke-6033-Copy" stroke="#697684" stroke-linecap="round" stroke-linejoin="round"></path>
                            <path d="M35.0725133,54.435665 C35.0725133,54.942401 34.6612493,55.353665 34.1545133,55.353665 C33.6477773,55.353665 33.2365133,54.942401 33.2365133,54.435665 C33.2365133,53.928929 33.6477773,53.517665 34.1545133,53.517665 C34.6612493,53.517665 35.0725133,53.928929 35.0725133,54.435665 L35.0725133,54.435665 Z" id="Stroke-6034" stroke="#697684"></path>
                            <path d="M53.5380305,39.6378189 L16.606996,39.6378189 C14.9820305,39.6378189 13.6525133,38.6111798 13.6525133,37.3563987 L13.6525133,12.2607774 C13.6525133,11.0059964 14.9820305,9.97935732 16.606996,9.97935732 L53.5380305,9.97935732 C55.162996,9.97935732 56.4925133,11.0059964 56.4925133,12.2607774 L56.4925133,37.3563987 C56.4925133,38.6111798 55.162996,39.6378189 53.5380305,39.6378189 Z" id="Stroke-6033-Copy-2" stroke="#E4002B" stroke-linecap="round" stroke-linejoin="round"></path>
                        </g>
                    </g>
                </g>
            </g>
        </g>
    </g>
</svg>