<!-- Generator: Adobe Illustrator 22.0.1, SVG Export Plug-In  -->
<svg version="1.1"
	 xmlns="http://www.w3.org/2000/svg" xmlns:xlink="http://www.w3.org/1999/xlink" xmlns:a="http://ns.adobe.com/AdobeSVGViewerExtensions/3.0/"
	 x="0px" y="0px" width="170px" height="32px" viewBox="0 0 170 32" style="enable-background:new 0 0 170 32;"
	 xml:space="preserve">
<style type="text/css">
	.st0{fill:#00A3C6;}
	.st1{fill:#FFFFFF;}
	.st2{fill:#F8C10A;}
	.st3{fill:none;stroke:#FFFFFF;stroke-width:0.5;}
</style>
<defs>
</defs>
<g>
	<rect class="st0" width="170" height="32"/>
</g>
<g>
	<g>
		<g>
			<path class="st1" d="M9.9,17.1c0-5.1,0-10.2,0-15.3c2.2,0,4.5,0,6.7,0c7.3,0,7.3,11.4,0,11.4h-2.8v3.9
				C12.5,17.1,11.2,17.1,9.9,17.1z M16.6,5.3c-0.9,0-1.9,0-2.8,0c0,1.2,0,3.1,0,4.4h2.8C18.8,9.7,18.9,5.4,16.6,5.3z"/>
			<path class="st1" d="M31.5,13.7v3.4h-7.7v-3.4h1.9V5.2h-1.8V1.8h7.4v3.4h-1.8v8.4H31.5z"/>
			<path class="st1" d="M34.1,17.1c0-5.1,0-10.2,0-15.3c2.2,0,4.5,0,6.7,0c7.3,0,7.3,11.4,0,11.4H38v3.9
				C36.7,17.1,35.4,17.1,34.1,17.1z M40.8,5.3c-0.9,0-1.9,0-2.8,0c0,1.2,0,3.1,0,4.4h2.8C42.9,9.7,43,5.4,40.8,5.3z"/>
			<path class="st1" d="M49.2,17.1c0-5.1,0-10.2,0-15.3c2.2,0,4.5,0,6.7,0c7.3,0,7.3,11.4,0,11.4h-2.8v3.9
				C51.8,17.1,50.5,17.1,49.2,17.1z M55.9,5.3c-0.9,0-1.9,0-2.8,0c0,1.2,0,3.1,0,4.4h2.8C58,9.7,58.2,5.4,55.9,5.3z"/>
			<path class="st1" d="M70.8,13.7v3.4h-7.7v-3.4H65V5.2h-1.8V1.8h7.4v3.4h-1.8v8.4H70.8z"/>
			<path class="st1" d="M77.4,9.6v7.5c-1.4,0-2.7,0-4,0V1.8h1.4l7.7,7.5V1.8c1.3,0,2.7,0,4,0v15.3h-1.4L77.4,9.6z"/>
			<path class="st2" d="M96.6,5.7c0-0.5-0.4-0.9-1.3-0.9c-1.7,0-1.7,2.3,0,2.3h0.7c0,1,0,2.1,0,3.2h-0.7c-2.6,0-2.6,3.8,0,3.8
				c1.1,0,2-0.7,2-1.9V7.1c1.6,0,3.2,0,4.8,0c0,1.1,0,2.2,0,3.4h-1.4v1.7c0,3.4-2.1,5.2-5.4,5.2c-6.2,0-7.5-6.3-3.9-8.9
				c-2.2-2.4-0.9-6.9,3.9-6.9c2.7,0,4.8,1.3,4.7,4.1C98.9,5.7,97.8,5.7,96.6,5.7z"/>
			<path class="st1" d="M117.3,17.1c-1.3,0-2.7,0-4,0V11h-4.7v6.1c-1.3,0-2.7,0-4,0V1.8c1.3,0,2.7,0,4,0v5.5h4.7V1.8
				c1.3,0,2.7,0,4,0V17.1z"/>
			<path class="st1" d="M130.3,15.2h-6l-0.9,1.9h-3.8v-0.6l6.9-14.9h1.7l6.9,14.9v0.6h-3.8L130.3,15.2z M127.3,7.8l-1.7,4h3.5
				L127.3,7.8z"/>
			<path class="st1" d="M141,13.6h5.5c0,1.3,0,2.2,0,3.5c-3.1,0-6.4,0-9.5,0V1.8c1.3,0,2.6,0,3.9,0C141,9.7,141,7.1,141,13.6z"/>
			<path class="st1" d="M153.1,13.6h5.5c0,1.3,0,2.2,0,3.5c-3.1,0-6.4,0-9.5,0V1.8c1.3,0,2.6,0,3.9,0
				C153.1,9.7,153.1,7.1,153.1,13.6z"/>
		</g>
		<g>
			<path class="st1" d="M40.8,30.3l-1.3-2.8h-1.9v2.8h-0.9v-6.8h2.7c0.8,0,1.3,0.2,1.7,0.6c0.3,0.3,0.5,0.8,0.5,1.4
				c0,0.6-0.2,1-0.5,1.3c-0.2,0.2-0.5,0.4-0.8,0.5l1.4,3H40.8z M39.4,24.3h-1.8v2.4h1.8c0.8,0,1.4-0.3,1.4-1.2
				C40.8,24.6,40.2,24.3,39.4,24.3z"/>
			<path class="st1" d="M43.1,30.3v-6.8h4.5v0.8h-3.7v2.1h3.2v0.8h-3.2v2.3h3.7v0.8H43.1z"/>
			<path class="st1" d="M53.1,30.3l-0.6-1.6h-2.9L49,30.3h-0.9l2.4-6.8h1l2.4,6.8H53.1z M51,24.4l-1.2,3.5h2.4L51,24.4z"/>
			<path class="st1" d="M55,30.3v-6.8h0.9v6h3.3v0.8H55z"/>
			<path class="st1" d="M62.2,30.3v-6.8h4.5v0.8H63v2.1h3.2v0.8H63v2.3h3.7v0.8H62.2z"/>
			<path class="st1" d="M72.1,29.7c-0.5,0.5-1.2,0.7-1.9,0.7c-0.8,0-1.5-0.2-1.9-0.6c-0.4-0.4-0.7-1-0.7-1.6h0.9
				c0,0.4,0.2,0.8,0.5,1.1c0.3,0.3,0.8,0.4,1.3,0.4c0.5,0,1-0.1,1.3-0.4c0.2-0.2,0.3-0.4,0.3-0.8c0-0.5-0.3-1-1.1-1.1l-1.1-0.2
				c-1-0.2-1.8-0.7-1.8-1.8c0-0.5,0.2-1,0.6-1.3c0.5-0.4,1.1-0.7,1.8-0.7c0.7,0,1.3,0.2,1.8,0.6c0.4,0.4,0.6,0.9,0.6,1.5h-0.9
				c0-0.3-0.1-0.6-0.3-0.9c-0.3-0.3-0.7-0.5-1.2-0.5c-0.5,0-0.9,0.1-1.2,0.5c-0.2,0.2-0.3,0.4-0.3,0.7c0,0.6,0.5,0.9,1,1
				c0.4,0,0.8,0.1,1.1,0.2c1.1,0.2,1.9,0.8,1.9,1.9C72.7,29,72.5,29.4,72.1,29.7z"/>
			<path class="st1" d="M76,24.3v6h-0.9v-6h-2v-0.8H78v0.8H76z"/>
			<path class="st1" d="M82.4,30.3l-0.6-1.6h-2.9l-0.5,1.6h-0.9l2.4-6.8h1l2.4,6.8H82.4z M80.4,24.4l-1.2,3.5h2.4L80.4,24.4z"/>
			<path class="st1" d="M85.7,24.3v6h-0.9v-6h-2v-0.8h4.9v0.8H85.7z"/>
			<path class="st1" d="M88.8,30.3v-6.8h4.5v0.8h-3.7v2.1h3.2v0.8h-3.2v2.3h3.7v0.8H88.8z"/>
			<path class="st1" d="M101,30.3l-0.6-1.6h-2.9l-0.5,1.6h-0.9l2.4-6.8h1l2.4,6.8H101z M98.9,24.4l-1.2,3.5h2.4L98.9,24.4z"/>
			<path class="st1" d="M107,30.3l-0.1-0.8c-0.3,0.6-1.1,0.9-1.8,0.9c-0.7,0-1.3-0.2-1.8-0.7c-0.7-0.7-0.9-1.6-0.9-2.8
				c0-1.1,0.1-2.1,0.9-2.8c0.5-0.5,1.1-0.7,1.8-0.7c0.8,0,1.5,0.3,1.9,0.8c0.3,0.3,0.6,0.8,0.6,1.3h-0.9c0-0.3-0.1-0.5-0.3-0.7
				c-0.3-0.4-0.8-0.5-1.3-0.5c-0.5,0-0.9,0.2-1.2,0.5c-0.6,0.6-0.6,1.5-0.6,2.2c0,0.7,0,1.7,0.6,2.2c0.3,0.3,0.8,0.5,1.2,0.5
				c0.5,0,0.9-0.2,1.2-0.5c0.4-0.4,0.6-1.1,0.6-1.7H105v-0.8h2.6v3.6H107z"/>
			<path class="st1" d="M109.2,30.3v-6.8h4.5v0.8h-3.7v2.1h3.2v0.8h-3.2v2.3h3.7v0.8H109.2z"/>
			<path class="st1" d="M119.3,30.3l-3.3-5.4v5.4h-0.8v-6.8h1l3.3,5.5v-5.5h0.8v6.8H119.3z"/>
			<path class="st1" d="M124.2,24.3v6h-0.9v-6h-2v-0.8h4.9v0.8H124.2z"/>
			<path class="st1" d="M131.2,29.7c-0.5,0.5-1.2,0.7-1.9,0.7c-0.8,0-1.5-0.2-1.9-0.6c-0.4-0.4-0.7-1-0.7-1.6h0.9
				c0,0.4,0.2,0.8,0.5,1.1c0.3,0.3,0.8,0.4,1.3,0.4c0.5,0,1-0.1,1.3-0.4c0.2-0.2,0.3-0.4,0.3-0.8c0-0.5-0.3-1-1.1-1.1l-1.1-0.2
				c-1-0.2-1.8-0.7-1.8-1.8c0-0.5,0.2-1,0.6-1.3c0.5-0.4,1.1-0.7,1.8-0.7c0.7,0,1.3,0.2,1.8,0.6c0.4,0.4,0.6,0.9,0.7,1.5h-0.9
				c0-0.3-0.1-0.6-0.3-0.9c-0.3-0.3-0.7-0.5-1.2-0.5c-0.5,0-0.9,0.1-1.2,0.5c-0.2,0.2-0.3,0.4-0.3,0.7c0,0.6,0.5,0.9,1,1
				c0.4,0,0.8,0.1,1.1,0.2c1.1,0.2,1.9,0.8,1.9,1.9C131.8,29,131.5,29.4,131.2,29.7z"/>
		</g>
		<line class="st3" x1="33.7" y1="26.7" x2="9.4" y2="26.7"/>
		<line class="st3" x1="158.6" y1="26.7" x2="134.3" y2="26.7"/>
	</g>
</g>
</svg>
