<!-- Generator: Adobe Illustrator 21.0.2, SVG Export Plug-In  -->
<svg version="1.1"
	 xmlns="http://www.w3.org/2000/svg" xmlns:xlink="http://www.w3.org/1999/xlink" xmlns:a="http://ns.adobe.com/AdobeSVGViewerExtensions/3.0/"
	 x="0px" y="0px" width="211px" height="160px" viewBox="0 0 211 160" style="enable-background:new 0 0 211 160;"
	 xml:space="preserve">
<style type="text/css">
	.st0{fill:#FFFFFF;}
</style>
<defs>
</defs>
<g>
	<g>
		<path class="st0" d="M205.7,159h-2.6c-0.3,0-0.6-0.3-0.6-0.6v-0.7c-1.5,1-2.6,1.4-4.5,1.4c-1.4,0-2.7-0.4-3.5-1.2
			c-1-1-1.4-2.8-1.4-5.2v-9.2c0-0.3,0.3-0.6,0.6-0.6h2.6c0.3,0,0.6,0.3,0.6,0.6v9.2c0,1.4,0.1,2.2,0.7,2.7c0.4,0.3,0.9,0.5,1.8,0.5
			c1,0,2.4-0.7,3.2-1.1v-11.3c0-0.3,0.3-0.6,0.6-0.6h2.6c0.3,0,0.6,0.3,0.6,0.6v14.8C206.3,158.8,206,159,205.7,159 M187.6,152h-1.8
			c-2.6,0-3.2,0.8-3.2,2.4v0.1c0,1.4,0.6,1.8,2,1.8c1,0,2.1-0.3,2.9-0.8V152z M190.8,159h-2.4c-0.3,0-0.6-0.3-0.6-0.6V158
			c-1.3,0.8-2.6,1.3-4,1.3c-2.4,0-4.9-0.9-4.9-4.7v-0.1c0-3.2,2-4.9,6.9-4.9h1.8v-1.2c0-1.8-0.8-2.3-2.5-2.3c-1.8,0-3.7,0.1-4.6,0.2
			h-0.1c-0.3,0-0.5-0.1-0.5-0.5v-1.8c0-0.3,0.2-0.5,0.5-0.6c1.1-0.2,2.8-0.5,4.7-0.5c4,0,6.2,1.8,6.2,5.4v10.2
			C191.3,158.8,191.1,159,190.8,159 M177,159h-2.5c-0.3,0-0.6-0.3-0.6-0.6v-3.2c0-0.3,0.3-0.5,0.6-0.5h2.5c0.3,0,0.6,0.2,0.6,0.5
			v3.2C177.6,158.8,177.3,159,177,159 M171.7,159h-2.6c-0.3,0-0.6-0.3-0.6-0.6v-9.6c0-2.2-0.5-2.8-2-2.8c-0.5,0-1.6,0.2-2.6,0.7
			c0.1,0.6,0.1,1.3,0.1,2v9.6c0,0.3-0.3,0.6-0.6,0.6h-2.6c-0.3,0-0.6-0.3-0.6-0.6v-9.6c0-2.2-0.4-2.8-2-2.8c-0.6,0-1.4,0.3-2.6,0.9
			v11.4c0,0.3-0.3,0.6-0.6,0.6h-2.6c-0.3,0-0.6-0.3-0.6-0.6v-14.8c0-0.3,0.3-0.6,0.6-0.6h2.5c0.3,0,0.6,0.3,0.6,0.6v0.6
			c1.2-0.8,2.4-1.4,4.1-1.4c1.6,0,2.7,0.5,3.3,1.3c1.4-0.8,2.7-1.3,4.7-1.3c3.8,0,4.7,2.6,4.7,6v9.6C172.3,158.8,172,159,171.7,159
			 M146.6,149.9c0-2.3-1.1-3.8-3-3.8c-2,0-3,1.5-3,3.8v2.3c0,2.3,1,3.8,3,3.8c2,0,3-1.5,3-3.8V149.9z M143.6,159.3
			c-4.4,0-6.8-3-6.8-7.1v-2.3c0-4,2.3-7.1,6.8-7.1c4.5,0,6.8,3,6.8,7.1v2.3C150.3,156.3,148,159.3,143.6,159.3 M134.8,158.9
			c-0.7,0.2-1.9,0.4-3.7,0.4c-3.7,0-6.5-2.3-6.5-6.9v-2.6c0-4.6,2.8-6.9,6.5-6.9c1.7,0,3,0.2,3.7,0.4c0.5,0.1,0.6,0.3,0.6,0.7v1.8
			c0,0.3-0.2,0.4-0.5,0.4h-0.1c-1.1-0.1-1.8-0.2-3.7-0.2c-1.3,0-2.7,0.8-2.7,3.7v2.6c0,2.9,1.4,3.7,2.7,3.7c1.8,0,2.5-0.1,3.7-0.2
			h0.1c0.3,0,0.5,0.1,0.5,0.4v1.8C135.4,158.6,135.3,158.8,134.8,158.9 M123.1,159h-2.5c-0.3,0-0.6-0.3-0.6-0.6v-3.2
			c0-0.3,0.3-0.5,0.6-0.5h2.5c0.3,0,0.6,0.2,0.6,0.5v3.2C123.7,158.8,123.5,159,123.1,159 M115.2,149.6c0-2.2-1.2-3.5-3-3.5
			c-1.8,0-3,1.2-3,3.5v0.1h6V149.6z M118.4,152.4h-9.2v0.1c0,1.6,0.7,3.6,3.4,3.6c2.1,0,4-0.2,5.2-0.3h0.1c0.3,0,0.5,0.2,0.5,0.4
			v1.9c0,0.5-0.1,0.7-0.6,0.7c-1.8,0.3-2.9,0.5-5.5,0.5c-2.8,0-6.9-1.5-6.9-7.1v-2.1c0-4.4,2.5-7.2,6.8-7.2c4.4,0,6.7,3,6.7,7.2v1.6
			C119,152.1,118.8,152.4,118.4,152.4 M103.9,159.1c-0.7,0.1-1.3,0.2-1.9,0.2c-3.2,0-4.5-0.7-4.5-4.5v-8.9l-2.7-0.4
			c-0.3-0.1-0.6-0.3-0.6-0.6v-1.3c0-0.3,0.3-0.6,0.6-0.6h2.7v-3.8c0-0.3,0.3-0.5,0.6-0.6l2.6-0.4h0.1c0.2,0,0.5,0.1,0.5,0.4v4.3h2.5
			c0.3,0,0.6,0.3,0.6,0.6v1.7c0,0.3-0.3,0.6-0.6,0.6h-2.5v8.9c0,1.4,0.1,1.6,1.1,1.6h1.5c0.4,0,0.6,0.1,0.6,0.4v1.8
			C104.4,158.9,104.2,159,103.9,159.1 M90,152h-1.8c-2.6,0-3.1,0.8-3.1,2.4v0.1c0,1.4,0.6,1.8,2,1.8c1,0,2.1-0.3,2.9-0.8V152z
			 M93.2,159h-2.4c-0.3,0-0.6-0.3-0.6-0.6V158c-1.3,0.8-2.6,1.3-4,1.3c-2.4,0-4.9-0.9-4.9-4.7v-0.1c0-3.2,2-4.9,6.9-4.9H90v-1.2
			c0-1.8-0.8-2.3-2.5-2.3c-1.8,0-3.7,0.1-4.6,0.2h-0.1c-0.3,0-0.5-0.1-0.5-0.5v-1.8c0-0.3,0.2-0.5,0.5-0.6c1.1-0.2,2.8-0.5,4.7-0.5
			c4,0,6.2,1.8,6.2,5.4v10.2C93.8,158.8,93.5,159,93.2,159 M79.8,159.1c-0.7,0.1-1.3,0.2-1.9,0.2c-3.2,0-4.5-0.7-4.5-4.5v-8.9
			l-2.7-0.4c-0.3-0.1-0.6-0.3-0.6-0.6v-1.3c0-0.3,0.2-0.6,0.6-0.6h2.7v-3.8c0-0.3,0.3-0.5,0.6-0.6l2.6-0.4h0.1
			c0.3,0,0.5,0.1,0.5,0.4v4.3h2.5c0.3,0,0.6,0.3,0.6,0.6v1.7c0,0.3-0.3,0.6-0.6,0.6h-2.5v8.9c0,1.4,0.1,1.6,1.1,1.6h1.5
			c0.4,0,0.6,0.1,0.6,0.4v1.8C80.4,158.9,80.2,159,79.8,159.1 M64.1,159.3c-1.1,0-3.5-0.2-5.1-0.6c-0.3-0.1-0.5-0.3-0.5-0.7v-1.7
			c0-0.2,0.2-0.4,0.5-0.4h0.1c1.4,0.2,3.9,0.3,4.8,0.3c1.8,0,2-0.6,2-1.4c0-0.5-0.3-0.9-1.2-1.5l-3.9-2.4c-1.4-0.8-2.4-2.3-2.4-3.9
			c0-2.8,1.8-4.3,5.4-4.3c2.3,0,3.6,0.3,5,0.6c0.3,0.1,0.5,0.3,0.5,0.7v1.6c0,0.3-0.2,0.5-0.4,0.5h-0.1c-0.8-0.1-3.1-0.3-4.7-0.3
			c-1.4,0-1.9,0.3-1.9,1.2c0,0.5,0.4,0.7,1.1,1.2l3.7,2.3c2.4,1.4,2.7,2.9,2.7,4.3C69.6,157.3,67.8,159.3,64.1,159.3 M53.2,149.6
			c0-2.2-1.2-3.5-3-3.5c-1.8,0-3,1.2-3,3.5v0.1h6V149.6z M56.4,152.4h-9.2v0.1c0,1.6,0.7,3.6,3.4,3.6c2.1,0,4-0.2,5.2-0.3h0.1
			c0.3,0,0.5,0.2,0.5,0.4v1.9c0,0.5-0.1,0.7-0.6,0.7c-1.8,0.3-2.9,0.5-5.5,0.5c-2.8,0-6.9-1.5-6.9-7.1v-2.1c0-4.4,2.5-7.2,6.8-7.2
			c4.4,0,6.8,3,6.8,7.2v1.6C57,152.1,56.8,152.4,56.4,152.4 M41.2,159h-2.6c-0.3,0-0.6-0.3-0.6-0.6v-20.4c0-0.3,0.3-0.6,0.6-0.6h2.6
			c0.3,0,0.5,0.2,0.5,0.6v20.4C41.7,158.8,41.5,159,41.2,159 M32.3,152h-1.8c-2.6,0-3.1,0.8-3.1,2.4v0.1c0,1.4,0.6,1.8,2,1.8
			c1,0,2.1-0.3,2.9-0.8V152z M35.5,159H33c-0.3,0-0.6-0.3-0.6-0.6V158c-1.3,0.8-2.6,1.3-4,1.3c-2.3,0-4.9-0.9-4.9-4.7v-0.1
			c0-3.2,2-4.9,6.9-4.9h1.8v-1.2c0-1.8-0.8-2.3-2.5-2.3c-1.8,0-3.7,0.1-4.6,0.2H25c-0.3,0-0.5-0.1-0.5-0.5v-1.8
			c0-0.3,0.2-0.5,0.5-0.6c1.1-0.2,2.8-0.5,4.7-0.5c4,0,6.2,1.8,6.2,5.4v10.2C36,158.8,35.8,159,35.5,159 M18.7,149.6
			c0-2.2-1.2-3.5-3-3.5c-1.8,0-3,1.2-3,3.5v0.1h6V149.6z M21.9,152.4h-9.2v0.1c0,1.6,0.7,3.6,3.4,3.6c2.1,0,4-0.2,5.2-0.3h0.1
			c0.3,0,0.5,0.2,0.5,0.4v1.9c0,0.5-0.1,0.7-0.6,0.7c-1.8,0.3-2.9,0.5-5.5,0.5c-2.8,0-6.9-1.5-6.9-7.1v-2.1c0-4.4,2.5-7.2,6.8-7.2
			c4.4,0,6.7,3,6.7,7.2v1.6C22.5,152.1,22.3,152.4,21.9,152.4 M7.7,146c-1.5,0-2.7,0.4-3.9,1v11.4c0,0.3-0.3,0.6-0.6,0.6H0.6
			c-0.3,0-0.6-0.3-0.6-0.6v-14.8c0-0.3,0.3-0.6,0.6-0.6H3c0.3,0,0.6,0.3,0.6,0.6v0.6c1.4-1.1,2.9-1.4,4.1-1.4c0.3,0,0.6,0.3,0.6,0.6
			v2C8.2,145.8,8,146,7.7,146"/>
		<path class="st0" d="M209,139.7h-0.4v0.6h0.4c0.2,0,0.3-0.1,0.3-0.3C209.4,139.8,209.2,139.7,209,139.7 M209.4,141.2l-0.3-0.7
			h-0.4v0.7h-0.3v-1.9h0.7c0.4,0,0.7,0.2,0.7,0.6c0,0.2-0.1,0.4-0.3,0.5l0.4,0.7H209.4z M209,138.8c-0.9,0-1.4,0.6-1.4,1.5
			c0,0.9,0.6,1.5,1.4,1.5c0.9,0,1.4-0.6,1.4-1.5C210.4,139.5,209.8,138.8,209,138.8 M209,142.1c-1,0-1.8-0.8-1.8-1.8
			c0-1,0.8-1.8,1.8-1.8c1,0,1.8,0.8,1.8,1.8C210.7,141.3,210,142.1,209,142.1"/>
	</g>
	<g>
		<polygon class="st0" points="74.4,57.7 85.1,57.7 85.1,90.8 125.7,90.8 125.7,57.7 136.4,57.7 105.4,26.8 		"/>
		<path class="st0" d="M105.7,0c-0.1,0-0.2,0-0.3,0c-34.2,0-62,27.6-62.2,61.9c-0.2,34.4,27.5,62.4,61.9,62.6
			c34.4,0.2,62.4-27.5,62.6-61.9C167.8,28.2,140.1,0.2,105.7,0z M140.5,67.3l-5.1,0c0,0,0,28,0,28c0,2.9-2.3,5.2-5.2,5.2H80.5
			c-2.9,0-5.2-2.4-5.2-5.2c0-0.1,0-28,0-28l-5.1,0c-4.4,0-8-3.6-8-8c0-2.2,0.9-4.2,2.3-5.6v0l37-36.8c1-1,2.3-1.7,3.8-1.7h0
			c1.5,0,2.9,0.6,3.8,1.7l37,36.8v0c1.4,1.4,2.3,3.4,2.3,5.6C148.5,63.7,144.9,67.3,140.5,67.3z"/>
	</g>
</g>
</svg>
