<svg width="338" height="81" viewBox="0 0 338 81" fill="none" xmlns="http://www.w3.org/2000/svg">
<path d="M0.000718334 40.2242C-0.131078 62.5681 17.8899 80.7823 40.2337 80.8966C62.5776 81.0284 80.783 62.9986 80.8973 40.6548C81.0115 18.3197 63.0081 0.114227 40.6643 3.22103e-06C40.594 3.22103e-06 40.5237 3.22103e-06 40.4358 3.22103e-06C18.2062 -0.0087832 0.114942 17.9594 0.000718334 40.2242Z" fill="white"/>
<path d="M54.5906 64.0268H26.2983C24.0578 64.0268 22.239 62.208 22.239 59.9675V43.3348H18.8474C17.2044 43.3348 15.737 42.3507 15.1044 40.8394C14.4718 39.3194 14.8144 37.5885 15.9743 36.4199L37.5625 14.7262C38.3181 13.9706 39.3637 13.5312 40.4356 13.5312C41.5076 13.5312 42.5532 13.9706 43.3088 14.7262L64.897 36.4199C66.0568 37.5885 66.3995 39.3194 65.7669 40.8394C65.1343 42.3595 63.6669 43.3348 62.0239 43.3348H58.6499V59.9675C58.6499 62.208 56.8311 64.0268 54.5906 64.0268ZM40.4444 17.0458C40.2951 17.0458 40.1633 17.0985 40.0578 17.204L18.4696 38.8976C18.3114 39.0558 18.2675 39.2842 18.3554 39.4863C18.4432 39.6884 18.6365 39.8202 18.8562 39.8202H24.005C24.9715 39.8202 25.7623 40.611 25.7623 41.5775V59.9675C25.7623 60.2662 26.0083 60.5122 26.3071 60.5122H54.5993C54.8981 60.5122 55.1441 60.2662 55.1441 59.9675V41.5775C55.1441 40.611 55.9349 39.8202 56.9014 39.8202H62.0502C62.2699 39.8202 62.4632 39.6884 62.5511 39.4863C62.6389 39.2842 62.5862 39.0558 62.4368 38.8976L40.831 17.204C40.7256 17.0985 40.5938 17.0458 40.4444 17.0458Z" fill="#E4002B"/>
<path d="M116.272 58.8429L106.888 45.9268H102.143V58.8429H95.2812V23.5215H109.41C117.432 23.5215 122.379 27.8093 122.379 34.9263C122.379 40.1278 119.198 43.906 114.207 45.3206L124.549 58.8429H116.272ZM102.135 29.628V40.1717H109.05C112.88 40.1717 115.156 38.4057 115.156 34.9263C115.156 31.3414 112.837 29.628 109.05 29.628H102.135Z" fill="white"/>
<path d="M152.348 29.628H134.485V37.7994H150.178V43.8005H134.485V52.7363H152.348V58.8429H127.57V23.5215H152.348V29.628Z" fill="white"/>
<path d="M182.355 58.8429L178.972 49.705H165.758L162.375 58.8429H155.205L169.079 23.5215H175.792L189.718 58.8429H182.355ZM167.822 44.0553H176.908L172.365 31.7456L167.822 44.0553Z" fill="white"/>
<path d="M233.305 39.3974C233.455 40.3551 233.507 41.2162 233.507 42.0772C233.507 53.236 226.03 59.448 216.743 59.448C206.893 59.448 199.064 52.1289 199.064 41.1634C199.064 30.198 206.489 22.8789 216.743 22.8789C223.21 22.8789 229.826 26.2617 232.497 33.1327L226.592 36.2606C224.624 31.5599 221.338 29.1876 216.743 29.1876C210.733 29.1876 206.287 33.6862 206.287 41.1547C206.287 48.5792 211.032 53.1218 216.743 53.1218C222.445 53.1218 225.731 50.0377 226.39 44.9943H216.743V39.3886H233.305V39.3974Z" fill="white"/>
<path d="M251.888 32.2285V39.1961H249.164C246.133 39.1961 243.963 41.3664 243.963 45.2061V58.8426H237.443V32.8348H243.963V36.569C245.43 33.5377 247.803 32.2285 250.526 32.2285H251.888Z" fill="white"/>
<path d="M252.996 45.8104C252.996 37.7796 258.698 32.2266 266.378 32.2266C274.154 32.2266 279.865 37.7796 279.865 45.8104C279.865 53.8939 274.163 59.4469 266.378 59.4469C258.707 59.4469 252.996 53.8851 252.996 45.8104ZM273.196 45.8104C273.196 40.8636 270.27 38.0344 266.378 38.0344C262.538 38.0344 259.665 40.8636 259.665 45.8104C259.665 50.8098 262.547 53.6918 266.378 53.6918C270.27 53.683 273.196 50.8098 273.196 45.8104Z" fill="white"/>
<path d="M283.502 48.3859V32.834H290.065V47.9818C290.065 51.8742 292.139 53.6402 294.959 53.6402C297.841 53.6402 299.862 51.8742 299.862 47.9818V32.834H306.426V48.3859C306.426 55.3536 301.523 59.448 294.959 59.448C288.449 59.448 283.502 55.3536 283.502 48.3859Z" fill="white"/>
<path d="M337.433 45.8123C337.433 53.641 332.486 59.4488 325.764 59.4488C321.872 59.4488 319.297 57.5773 317.681 55.0029V67.3742H311.17V32.8348H317.681V36.569C319.297 34.0473 321.872 32.2285 325.764 32.2285C332.486 32.2285 337.433 38.0363 337.433 45.8123ZM330.772 45.8563C330.772 40.8568 328.049 38.0276 324.209 38.0276C320.325 38.0276 317.593 40.8568 317.593 45.8563C317.593 50.8557 320.317 53.6322 324.209 53.6322C328.04 53.641 330.772 50.8557 330.772 45.8563Z" fill="white"/>
</svg>
