<?xml version="1.0" encoding="UTF-8"?>
<svg width="20px" height="20px" viewBox="0 0 20 20" version="1.1" xmlns="http://www.w3.org/2000/svg" xmlns:xlink="http://www.w3.org/1999/xlink">
    <!-- Generator: Sketch 50 (54983) - http://www.bohemiancoding.com/sketch -->
    <title>buttons / refresh </title>
    <desc>Created with Sketch.</desc>
    <defs>
        <polygon id="path-1" points="0 0 18.5428571 0 18.5428571 18.8571429 0 18.8571429"></polygon>
    </defs>
    <g id="Symbols" stroke="none" stroke-width="1" fill="none" fill-rule="evenodd">
        <g id="agent-branded---white" transform="translate(-1589.000000, -30.000000)">
            <g id="title-strip">
                <g id="buttons-/-refresh---pebble" transform="translate(1588.000000, 29.000000)">
                    <g id="Page-1" transform="translate(1.571429, 1.257143)">
                        <mask id="mask-2" fill="white">
                            <use xlink:href="#path-1"></use>
                        </mask>
                        <g id="Clip-2"></g>
                        <path d="M4.13226118,6.17953521 L4.13226118,8.29165902 L0,4.15850789 C1.31777951,2.82868694 2.69141318,1.4415785 4.12090101,0 L4.12090101,2.18443752 C4.39733177,2.18443752 4.61790837,2.18443752 4.83848497,2.18443752 C6.71764613,2.18819408 8.59775396,2.16377646 10.4769151,2.19946375 C14.5911894,2.27929057 18.2027762,5.70808738 18.5142341,9.70694162 C18.8985865,14.6242739 15.3523206,18.2822206 11.4737699,18.7142246 C9.40811263,18.9452528 7.30269479,18.8184691 5.21526388,18.8513389 C4.93883312,18.8560346 4.66145568,18.8522781 4.3518911,18.8522781 L4.3518911,14.9013199 C4.71352312,14.9013199 5.042968,14.9013199 5.37335956,14.9013199 C6.97135655,14.9013199 8.57030022,14.9210418 10.1682972,14.8985025 C12.5274255,14.8637544 14.3516792,13.1902085 14.544802,10.7982212 C14.7142579,8.69924538 13.2970769,6.7608623 11.1395916,6.25372719 C10.8688409,6.18986574 10.5848367,6.14478706 10.3074593,6.14384792 C8.375284,6.13445653 6.44310873,6.13821309 4.51093345,6.14009136 C4.40869194,6.14009136 4.30739711,6.16075242 4.13226118,6.17953521" id="Fill-1" fill="#697684" mask="url(#mask-2)"></path>
                    </g>
                </g>
            </g>
        </g>
    </g>
</svg>