<svg width="44" height="46" viewBox="0 0 44 46" fill="none" xmlns="http://www.w3.org/2000/svg">
<path d="M20.552 21.0558V18.8238H12.29V21.2358H17.204L14.558 23.8998V25.9518H15.926C17.33 25.9518 18.266 26.4378 18.266 27.5718C18.266 28.5978 17.474 29.1738 16.34 29.1738C15.188 29.1738 14.27 28.5798 13.586 27.3198L11.48 28.6698C12.452 30.9018 14.414 31.6578 16.34 31.6578C19.184 31.6578 21.128 30.1278 21.128 27.5358C21.128 25.5918 19.958 24.2238 17.798 23.8098L20.552 21.0558ZM27.3767 18.5898C24.5147 18.5898 22.3727 20.6958 22.3727 25.1418C22.3727 29.5518 24.5147 31.6578 27.3767 31.6578C30.2387 31.6578 32.3807 29.5518 32.3807 25.1418C32.3807 20.6958 30.2387 18.5898 27.3767 18.5898ZM27.3767 21.0558C28.9607 21.0558 29.5187 22.5498 29.5187 25.1238C29.5187 27.6978 28.9607 29.1918 27.3767 29.1918C25.7927 29.1918 25.2347 27.6978 25.2347 25.1238C25.2347 22.5498 25.7927 21.0558 27.3767 21.0558Z" fill="#716E75"/>
<path d="M40.1744 35.1279C41.7899 32.1412 42.7995 28.7562 42.7995 25.172C42.7995 16.61 37.5492 9.24262 29.8757 6.25586L28.6641 9.83998C34.7221 12.4285 38.9628 18.402 38.9628 25.172C38.9628 28.1588 38.155 30.9465 36.7415 33.3359L33.3086 31.5438L35.5299 39.1103L43.2034 36.92L40.1744 35.1279Z" fill="#716E75"/>
<path d="M5.03599 25.3704V25.1713C5.03599 16.6092 11.6999 9.44097 20.1811 8.44538V12.0295L25.8353 6.4542L20.1811 0.878906V4.66214C9.47857 5.65773 1.19922 14.4189 1.19922 25.1713C1.19922 25.3704 1.19922 25.7686 1.19922 25.9677L5.03599 25.3704Z" fill="#716E75"/>
<path d="M31.0872 39.5068L33.5104 42.4935C30.2794 44.4847 26.4427 45.8785 22.202 45.8785C14.5285 45.8785 7.66268 41.6971 4.22978 35.5244L0.796875 37.3165L2.81623 29.75L10.6917 31.7412L7.46074 33.7324C10.4898 38.7103 15.942 42.2944 22.202 42.2944C25.433 42.0953 28.462 41.0997 31.0872 39.5068Z" fill="#716E75"/>
</svg>
