<svg width="43" height="46" viewBox="0 0 43 46" fill="none" xmlns="http://www.w3.org/2000/svg">
<path d="M13.9939 18.8238V21.2358H15.7579V31.4238H18.4759V18.8238H13.9939ZM25.3872 23.2518C24.6492 23.2518 24.0552 23.4498 23.5332 23.8098L23.9472 21.2358H28.9512V18.8238H21.8592L20.6352 26.4918H22.8312C23.2452 25.8618 23.8392 25.5558 24.5232 25.5558C25.6752 25.5558 26.3952 26.2578 26.3952 27.3738C26.3952 28.4718 25.6752 29.1738 24.4692 29.1738C23.3892 29.1738 22.7052 28.5798 22.0032 27.4098L19.8612 28.8318C20.8872 30.7038 22.3632 31.6578 24.5052 31.6578C26.9892 31.6578 29.2572 30.1278 29.2572 27.2478C29.2572 25.4838 28.1232 23.2518 25.3872 23.2518Z" fill="#716E75"/>
<path d="M39.6744 35.1279C41.2899 32.1412 42.2995 28.7562 42.2995 25.172C42.2995 16.61 37.0492 9.24262 29.3757 6.25586L28.1641 9.83998C34.2221 12.4285 38.4628 18.402 38.4628 25.172C38.4628 28.1588 37.655 30.9465 36.2415 33.3359L32.8086 31.5438L35.0299 39.1103L42.7034 36.92L39.6744 35.1279Z" fill="#716E75"/>
<path d="M4.53599 25.3704V25.1713C4.53599 16.6092 11.1999 9.44097 19.6811 8.44538V12.0295L25.3353 6.4542L19.6811 0.878906V4.66214C8.97857 5.65773 0.699219 14.4189 0.699219 25.1713C0.699219 25.3704 0.699219 25.7686 0.699219 25.9677L4.53599 25.3704Z" fill="#716E75"/>
<path d="M30.5872 39.5068L33.0104 42.4935C29.7794 44.4847 25.9427 45.8785 21.702 45.8785C14.0285 45.8785 7.16268 41.6971 3.72978 35.5244L0.296875 37.3165L2.31623 29.75L10.1917 31.7412L6.96074 33.7324C9.98977 38.7103 15.442 42.2944 21.702 42.2944C24.933 42.0953 27.962 41.0997 30.5872 39.5068Z" fill="#716E75"/>
</svg>
