<svg width="43" height="46" viewBox="0 0 43 46" fill="none" xmlns="http://www.w3.org/2000/svg">
<path d="M13.9932 18.1939V20.6059H15.7572V30.7939H18.4752V18.1939H13.9932ZM25.3865 22.6219C24.6485 22.6219 24.0545 22.8199 23.5325 23.1799L23.9465 20.6059H28.9505V18.1939H21.8585L20.6345 25.8619H22.8305C23.2445 25.2319 23.8385 24.9259 24.5225 24.9259C25.6745 24.9259 26.3945 25.6279 26.3945 26.7439C26.3945 27.8419 25.6745 28.5439 24.4685 28.5439C23.3885 28.5439 22.7045 27.9499 22.0025 26.7799L19.8605 28.2019C20.8865 30.0739 22.3625 31.0279 24.5045 31.0279C26.9885 31.0279 29.2565 29.4979 29.2565 26.6179C29.2565 24.8539 28.1225 22.6219 25.3865 22.6219Z" fill="#8154AB"/>
<path d="M39.6749 34.4966C41.2904 31.5098 42.3 28.1248 42.3 24.5407C42.3 15.9786 37.0497 8.61128 29.3762 5.62451L28.1646 9.20863C34.2226 11.7972 38.4633 17.7707 38.4633 24.5407C38.4633 27.5275 37.6555 30.3151 36.242 32.7045L32.8091 30.9125L35.0304 38.4789L42.7039 36.2886L39.6749 34.4966Z" fill="#8154AB"/>
<path d="M4.53672 24.7395V24.5404C4.53672 15.9783 11.2006 8.81011 19.6819 7.81452V11.3986L25.3361 5.82334L19.6819 0.248047V4.03128C8.9793 5.02687 0.699951 13.788 0.699951 24.5404C0.699951 24.7395 0.699951 25.1378 0.699951 25.3369L4.53672 24.7395Z" fill="#8154AB"/>
<path d="M30.5872 38.8754L33.0104 41.8622C29.7794 43.8534 25.9427 45.2472 21.702 45.2472C14.0285 45.2472 7.16268 41.0657 3.72978 34.8931L0.296875 36.6851L2.31623 29.1187L10.1917 31.1098L6.96074 33.101C9.98977 38.079 15.442 41.6631 21.702 41.6631C24.933 41.464 27.962 40.4684 30.5872 38.8754Z" fill="#8154AB"/>
</svg>
