<!-- Generator: Adobe Illustrator 21.0.2, SVG Export Plug-In  -->
<svg version="1.1" xmlns="http://www.w3.org/2000/svg" xmlns:xlink="http://www.w3.org/1999/xlink" xmlns:a="http://ns.adobe.com/AdobeSVGViewerExtensions/3.0/" width="8px" height="8px" x="0px" y="0px" viewBox="0 0 8 8" style="enable-background:new 0 0 8 8;" xml:space="preserve">
<style type="text/css">
	.st0{fill:#999EAA;}
</style>
<defs>
</defs>
<path class="st0" d="M4.5,5.3c-1.3,0.8-3,0.5-3.9-0.7c-0.8-1.2-0.7-2.7,0.3-3.8c1-1,2.6-1.2,3.8-0.3s1.5,2.6,0.7,3.9l0.1,0.1
	C6.2,5.4,7,6.2,7.8,7c0.3,0.3,0.2,0.5,0,0.7C7.8,7.8,7.8,7.8,7.7,7.8C7.5,8.1,7.2,8.1,7,7.8C6.5,7.4,6,6.9,5.6,6.4
	C5.2,6.1,4.8,5.7,4.5,5.3C4.5,5.4,4.5,5.3,4.5,5.3z M0.9,2.9c0,1.1,0.8,1.9,1.9,1.9s2-0.8,2-1.9C4.9,1.8,4,1,2.9,1
	C1.8,0.9,0.9,1.8,0.9,2.9z"/>
</svg>
