<svg width="25" height="25" viewBox="0 0 25 25" fill="none" xmlns="http://www.w3.org/2000/svg">
<path fill-rule="evenodd" clip-rule="evenodd" d="M12.5 0C5.625 0 0 5.625 0 12.5C0 19.375 5.625 25 12.5 25C19.375 25 25 19.375 25 12.5C25 5.625 19.375 0 12.5 0ZM12.5 23.4375C6.48438 23.4375 1.5625 18.5156 1.5625 12.5C1.5625 6.48438 6.48438 1.5625 12.5 1.5625C18.5156 1.5625 23.4375 6.48438 23.4375 12.5C23.4375 18.5156 18.5156 23.4375 12.5 23.4375Z" fill="#66408D"/>
<path fill-rule="evenodd" clip-rule="evenodd" d="M16.7969 9.60938L11.25 15.1562C10.9375 15.4687 10.9375 15.9375 11.25 16.1719C11.5625 16.4844 12.0313 16.4844 12.2656 16.1719L17.8125 10.625C18.125 10.3125 18.125 9.84375 17.8125 9.60938C17.5781 9.29688 17.1094 9.29688 16.7969 9.60938Z" fill="#66408D"/>
<path fill-rule="evenodd" clip-rule="evenodd" d="M9.0625 11.9531L12.2656 15.1562C12.5781 15.4687 12.5781 15.9375 12.2656 16.1719C11.9531 16.4844 11.4844 16.4844 11.25 16.1719L8.04688 12.9688C7.73438 12.6563 7.73438 12.1875 8.04688 11.9531C8.35938 11.6406 8.82813 11.6406 9.0625 11.9531Z" fill="#66408D"/>
</svg>
