<svg width="36" height="39" viewBox="0 0 36 39" fill="none" xmlns="http://www.w3.org/2000/svg">
<g clip-path="url(#clip0_295_4285)">
<path d="M17.4474 0.218295L1.42105 7.0667C0.868421 7.25179 0.5 7.80706 0.5 8.54743C0.5 9.2878 0.868421 9.84307 1.42105 10.2133L17.2632 17.0617C17.4474 17.0617 17.6316 17.2468 17.8158 17.2468C18 17.2468 18.1842 17.2467 18.3684 17.0617L34.2105 10.2133C35.1316 9.84307 35.5 9.2878 35.5 8.54743C35.5 7.80706 35.1316 7.25179 34.5789 6.8816L18.5526 0.218295C18.3684 0.0332031 18.1842 0.0332031 18 0.0332031C17.8158 0.0332031 17.6316 0.0332031 17.4474 0.218295Z" fill="#8154AB"/>
<path d="M33.2895 14.2852L18 20.7634L2.71053 14.2852C2.52632 14.2852 2.34211 14.2852 2.15789 14.2852C1.23684 14.2852 0.5 15.0255 0.5 15.951C0.5 16.6914 0.868421 17.2466 1.42105 17.4317L17.2632 24.2801C17.4474 24.2801 17.6316 24.4652 17.8158 24.4652C18 24.4652 18.1842 24.4652 18.3684 24.2801L34.2105 17.4317C35.1316 17.2466 35.5 16.6914 35.5 15.951C35.5 15.0255 34.7632 14.2852 33.8421 14.2852C33.6579 14.2852 33.4737 14.2852 33.2895 14.2852Z" fill="#E9DAF7"/>
<path d="M33.2895 21.689L18 28.1672L2.71053 21.689C2.52632 21.689 2.34211 21.5039 2.15789 21.5039C1.23684 21.5039 0.5 22.2443 0.5 23.1697C0.5 23.9101 0.868421 24.4654 1.42105 24.8356L17.2632 31.684C17.4474 31.684 17.6316 31.8691 17.8158 31.8691C18 31.8691 18.1842 31.8691 18.3684 31.684L34.2105 24.8356C34.7632 24.6505 35.1316 23.9101 35.1316 23.3548C35.1316 22.4294 34.3947 21.689 33.4737 21.689C33.6579 21.689 33.4737 21.689 33.2895 21.689Z" fill="#E9DAF7"/>
<path d="M33.2895 28.7222L18 35.2004L2.71053 28.7222C2.52632 28.7222 2.34211 28.5371 2.15789 28.5371C1.23684 28.5371 0.5 29.2775 0.5 30.2029C0.5 30.9433 0.868421 31.4986 1.42105 31.8688L17.2632 38.7172C17.4474 38.7172 17.6316 38.9023 17.8158 38.9023C18 38.9023 18.1842 38.9023 18.3684 38.7172L34.2105 31.8688C34.7632 31.6837 35.1316 30.9433 35.1316 30.2029C35.1316 29.2775 34.3947 28.5371 33.4737 28.5371C33.6579 28.5371 33.4737 28.5371 33.2895 28.7222Z" fill="#E9DAF7"/>
</g>
<defs>
<clipPath id="clip0_295_4285">
<rect width="35" height="38.6842" fill="white" transform="translate(0.5 0.0332031)"/>
</clipPath>
</defs>
</svg>
