<svg width="36" height="40" viewBox="0 0 36 40" fill="none" xmlns="http://www.w3.org/2000/svg">
<g clip-path="url(#clip0_265_8307)">
<path d="M33.2895 14.916L18 21.3942L2.71053 14.916C2.52632 14.916 2.34211 14.916 2.15789 14.916C1.23684 14.916 0.5 15.6564 0.5 16.5818C0.5 17.3222 0.868421 17.8775 1.42105 18.0626L17.2632 24.911C17.4474 24.911 17.6316 25.0961 17.8158 25.0961C18 25.0961 18.1842 25.0961 18.3684 24.911L34.2105 18.0626C35.1316 17.8775 35.5 17.3222 35.5 16.5818C35.5 15.6564 34.7632 14.916 33.8421 14.916C33.6579 14.916 33.4737 14.916 33.2895 14.916Z" fill="#D0D0D0"/>
<path d="M17.4474 0.849154L1.42105 7.69756C0.868421 7.88265 0.5 8.43792 0.5 9.17829C0.5 9.91866 0.868421 10.4739 1.42105 10.8441L17.2632 17.6925C17.4474 17.6925 17.6316 17.8776 17.8158 17.8776C18 17.8776 18.1842 17.8776 18.3684 17.6925L34.2105 10.8441C35.1316 10.4739 35.5 9.91866 35.5 9.17829C35.5 8.43792 35.1316 7.88265 34.5789 7.51246L18.5526 0.849154C18.3684 0.664062 18.1842 0.664062 18 0.664062C17.8158 0.664062 17.6316 0.664062 17.4474 0.849154Z" fill="#716E75"/>
<path d="M33.2895 22.3199L18 28.7981L2.71053 22.3199C2.52632 22.3199 2.34211 22.1348 2.15789 22.1348C1.23684 22.1348 0.5 22.8751 0.5 23.8006C0.5 24.541 0.868421 25.0962 1.42105 25.4664L17.2632 32.3148C17.4474 32.3148 17.6316 32.4999 17.8158 32.4999C18 32.4999 18.1842 32.4999 18.3684 32.3148L34.2105 25.4664C34.7632 25.2813 35.1316 24.541 35.1316 23.9857C35.1316 23.0602 34.3947 22.3199 33.4737 22.3199C33.6579 22.3199 33.4737 22.3199 33.2895 22.3199Z" fill="#D0D0D0"/>
<path d="M33.2895 29.3531L18 35.8313L2.71053 29.3531C2.52632 29.3531 2.34211 29.168 2.15789 29.168C1.23684 29.168 0.5 29.9083 0.5 30.8338C0.5 31.5742 0.868421 32.1294 1.42105 32.4996L17.2632 39.348C17.4474 39.348 17.6316 39.5331 17.8158 39.5331C18 39.5331 18.1842 39.5331 18.3684 39.348L34.2105 32.4996C34.7632 32.3145 35.1316 31.5742 35.1316 30.8338C35.1316 29.9083 34.3947 29.168 33.4737 29.168C33.6579 29.168 33.4737 29.168 33.2895 29.3531Z" fill="#D0D0D0"/>
</g>
<defs>
<clipPath id="clip0_265_8307">
<rect width="35" height="38.6842" fill="white" transform="translate(0.5 0.664062)"/>
</clipPath>
</defs>
</svg>
