<svg width="157" height="243" viewBox="0 0 157 243" fill="none" xmlns="http://www.w3.org/2000/svg">
<path d="M0 243L-1.01848e-05 10C-1.04262e-05 4.47714 4.47714 -1.95703e-07 9.99999 -4.37114e-07L58 -2.53526e-06C63.5228 -2.77667e-06 68 4.47715 68 10L68 243L0 243Z" fill="#66408D"/>
<path d="M89 243L89 67C89 61.4772 93.4771 57 99 57L147 57C152.523 57 157 61.4772 157 67L157 243L89 243Z" fill="white"/>
<path d="M115.97 218.566C115.97 215.206 117.77 213.286 120.59 213.286C123.39 213.286 125.15 215.206 125.15 218.546L125.15 221.286L129.97 221.286L129.97 224.006L115.97 224.006L115.97 218.566ZM122.81 221.286L122.81 218.766C122.81 217.126 122.07 216.146 120.59 216.146C119.13 216.146 118.39 217.126 118.39 218.766L118.39 221.286L122.81 221.286ZM119.43 206.702L119.43 206.162L122.19 206.162L122.19 207.242C122.19 208.442 123.05 209.302 124.57 209.302L129.97 209.302L129.97 211.882L119.67 211.882L119.67 209.302L121.15 209.302C119.95 208.722 119.43 207.782 119.43 206.702ZM124.79 195.82C124.97 195.82 125.21 195.82 125.39 195.84L125.39 203.1C127.21 202.94 128.01 201.98 128.01 200.66C128.01 199.44 127.45 198.56 126.05 198.02L126.85 195.84C129.17 196.64 130.21 198.46 130.21 200.56C130.21 203.6 128.05 205.72 124.81 205.72C121.61 205.72 119.43 203.64 119.43 200.68C119.43 197.82 121.59 195.82 124.79 195.82ZM121.51 200.68C121.51 201.94 122.21 202.74 123.63 203.02L123.63 198.44C122.17 198.72 121.51 199.54 121.51 200.68ZM119.43 183.065C119.43 181.025 120.91 179.505 123.17 179.505L129.97 179.505L129.97 182.085L123.69 182.085C122.39 182.085 121.67 182.765 121.67 183.685C121.67 184.785 122.43 185.585 123.77 185.585L129.97 185.585L129.97 188.165L123.69 188.165C122.39 188.165 121.67 188.845 121.67 189.765C121.67 190.865 122.43 191.665 123.77 191.665L129.97 191.665L129.97 194.245L119.67 194.245L119.67 191.665L120.95 191.665C119.89 191.085 119.43 190.125 119.43 189.005C119.43 187.725 120.05 186.645 121.13 186.065C119.93 185.445 119.43 184.365 119.43 183.065ZM118.49 176.304C118.49 177.224 117.93 177.964 116.95 177.964C115.99 177.964 115.39 177.224 115.39 176.304C115.39 175.384 115.99 174.644 116.95 174.644C117.93 174.644 118.49 175.384 118.49 176.304ZM119.67 177.604L119.67 175.024L129.97 175.024L129.97 177.604L119.67 177.604ZM124.79 163.574C124.97 163.574 125.21 163.574 125.39 163.594L125.39 170.854C127.21 170.694 128.01 169.734 128.01 168.414C128.01 167.194 127.45 166.314 126.05 165.774L126.85 163.594C129.17 164.394 130.21 166.214 130.21 168.314C130.21 171.354 128.05 173.474 124.81 173.474C121.61 173.474 119.43 171.394 119.43 168.434C119.43 165.574 121.59 163.574 124.79 163.574ZM121.51 168.434C121.51 169.694 122.21 170.494 123.63 170.774L123.63 166.194C122.17 166.474 121.51 167.294 121.51 168.434ZM119.43 156.819L119.43 156.279L122.19 156.279L122.19 157.359C122.19 158.559 123.05 159.419 124.57 159.419L129.97 159.419L129.97 161.999L119.67 161.999L119.67 159.419L121.15 159.419C119.95 158.839 119.43 157.899 119.43 156.819ZM124.79 145.937C124.97 145.937 125.21 145.937 125.39 145.957L125.39 153.217C127.21 153.057 128.01 152.097 128.01 150.777C128.01 149.557 127.45 148.677 126.05 148.137L126.85 145.957C129.17 146.757 130.21 148.577 130.21 150.677C130.21 153.717 128.05 155.837 124.81 155.837C121.61 155.837 119.43 153.757 119.43 150.797C119.43 147.937 121.59 145.937 124.79 145.937ZM121.51 150.797C121.51 152.057 122.21 152.857 123.63 153.137L123.63 148.557C122.17 148.837 121.51 149.657 121.51 150.797Z" fill="#3E3B41"/>
<path d="M27 218.566L27 224.006L41 224.006L41 221.286L36.18 221.286L36.18 218.546C36.18 215.206 34.42 213.286 31.62 213.286C28.8 213.286 27 215.206 27 218.566ZM33.84 221.286L29.42 221.286L29.42 218.766C29.42 217.126 30.16 216.146 31.62 216.146C33.1 216.146 33.84 217.126 33.84 218.766L33.84 221.286ZM30.46 206.702C30.46 207.782 30.98 208.722 32.18 209.302L30.7 209.302L30.7 211.882L41 211.882L41 209.302L35.6 209.302C34.08 209.302 33.22 208.442 33.22 207.242L33.22 206.162L30.46 206.162L30.46 206.702ZM35.82 195.82C32.62 195.82 30.46 197.82 30.46 200.68C30.46 203.64 32.64 205.72 35.84 205.72C39.08 205.72 41.24 203.6 41.24 200.56C41.24 198.46 40.2 196.64 37.88 195.84L37.08 198.02C38.48 198.56 39.04 199.44 39.04 200.66C39.04 201.98 38.24 202.94 36.42 203.1L36.42 195.84C36.24 195.82 36 195.82 35.82 195.82ZM32.54 200.68C32.54 199.54 33.2 198.72 34.66 198.44L34.66 203.02C33.24 202.74 32.54 201.94 32.54 200.68ZM30.46 183.065C30.46 184.365 30.96 185.445 32.16 186.065C31.08 186.645 30.46 187.725 30.46 189.005C30.46 190.125 30.92 191.085 31.98 191.665L30.7 191.665L30.7 194.245L41 194.245L41 191.665L34.8 191.665C33.46 191.665 32.7 190.865 32.7 189.765C32.7 188.845 33.42 188.165 34.72 188.165L41 188.165L41 185.585L34.8 185.585C33.46 185.585 32.7 184.785 32.7 183.685C32.7 182.765 33.42 182.085 34.72 182.085L41 182.085L41 179.505L34.2 179.505C31.94 179.505 30.46 181.025 30.46 183.065ZM29.52 176.304C29.52 175.384 28.96 174.644 27.98 174.644C27.02 174.644 26.42 175.384 26.42 176.304C26.42 177.224 27.02 177.964 27.98 177.964C28.96 177.964 29.52 177.224 29.52 176.304ZM30.7 177.604L41 177.604L41 175.024L30.7 175.024L30.7 177.604ZM35.82 163.574C32.62 163.574 30.46 165.574 30.46 168.434C30.46 171.394 32.64 173.474 35.84 173.474C39.08 173.474 41.24 171.354 41.24 168.314C41.24 166.214 40.2 164.394 37.88 163.594L37.08 165.774C38.48 166.314 39.04 167.194 39.04 168.414C39.04 169.734 38.24 170.694 36.42 170.854L36.42 163.594C36.24 163.574 36 163.574 35.82 163.574ZM32.54 168.434C32.54 167.294 33.2 166.474 34.66 166.194L34.66 170.774C33.24 170.494 32.54 169.694 32.54 168.434ZM30.46 156.819C30.46 157.899 30.98 158.839 32.18 159.419L30.7 159.419L30.7 161.999L41 161.999L41 159.419L35.6 159.419C34.08 159.419 33.22 158.559 33.22 157.359L33.22 156.279L30.46 156.279L30.46 156.819ZM35.82 145.937C32.62 145.937 30.46 147.937 30.46 150.797C30.46 153.757 32.64 155.837 35.84 155.837C39.08 155.837 41.24 153.717 41.24 150.677C41.24 148.577 40.2 146.757 37.88 145.957L37.08 148.137C38.48 148.677 39.04 149.557 39.04 150.777C39.04 152.097 38.24 153.057 36.42 153.217L36.42 145.957C36.24 145.937 36 145.937 35.82 145.937ZM32.54 150.797C32.54 149.657 33.2 148.837 34.66 148.557L34.66 153.137C33.24 152.857 32.54 152.057 32.54 150.797ZM34.24 138.302L31.54 138.302L31.54 140.462L34.24 140.462L34.24 143.062L36.4 143.062L36.4 140.462L39.14 140.462L39.14 138.302L36.4 138.302L36.4 135.662L34.24 135.662L34.24 138.302Z" fill="white"/>
<line x1="4.37114e-08" y1="242.5" x2="157" y2="242.5" stroke="#3E3B41"/>
</svg>
