<svg width="92" height="92" viewBox="0 0 92 92" fill="none" xmlns="http://www.w3.org/2000/svg">
<path fill-rule="evenodd" clip-rule="evenodd" d="M7.66683 10.5415C7.13756 10.5415 6.7085 10.9706 6.7085 11.4998V80.4998C6.7085 81.0291 7.13756 81.4582 7.66683 81.4582H57.5002C59.088 81.4582 60.3752 82.7454 60.3752 84.3332C60.3752 85.921 59.088 87.2082 57.5002 87.2082H7.66683C3.96192 87.2082 0.958496 84.2047 0.958496 80.4998V11.4998C0.958496 7.79493 3.96192 4.7915 7.66683 4.7915H84.3335C88.0384 4.7915 91.0418 7.79493 91.0418 11.4998V53.6665C91.0418 55.2543 89.7547 56.5415 88.1668 56.5415C86.579 56.5415 85.2918 55.2543 85.2918 53.6665V11.4998C85.2918 10.9706 84.8628 10.5415 84.3335 10.5415H7.66683Z" fill="white"/>
<path fill-rule="evenodd" clip-rule="evenodd" d="M15.3335 4.7915C16.9213 4.7915 18.2085 6.07869 18.2085 7.6665V19.1665C18.2085 20.7543 16.9213 22.0415 15.3335 22.0415H3.8335C2.24568 22.0415 0.958496 20.7543 0.958496 19.1665C0.958496 17.5787 2.24568 16.2915 3.8335 16.2915H12.4585V7.6665C12.4585 6.07869 13.7457 4.7915 15.3335 4.7915Z" fill="white"/>
<path fill-rule="evenodd" clip-rule="evenodd" d="M12.4585 16.2915H91.0418V22.0415H12.4585V16.2915ZM12.4585 27.7915H79.5418V45.0415H12.4585V27.7915ZM18.2085 33.5415V39.2915H73.7918V33.5415H18.2085Z" fill="white"/>
<path fill-rule="evenodd" clip-rule="evenodd" d="M12.4585 50.7915H37.3752V75.7082H12.4585V50.7915ZM18.2085 56.5415V69.9582H31.6252V56.5415H18.2085Z" fill="white"/>
<path fill-rule="evenodd" clip-rule="evenodd" d="M69 56.5415C64.2365 56.5415 60.375 60.403 60.375 65.1665C60.375 69.93 64.2365 73.7915 69 73.7915C73.7635 73.7915 77.625 69.93 77.625 65.1665C77.625 60.403 73.7635 56.5415 69 56.5415ZM54.625 65.1665C54.625 57.2274 61.0609 50.7915 69 50.7915C76.9391 50.7915 83.375 57.2274 83.375 65.1665C83.375 73.1056 76.9391 79.5415 69 79.5415C61.0609 79.5415 54.625 73.1056 54.625 65.1665Z" fill="white"/>
<path fill-rule="evenodd" clip-rule="evenodd" d="M76.5506 72.7171C77.6733 71.5943 79.4937 71.5943 80.6164 72.7171L86.3664 78.4671C87.4892 79.5898 87.4892 81.4102 86.3664 82.5329C85.2437 83.6557 83.4233 83.6557 82.3006 82.5329L76.5506 76.7829C75.4278 75.6602 75.4278 73.8398 76.5506 72.7171Z" fill="white"/>
</svg>
