<svg width="27" height="20" viewBox="0 0 27 20" fill="none" xmlns="http://www.w3.org/2000/svg">
<path d="M18.2012 11.6764L23.1439 4.2583" stroke="white" stroke-width="2" stroke-miterlimit="10"/>
<path d="M11.4863 10.6919L15.4208 12.6611" stroke="white" stroke-width="2" stroke-miterlimit="10"/>
<path d="M4.03711 15.7573L8.63587 11.1545" stroke="white" stroke-width="2" stroke-miterlimit="10"/>
<path d="M2.7794 18.7939C3.76213 18.7939 4.5588 17.9972 4.5588 17.0145C4.5588 16.0318 3.76213 15.2351 2.7794 15.2351C1.79666 15.2351 1 16.0318 1 17.0145C1 17.9972 1.79666 18.7939 2.7794 18.7939Z" stroke="white" stroke-width="2" stroke-linecap="round" stroke-linejoin="round"/>
<path d="M9.89659 11.6765C10.8793 11.6765 11.676 10.8798 11.676 9.89707C11.676 8.91434 10.8793 8.11768 9.89659 8.11768C8.91385 8.11768 8.11719 8.91434 8.11719 9.89707C8.11719 10.8798 8.91385 11.6765 9.89659 11.6765Z" stroke="white" stroke-width="2" stroke-linecap="round" stroke-linejoin="round"/>
<path d="M17.0147 15.2351C17.9975 15.2351 18.7941 14.4384 18.7941 13.4557C18.7941 12.4729 17.9975 11.6763 17.0147 11.6763C16.032 11.6763 15.2354 12.4729 15.2354 13.4557C15.2354 14.4384 16.032 15.2351 17.0147 15.2351Z" stroke="white" stroke-width="2" stroke-linecap="round" stroke-linejoin="round"/>
<path d="M24.1319 4.5588C25.1147 4.5588 25.9113 3.76213 25.9113 2.7794C25.9113 1.79666 25.1147 1 24.1319 1C23.1492 1 22.3525 1.79666 22.3525 2.7794C22.3525 3.76213 23.1492 4.5588 24.1319 4.5588Z" stroke="white" stroke-width="2" stroke-linecap="round" stroke-linejoin="round"/>
</svg>
