<svg width="157" height="266" viewBox="0 0 157 266" fill="none" xmlns="http://www.w3.org/2000/svg">
<path d="M0 266L0 10C0 4.47714 4.47715 -1.95703e-07 10 -4.37114e-07L58 -2.53526e-06C63.5229 -2.77667e-06 68 4.47714 68 10L68 266L0 266Z" fill="#66408D"/>
<path d="M89 266L89 154C89 148.477 93.4771 144 99 144L147 144C152.523 144 157 148.477 157 154L157 266L89 266Z" fill="white"/>
<path d="M115.97 237.285L118.41 237.285L118.41 244.285L122.05 244.285L122.05 238.205L124.47 238.205L124.47 244.285L129.97 244.285L129.97 247.005L115.97 247.005L115.97 237.285ZM124.79 226.808C124.97 226.808 125.21 226.808 125.39 226.828L125.39 234.088C127.21 233.928 128.01 232.968 128.01 231.648C128.01 230.428 127.45 229.548 126.05 229.008L126.85 226.828C129.17 227.628 130.21 229.448 130.21 231.548C130.21 234.588 128.05 236.708 124.81 236.708C121.61 236.708 119.43 234.628 119.43 231.668C119.43 228.808 121.59 226.808 124.79 226.808ZM121.51 231.668C121.51 232.928 122.21 233.728 123.63 234.008L123.63 229.428C122.17 229.708 121.51 230.528 121.51 231.668ZM119.43 220.932C119.43 218.452 120.71 216.312 123.49 216.312L129.97 216.312L129.97 218.712L128.97 218.712C129.79 219.332 130.21 220.392 130.21 221.752C130.21 224.152 129.01 225.732 126.99 225.732C125.05 225.732 123.79 224.092 123.79 221.572C123.79 220.392 124.13 219.492 124.69 218.892L123.75 218.892C122.37 218.892 121.73 219.692 121.73 221.032C121.73 222.172 122.33 222.952 123.37 223.332L122.47 225.472C120.29 224.772 119.43 222.972 119.43 220.932ZM128.33 220.952C128.33 219.692 127.85 218.832 126.97 218.832C126.09 218.832 125.59 219.692 125.59 220.952C125.59 222.212 126.09 223.072 126.97 223.072C127.85 223.072 128.33 222.212 128.33 220.952ZM119.67 208.666L121.73 208.666L121.73 210.966L126.27 210.966C127.25 210.966 127.75 210.566 127.75 209.766L127.75 208.666L129.97 208.666L129.97 210.086C129.97 212.286 128.59 213.546 126.39 213.546L121.73 213.546L121.73 215.426L119.67 215.426L119.67 213.546L117.69 213.546L116.27 210.966L119.67 210.966L119.67 208.666ZM130.21 202.805C130.21 205.385 128.59 207.345 125.83 207.345L119.67 207.345L119.67 204.745L125.67 204.745C127.21 204.745 127.91 203.925 127.91 202.805C127.91 201.665 127.21 200.865 125.67 200.865L119.67 200.865L119.67 198.265L125.83 198.265C128.59 198.265 130.21 200.205 130.21 202.805ZM119.43 191.205L119.43 190.665L122.19 190.665L122.19 191.745C122.19 192.945 123.05 193.805 124.57 193.805L129.97 193.805L129.97 196.385L119.67 196.385L119.67 193.805L121.15 193.805C119.95 193.225 119.43 192.285 119.43 191.205ZM124.79 180.323C124.97 180.323 125.21 180.323 125.39 180.343L125.39 187.603C127.21 187.443 128.01 186.483 128.01 185.163C128.01 183.943 127.45 183.063 126.05 182.523L126.85 180.343C129.17 181.143 130.21 182.963 130.21 185.063C130.21 188.103 128.05 190.223 124.81 190.223C121.61 190.223 119.43 188.143 119.43 185.183C119.43 182.323 121.59 180.323 124.79 180.323ZM121.51 185.183C121.51 186.443 122.21 187.243 123.63 187.523L123.63 182.943C122.17 183.223 121.51 184.043 121.51 185.183Z" fill="#3E3B41"/>
<path d="M27 241.565C27 238.205 28.8 236.285 31.62 236.285C34.42 236.285 36.18 238.205 36.18 241.545L36.18 244.285L41 244.285L41 247.005L27 247.005L27 241.565ZM33.84 244.285L33.84 241.765C33.84 240.125 33.1 239.145 31.62 239.145C30.16 239.145 29.42 240.125 29.42 241.765L29.42 244.285L33.84 244.285ZM30.46 229.701L30.46 229.161L33.22 229.161L33.22 230.241C33.22 231.441 34.08 232.301 35.6 232.301L41 232.301L41 234.881L30.7 234.881L30.7 232.301L32.18 232.301C30.98 231.721 30.46 230.781 30.46 229.701ZM35.82 218.819C36 218.819 36.24 218.819 36.42 218.839L36.42 226.099C38.24 225.939 39.04 224.979 39.04 223.659C39.04 222.439 38.48 221.559 37.08 221.019L37.88 218.839C40.2 219.639 41.24 221.459 41.24 223.559C41.24 226.599 39.08 228.719 35.84 228.719C32.64 228.719 30.46 226.639 30.46 223.679C30.46 220.819 32.62 218.819 35.82 218.819ZM32.54 223.679C32.54 224.939 33.24 225.739 34.66 226.019L34.66 221.439C33.2 221.719 32.54 222.539 32.54 223.679ZM30.46 206.064C30.46 204.024 31.94 202.504 34.2 202.504L41 202.504L41 205.084L34.72 205.084C33.42 205.084 32.7 205.764 32.7 206.684C32.7 207.784 33.46 208.584 34.8 208.584L41 208.584L41 211.164L34.72 211.164C33.42 211.164 32.7 211.844 32.7 212.764C32.7 213.864 33.46 214.664 34.8 214.664L41 214.664L41 217.244L30.7 217.244L30.7 214.664L31.98 214.664C30.92 214.084 30.46 213.124 30.46 212.004C30.46 210.724 31.08 209.644 32.16 209.064C30.96 208.444 30.46 207.364 30.46 206.064ZM29.52 199.304C29.52 200.224 28.96 200.964 27.98 200.964C27.02 200.964 26.42 200.224 26.42 199.304C26.42 198.384 27.02 197.644 27.98 197.644C28.96 197.644 29.52 198.384 29.52 199.304ZM30.7 200.604L30.7 198.024L41 198.024L41 200.604L30.7 200.604ZM35.82 186.573C36 186.573 36.24 186.573 36.42 186.593L36.42 193.853C38.24 193.693 39.04 192.733 39.04 191.413C39.04 190.193 38.48 189.313 37.08 188.773L37.88 186.593C40.2 187.393 41.24 189.213 41.24 191.313C41.24 194.353 39.08 196.473 35.84 196.473C32.64 196.473 30.46 194.393 30.46 191.433C30.46 188.573 32.62 186.573 35.82 186.573ZM32.54 191.433C32.54 192.693 33.24 193.493 34.66 193.773L34.66 189.193C33.2 189.473 32.54 190.293 32.54 191.433ZM30.46 179.818L30.46 179.278L33.22 179.278L33.22 180.358C33.22 181.558 34.08 182.418 35.6 182.418L41 182.418L41 184.998L30.7 184.998L30.7 182.418L32.18 182.418C30.98 181.838 30.46 180.898 30.46 179.818ZM35.82 168.936C36 168.936 36.24 168.936 36.42 168.956L36.42 176.216C38.24 176.056 39.04 175.096 39.04 173.776C39.04 172.556 38.48 171.676 37.08 171.136L37.88 168.956C40.2 169.756 41.24 171.576 41.24 173.676C41.24 176.716 39.08 178.836 35.84 178.836C32.64 178.836 30.46 176.756 30.46 173.796C30.46 170.936 32.62 168.936 35.82 168.936ZM32.54 173.796C32.54 175.056 33.24 175.856 34.66 176.136L34.66 171.556C33.2 171.836 32.54 172.656 32.54 173.796ZM34.24 161.301L34.24 158.661L36.4 158.661L36.4 161.301L39.14 161.301L39.14 163.461L36.4 163.461L36.4 166.061L34.24 166.061L34.24 163.461L31.54 163.461L31.54 161.301L34.24 161.301Z" fill="white"/>
</svg>
