<svg width="157" height="242" viewBox="0 0 157 242" fill="none" xmlns="http://www.w3.org/2000/svg">
<path d="M0 242L-1.0141e-05 10C-1.03825e-05 4.47714 4.47714 -1.95703e-07 9.99999 -4.37114e-07L58 -2.53526e-06C63.5228 -2.77667e-06 68 4.47715 68 10L68 242L0 242Z" fill="#66408D"/>
<path d="M89 242L89 130C89 124.477 93.4771 120 99 120L147 120C152.523 120 157 124.477 157 130L157 242L89 242Z" fill="white"/>
<path d="M115.97 213.285L118.41 213.285L118.41 220.285L122.05 220.285L122.05 214.205L124.47 214.205L124.47 220.285L129.97 220.285L129.97 223.005L115.97 223.005L115.97 213.285ZM124.79 202.808C124.97 202.808 125.21 202.808 125.39 202.828L125.39 210.088C127.21 209.928 128.01 208.968 128.01 207.648C128.01 206.428 127.45 205.548 126.05 205.008L126.85 202.828C129.17 203.628 130.21 205.448 130.21 207.548C130.21 210.588 128.05 212.708 124.81 212.708C121.61 212.708 119.43 210.628 119.43 207.668C119.43 204.808 121.59 202.808 124.79 202.808ZM121.51 207.668C121.51 208.928 122.21 209.728 123.63 210.008L123.63 205.428C122.17 205.708 121.51 206.528 121.51 207.668ZM119.43 196.932C119.43 194.452 120.71 192.312 123.49 192.312L129.97 192.312L129.97 194.712L128.97 194.712C129.79 195.332 130.21 196.392 130.21 197.752C130.21 200.152 129.01 201.732 126.99 201.732C125.05 201.732 123.79 200.092 123.79 197.572C123.79 196.392 124.13 195.492 124.69 194.892L123.75 194.892C122.37 194.892 121.73 195.692 121.73 197.032C121.73 198.172 122.33 198.952 123.37 199.332L122.47 201.472C120.29 200.772 119.43 198.972 119.43 196.932ZM128.33 196.952C128.33 195.692 127.85 194.832 126.97 194.832C126.09 194.832 125.59 195.692 125.59 196.952C125.59 198.212 126.09 199.072 126.97 199.072C127.85 199.072 128.33 198.212 128.33 196.952ZM119.67 184.666L121.73 184.666L121.73 186.966L126.27 186.966C127.25 186.966 127.75 186.566 127.75 185.766L127.75 184.666L129.97 184.666L129.97 186.086C129.97 188.286 128.59 189.546 126.39 189.546L121.73 189.546L121.73 191.426L119.67 191.426L119.67 189.546L117.69 189.546L116.27 186.966L119.67 186.966L119.67 184.666ZM130.21 178.805C130.21 181.385 128.59 183.345 125.83 183.345L119.67 183.345L119.67 180.745L125.67 180.745C127.21 180.745 127.91 179.925 127.91 178.805C127.91 177.665 127.21 176.865 125.67 176.865L119.67 176.865L119.67 174.265L125.83 174.265C128.59 174.265 130.21 176.205 130.21 178.805ZM119.43 167.205L119.43 166.665L122.19 166.665L122.19 167.745C122.19 168.945 123.05 169.805 124.57 169.805L129.97 169.805L129.97 172.385L119.67 172.385L119.67 169.805L121.15 169.805C119.95 169.225 119.43 168.285 119.43 167.205ZM124.79 156.323C124.97 156.323 125.21 156.323 125.39 156.343L125.39 163.603C127.21 163.443 128.01 162.483 128.01 161.163C128.01 159.943 127.45 159.063 126.05 158.523L126.85 156.343C129.17 157.143 130.21 158.963 130.21 161.063C130.21 164.103 128.05 166.223 124.81 166.223C121.61 166.223 119.43 164.143 119.43 161.183C119.43 158.323 121.59 156.323 124.79 156.323ZM121.51 161.183C121.51 162.443 122.21 163.243 123.63 163.523L123.63 158.943C122.17 159.223 121.51 160.043 121.51 161.183Z" fill="#3E3B41"/>
<path d="M27 217.565C27 214.205 28.8 212.285 31.62 212.285C34.42 212.285 36.18 214.205 36.18 217.545L36.18 220.285L41 220.285L41 223.005L27 223.005L27 217.565ZM33.84 220.285L33.84 217.765C33.84 216.125 33.1 215.145 31.62 215.145C30.16 215.145 29.42 216.125 29.42 217.765L29.42 220.285L33.84 220.285ZM30.46 205.701L30.46 205.161L33.22 205.161L33.22 206.241C33.22 207.441 34.08 208.301 35.6 208.301L41 208.301L41 210.881L30.7 210.881L30.7 208.301L32.18 208.301C30.98 207.721 30.46 206.781 30.46 205.701ZM35.82 194.819C36 194.819 36.24 194.819 36.42 194.839L36.42 202.099C38.24 201.939 39.04 200.979 39.04 199.659C39.04 198.439 38.48 197.559 37.08 197.019L37.88 194.839C40.2 195.639 41.24 197.459 41.24 199.559C41.24 202.599 39.08 204.719 35.84 204.719C32.64 204.719 30.46 202.639 30.46 199.679C30.46 196.819 32.62 194.819 35.82 194.819ZM32.54 199.679C32.54 200.939 33.24 201.739 34.66 202.019L34.66 197.439C33.2 197.719 32.54 198.539 32.54 199.679ZM30.46 182.064C30.46 180.024 31.94 178.504 34.2 178.504L41 178.504L41 181.084L34.72 181.084C33.42 181.084 32.7 181.764 32.7 182.684C32.7 183.784 33.46 184.584 34.8 184.584L41 184.584L41 187.164L34.72 187.164C33.42 187.164 32.7 187.844 32.7 188.764C32.7 189.864 33.46 190.664 34.8 190.664L41 190.664L41 193.244L30.7 193.244L30.7 190.664L31.98 190.664C30.92 190.084 30.46 189.124 30.46 188.004C30.46 186.724 31.08 185.644 32.16 185.064C30.96 184.444 30.46 183.364 30.46 182.064ZM29.52 175.304C29.52 176.224 28.96 176.964 27.98 176.964C27.02 176.964 26.42 176.224 26.42 175.304C26.42 174.384 27.02 173.644 27.98 173.644C28.96 173.644 29.52 174.384 29.52 175.304ZM30.7 176.604L30.7 174.024L41 174.024L41 176.604L30.7 176.604ZM35.82 162.573C36 162.573 36.24 162.573 36.42 162.593L36.42 169.853C38.24 169.693 39.04 168.733 39.04 167.413C39.04 166.193 38.48 165.313 37.08 164.773L37.88 162.593C40.2 163.393 41.24 165.213 41.24 167.313C41.24 170.353 39.08 172.473 35.84 172.473C32.64 172.473 30.46 170.393 30.46 167.433C30.46 164.573 32.62 162.573 35.82 162.573ZM32.54 167.433C32.54 168.693 33.24 169.493 34.66 169.773L34.66 165.193C33.2 165.473 32.54 166.293 32.54 167.433ZM30.46 155.818L30.46 155.278L33.22 155.278L33.22 156.358C33.22 157.558 34.08 158.418 35.6 158.418L41 158.418L41 160.998L30.7 160.998L30.7 158.418L32.18 158.418C30.98 157.838 30.46 156.898 30.46 155.818ZM35.82 144.936C36 144.936 36.24 144.936 36.42 144.956L36.42 152.216C38.24 152.056 39.04 151.096 39.04 149.776C39.04 148.556 38.48 147.676 37.08 147.136L37.88 144.956C40.2 145.756 41.24 147.576 41.24 149.676C41.24 152.716 39.08 154.836 35.84 154.836C32.64 154.836 30.46 152.756 30.46 149.796C30.46 146.936 32.62 144.936 35.82 144.936ZM32.54 149.796C32.54 151.056 33.24 151.856 34.66 152.136L34.66 147.556C33.2 147.836 32.54 148.656 32.54 149.796ZM34.24 137.301L34.24 134.661L36.4 134.661L36.4 137.301L39.14 137.301L39.14 139.461L36.4 139.461L36.4 142.061L34.24 142.061L34.24 139.461L31.54 139.461L31.54 137.301L34.24 137.301Z" fill="white"/>
</svg>
