<?xml version="1.0" encoding="UTF-8"?>
<svg width="98px" height="89px" viewBox="0 0 98 89" version="1.1" xmlns="http://www.w3.org/2000/svg" xmlns:xlink="http://www.w3.org/1999/xlink">
    <!-- Generator: Sketch 50 (54983) - http://www.bohemiancoding.com/sketch -->
    <title>icons / aus</title>
    <desc>Created with Sketch.</desc>
    <defs>
        <polygon id="path-1" points="5.35837588e-05 0.219985876 97.8130928 0.219985876 97.8130928 75.291003 5.35837588e-05 75.291003"></polygon>
        <polygon id="path-3" points="0.462605487 0.341942269 12.1848078 0.341942269 12.1848078 10.0564972 0.462605487 10.0564972"></polygon>
    </defs>
    <g id="UI" stroke="none" stroke-width="1" fill="none" fill-rule="evenodd">
        <g id="6.4-Add-ons---1form" transform="translate(-627.000000, -483.000000)">
            <g id="Group" transform="translate(477.000000, 425.000000)">
                <g id="icon-and-data-vert">
                    <g id="icons-/-aus" transform="translate(150.000000, 58.000000)">
                        <g>
                            <g id="Group-3" transform="translate(0.000000, 0.283090)">
                                <mask id="mask-2" fill="white">
                                    <use xlink:href="#path-1"></use>
                                </mask>
                                <g id="Clip-2"></g>
                                <path d="M28.9482402,11.7281384 C26.4785392,15.5983814 23.7810134,19.2222401 21.738168,23.1804774 C19.242199,28.0166469 16.2920959,31.9955 10.5469722,33.0690311 C9.31995155,33.2978164 8.13081753,33.7649407 6.94926082,34.1923418 C2.52764227,35.7918277 1.38397216,37.8086582 2.16999278,42.4738672 C3.31871443,49.2906638 6.33347732,55.3461836 10.0317144,61.0718503 C11.6002196,63.5004944 13.2525804,65.7697429 12.2447969,69.5519915 C14.3619,69.0350876 16.0728588,68.950613 17.4327351,68.2200085 C20.8299,66.3942514 24.0219722,64.1943927 27.3817557,62.2947203 C31.0239206,60.2356525 34.6484052,58.0775282 38.4901062,56.4523983 C43.2451268,54.440596 47.7228175,55.600613 51.6423124,58.8594209 C53.1885907,60.1451441 54.6540443,61.5279124 56.1871887,62.8940876 C56.9530031,62.4933362 57.6410237,61.9859859 58.4123948,61.7592119 C60.1491165,61.2488446 61.8777557,61.5907655 62.2510649,63.4989859 C63.0370856,67.5130367 66.135199,69.6042853 68.8165598,72.0812006 C70.326467,73.4750311 71.8772918,73.6112966 73.5624876,72.2933927 C75.5568381,70.7341328 77.5996835,70.4535565 79.7940753,72.0882401 C80.3618691,72.5111158 81.3701577,72.5945847 82.1203124,72.4784322 C83.6736629,72.2375791 85.1891268,71.7578842 86.0534464,71.5426751 C87.4759619,68.316048 88.6711577,65.5027429 89.9517247,62.729161 C91.4914361,59.3949294 93.327168,56.1783588 94.6390546,52.7606582 C97.2729309,45.8976017 96.1418897,39.6248616 91.0009309,34.1928446 C89.5006216,32.6079407 88.2710753,30.6655282 86.5282918,29.4310932 C80.0173536,24.8171723 76.8682196,18.4574435 75.6336216,10.7798107 C75.2153536,8.17668644 73.8165804,5.72994068 72.8658794,3.21179379 C72.0439928,4.61115537 71.8889103,5.8395565 71.6514876,7.05237006 C71.0427763,10.1613362 70.5184258,13.2944379 69.7207866,16.3566412 C69.2408897,18.1994944 68.0568072,19.8774209 65.9280856,19.8950198 C61.235199,19.9337373 56.711034,19.0055226 52.7965907,16.262613 C50.5082402,14.6591045 50.2602093,12.9137994 51.4988485,10.3559294 C52.1035186,9.10691243 52.6359515,7.82320056 53.5149206,5.85162429 C49.0619825,6.0844322 45.2404876,6.20460734 41.4407144,6.55859605 C40.7915907,6.61943785 40.0424464,7.58033616 39.6782299,8.29585593 C38.9624258,9.70376554 38.5749722,11.2750932 37.8849309,12.6985904 C36.9064464,14.717935 35.2939928,15.2247825 33.2814567,14.1763927 C32.0317041,13.5252345 30.8243845,12.7926186 28.9482402,11.7281384 M59.7146835,63.1701384 C55.6946629,66.9956299 53.5411887,63.6634096 51.1780753,61.4424322 C46.7453433,57.2755226 41.7973536,56.2728898 36.4341268,59.2621836 C31.1618278,62.2006921 26.1188691,65.5454831 20.8667763,68.5222062 C18.7890753,69.699822 16.488601,70.742178 14.1638794,71.1720932 C11.0288897,71.7518503 10.0625289,70.4761836 10.0296938,67.3119068 C10.0170649,66.0669124 9.61243608,64.6675508 8.94765258,63.6126243 C5.13120928,57.5601215 1.72949794,51.3316299 0.337291753,44.240291 C-0.0284402062,42.3773249 -0.0481412371,40.4082627 0.0518793814,38.5025565 C0.173116495,36.1800085 1.35568351,34.3160367 3.51976598,33.342065 C5.57574536,32.4168672 7.67920928,31.4358559 9.86652887,30.9913588 C14.6442814,30.020404 17.2190546,26.8390311 19.4750753,22.8913531 C21.7417041,18.9245678 24.5008588,15.2373531 27.0155186,11.4093475 C28.3359928,9.40005932 29.8024567,9.51922881 31.688199,10.7164548 C35.5379825,13.1601836 35.8835082,13.1440932 37.0499103,8.80773164 C37.9344361,5.52126836 39.6075082,4.00625706 42.9890134,4.05452825 C46.3442505,4.10179379 49.7030237,3.88306497 53.0592711,3.90518927 C55.1026216,3.91926836 56.0144258,4.89525141 55.1132299,6.98398588 C54.5186629,8.36273164 54.065034,9.81086723 53.3684258,11.1337994 C52.5409825,12.7036186 52.7672918,14.1894661 54.303467,14.7284944 C57.8223742,15.9629294 61.4317041,17.0339463 65.0870031,17.7575113 C67.0853948,18.1527316 67.7183536,16.0941667 68.039632,14.6053023 C68.7438175,11.3434774 69.0246835,7.98963559 69.7500856,4.73334181 C70.1006629,3.15899718 71.0644979,1.71991243 71.7510031,0.219985876 C72.9194258,1.42626271 74.5955289,2.4354322 75.1597866,3.87602542 C76.7687041,7.98360169 78.0871577,12.2249294 79.2045598,16.4949181 C79.9936113,19.5113644 81.2261887,21.967161 83.7080134,24.0347768 C86.6611474,26.4950989 89.2349103,29.4114831 91.9283948,32.1735 C98.269601,38.6750254 99.2546526,46.2123701 95.9923639,54.4164605 C94.7921165,57.4349181 93.0841887,60.2497316 91.7960443,63.2380198 C90.6518691,65.8919294 89.7855289,68.6645056 88.7545082,71.3686977 C88.528199,71.9620311 88.1680237,72.9380141 87.7937041,72.9752232 C84.5531371,73.2960254 81.4651268,76.0967599 77.9714773,73.4845847 C77.3309412,73.0053927 75.6891887,73.2718898 74.8339619,73.7591271 C71.1246113,75.8730028 69.9390134,75.9187599 66.7484567,73.1436695 C63.7837041,70.5656864 60.6780134,68.049048 59.7146835,63.1701384" id="Fill-1" fill="#FEFEFE" mask="url(#mask-2)"></path>
                            </g>
                            <g id="Group-6" transform="translate(72.742268, 78.723768)">
                                <mask id="mask-4" fill="white">
                                    <use xlink:href="#path-3"></use>
                                </mask>
                                <g id="Clip-5"></g>
                                <path d="M2.77653196,2.75035141 C3.42464536,6.4375661 4.83554227,8.10845311 6.81170722,7.68256045 C9.2485732,7.15660565 10.3851711,5.20111977 9.75271753,2.75035141 L2.77653196,2.75035141 Z M12.184532,3.6846 C12.2123155,6.67288814 10.1391608,9.1985774 7.04710928,9.94376384 C4.87342887,10.4672045 2.76390309,9.15583729 1.47171753,6.31387119 C0.997882474,5.27201808 0.637202062,4.12004633 0.523542268,2.9886904 C0.258336082,0.345842938 0.792789691,0.0798485876 3.44333608,0.505741243 C5.05932577,0.765701695 6.77584124,0.650051977 8.41658351,0.453950282 C11.0211608,0.14219887 12.1597794,1.0306904 12.184532,3.6846 Z" id="Fill-4" fill="#FEFEFE" mask="url(#mask-4)"></path>
                            </g>
                        </g>
                    </g>
                </g>
            </g>
        </g>
    </g>
</svg>