<?xml version="1.0" encoding="UTF-8"?>
<svg width="58px" height="54px" viewBox="0 0 58 54" version="1.1" xmlns="http://www.w3.org/2000/svg" xmlns:xlink="http://www.w3.org/1999/xlink">
    <!-- Generator: Sketch 48.2 (47327) - http://www.bohemiancoding.com/sketch -->
    <title>Page 1</title>
    <desc>Created with Sketch.</desc>
    <defs>
        <polygon id="path-1" points="57.90301 45.814563 57.90301 0.0820624473 9.69899666e-05 0.0820624473 9.69899666e-05 45.814563"></polygon>
    </defs>
    <g id="icons-/-aus---positive" stroke="none" stroke-width="1" fill="none" fill-rule="evenodd">
        <g id="Page-1">
            <g id="Group-3">
                <mask id="mask-2" fill="white">
                    <use xlink:href="#path-1"></use>
                </mask>
                <g id="Clip-2"></g>
                <path d="M42.0595516,1.25875116 C42.05955,1.25876399 42.0595485,1.25877647 42.0595471,1.25878861 C42.0595591,1.25868315 42.0595651,1.25863042 42.0595663,1.25862141 Z M41.880267,3.29610127 C41.7951597,4.23872096 41.7195318,4.78465205 41.5778825,5.43476751 C41.2548394,6.91658381 40.7964227,8.41590442 40.1228525,10.2990685 C39.6866659,11.5191793 38.6628802,11.8060098 37.4885207,11.2213151 C37.2510147,11.1031095 37.0640647,11.0049287 36.6527416,10.7850696 C36.6460326,10.7814836 36.6460326,10.7814836 36.639327,10.7778993 C35.8668446,10.3649997 35.5158054,10.1903264 35.0821374,10.0195469 C33.8764187,9.54498863 33.0064695,8.87883318 31.6247793,7.54437706 C30.921985,6.86545353 30.7843557,6.03851236 31.27917,5.19689829 C31.7837454,4.33869821 32.0640248,3.84121379 32.3369785,3.29977737 C32.1391266,3.29163626 31.9540016,3.3025319 31.562784,3.33910379 C31.5520473,3.34010776 31.5520473,3.34010776 31.5412726,3.34111583 C30.377987,3.44995252 29.8098188,3.40651904 29.0856092,2.9692109 C28.0811107,2.36282157 27.1558201,2.29486352 25.0441362,2.50743316 C24.9906667,3.99841099 24.5329647,5.35787248 23.6686025,6.53912083 C22.58863,8.0150037 20.7384521,7.94768535 19.7906971,6.39353154 C19.7776141,6.37207671 19.5622839,6.25388444 19.3038973,6.19247825 C19.1657589,6.15964933 19.0365183,6.14667197 18.9452328,6.15329322 C18.9260198,6.15468681 18.9459226,6.14737798 19.0020972,6.09152237 C18.6431557,6.45798915 18.3618395,6.7629538 17.7582054,7.43035434 C17.7533611,7.43571039 17.7533611,7.43571039 17.7485159,7.44106734 C17.3706735,7.85882393 17.1969732,8.04941095 16.9796684,8.28253554 C16.7527434,8.52623977 16.5247695,8.72309143 16.2739162,8.87446474 C16.2517365,8.88786956 16.2517365,8.88786956 16.2294203,8.90140647 C16.1407457,8.95540776 16.1407457,8.95540776 16.0498575,9.01103916 C15.4882425,9.35460348 15.1984373,9.51340476 14.8163079,9.65905505 C14.124151,9.92310883 13.932104,10.2261764 14.0126759,10.9580654 C14.1514211,12.2210948 12.7526255,14.0486782 11.5043828,14.5003572 C10.7689125,14.7664886 10.1810345,14.9867651 8.86030043,15.4873332 C8.85632367,15.4888404 8.85632367,15.4888404 8.85234684,15.4903477 C7.84974048,15.8703428 7.39718584,16.0407271 6.83391367,16.2486014 C6.77493931,16.2704924 6.77493931,16.2704924 6.71131155,16.2941944 C6.5140346,16.3674559 6.38668234,16.4106474 6.24193506,16.4489512 C5.99972595,16.5130459 5.77355238,16.5418327 5.54426502,16.5244332 C4.94977916,16.4791192 4.40362412,16.6468634 3.73984982,17.0526879 C3.45604399,17.2262367 3.22742543,17.353368 2.71765628,17.627696 C2.71484736,17.6292076 2.71484736,17.6292076 2.7120392,17.6307188 C2.35960099,17.8203808 2.20145042,17.9070018 2.01209929,18.0161565 C1.97853531,18.0354435 1.95530838,18.0488447 1.93668037,18.0597576 C1.90129345,18.329785 1.84632543,18.6100736 1.75001072,19.0536742 C1.74557732,19.0740888 1.74557732,19.0740888 1.74115693,19.0944345 C1.49370571,20.2333836 1.45803336,20.7057117 1.64576434,21.2760922 C1.6620836,21.325599 1.6620836,21.325599 1.67886597,21.3764005 C2.00465554,22.3633583 2.08108659,22.8958689 1.81201951,23.5957091 C1.76940047,23.7065607 1.71775026,23.8149413 1.65703907,23.9206133 C1.58976559,24.0377561 1.5982075,24.0902475 1.79059578,24.5006793 C2.20978332,25.3956306 2.52251188,26.1372369 3.17527828,27.7447137 C3.18344121,27.7648155 3.18344121,27.7648155 3.19160255,27.7849136 C3.36156681,28.2034673 3.43947293,28.3948219 3.5357562,28.6295247 C3.64864341,28.9051582 3.68801394,29.2295586 3.64401729,29.5238685 C3.53373782,30.2628894 3.73966442,30.9516321 4.29768387,31.9221881 C5.1357409,33.3797008 4.98607641,34.8787006 4.02969709,36.3751405 C3.9854917,36.4443389 3.96823154,36.4339068 3.95593331,36.4043615 C4.71515906,37.0887321 5.16359329,37.3483573 5.84399621,37.3790951 C6.75003408,37.4199836 7.52507461,37.1169115 8.09046203,36.5333036 C9.17850463,35.4103431 10.158947,35.1805102 12.3143357,35.1546338 C12.4388601,35.1531396 12.4388601,35.1531396 12.5624831,35.1513921 C12.585825,35.1510496 12.6038387,35.1503476 12.6617926,35.1476572 C12.6695819,35.1472913 12.6695819,35.1472913 12.6776208,35.1469163 C12.8714797,35.137907 12.984497,35.1391709 13.1360045,35.1649925 C13.8211415,35.2823686 14.3118447,35.0617062 15.1025869,34.3321154 C15.9534515,33.546939 17.0417289,32.945624 18.0785687,32.7332054 C19.3696158,32.4689311 20.6268851,32.1339501 21.8989729,31.7165728 C23.7772589,31.1002057 25.1799505,31.0308967 26.6214919,31.7541709 C26.9554023,31.921704 27.3248902,31.9892476 28.1782353,32.0696975 C29.2450189,32.1700637 29.9790927,32.5269474 30.5042789,33.3635573 C30.6696165,33.6268498 30.8331859,33.8403642 31.2106956,34.302078 C31.217905,34.3108953 31.217905,34.3108953 31.2251268,34.3197277 C31.4866704,34.6396011 31.6071141,34.7907905 31.7505405,34.9853054 C31.7901291,35.0389525 31.8268709,35.0873805 31.9122599,35.1992158 C32.2652543,35.6626065 32.4316229,35.9270925 32.5474353,36.3018253 C32.7436412,36.9369867 33.2485763,37.3439718 33.8285352,37.3330469 C35.2307423,37.3067241 36.1888791,37.8353334 37.639187,39.0974522 C38.2101808,39.5939557 38.6721844,40.2985135 38.8298679,40.9821255 C39.0856303,42.0892538 39.6583381,42.6862622 40.7296449,42.9689283 C41.4727941,43.1648922 41.9782027,43.3414683 42.4597182,43.6088503 C42.8144418,43.80578 42.9347723,43.8081057 43.1454859,43.6440417 C43.9983205,42.9801183 44.9599402,43.0431211 45.7978295,43.7386527 C45.860209,43.7904585 45.9290632,43.8348905 46.1053909,43.939061 L46.1054698,43.9391077 C46.2167322,44.0048391 46.2676275,44.0355561 46.3340354,44.0782491 C46.6125484,44.257374 46.7354186,44.3340509 46.8221163,44.3801311 C46.8823307,44.3194895 47.0080095,44.1951118 47.217195,43.973371 C47.2481261,43.940595 47.2481261,43.940595 47.2792913,43.9075813 C48.4509339,42.6668344 49.1718162,42.1993844 50.4255512,42.2864137 C50.6658651,42.3031057 50.6639371,42.3050483 50.7967388,41.8420523 C51.8691851,38.1026369 52.9106157,35.3828453 54.3595,32.8780011 C54.9156622,31.9163966 55.2763216,30.9993577 55.463064,30.0283423 C55.5715434,29.4641108 55.6972324,29.0042038 55.9767399,28.0811406 C55.9849201,28.0541284 55.9849201,28.0541284 55.9930899,28.0271553 C56.1623705,27.4682592 56.2354694,27.2185603 56.3163012,26.910988 C56.3467148,26.7953302 56.348342,26.6410357 56.3197031,26.5152981 C55.7097058,23.8387204 54.7160302,21.8656765 53.0734236,20.3654234 C52.9452429,20.2477386 52.8606823,20.1477219 52.7915009,19.9710785 C52.7694991,19.9144154 52.7427587,19.8531208 52.6994133,19.7588192 C52.686603,19.731 52.686603,19.731 52.6732984,19.7022098 C52.4647662,19.250944 52.3857548,19.0312724 52.365313,18.6963421 C52.353967,18.5093306 52.328307,18.4781294 52.2627707,18.4692593 C51.4424289,18.3579381 50.8919709,17.9001595 50.5992123,17.1520069 C50.1078984,15.8956413 49.2483404,14.9002253 47.9933995,14.0835557 C47.4935653,13.7584179 47.1628053,13.4989669 46.8769291,13.1662321 C46.5083312,12.7371421 46.2077454,12.2658136 46.0096708,11.7832358 C45.8643157,11.4291653 45.7693283,11.145552 45.5740939,10.5167258 C45.5709347,10.5065507 45.5709347,10.5065507 45.5677791,10.4963871 C45.4364173,10.0733156 45.3718842,9.87442842 45.2882517,9.64532589 C45.2255541,9.47365214 45.1622395,9.32798663 45.0142367,9.0055032 C44.9995191,8.97343698 44.9995191,8.97343698 44.9846768,8.94106852 C44.7341604,8.39444623 44.6155697,8.09099051 44.5310734,7.70884495 C44.4106959,7.16460023 44.3095357,7.01086816 44.0284877,6.91897488 C43.1484475,6.63136999 42.7723108,6.06728766 42.4614211,5.01015076 C42.3022692,4.46851638 42.1444773,4.00281357 41.880267,3.29610127 Z M32.6772104,3.33398692 C32.6810023,3.33562241 32.6842196,3.33659121 32.6868934,3.33718795 C32.678872,3.33539773 32.6705047,3.33366351 32.661805,3.33198562 Z M1.89439943,18.0850271 C1.89307694,18.0858362 1.89175106,18.0866491 1.89041784,18.0874683 C1.89302196,18.0858683 1.89491404,18.0847124 1.89716461,18.0805356 Z M3.95593331,36.4043615 C3.94559617,36.3795275 3.93876467,36.3411901 3.92238411,36.325287 C3.93603414,36.3385378 3.94958395,36.3516385 3.9630366,36.3645907 Z M41.1819245,1.46996906 C41.1739159,1.4488308 41.1659151,1.42768191 41.1578629,1.40636699 C41.174232,1.44519533 41.187391,1.468478 41.2005372,1.48726204 C41.2016012,1.48878226 41.1946444,1.48230159 41.1819245,1.46996906 Z M41.1578629,1.40636699 C41.1571176,1.40439404 41.1563718,1.40241968 41.1556255,1.40044377 C41.1578498,1.40632186 41.1601423,1.4120267 41.1624915,1.41755714 Z M54.1772676,19.3962865 C54.1812212,19.4062052 54.1851222,19.4161214 54.1889923,19.4260895 C54.1812317,19.4062749 54.173844,19.3889827 54.1667335,19.3737575 Z" id="Fill-1" stroke="#333F48" stroke-width="1.5" mask="url(#mask-2)"></path>
            </g>
            <g id="Group-6" transform="translate(44.000000, 47.000000)" stroke="#333F48">
                <path d="M0.301850284,0 C0.201233523,0.0974906102 0.100616761,0.195243998 0,0.292734608 C0.0466838576,0.611484231 0.0672711488,0.935489413 0.145270886,1.24766959 C0.387968953,2.21942235 0.6338566,3.19117512 0.919469021,4.15294233 C1.0070375,4.4472536 1.18913354,4.73499543 1.39471649,4.97964168 C1.72005368,5.36671356 2.12571031,5.69807652 2.4533672,6.08357174 C2.92716486,6.6411865 3.28729747,6.57260146 3.69092437,6.01130781 C4.14326485,5.38300579 4.57646785,4.7187032 5.15639155,4.19603791 C6.26781531,3.19459123 6.05759297,2.03285003 5.90826262,0.614637566 C3.9255035,1.14413509 1.91461808,2.05886504 0.301850284,0" id="Fill-4"></path>
            </g>
        </g>
    </g>
</svg>