<?xml version="1.0" encoding="UTF-8"?>
<svg width="21px" height="21px" viewBox="0 0 21 21" version="1.1" xmlns="http://www.w3.org/2000/svg" xmlns:xlink="http://www.w3.org/1999/xlink">
    <!-- Generator: Sketch 48.2 (47327) - http://www.bohemiancoding.com/sketch -->
    <title>icons / car - postive</title>
    <desc>Created with Sketch.</desc>
    <defs></defs>
    <g id="3.3-Advantage---Activations" stroke="none" stroke-width="1" fill="none" fill-rule="evenodd" transform="translate(-1047.000000, -740.000000)">
        <g id="icon-and-data-horiz-copy-3" transform="translate(1045.000000, 646.000000)" stroke="#333F48">
            <g id="icons-/-car---postive" transform="translate(3.000000, 95.000000)">
                <g id="Page-1">
                    <path d="M17.8125,15.0416667 C18.1165,15.0416667 18.4205,14.9289267 18.6518929,14.7047971 C18.8839643,14.4799923 19,14.1856533 19,13.8913143 L19,9.28990508 C19,8.45009388 18.4259286,7.7426002 17.6394643,7.51914561 L16.587,2.93123813 C16.3902143,1.96451012 15.5745714,0 12.7015,0 L6.37042857,0 C3.42203571,0 2.57992857,1.96451012 2.38246429,2.93123813 L1.36121429,7.51914561 C0.57475,7.7426002 0,8.45009388 0,9.28990508 L0,13.8913143 C0,14.1856533 0.116035714,14.4799923 0.348107143,14.7047971 C0.5795,14.9289267 0.8835,15.0416667 1.1875,15.0416667 L17.5159643,15.0416667 L17.8125,15.0416667 Z" id="Stroke-1"></path>
                    <path d="M1.58333333,15.8333333 L1.58333333,17.8186564 C1.58333333,18.4707192 2.17444444,19 2.90277778,19 L4.22222222,19 C4.95055556,19 5.54166667,18.4707192 5.54166667,17.8186564 L5.54166667,15.8333333" id="Stroke-3"></path>
                    <path d="M14.25,15.8333333 L14.25,17.8202886 C14.25,18.4717607 14.8411111,19 15.5694444,19 L16.8888889,19 C17.6172222,19 18.2083333,18.4717607 18.2083333,17.8202886 L18.2083333,15.8333333" id="Stroke-5"></path>
                    <path d="M3.95833333,10.2916667 C3.08348694,10.2916667 2.375,11.0008605 2.375,11.875 C2.375,12.7491395 3.08348694,13.4583333 3.95833333,13.4583333 C4.83245008,13.4583333 5.54166667,12.7491395 5.54166667,11.875 C5.54166667,11.0008605 4.83245008,10.2916667 3.95833333,10.2916667 Z" id="Stroke-7"></path>
                    <path d="M15.8333333,10.2916667 C14.9584869,10.2916667 14.25,11.0008605 14.25,11.875 C14.25,12.7491395 14.9584869,13.4583333 15.8333333,13.4583333 C16.7074501,13.4583333 17.4166667,12.7491395 17.4166667,11.875 C17.4166667,11.0008605 16.7074501,10.2916667 15.8333333,10.2916667 Z" id="Stroke-9"></path>
                    <path d="M7.125,11.875 L11.875,11.875" id="Stroke-11" stroke-linecap="round" stroke-linejoin="round"></path>
                    <path d="M1.58333333,7.91666667 C1.58333333,7.91666667 3.87848282,8.70833333 9.49965978,8.70833333 C15.1215172,8.70833333 17.4166667,7.91666667 17.4166667,7.91666667" id="Stroke-13"></path>
                </g>
            </g>
        </g>
    </g>
</svg>