<?xml version="1.0" encoding="UTF-8"?>
<svg width="125px" height="67px" viewBox="0 0 125 67" version="1.1" xmlns="http://www.w3.org/2000/svg" xmlns:xlink="http://www.w3.org/1999/xlink">
    <!-- Generator: Sketch 48.2 (47327) - http://www.bohemiancoding.com/sketch -->
    <title>icons / dollars received</title>
    <desc>Created with Sketch.</desc>
    <defs>
        <path d="M13.4273077,0 L15.9126923,0 L15.9126923,3.39356522 C17.775,3.39356522 19.6130769,3.7336087 21.4303846,4.41713043 C23.2407692,5.10408696 24.7465385,6.14826087 25.9546154,7.55308696 L22.5380769,10.634087 C21.7453846,9.61052174 20.7796154,8.81021739 19.6373077,8.24691304 C18.5019231,7.6836087 17.2592308,7.39852174 15.9126923,7.39852174 L15.9126923,20.193087 C17.2903846,20.6396087 18.6369231,21.1170435 19.9488462,21.6322609 C21.2607692,22.1474783 22.4307692,22.7863478 23.445,23.5591739 C24.4626923,24.3285652 25.2726923,25.2834348 25.8819231,26.4100435 C26.4807692,27.540087 26.7888462,28.944913 26.7888462,30.6245217 C26.7888462,32.1667391 26.4911538,33.5543913 25.9026923,34.7874783 C25.3211538,36.0205652 24.5319231,37.081913 23.5523077,37.9715217 C22.5623077,38.8611304 21.4165385,39.5652609 20.1046154,40.0804783 C18.7926923,40.5922609 17.3942308,40.9013913 15.9126923,41.0044348 L15.9126923,44.6521739 L13.4273077,44.6521739 L13.4273077,41.0044348 C11.2465385,41.0044348 9.19038462,40.6437826 7.23461538,39.925913 C5.28923077,39.2046087 3.65192308,37.9715217 2.34,36.2266522 L5.96769231,33.0906957 C6.72923077,34.255087 7.79192308,35.1790435 9.15576923,35.866 C10.5161538,36.5495217 11.9388462,36.9273478 13.4273077,36.9960435 L13.4273077,23.9438696 C12.0807692,23.6038261 10.7826923,23.1504348 9.54,22.5836957 C8.29730769,22.0169565 7.2,21.3265652 6.255,20.5022174 C5.30307692,19.6813043 4.55192308,18.6955217 3.99807692,17.5483043 C3.45115385,16.401087 3.17423077,15.0546522 3.17423077,13.5124348 C3.17423077,12.0766957 3.45115385,10.7577391 3.99807692,9.55556522 C4.55192308,8.35682609 5.30307692,7.32295652 6.255,6.45052174 C7.2,5.57465217 8.29730769,4.87395652 9.54,4.34156522 C10.7826923,3.80917391 12.0807692,3.49317391 13.4273077,3.39356522 L13.4273077,0 Z M11.2223077,18.5753043 C11.9007692,18.9016087 12.6311538,19.2176087 13.4273077,19.5267391 L13.4273077,7.39852174 C11.7311538,7.70765217 10.3776923,8.40147826 9.36,9.48 C8.34576923,10.5585217 7.83,11.9221304 7.83,13.5673913 C7.83,14.457 7.97884615,15.2092174 8.27307692,15.8274783 C8.56730769,16.4457391 8.96538462,16.9712609 9.46730769,17.4177826 C9.96923077,17.8643043 10.5542308,18.249 11.2223077,18.5753043 Z M15.9126923,24.6102174 L15.9126923,36.9960435 C17.6676923,36.7899565 19.1457692,36.1236087 20.34,34.9935652 C21.5273077,33.860087 22.1226923,32.4758696 22.1226923,30.8306087 C22.1226923,29.9066522 21.9565385,29.0994783 21.6069231,28.4125217 C21.2607692,27.729 20.7934615,27.145087 20.2119231,26.6676522 C19.6269231,26.1867826 18.9553846,25.784913 18.2180769,25.4620435 C17.4773077,25.1323043 16.7019231,24.854087 15.9126923,24.6102174 Z" id="path-1"></path>
    </defs>
    <g id="3.1-Advantage---Advantage-Plus" stroke="none" stroke-width="1" fill="none" fill-rule="evenodd" transform="translate(-1180.000000, -496.000000)">
        <g id="icons-/-dollars-received---reversed" transform="translate(1177.000000, 490.000000)">
            <g id="Page-1" transform="translate(3.461538, 6.869565)">
                <path d="M122.886,32.6362739 C122.886,50.6551435 108.157154,65.2667087 90.0013846,65.2667087 C71.8352308,65.2667087 57.1167692,50.6551435 57.1167692,32.6362739 C57.1167692,14.6139696 71.8352308,0.00583913043 90.0013846,0.00583913043 C108.157154,0.00583913043 122.886,14.6139696 122.886,32.6362739 Z" id="Stroke-1" stroke="#FFFFFF" stroke-width="1.5"></path>
                <g id="Group-5" transform="translate(76.153846, 10.304348)">
                    <mask id="mask-2" fill="white">
                        <use xlink:href="#path-1"></use>
                    </mask>
                    <g id="Clip-4"></g>
                    <polygon id="Fill-3" fill="#FFFFFF" mask="url(#mask-2)" points="-14.9642308 61.826087 44.0930769 61.826087 44.0930769 -17.173913 -14.9642308 -17.173913"></polygon>
                </g>
                <g id="Group-12" transform="translate(0.000000, 13.739130)" stroke="#FFFFFF" stroke-width="1.5">
                    <path d="M50.2189244,6.44571304 L18.2817692,6.44571304" id="Stroke-6"></path>
                    <path d="M49.7596154,18.8971435 L9.01038462,18.8971435" id="Stroke-8"></path>
                    <path d="M50.192308,29.2011478 L0.00138461538,29.2011478" id="Stroke-10"></path>
                </g>
            </g>
        </g>
    </g>
</svg>