<?xml version="1.0" encoding="UTF-8"?>
<svg width="38px" height="56px" viewBox="0 0 38 56" version="1.1" xmlns="http://www.w3.org/2000/svg" xmlns:xlink="http://www.w3.org/1999/xlink">
    <!-- Generator: Sketch 48.2 (47327) - http://www.bohemiancoding.com/sketch -->
    <title>icons / clicks - positive</title>
    <desc>Created with Sketch.</desc>
    <defs></defs>
    <g id="6.1-Add-ons---AMAX" stroke="none" stroke-width="1" fill="none" fill-rule="evenodd" transform="translate(-1091.000000, -763.000000)" stroke-linejoin="round">
        <g id="icons-/-clicks---positive" transform="translate(1088.000000, 760.000000)" stroke="#333F48">
            <g id="icons-/-clicks" transform="translate(3.666667, 3.647059)">
                <path d="M14.6666667,18.2354765 C14.6666667,16.3499471 16.3588333,14.7069471 18.2526667,14.7069471 C20.1685,14.7069471 22,16.3317118 22,18.2354765 L22,31.9119471 L31.933,35.4003588 C34.2191667,36.1315941 34.9745,38.8194765 34.4355,41.1481235 L32.0833333,53.7943 L13.75,53.7943 L4.38533333,39.9993 C3.33483333,38.4037118 3.2285,35.4003588 5.54033333,35.4003588 C7.85216667,35.4003588 10.043,36.6804765 14.6666667,43.7648882 L14.6666667,18.2354765 Z" id="Stroke-1" stroke-width="1.5"></path>
                <path d="M35.75,17.3235294 L28.4166667,17.3235294" id="Stroke-3" stroke-width="1.5" stroke-linecap="round"></path>
                <path d="M30.9679333,5.50979412 L26.3442667,10.1087353" id="Stroke-5" stroke-width="1.5" stroke-linecap="round"></path>
                <path d="M18.3333333,0.911764706 L18.3333333,8.20588235" id="Stroke-7" stroke-width="1.5" stroke-linecap="round"></path>
                <path d="M5.54033333,5.50979412 L10.1621667,10.1087353" id="Stroke-9" stroke-width="1.5" stroke-linecap="round"></path>
                <path d="M0.916666667,17.3235294 L8.25,17.3235294" id="Stroke-11" stroke-width="1.5" stroke-linecap="round"></path>
            </g>
        </g>
    </g>
</svg>