<?xml version="1.0" encoding="UTF-8"?>
<svg width="56px" height="84px" viewBox="0 0 56 84" version="1.1" xmlns="http://www.w3.org/2000/svg" xmlns:xlink="http://www.w3.org/1999/xlink">
    <!-- Generator: Sketch 48.2 (47327) - http://www.bohemiancoding.com/sketch -->
    <title>icons / clicks</title>
    <desc>Created with Sketch.</desc>
    <defs></defs>
    <g id="6.3-Add-ons---Exclusive-Showcase" stroke="none" stroke-width="1" fill="none" fill-rule="evenodd" transform="translate(-1216.000000, -489.000000)" stroke-linejoin="round">
        <g id="Group" transform="translate(477.000000, 425.000000)" stroke="#FFFFFF">
            <g id="icons-/-clicks---negative" transform="translate(733.000000, 58.000000)">
                <g id="icons-/-clicks" transform="translate(5.666667, 5.647059)">
                    <path d="M22.6666667,28.2355765 C22.6666667,25.3160471 25.2818333,22.7720471 28.2086667,22.7720471 C31.1695,22.7720471 34,25.2878118 34,28.2355765 L34,49.4120471 L49.351,54.8134588 C52.8841667,55.9456941 54.0515,60.1075765 53.2185,63.7132235 L49.5833333,83.2944 L21.25,83.2944 L6.77733333,61.9344 C5.15383333,59.4638118 4.9895,54.8134588 8.56233333,54.8134588 C12.1351667,54.8134588 15.521,56.7955765 22.6666667,67.7649882 L22.6666667,28.2355765 Z" id="Stroke-1" stroke-width="1.5"></path>
                    <path d="M55.25,26.8235294 L43.9166667,26.8235294" id="Stroke-3" stroke-width="1.5" stroke-linecap="round"></path>
                    <path d="M47.8595333,8.53129412 L40.7138667,15.6522353" id="Stroke-5" stroke-width="1.5" stroke-linecap="round"></path>
                    <path d="M28.3333333,1.41176471 L28.3333333,12.7058824" id="Stroke-7" stroke-width="1.5" stroke-linecap="round"></path>
                    <path d="M8.56233333,8.53129412 L15.7051667,15.6522353" id="Stroke-9" stroke-width="1.5" stroke-linecap="round"></path>
                    <path d="M1.41666667,26.8235294 L12.75,26.8235294" id="Stroke-11" stroke-width="1.5" stroke-linecap="round"></path>
                </g>
            </g>
        </g>
    </g>
</svg>