<?xml version="1.0" encoding="UTF-8"?>
<svg width="22px" height="18px" viewBox="0 0 22 18" version="1.1" xmlns="http://www.w3.org/2000/svg" xmlns:xlink="http://www.w3.org/1999/xlink">
    <!-- Generator: Sketch 48.2 (47327) - http://www.bohemiancoding.com/sketch -->
    <title>icons / coffee cup positive</title>
    <desc>Created with Sketch.</desc>
    <defs>
        <polygon id="path-1" points="5.86820364e-05 0.100375623 21.7921124 0.100375623 21.7921124 17.7534152 5.86820364e-05 17.7534152"></polygon>
        <polygon id="path-3" points="2.30485746e-05 0.10040028 21.7921124 0.10040028 21.7921124 17.7534247 2.30485746e-05 17.7534247"></polygon>
    </defs>
    <g id="3.3-Advantage---Activations" stroke="none" stroke-width="1" fill="none" fill-rule="evenodd" transform="translate(-1047.000000, -771.000000)">
        <g id="icon-and-data-horiz-copy-3" transform="translate(1045.000000, 646.000000)">
            <g id="icons-/-coffee-cup-positive" transform="translate(2.000000, 125.000000)">
                <g>
                    <g id="Group-3" transform="translate(0.000000, 0.146145)">
                        <mask id="mask-2" fill="white">
                            <use xlink:href="#path-1"></use>
                        </mask>
                        <g id="Clip-2"></g>
                        <path d="M14.8221663,13.789011 C14.790773,13.7162712 14.7593798,13.6435315 14.7279865,13.5707918 C15.1306607,13.2004356 15.5583011,12.8532575 15.9320539,12.4555315 C17.5934247,10.6880795 19.3235146,8.97512055 20.8600539,7.1046 C21.8149528,5.94224384 22.1498966,4.46131233 21.3218067,3.03635342 C20.5518067,1.71150411 19.1860764,1.6335863 17.8233124,1.60005205 C17.5605483,1.5936411 17.1838292,1.40279178 17.0666607,1.18580548 C16.6486607,0.413038356 16.0306831,0.0989013699 15.1820764,0.100380822 C11.1993348,0.107038356 7.21634607,0.0974219178 3.23360449,0.107778082 C1.90890787,0.111230137 1.22344719,0.762928767 1.21825618,2.08999726 C1.21182921,3.69027123 1.20095281,5.29818904 1.33913258,6.89007945 C1.55517753,9.38073699 2.15906517,11.7518055 4.07751461,13.5673397 C4.10000899,13.5885452 4.05897528,13.676326 4.03598652,13.7902438 C3.21457079,13.7902438 2.38326742,13.7892575 1.55196404,13.7904904 C-0.00336179775,13.792463 -0.351653933,14.320874 0.337267416,15.7598877 C0.555042697,16.2145726 0.885537079,16.7701068 1.30403146,16.942463 C2.22036854,17.3202164 3.21951461,17.6632027 4.19641348,17.6977233 C6.97162697,17.7953671 9.75277303,17.7369288 12.5314472,17.7273123 C13.6420764,17.7233671 14.7598742,17.7578877 15.8613573,17.6474219 C17.5392899,17.479011 18.6565933,16.4251479 18.8617618,14.9728192 C18.992773,14.0456959 18.790818,13.7998603 17.8566831,13.7912301 C16.8451775,13.7816137 15.8336719,13.789011 14.8221663,13.789011" id="Fill-1" fill="#FFFFFF" mask="url(#mask-2)"></path>
                    </g>
                    <g id="Group-6" transform="translate(0.000000, 0.146145)">
                        <mask id="mask-4" fill="white">
                            <use xlink:href="#path-3"></use>
                        </mask>
                        <g id="Clip-5"></g>
                        <path d="M1.38938652,14.9195836 C1.31597079,14.9950356 1.24255506,15.0704877 1.16889213,15.1461863 C1.49765618,15.5054466 1.76462247,15.9838027 2.17100449,16.1938849 C2.67033034,16.4520493 3.28484719,16.5943233 3.85140899,16.5999945 C7.55779101,16.6367342 11.2649146,16.6399397 14.9712966,16.6083781 C15.5697461,16.6032 16.2183753,16.4717753 16.7468697,16.2067068 C17.1680831,15.9956384 17.4419708,15.4916384 17.7811169,15.1175836 C17.7166,15.0515014 17.6520831,14.9856658 17.5878135,14.9195836 L1.38938652,14.9195836 Z M9.19073483,1.20013151 C7.24657753,1.20013151 5.30242022,1.2122137 3.3587573,1.19347397 C2.67527416,1.18681644 2.28298202,1.43856986 2.31585843,2.15265205 C2.40806067,4.1481863 2.40410562,6.15654247 2.64585843,8.13432329 C2.86437528,9.92273425 3.47468989,11.6273096 5.01098202,12.7881863 C6.74749888,14.1002137 11.8042854,14.3519671 13.5348697,13.0152822 C15.8965326,11.1906247 18.1724202,9.2251726 19.8404652,6.7002411 C20.2179258,6.12867945 20.4831618,5.4261863 20.5939034,4.75007671 C20.7647124,3.70632329 20.2295438,3.00777534 19.1730494,2.85243288 C18.4552067,2.74689863 17.7057236,2.81840548 16.973791,2.86254247 C16.472982,2.89262466 16.0715438,2.82925479 16.0881056,2.23303562 C16.1133191,1.32637808 15.592982,1.17892603 14.8373191,1.18928219 C12.9554539,1.2151726 11.0728472,1.19766575 9.19073483,1.20013151 Z M14.8222404,13.7890356 C15.8337461,13.7890356 16.8452517,13.7816384 17.8565101,13.7912548 C18.7908921,13.7998849 18.9926,14.0457205 18.861836,14.9728438 C18.6564202,16.4251726 17.539364,17.4790356 15.8614315,17.6474466 C14.7597011,17.7579123 13.6421506,17.7233918 12.5312742,17.727337 C9.7526,17.7369534 6.97170112,17.7953918 4.19648764,17.6977479 C3.21958876,17.6632274 2.2204427,17.3199945 1.30410562,16.9424877 C0.885611236,16.7701315 0.554869663,16.2145973 0.337341573,15.7599123 C-0.351826966,14.3208986 -0.00328764045,13.7924877 1.5520382,13.7905151 C2.38334157,13.7892822 3.21439775,13.7902685 4.03581348,13.7902685 C4.05880225,13.6763507 4.09983596,13.5885699 4.07758876,13.5673644 C2.15913933,11.7518301 1.55500449,9.38076164 1.33920674,6.89010411 C1.20102697,5.2982137 1.21190337,3.69029589 1.21808315,2.09002192 C1.22352135,0.762953425 1.90898202,0.111254795 3.23343146,0.10780274 C7.21642022,0.0974465753 11.199409,0.107063014 15.1821506,0.100405479 C16.0307573,0.0989260274 16.6487348,0.413063014 17.0664876,1.18583014 C17.1839034,1.40281644 17.5606225,1.59366575 17.8231393,1.60007671 C19.1859034,1.63336438 20.5518809,1.71152877 21.3216337,3.03637808 C22.1497236,4.46133699 21.815027,5.94202192 20.8601281,7.10462466 C19.3235888,8.97514521 17.5934989,10.6881041 15.9321281,12.4555562 C15.5583753,12.8532822 15.1307348,13.2004603 14.7278135,13.5708164 C14.7594539,13.6435562 14.7908472,13.7162959 14.8222404,13.7890356 Z" id="Fill-4" fill="#333F48" mask="url(#mask-4)"></path>
                    </g>
                    <path d="M15.5561258,8.82687945 C15.5786202,8.86066027 15.666373,9.14397534 15.8379236,9.20981096 C16.0166427,9.2783589 16.3748225,9.21449589 16.4848225,9.07518082 C17.2595191,8.09430411 18.0735191,7.12797534 18.7070697,6.05808493 C19.1641258,5.28655068 18.8479685,4.64792055 18.147182,4.40405753 C17.4065978,4.1463863 16.2272494,4.6503863 16.0922831,5.34819452 C15.8829124,6.4314 15.7514067,7.52989315 15.5561258,8.82687945 M9.19071011,1.34504384 C11.0728225,1.34381096 12.9554292,1.36131781 14.8372944,1.3354274 C15.5929573,1.32507123 16.1132944,1.47252329 16.0880809,2.37918082 C16.0715191,2.9754 16.4732045,3.03876986 16.9737663,3.00868767 C17.7056989,2.96430411 18.455182,2.89304384 19.1730247,2.99857808 C20.2297663,3.15392055 20.7646876,3.85246849 20.5938787,4.89622192 C20.4831371,5.57208493 20.2179011,6.27482466 19.8404404,6.8463863 C18.1726427,9.37131781 15.8965079,11.3367699 13.5348449,13.1614274 C11.8042607,14.4981123 6.74747416,14.2463589 5.0109573,12.9343315 C3.47491236,11.7734548 2.86435056,10.0688795 2.64583371,8.28046849 C2.40432809,6.30268767 2.40803596,4.29433151 2.31583371,2.29879726 C2.2829573,1.58471507 2.67524944,1.33296164 3.35873258,1.33961918 C5.3026427,1.3583589 7.24655281,1.34627671 9.19071011,1.34504384" id="Fill-7" fill="#FFFFFF"></path>
                    <path d="M1.38938652,15.0657288 L17.5878135,15.0657288 C17.6520831,15.131811 17.7166,15.1976466 17.7811169,15.2637288 C17.4419708,15.6377836 17.1680831,16.1417836 16.7468697,16.3528521 C16.2183753,16.6179205 15.5697461,16.7493452 14.9712966,16.7545233 C11.2649146,16.7860849 7.55779101,16.7828795 3.85140899,16.7461397 C3.28484719,16.7404685 2.67033034,16.5981945 2.17100449,16.3400301 C1.76462247,16.1299479 1.49765618,15.6515918 1.16889213,15.2923315 C1.24255506,15.2166329 1.31597079,15.1411808 1.38938652,15.0657288" id="Fill-9" fill="#FFFFFF"></path>
                    <path d="M17.834782,5.52772603 C17.0185573,5.71413699 16.5847371,6.81189041 16.937973,7.71041096 C17.2578382,6.9319726 17.5248045,6.282 17.834782,5.52772603 M15.5561753,8.82690411 C15.7514562,7.52967123 15.8829618,6.43142466 16.0923326,5.34821918 C16.2272989,4.65041096 17.4066472,4.14641096 18.1472315,4.40408219 C18.848018,4.64794521 19.1641753,5.28657534 18.7071191,6.05810959 C18.0733213,7.128 17.2595685,8.09432877 16.4848719,9.07520548 C16.3748719,9.21452055 16.0166921,9.27838356 15.837973,9.20983562 C15.6664225,9.144 15.5786697,8.86068493 15.5561753,8.82690411" id="Fill-11" fill="#333F48"></path>
                    <path d="M17.834782,5.52772603 C17.5248045,6.282 17.2578382,6.9319726 16.937973,7.71041096 C16.5847371,6.81189041 17.0185573,5.71413699 17.834782,5.52772603" id="Fill-13" fill="#FFFFFF"></path>
                </g>
            </g>
        </g>
    </g>
</svg>