<?xml version="1.0" encoding="UTF-8"?>
<svg width="20px" height="28px" viewBox="0 0 20 28" version="1.1" xmlns="http://www.w3.org/2000/svg" xmlns:xlink="http://www.w3.org/1999/xlink">
    <!-- Generator: Sketch 48.2 (47327) - http://www.bohemiancoding.com/sketch -->
    <title>icons / ice cream - positive</title>
    <desc>Created with Sketch.</desc>
    <defs>
        <polygon id="path-1" points="3.53982301e-05 0.0108888889 19.999823 0.0108888889 19.999823 13.479079 3.53982301e-05 13.479079 3.53982301e-05 0.0108888889"></polygon>
    </defs>
    <g id="3.3-Advantage---Activations" stroke="none" stroke-width="1" fill="none" fill-rule="evenodd" transform="translate(-1048.000000, -702.000000)">
        <g id="icon-and-data-horiz-copy-3" transform="translate(1045.000000, 646.000000)">
            <g id="icons-/-ice-cream---positive" transform="translate(3.000000, 56.000000)">
                <g>
                    <g id="Group-3" transform="translate(0.000000, 0.161951)">
                        <mask id="mask-2" fill="white">
                            <use xlink:href="#path-1"></use>
                        </mask>
                        <g id="Clip-2"></g>
                        <path d="M3.19171681,9.99515309 C3.29472566,9.99515309 3.39702655,10.024363 3.48552212,10.0817457 C3.63366372,10.1778444 3.72269027,10.3399679 3.72269027,10.5136716 C3.72269027,11.5596963 5.128,12.442042 6.79153982,12.442042 C7.85667257,12.442042 8.83419469,12.0934247 9.40623009,11.5095728 C9.58782301,11.3239432 9.88092035,11.2962889 10.0957876,11.4442395 C10.8644602,11.9733012 12.0865841,12.289079 13.3649912,12.289079 C15.7269381,12.289079 17.3729558,11.2736469 17.3729558,10.3622642 C17.3729558,10.328042 17.3694159,10.2877704 17.3623363,10.2393753 C17.3221593,9.96559753 17.5092389,9.70927654 17.787292,9.65673333 C18.4540177,9.53125185 18.9379115,9.05663457 18.9379115,8.5282642 C18.9379115,7.88702963 18.2633982,7.3654 17.4341947,7.3654 C17.1894159,7.3654 16.9545487,7.41102963 16.7361416,7.50107901 C16.5589735,7.57401728 16.3552566,7.54774568 16.2035752,7.43246173 C16.0518938,7.31700494 15.9757876,7.13068395 16.0048142,6.94505432 C16.0127788,6.89458519 16.0164956,6.85517778 16.0164956,6.82078272 C16.0164956,3.63759753 13.2356106,1.04777037 9.81738053,1.04777037 C6.39932743,1.04777037 3.61844248,3.63759753 3.61844248,6.82078272 C3.61844248,6.96493086 3.65773451,7.10216543 3.73844248,7.24009136 C3.85384071,7.43730123 3.82446018,7.68480741 3.66587611,7.85090617 C3.50729204,8.01700494 3.25667257,8.06315309 3.04711504,7.96463457 C2.84870796,7.87130123 2.6340177,7.82394321 2.40906195,7.82394321 C1.66623009,7.82394321 1.0619823,8.34557284 1.0619823,8.98663457 C1.0619823,9.6276963 1.66623009,10.1494988 2.40906195,10.1494988 C2.60835398,10.1494988 2.80233628,10.1111284 2.98569912,10.0357704 C3.05189381,10.0086346 3.1219823,9.99515309 3.19171681,9.99515309 M6.79153982,13.479079 C4.78658407,13.479079 3.15755752,12.5037457 2.7559646,11.1635481 C2.64162832,11.178758 2.52587611,11.1865358 2.40906195,11.1865358 C1.08074336,11.1865358 3.53982301e-05,10.1996222 3.53982301e-05,8.98663457 C3.53982301e-05,7.77364691 1.08074336,6.78690617 2.40906195,6.78690617 C2.45844248,6.78690617 2.50764602,6.78828889 2.55667257,6.79105432 C2.57366372,3.04942469 5.82428319,0.0107333333 9.81738053,0.0107333333 C13.6529558,0.0107333333 16.8035752,2.81436296 17.0612743,6.35152346 C17.1839292,6.3359679 17.308354,6.32836296 17.4341947,6.32836296 C18.848885,6.32836296 19.9998584,7.31527654 19.9998584,8.5282642 C19.9998584,9.43601728 19.3708319,10.2236469 18.4244602,10.5580914 C18.2572035,12.1254 16.0950796,13.326116 13.3649912,13.326116 C12.0356106,13.326116 10.7810973,13.0345358 9.84853097,12.5170543 C9.07384071,13.1251037 7.96481416,13.479079 6.79153982,13.479079" id="Fill-1" fill="#333F48" mask="url(#mask-2)"></path>
                    </g>
                    <path d="M10.6968142,10.0348889 C10.1587611,10.0348889 9.5819469,9.99859259 8.96389381,9.91735802 C8.67327434,9.87916049 8.46938053,9.618 8.50849558,9.33419753 C8.54761062,9.05039506 8.81646018,8.85145679 9.10566372,8.88965432 C14.1081416,9.54748148 16.0155752,6.99740741 16.0943363,6.88851852 C16.2624779,6.65587654 16.5927434,6.59797531 16.8327434,6.76130864 C17.0722124,6.92446914 17.1325664,7.24474074 16.9669027,7.47945679 C16.8849558,7.59577778 15.1058407,10.0348889 10.6968142,10.0348889" id="Fill-4" fill="#333F48"></path>
                    <path d="M10.2379115,27.9891111 C9.8740177,27.9891111 9.36976991,27.7735802 9.03454867,26.7472593 L4.5580885,13.1814321 C4.468,12.9088642 4.62145133,12.6167654 4.90056637,12.528963 C5.17950442,12.4409877 5.47879646,12.5908395 5.56888496,12.8634074 L10.0458761,26.4306173 C10.1152566,26.6428642 10.1844602,26.7814815 10.2379115,26.8656543 C10.2915398,26.7814815 10.3605664,26.6433827 10.4295929,26.432 L14.9513628,12.5618025 C15.0402124,12.2888889 15.3389735,12.1378272 15.6182655,12.2251111 C15.8979115,12.3118765 16.0522478,12.6034568 15.9632212,12.8763704 L11.4414513,26.7469136 C11.1062301,27.7735802 10.6019823,27.9891111 10.2379115,27.9891111" id="Fill-6" fill="#333F48"></path>
                    <path d="M8.54534513,18.5139111 C7.95507965,18.5139111 7.32870796,18.4599852 6.66499115,18.3386519 C6.37667257,18.2861086 6.18676106,18.0150963 6.24074336,17.7337136 C6.29472566,17.452158 6.57224779,17.2663556 6.86021239,17.3194173 C10.6095929,18.0043802 13.028354,16.2728741 14.1368496,15.1794914 C14.3432212,14.9760593 14.6793274,14.9743309 14.887823,15.1758617 C15.0961416,15.3772198 15.0979115,15.7056148 14.8915398,15.9092198 C13.8322478,16.9540346 11.7180885,18.5139111 8.54534513,18.5139111" id="Fill-8" fill="#333F48"></path>
                    <path d="M8.36247788,22.6612988 C8.07238938,22.6612988 7.83522124,22.4333235 7.83168142,22.1491753 C7.8279646,21.8627802 8.06283186,21.6278914 8.35610619,21.6242617 C9.82902655,21.6064593 11.1987611,21.2092741 12.4274336,20.4435951 C12.6746903,20.2892494 13.0030088,20.3604593 13.160708,20.6017432 C13.3184071,20.8432 13.2458407,21.1638173 12.9985841,21.3178173 C11.600531,22.1889284 10.0430088,22.6410765 8.36920354,22.6612988 L8.36247788,22.6612988 Z" id="Fill-10" fill="#333F48"></path>
                </g>
            </g>
        </g>
    </g>
</svg>