<?xml version="1.0" encoding="UTF-8"?>
<svg width="88px" height="42px" viewBox="0 0 88 42" version="1.1" xmlns="http://www.w3.org/2000/svg" xmlns:xlink="http://www.w3.org/1999/xlink">
    <!-- Generator: Sketch 48.2 (47327) - http://www.bohemiancoding.com/sketch -->
    <title>icons / crowd - positive</title>
    <desc>Created with Sketch.</desc>
    <defs></defs>
    <g id="3.2-Advantage---Events" stroke="none" stroke-width="1" fill="none" fill-rule="evenodd" transform="translate(-1067.000000, -495.000000)" stroke-linejoin="round">
        <g id="icons-/-crowd---positive" transform="translate(1067.000000, 495.000000)" stroke="#333F48">
            <g id="Page-1">
                <path d="M35.618449,41.21765 C35.618449,41.21765 35.618449,38.1736083 34.1080816,35.2119833 C32.9820408,33.0064417 28.4868571,31.7003167 22.4489796,29.47865 L22.4489796,25.0389 C22.4489796,25.0389 24.2969796,23.3708583 24.2969796,20.411025 C25.0512653,20.411025 25.805551,17.4511917 24.2969796,16.7112333 C24.2969796,16.272275 25.365551,13.80515 23.8569796,10.7449833 C22.0808163,7.14373333 14.3583673,7.77798333 13.0814694,10.531775 C11.2801633,13.4701083 12.2194286,16.111025 12.2194286,16.7112333 C10.7108571,17.4511917 11.4651429,20.411025 12.2194286,20.411025 C12.2194286,23.3708583 14.0674286,24.7844833 14.0674286,24.7844833 L14.0674286,29.47865 C8.0277551,31.7003167 3.53077551,33.0064417 2.40653061,35.2119833 C0.897959184,38.1736083 0.897959184,41.21765 0.897959184,41.21765 L18.2573061,41.21765 L35.618449,41.21765 Z" id="Stroke-1" stroke-width="1.5"></path>
                <path d="M87.0400816,41.21765 C87.0400816,41.21765 87.0400816,38.1736083 85.5297143,35.2119833 C84.4036735,33.0064417 79.9084898,31.7003167 73.8706122,29.47865 L73.8706122,25.0389 C73.8706122,25.0389 75.7186122,23.3708583 75.7186122,20.411025 C76.472898,20.411025 77.2271837,17.4511917 75.7186122,16.7112333 C75.7186122,16.272275 76.7871837,13.80515 75.2786122,10.7449833 C73.502449,7.14373333 65.78,7.77798333 64.503102,10.531775 C62.7017959,13.4701083 63.6410612,16.111025 63.6410612,16.7112333 C62.1324898,17.4511917 62.8867755,20.411025 63.6410612,20.411025 C63.6410612,23.3708583 65.4890612,24.7844833 65.4890612,24.7844833 L65.4890612,29.47865 C59.4493878,31.7003167 54.9524082,33.0064417 53.8281633,35.2119833 C52.3195918,38.1736083 52.3195918,41.21765 52.3195918,41.21765 L69.6789388,41.21765 L87.0400816,41.21765 Z" id="Stroke-3" stroke-width="1.5"></path>
                <path d="M55.7462041,22.7776375 C55.7462041,22.7776375 55.7462041,20.7566375 54.7440816,18.7911792 C53.9969796,17.3273875 51.0121633,16.4602208 47.0036735,14.9856792 L47.0036735,12.0383875 C47.0036735,12.0383875 48.2302857,10.9311375 48.2302857,8.96567917 C48.7313469,8.96567917 49.2324082,7.0020125 48.2302857,6.51109583 C48.2302857,6.21905417 48.9396735,4.58147083 47.9393469,2.54972083 C46.7594286,0.1596375 41.6338776,0.580679167 40.7862041,2.40817917 C39.5901224,4.35930417 40.215102,6.11155417 40.215102,6.51109583 C39.2129796,7.0020125 39.7140408,8.96567917 40.215102,8.96567917 C40.215102,10.9311375 41.4417143,11.8699708 41.4417143,11.8699708 L41.4417143,14.9856792 C37.4314286,16.4602208 34.4466122,17.3273875 33.7013061,18.7911792 C32.6991837,20.7566375 32.6991837,22.7776375 32.6991837,22.7776375 L44.2217959,22.7776375 L55.7462041,22.7776375 Z" id="Stroke-5" stroke-width="1.5"></path>
            </g>
        </g>
    </g>
</svg>