<?xml version="1.0" encoding="UTF-8"?>
<svg width="47px" height="60px" viewBox="0 0 47 60" version="1.1" xmlns="http://www.w3.org/2000/svg" xmlns:xlink="http://www.w3.org/1999/xlink">
    <!-- Generator: Sketch 48.2 (47327) - http://www.bohemiancoding.com/sketch -->
    <title>icons / avatar - positive</title>
    <desc>Created with Sketch.</desc>
    <defs></defs>
    <g id="3.2-Advantage---Events" stroke="none" stroke-width="1" fill="none" fill-rule="evenodd" transform="translate(-515.000000, -486.000000)" stroke-linejoin="round">
        <g id="icons-/-avatar---positive" transform="translate(516.000000, 485.000000)" stroke="#333F48" stroke-width="1.5">
            <path d="M44.3111053,60.118424 L44.3111053,49.618104 C44.3111053,47.802744 39.8238421,43.477624 29.3923158,39.593944 L29.3923158,31.829064 C29.3923158,31.829064 32.5858421,28.915064 32.5858421,23.739304 C33.8894737,23.739304 35.1906316,18.566024 32.5858421,17.268984 C32.5858421,16.502664 34.4312105,12.189944 31.8264211,6.838104 C28.7590526,0.541384 15.4184737,1.649944 13.2144211,6.463624 C10.105,11.604664 11.7252632,16.222424 11.7252632,17.268984 C9.118,18.566024 10.4216316,23.739304 11.7252632,23.739304 C11.7252632,28.915064 14.9163158,31.385144 14.9163158,31.385144 L14.9163158,39.593944 C4.48726316,43.477624 0,47.611784 0,49.618104 L0,60.118424 L22.1543158,60.118424 L44.3111053,60.118424 Z" id="Page-1"></path>
        </g>
    </g>
</svg>