<?xml version="1.0" encoding="UTF-8"?>
<svg width="50px" height="50px" viewBox="0 0 50 50" version="1.1" xmlns="http://www.w3.org/2000/svg" xmlns:xlink="http://www.w3.org/1999/xlink">
    <!-- Generator: Sketch 48.2 (47327) - http://www.bohemiancoding.com/sketch -->
    <title>icons / play vid - positive</title>
    <desc>Created with Sketch.</desc>
    <defs></defs>
    <g id="3.2-Advantage---Events" stroke="none" stroke-width="1" fill="none" fill-rule="evenodd" transform="translate(-516.000000, -685.000000)">
        <g id="icon-and-data-horiz-copy-2" transform="translate(477.000000, 641.000000)" stroke="#333F48">
            <g id="icons-/-play-vid---positive" transform="translate(39.000000, 44.000000)">
                <g id="Page-1">
                    <path d="M41.6665517,25.2984483 C41.6665517,34.345 34.2027586,41.6777586 24.9993103,41.6777586 C15.7941379,41.6777586 8.3337931,34.345 8.3337931,25.2984483 C8.3337931,16.2518966 15.7941379,8.91913793 24.9993103,8.91913793 C34.2027586,8.91913793 41.6665517,16.2518966 41.6665517,25.2984483 Z" id="Stroke-1" stroke-width="1.5" stroke-linecap="round" stroke-linejoin="round"></path>
                    <polygon id="Stroke-3" stroke-width="1.5" stroke-linecap="round" stroke-linejoin="round" points="19.9274138 31.7075862 19.9274138 18.8886207 32.9705172 25.2989655"></polygon>
                    <path d="M43.9655172,49.137931 L6.03448276,49.137931 C3.10862069,49.137931 0.862068966,46.8913793 0.862068966,43.9655172 L0.862068966,6.03448276 C0.862068966,3.10862069 3.10862069,0.862068966 6.03448276,0.862068966 L43.9655172,0.862068966 C46.8913793,0.862068966 49.137931,3.10862069 49.137931,6.03448276 L49.137931,43.9655172 C49.137931,46.8913793 46.8913793,49.137931 43.9655172,49.137931 Z" id="Stroke-5" stroke-width="1.5"></path>
                </g>
            </g>
        </g>
    </g>
</svg>