<?xml version="1.0" encoding="UTF-8"?>
<svg width="72px" height="64px" viewBox="0 0 72 64" version="1.1" xmlns="http://www.w3.org/2000/svg" xmlns:xlink="http://www.w3.org/1999/xlink">
    <!-- Generator: Sketch 48.2 (47327) - http://www.bohemiancoding.com/sketch -->
    <title>Page 1</title>
    <desc>Created with Sketch.</desc>
    <defs></defs>
    <g id="7.1-Branding-and-Leads---Lead-Gen" stroke="none" stroke-width="1" fill="none" fill-rule="evenodd" transform="translate(-355.000000, -491.000000)" stroke-linecap="round" stroke-linejoin="round">
        <g id="Page-1" transform="translate(355.000000, 491.000000)" stroke="#FFFFFF" stroke-width="1.5">
            <path d="M24.469697,54.862069 L9.01515152,54.862069 C4.76515152,54.862069 1.28787879,51.4172414 1.28787879,47.2068966 L1.28787879,8.93103448 C1.28787879,4.72068966 4.76515152,1.27586207 9.01515152,1.27586207 L63.1060606,1.27586207 C67.3560606,1.27586207 70.8333333,4.72068966 70.8333333,8.93103448 L70.8333333,47.2068966 C70.8333333,51.4172414 67.3560606,54.862069 63.1060606,54.862069 L45.0757576,54.862069" id="Stroke-1"></path>
            <path d="M34.7727273,26.7931034 L34.7727273,62.5172414" id="Stroke-3"></path>
            <polyline id="Stroke-5" points="47.6515152 39.5517241 34.7727273 26.7931034 21.8939394 39.5517241"></polyline>
            <path d="M1.28787879,19.137931 L70.8333333,19.137931" id="Stroke-7"></path>
            <path d="M2.41477273,11.4827586 L69.8661364,11.4827586" id="Stroke-9"></path>
        </g>
    </g>
</svg>