<?xml version="1.0" encoding="UTF-8"?>
<svg width="79px" height="79px" viewBox="0 0 79 79" version="1.1" xmlns="http://www.w3.org/2000/svg" xmlns:xlink="http://www.w3.org/1999/xlink">
    <!-- Generator: Sketch 48.2 (47327) - http://www.bohemiancoding.com/sketch -->
    <title>icons / free - reversed</title>
    <desc>Created with Sketch.</desc>
    <defs></defs>
    <g id="6.1-Add-ons---AMAX" stroke="none" stroke-width="1" fill="none" fill-rule="evenodd" transform="translate(-637.000000, -432.000000)" stroke-linejoin="round">
        <g id="icons-/-free---reversed" transform="translate(638.000000, 433.000000)" stroke="#FFFFFF" stroke-width="2">
            <path d="M50.0538127,22.7994001 C50.6929288,24.219658 52.5051778,25.3700668 54.0390563,25.3700668 L73.936869,25.3700668 C77.0727984,25.3700668 77.7658843,27.111303 75.4764286,29.2672544 L59.5581784,44.2594965 C58.4077695,45.341733 57.7743345,47.4778008 58.1379205,48.9861147 L64.08312,73.7951791 C64.8188135,76.8572551 63.3843531,77.8457546 60.8364105,75.9681737 L40.7283996,61.1520436 C39.458689,60.2146734 37.4021556,60.2118329 36.1267641,61.1520436 L16.0215937,75.9681737 C13.4935347,77.8287115 12.0590742,76.8629361 12.8146514,73.8349463 L18.7854155,49.8553125 C19.1632041,48.3356366 18.5723768,46.2279739 17.4588946,45.1400564 L1.31908423,29.3581509 C-0.933444749,27.1539107 -0.237518393,25.3700668 2.92113511,25.3700668 L22.8189478,25.3700668 C24.3812315,25.3700668 26.1622349,24.2224985 26.8041914,22.7994001 L36.0983589,2.14316965 C37.3851125,-0.717229694 39.4757321,-0.711548663 40.7568047,2.14316965 L50.0538127,22.7994001 Z" id="Page-1"></path>
        </g>
    </g>
</svg>