<?xml version="1.0" encoding="UTF-8"?>
<svg width="89px" height="74px" viewBox="0 0 89 74" version="1.1" xmlns="http://www.w3.org/2000/svg" xmlns:xlink="http://www.w3.org/1999/xlink">
    <!-- Generator: Sketch 50 (54983) - http://www.bohemiancoding.com/sketch -->
    <title>icons / state - NSW</title>
    <desc>Created with Sketch.</desc>
    <defs></defs>
    <g id="UI" stroke="none" stroke-width="1" fill="none" fill-rule="evenodd">
        <g id="6.4-Add-ons---1form" transform="translate(-1203.000000, -503.000000)" fill="#FEFEFE">
            <g id="icons-/-state---NSW" transform="translate(1203.000000, 503.000000)">
                <path d="M52.738185,71.5143085 C53.2549339,69.5273298 53.6038767,68.037883 54.03437,66.5724468 C54.4060529,65.3081489 55.2446916,64.0635319 55.2195991,62.8232447 C55.1556916,59.6432128 56.6067445,57.1823191 58.7349031,55.2504468 C60.2969119,53.8330319 61.2284714,52.3278404 61.6421057,50.3459787 C61.8012863,49.5843298 61.9538018,48.729 62.3991938,48.1358191 C65.5188987,43.9764681 68.00737,39.3187979 72.5004978,36.2603936 C74.2679515,35.0575 75.8750485,33.2543404 76.8748282,31.3618298 C78.4807489,28.3227128 79.7185154,25.0450638 80.7512291,21.7540319 C82.0956388,17.4675426 82.997793,13.0464362 85.7889427,9.34446809 C86.4656564,8.44741489 86.7938194,7.28506383 87.3070396,6.19198936 C84.9303084,5.69367021 82.975837,5.45710638 81.1425154,4.85054255 C79.354674,4.25932979 78.6218943,5.08356383 78.0016388,6.49035106 C77.7271894,7.11265957 77.4382335,8.09079787 76.9802952,8.20612766 C75.1387401,8.66980851 73.2270044,9.06657447 71.344674,9.05319149 C70.5499471,9.04728723 69.4737137,8.12582979 69.0338106,7.33544681 C68.1736079,5.78971277 66.9566211,5.05994681 65.3275683,4.79779787 C64.1701762,4.61161702 62.9751454,4.55808511 61.8608811,4.22823404 C60.4486432,3.81060638 59.3355551,4.11605319 58.2546167,5.04931915 C56.8067004,6.29944681 55.1207974,6.33408511 53.2812026,6.11995745 C51.0397357,5.85938298 48.761022,5.9152766 46.4979912,5.85347872 C45.913022,5.83734043 45.2884537,6.03690426 44.7458282,5.89362766 C40.0394141,4.65255319 34.9511233,5.38310638 30.438,3.0477766 C29.715022,2.67344681 28.6529031,2.97692553 27.7487885,2.93441489 C24.4491233,2.77854255 21.1474978,2.6502234 17.8517533,2.43452128 C12.4196167,2.07869149 6.99140088,1.6626383 1.34519383,1.25642553 L1.34519383,40.7492021 C2.38770925,40.5134255 3.26986784,40.3174043 4.15006608,40.1142979 C6.44407048,39.584883 7.80729956,40.1694043 7.97196916,42.4118404 C8.16094714,44.9825532 9.3928326,45.407266 11.5888194,45.5414894 C14.3246872,45.7079894 14.5650264,46.1885957 14.7892907,48.9321064 C14.8198722,49.3068298 14.8449648,49.7563404 15.0551145,50.0302979 C16.5520396,51.9818511 18.1050308,53.8893191 19.6231278,55.824734 C21.3584317,58.0364681 22.0939559,58.0352872 24.1123348,56.0510638 C24.514207,55.6558723 25.5606432,55.3720745 25.960163,55.6153298 C28.1953568,56.9756702 30.5681674,57.6641064 33.1648502,57.8282447 C36.3480705,58.0297766 39.5222731,58.3749787 42.7725374,58.6646809 C42.5859119,59.7069787 42.2279515,61.1027447 42.1260132,62.5170106 C42.0703392,63.2904681 42.1801189,64.4752553 42.6725595,64.8243936 C45.9498767,67.146734 49.350696,69.2931277 52.738185,71.5143085 Z M53.3141366,73.6898298 C50.0772026,71.6445957 46.941815,69.4064894 43.5723612,67.6112021 C40.5161718,65.9832021 39.7618282,63.751 40.789837,60.648117 C35.7685903,58.8174043 30.0831762,60.5205851 25.6594449,57.2728511 C24.6400617,57.9400319 23.8335727,58.7764681 22.8745683,59.0279894 C21.1855286,59.4704149 19.6937004,58.935883 18.6758855,57.3307128 C17.8015683,55.9514787 16.8225683,54.6383723 15.8710132,53.3095213 C15.5354009,52.8407234 15.2327225,52.2117234 14.7622379,52.0015319 C13.2649207,51.3331702 12.8297225,50.2267128 13.0363436,48.7061702 C13.1676872,47.7394468 12.7650308,47.2257766 11.7421189,47.2316809 C11.3571057,47.2340426 10.9724846,47.0986383 10.585511,47.0399894 C7.28349339,46.5412766 7.23134802,46.5526915 6.57815859,43.2868511 C6.27587225,41.7773298 5.61405727,41.4136277 4.13830396,41.7796915 C0.0125462555,42.8023085 0,42.7511383 0,38.6472872 C0,26.5841064 0,14.5205319 0,2.45695745 C0,1.74687234 0,1.03678723 0,0.0842340426 C6.16570044,0.167680851 12.1722203,-0.453840426 18.1936388,0.778574468 C21.0157621,1.35601064 23.9943216,1.1285 26.8925066,1.37608511 C28.8650132,1.54455319 30.8265419,1.87007447 32.7833656,2.18575532 C35.5984317,2.64038298 38.392326,3.24615957 41.21837,3.6051383 C43.459837,3.89011702 45.7365903,3.89208511 47.9964846,4.03732979 C49.8098106,4.15384043 51.6290176,4.46164894 53.4313656,4.37584043 C54.8455639,4.30853191 56.2393744,3.77675532 57.6390661,3.43745745 C58.9203524,3.12728723 60.197326,2.54079787 61.4754758,2.54276596 C63.0821806,2.54473404 64.697511,2.97456383 66.2916696,3.30598936 C68.0210925,3.6653617 69.4278414,4.48998936 70.2280573,6.20458511 C70.7891101,7.40590426 71.5109119,8.04159574 72.9988194,7.12525532 C73.7970749,6.63402128 74.9964185,6.79973404 76.0714758,6.66157447 C76.412185,5.98258511 76.6105727,5.02058511 77.1990705,4.5462766 C78.097304,3.82320213 79.3138987,2.91473404 80.3085815,3.00880851 C82.992304,3.26229787 85.6301542,4.00387234 88.4138546,4.57855319 C89.2979736,6.91939362 88.3248546,9.17639362 86.8161674,11.0433191 C84.4092467,14.0214255 83.8446652,17.635617 82.6911938,21.0793723 C81.4495066,24.7868511 80.2258546,28.5569149 78.4266432,32.0006702 C77.2625859,34.2277553 75.3567313,36.3166809 73.2940485,37.7655851 C69.1204581,40.6976383 66.822141,45.0612766 63.8984714,48.9533617 C63.4205374,49.5898404 63.3295771,50.5357021 63.1182511,51.3540319 C62.5983656,53.3669894 61.6076035,54.9524787 59.9899207,56.3891809 C58.1083744,58.0596915 56.7792555,60.1903404 56.8337533,63.0436702 C56.8611982,64.4831277 56.0006035,65.939117 55.5485463,67.3895957 C55.3066388,68.1658085 55.0310132,68.9357234 54.8565419,69.7272872 C54.5671938,71.04 54.3476344,72.3680638 54.0982775,73.6898298 L53.3141366,73.6898298 Z"></path>
            </g>
        </g>
    </g>
</svg>