<?xml version="1.0" encoding="UTF-8"?>
<svg width="64px" height="77px" viewBox="0 0 64 77" version="1.1" xmlns="http://www.w3.org/2000/svg" xmlns:xlink="http://www.w3.org/1999/xlink">
    <!-- Generator: Sketch 51.3 (57544) - http://www.bohemiancoding.com/sketch -->
    <title>thumbs up</title>
    <desc>Created with Sketch.</desc>
    <defs></defs>
    <g id="UI" stroke="none" stroke-width="1" fill="none" fill-rule="evenodd">
        <g id="4.2-Rent---Connections" transform="translate(-1181.000000, -578.000000)" fill-rule="nonzero">
            <g id="thumbs-up" transform="translate(1182.000000, 578.000000)">
                <polygon id="Path" stroke="#FFFFFF" stroke-width="2" points="0.25 39.3095238 9.22865318 39.3095238 9.22865318 70.9580893 0.25 74"></polygon>
                <path d="M12.8400504,72.5734863 C21.3736623,75.646504 27.2395128,76.9683849 36.7511724,76.9807317 C36.7738222,76.9807317 41.6246006,76.9870912 51.4482759,77 C54.6233751,77 57.2068966,74.4221047 57.2068966,71.2560976 C57.2068966,70.222944 56.9133945,69.2228839 56.3648725,68.317556 L55.7552308,67.311351 L56.8465118,66.8717865 C59.3769853,65.8525196 61.0689655,63.4101219 61.0689655,60.6585366 C61.0689655,59.0741281 60.4882692,57.5715926 59.4441134,56.345229 L58.6760451,55.4431309 L59.6943281,54.8374829 C61.7295091,53.6270109 63,51.4706392 63,49.097561 C63,47.1568645 62.1444702,45.3528059 60.6741273,44.0708042 L59.8096643,43.3170732 L60.6741273,42.5633422 C62.1444702,41.2813404 63,39.4772818 63,37.5365854 C63,33.8399964 59.9832218,30.8292683 56.2758621,30.8292683 L33.7014899,30.8292683 L33.7417145,29.7905713 C33.801708,28.241394 34.3129047,26.7080871 35.7878031,23.067904 C36.0622211,22.3913145 36.1859678,22.0847051 36.33978,21.6980239 C38.9608835,15.1086161 39.6248146,10.8351158 37.8326304,6.36509954 C35.8654838,1.43674906 34.1245045,0 31.1724138,0 C29.3734343,0 28.5256567,1.12729581 27.4515528,4.72745096 C27.3048807,5.219063 27.1888259,5.62740488 26.9116003,6.617803 L26.4159505,8.37966798 C25.0182369,13.2586268 22.7229459,16.7680289 17.824421,22.5627626 C17.6539782,22.7643888 17.5190697,22.9236277 17.2109563,23.2870438 C10.9650282,30.6522685 9,34.043761 9,39.4634146 C9,39.9761779 9.41496973,40.3902439 9.93103448,40.3902439 C10.4470992,40.3902439 10.862069,39.9761779 10.862069,39.4634146 C10.862069,34.5539405 12.6919377,31.4917246 18.6343515,24.4828779 C24.3050435,17.7973646 26.6689295,14.255336 28.2039567,8.89137072 L28.7067276,7.11728244 C29.7316823,3.43684915 29.9934295,2.60607047 30.4746572,2.13732357 L30.7658751,1.85365854 L31.1724138,1.85365854 C33.2683918,1.85365854 34.4474771,2.9090968 36.0997574,7.05001731 C37.8247692,11.3522921 37.0670442,14.9708016 34.06124,22.3739546 C31.8411105,27.856809 31.3646951,29.9121361 32.2383689,32.0985726 C32.379101,32.451437 32.7228678,32.6781021 33.1036977,32.6771464 L56.2758621,32.6829268 C58.9581801,32.6829268 61.137931,34.8571801 61.137931,37.5365854 C61.137931,40.2159906 58.9581801,42.3902439 56.2758621,42.3902439 L48.5517241,42.3902439 C48.0356594,42.3902439 47.6206897,42.8043099 47.6206897,43.3170732 C47.6206897,43.8298364 48.0356594,44.2439024 48.5517241,44.2439024 L56.2758621,44.2439024 C58.9581801,44.2439024 61.137931,46.4181557 61.137931,49.097561 C61.137931,51.7769662 58.9581801,53.9512195 56.2758621,53.9512195 L48.5517241,53.9512195 C48.0356594,53.9512195 47.6206897,54.3652856 47.6206897,54.8780488 C47.6206897,55.390812 48.0356594,55.804878 48.5517241,55.804878 L54.3448276,55.804878 C57.0271456,55.804878 59.2068966,57.9791313 59.2068966,60.6585366 C59.2068966,63.3379418 57.0271456,65.5121951 54.3448276,65.5121951 L48.5517241,65.5121951 C48.0356594,65.5121951 47.6206897,65.9262612 47.6206897,66.4390244 C47.6206897,66.9517876 48.0356594,67.3658537 48.5517241,67.3658537 L51.4482759,67.3658537 C53.5970387,67.3658537 55.3448276,69.1098364 55.3448276,71.2560976 C55.3448276,73.4023587 53.5970387,75.1463415 51.4482759,75.1463415 L36.9311611,75.1463403 C27.5826638,75.1320504 21.803669,73.8296962 13.4729554,70.8305967 C12.1220973,70.3430889 11.2314103,70.0393557 10.4876018,69.8252801 L9.70454969,71.5210654 C10.4302521,71.7213203 11.3863635,72.049476 12.8400504,72.5734863 Z" id="Path" fill="#FFFFFF"></path>
            </g>
        </g>
    </g>
</svg>