<svg width="157" height="243" viewBox="0 0 157 243" fill="none" xmlns="http://www.w3.org/2000/svg">
<path d="M0 243L-1.01848e-05 10C-1.04262e-05 4.47714 4.47714 -1.95703e-07 9.99999 -4.37114e-07L58 -2.53526e-06C63.5228 -2.77667e-06 68 4.47715 68 10L68 243L0 243Z" fill="#66408D"/>
<path d="M89 243L89 131C89 125.477 93.4771 121 99 121L147 121C152.523 121 157 125.477 157 131L157 243L89 243Z" fill="white"/>
<path d="M121.69 215.065L115.97 215.065L115.97 212.345L129.97 212.345L129.97 215.065L124.11 215.065L124.11 221.285L129.97 221.285L129.97 224.005L115.97 224.005L115.97 221.285L121.69 221.285L121.69 215.065ZM118.49 208.843C118.49 209.763 117.93 210.503 116.95 210.503C115.99 210.503 115.39 209.763 115.39 208.843C115.39 207.923 115.99 207.183 116.95 207.183C117.93 207.183 118.49 207.923 118.49 208.843ZM119.67 210.143L119.67 207.563L129.97 207.563L129.97 210.143L119.67 210.143ZM121.05 198.592L119.67 198.592L119.67 196.012L128.63 196.012C131.81 196.012 133.65 198.152 133.65 201.292C133.65 202.912 132.89 204.992 130.81 205.992L129.53 204.072C130.63 203.472 131.39 202.452 131.39 201.232C131.39 199.792 130.53 198.592 128.77 198.592L127.55 198.592C128.47 199.192 129.15 200.132 129.15 201.592C129.15 204.132 127.05 206.012 124.29 206.012C121.53 206.012 119.43 204.132 119.43 201.592C119.43 200.132 120.11 199.192 121.05 198.592ZM126.87 200.952C126.87 199.552 125.83 198.552 124.29 198.552C122.75 198.552 121.71 199.552 121.71 200.952C121.71 202.392 122.75 203.392 124.29 203.392C125.83 203.392 126.87 202.392 126.87 200.952ZM119.43 188.629C119.43 186.529 120.97 184.969 123.33 184.969L129.97 184.969L129.97 187.549L123.77 187.549C122.43 187.549 121.67 188.309 121.67 189.349C121.67 190.569 122.49 191.449 123.91 191.449L129.97 191.449L129.97 194.029L115.97 194.029L115.97 191.449L121.01 191.449C119.89 190.829 119.43 189.789 119.43 188.629ZM129.97 178.832L129.97 180.092C129.97 181.992 128.81 183.072 126.93 183.072L115.97 183.072L115.97 180.492L126.77 180.492C127.41 180.492 127.75 180.212 127.75 179.592L127.75 178.832L129.97 178.832ZM118.49 176.284C118.49 177.204 117.93 177.944 116.95 177.944C115.99 177.944 115.39 177.204 115.39 176.284C115.39 175.364 115.99 174.624 116.95 174.624C117.93 174.624 118.49 175.364 118.49 176.284ZM119.67 177.584L119.67 175.004L129.97 175.004L129.97 177.584L119.67 177.584ZM121.05 166.034L119.67 166.034L119.67 163.454L128.63 163.454C131.81 163.454 133.65 165.594 133.65 168.734C133.65 170.354 132.89 172.434 130.81 173.434L129.53 171.514C130.63 170.914 131.39 169.894 131.39 168.674C131.39 167.234 130.53 166.034 128.77 166.034L127.55 166.034C128.47 166.634 129.15 167.574 129.15 169.034C129.15 171.574 127.05 173.454 124.29 173.454C121.53 173.454 119.43 171.574 119.43 169.034C119.43 167.574 120.11 166.634 121.05 166.034ZM126.87 168.394C126.87 166.994 125.83 165.994 124.29 165.994C122.75 165.994 121.71 166.994 121.71 168.394C121.71 169.834 122.75 170.834 124.29 170.834C125.83 170.834 126.87 169.834 126.87 168.394ZM119.43 156.071C119.43 153.971 120.97 152.411 123.33 152.411L129.97 152.411L129.97 154.991L123.77 154.991C122.43 154.991 121.67 155.751 121.67 156.791C121.67 158.011 122.49 158.891 123.91 158.891L129.97 158.891L129.97 161.471L115.97 161.471L115.97 158.891L121.01 158.891C119.89 158.271 119.43 157.231 119.43 156.071ZM119.67 144.748L121.73 144.748L121.73 147.048L126.27 147.048C127.25 147.048 127.75 146.648 127.75 145.848L127.75 144.748L129.97 144.748L129.97 146.168C129.97 148.368 128.59 149.628 126.39 149.628L121.73 149.628L121.73 151.508L119.67 151.508L119.67 149.628L117.69 149.628L116.27 147.048L119.67 147.048L119.67 144.748Z" fill="#3E3B41"/>
<path d="M27 218.565L27 224.005L41 224.005L41 221.285L36.18 221.285L36.18 218.545C36.18 215.205 34.42 213.285 31.62 213.285C28.8 213.285 27 215.205 27 218.565ZM33.84 221.285L29.42 221.285L29.42 218.765C29.42 217.125 30.16 216.145 31.62 216.145C33.1 216.145 33.84 217.125 33.84 218.765L33.84 221.285ZM30.46 206.701C30.46 207.781 30.98 208.721 32.18 209.301L30.7 209.301L30.7 211.881L41 211.881L41 209.301L35.6 209.301C34.08 209.301 33.22 208.441 33.22 207.241L33.22 206.161L30.46 206.161L30.46 206.701ZM35.82 195.819C32.62 195.819 30.46 197.819 30.46 200.679C30.46 203.639 32.64 205.719 35.84 205.719C39.08 205.719 41.24 203.599 41.24 200.559C41.24 198.459 40.2 196.639 37.88 195.839L37.08 198.019C38.48 198.559 39.04 199.439 39.04 200.659C39.04 201.979 38.24 202.939 36.42 203.099L36.42 195.839C36.24 195.819 36 195.819 35.82 195.819ZM32.54 200.679C32.54 199.539 33.2 198.719 34.66 198.439L34.66 203.019C33.24 202.739 32.54 201.939 32.54 200.679ZM30.46 183.064C30.46 184.364 30.96 185.444 32.16 186.064C31.08 186.644 30.46 187.724 30.46 189.004C30.46 190.124 30.92 191.084 31.98 191.664L30.7 191.664L30.7 194.244L41 194.244L41 191.664L34.8 191.664C33.46 191.664 32.7 190.864 32.7 189.764C32.7 188.844 33.42 188.164 34.72 188.164L41 188.164L41 185.584L34.8 185.584C33.46 185.584 32.7 184.784 32.7 183.684C32.7 182.764 33.42 182.084 34.72 182.084L41 182.084L41 179.504L34.2 179.504C31.94 179.504 30.46 181.024 30.46 183.064ZM29.52 176.304C29.52 175.384 28.96 174.644 27.98 174.644C27.02 174.644 26.42 175.384 26.42 176.304C26.42 177.224 27.02 177.964 27.98 177.964C28.96 177.964 29.52 177.224 29.52 176.304ZM30.7 177.604L41 177.604L41 175.024L30.7 175.024L30.7 177.604ZM35.82 163.573C32.62 163.573 30.46 165.573 30.46 168.433C30.46 171.393 32.64 173.473 35.84 173.473C39.08 173.473 41.24 171.353 41.24 168.313C41.24 166.213 40.2 164.393 37.88 163.593L37.08 165.773C38.48 166.313 39.04 167.193 39.04 168.413C39.04 169.733 38.24 170.693 36.42 170.853L36.42 163.593C36.24 163.573 36 163.573 35.82 163.573ZM32.54 168.433C32.54 167.293 33.2 166.473 34.66 166.193L34.66 170.773C33.24 170.493 32.54 169.693 32.54 168.433ZM30.46 156.818C30.46 157.898 30.98 158.838 32.18 159.418L30.7 159.418L30.7 161.998L41 161.998L41 159.418L35.6 159.418C34.08 159.418 33.22 158.558 33.22 157.358L33.22 156.278L30.46 156.278L30.46 156.818ZM35.82 145.936C32.62 145.936 30.46 147.936 30.46 150.796C30.46 153.756 32.64 155.836 35.84 155.836C39.08 155.836 41.24 153.716 41.24 150.676C41.24 148.576 40.2 146.756 37.88 145.956L37.08 148.136C38.48 148.676 39.04 149.556 39.04 150.776C39.04 152.096 38.24 153.056 36.42 153.216L36.42 145.956C36.24 145.936 36 145.936 35.82 145.936ZM32.54 150.796C32.54 149.656 33.2 148.836 34.66 148.556L34.66 153.136C33.24 152.856 32.54 152.056 32.54 150.796ZM34.24 138.301L31.54 138.301L31.54 140.461L34.24 140.461L34.24 143.061L36.4 143.061L36.4 140.461L39.14 140.461L39.14 138.301L36.4 138.301L36.4 135.661L34.24 135.661L34.24 138.301Z" fill="white"/>
</svg>
