<?xml version="1.0" encoding="UTF-8"?>
<svg width="89px" height="89px" viewBox="0 0 89 89" version="1.1" xmlns="http://www.w3.org/2000/svg" xmlns:xlink="http://www.w3.org/1999/xlink">
    <!-- Generator: Sketch 51.3 (57544) - http://www.bohemiancoding.com/sketch -->
    <title>icons / avatar - pebble</title>
    <desc>Created with Sketch.</desc>
    <defs></defs>
    <g id="Designs---Set-1" stroke="none" stroke-width="1" fill="none" fill-rule="evenodd">
        <g id="Property-Management---Premiere-Listing---00" transform="translate(-1626.000000, -394.000000)" fill-rule="nonzero">
            <g id="brand-exposure" transform="translate(1544.000000, 396.000000)">
                <g id="icons-/-avatar---pebble" transform="translate(84.000000, 0.000000)">
                    <path d="M65.7391482,66.1346013 C65.8305696,66.1662293 65.8305696,66.1662293 65.9221002,66.1978289 C66.6363401,66.444284 71.6568437,68.1414194 74.3237111,69.0538423 C74.8462586,69.232623 75.1249367,69.8011619 74.946156,70.3237094 C74.7673753,70.8462569 74.1988365,71.124935 73.6762889,70.9461543 C71.0151687,70.0356976 65.9912362,68.3374031 65.2697273,68.0884398 C65.1772968,68.0565296 65.1772968,68.0565296 65.0849448,68.0245796 C62.8051007,67.2354267 60.7652486,66.4890642 52.4018363,63.3885235 C52.0096987,63.2431475 51.7494445,62.8691013 51.7494445,62.4508836 L51.7494445,51.8966302 C51.7494445,51.614862 51.8683169,51.3461691 52.0768212,51.1566452 C52.1822646,51.0608005 52.3906651,50.8473396 52.668087,50.5205278 C53.1421495,49.962067 53.6187646,49.2980074 54.0646438,48.532808 C55.3418835,46.3408623 56.1078796,43.789683 56.1078796,40.8987802 C56.1078796,40.3464955 56.5555948,39.8987802 57.1078796,39.8987802 C57.0663027,39.8987802 57.252318,39.726917 57.4732308,39.3068503 C57.7815586,38.7205633 58.0191939,37.9013158 58.1148072,37.0503766 C58.3323255,35.1145078 57.8114525,33.5689892 56.664286,33.0011921 C56.3235141,32.832525 56.1078796,32.4851931 56.1078796,32.1049641 C56.1078796,31.7708382 56.5788319,29.7439522 56.5612189,29.8292662 C57.3457038,26.0293649 57.1365387,22.3826963 55.1715136,18.3646143 C51.6219027,11.1063724 34.4878423,11.4983637 31.5743886,17.8344806 C29.0727898,21.9627965 28.6668381,25.7037929 29.3315523,29.9819951 C29.3786701,30.2852528 29.5299223,31.1804122 29.5282828,31.1703548 C29.599278,31.6058841 29.631265,31.8686373 29.631265,32.1049641 C29.631265,32.4851931 29.4156304,32.832525 29.0748585,33.0011921 C27.9276921,33.5689892 27.406819,35.1145078 27.6243374,37.0503766 C27.7199507,37.9013158 27.9575859,38.7205633 28.2659138,39.3068503 C28.4868265,39.726917 28.6728418,39.8987802 28.631265,39.8987802 C29.1835497,39.8987802 29.631265,40.3464955 29.631265,40.8987802 C29.631265,43.7796725 30.3909503,46.2043088 31.6550417,48.1981005 C32.0943923,48.8910675 32.563433,49.4794213 33.0292365,49.9634498 C33.2999588,50.2447645 33.5014358,50.4231474 33.5998249,50.4989132 C33.8456657,50.688226 33.9897,50.980933 33.9897,51.2912184 L33.9897,62.4508836 C33.9897,62.8691013 33.7294459,63.2431475 33.3373082,63.3885235 C26.3963031,65.9617398 23.4390533,66.9943062 20.0828541,68.0612898 C15.7821532,69.4265852 14.9474679,69.6982957 11.3255921,70.9455103 C10.8034012,71.1253299 10.2343093,70.8477831 10.0544897,70.3255921 C9.87467011,69.8034012 10.1522169,69.2343093 10.6744079,69.0544897 C14.3154596,67.8006717 15.1626501,67.5248904 19.3359347,66.2000754 C22.6933219,65.1327477 25.5403751,64.1418784 31.9897,61.7549067 L31.9897,51.7551418 C31.4051065,51.2233929 30.6816507,50.3979079 29.9659233,49.2690248 C28.6164384,47.140546 27.7669627,44.5941443 27.6461581,41.6339141 C25.2160311,40.2510812 24.6964832,33.8385417 27.5711018,31.596756 C27.5578758,31.513837 27.4048198,30.6080018 27.3552643,30.2890555 C26.6272567,25.6034865 27.0767846,21.4205324 29.7823544,16.9450688 C33.4582277,9.14037659 52.6816485,8.72088818 56.9681712,17.4859669 C59.1524843,21.9524487 59.3866651,26.0352507 58.5199136,30.2336363 C58.4696469,30.4771187 58.4172153,30.7145916 58.3560576,30.9794864 C58.3242252,31.1173634 58.2281572,31.5254402 58.2171463,31.5728287 C61.0381262,33.893501 60.5126902,40.2568535 58.0930815,41.63386 C57.9731125,44.5999925 57.1299614,47.2447426 55.7926802,49.5397292 C55.0645615,50.7892964 54.3302178,51.7194359 53.7494445,52.3183573 L53.7494445,61.7550813 C61.5528401,64.6474751 63.5388716,65.3729902 65.7391482,66.1346013 Z" id="Stroke-2439" fill="#D0021B"></path>
                    <path d="M42.5,86.25 C18.3375422,86.25 -1.25,66.6624578 -1.25,42.5 C-1.25,18.3375422 18.3375422,-1.25 42.5,-1.25 C66.6624578,-1.25 86.25,18.3375422 86.25,42.5 C86.25,66.6624578 66.6624578,86.25 42.5,86.25 Z M42.5,83.75 C65.2817459,83.75 83.75,65.2817459 83.75,42.5 C83.75,19.7182541 65.2817459,1.25 42.5,1.25 C19.7182541,1.25 1.25,19.7182541 1.25,42.5 C1.25,65.2817459 19.7182541,83.75 42.5,83.75 Z" id="Oval-5" fill="#828D99"></path>
                </g>
            </g>
        </g>
    </g>
</svg>