<?xml version="1.0" encoding="UTF-8"?>
<svg width="88px" height="88px" viewBox="0 0 88 88" version="1.1" xmlns="http://www.w3.org/2000/svg" xmlns:xlink="http://www.w3.org/1999/xlink">
    <!-- Generator: Sketch 51.2 (57519) - http://www.bohemiancoding.com/sketch -->
    <title>Slice 1</title>
    <desc>Created with Sketch.</desc>
    <defs></defs>
    <g id="Page-1" stroke="none" stroke-width="1" fill="none" fill-rule="evenodd">
        <g id="icons-/campaign-details---pebble">
            <path d="M43.75,87.5 C19.5875422,87.5 0,67.9124578 0,43.75 C0,19.5875422 19.5875422,0 43.75,0 C67.9124578,0 87.5,19.5875422 87.5,43.75 C87.5,67.9124578 67.9124578,87.5 43.75,87.5 Z M43.75,85 C66.5317459,85 85,66.5317459 85,43.75 C85,20.9682541 66.5317459,2.5 43.75,2.5 C20.9682541,2.5 2.5,20.9682541 2.5,43.75 C2.5,66.5317459 20.9682541,85 43.75,85 Z" id="Oval-5" fill="#828D99" fill-rule="nonzero"></path>
            <path d="M54,33.0787901 L39.9130435,19 L33.6521739,25.2068966 L33.6521739,23.6551724 L33.6521739,22.2912069 C33.6521739,21.3353448 32.8617391,20.5517241 31.8975652,20.5517241 L26.0154783,20.5517241 C25.0513043,20.5517241 24.2608696,21.3353448 24.2608696,22.2912069 L24.2608696,34.5172414 L18,40.7241379 L22.6956522,40.7241379 L22.6956522,60.8965517 C22.6956522,62.6034483 24.1043478,64 25.826087,64 L39.2644366,64" id="Path-Copy" stroke="#828D99" stroke-width="1.5" stroke-linecap="round" stroke-linejoin="round"></path>
            <g id="icon---payments-&amp;-invoices" stroke-width="1" fill-rule="evenodd" transform="translate(37.000000, 32.000000)" fill="#FFFFFF" opacity="0">
                <rect id="Rectangle-17" x="0" y="0" width="40" height="40"></rect>
            </g>
            <path d="M55,39.25 L73.296155,39.25" id="Stroke-7501" stroke="#828D99" stroke-width="1.5" stroke-linecap="round" stroke-linejoin="round"></path>
            <path d="M55,47.25 L73.296155,47.25" id="Stroke-7502" stroke="#828D99" stroke-width="1.5" stroke-linecap="round" stroke-linejoin="round"></path>
            <path d="M55,55.25 L73.296155,55.25" id="Stroke-7503" stroke="#828D99" stroke-width="1.5" stroke-linecap="round" stroke-linejoin="round"></path>
            <path d="M51,40 C51,41.104 50.104,42 49,42 C47.896,42 47,41.104 47,40 C47,38.896 47.896,38 49,38 C50.104,38 51,38.896 51,40 L51,40 Z" id="Stroke-7504" stroke="#00A4C7" stroke-width="1.5" stroke-linecap="round" stroke-linejoin="round"></path>
            <path d="M51,48 C51,49.104 50.104,50 49,50 C47.896,50 47,49.104 47,48 C47,46.896 47.896,46 49,46 C50.104,46 51,46.896 51,48 L51,48 Z" id="Stroke-7505" stroke="#00A4C7" stroke-width="1.5" stroke-linecap="round" stroke-linejoin="round"></path>
            <path d="M51,55 C51,56.104 50.104,57 49,57 C47.896,57 47,56.104 47,55 C47,53.896 47.896,53 49,53 C50.104,53 51,53.896 51,55 L51,55 Z" id="Stroke-7506" stroke="#00A4C7" stroke-width="1.5" stroke-linecap="round" stroke-linejoin="round"></path>
        </g>
    </g>
</svg>