<?xml version="1.0" encoding="UTF-8"?>
<svg width="88px" height="88px" viewBox="0 0 88 88" version="1.1" xmlns="http://www.w3.org/2000/svg" xmlns:xlink="http://www.w3.org/1999/xlink">
    <!-- Generator: Sketch 51.2 (57519) - http://www.bohemiancoding.com/sketch -->
    <title>icons / reward - pebble  </title>
    <desc>Created with Sketch.</desc>
    <defs></defs>
    <g id="Page-1" stroke="none" stroke-width="1" fill="none" fill-rule="evenodd">
        <g id="icons-/-informed-choice---pebble">
            <path d="M43.75,87.5 C19.5875422,87.5 0,67.9124578 0,43.75 C0,19.5875422 19.5875422,0 43.75,0 C67.9124578,0 87.5,19.5875422 87.5,43.75 C87.5,67.9124578 67.9124578,87.5 43.75,87.5 Z M43.75,85 C66.5317459,85 85,66.5317459 85,43.75 C85,20.9682541 66.5317459,2.5 43.75,2.5 C20.9682541,2.5 2.5,20.9682541 2.5,43.75 C2.5,66.5317459 20.9682541,85 43.75,85 Z" id="Oval-5" fill="#828D99" fill-rule="nonzero"></path>
            <g id="Group-23" stroke-width="1" fill-rule="evenodd" transform="translate(22.000000, 24.000000)">
                <path d="M25.8199363,29.248343 C25.6714165,29.248343 25.530513,29.2882693 25.4314998,29.3911099 C25.2233182,29.6064703 25.2106242,29.9416097 25.4010342,30.1702788 C25.40992,30.1799579 25.4175364,30.1884271 25.4238834,30.1981063 L30.2311024,36.7036823 C30.4316676,36.9771173 30.6728537,37.2711205 30.9216561,37.572383 C31.159034,37.8639663 31.4014894,38.1603893 31.6210957,38.4507628 C32.2557958,39.2892162 33.2535445,39.7901105 34.2906445,39.7901105 L38.3717665,39.7901105 C39.9927907,39.7901105 41.3967474,38.7072593 41.6341253,37.2723304 C41.6595133,37.1247238 41.6722073,36.9504997 41.6747461,36.7351394 L41.7305997,29.1152551 C41.7305997,28.1122567 41.2520358,27.9864282 40.6985773,27.8400316 C40.1108449,27.6851657 36.5565241,27.243556 34.3109549,26.9846397 C34.0354951,26.9531825 33.81335,26.7523409 33.7638434,26.4910047 L32.4817491,19.6635981 C32.4157403,19.0997896 31.5563563,19.1639137 31.5246213,19.6357706 L30.7756751,30.956707 C30.7629811,31.1696476 30.6322329,31.3596002 30.4342064,31.4563914 C30.23618,31.5543924 29.9962633,31.5447133 29.8083921,31.4334035 L26.4165545,29.4249868 C26.2578794,29.3281957 26.0306568,29.248343 25.8199363,29.248343 M38.3717665,41 L34.2906445,41 C32.8473364,41 31.4649595,40.3127827 30.5928814,39.1585481 C30.382161,38.8802735 30.1485913,38.5959495 29.9188299,38.3176749 C29.6586028,37.9982641 29.4047228,37.6873225 29.1914635,37.3993688 L24.3956692,30.9083114 C23.8320554,30.2162546 23.8739456,29.215676 24.49976,28.569595 C25.2042772,27.8436612 26.3378516,27.9368227 27.0956836,28.4038401 L29.5760918,29.8714361 L30.2577598,19.5595476 C30.3161522,18.6847975 31.08287,18 32.0006464,18 C32.8993818,18 33.6457892,18.6424513 33.737186,19.4942136 L34.9304223,25.8376644 C36.3584976,26.005839 40.2860222,26.4764861 41.0349683,26.6736981 C41.6239701,26.8285639 43,27.1915308 43,29.1188848 L42.9441464,36.7460284 C42.9416076,37.0339821 42.9212972,37.265071 42.8882928,37.4610731 C42.5531711,39.4791689 40.6109886,41 38.3717665,41" id="Fill-1" fill="#00A4C7"></path>
                <g id="Group-5" fill="#828D99">
                    <path d="M10.3683563,1.91631176 C7.94810625,1.91631176 5.67223125,2.80325294 3.96073125,4.41407647 C0.42879375,7.73825294 0.42879375,13.1488412 3.96073125,16.4742529 C5.67223125,18.0850765 7.94810625,18.9720176 10.3683563,18.9720176 C12.7886063,18.9720176 15.0631688,18.0850765 16.7746688,16.4742529 C18.4861688,14.8634294 19.4285438,12.7214294 19.4285438,10.4435471 C19.4285438,8.1669 18.4861688,6.0249 16.7746688,4.41407647 C15.0631688,2.80325294 12.7886063,1.91631176 10.3683563,1.91631176 M10.3683563,20.2073118 C7.59766875,20.2073118 4.99235625,19.1919 3.03279375,17.3476059 C-1.01101875,13.5404294 -1.01101875,7.34666471 3.03279375,3.54072353 C4.99235625,1.69642941 7.59766875,0.681017647 10.3683563,0.681017647 C13.1390438,0.681017647 15.7443563,1.69642941 17.7026063,3.54072353 C19.6621688,5.38501765 20.7410438,7.83584118 20.7410438,10.4435471 C20.7410438,13.0512529 19.6621688,15.5033118 17.7026063,17.3476059 C15.7443563,19.1919 13.1390438,20.2073118 10.3683563,20.2073118" id="Fill-3"></path>
                </g>
                <path d="M35.741352,20 L35.3306168,18.766437 C36.7183435,18.3280097 37.9492199,17.5925415 38.9886856,16.5781921 C42.567,13.0863397 42.567,7.4062424 38.9886856,3.91438995 C35.4103712,0.421240373 29.5869703,0.423834617 26.0113144,3.91438995 C22.433,7.4062424 22.433,13.0863397 26.0113144,16.5781921 C26.9909643,17.5341711 28.1447448,18.2449939 29.4407539,18.6912039 L28.9994461,19.9143899 C27.5146849,19.4033239 26.192091,18.5900284 25.0715416,17.4952574 C20.9761528,13.4975274 20.9761528,6.99505472 25.0715416,2.99732469 C29.1682596,-0.999108229 35.8317404,-0.999108229 39.9284584,2.99732469 C44.0238472,6.99505472 44.0238472,13.4975274 39.9284584,17.4952574 C38.7387885,18.6548845 37.329794,19.4980138 35.741352,20" id="Fill-14" fill="#00A4C7"></path>
                <g id="Group-18" transform="translate(0.000000, 21.000000)" fill="#828D99">
                    <path d="M10.3683563,1.503054 C7.94810625,1.503054 5.67223125,2.407734 3.96073125,4.050774 C0.42879375,7.442694 0.42879375,12.961494 3.96073125,16.352154 C5.67223125,17.995194 7.94810625,18.899874 10.3683563,18.899874 C12.7886063,18.899874 15.0631688,17.995194 16.7746688,16.352154 C18.4861688,14.709114 19.4285438,12.525534 19.4285438,10.202094 C19.4285438,7.878654 18.4861688,5.693814 16.7746688,4.050774 C15.0631688,2.407734 12.7886063,1.503054 10.3683563,1.503054 M10.3683563,20.159874 C7.59766875,20.159874 4.99235625,19.124154 3.03279375,17.242974 C-1.01101875,13.360914 -1.01101875,7.043274 3.03279375,3.159954 C4.99235625,1.278774 7.59766875,0.243054 10.3683563,0.243054 C13.1390438,0.243054 15.7443563,1.278774 17.7026063,3.159954 C19.6621688,5.041134 20.7410438,7.540974 20.7410438,10.202094 C20.7410438,12.861954 19.6621688,15.363054 17.7026063,17.242974 C15.7443563,19.124154 13.1390438,20.159874 10.3683563,20.159874" id="Fill-16"></path>
                </g>
            </g>
        </g>
    </g>
</svg>