<?xml version="1.0" encoding="UTF-8"?>
<svg width="88px" height="87px" viewBox="0 0 88 87" version="1.1" xmlns="http://www.w3.org/2000/svg" xmlns:xlink="http://www.w3.org/1999/xlink">
    <!-- Generator: Sketch 63.1 (92452) - https://sketch.com -->
    <title>icons / eye - pebble</title>
    <desc>Created with Sketch.</desc>
    <g id="Page-1" stroke="none" stroke-width="1" fill="none" fill-rule="evenodd">
        <g id="icons-/-connect-with-seller" transform="translate(1.000000, 1.000000)">
            <g id="icons-/-ad-creative---pebble" stroke-width="1" fill-rule="evenodd" stroke="#828D99">
                <circle id="Oval-5" stroke-width="2.5" cx="42.989457" cy="42.462651" r="41.884058"></circle>
            </g>
            <line x1="64.0954372" y1="54.6111734" x2="54.0507056" y2="64.3515192" id="Stroke-1855" stroke="#00A4C7" stroke-width="1.5" stroke-linecap="round" stroke-linejoin="round" transform="translate(59.073071, 59.481346) rotate(-90.000000) translate(-59.073071, -59.481346) "></line>
            <polyline id="Stroke-1857" stroke="#00A4C7" stroke-width="1.5" stroke-linecap="round" stroke-linejoin="round" transform="translate(58.514493, 58.514493) rotate(-90.000000) translate(-58.514493, -58.514493) " points="54.2028986 54.2028986 62.826087 54.2028986 62.826087 62.826087"></polyline>
            <path d="M51.3198661,48.1059736 C50.6699944,47.7211503 49.4260826,46.7019336 47.4860854,45.9503262 L47.4860854,40.3690826 C47.4860854,40.3690826 50.669995,38.7077324 50.669995,33.1227681 C52.4545032,33.1227681 52.4545032,28.2652258 50.669995,28.2652258 C50.669995,27.7164035 51.2464141,23.2695782 50.1754074,20.9909869 C47.8711546,16.0886359 37.8614704,15.9085231 35.554807,20.9909868 C33.8819125,24.3425974 34.7124784,27.6847764 34.7124784,28.4326631 C32.9279703,28.4326631 32.9279703,33.1227681 34.7124784,33.1227681 C34.7124784,38.7077324 38.4460238,41.2992899 38.4460238,41.2992899 L38.4460238,45.9503262 C32.1143647,48.4265379 24.2531272,50.1437005 23.3147688,53.0626909 C22.2353855,56.4151578 22.173913,62.6940569 22.173913,62.6940569 L47.4860854,62.6940579" id="Stroke-2467-Copy" stroke="#828D99" stroke-width="1.5" stroke-linecap="round" stroke-linejoin="round"></path>
        </g>
    </g>
</svg>