<?xml version="1.0" encoding="UTF-8"?>
<svg width="85px" height="85px" viewBox="0 0 85 85" version="1.1" xmlns="http://www.w3.org/2000/svg" xmlns:xlink="http://www.w3.org/1999/xlink">
    <!-- Generator: Sketch 51.2 (57519) - http://www.bohemiancoding.com/sketch -->
    <title>Slice 1</title>
    <desc>Created with Sketch.</desc>
    <defs></defs>
    <g id="Page-1" stroke="none" stroke-width="1" fill="none" fill-rule="evenodd">
        <g id="icons-/-data-check---pebble">
            <path d="" id="Path-7" stroke="#979797" stroke-width="1"></path>
            <path d="" id="Path-10" stroke="#979797" stroke-width="1"></path>
            <g id="database-warning" stroke-linecap="round" stroke-linejoin="round" stroke-width="1" fill-rule="evenodd" transform="translate(43.000000, 43.000000) scale(-1, 1) translate(-43.000000, -43.000000) translate(7.000000, 3.000000)">
                <path d="M35.5,30.7906602 C15.3949514,30.7906602 -1,23.9115556 -1,14.8953301 C-1,5.87910461 15.3949514,-1 35.5,-1 C55.6050486,-1 72,5.87910461 72,14.8953301 C72,23.9115556 55.6050486,30.7906602 35.5,30.7906602 Z M35.5,28.7906602 C54.6071687,28.7906602 70,22.3320319 70,14.8953301 C70,7.45862829 54.6071687,1 35.5,1 C16.3928313,1 1,7.45862829 1,14.8953301 C1,22.3320319 16.3928313,28.7906602 35.5,28.7906602 Z" id="Oval" fill="#828D99" fill-rule="nonzero"></path>
                <path d="M44.1787037,43.4002456 C44.7279524,43.3424158 45.2200868,43.7407896 45.2779166,44.2900383 C45.3357464,44.839287 44.9373727,45.3314214 44.388124,45.3892512 C20.9228247,47.8598874 -1,40.3199793 -1,29.5652174 C-1,29.0129326 -0.55228475,28.5652174 0,28.5652174 C0.55228475,28.5652174 1,29.0129326 1,29.5652174 C1,38.6220019 21.7571212,45.76099 44.1787037,43.4002456 Z" id="Path" fill="#828D99" fill-rule="nonzero"></path>
                <path d="M35.4267311,59.5152979 C35.9790158,59.5152979 36.4267311,59.9630132 36.4267311,60.5152979 C36.4267311,61.0675827 35.9790158,61.5152979 35.4267311,61.5152979 C15.3621857,61.5152979 -1,54.4524414 -1,45.2173913 C-1,44.6651066 -0.55228475,44.2173913 2.22044605e-16,44.2173913 C0.55228475,44.2173913 1,44.6651066 1,45.2173913 C1,52.8884767 16.3520432,59.5152979 35.4267311,59.5152979 Z" id="Path" fill="#828D99" fill-rule="nonzero"></path>
                <path d="M30.6519585,78.2608367 C31.2033721,78.2918448 31.625244,78.763991 31.5942358,79.3154045 C31.5632276,79.8668181 31.0910815,80.2886901 30.5396679,80.2576819 C12.6363581,79.2509073 -1,72.6847385 -1,64.3932355 L-1,15.6521739 C-1,15.0998892 -0.55228475,14.6521739 2.22044605e-16,14.6521739 C0.55228475,14.6521739 1,15.0998892 1,15.6521739 L1,64.3932355 C1,71.19039 13.7044112,77.3078084 30.6519585,78.2608367 Z" id="Path" fill="#828D99" fill-rule="nonzero"></path>
                <path d="M71.25,15 L71.25,35.9339775" id="Path" stroke="#828D99" stroke-width="1.5"></path>
                <path d="" id="Path" stroke="#333F48"></path>
            </g>
            <polyline id="Path-9" stroke="#00A4C7" stroke-width="1.5" points="16 66.5131579 21.7236842 72.2368421 31 60.1973684"></polyline>
            <circle id="Oval-5" stroke="#00A4C7" stroke-width="1.5" cx="23" cy="66" r="17"></circle>
        </g>
    </g>
</svg>