<?xml version="1.0" encoding="UTF-8"?>
<svg width="88px" height="88px" viewBox="0 0 88 88" version="1.1" xmlns="http://www.w3.org/2000/svg" xmlns:xlink="http://www.w3.org/1999/xlink">
    <!-- Generator: Sketch 51.3 (57544) - http://www.bohemiancoding.com/sketch -->
    <title>icons / exposure</title>
    <desc>Created with Sketch.</desc>
    <defs></defs>
    <g id="Designs---Set-2" stroke="none" stroke-width="1" fill="none" fill-rule="evenodd">
        <g id="Property-Management---Property-Showcase---00" transform="translate(-193.000000, -732.000000)">
            <g id="views" transform="translate(120.000000, 732.000000)">
                <g id="icons-/-exposure" transform="translate(73.000000, 0.000000)">
                    <g id="icons-/-exclusive-placement---pebble">
                        <path d="M43.75,87.5 C19.5875422,87.5 0,67.9124578 0,43.75 C0,19.5875422 19.5875422,0 43.75,0 C67.9124578,0 87.5,19.5875422 87.5,43.75 C87.5,67.9124578 67.9124578,87.5 43.75,87.5 Z M43.75,85 C66.5317459,85 85,66.5317459 85,43.75 C85,20.9682541 66.5317459,2.5 43.75,2.5 C20.9682541,2.5 2.5,20.9682541 2.5,43.75 C2.5,66.5317459 20.9682541,85 43.75,85 Z" id="Oval-5" fill="#828D99" fill-rule="nonzero"></path>
                        <path d="M54,33.0787901 L39.9130435,19 L33.6521739,25.2068966 L33.6521739,23.6551724 L33.6521739,22.2912069 C33.6521739,21.3353448 32.8617391,20.5517241 31.8975652,20.5517241 L26.0154783,20.5517241 C25.0513043,20.5517241 24.2608696,21.3353448 24.2608696,22.2912069 L24.2608696,34.5172414 L18,40.7241379 L22.6956522,40.7241379 L22.6956522,60.8965517 C22.6956522,62.6034483 24.1043478,64 25.826087,64 L39.2644366,64" id="Path-Copy" stroke="#828D99" stroke-width="1.5" stroke-linecap="round" stroke-linejoin="round"></path>
                        <g id="icon---payments-&amp;-invoices" stroke-width="1" fill-rule="evenodd" transform="translate(37.000000, 32.000000)">
                            <rect id="Rectangle-17" fill="#FFFFFF" opacity="0" x="0" y="0" width="40" height="40"></rect>
                            <circle id="Oval-5" stroke="#00A4C7" stroke-width="1.5" cx="18" cy="21" r="14"></circle>
                            <path d="M18,13 L18,29" id="Stroke-4924" stroke="#00A4C7" stroke-width="1.5" stroke-linecap="round" stroke-linejoin="round"></path>
                            <polyline id="Path-2" stroke="#00A4C7" stroke-width="1.5" points="12 19 18 13 23.5 18.5"></polyline>
                        </g>
                    </g>
                </g>
            </g>
        </g>
    </g>
</svg>