<?xml version="1.0" encoding="UTF-8"?>
<svg width="88px" height="88px" viewBox="0 0 88 88" version="1.1" xmlns="http://www.w3.org/2000/svg" xmlns:xlink="http://www.w3.org/1999/xlink">
    <!-- Generator: Sketch 51.2 (57519) - http://www.bohemiancoding.com/sketch -->
    <title>icons / exposure</title>
    <desc>Created with Sketch.</desc>
    <defs></defs>
    <g id="Page-1" stroke="none" stroke-width="1" fill="none" fill-rule="evenodd">
        <g id="icons-/-exposure">
            <g id="icons-/-target---pebble">
                <path d="M43.75,87.5 C19.5875422,87.5 0,67.9124578 0,43.75 C0,19.5875422 19.5875422,0 43.75,0 C67.9124578,0 87.5,19.5875422 87.5,43.75 C87.5,67.9124578 67.9124578,87.5 43.75,87.5 Z M43.75,85 C66.5317459,85 85,66.5317459 85,43.75 C85,20.9682541 66.5317459,2.5 43.75,2.5 C20.9682541,2.5 2.5,20.9682541 2.5,43.75 C2.5,66.5317459 20.9682541,85 43.75,85 Z" id="Oval-5" fill="#828D99" fill-rule="nonzero"></path>
                <g id="Group" stroke-width="1" fill-rule="evenodd" transform="translate(13.000000, 13.000000)" stroke="#D0021B" stroke-linecap="round" stroke-linejoin="round">
                    <path d="M53.2258065,30.46875 C53.2258065,42.6383929 43.0439171,52.5 30.483871,52.5 C17.9259908,52.5 7.74193548,42.6383929 7.74193548,30.46875 C7.74193548,18.3012054 17.9259908,8.4375 30.483871,8.4375 C43.0439171,8.4375 53.2258065,18.3012054 53.2258065,30.46875 L53.2258065,30.46875 Z" id="Stroke-2874" stroke-width="2"></path>
                    <path d="M30.9677419,0 L30.9677419,15" id="Stroke-2875" stroke-width="2"></path>
                    <path d="M0,30.9375 L15.483871,30.9375" id="Stroke-2876" stroke-width="2"></path>
                    <path d="M30.9677419,60 L30.9677419,45" id="Stroke-2877" stroke-width="2"></path>
                    <path d="M60,30.9375 L44.516129,30.9375" id="Stroke-2878" stroke-width="2"></path>
                </g>
            </g>
        </g>
    </g>
</svg>