<?xml version="1.0" encoding="UTF-8"?>
<svg width="107px" height="63px" viewBox="0 0 107 63" version="1.1" xmlns="http://www.w3.org/2000/svg" xmlns:xlink="http://www.w3.org/1999/xlink">
    <!-- Generator: Sketch 51.3 (57544) - http://www.bohemiancoding.com/sketch -->
    <title>icons / eye - pebble</title>
    <desc>Created with Sketch.</desc>
    <defs></defs>
    <g id="Designs---Set-1" stroke="none" stroke-width="1" fill="none" fill-rule="evenodd">
        <g id="Property-Management---Premiere-Listing---00" transform="translate(-196.000000, -754.000000)">
            <g id="views" transform="translate(120.000000, 755.000000)">
                <g id="icons-/-exposure" transform="translate(77.000000, 0.000000)">
                    <g id="icons-/-eye---pebble">
                        <path d="M0.284457143,30.3849013 C0.284457143,30.3849013 51.3473143,98.5882792 103.903886,30.3849013 C51.3473143,-37.8184765 0.284457143,30.3849013 0.284457143,30.3849013" id="Fill-1" stroke="#F0F1F2" stroke-width="1" fill="#F0F1F2" fill-rule="evenodd"></path>
                        <path d="M-0.47439517,30.9446694 L-0.893485234,30.3849013 L-0.47439517,29.8251333 C-0.426123247,29.7606577 -0.334322012,29.6406594 -0.19987736,29.4688335 C0.0217450495,29.1855907 0.28422635,28.8579288 0.58668302,28.4895426 C1.44798988,27.4404879 2.45850263,26.2730104 3.61119128,25.0166645 C6.90171743,21.4302329 10.6756272,17.8447046 14.8776902,14.4967378 C26.9201032,4.90202217 40.0021172,-0.866172577 53.6811132,-0.866172577 C71.2667741,-0.866172577 88.4272669,8.75599305 104.65485,29.8147479 L105.094202,30.3849013 L104.65485,30.9550548 C88.4272669,52.0138097 71.2667741,61.6359753 53.6811132,61.6359753 C40.0021172,61.6359753 26.9201032,55.8677805 14.8776902,46.2730649 C10.6756272,42.9250981 6.90171743,39.3395698 3.61119128,35.7531382 C2.45850263,34.4967923 1.44798988,33.3293148 0.58668302,32.2802601 C0.28422635,31.9118739 0.0217450495,31.584212 -0.19987736,31.3009692 C-0.334322012,31.1291433 -0.426123247,31.009145 -0.47439517,30.9446694 Z M2.05247862,31.0945327 C2.89247301,32.1176293 3.880493,33.2591202 5.00922566,34.4893558 C8.23704607,38.0074428 11.940922,41.5264331 16.0613405,44.8093502 C27.797446,54.1600173 40.4958129,59.7590522 53.6811132,59.7590522 C70.4782099,59.7590522 86.9545225,50.6077633 102.71114,30.3849013 C86.9545225,10.1620394 70.4782099,1.0107505 53.6811132,1.0107505 C40.4958129,1.0107505 27.797446,6.6097854 16.0613405,15.9604525 C11.940922,19.2433696 8.23704607,22.7623599 5.00922566,26.2804469 C3.880493,27.5106825 2.89247301,28.6521734 2.05247862,29.67527 C1.84038177,29.9335997 1.6490938,30.1706121 1.47895964,30.3849013 C1.6490938,30.5991906 1.84038177,30.836203 2.05247862,31.0945327 Z" id="Stroke-3" fill="#828D99" fill-rule="nonzero"></path>
                        <path d="M82.4491429,30.3486807 C82.4491429,47.1095885 68.8582857,60.6974756 52.0937143,60.6974756 C35.3291429,60.6974756 21.7382857,47.1095885 21.7382857,30.3486807 C21.7382857,13.5877729 35.3291429,-0.000114260739 52.0937143,-0.000114260739 C68.8582857,-0.000114260739 82.4491429,13.5877729 82.4491429,30.3486807" id="Fill-5" fill="#F0F1F2" fill-rule="evenodd"></path>
                        <path d="M81.5036883,30.3486807 C81.5036883,14.1045632 68.3345945,0.938347278 52.0937143,0.938347278 C35.852834,0.938347278 22.6837403,14.1045632 22.6837403,30.3486807 C22.6837403,46.5927982 35.852834,59.7590141 52.0937143,59.7590141 C68.3345945,59.7590141 81.5036883,46.5927982 81.5036883,30.3486807 Z M83.3945974,30.3486807 C83.3945974,47.6263789 69.3819769,61.6359372 52.0937143,61.6359372 C34.8054517,61.6359372 20.7928312,47.6263789 20.7928312,30.3486807 C20.7928312,13.0709825 34.8054517,-0.938575799 52.0937143,-0.938575799 C69.3819769,-0.938575799 83.3945974,13.0709825 83.3945974,30.3486807 Z" id="Stroke-7" fill="#828D99" fill-rule="nonzero"></path>
                        <path d="M62.8096,30.3486807 C62.8096,36.2651018 58.0130286,41.0617676 52.0941714,41.0617676 C46.1764571,41.0617676 41.3787429,36.2651018 41.3787429,30.3486807 C41.3787429,24.4322596 46.1764571,19.6355938 52.0941714,19.6355938 C58.0130286,19.6355938 62.8096,24.4322596 62.8096,30.3486807" id="Fill-9" fill="#F0F1F2" fill-rule="evenodd"></path>
                        <path d="M61.8641455,30.3486807 C61.8641455,24.94864 57.488927,20.5740553 52.0941714,20.5740553 C46.7001483,20.5740553 42.3241974,24.94905 42.3241974,30.3486807 C42.3241974,35.7483114 46.7001483,40.1233061 52.0941714,40.1233061 C57.488927,40.1233061 61.8641455,35.7487214 61.8641455,30.3486807 Z M63.7550545,30.3486807 C63.7550545,36.7822714 58.5363408,42.0002291 52.0941714,42.0002291 C45.652766,42.0002291 40.4332883,36.7818921 40.4332883,30.3486807 C40.4332883,23.9154693 45.652766,18.6971322 52.0941714,18.6971322 C58.5363408,18.6971322 63.7550545,23.91509 63.7550545,30.3486807 Z" id="Stroke-11" fill="#00A4C7" fill-rule="nonzero"></path>
                        <path d="M0.284457143,30.3849013 C0.284457143,30.3849013 54.8341714,-9.42925325 103.903886,30.3849013 C51.3473143,-37.8184765 0.284457143,30.3849013 0.284457143,30.3849013" id="Fill-13" fill="#F0F1F2" fill-rule="evenodd"></path>
                        <path d="M0.844542169,31.1409689 C-0.0301328369,31.7793672 -1.12197641,30.6900913 -0.47439517,29.8251333 C-0.426123247,29.7606577 -0.334322012,29.6406594 -0.19987736,29.4688335 C0.0217450495,29.1855907 0.28422635,28.8579288 0.58668302,28.4895426 C1.44798988,27.4404879 2.45850263,26.2730104 3.61119128,25.0166645 C6.90171743,21.4302329 10.6756272,17.8447046 14.8776902,14.4967378 C26.9201032,4.90202217 40.0021172,-0.866172577 53.6811132,-0.866172577 C71.2667741,-0.866172577 88.4272669,8.75599305 104.65485,29.8147479 C105.336467,30.6992924 104.174167,31.8163024 103.30552,31.1114998 C98.9755601,27.5982597 94.5130398,24.6385342 89.9287946,22.2089576 C76.9622397,15.3368909 63.2380962,12.7892024 49.093295,13.8629366 C37.8667144,14.7151482 26.9257255,17.7930015 16.632519,22.3930408 C12.3386535,24.3119715 8.45205111,26.3676961 5.04303196,28.4222084 C3.85185026,29.1400975 2.8061726,29.8060041 1.91475638,30.4026519 C1.60406934,30.6106027 1.33521016,30.7947714 1.10927188,30.9529978 C0.975569051,31.0466309 0.88696178,31.1100081 0.844542169,31.1409689 Z M5.06209672,26.2228676 C8.28760675,24.3297844 11.90262,22.4484506 15.856226,20.6815821 C26.3365053,15.9979398 37.4849598,12.8617235 48.9491072,11.9914782 C63.4391932,10.8915333 77.5218757,13.5057794 90.8194131,20.5532616 C93.3663363,21.9030901 95.875446,23.4120174 98.3448249,25.0835699 C83.9204949,8.55582442 68.9330444,1.0107505 53.6811132,1.0107505 C40.4958129,1.0107505 27.797446,6.6097854 16.0613405,15.9604525 C11.9634011,19.2254595 8.27747179,22.7239709 5.06209672,26.2228676 Z" id="Stroke-15" fill="#828D99" fill-rule="nonzero"></path>
                    </g>
                </g>
            </g>
        </g>
    </g>
</svg>