<?xml version="1.0" encoding="UTF-8"?>
<svg width="88px" height="88px" viewBox="0 0 88 88" version="1.1" xmlns="http://www.w3.org/2000/svg" xmlns:xlink="http://www.w3.org/1999/xlink">
    <!-- Generator: Sketch 51.2 (57519) - http://www.bohemiancoding.com/sketch -->
    <title>icons / exposure</title>
    <desc>Created with Sketch.</desc>
    <defs></defs>
    <g id="Page-1" stroke="none" stroke-width="1" fill="none" fill-rule="evenodd">
        <g id="icons-/-exposure">
            <g id="icons-/-standout---pebble">
                <path d="M43.75,87.5 C19.5875422,87.5 0,67.9124578 0,43.75 C0,19.5875422 19.5875422,0 43.75,0 C67.9124578,0 87.5,19.5875422 87.5,43.75 C87.5,67.9124578 67.9124578,87.5 43.75,87.5 Z M43.75,85 C66.5317459,85 85,66.5317459 85,43.75 C85,20.9682541 66.5317459,2.5 43.75,2.5 C20.9682541,2.5 2.5,20.9682541 2.5,43.75 C2.5,66.5317459 20.9682541,85 43.75,85 Z" id="Oval-5" fill="#828D99" fill-rule="nonzero"></path>
                <g id="Group" stroke-width="1" fill-rule="evenodd" transform="translate(19.000000, 22.000000)">
                    <path d="M0.0943858378,22.9231851 C0.0842427905,22.6183683 0.082428414,22.3743854 0.0831519023,21.8581109 C0.0832882352,21.7611682 0.0832882352,21.7611682 0.0833333333,21.6666667 L0.0833333333,17.8408358 C0.0833333333,16.3094273 1.31002598,15.0833333 2.83294832,15.0833333 L8.83371835,15.0833333 C10.3585306,15.0833333 11.5833333,16.3163 11.5833333,17.8408358 L11.583333,21.6673892 C11.5832877,21.7619546 11.5832877,21.7619546 11.5833334,21.8589923 C11.5835778,22.3794153 11.5815145,22.6240617 11.5709128,22.9307928 C11.5040589,24.865017 11.0787195,26.1258185 9.91666667,26.4807312 L9.91666667,34.9166667 L1.75,34.9166667 L1.75,26.4811439 C0.583891972,26.1264392 0.158939124,24.8631278 0.0943858378,22.9231851 Z M8.41666667,25.0833333 L9.16666667,25.0833333 C9.73801293,25.0833333 10.0177819,24.4420667 10.0718079,22.8789783 C10.0816072,22.5954658 10.0835698,22.3627537 10.0833335,21.8596968 C10.0832875,21.7623168 10.0832875,21.7623168 10.0833333,21.6666667 L10.0833333,17.8408358 C10.0833333,17.1425046 9.52786455,16.5833333 8.83371835,16.5833333 L2.83294832,16.5833333 C2.13828922,16.5833333 1.58333333,17.1380184 1.58333333,17.8408358 L1.58333333,21.6666667 C1.58328735,21.7629468 1.58328735,21.7629468 1.58315043,21.860213 C1.582451,22.3593202 1.58417721,22.5914475 1.59355606,22.8732989 C1.64573507,24.4413722 1.92508785,25.0833333 2.5,25.0833333 L3.25,25.0833333 L3.25,33.4166667 L8.41666667,33.4166667 L8.41666667,25.0833333 Z" id="Stroke-4459" fill="#828D99" fill-rule="nonzero"></path>
                    <path d="M38.4166667,21.6666667 L38.4166667,17.8408358 C38.4166667,16.3094273 39.6433593,15.0833333 41.1662817,15.0833333 L47.1670517,15.0833333 C48.6918639,15.0833333 49.9166667,16.3163 49.9166667,17.8408358 L49.9166663,21.6673892 C49.9150052,23.3915972 49.2706475,25.0171741 48.25,25.5595811 L48.25,34.9166667 L40.0833333,34.9166667 L40.0833333,25.573276 C39.0637405,25.0672936 38.4166667,23.5290846 38.4166667,21.6666667 Z M46.75,24.25 L47.5,24.25 C47.8279913,24.25 48.4153255,23.0584358 48.4166667,21.6666667 L48.4166667,17.8408358 C48.4166667,17.1425046 47.8611979,16.5833333 47.1670517,16.5833333 L41.1662817,16.5833333 C40.4716225,16.5833333 39.9166667,17.1380184 39.9166667,17.8408358 L39.9166667,21.6666667 C39.9166667,23.2341355 40.4675693,24.25 40.8333333,24.25 L41.5833333,24.25 L41.5833333,33.4166667 L46.75,33.4166667 L46.75,24.25 Z" id="Stroke-4460" fill="#828D99" fill-rule="nonzero"></path>
                    <path d="M28.4166667,30.0833333 L29.1666667,30.0833333 C30.8420786,30.0833333 31.75,28.8279487 31.75,26.6666667 L31.75,17.8329585 C31.75,17.1369533 31.196856,16.5833333 30.5081158,16.5833333 L19.4918842,16.5833333 C18.8076172,16.5833333 18.25,17.1428071 18.25,17.8329585 L18.25,26.6666667 C18.25,28.8288652 19.1569114,30.0833333 20.8333333,30.0833333 L21.5833333,30.0833333 L21.5833333,41.75 L28.4166667,41.75 L28.4166667,30.0833333 Z M20.0833333,31.5246342 C17.9290392,31.1739976 16.75,29.2826873 16.75,26.6666667 L16.75,17.8329585 C16.75,16.3154941 17.978072,15.0833333 19.4918842,15.0833333 L30.5081158,15.0833333 C32.0255721,15.0833333 33.25,16.3088148 33.25,17.8329585 L33.25,26.6666667 C33.25,29.2818089 32.0701157,31.1736796 29.9166667,31.5245654 L29.9166667,43.25 L20.0833333,43.25 L20.0833333,31.5246342 Z" id="Stroke-4461" fill="#00A4C7" fill-rule="nonzero"></path>
                    <path d="M46.75,9.16666667 C46.75,7.74088023 45.5924531,6.58333333 44.1666667,6.58333333 C42.7408802,6.58333333 41.5833333,7.74088023 41.5833333,9.16666667 C41.5833333,10.5924531 42.7408802,11.75 44.1666667,11.75 C45.5924531,11.75 46.75,10.5924531 46.75,9.16666667 Z M48.25,9.16666667 C48.25,11.4208802 46.4208802,13.25 44.1666667,13.25 C41.9124531,13.25 40.0833333,11.4208802 40.0833333,9.16666667 C40.0833333,6.9124531 41.9124531,5.08333333 44.1666667,5.08333333 C46.4208802,5.08333333 48.25,6.9124531 48.25,9.16666667 Z" id="Stroke-4462" fill="#828D99" fill-rule="nonzero"></path>
                    <path d="M8.41666667,9.16666667 C8.41666667,7.74088023 7.25911977,6.58333333 5.83333333,6.58333333 C4.4075469,6.58333333 3.25,7.74088023 3.25,9.16666667 C3.25,10.5924531 4.4075469,11.75 5.83333333,11.75 C7.25911977,11.75 8.41666667,10.5924531 8.41666667,9.16666667 Z M9.91666667,9.16666667 C9.91666667,11.4208802 8.0875469,13.25 5.83333333,13.25 C3.57911977,13.25 1.75,11.4208802 1.75,9.16666667 C1.75,6.9124531 3.57911977,5.08333333 5.83333333,5.08333333 C8.0875469,5.08333333 9.91666667,6.9124531 9.91666667,9.16666667 Z" id="Stroke-4463" fill="#828D99" fill-rule="nonzero"></path>
                    <path d="M30.0833333,6.66666667 C30.0833333,3.85921356 27.8074531,1.58333333 25,1.58333333 C22.1925469,1.58333333 19.9166667,3.85921356 19.9166667,6.66666667 C19.9166667,9.47411977 22.1925469,11.75 25,11.75 C27.8074531,11.75 30.0833333,9.47411977 30.0833333,6.66666667 Z M31.5833333,6.66666667 C31.5833333,10.3025469 28.6358802,13.25 25,13.25 C21.3641198,13.25 18.4166667,10.3025469 18.4166667,6.66666667 C18.4166667,3.03078644 21.3641198,0.0833333333 25,0.0833333333 C28.6358802,0.0833333333 31.5833333,3.03078644 31.5833333,6.66666667 Z" id="Stroke-4464" fill="#00A4C7" fill-rule="nonzero"></path>
                </g>
            </g>
        </g>
    </g>
</svg>