<?xml version="1.0" encoding="UTF-8"?>
<svg width="88px" height="88px" viewBox="0 0 88 88" version="1.1" xmlns="http://www.w3.org/2000/svg" xmlns:xlink="http://www.w3.org/1999/xlink">
    <!-- Generator: Sketch 51.2 (57519) - http://www.bohemiancoding.com/sketch -->
    <title>Slice 1</title>
    <desc>Created with Sketch.</desc>
    <defs></defs>
    <g id="Page-1" stroke="none" stroke-width="1" fill="none" fill-rule="evenodd">
        <g id="icons-/-nurture-prospects---pebble">
            <g id="Group-7" stroke-width="1" fill-rule="evenodd" transform="translate(18.000000, 41.000000)" stroke="#828D99" stroke-linecap="round" stroke-linejoin="round">
                <g id="Group-6" stroke-width="1.5">
                    <polyline id="Stroke-1" points="40.8279245 5.89716981 36.3467925 12.4179245 32.9142453 14.8759434"></polyline>
                    <path d="M1.31193396,25.8674528 L30.2100472,25.9433962 C30.7095755,25.9448113 31.1949528,25.7773585 31.586934,25.4674528 L38.097783,20.3311321 C38.2779717,20.1891509 38.4350472,20.0198113 38.5633491,19.8287736 L49.3487264,3.79764151 C50.0152358,2.80754717 49.8006132,1.43301887 48.8100472,0.76745283 C48.8034434,0.762735849 48.7963679,0.758490566 48.7897642,0.754245283 C47.0878774,-0.374056604 44.772783,0.095754717 43.6449528,1.79764151 L40.8279717,5.89716981" id="Stroke-2"></path>
                    <path d="M0,9.48193396 L3.11509434,9.32721698 C5.73537736,7.18570755 7.50613208,7.29183962 10.3160377,7.29183962 C13.2410377,7.29183962 18.1061321,8.59183962 20.6481132,12.427217 L29.5207547,12.763066 C31.5627358,12.7361792 33.2551887,14.3842925 33.2820755,16.4258019 C33.2825472,16.4371226 33.2825472,16.4493868 33.2825472,16.4607075 C33.2867925,17.6484434 32.2849057,18.5970283 31.0976415,18.613066 L11.6683962,18.8710849" id="Stroke-4"></path>
                </g>
            </g>
            <path d="M46.3800998,39.5298394 L46.9025608,39.5298394 C48.0696771,39.5298394 48.7021484,38.6553201 48.7021484,37.1497396 L48.7021484,30.9960497 C48.7021484,30.5112023 48.3168203,30.1255425 47.8370338,30.1255425 L40.1629662,30.1255425 C39.6862959,30.1255425 39.2978516,30.5152801 39.2978516,30.9960497 L39.2978516,37.1497396 C39.2978516,38.6559586 39.9296193,39.5298394 41.0974392,39.5298394 L41.6199002,39.5298394 L41.6199002,47.6570095 L46.3800998,47.6570095 L46.3800998,39.5298394 Z M40.5749783,40.5338706 C39.0742656,40.289612 38.2529297,38.9720977 38.2529297,37.1497396 L38.2529297,30.9960497 C38.2529297,29.9389618 39.1084225,29.0806207 40.1629662,29.0806207 L47.8370338,29.0806207 C48.894116,29.0806207 49.7470703,29.9343089 49.7470703,30.9960497 L49.7470703,37.1497396 C49.7470703,38.9714858 48.9251457,40.2893905 47.4250217,40.5338227 L47.4250217,48.7019314 L40.5749783,48.7019314 L40.5749783,40.5338706 Z" id="Stroke-4461" fill="#00A4C7" fill-rule="nonzero"></path>
            <path d="M47.5411241,23.2174479 C47.5411241,21.2617351 45.9557128,19.6763238 44,19.6763238 C42.0442872,19.6763238 40.4588759,21.2617351 40.4588759,23.2174479 C40.4588759,25.1731607 42.0442872,26.758572 44,26.758572 C45.9557128,26.758572 47.5411241,25.1731607 47.5411241,23.2174479 Z M48.586046,23.2174479 C48.586046,25.7502551 46.5328072,27.8034939 44,27.8034939 C41.4671928,27.8034939 39.413954,25.7502551 39.413954,23.2174479 C39.413954,20.6846407 41.4671928,18.6314019 44,18.6314019 C46.5328072,18.6314019 48.586046,20.6846407 48.586046,23.2174479 Z" id="Stroke-4464" fill="#00A4C7" fill-rule="nonzero"></path>
            <path d="M43.75,87.5 C19.5875422,87.5 0,67.9124578 0,43.75 C0,19.5875422 19.5875422,0 43.75,0 C67.9124578,0 87.5,19.5875422 87.5,43.75 C87.5,67.9124578 67.9124578,87.5 43.75,87.5 Z M43.75,85 C66.5317459,85 85,66.5317459 85,43.75 C85,20.9682541 66.5317459,2.5 43.75,2.5 C20.9682541,2.5 2.5,20.9682541 2.5,43.75 C2.5,66.5317459 20.9682541,85 43.75,85 Z" id="Oval-5" fill="#828D99" fill-rule="nonzero"></path>
        </g>
    </g>
</svg>