<?xml version="1.0" encoding="UTF-8"?>
<svg width="85px" height="85px" viewBox="0 0 85 85" version="1.1" xmlns="http://www.w3.org/2000/svg" xmlns:xlink="http://www.w3.org/1999/xlink">
    <title>icons / exposure</title>
    <g id="Agent-Profiles-LivePreso-Update---Set-1" stroke="none" stroke-width="1" fill="none" fill-rule="evenodd">
        <g id="Agent-Profiles---Ratings-&amp;-Reviews---Slide-02---00" transform="translate(-1631.000000, -732.000000)">
            <g id="views-copy" transform="translate(1539.000000, 732.000000)">
                <g id="Group" transform="translate(92.000000, 0.000000)">
                    <g id="Group-7" transform="translate(18.000000, 39.000000)" stroke="#828D99" stroke-linecap="round" stroke-linejoin="round" stroke-width="1.5">
                        <g id="Group-6">
                            <polyline id="Stroke-1" points="40.8279245 5.89716981 36.3467925 12.4179245 32.9142453 14.8759434"></polyline>
                            <path d="M1.31193396,25.8674528 L30.2100472,25.9434051 C30.7095755,25.9448113 31.1949528,25.7773585 31.586934,25.4674528 L38.097783,20.3311321 C38.2779717,20.1891509 38.4350472,20.0198113 38.5633491,19.8287736 L49.3487264,3.79764151 C50.0152358,2.80754717 49.8006132,1.43301887 48.8100472,0.76745283 C48.8034434,0.762735849 48.7963679,0.758490566 48.7897642,0.754245283 C47.0878774,-0.374056604 44.772783,0.095754717 43.6449528,1.79764151 L40.8279717,5.89716981" id="Stroke-2"></path>
                            <path d="M0,9.48193396 L3.11509434,9.32721698 C5.73537736,7.18570755 7.50613208,7.29183962 10.3160377,7.29183962 C13.2410377,7.29183962 18.1061321,8.59183962 20.6481132,12.427217 L29.5207547,12.763066 C31.5627358,12.7361792 33.2551887,14.3842925 33.2820755,16.4258019 C33.2825606,16.4371226 33.2825606,16.4493868 33.2825606,16.4607075 C33.2867925,17.6484434 32.2849057,18.5970283 31.0976415,18.613066 L11.6683962,18.8710849" id="Stroke-4"></path>
                        </g>
                    </g>
                    <path d="M47.8039807,24.813765 C48.0313092,25.3185725 48.6671368,25.7277998 49.2174772,25.7277998 L55.5690934,25.7277998 C56.6782754,25.7277998 56.9298351,26.3371654 56.1182136,27.1008568 L51.0062807,31.9109064 C50.6051024,32.2883932 50.3856993,33.0355229 50.5120923,33.562418 L52.4287179,41.5522658 C52.687078,42.6292927 52.1687067,42.9665014 51.2859278,42.3165052 L44.8077106,37.5465489 C44.3631503,37.219216 43.6431019,37.2186812 43.1978153,37.5465489 L36.7195981,42.3165052 C35.8300925,42.9714544 35.3255111,42.6336346 35.5942603,41.5552371 L37.5105094,33.8659938 C37.6453525,33.3249152 37.4398503,32.5786932 37.0388209,32.1868649 L31.8581126,27.1250213 C31.0683279,26.3533572 31.3257344,25.7277998 32.4364325,25.7277998 L38.7880487,25.7277998 C39.3413728,25.7277998 39.9709507,25.325825 40.2015452,24.813765 L43.1804856,18.1987054 C43.6346168,17.1902577 44.3692545,17.1865836 44.8250403,18.1987054 L47.8039807,24.813765 Z" id="Stroke-4332" stroke="#E4002B" stroke-width="1.5" stroke-linejoin="round"></path>
                    <path d="M42.5,85 C19.0278981,85 0,65.9721019 0,42.5 C0,19.0278981 19.0278981,0 42.5,0 C65.9721019,0 85,19.0278981 85,42.5 C85,65.9721019 65.9721019,85 42.5,85 Z M42.5,82.5714286 C64.6308389,82.5714286 82.5714286,64.6308389 82.5714286,42.5 C82.5714286,20.3691611 64.6308389,2.42857143 42.5,2.42857143 C20.3691611,2.42857143 2.42857143,20.3691611 2.42857143,42.5 C2.42857143,64.6308389 20.3691611,82.5714286 42.5,82.5714286 Z" id="Oval-5" fill="#828D99" fill-rule="nonzero"></path>
                </g>
            </g>
        </g>
    </g>
</svg>