<?xml version="1.0" encoding="UTF-8"?>
<svg width="88px" height="88px" viewBox="0 0 88 88" version="1.1" xmlns="http://www.w3.org/2000/svg" xmlns:xlink="http://www.w3.org/1999/xlink">
    <!-- Generator: Sketch 51.2 (57519) - http://www.bohemiancoding.com/sketch -->
    <title>icons / avatar - pebble</title>
    <desc>Created with Sketch.</desc>
    <defs></defs>
    <g id="Page-1" stroke="none" stroke-width="1" fill="none" fill-rule="evenodd">
        <g id="icons-/-service---pebble">
            <g id="Group-7" stroke-width="1" fill-rule="evenodd" transform="translate(18.000000, 39.000000)" stroke="#828D99" stroke-linecap="round" stroke-linejoin="round">
                <g id="Group-6" stroke-width="1.5">
                    <polyline id="Stroke-1" points="40.8279245 5.89716981 36.3467925 12.4179245 32.9142453 14.8759434"></polyline>
                    <path d="M1.31193396,25.8674528 L30.2100472,25.9433962 C30.7095755,25.9448113 31.1949528,25.7773585 31.586934,25.4674528 L38.097783,20.3311321 C38.2779717,20.1891509 38.4350472,20.0198113 38.5633491,19.8287736 L49.3487264,3.79764151 C50.0152358,2.80754717 49.8006132,1.43301887 48.8100472,0.76745283 C48.8034434,0.762735849 48.7963679,0.758490566 48.7897642,0.754245283 C47.0878774,-0.374056604 44.772783,0.095754717 43.6449528,1.79764151 L40.8279717,5.89716981" id="Stroke-2"></path>
                    <path d="M0,9.48193396 L3.11509434,9.32721698 C5.73537736,7.18570755 7.50613208,7.29183962 10.3160377,7.29183962 C13.2410377,7.29183962 18.1061321,8.59183962 20.6481132,12.427217 L29.5207547,12.763066 C31.5627358,12.7361792 33.2551887,14.3842925 33.2820755,16.4258019 C33.2825472,16.4371226 33.2825472,16.4493868 33.2825472,16.4607075 C33.2867925,17.6484434 32.2849057,18.5970283 31.0976415,18.613066 L11.6683962,18.8710849" id="Stroke-4"></path>
                </g>
            </g>
            <path d="M42.5505754,39 C42.5505754,39 54.1011508,30.6006414 54.1011508,24.3781541 C54.1011508,17.1979767 44.6508314,14.9278347 42.5505754,23.6603029 C40.4503194,14.9278347 31,17.1979767 31,24.3781541 C31,30.6006414 42.5505754,39 42.5505754,39 L42.5505754,39 Z" id="Stroke-349" stroke="#00A4C7" stroke-width="1.5" stroke-linejoin="round"></path>
            <path d="M43.75,87.5 C19.5875422,87.5 0,67.9124578 0,43.75 C0,19.5875422 19.5875422,0 43.75,0 C67.9124578,0 87.5,19.5875422 87.5,43.75 C87.5,67.9124578 67.9124578,87.5 43.75,87.5 Z M43.75,85 C66.5317459,85 85,66.5317459 85,43.75 C85,20.9682541 66.5317459,2.5 43.75,2.5 C20.9682541,2.5 2.5,20.9682541 2.5,43.75 C2.5,66.5317459 20.9682541,85 43.75,85 Z" id="Oval-5" fill="#828D99" fill-rule="nonzero"></path>
        </g>
    </g>
</svg>