<?xml version="1.0" encoding="UTF-8"?>
<svg width="85px" height="85px" viewBox="0 0 85 85" version="1.1" xmlns="http://www.w3.org/2000/svg" xmlns:xlink="http://www.w3.org/1999/xlink">
    <!-- Generator: Sketch 51.2 (57519) - http://www.bohemiancoding.com/sketch -->
    <title>Slice 1</title>
    <desc>Created with Sketch.</desc>
    <defs></defs>
    <g id="Page-1" stroke="none" stroke-width="1" fill="none" fill-rule="evenodd">
        <g id="icons-/-credible-application---pebble" fill-rule="nonzero">
            <path d="M9.76016806,7.66836287 C20.0779716,3.17206272 31.2404025,0.900325967 42.4908576,1.00335389 C53.7595975,0.900325967 64.9220284,3.17206272 75.2580987,7.67654165 C77.5560855,8.73317641 79.0203144,11.0278061 78.9998204,13.5364041 L78.9998191,40.4288762 C79.0298255,58.7053962 67.7351385,75.1195826 50.5697688,81.7489661 L46.7809708,83.2072614 C44.0263085,84.2642462 40.9736915,84.2642462 38.218062,83.2068897 L34.4291669,81.7485557 C17.2648615,75.1195826 5.97017451,58.7053962 6.00017956,40.430518 L6.00017956,13.5403092 C5.98133463,11.0252226 7.44521866,8.73257689 9.76016806,7.66836287 Z M8.0001463,13.5282481 L8.00017822,40.4321598 C7.97153393,57.8790345 18.7557778,73.5514111 35.1486468,79.8824508 L38.9355105,81.3400028 C41.2289137,82.2199991 43.7710863,82.2199991 46.0635224,81.3403745 L49.8502889,79.8828612 C66.2442222,73.5514111 77.0284661,57.8790345 76.9998204,40.430518 L76.9998537,13.5282481 C77.0139481,11.8001928 76.0070074,10.2221909 74.4408409,9.50183316 C64.3808242,5.11787152 53.4968808,2.90281152 42.4908576,3.0032703 C31.5031192,2.90281152 20.6191758,5.11787152 10.5774259,9.49365437 C8.99299263,10.2221909 7.98605186,11.8001928 8.0001463,13.5282481 Z" id="Path" fill="#828D99"></path>
            <path d="M62.6683699,58.2795498 C62.8161723,58.6664959 62.6223081,59.0999953 62.235362,59.2477978 C61.8484158,59.3956002 61.4149165,59.201736 61.267114,58.8147898 C58.4004627,51.3099107 50.9024762,46.3066038 42.5,46.3066038 C34.0975238,46.3066038 26.5995373,51.3099107 23.732886,58.8147898 C23.5850835,59.201736 23.1515842,59.3956002 22.764638,59.2477978 C22.3776919,59.0999953 22.1838277,58.6664959 22.3316301,58.2795498 C25.4233601,50.1854158 33.4840808,44.8066038 42.5,44.8066038 C51.5159192,44.8066038 59.5766399,50.1854158 62.6683699,58.2795498 Z" id="Path" fill="#00A4C7"></path>
            <path d="M29.3877689,20.88442 C29.0868856,20.5997411 29.0737494,20.1250491 29.3584284,19.8241658 C29.6431074,19.5232825 30.1177994,19.5101463 30.4186827,19.7948252 C36.5343205,25.5811001 45.9553378,27.3092549 54.0588916,24.1230023 C54.4443775,23.9714323 54.8797474,24.1610587 55.0313174,24.5465446 C55.1828874,24.9320306 54.993261,25.3674004 54.6077751,25.5189704 C45.9681914,28.9159856 35.9304002,27.0746923 29.3877689,20.88442 Z" id="Path" fill="#00A4C7"></path>
            <path d="M41.3548387,40.1933962 C33.7726443,40.1933962 27.6263441,34.0413793 27.6263441,26.4528302 C27.6263441,18.8642811 33.7726443,12.7122642 41.3548387,12.7122642 C48.9370331,12.7122642 55.0833333,18.8642811 55.0833333,26.4528302 C55.0833333,34.0413793 48.9370331,40.1933962 41.3548387,40.1933962 Z M41.3548387,38.6933962 C48.1082936,38.6933962 53.5833333,33.2132641 53.5833333,26.4528302 C53.5833333,19.6923962 48.1082936,14.2122642 41.3548387,14.2122642 C34.6013838,14.2122642 29.1263441,19.6923962 29.1263441,26.4528302 C29.1263441,33.2132641 34.6013838,38.6933962 41.3548387,38.6933962 Z" id="Oval" fill="#00A4C7"></path>
        </g>
    </g>
</svg>