<?xml version="1.0" encoding="UTF-8"?>
<svg width="88px" height="88px" viewBox="0 0 88 88" version="1.1" xmlns="http://www.w3.org/2000/svg" xmlns:xlink="http://www.w3.org/1999/xlink">
    <!-- Generator: Sketch 51.2 (57519) - http://www.bohemiancoding.com/sketch -->
    <title>Slice 1</title>
    <desc>Created with Sketch.</desc>
    <defs></defs>
    <g id="Page-1" stroke="none" stroke-width="1" fill="none" fill-rule="evenodd">
        <g id="icons-/-right-tenant---pebble" fill-rule="nonzero">
            <path d="M43.75,87.5 C19.5875422,87.5 0,67.9124578 0,43.75 C0,19.5875422 19.5875422,0 43.75,0 C67.9124578,0 87.5,19.5875422 87.5,43.75 C87.5,67.9124578 67.9124578,87.5 43.75,87.5 Z M43.75,85 C66.5317459,85 85,66.5317459 85,43.75 C85,20.9682541 66.5317459,2.5 43.75,2.5 C20.9682541,2.5 2.5,20.9682541 2.5,43.75 C2.5,66.5317459 20.9682541,85 43.75,85 Z" id="Oval-5" fill="#828D99"></path>
            <path d="M63.6683699,58.2795498 C63.8161723,58.6664959 63.6223081,59.0999953 63.235362,59.2477978 C62.8484158,59.3956002 62.4149165,59.201736 62.267114,58.8147898 C59.4004627,51.3099107 51.9024762,46.3066038 43.5,46.3066038 C35.0975238,46.3066038 27.5995373,51.3099107 24.732886,58.8147898 C24.5850835,59.201736 24.1515842,59.3956002 23.764638,59.2477978 C23.3776919,59.0999953 23.1838277,58.6664959 23.3316301,58.2795498 C26.4233601,50.1854158 34.4840808,44.8066038 43.5,44.8066038 C52.5159192,44.8066038 60.5766399,50.1854158 63.6683699,58.2795498 Z" id="Path" fill="#00A4C7"></path>
            <path d="M43,45.75 C34.8537999,45.75 28.25,39.1462001 28.25,31 C28.25,22.8537999 34.8537999,16.25 43,16.25 C51.1462001,16.25 57.75,22.8537999 57.75,31 C57.75,39.1462001 51.1462001,45.75 43,45.75 Z M43,44.25 C50.3177729,44.25 56.25,38.3177729 56.25,31 C56.25,23.6822271 50.3177729,17.75 43,17.75 C35.6822271,17.75 29.75,23.6822271 29.75,31 C29.75,38.3177729 35.6822271,44.25 43,44.25 Z" id="Oval-5" fill="#00A4C7"></path>
            <polygon id="Path-9" fill="#00A4C7" points="40.6505005 36.9056298 49.4058943 25.5422464 50.5941057 26.4577536 40.7968679 39.1733176 34.4696699 32.8461196 35.5303301 31.7854594"></polygon>
        </g>
    </g>
</svg>