<?xml version="1.0" encoding="UTF-8"?>
<svg width="88px" height="88px" viewBox="0 0 88 88" version="1.1" xmlns="http://www.w3.org/2000/svg" xmlns:xlink="http://www.w3.org/1999/xlink">
    <!-- Generator: Sketch 51.3 (57544) - http://www.bohemiancoding.com/sketch -->
    <title>icons / avatar - pebble</title>
    <desc>Created with Sketch.</desc>
    <defs></defs>
    <g id="Designs---Set-2" stroke="none" stroke-width="1" fill="none" fill-rule="evenodd">
        <g id="Property-Management---Property-Showcase---00" transform="translate(-1627.000000, -396.000000)">
            <g id="brand-exposure" transform="translate(1544.000000, 396.000000)">
                <g id="icons-/-outside-suburb---pebble" transform="translate(83.000000, 0.000000)">
                    <path d="M43.75,87.5 C19.5875422,87.5 0,67.9124578 0,43.75 C0,19.5875422 19.5875422,0 43.75,0 C67.9124578,0 87.5,19.5875422 87.5,43.75 C87.5,67.9124578 67.9124578,87.5 43.75,87.5 Z M43.75,85 C66.5317459,85 85,66.5317459 85,43.75 C85,20.9682541 66.5317459,2.5 43.75,2.5 C20.9682541,2.5 2.5,20.9682541 2.5,43.75 C2.5,66.5317459 20.9682541,85 43.75,85 Z" id="Oval-5" fill="#828D99" fill-rule="nonzero"></path>
                    <path d="M59,30.0787901 L44.9130435,16 L38.6521739,22.2068966 L38.6521739,20.6551724 L38.6521739,19.2912069 C38.6521739,18.3353448 37.8617391,17.5517241 36.8975652,17.5517241 L31.0154783,17.5517241 C30.0513043,17.5517241 29.2608696,18.3353448 29.2608696,19.2912069 L29.2608696,31.5172414 L23,37.7241379 L27.6956522,37.7241379 L27.6956522,57.8965517 C27.6956522,59.6034483 29.1043478,61 30.826087,61 L44.2644366,61" id="Path-Copy" stroke="#828D99" stroke-width="1.5" stroke-linecap="round" stroke-linejoin="round"></path>
                    <g id="icon---payments-&amp;-invoices" stroke-width="1" fill-rule="evenodd" transform="translate(42.000000, 29.000000)">
                        <rect id="Rectangle-17" fill="#FFFFFF" opacity="0" x="0" y="0" width="40" height="40"></rect>
                        <path d="M16.1643211,35 C16.8003296,35 28.3286423,22.8824902 28.3286423,16.1643211 C28.3286423,9.44615208 22.8824902,4 16.1643211,4 C9.44615208,4 4,9.44615208 4,16.1643211 C4,22.8824902 15.5283126,35 16.1643211,35 Z" id="Oval-5" stroke="#00A4C7" stroke-width="1.5"></path>
                        <circle id="Oval-5-Copy" stroke="#00A4C7" stroke-width="1.5" cx="16.5" cy="15.5" r="5.5"></circle>
                    </g>
                </g>
            </g>
        </g>
    </g>
</svg>