<?xml version="1.0" encoding="UTF-8"?>
<svg width="87px" height="87px" viewBox="0 0 87 87" version="1.1" xmlns="http://www.w3.org/2000/svg" xmlns:xlink="http://www.w3.org/1999/xlink">
    <!-- Generator: Sketch 51.2 (57519) - http://www.bohemiancoding.com/sketch -->
    <title>Slice 1</title>
    <desc>Created with Sketch.</desc>
    <defs></defs>
    <g id="Page-1" stroke="none" stroke-width="1" fill="none" fill-rule="evenodd">
        <g id="icons-/-exposure">
            <g id="icons-/-property-lead---pebble">
                <path d="M43.2352941,86.4705882 C19.3571005,86.4705882 0,67.1134877 0,43.2352941 C0,19.3571005 19.3571005,0 43.2352941,0 C67.1134877,0 86.4705882,19.3571005 86.4705882,43.2352941 C86.4705882,67.1134877 67.1134877,86.4705882 43.2352941,86.4705882 Z M43.2352941,84 C65.7490195,84 84,65.7490195 84,43.2352941 C84,20.7215687 65.7490195,2.47058824 43.2352941,2.47058824 C20.7215687,2.47058824 2.47058824,20.7215687 2.47058824,43.2352941 C2.47058824,65.7490195 20.7215687,84 43.2352941,84 Z" id="Oval-5" fill="#828D99" fill-rule="nonzero"></path>
                <path d="M53.3647059,32.6896278 L39.4434783,18.7764706 L33.256266,24.9103448 L33.256266,23.3768763 L33.256266,22.0289574 C33.256266,21.0843408 32.4751304,20.3099391 31.5222997,20.3099391 L25.7094138,20.3099391 C24.7565831,20.3099391 23.9754476,21.0843408 23.9754476,22.0289574 L23.9754476,34.1111562 L17.7882353,40.2450304 L22.4286445,40.2450304 L22.4286445,60.1801217 C22.4286445,61.8669371 23.8207673,63.2470588 25.5222506,63.2470588 L38.8025021,63.2470588" id="Path-Copy" stroke="#828D99" stroke-width="1.5" stroke-linecap="round" stroke-linejoin="round"></path>
                <g id="icon---payments-&amp;-invoices" stroke-width="1" fill-rule="evenodd" transform="translate(36.564706, 31.623529)">
                    <rect id="Rectangle-17" fill="#FFFFFF" opacity="0" x="0" y="0" width="39.5294118" height="39.5294118"></rect>
                    <circle id="Oval-5" stroke="#00A4C7" stroke-width="1.5" cx="17.7882353" cy="20.7529412" r="13.8352941"></circle>
                </g>
                <path d="M50.4988235,58.4244706 L50.4988235,56.7247059 L53.5821176,56.7247059 L53.5821176,47.712 C53.5821176,47.2771765 53.6018824,46.8423529 53.6018824,46.8423529 L53.5623529,46.8423529 C53.5623529,46.8423529 53.4042353,47.1585882 52.8903529,47.6527059 L51.5858824,48.9374118 L50.4,47.712 L53.7402353,44.4705882 L55.4795294,44.4705882 L55.4795294,56.7247059 L58.5232941,56.7247059 L58.5232941,58.4244706 L50.4988235,58.4244706 Z" id="1" fill="#00A4C7" fill-rule="evenodd"></path>
            </g>
        </g>
    </g>
</svg>