<?xml version="1.0" encoding="UTF-8"?>
<svg width="73px" height="56px" viewBox="0 0 73 56" version="1.1" xmlns="http://www.w3.org/2000/svg" xmlns:xlink="http://www.w3.org/1999/xlink">
    <!-- Generator: Sketch 51.3 (57544) - http://www.bohemiancoding.com/sketch -->
    <title>icons / list - pebble</title>
    <desc>Created with Sketch.</desc>
    <defs></defs>
    <g id="Designs---Set-1" stroke="none" stroke-width="1" fill="none" fill-rule="evenodd" stroke-linecap="round" stroke-linejoin="round">
        <g id="Property-Management---Premiere-Listing---00" transform="translate(-199.000000, -395.000000)">
            <g id="search-engine" transform="translate(119.000000, 396.000000)">
                <g id="icons-/-list---pebble" transform="translate(81.000000, 0.000000)">
                    <path d="M16,5.5 L70,5.5" id="Stroke-7501" stroke="#828D99" stroke-width="2.5"></path>
                    <path d="M16,27.5 L70,27.5" id="Stroke-7502" stroke="#828D99" stroke-width="2.5"></path>
                    <path d="M16,50.5 L70,50.5" id="Stroke-7503" stroke="#828D99" stroke-width="2.5"></path>
                    <path d="M10,5 C10,7.76 7.76,10 5,10 C2.24,10 0,7.76 0,5 C0,2.24 2.24,0 5,0 C7.76,0 10,2.24 10,5 L10,5 Z" id="Stroke-7504" stroke="#00A4C7" stroke-width="2"></path>
                    <path d="M10,28 C10,30.76 7.76,33 5,33 C2.24,33 0,30.76 0,28 C0,25.24 2.24,23 5,23 C7.76,23 10,25.24 10,28 L10,28 Z" id="Stroke-7505" stroke="#00A4C7" stroke-width="2"></path>
                    <path d="M10,49 C10,51.76 7.76,54 5,54 C2.24,54 0,51.76 0,49 C0,46.24 2.24,44 5,44 C7.76,44 10,46.24 10,49 L10,49 Z" id="Stroke-7506" stroke="#00A4C7" stroke-width="2"></path>
                </g>
            </g>
        </g>
    </g>
</svg>