<?xml version="1.0" encoding="UTF-8"?>
<svg width="85px" height="85px" viewBox="0 0 85 85" version="1.1" xmlns="http://www.w3.org/2000/svg" xmlns:xlink="http://www.w3.org/1999/xlink">
    <title>icons / exposure</title>
    <g id="Agent-Profiles-LivePreso-Update---Set-1" stroke="none" stroke-width="1" fill="none" fill-rule="evenodd">
        <g id="Agent-Profiles---Slide-02---00" transform="translate(-1631.000000, -732.000000)">
            <g id="views-copy" transform="translate(1539.000000, 732.000000)">
                <g id="Group" transform="translate(92.000000, 0.000000)">
                    <g id="icon---map-pin" transform="translate(30.000000, 25.000000)" stroke="#E4002B" stroke-linecap="round" stroke-linejoin="round">
                        <path d="M28,13.7931034 C28,21.4110345 14,40 14,40 C14,40 0,21.4110345 0,13.7931034 C0,6.17655172 6.2678,0 14,0 C21.7308,0 28,6.17655172 28,13.7931034 L28,13.7931034 Z" id="Stroke-5144" stroke-width="1.37586207"></path>
                        <path d="M19.8045113,12.7894737 C19.8045113,16.1112782 17.1112782,18.8045113 13.7894737,18.8045113 C10.4676692,18.8045113 7.77443609,16.1112782 7.77443609,12.7894737 C7.77443609,9.46766917 10.4676692,6.77443609 13.7894737,6.77443609 C17.1112782,6.77443609 19.8045113,9.46766917 19.8045113,12.7894737 L19.8045113,12.7894737 Z" id="Stroke-5145" stroke-width="1.5"></path>
                    </g>
                    <path d="M42.5,85 C19.0278981,85 0,65.9721019 0,42.5 C0,19.0278981 19.0278981,0 42.5,0 C65.9721019,0 85,19.0278981 85,42.5 C85,65.9721019 65.9721019,85 42.5,85 Z M42.5,82.5714286 C64.6308389,82.5714286 82.5714286,64.6308389 82.5714286,42.5 C82.5714286,20.3691611 64.6308389,2.42857143 42.5,2.42857143 C20.3691611,2.42857143 2.42857143,20.3691611 2.42857143,42.5 C2.42857143,64.6308389 20.3691611,82.5714286 42.5,82.5714286 Z" id="Oval-5" fill="#828D99" fill-rule="nonzero"></path>
                </g>
            </g>
        </g>
    </g>
</svg>