<?xml version="1.0" encoding="UTF-8"?>
<svg width="88px" height="88px" viewBox="0 0 88 88" version="1.1" xmlns="http://www.w3.org/2000/svg" xmlns:xlink="http://www.w3.org/1999/xlink">
    <!-- Generator: Sketch 51.2 (57519) - http://www.bohemiancoding.com/sketch -->
    <title>Slice 1</title>
    <desc>Created with Sketch.</desc>
    <defs></defs>
    <g id="Page-1" stroke="none" stroke-width="1" fill="none" fill-rule="evenodd">
        <g id="icons-/-reduce-costs---pebble">
            <path d="M43.75,87.5 C19.5875422,87.5 0,67.9124578 0,43.75 C0,19.5875422 19.5875422,0 43.75,0 C67.9124578,0 87.5,19.5875422 87.5,43.75 C87.5,67.9124578 67.9124578,87.5 43.75,87.5 Z M43.75,85 C66.5317459,85 85,66.5317459 85,43.75 C85,20.9682541 66.5317459,2.5 43.75,2.5 C20.9682541,2.5 2.5,20.9682541 2.5,43.75 C2.5,66.5317459 20.9682541,85 43.75,85 Z" id="Oval-5" fill="#828D99" fill-rule="nonzero"></path>
            <path d="M30.25,42.25 L30.25,21.25 L55.75,21.25 L55.75,42.25 L71.8106602,42.25 L43,71.0606602 L14.1893398,42.25 L30.25,42.25 Z M31.75,22.75 L31.75,43.75 L17.8106602,43.75 L43,68.9393398 L68.1893398,43.75 L54.25,43.75 L54.25,22.75 L31.75,22.75 Z" id="Path-6" fill="#00A4C7" fill-rule="nonzero"></path>
            <path d="M37.9,54.3 L39.3,52.36 C39.3,52.36 40.84,53.86 42.84,53.86 C43.92,53.86 44.9,53.3 44.9,52.14 C44.9,49.74 38.14,49.98 38.14,45.68 C38.14,43.62 39.68,42.02 41.9,41.66 L41.9,39.78 L43.62,39.78 L43.62,41.62 C45.94,41.82 47.14,43.08 47.14,43.08 L46.02,45.18 C46.02,45.18 44.66,43.94 42.88,43.94 C41.68,43.94 40.74,44.64 40.74,45.64 C40.74,48.02 47.48,47.6 47.48,52.08 C47.48,54.12 46.06,55.86 43.62,56.18 L43.62,58.02 L41.9,58.02 L41.9,56.18 C39.32,55.88 37.9,54.3 37.9,54.3 Z" id="$" fill="#00A4C7" fill-rule="evenodd"></path>
        </g>
    </g>
</svg>