<?xml version="1.0" encoding="UTF-8"?>
<svg width="100px" height="83px" viewBox="0 0 100 83" version="1.1" xmlns="http://www.w3.org/2000/svg" xmlns:xlink="http://www.w3.org/1999/xlink">
    <!-- Generator: Sketch 51.3 (57544) - http://www.bohemiancoding.com/sketch -->
    <title>icons / eye - pebble</title>
    <desc>Created with Sketch.</desc>
    <defs></defs>
    <g id="Designs---Set-1" stroke="none" stroke-width="1" fill="none" fill-rule="evenodd">
        <g id="Property-Management---Premiere-Listing---00" transform="translate(-1474.000000, -747.000000)">
            <g id="Reach-More-People---Icon" transform="translate(1475.000000, 748.000000)">
                <g transform="translate(0.844828, 0.000000)">
                    <path d="M-1.24416562,45.7627391 C-1.26466444,45.1754404 -1.26833546,44.7048114 -1.26687067,43.7082949 C-1.2665942,43.5208823 -1.2665942,43.5208823 -1.26650269,43.3380682 L-1.26650269,38.4895739 C-1.26650269,34.2448092 2.34634104,30.796875 6.75233086,30.796875 L13.5241981,30.796875 C17.9318597,30.796875 21.5430316,34.2301333 21.5430316,38.4895739 L21.543031,43.3393455 C21.542939,43.5222854 21.542939,43.5222854 21.5430317,43.709883 C21.5435266,44.7144021 21.539352,45.1863071 21.5179265,45.7772848 C21.3822403,49.5199039 20.5081751,51.9130861 18.1638564,52.5105657 L18.1638564,68.765625 L2.11267257,68.765625 L2.11267257,52.5111896 C-0.239875454,51.9141704 -1.11315092,49.5163586 -1.24416562,45.7627391 Z M15.6293736,50.1264205 L16.896615,50.1264205 C18.2684946,50.1264205 18.8719133,48.8078068 18.9851035,45.6856931 C19.005041,45.1357569 19.009029,44.6849497 19.0085493,43.7111284 C19.008456,43.5229256 19.008456,43.5229256 19.0085489,43.3380682 L19.0085489,38.4895739 C19.0085489,35.6567444 16.5592589,33.328125 13.5241981,33.328125 L6.75233086,33.328125 C3.72098113,33.328125 1.26798007,35.669158 1.26798007,38.4895739 L1.26798007,43.3380682 C1.26788691,43.5240264 1.26788691,43.5240264 1.26760936,43.7120108 C1.26618917,44.6781809 1.26969672,45.1278512 1.28877865,45.6745557 C1.3980894,48.806349 2.00062402,50.1264205 3.37991395,50.1264205 L4.64715533,50.1264205 L4.64715533,66.234375 L15.6293736,66.234375 L15.6293736,50.1264205 Z" id="Stroke-1" fill="#828D99" fill-rule="nonzero"></path>
                    <path d="M74.7672414,43.3380682 L74.7672414,38.4895739 C74.7672414,34.243786 78.3779088,30.796875 82.7863448,30.796875 L89.5584828,30.796875 C93.9662824,30.796875 97.5775862,34.2301214 97.5775862,38.4895739 L97.5775856,43.3393455 C97.5742065,46.6831568 96.2316556,49.8256041 94.1982759,50.7641101 L94.1982759,68.765625 L78.1465517,68.765625 L78.1465517,50.7865272 C76.1119737,49.9166509 74.7672414,46.9604235 74.7672414,43.3380682 Z M91.6637931,48.515625 L92.9310345,48.515625 C93.8016532,48.515625 95.0402915,46.119999 95.0431034,43.3380682 L95.0431034,38.4895739 C95.0431034,35.6567563 92.5937031,33.328125 89.5584828,33.328125 L82.7863448,33.328125 C79.7527133,33.328125 77.3017241,35.6679532 77.3017241,38.4895739 L77.3017241,43.3380682 C77.3017241,46.4559896 78.473345,48.515625 79.4137931,48.515625 L80.6810345,48.515625 L80.6810345,66.234375 L91.6637931,66.234375 L91.6637931,48.515625 Z" id="Stroke-3" fill="#828D99" fill-rule="nonzero"></path>
                    <path d="M54.4913793,79.734375 L54.4913793,56.109375 L55.7586207,56.109375 C59.3166193,56.109375 61.25,53.4394957 61.25,48.9375 L61.25,33.760125 C61.25,30.7399008 58.7861999,28.265625 55.7687586,28.265625 L38.8553103,28.265625 C35.8303305,28.265625 33.3706897,30.7272215 33.3706897,33.760125 L33.3706897,48.9375 C33.3706897,53.44134 35.3019954,56.109375 38.862069,56.109375 L40.1293103,56.109375 L40.1293103,79.734375 L54.4913793,79.734375 Z M30.8362069,48.9375 L30.8362069,33.760125 C30.8362069,29.330423 34.4293979,25.734375 38.8553103,25.734375 L55.7687586,25.734375 C60.1890969,25.734375 63.7844828,29.3450479 63.7844828,33.760125 L63.7844828,48.9375 C63.7844828,54.2042717 61.3914088,57.9565989 57.0258621,58.5563974 L57.0258621,82.265625 L37.5948276,82.265625 L37.5948276,58.5565004 C33.2275,57.9571545 30.8362069,54.2060549 30.8362069,48.9375 Z" id="Stroke-5" fill="#00A4C7" fill-rule="nonzero"></path>
                    <path d="M92.5086207,17.71875 C92.5086207,14.2259854 89.6696392,11.390625 86.1724138,11.390625 C82.6751884,11.390625 79.8362069,14.2259854 79.8362069,17.71875 C79.8362069,21.2115146 82.6751884,24.046875 86.1724138,24.046875 C89.6696392,24.046875 92.5086207,21.2115146 92.5086207,17.71875 Z M95.0431034,17.71875 C95.0431034,22.6094854 91.0693953,26.578125 86.1724138,26.578125 C81.2754323,26.578125 77.3017241,22.6094854 77.3017241,17.71875 C77.3017241,12.8280146 81.2754323,8.859375 86.1724138,8.859375 C91.0693953,8.859375 95.0431034,12.8280146 95.0431034,17.71875 Z" id="Stroke-7" fill="#828D99" fill-rule="nonzero"></path>
                    <path d="M16.4741379,17.71875 C16.4741379,14.2259854 13.6351564,11.390625 10.137931,11.390625 C6.64070567,11.390625 3.80172414,14.2259854 3.80172414,17.71875 C3.80172414,21.2115146 6.64070567,24.046875 10.137931,24.046875 C13.6351564,24.046875 16.4741379,21.2115146 16.4741379,17.71875 Z M19.0086207,17.71875 C19.0086207,22.6094854 15.0349126,26.578125 10.137931,26.578125 C5.2409495,26.578125 1.26724138,22.6094854 1.26724138,17.71875 C1.26724138,12.8280146 5.2409495,8.859375 10.137931,8.859375 C15.0349126,8.859375 19.0086207,12.8280146 19.0086207,17.71875 Z" id="Stroke-9" fill="#828D99" fill-rule="nonzero"></path>
                    <path d="M57.0258621,10.125 C57.0258621,5.23209253 53.0543288,1.265625 48.1551724,1.265625 C43.256016,1.265625 39.2844828,5.23209253 39.2844828,10.125 C39.2844828,15.0179075 43.256016,18.984375 48.1551724,18.984375 C53.0543288,18.984375 57.0258621,15.0179075 57.0258621,10.125 Z M59.5603448,10.125 C59.5603448,16.4158782 54.454085,21.515625 48.1551724,21.515625 C41.8562598,21.515625 36.75,16.4158782 36.75,10.125 C36.75,3.83412176 41.8562598,-1.265625 48.1551724,-1.265625 C54.454085,-1.265625 59.5603448,3.83412176 59.5603448,10.125 Z" id="Stroke-11" fill="#00A4C7" fill-rule="nonzero"></path>
                </g>
            </g>
        </g>
    </g>
</svg>