<?xml version="1.0" encoding="UTF-8"?>
<svg width="82px" height="88px" viewBox="0 0 82 88" version="1.1" xmlns="http://www.w3.org/2000/svg" xmlns:xlink="http://www.w3.org/1999/xlink">
    <!-- Generator: Sketch 52.6 (67491) - http://www.bohemiancoding.com/sketch -->
    <title>Group 6</title>
    <desc>Created with Sketch.</desc>
    <g id="Page-1" stroke="none" stroke-width="1" fill="none" fill-rule="evenodd">
        <g id="Property-Management---Premiere-Listing---00" transform="translate(-202.000000, -738.000000)" fill-rule="nonzero">
            <g id="Group-4" transform="translate(117.000000, 738.000000)">
                <g id="Group-6" transform="translate(85.000000, 0.000000)">
                    <path d="M81.6512421,85.238999 C81.9500625,86.0213094 81.5581164,86.897739 80.7758061,87.1965594 C79.9934957,87.4953798 79.1170661,87.1034338 78.8182457,86.3211234 C73.0225784,71.1480948 57.8634851,61.0326328 40.8757348,61.0326328 C23.8879846,61.0326328 8.7288913,71.1480948 2.93322401,86.3211234 C2.6344036,87.1034338 1.75797395,87.4953798 0.975663592,87.1965594 C0.193353232,86.897739 -0.198592818,86.0213094 0.100227587,85.238999 C6.35094885,68.8746413 22.647753,58 40.8757348,58 C59.1037167,58 75.4005208,68.8746413 81.6512421,85.238999 Z" id="Path" fill="#9B9B9B"></path>
                    <path d="M39.8208896,59.6417792 C23.3512671,59.6417792 10,46.2905122 10,29.8208896 C10,13.3512671 23.3512671,7.10542736e-15 39.8208896,7.10542736e-15 C56.2905122,7.10542736e-15 69.6417792,13.3512671 69.6417792,29.8208896 C69.6417792,46.2905122 56.2905122,59.6417792 39.8208896,59.6417792 Z M39.8208896,56.6091464 C54.6156353,56.6091464 66.6091464,44.6156353 66.6091464,29.8208896 C66.6091464,15.0261439 54.6156353,3.03263284 39.8208896,3.03263284 C25.0261439,3.03263284 13.0326328,15.0261439 13.0326328,29.8208896 C13.0326328,44.6156353 25.0261439,56.6091464 39.8208896,56.6091464 Z" id="Oval-5" fill="#9B9B9B"></path>
                    <polygon id="Path-9" fill="#00A4C7" points="34.4961265 41.9739798 52.1973897 19 54.5996624 20.8509315 34.7920457 46.5586894 22 33.7666438 24.1443952 31.6222485"></polygon>
                </g>
            </g>
        </g>
    </g>
</svg>