<?xml version="1.0" encoding="UTF-8"?>
<svg width="88px" height="88px" viewBox="0 0 88 88" version="1.1" xmlns="http://www.w3.org/2000/svg" xmlns:xlink="http://www.w3.org/1999/xlink">
    <!-- Generator: Sketch 51.2 (57519) - http://www.bohemiancoding.com/sketch -->
    <title>icons / reward - pebble  </title>
    <desc>Created with Sketch.</desc>
    <defs></defs>
    <g id="Page-1" stroke="none" stroke-width="1" fill="none" fill-rule="evenodd">
        <g id="icons-/-verified---pebble">
            <g id="Group" stroke-width="1" fill-rule="evenodd" transform="translate(25.000000, 23.000000)" stroke="#979797">
                <path d="M18.5,0 L-9.09494702e-13,0 L2.52637417e-14,24 C1.37037037,36.4444444 7.53703704,44.4444444 18.5,48" id="Path-20" stroke-width="2" fill-rule="nonzero"></path>
                <path d="M37,0 L18.5,0 L18.5,24 C19.8703704,36.4444444 26.037037,44.4444444 37,48" id="Path-20-Copy" stroke-width="2" fill-rule="nonzero" transform="translate(27.750000, 24.000000) scale(-1, 1) translate(-27.750000, -24.000000) "></path>
            </g>
            <path d="" id="Path-7" stroke="#979797" stroke-width="1"></path>
            <path d="" id="Path-10" stroke="#979797" stroke-width="1"></path>
            <polygon id="Path-9" fill="#00A4C7" fill-rule="nonzero" points="56.1108093 33.7452506 56.9946719 34.4262595 40.5593212 55.7572466 30.2085219 45.4064473 30.9975042 44.6174649 40.4504443 54.0704051"></polygon>
            <path d="M43.75,87.5 C19.5875422,87.5 0,67.9124578 0,43.75 C0,19.5875422 19.5875422,0 43.75,0 C67.9124578,0 87.5,19.5875422 87.5,43.75 C87.5,67.9124578 67.9124578,87.5 43.75,87.5 Z M43.75,85 C66.5317459,85 85,66.5317459 85,43.75 C85,20.9682541 66.5317459,2.5 43.75,2.5 C20.9682541,2.5 2.5,20.9682541 2.5,43.75 C2.5,66.5317459 20.9682541,85 43.75,85 Z" id="Oval-5" fill="#828D99" fill-rule="nonzero"></path>
        </g>
    </g>
</svg>