<?xml version="1.0" encoding="UTF-8"?>
<svg width="88px" height="84px" viewBox="0 0 88 84" version="1.1" xmlns="http://www.w3.org/2000/svg" xmlns:xlink="http://www.w3.org/1999/xlink">
    <!-- Generator: Sketch 52.6 (67491) - http://www.bohemiancoding.com/sketch -->
    <title>Group 5</title>
    <desc>Created with Sketch.</desc>
    <g id="Page-1" stroke="none" stroke-width="1" fill="none" fill-rule="evenodd">
        <g id="Property-Management---Premiere-Listing---00" transform="translate(-205.000000, -391.000000)" stroke-width="1.5">
            <g id="Group-5" transform="translate(206.000000, 392.000000)">
                <g id="Group-2" stroke="#828D99">
                    <path d="M18.1052632,81.4736842 L71.8552632,81.4736842" id="Stroke-6030" stroke-linecap="round" stroke-linejoin="round"></path>
                    <path d="M40.7368421,74.6842105 L40.7368421,80.6842105" id="Stroke-6031" stroke-linecap="round" stroke-linejoin="round"></path>
                    <path d="M0,58.8421053 L86,58.8421053" id="Stroke-6032"></path>
                    <path d="M80.0689655,74.6842105 L5.93103448,74.6842105 C2.66896552,74.6842105 0,72.0989879 0,68.9392713 L0,5.74493927 C0,2.58522267 2.66896552,0 5.93103448,0 L80.0689655,0 C83.3310345,0 86,2.58522267 86,5.74493927 L86,68.9392713 C86,72.0989879 83.3310345,74.6842105 80.0689655,74.6842105 Z" id="Stroke-6033" stroke-linecap="round" stroke-linejoin="round"></path>
                    <path d="M43,66.7631579 C43,67.3877895 42.4930526,67.8947368 41.8684211,67.8947368 C41.2437895,67.8947368 40.7368421,67.3877895 40.7368421,66.7631579 C40.7368421,66.1385263 41.2437895,65.6315789 41.8684211,65.6315789 C42.4930526,65.6315789 43,66.1385263 43,66.7631579 L43,66.7631579 Z" id="Stroke-6034"></path>
                </g>
                <g id="Group" transform="translate(23.000000, 11.000000)" stroke="#00A4C7">
                    <ellipse id="Oval-5-Copy" cx="20.1075269" cy="19.1486419" rx="18.0467767" ry="18.758032"></ellipse>
                    <polyline id="Stroke-3474" stroke-linecap="round" points="29.4949495 13.4117647 17.6767677 27.9411765 11.1111111 21.3368984"></polyline>
                </g>
            </g>
        </g>
    </g>
</svg>