<?xml version="1.0" encoding="UTF-8"?>
<svg width="89px" height="78px" viewBox="0 0 89 78" version="1.1" xmlns="http://www.w3.org/2000/svg" xmlns:xlink="http://www.w3.org/1999/xlink">
    <!-- Generator: Sketch 51.3 (57544) - http://www.bohemiancoding.com/sketch -->
    <title>icons / speech - pebble</title>
    <desc>Created with Sketch.</desc>
    <defs></defs>
    <g id="Designs---Set-1" stroke="none" stroke-width="1" fill="none" fill-rule="evenodd">
        <g id="Property-Management---Premiere-Listing---00" transform="translate(-1633.000000, -746.000000)">
            <g id="enquiries" transform="translate(1544.000000, 748.000000)">
                <g id="icons-/-speech---pebble" transform="translate(91.000000, 0.000000)">
                    <path d="M64.673913,0 L18.4782609,0 C8.18586957,0 0,8.40184615 0,18.974359 L0,36.0512821 C0,46.6237949 8.34478261,53.1282051 18.6371739,53.1282051 L25.8695652,53.1282051 L25.8695652,74 L44.2702174,53.1282051 L64.673913,53.1282051 C74.97,53.1282051 85,44.726359 85,34.1538462 L85,18.974359 C85,8.40184615 74.97,0 64.673913,0 L64.673913,0 Z" id="Stroke-236" stroke="#828D99" stroke-width="2.5" stroke-linecap="round" stroke-linejoin="round"></path>
                    <path d="M43,24 C40.784127,24 39,25.7954005 39,27.9968279 C39,30.2109437 40.784127,32 43,32 C45.215873,32 47,30.2109437 47,27.9968279 C47,25.7954005 45.215873,24 43,24" id="Fill-460" fill="#00A4C7" fill-rule="evenodd"></path>
                    <path d="M21,24 C18.7904762,24 17,25.7954005 17,27.9968279 C17,30.2109437 18.7904762,32 21,32 C23.215873,32 25,30.2109437 25,27.9968279 C25,25.7954005 23.215873,24 21,24" id="Fill-462" fill="#00A4C7" fill-rule="evenodd"></path>
                    <path d="M63,24 C60.784127,24 59,25.7954005 59,27.9968279 C59,30.2109437 60.784127,32 63,32 C65.215873,32 67,30.2109437 67,27.9968279 C67,25.7954005 65.215873,24 63,24" id="Fill-460-Copy" fill="#00A4C7" fill-rule="evenodd"></path>
                </g>
            </g>
        </g>
    </g>
</svg>