<?xml version="1.0" encoding="UTF-8"?>
<svg width="88px" height="88px" viewBox="0 0 88 88" version="1.1" xmlns="http://www.w3.org/2000/svg" xmlns:xlink="http://www.w3.org/1999/xlink">
    <title>icons / exposure</title>
    <g id="Agent-Profiles-LivePreso-Update---Set-1" stroke="none" stroke-width="1" fill="none" fill-rule="evenodd">
        <g id="Agent-Profiles---Slide-02---00" transform="translate(-193.000000, -732.000000)">
            <g id="views" transform="translate(85.000000, 732.000000)">
                <g id="Group" transform="translate(108.000000, 0.000000)">
                    <path d="M43.75,87.5 C19.5875422,87.5 0,67.9124578 0,43.75 C0,19.5875422 19.5875422,0 43.75,0 C67.9124578,0 87.5,19.5875422 87.5,43.75 C87.5,67.9124578 67.9124578,87.5 43.75,87.5 Z M43.75,85 C66.5317459,85 85,66.5317459 85,43.75 C85,20.9682541 66.5317459,2.5 43.75,2.5 C20.9682541,2.5 2.5,20.9682541 2.5,43.75 C2.5,66.5317459 20.9682541,85 43.75,85 Z" id="Oval-5" fill="#828D99" fill-rule="nonzero"></path>
                    <path d="M48.8436697,33.9293855 C49.0704387,34.4333165 49.696359,34.8418332 50.2494184,34.8418332 L63.1640464,34.8418332 C64.267905,34.8418332 64.5135052,35.4531898 63.7037798,36.2156509 L53.4915148,45.8318184 C53.0886662,46.2111524 52.8676194,46.9588923 52.9948914,47.4898374 L56.7410741,63.1179197 C56.9992347,64.1948974 56.4897479,64.5383423 55.5911527,63.8762195 L42.9079956,54.5307354 C42.45924,54.2000733 41.7367746,54.1963071 41.2829077,54.5307354 L28.5997506,63.8762195 C27.706506,64.5343998 27.1992269,64.1972289 27.4635109,63.1359782 L31.2364164,47.9856133 C31.3699094,47.4495629 31.1578615,46.7018636 30.7640452,46.3168032 L20.4563155,36.2382512 C19.6675582,35.4670309 19.9290345,34.8418332 21.0268569,34.8418332 L33.9414849,34.8418332 C34.4910895,34.8418332 35.1207867,34.4326008 35.3472336,33.9293855 L41.274244,20.7582511 C41.7277845,19.7503835 42.4603006,19.7441206 42.9166593,20.7582511 L48.8436697,33.9293855 Z" id="Stroke-4332" stroke="#E4002B" stroke-width="1.5" stroke-linejoin="round"></path>
                </g>
            </g>
        </g>
    </g>
</svg>