<?xml version="1.0" encoding="UTF-8"?>
<svg width="88px" height="88px" viewBox="0 0 88 88" version="1.1" xmlns="http://www.w3.org/2000/svg" xmlns:xlink="http://www.w3.org/1999/xlink">
    <!-- Generator: Sketch 51.2 (57519) - http://www.bohemiancoding.com/sketch -->
    <title>Slice 1</title>
    <desc>Created with Sketch.</desc>
    <defs></defs>
    <g id="Page-1" stroke="none" stroke-width="1" fill="none" fill-rule="evenodd">
        <g id="icons-/-check---pebble-">
            <path d="" id="Path-7" stroke="#979797" stroke-width="1"></path>
            <path d="" id="Path-10" stroke="#979797" stroke-width="1"></path>
            <polygon id="Path-9" fill="#00A4C7" fill-rule="nonzero" points="60.3485172 29.5619832 61.5367287 30.4774904 39.4420362 59.1535807 25.527047 45.2385915 26.5877071 44.1779313 39.2956687 56.8858929"></polygon>
            <path d="M43.75,87.5 C19.5875422,87.5 0,67.9124578 0,43.75 C0,19.5875422 19.5875422,0 43.75,0 C67.9124578,0 87.5,19.5875422 87.5,43.75 C87.5,67.9124578 67.9124578,87.5 43.75,87.5 Z M43.75,85 C66.5317459,85 85,66.5317459 85,43.75 C85,20.9682541 66.5317459,2.5 43.75,2.5 C20.9682541,2.5 2.5,20.9682541 2.5,43.75 C2.5,66.5317459 20.9682541,85 43.75,85 Z" id="Oval-5" fill="#828D99" fill-rule="nonzero"></path>
        </g>
    </g>
</svg>