<?xml version="1.0" encoding="UTF-8"?>
<svg width="90px" height="90px" viewBox="0 0 90 90" version="1.1" xmlns="http://www.w3.org/2000/svg" xmlns:xlink="http://www.w3.org/1999/xlink">
    <!-- Generator: Sketch 51.2 (57519) - http://www.bohemiancoding.com/sketch -->
    <title>icons / search agent - pebble</title>
    <desc>Created with Sketch.</desc>
    <defs></defs>
    <g id="Page-1" stroke="none" stroke-width="1" fill="none" fill-rule="evenodd">
        <g id="icons-/-website---pebble">
            <path d="M45,90 C20.1471863,90 0,69.8528137 0,45 C0,20.1471863 20.1471863,0 45,0 C69.8528137,0 90,20.1471863 90,45 C90,69.8528137 69.8528137,90 45,90 Z M45,87.4285714 C68.432653,87.4285714 87.4285714,68.432653 87.4285714,45 C87.4285714,21.567347 68.432653,2.57142857 45,2.57142857 C21.567347,2.57142857 2.57142857,21.567347 2.57142857,45 C2.57142857,68.432653 21.567347,87.4285714 45,87.4285714 Z" id="Oval-5" fill="#828D99" fill-rule="nonzero"></path>
            <rect id="Rectangle-6" stroke="#828D99" stroke-width="1.5" x="21.9264706" y="24.0441176" width="46.1470588" height="45.0882353" rx="2"></rect>
            <rect id="Rectangle-6-Copy-4" stroke="#828D99" stroke-width="1.5" x="21.9264706" y="24.0441176" width="46.1470588" height="4.85294118"></rect>
            <rect id="Rectangle-6-Copy" stroke="#00A4C7" stroke-width="1.5" x="28.2794118" y="34.6323529" width="33.4411765" height="9.08823529"></rect>
            <rect id="Rectangle-6-Copy-2" stroke="#828D99" stroke-width="1.5" x="28.2794118" y="48.3970588" width="19.6764706" height="14.3823529"></rect>
            <rect id="Rectangle-6-Copy-3" stroke="#00A4C7" stroke-width="1.5" x="52.6323529" y="48.3970588" width="9.08823529" height="14.3823529"></rect>
        </g>
    </g>
</svg>