<svg width="46" height="46" viewBox="0 0 46 46" fill="none" xmlns="http://www.w3.org/2000/svg">
<path fill-rule="evenodd" clip-rule="evenodd" d="M22.9993 3.35449C12.1493 3.35449 3.35352 12.1502 3.35352 23.0003C3.35352 33.8504 12.1493 42.6462 22.9993 42.6462C33.8494 42.6462 42.6452 33.8504 42.6452 23.0003C42.6452 12.1502 33.8494 3.35449 22.9993 3.35449ZM0.478516 23.0003C0.478516 10.5624 10.5614 0.479492 22.9993 0.479492C35.4373 0.479492 45.5202 10.5624 45.5202 23.0003C45.5202 35.4382 35.4373 45.5212 22.9993 45.5212C10.5614 45.5212 0.478516 35.4382 0.478516 23.0003Z" fill="#66408D"/>
<path fill-rule="evenodd" clip-rule="evenodd" d="M15.8125 15.3337C15.8125 13.4812 17.3142 11.9795 19.1667 11.9795H26.8333C28.6858 11.9795 30.1875 13.4812 30.1875 15.3337V17.2503C30.1875 18.0442 29.5439 18.6878 28.75 18.6878C27.9561 18.6878 27.3125 18.0442 27.3125 17.2503V15.3337C27.3125 15.069 27.098 14.8545 26.8333 14.8545H19.1667C18.902 14.8545 18.6875 15.069 18.6875 15.3337V21.0837C18.6875 21.3483 18.902 21.5628 19.1667 21.5628H26.8333C28.6858 21.5628 30.1875 23.0645 30.1875 24.917V30.667C30.1875 32.5194 28.6858 34.0212 26.8333 34.0212H19.1667C17.3142 34.0212 15.8125 32.5194 15.8125 30.667V28.7503C15.8125 27.9564 16.4561 27.3128 17.25 27.3128C18.0439 27.3128 18.6875 27.9564 18.6875 28.7503V30.667C18.6875 30.9316 18.902 31.1462 19.1667 31.1462H26.8333C27.098 31.1462 27.3125 30.9316 27.3125 30.667V24.917C27.3125 24.6524 27.098 24.4378 26.8333 24.4378H19.1667C17.3142 24.4378 15.8125 22.9361 15.8125 21.0837V15.3337Z" fill="#66408D"/>
<path fill-rule="evenodd" clip-rule="evenodd" d="M23 8.14648C23.7939 8.14648 24.4375 8.79008 24.4375 9.58398V13.4173C24.4375 14.2112 23.7939 14.8548 23 14.8548C22.2061 14.8548 21.5625 14.2112 21.5625 13.4173V9.58398C21.5625 8.79008 22.2061 8.14648 23 8.14648ZM23 31.1465C23.7939 31.1465 24.4375 31.7901 24.4375 32.584V36.4173C24.4375 37.2112 23.7939 37.8548 23 37.8548C22.2061 37.8548 21.5625 37.2112 21.5625 36.4173V32.584C21.5625 31.7901 22.2061 31.1465 23 31.1465Z" fill="#66408D"/>
</svg>
