<svg width="46" height="39" viewBox="0 0 46 39" fill="none" xmlns="http://www.w3.org/2000/svg">
<path fill-rule="evenodd" clip-rule="evenodd" d="M0.478516 4.18717C0.478516 2.33472 1.98023 0.833008 3.83268 0.833008H42.166C44.0185 0.833008 45.5202 2.33472 45.5202 4.18717V29.1038C45.5202 30.9563 44.0185 32.458 42.166 32.458H21.6781L16.3491 37.787C15.7878 38.3484 14.8776 38.3484 14.3162 37.787L8.98725 32.458H3.83268C1.98023 32.458 0.478516 30.9563 0.478516 29.1038V4.18717ZM3.83268 3.70801C3.56805 3.70801 3.35352 3.92254 3.35352 4.18717V29.1038C3.35352 29.3685 3.56805 29.583 3.83268 29.583H10.1781L15.3327 34.7376L20.4873 29.583H42.166C42.4307 29.583 42.6452 29.3685 42.6452 29.1038V4.18717C42.6452 3.92254 42.4307 3.70801 42.166 3.70801H3.83268Z" fill="#66408D"/>
<path fill-rule="evenodd" clip-rule="evenodd" d="M6.22852 8.02051C6.22852 7.2266 6.87211 6.58301 7.66602 6.58301H38.3327C39.1266 6.58301 39.7702 7.2266 39.7702 8.02051C39.7702 8.81442 39.1266 9.45801 38.3327 9.45801H7.66602C6.87211 9.45801 6.22852 8.81442 6.22852 8.02051ZM6.22852 13.7705C6.22852 12.9766 6.87211 12.333 7.66602 12.333H38.3327C39.1266 12.333 39.7702 12.9766 39.7702 13.7705C39.7702 14.5644 39.1266 15.208 38.3327 15.208H7.66602C6.87211 15.208 6.22852 14.5644 6.22852 13.7705ZM6.22852 19.5205C6.22852 18.7266 6.87211 18.083 7.66602 18.083H38.3327C39.1266 18.083 39.7702 18.7266 39.7702 19.5205C39.7702 20.3144 39.1266 20.958 38.3327 20.958H7.66602C6.87211 20.958 6.22852 20.3144 6.22852 19.5205ZM6.22852 25.2705C6.22852 24.4766 6.87211 23.833 7.66602 23.833H19.166C19.9599 23.833 20.6035 24.4766 20.6035 25.2705C20.6035 26.0644 19.9599 26.708 19.166 26.708H7.66602C6.87211 26.708 6.22852 26.0644 6.22852 25.2705Z" fill="#66408D"/>
</svg>
