<svg width="46" height="46" viewBox="0 0 46 46" fill="none" xmlns="http://www.w3.org/2000/svg">
<path fill-rule="evenodd" clip-rule="evenodd" d="M3.83268 5.27051C3.56805 5.27051 3.35352 5.48504 3.35352 5.74967V40.2497C3.35352 40.5143 3.56805 40.7288 3.83268 40.7288H28.7493C29.5433 40.7288 30.1868 41.3724 30.1868 42.1663C30.1868 42.9602 29.5433 43.6038 28.7493 43.6038H3.83268C1.98023 43.6038 0.478516 42.1021 0.478516 40.2497V5.74967C0.478516 3.89722 1.98023 2.39551 3.83268 2.39551H42.166C44.0185 2.39551 45.5202 3.89722 45.5202 5.74967V26.833C45.5202 27.6269 44.8766 28.2705 44.0827 28.2705C43.2888 28.2705 42.6452 27.6269 42.6452 26.833V5.74967C42.6452 5.48504 42.4307 5.27051 42.166 5.27051H3.83268Z" fill="#66408D"/>
<path fill-rule="evenodd" clip-rule="evenodd" d="M7.66602 2.39551C8.45993 2.39551 9.10352 3.0391 9.10352 3.83301V9.58301C9.10352 10.3769 8.45993 11.0205 7.66602 11.0205H1.91602C1.12211 11.0205 0.478516 10.3769 0.478516 9.58301C0.478516 8.7891 1.12211 8.14551 1.91602 8.14551H6.22852V3.83301C6.22852 3.0391 6.87211 2.39551 7.66602 2.39551Z" fill="#66408D"/>
<path fill-rule="evenodd" clip-rule="evenodd" d="M6.22852 8.14551H45.5202V11.0205H6.22852V8.14551ZM6.22852 13.8955H39.7702V22.5205H6.22852V13.8955ZM9.10352 16.7705V19.6455H36.8952V16.7705H9.10352Z" fill="#66408D"/>
<path fill-rule="evenodd" clip-rule="evenodd" d="M6.22852 25.3955H18.6868V37.8538H6.22852V25.3955ZM9.10352 28.2705V34.9788H15.8118V28.2705H9.10352Z" fill="#66408D"/>
<path fill-rule="evenodd" clip-rule="evenodd" d="M34.5 28.2705C32.1183 28.2705 30.1875 30.2013 30.1875 32.583C30.1875 34.9647 32.1183 36.8955 34.5 36.8955C36.8817 36.8955 38.8125 34.9647 38.8125 32.583C38.8125 30.2013 36.8817 28.2705 34.5 28.2705ZM27.3125 32.583C27.3125 28.6135 30.5305 25.3955 34.5 25.3955C38.4695 25.3955 41.6875 28.6135 41.6875 32.583C41.6875 36.5526 38.4695 39.7705 34.5 39.7705C30.5305 39.7705 27.3125 36.5526 27.3125 32.583Z" fill="#66408D"/>
<path fill-rule="evenodd" clip-rule="evenodd" d="M38.2745 36.3585C38.8359 35.7972 39.7461 35.7972 40.3075 36.3585L43.1825 39.2335C43.7439 39.7949 43.7439 40.7051 43.1825 41.2665C42.6211 41.8278 41.7109 41.8278 41.1495 41.2665L38.2745 38.3915C37.7132 37.8301 37.7132 36.9199 38.2745 36.3585Z" fill="#66408D"/>
</svg>
