<svg width="46" height="46" viewBox="0 0 46 46" fill="none" xmlns="http://www.w3.org/2000/svg">
<path fill-rule="evenodd" clip-rule="evenodd" d="M3.83268 3.35254C3.56805 3.35254 3.35352 3.56707 3.35352 3.83171V42.165C3.35352 42.4297 3.56805 42.6442 3.83268 42.6442H42.166C42.4307 42.6442 42.6452 42.4297 42.6452 42.165V3.83171C42.6452 3.56707 42.4307 3.35254 42.166 3.35254H3.83268ZM0.478516 3.83171C0.478516 1.97925 1.98023 0.477539 3.83268 0.477539H42.166C44.0185 0.477539 45.5202 1.97925 45.5202 3.83171V42.165C45.5202 44.0175 44.0185 45.5192 42.166 45.5192H3.83268C1.98023 45.5192 0.478516 44.0175 0.478516 42.165V3.83171Z" fill="white"/>
<path fill-rule="evenodd" clip-rule="evenodd" d="M0.478516 7.66504C0.478516 6.87113 1.12211 6.22754 1.91602 6.22754H44.0827C44.8766 6.22754 45.5202 6.87113 45.5202 7.66504C45.5202 8.45895 44.8766 9.10254 44.0827 9.10254H1.91602C1.12211 9.10254 0.478516 8.45895 0.478516 7.66504Z" fill="white"/>
<path fill-rule="evenodd" clip-rule="evenodd" d="M0.478516 22.998C0.478516 22.2041 1.12211 21.5605 1.91602 21.5605H44.0827C44.8766 21.5605 45.5202 22.2041 45.5202 22.998C45.5202 23.792 44.8766 24.4355 44.0827 24.4355H1.91602C1.12211 24.4355 0.478516 23.792 0.478516 22.998Z" fill="white"/>
<path fill-rule="evenodd" clip-rule="evenodd" d="M6.22852 28.748C6.22852 27.9541 6.87211 27.3105 7.66602 27.3105L26.8327 27.3105C27.6266 27.3105 28.2702 27.9541 28.2702 28.748C28.2702 29.542 27.6266 30.1855 26.8327 30.1855L7.66602 30.1855C6.87211 30.1855 6.22852 29.542 6.22852 28.748Z" fill="white"/>
<path fill-rule="evenodd" clip-rule="evenodd" d="M6.22852 33.54C6.22852 32.7461 6.87211 32.1025 7.66602 32.1025H26.8327C27.6266 32.1025 28.2702 32.7461 28.2702 33.54C28.2702 34.3339 27.6266 34.9775 26.8327 34.9775H7.66602C6.87211 34.9775 6.22852 34.3339 6.22852 33.54Z" fill="white"/>
<path fill-rule="evenodd" clip-rule="evenodd" d="M6.22852 38.332C6.22852 37.5381 6.87211 36.8945 7.66602 36.8945L22.9993 36.8945C23.7933 36.8945 24.4368 37.5381 24.4368 38.332C24.4368 39.1259 23.7933 39.7695 22.9993 39.7695L7.66602 39.7695C6.87211 39.7695 6.22852 39.1259 6.22852 38.332Z" fill="white"/>
<path fill-rule="evenodd" clip-rule="evenodd" d="M9.58203 0.477539C10.3759 0.477539 11.0195 1.12113 11.0195 1.91504V7.18587C11.0195 7.97978 10.3759 8.62337 9.58203 8.62337C8.78812 8.62337 8.14453 7.97978 8.14453 7.18587V1.91504C8.14453 1.12113 8.78812 0.477539 9.58203 0.477539Z" fill="white"/>
<path fill-rule="evenodd" clip-rule="evenodd" d="M31.1445 27.3105H39.7695V39.7689H31.1445V27.3105ZM34.0195 30.1855V36.8939H36.8945V30.1855H34.0195Z" fill="white"/>
</svg>
