<svg width="386" height="65" viewBox="0 0 386 65" fill="none" xmlns="http://www.w3.org/2000/svg">
<g clip-path="url(#clip0_8_1223)">
<path d="M32.028 64.056C49.7166 64.056 64.056 49.7166 64.056 32.028C64.056 14.3394 49.7166 0 32.028 0C14.3394 0 0 14.3394 0 32.028C0 49.7166 14.3394 64.056 32.028 64.056Z" fill="#36A5D9"/>
<path d="M44.064 26.5043C46.0053 26.5043 47.5791 24.9305 47.5791 22.9891C47.5791 21.0478 46.0053 19.474 44.064 19.474C42.1226 19.474 40.5488 21.0478 40.5488 22.9891C40.5488 24.9305 42.1226 26.5043 44.064 26.5043Z" stroke="white" stroke-width="2.00866" stroke-linecap="round" stroke-linejoin="round"/>
<path d="M19.9605 26.5043C21.9018 26.5043 23.4756 24.9305 23.4756 22.9891C23.4756 21.0478 21.9018 19.474 19.9605 19.474C18.0191 19.474 16.4453 21.0478 16.4453 22.9891C16.4453 24.9305 18.0191 26.5043 19.9605 26.5043Z" stroke="white" stroke-width="2.00866" stroke-linecap="round" stroke-linejoin="round"/>
<path d="M13.9355 50.106V36.5476C13.9355 36.5476 13.9355 32.0281 18.455 32.0281H19.9916" stroke="white" stroke-width="2.00866" stroke-linecap="round" stroke-linejoin="round"/>
<path d="M50.1205 50.106V36.5476C50.1205 36.5476 50.1205 32.0281 45.6011 32.0281H44.0645" stroke="white" stroke-width="2.00866" stroke-linecap="round" stroke-linejoin="round"/>
<path d="M32.0136 22.9893C34.5097 22.9893 36.5331 20.9658 36.5331 18.4698C36.5331 15.9738 34.5097 13.9503 32.0136 13.9503C29.5176 13.9503 27.4941 15.9738 27.4941 18.4698C27.4941 20.9658 29.5176 22.9893 32.0136 22.9893Z" stroke="white" stroke-width="2.00866" stroke-linecap="round" stroke-linejoin="round"/>
<path d="M22.9746 50.1062V32.0283C22.9746 32.0283 22.9746 27.5088 27.4941 27.5088H36.533C36.533 27.5088 41.0525 27.5088 41.0525 32.0283V50.1062" stroke="white" stroke-width="2.00866" stroke-linecap="round" stroke-linejoin="round"/>
</g>
<path d="M98.9889 41H95.078L93.2833 36.1515H86.2651L84.4703 41H80.6666L88.033 22.2491H91.5957L98.9889 41ZM89.7742 26.6153L87.3633 33.1514H92.185L89.7742 26.6153ZM109.248 29.053V27.2047H112.704V39.2053C112.704 43.4644 109.837 45.9288 105.632 45.9288C103.462 45.9288 100.676 44.9109 99.337 42.1251L101.909 40.4107C102.712 41.884 104.078 42.9019 105.712 42.9019C107.641 42.9019 109.248 41.75 109.248 39.3928V37.7588C108.445 38.991 107.186 39.9017 105.23 39.9017C101.828 39.9017 99.3102 37.0891 99.3102 33.3925C99.3102 29.6959 101.828 26.8832 105.23 26.8832C107.186 26.8832 108.445 27.794 109.248 29.053ZM106.087 36.848C107.962 36.848 109.302 35.4551 109.302 33.3925C109.302 31.3299 107.962 29.9369 106.087 29.9369C104.159 29.9369 102.819 31.3299 102.819 33.3925C102.819 35.4551 104.159 36.848 106.087 36.848ZM128.03 34.0621C128.03 34.3032 128.03 34.6247 128.003 34.8658H118.279C118.494 37.3034 119.779 38.3749 121.547 38.3749C123.181 38.3749 124.36 37.6248 125.083 35.7497L128.003 36.8212C126.932 39.9285 124.494 41.3214 121.681 41.3214C117.61 41.3214 114.77 38.4284 114.77 34.0889C114.77 29.803 117.556 26.8832 121.521 26.8832C125.351 26.8832 128.03 29.7762 128.03 34.0621ZM121.521 29.6691C119.833 29.6691 118.762 30.6066 118.387 32.5085H124.521C124.146 30.553 123.047 29.6691 121.521 29.6691ZM137.372 26.8832C140.185 26.8832 142.274 28.9458 142.274 32.1067V41H138.819V32.696C138.819 30.9013 137.801 29.8834 136.408 29.8834C134.774 29.8834 133.595 30.9816 133.595 32.8835V41H130.14V27.2047H133.595V28.9994C134.426 27.4993 135.818 26.8832 137.372 26.8832ZM151.137 41.3214C147.226 41.3214 144.226 38.4017 144.226 34.0889C144.226 29.7762 147.226 26.8832 151.137 26.8832C154.19 26.8832 156.816 28.4101 157.726 31.7852L154.673 32.8835C154.003 30.7673 152.878 29.9369 151.137 29.9369C149.395 29.9369 147.788 31.3031 147.788 34.0889C147.788 36.8748 149.395 38.2409 151.137 38.2409C152.878 38.2409 154.003 37.4373 154.673 35.3211L157.726 36.4194C156.816 39.7946 154.19 41.3214 151.137 41.3214ZM164.78 34.6783L168.182 27.2047H171.959L163.655 45.527H159.878L163.039 38.5624L157.709 27.2047H161.673L164.78 34.6783ZM187.258 30.1244L192.883 22.2491H196.338V41H192.669V28.0886L187.525 35.1336H186.909L181.713 28.0886V41H178.07V22.2491H181.525L187.258 30.1244ZM205.012 26.8832C208.333 26.8832 211.199 28.5976 211.199 32.321V41H207.985V39.6606C207.154 40.7589 205.735 41.3214 203.913 41.3214C200.699 41.3214 198.583 39.7142 198.583 37.0087C198.583 34.4104 200.779 32.7228 204.154 32.7228C205.735 32.7228 206.94 33.1782 207.744 33.9282V32.6692C207.744 30.8209 206.672 29.9637 204.878 29.9637C203.351 29.9637 202.306 30.7673 201.797 32.1603L198.931 30.9548C199.868 28.0351 202.279 26.8832 205.012 26.8832ZM204.985 38.8035C206.672 38.8035 207.824 38.1606 207.824 36.9819C207.824 35.8033 206.672 35.1336 204.985 35.1336C203.297 35.1336 202.145 35.8033 202.145 36.9819C202.145 38.1606 203.297 38.8035 204.985 38.8035ZM220.682 26.8832H221.406V30.5798H219.959C218.352 30.5798 217.2 31.7317 217.2 33.7675V41H213.745V27.2047H217.2V29.1869C217.977 27.5797 219.236 26.8832 220.682 26.8832ZM230.235 33.7139L235.914 41H231.681L226.592 34.1425V41H223.11V22.2491H226.592V33.3121L231.601 27.2047H235.833L230.235 33.7139ZM248.729 34.0621C248.729 34.3032 248.729 34.6247 248.702 34.8658H238.978C239.192 37.3034 240.478 38.3749 242.246 38.3749C243.88 38.3749 245.059 37.6248 245.782 35.7497L248.702 36.8212C247.63 39.9285 245.193 41.3214 242.38 41.3214C238.308 41.3214 235.469 38.4284 235.469 34.0889C235.469 29.803 238.255 26.8832 242.219 26.8832C246.05 26.8832 248.729 29.7762 248.729 34.0621ZM242.219 29.6691C240.532 29.6691 239.46 30.6066 239.085 32.5085H245.22C244.845 30.553 243.746 29.6691 242.219 29.6691ZM258.456 27.2047V29.9637H255.375V36.0444C255.375 37.357 255.911 38.0266 256.983 38.0266H258.456V41H256.554C253.607 41 251.92 39.1517 251.92 36.2051V29.9637H249.402V27.2047H251.92V24.5527L255.375 22.6509V27.2047H258.456ZM268.128 26.8832C271.691 26.8832 274.316 29.9637 274.316 34.0889C274.316 38.2409 271.691 41.3214 268.128 41.3214C266.065 41.3214 264.699 40.3303 263.842 38.9642V45.527H260.386V27.2047H263.842V29.1869C264.699 27.8475 266.065 26.8832 268.128 26.8832ZM267.298 38.2409C269.333 38.2409 270.78 36.7676 270.78 34.1157C270.78 31.4638 269.333 29.9637 267.298 29.9637C265.235 29.9637 263.788 31.4638 263.788 34.1157C263.788 36.7676 265.235 38.2409 267.298 38.2409ZM282.075 41H280.387C277.842 41 276.396 39.4463 276.396 36.9284V22.2491H279.851V36.7141C279.851 37.5713 280.226 38.0266 281.057 38.0266H282.075V41ZM289.48 26.8832C292.801 26.8832 295.668 28.5976 295.668 32.321V41H292.453V39.6606C291.623 40.7589 290.203 41.3214 288.381 41.3214C285.167 41.3214 283.051 39.7142 283.051 37.0087C283.051 34.4104 285.247 32.7228 288.623 32.7228C290.203 32.7228 291.408 33.1782 292.212 33.9282V32.6692C292.212 30.8209 291.141 29.9637 289.346 29.9637C287.819 29.9637 286.774 30.7673 286.265 32.1603L283.399 30.9548C284.337 28.0351 286.747 26.8832 289.48 26.8832ZM289.453 38.8035C291.141 38.8035 292.292 38.1606 292.292 36.9819C292.292 35.8033 291.141 35.1336 289.453 35.1336C287.765 35.1336 286.614 35.8033 286.614 36.9819C286.614 38.1606 287.765 38.8035 289.453 38.8035ZM304.534 41.3214C300.624 41.3214 297.623 38.4017 297.623 34.0889C297.623 29.7762 300.624 26.8832 304.534 26.8832C307.588 26.8832 310.213 28.4101 311.124 31.7852L308.07 32.8835C307.401 30.7673 306.276 29.9369 304.534 29.9369C302.793 29.9369 301.186 31.3031 301.186 34.0889C301.186 36.8748 302.793 38.2409 304.534 38.2409C306.276 38.2409 307.401 37.4373 308.07 35.3211L311.124 36.4194C310.213 39.7946 307.588 41.3214 304.534 41.3214ZM325.532 34.0621C325.532 34.3032 325.532 34.6247 325.505 34.8658H315.782C315.996 37.3034 317.282 38.3749 319.05 38.3749C320.684 38.3749 321.862 37.6248 322.586 35.7497L325.505 36.8212C324.434 39.9285 321.996 41.3214 319.184 41.3214C315.112 41.3214 312.273 38.4284 312.273 34.0889C312.273 29.803 315.058 26.8832 319.023 26.8832C322.853 26.8832 325.532 29.7762 325.532 34.0621ZM319.023 29.6691C317.335 29.6691 316.264 30.6066 315.889 32.5085H322.023C321.648 30.553 320.55 29.6691 319.023 29.6691Z" fill="#36A5D9"/>
<defs>
<clipPath id="clip0_8_1223">
<rect width="64.056" height="64.056" fill="white"/>
</clipPath>
</defs>
</svg>
