<svg width="30" height="31" viewBox="0 0 30 31" fill="none" xmlns="http://www.w3.org/2000/svg">
<g clip-path="url(#clip0_424_2635)">
<path fill-rule="evenodd" clip-rule="evenodd" d="M2.5 3.05054C2.5 1.84242 3.47938 0.863037 4.6875 0.863037H24.6875C25.8956 0.863037 26.875 1.84241 26.875 3.05054V28.0505C26.875 29.2587 25.8956 30.238 24.6875 30.238H4.6875C3.47938 30.238 2.5 29.2587 2.5 28.0505V3.05054ZM4.6875 2.73804C4.51491 2.73804 4.375 2.87795 4.375 3.05054V28.0505C4.375 28.2231 4.51491 28.363 4.6875 28.363H24.6875C24.8601 28.363 25 28.2231 25 28.0505V3.05054C25 2.87795 24.8601 2.73804 24.6875 2.73804H4.6875Z" fill="#13A4AE"/>
<path fill-rule="evenodd" clip-rule="evenodd" d="M6.25 16.8005C6.25 16.2828 6.66973 15.863 7.1875 15.863H10.9375C11.4553 15.863 11.875 16.2828 11.875 16.8005V25.5505C11.875 26.0683 11.4553 26.488 10.9375 26.488H7.1875C6.66973 26.488 6.25 26.0683 6.25 25.5505V16.8005ZM8.125 17.738V24.613H10V17.738H8.125Z" fill="#13A4AE"/>
<path fill-rule="evenodd" clip-rule="evenodd" d="M10 13.0505C10 12.5328 10.4197 12.113 10.9375 12.113H14.6875C15.2053 12.113 15.625 12.5328 15.625 13.0505V25.5505C15.625 26.0683 15.2053 26.488 14.6875 26.488H10.9375C10.4197 26.488 10 26.0683 10 25.5505V13.0505ZM11.875 13.988V24.613H13.75V13.988H11.875Z" fill="#13A4AE"/>
<path fill-rule="evenodd" clip-rule="evenodd" d="M13.75 19.3005C13.75 18.7828 14.1697 18.363 14.6875 18.363H18.4375C18.9553 18.363 19.375 18.7828 19.375 19.3005V25.5505C19.375 26.0683 18.9553 26.488 18.4375 26.488H14.6875C14.1697 26.488 13.75 26.0683 13.75 25.5505V19.3005ZM15.625 20.238V24.613H17.5V20.238H15.625Z" fill="#13A4AE"/>
<path fill-rule="evenodd" clip-rule="evenodd" d="M17.5 9.30054C17.5 8.78277 17.9197 8.36304 18.4375 8.36304H22.1875C22.7053 8.36304 23.125 8.78277 23.125 9.30054V25.5505C23.125 26.0683 22.7053 26.488 22.1875 26.488H18.4375C17.9197 26.488 17.5 26.0683 17.5 25.5505V9.30054ZM19.375 10.238V24.613H21.25V10.238H19.375Z" fill="#13A4AE"/>
<path fill-rule="evenodd" clip-rule="evenodd" d="M18.9553 6.48804C18.8724 6.48804 18.7929 6.52096 18.7343 6.57957L15.7165 9.59733C15.3063 10.0076 14.7499 10.238 14.1697 10.238H11.4553C11.3724 10.238 11.2929 10.271 11.2343 10.3296L7.85041 13.7134C7.4843 14.0796 6.8907 14.0796 6.52459 13.7134C6.15847 13.3473 6.15847 12.7537 6.52459 12.3876L9.90847 9.00374C10.3187 8.59351 10.8751 8.36304 11.4553 8.36304H14.1697C14.2526 8.36304 14.3321 8.33011 14.3907 8.27151L17.4085 5.25374C17.8187 4.84351 18.3751 4.61304 18.9553 4.61304H22.1875C22.7053 4.61304 23.125 5.03277 23.125 5.55054C23.125 6.0683 22.7053 6.48804 22.1875 6.48804H18.9553Z" fill="#13A4AE"/>
</g>
<defs>
<clipPath id="clip0_424_2635">
<rect width="30" height="30" fill="white" transform="translate(0 0.863037)"/>
</clipPath>
</defs>
</svg>
