<svg width="44" height="44" viewBox="0 0 44 44" fill="none" xmlns="http://www.w3.org/2000/svg">
<g clip-path="url(#clip0_1395_1171)">
<path d="M22 44C34.1503 44 44 34.1503 44 22C44 9.84974 34.1503 0 22 0C9.84974 0 0 9.84974 0 22C0 34.1503 9.84974 44 22 44Z" fill="#0078BD"/>
<path d="M30.2685 18.8955C28.5576 18.8955 27.1641 17.502 27.1641 15.7911C27.1641 14.0802 28.5576 12.6867 30.2685 12.6867C31.9794 12.6867 33.3729 14.0802 33.3729 15.7911C33.3729 17.502 31.9794 18.8955 30.2685 18.8955ZM30.2685 14.0664C29.3165 14.0664 28.5438 14.8391 28.5438 15.7911C28.5438 16.7432 29.3165 17.5158 30.2685 17.5158C31.2205 17.5158 31.9932 16.7432 31.9932 15.7911C31.9932 14.8391 31.2205 14.0664 30.2685 14.0664Z" fill="white"/>
<path d="M13.7109 18.8955C12 18.8955 10.6064 17.502 10.6064 15.7911C10.6064 14.0802 12 12.6867 13.7109 12.6867C15.4217 12.6867 16.8153 14.0802 16.8153 15.7911C16.8153 17.502 15.4217 18.8955 13.7109 18.8955ZM13.7109 14.0664C12.7588 14.0664 11.9862 14.8391 11.9862 15.7911C11.9862 16.7432 12.7588 17.5158 13.7109 17.5158C14.6629 17.5158 15.4355 16.7432 15.4355 15.7911C15.4355 14.8391 14.6629 14.0664 13.7109 14.0664Z" fill="white"/>
<path d="M9.57171 35.1075C9.19228 35.1075 8.88184 34.7971 8.88184 34.4177V25.1044C8.88184 23.7937 9.67519 21.3101 12.6761 21.3101H13.7282C14.1076 21.3101 14.4181 21.6206 14.4181 22C14.4181 22.3794 14.1076 22.6899 13.7282 22.6899H12.6761C10.3306 22.6899 10.2616 24.8561 10.2616 25.1044V34.4177C10.2616 34.7971 9.95114 35.1075 9.57171 35.1075Z" fill="white"/>
<path d="M34.4284 35.1075C34.0489 35.1075 33.7385 34.7971 33.7385 34.4177V25.1044C33.7385 24.8595 33.6488 22.6899 31.324 22.6899H30.2719C29.8925 22.6899 29.582 22.3794 29.582 22C29.582 21.6206 29.8925 21.3101 30.2719 21.3101H31.324C34.3249 21.3101 35.1182 23.7937 35.1182 25.1044V34.4177C35.1182 34.7971 34.8078 35.1075 34.4284 35.1075Z" fill="white"/>
<path d="M21.9896 16.481C19.8958 16.481 18.1953 14.7804 18.1953 12.6867C18.1953 10.5929 19.8958 8.8924 21.9896 8.8924C24.0834 8.8924 25.7839 10.5929 25.7839 12.6867C25.7839 14.7804 24.0834 16.481 21.9896 16.481ZM21.9896 10.2721C20.6582 10.2721 19.5751 11.3552 19.5751 12.6867C19.5751 14.0181 20.6582 15.1012 21.9896 15.1012C23.3211 15.1012 24.4042 14.0181 24.4042 12.6867C24.4042 11.3552 23.3211 10.2721 21.9896 10.2721Z" fill="white"/>
<path d="M28.1984 35.1076C27.8189 35.1076 27.5085 34.7972 27.5085 34.4177V22C27.5085 19.6752 25.3389 19.5889 25.0905 19.5855H18.8851C16.5602 19.5855 16.474 21.7551 16.4706 22.0035V34.4177C16.4706 34.7972 16.1601 35.1076 15.7807 35.1076C15.4013 35.1076 15.0908 34.7972 15.0908 34.4177V22C15.0908 20.6893 15.8842 18.2057 18.8851 18.2057H25.094C26.4047 18.2057 28.8882 18.9991 28.8882 22V34.4177C28.8882 34.7972 28.5778 35.1076 28.1984 35.1076Z" fill="white"/>
</g>
<defs>
<clipPath id="clip0_1395_1171">
<rect width="44" height="44" fill="white"/>
</clipPath>
</defs>
</svg>
