<svg width="24" height="31" viewBox="0 0 24 31" fill="none" xmlns="http://www.w3.org/2000/svg">
<path d="M8.19727 26.2949H15.3939H8.19727Z" stroke="white" stroke-width="2" stroke-linecap="round" stroke-linejoin="round"/>
<path d="M1 4.70512C1 4.70512 1 1.10681 4.59831 1.10681H18.9915C18.9915 1.10681 22.5898 1.10681 22.5898 4.70512V26.295C22.5898 26.295 22.5898 29.8933 18.9915 29.8933H4.59831C4.59831 29.8933 1 29.8933 1 26.295V4.70512Z" stroke="white" stroke-width="2" stroke-linecap="round" stroke-linejoin="round"/>
<path d="M16.1613 14.9402C16.1613 18.2107 13.4346 20.8414 10.1321 20.6895C7.2015 20.5536 4.78663 18.1427 4.65469 15.2121C4.50277 11.9096 7.13753 9.18292 10.404 9.18292" stroke="white" stroke-width="2" stroke-linecap="round" stroke-linejoin="round"/>
<path d="M10.4043 9.18292V14.9402H16.1616" stroke="white" stroke-width="2" stroke-linecap="round" stroke-linejoin="round"/>
<path d="M19.0405 12.0616C19.0405 8.88311 16.4617 6.30432 13.2832 6.30432" stroke="white" stroke-width="2" stroke-linecap="round" stroke-linejoin="round"/>
<path d="M13.2832 6.30432V12.0616H19.0405" stroke="white" stroke-width="2" stroke-linecap="round" stroke-linejoin="round"/>
</svg>
