<svg width="68" height="68" viewBox="0 0 68 68" fill="none" xmlns="http://www.w3.org/2000/svg">
<path d="M34 68C52.7777 68 68 52.7777 68 34C68 15.2223 52.7777 0 34 0C15.2223 0 0 15.2223 0 34C0 52.7777 15.2223 68 34 68Z" fill="#E4002B"/>
<path d="M46.1749 25.8064L39.5098 35.8041L41.284 36.9869L47.9491 26.9892L46.1749 25.8064Z" fill="white"/>
<path d="M31.8128 34.0828L30.8594 35.9901L36.1664 38.6431L37.1199 36.7358L31.8128 34.0828Z" fill="white"/>
<path d="M26.7553 34.9427L20.5508 41.1472L22.0586 42.655L28.2631 36.4505L26.7553 34.9427Z" fill="white"/>
<path d="M19.6076 47.0605C18.9223 47.0605 18.2524 46.8573 17.6826 46.4766C17.1127 46.0958 16.6686 45.5547 16.4063 44.9215C16.1441 44.2884 16.0755 43.5917 16.2092 42.9195C16.3429 42.2474 16.6729 41.63 17.1575 41.1454C17.6421 40.6608 18.2595 40.3308 18.9316 40.1971C19.6038 40.0634 20.3005 40.132 20.9336 40.3942C21.5668 40.6565 22.108 41.1006 22.4887 41.6704C22.8694 42.2403 23.0727 42.9102 23.0727 43.5955C23.0713 44.5141 22.7057 45.3946 22.0562 46.0441C21.4067 46.6936 20.5262 47.0591 19.6076 47.0605ZM19.6076 42.2628C19.344 42.2628 19.0864 42.341 18.8672 42.4874C18.6481 42.6338 18.4772 42.842 18.3764 43.0855C18.2755 43.329 18.2491 43.597 18.3005 43.8555C18.352 44.114 18.4789 44.3515 18.6653 44.5379C18.8516 44.7243 19.0891 44.8512 19.3476 44.9026C19.6061 44.954 19.8741 44.9276 20.1176 44.8268C20.3612 44.7259 20.5693 44.5551 20.7157 44.3359C20.8622 44.1168 20.9403 43.8591 20.9403 43.5955C20.9403 43.2421 20.7999 42.9031 20.55 42.6531C20.3001 42.4032 19.9611 42.2628 19.6076 42.2628Z" fill="white"/>
<path d="M29.2014 37.4651C28.5161 37.4651 27.8461 37.2619 27.2763 36.8811C26.7065 36.5004 26.2623 35.9592 26.0001 35.3261C25.7378 34.6929 25.6692 33.9962 25.8029 33.3241C25.9366 32.6519 26.2666 32.0345 26.7512 31.5499C27.2358 31.0653 27.8532 30.7353 28.5254 30.6016C29.1975 30.4679 29.8942 30.5365 30.5274 30.7988C31.1605 31.0611 31.7017 31.5052 32.0824 32.075C32.4632 32.6448 32.6664 33.3147 32.6664 34.0001C32.665 34.9186 32.2995 35.7991 31.65 36.4486C31.0005 37.0982 30.1199 37.4637 29.2014 37.4651ZM29.2014 32.6673C28.9378 32.6673 28.6801 32.7455 28.461 32.8919C28.2418 33.0384 28.071 33.2466 27.9701 33.4901C27.8693 33.7336 27.8429 34.0015 27.8943 34.2601C27.9457 34.5186 28.0726 34.756 28.259 34.9424C28.4454 35.1288 28.6829 35.2557 28.9414 35.3072C29.1999 35.3586 29.4679 35.3322 29.7114 35.2313C29.9549 35.1304 30.163 34.9596 30.3095 34.7405C30.4559 34.5213 30.5341 34.2636 30.5341 34.0001C30.5341 33.6466 30.3937 33.3076 30.1437 33.0577C29.8938 32.8078 29.5548 32.6673 29.2014 32.6673Z" fill="white"/>
<path d="M38.7971 42.2628C38.1118 42.2628 37.4418 42.0596 36.872 41.6788C36.3022 41.2981 35.858 40.7569 35.5958 40.1238C35.3335 39.4906 35.2649 38.7939 35.3986 38.1218C35.5323 37.4496 35.8623 36.8322 36.3469 36.3476C36.8315 35.863 37.4489 35.533 38.1211 35.3993C38.7932 35.2656 39.4899 35.3343 40.1231 35.5965C40.7562 35.8588 41.2974 36.3029 41.6781 36.8727C42.0589 37.4425 42.2621 38.1125 42.2621 38.7978C42.2607 39.7163 41.8952 40.5969 41.2457 41.2464C40.5962 41.8959 39.7156 42.2614 38.7971 42.2628ZM38.7971 37.4651C38.5335 37.4651 38.2758 37.5432 38.0567 37.6897C37.8375 37.8361 37.6667 38.0443 37.5658 38.2878C37.465 38.5313 37.4386 38.7993 37.49 39.0578C37.5414 39.3163 37.6683 39.5538 37.8547 39.7401C38.0411 39.9265 38.2786 40.0535 38.5371 40.1049C38.7956 40.1563 39.0636 40.1299 39.3071 40.029C39.5506 39.9282 39.7587 39.7573 39.9052 39.5382C40.0516 39.319 40.1298 39.0614 40.1298 38.7978C40.1298 38.4443 39.9894 38.1053 39.7394 37.8554C39.4895 37.6055 39.1505 37.4651 38.7971 37.4651Z" fill="white"/>
<path d="M48.3928 27.8695C47.7075 27.8695 47.0375 27.6663 46.4677 27.2855C45.8979 26.9048 45.4538 26.3636 45.1915 25.7305C44.9292 25.0973 44.8606 24.4006 44.9943 23.7285C45.128 23.0563 45.458 22.4389 45.9426 21.9543C46.4272 21.4697 47.0446 21.1397 47.7168 21.006C48.3889 20.8723 49.0856 20.9409 49.7188 21.2032C50.3519 21.4655 50.8931 21.9096 51.2738 22.4794C51.6546 23.0492 51.8578 23.7191 51.8578 24.4045C51.8564 25.323 51.4909 26.2035 50.8414 26.8531C50.1919 27.5026 49.3113 27.8681 48.3928 27.8695ZM48.3928 23.0718C48.1292 23.0718 47.8715 23.1499 47.6524 23.2964C47.4332 23.4428 47.2624 23.651 47.1615 23.8945C47.0607 24.138 47.0343 24.406 47.0857 24.6645C47.1371 24.923 47.264 25.1604 47.4504 25.3468C47.6368 25.5332 47.8743 25.6601 48.1328 25.7116C48.3913 25.763 48.6593 25.7366 48.9028 25.6357C49.1463 25.5349 49.3544 25.364 49.5009 25.1449C49.6473 24.9257 49.7255 24.6681 49.7255 24.4045C49.7255 24.051 49.5851 23.712 49.3351 23.4621C49.0852 23.2122 48.7462 23.0718 48.3928 23.0718Z" fill="white"/>
</svg>
