<svg width="27" height="26" viewBox="0 0 27 26" fill="none" xmlns="http://www.w3.org/2000/svg">
<path fill-rule="evenodd" clip-rule="evenodd" d="M2.25 2.09375C2.09467 2.09375 1.96875 2.21967 1.96875 2.375V22.625C1.96875 22.7803 2.09467 22.9062 2.25 22.9062H15.75C16.216 22.9062 16.5938 23.284 16.5938 23.75C16.5938 24.216 16.216 24.5938 15.75 24.5938H2.25C1.16269 24.5938 0.28125 23.7123 0.28125 22.625V2.375C0.28125 1.28769 1.16269 0.40625 2.25 0.40625H24.75C25.8373 0.40625 26.7188 1.28769 26.7188 2.375V14.75C26.7188 15.216 26.341 15.5938 25.875 15.5938C25.409 15.5938 25.0312 15.216 25.0312 14.75V2.375C25.0312 2.21967 24.9053 2.09375 24.75 2.09375H2.25Z" fill="white"/>
<path fill-rule="evenodd" clip-rule="evenodd" d="M4.5 0.40625C4.96599 0.40625 5.34375 0.78401 5.34375 1.25V4.625C5.34375 5.09099 4.96599 5.46875 4.5 5.46875H1.125C0.65901 5.46875 0.28125 5.09099 0.28125 4.625C0.28125 4.15901 0.65901 3.78125 1.125 3.78125H3.65625V1.25C3.65625 0.78401 4.03401 0.40625 4.5 0.40625Z" fill="white"/>
<path fill-rule="evenodd" clip-rule="evenodd" d="M3.65625 3.78125H26.7188V5.46875H3.65625V3.78125ZM3.65625 7.15625H23.3438V12.2188H3.65625V7.15625ZM5.34375 8.84375V10.5312H21.6562V8.84375H5.34375Z" fill="white"/>
<path fill-rule="evenodd" clip-rule="evenodd" d="M3.65625 13.9062H10.9688V21.2188H3.65625V13.9062ZM5.34375 15.5938V19.5312H9.28125V15.5938H5.34375Z" fill="white"/>
<path fill-rule="evenodd" clip-rule="evenodd" d="M14.6365 13.6365C14.8852 13.3878 15.2621 13.3195 15.5823 13.465L26.0616 18.2284C26.3775 18.3719 26.5733 18.6942 26.5551 19.0407C26.5369 19.3872 26.3085 19.6872 25.9793 19.7969L22.0925 21.0925L20.7969 24.9793C20.6872 25.3085 20.3872 25.5369 20.0407 25.5551C19.6942 25.5733 19.3719 25.3775 19.2284 25.0616L14.465 14.5823C14.3195 14.2621 14.3878 13.8852 14.6365 13.6365ZM19.8755 22.4073L20.625 20.1587C20.709 19.9067 20.9067 19.709 21.1587 19.625L23.4073 18.8755L16.9323 15.9323L19.8755 22.4073Z" fill="white"/>
</svg>
