<svg width="43" height="43" viewBox="0 0 43 43" fill="none" xmlns="http://www.w3.org/2000/svg">
<g clip-path="url(#clip0_401_8735)">
<path d="M27.7077 26.6013H15.635C15.4077 26.6013 15.1823 26.5558 14.972 26.4706C14.7617 26.3834 14.5723 26.2565 14.4113 26.0955C14.2503 25.9345 14.1233 25.7431 14.0362 25.5348C13.9491 25.3245 13.9036 25.0991 13.9036 24.8717V17.7623H12.4582C12.121 17.7585 11.7914 17.6562 11.511 17.4667C11.2307 17.2773 11.0128 17.0102 10.8821 16.6995C10.7514 16.387 10.7154 16.0441 10.7779 15.7126C10.8404 15.3811 10.9996 15.0742 11.2345 14.8317L20.4523 5.57026C20.7782 5.24443 21.2196 5.06068 21.6799 5.05878C22.1345 5.05689 22.5721 5.23117 22.8998 5.54942L32.1158 14.8071C32.3507 15.0496 32.5098 15.3564 32.5724 15.688C32.6349 16.0195 32.5989 16.3623 32.4682 16.6749C32.3375 16.9875 32.1196 17.2546 31.8392 17.4421C31.5589 17.6316 31.2293 17.7338 30.8921 17.7376H29.4467V24.8547C29.4467 25.3169 29.2629 25.7583 28.9371 26.086C28.6113 26.4118 28.1699 26.5975 27.7077 26.5975V26.6013ZM21.6704 6.54206C21.6401 6.54206 21.6098 6.54774 21.5814 6.55911C21.553 6.57047 21.5283 6.58752 21.5056 6.60836L12.2915 15.8679C12.2593 15.9001 12.2366 15.9418 12.2271 15.9854C12.2176 16.0308 12.2233 16.0763 12.2404 16.118C12.2574 16.1596 12.2877 16.1956 12.3256 16.2222C12.3635 16.2468 12.409 16.26 12.4544 16.26H14.65C14.8489 16.26 15.0402 16.3396 15.1804 16.4798C15.3206 16.62 15.4001 16.8113 15.4001 17.0102V24.8566C15.4001 24.9172 15.4248 24.9759 15.4683 25.0195C15.5119 25.0631 15.5706 25.0877 15.6312 25.0877H27.7096C27.7702 25.0877 27.8289 25.0631 27.8725 25.0195C27.9161 24.9759 27.9407 24.9172 27.9407 24.8566V17.0102C27.9407 16.9117 27.9596 16.8151 27.9975 16.7242C28.0354 16.6332 28.0903 16.5499 28.1604 16.4817C28.2305 16.4116 28.312 16.3567 28.4029 16.3188C28.4938 16.2809 28.5923 16.2619 28.689 16.2619H30.8845C30.93 16.2619 30.9754 16.2487 31.0133 16.2241C31.0512 16.1994 31.0815 16.1634 31.0986 16.1199C31.1175 16.0782 31.1213 16.0308 31.1118 15.9873C31.1023 15.9418 31.0796 15.902 31.0474 15.8698L21.8314 6.60836C21.8106 6.58752 21.786 6.57047 21.7594 6.55721C21.7329 6.54585 21.7026 6.54016 21.6723 6.54016L21.6704 6.54206Z" fill="white"/>
<path d="M28.832 28.8915C28.9911 28.8915 29.1426 28.9541 29.2563 29.0677C29.3681 29.1795 29.4325 29.3329 29.4325 29.492V32.1688C29.4325 32.3279 29.3699 32.4794 29.2563 32.5931C29.1445 32.7049 28.9911 32.7693 28.832 32.7693C28.6728 32.7693 28.5213 32.7068 28.4076 32.5931C28.2959 32.4813 28.2314 32.3279 28.2314 32.1688V29.492C28.2314 29.3329 28.294 29.1814 28.4076 29.0677C28.5194 28.9559 28.6728 28.8915 28.832 28.8915Z" fill="white"/>
<path d="M25.2493 28.8915C25.4047 28.8953 25.5543 28.9616 25.6623 29.0734C25.7703 29.1852 25.8328 29.3348 25.8309 29.4921V33.6236C25.8309 33.7827 25.7684 33.9343 25.6547 34.048C25.543 34.1597 25.3895 34.2241 25.2304 34.2241C25.0713 34.2241 24.9197 34.1616 24.8061 34.048C24.6943 33.9362 24.6299 33.7827 24.6299 33.6236V29.4921C24.6299 29.4125 24.645 29.3329 24.6772 29.259C24.7076 29.1852 24.7549 29.1189 24.8117 29.062C24.8686 29.0052 24.9368 28.9616 25.0125 28.9332C25.0864 28.9048 25.166 28.8897 25.2474 28.8915H25.2493Z" fill="white"/>
<path d="M18.0806 28.8915C18.1602 28.8915 18.2379 28.9086 18.3099 28.9408C18.3818 28.973 18.4462 29.0185 18.5012 29.0753C18.5618 29.134 18.6111 29.2041 18.6414 29.2837C18.6717 29.3632 18.6868 29.4466 18.6811 29.5318V35.1126C18.6811 35.2717 18.6186 35.4232 18.505 35.5369C18.3932 35.6487 18.2398 35.7131 18.0806 35.7131C17.9215 35.7131 17.77 35.6506 17.6563 35.5369C17.5445 35.4251 17.4801 35.2717 17.4801 35.1126V29.5318C17.4763 29.4504 17.4896 29.3689 17.5161 29.2931C17.5426 29.2174 17.5881 29.1473 17.643 29.0886C17.6999 29.0298 17.7662 28.9825 17.8419 28.9503C17.9158 28.9181 17.9973 28.901 18.0787 28.901V28.8934L18.0806 28.8915Z" fill="white"/>
<path d="M14.5195 28.8915C14.5991 28.8915 14.6767 28.9086 14.7487 28.9408C14.8207 28.973 14.8851 29.0185 14.9401 29.0753C14.9969 29.1359 15.0424 29.2079 15.0689 29.2856C15.0973 29.3651 15.1068 29.4485 15.0992 29.5318V31.2405C15.0992 31.3997 15.0367 31.5512 14.923 31.6649C14.8112 31.7766 14.6578 31.841 14.4987 31.841C14.3395 31.841 14.188 31.7785 14.0743 31.6649C13.9626 31.5531 13.8982 31.3997 13.8982 31.2405V29.5318C13.8944 29.4504 13.9057 29.3689 13.9342 29.2931C13.9626 29.2174 14.0061 29.1473 14.0611 29.0886C14.1198 29.026 14.1899 28.9749 14.2695 28.9427C14.349 28.9086 14.4324 28.8915 14.5176 28.8934L14.5195 28.8915Z" fill="white"/>
<path d="M21.6633 28.8915C21.7409 28.8915 21.8186 28.9067 21.8906 28.9351C21.9626 28.9654 22.027 29.009 22.0819 29.0639C22.1937 29.1738 22.2562 29.3253 22.2581 29.4826V37.9749C22.2581 38.134 22.1956 38.2856 22.0819 38.3993C21.9702 38.511 21.8167 38.5754 21.6576 38.5754C21.4985 38.5754 21.3469 38.5129 21.2333 38.3993C21.1215 38.2875 21.0571 38.134 21.0571 37.9749V29.5337C21.0514 29.4504 21.0628 29.3689 21.0912 29.2912C21.1196 29.2136 21.1632 29.1416 21.22 29.0829C21.2768 29.0223 21.3431 28.9749 21.4189 28.9408C21.4947 28.9086 21.5761 28.8915 21.6595 28.8934L21.6633 28.8915Z" fill="white"/>
<path d="M25.2433 36.2567C25.571 36.2567 25.8381 35.9896 25.8381 35.6619C25.8381 35.3342 25.571 35.0671 25.2433 35.0671C24.9155 35.0671 24.6484 35.3342 24.6484 35.6619C24.6484 35.9896 24.9155 36.2567 25.2433 36.2567Z" fill="white"/>
<path d="M14.4991 33.8017C14.8268 33.8017 15.0939 33.5346 15.0939 33.2068C15.0939 32.8791 14.8268 32.612 14.4991 32.612C14.1714 32.612 13.9043 32.8791 13.9043 33.2068C13.9043 33.5346 14.1714 33.8017 14.4991 33.8017Z" fill="white"/>
</g>
<defs>
<clipPath id="clip0_401_8735">
<rect width="21.8513" height="33.5147" fill="white" transform="translate(10.75 5.05881)"/>
</clipPath>
</defs>
</svg>
