<svg width="206" height="27" viewBox="0 0 206 27" fill="none" xmlns="http://www.w3.org/2000/svg">
<path d="M38.7603 8.14291V11.1723H37.5643C36.2308 11.1723 35.2806 12.1133 35.2806 13.7807V19.7073H32.4219V8.40292H35.2806V10.029C35.514 9.46472 35.9134 8.98301 36.427 8.64662C36.9406 8.31022 37.5445 8.13471 38.1602 8.14291H38.7603Z" fill="#3E3B41"/>
<path d="M49.9704 14.6846H41.9275C42.1026 16.678 43.1777 17.5736 44.6321 17.5736C45.9865 17.5736 46.9616 16.9587 47.5492 15.4234L49.9621 16.3025C49.6275 17.4032 48.933 18.3627 47.9878 19.0298C47.0426 19.697 45.9003 20.0341 44.7405 19.9881C41.3733 19.9881 39.0229 17.619 39.0229 14.0614C39.0229 10.5037 41.3275 8.15948 44.6071 8.15948C47.7743 8.15948 49.9912 10.5285 49.9912 14.0408C49.998 14.2556 49.9911 14.4706 49.9704 14.6846ZM42.0151 12.7489H47.0908C46.7783 11.1517 45.874 10.4253 44.5904 10.4253C43.2111 10.4253 42.3276 11.193 42.0151 12.7489Z" fill="#3E3B41"/>
<path d="M61.4083 12.5959V19.7071H58.7454V18.6092C58.0578 19.5131 56.8868 19.9712 55.3782 19.9712C52.7195 19.9712 50.9692 18.6546 50.9692 16.4342C50.9692 14.3087 52.7862 12.9219 55.5783 12.9219C56.6604 12.8621 57.7242 13.2168 58.5495 13.9125V12.8807C58.5495 11.3701 57.6619 10.6685 56.1783 10.6685C55.6124 10.6458 55.055 10.8104 54.594 11.1362C54.133 11.462 53.7946 11.9306 53.6321 12.4679L51.2568 11.4774C52.0319 9.08777 54.0322 8.14264 56.2867 8.14264C59.0371 8.14264 61.4083 9.54589 61.4083 12.5959ZM58.6121 16.4136C58.6121 15.4478 57.6619 14.903 56.2659 14.903C54.8698 14.903 53.9155 15.4519 53.9155 16.4136C53.9155 17.3752 54.8657 17.9076 56.2659 17.9076C57.6661 17.9076 58.6121 17.3793 58.6121 16.4136Z" fill="#3E3B41"/>
<path d="M66.5935 19.7074C64.489 19.7074 63.293 18.4362 63.293 16.3726V4.34183H66.1517V16.1952C66.1517 16.8968 66.4601 17.2682 67.1477 17.2682H67.9812V19.7033H66.5851L66.5935 19.7074Z" fill="#3E3B41"/>
<path d="M79.4482 14.6844H71.4053C71.5804 16.6778 72.6555 17.5734 74.1057 17.5734C75.4601 17.5734 76.4353 16.9584 77.0228 15.4231L79.4399 16.3022C79.1047 17.4026 78.4101 18.3616 77.465 19.0287C76.5199 19.6958 75.3779 20.0331 74.2183 19.9878C70.8469 19.9878 68.4966 17.6188 68.4966 14.0611C68.4966 10.5035 70.8053 8.15924 74.0849 8.15924C77.252 8.15924 79.469 10.5283 79.469 14.0405C79.4758 14.2553 79.4689 14.4704 79.4482 14.6844ZM71.4762 12.7487H76.5478C76.2394 11.1515 75.3309 10.4251 74.0682 10.4251C72.6889 10.4251 71.8012 11.1927 71.4762 12.7487Z" fill="#3E3B41"/>
<path d="M80.3374 16.2201L82.6419 15.473C82.9711 16.9671 84.1255 17.6935 85.559 17.6935C86.8425 17.6935 87.6426 17.2808 87.6426 16.5956C87.6426 15.9105 87.0217 15.6505 85.6215 15.2997L84.4963 15.0356C81.8585 14.4041 80.7458 13.3063 80.7458 11.5233C80.7458 9.50511 82.5419 8.14313 85.3298 8.14313C87.9885 8.14313 89.9597 9.52574 90.268 11.7875L87.901 12.4024C87.6551 11.0198 86.6133 10.4502 85.3298 10.4502C84.2005 10.4502 83.467 10.8918 83.467 11.4614C83.467 12.1878 84.3005 12.4272 85.659 12.7532L86.7675 13.0421C89.1804 13.6117 90.3805 14.7549 90.3805 16.4636C90.3805 18.5272 88.4719 19.9758 85.5715 19.9758C83.1462 19.9882 80.9583 18.8078 80.3374 16.2201Z" fill="#3E3B41"/>
<path d="M98.2232 10.6646H95.677V15.6461C95.677 16.7192 96.1188 17.2681 97.0064 17.2681H98.2232V19.7032H96.648C94.2101 19.7032 92.8141 18.1926 92.8141 15.7782V10.6646H90.7305V8.4029H92.8141V6.23199L95.6729 4.67191V8.38639H98.2191V10.6481L98.2232 10.6646Z" fill="#3E3B41"/>
<path d="M109.4 12.5964V19.7076H106.733V18.6097C106.046 19.5136 104.875 19.9717 103.366 19.9717C100.707 19.9717 98.957 18.6551 98.957 16.4347C98.957 14.3092 100.774 12.9224 103.566 12.9224C104.648 12.8626 105.712 13.2173 106.537 13.913V12.8812C106.537 11.3706 105.65 10.669 104.166 10.669C103.6 10.6463 103.043 10.8109 102.582 11.1367C102.121 11.4625 101.782 11.9311 101.62 12.4684L99.2446 11.4779C100.02 9.08826 102.016 8.14313 104.274 8.14313C107.021 8.14313 109.4 9.54637 109.4 12.5964ZM106.604 16.414C106.604 15.4483 105.654 14.9035 104.258 14.9035C102.862 14.9035 101.899 15.4483 101.899 16.414C101.899 17.3798 102.849 17.9081 104.249 17.9081C105.65 17.9081 106.6 17.3798 106.6 16.414H106.604Z" fill="#3E3B41"/>
<path d="M117.638 10.6646H115.092V15.6461C115.092 16.7192 115.534 17.2681 116.421 17.2681H117.638V19.7032H116.067C113.629 19.7032 112.233 18.1926 112.233 15.7782V10.6646H110.149V8.4029H112.233V6.23199L115.092 4.67191V8.38639H117.638V10.6481V10.6646Z" fill="#3E3B41"/>
<path d="M129.227 14.6844H121.184C121.359 16.6778 122.434 17.5734 123.888 17.5734C125.243 17.5734 126.218 16.9584 126.805 15.4231L129.218 16.3022C128.883 17.4051 128.187 18.3661 127.239 19.0335C126.291 19.7009 125.146 20.0367 123.984 19.9878C120.617 19.9878 118.267 17.6188 118.267 14.0611C118.267 10.5035 120.571 8.15924 123.851 8.15924C127.018 8.15924 129.235 10.5283 129.235 14.0405C129.246 14.2551 129.243 14.4701 129.227 14.6844ZM121.271 12.7487H126.347C126.034 11.1515 125.13 10.4251 123.847 10.4251C122.467 10.4251 121.584 11.1927 121.271 12.7487Z" fill="#3E3B41"/>
<path d="M130.235 18.0649C130.244 17.6964 130.362 17.3388 130.575 17.0364C130.788 16.7341 131.086 16.5005 131.432 16.3647C131.778 16.2289 132.156 16.1969 132.521 16.2727C132.885 16.3486 133.218 16.5289 133.48 16.7912C133.741 17.0535 133.919 17.3862 133.991 17.7478C134.063 18.1095 134.025 18.484 133.884 18.8249C133.742 19.1657 133.503 19.4578 133.194 19.6646C132.886 19.8715 132.524 19.984 132.152 19.9882C131.895 20.0002 131.638 19.9585 131.398 19.8658C131.158 19.7731 130.941 19.6314 130.76 19.45C130.579 19.2686 130.439 19.0515 130.349 18.8128C130.258 18.5742 130.219 18.3194 130.235 18.0649Z" fill="#3E3B41"/>
<path d="M134.993 14.0445C134.993 10.5117 137.494 8.14264 140.711 8.14264C143.24 8.14264 145.411 9.3808 146.166 12.1584L143.636 13.0581C143.082 11.3247 142.153 10.6437 140.719 10.6437C139.285 10.6437 137.948 11.7663 137.948 14.0445C137.948 16.3228 139.277 17.4454 140.719 17.4454C142.161 17.4454 143.09 16.785 143.636 15.0557L146.166 15.9554C145.411 18.7207 143.249 19.9712 140.711 19.9712C137.477 19.9877 134.993 17.5816 134.993 14.0445Z" fill="#3E3B41"/>
<path d="M146.907 14.0445C146.907 10.5571 149.408 8.14264 152.783 8.14264C156.159 8.14264 158.696 10.5571 158.696 14.0445C158.696 17.532 156.196 19.9712 152.783 19.9712C149.37 19.9712 146.907 17.5568 146.907 14.0445ZM155.775 14.0445C155.775 11.8943 154.488 10.6644 152.783 10.6644C151.079 10.6644 149.837 11.9025 149.837 14.0445C149.837 16.1866 151.087 17.4701 152.783 17.4701C154.479 17.4701 155.763 16.2196 155.763 14.0445H155.775Z" fill="#3E3B41"/>
<path d="M176.527 12.2453V19.7073H173.668V12.8148C173.668 11.3868 172.914 10.5985 171.897 10.5985C170.68 10.5985 169.792 11.424 169.792 12.9015V19.7073H166.934V12.8148C166.934 11.3868 166.179 10.5985 165.162 10.5985C163.941 10.5985 163.058 11.424 163.058 12.9015V19.7073H160.199V8.40285H163.058V9.81022C163.34 9.28655 163.767 8.85324 164.289 8.56092C164.811 8.26859 165.406 8.12931 166.004 8.15934C166.668 8.14069 167.324 8.3053 167.899 8.63475C168.474 8.9642 168.945 9.4455 169.259 10.0248C169.947 8.70826 171.143 8.15934 172.593 8.15934C174.826 8.14283 176.527 9.76483 176.527 12.2453Z" fill="#3E3B41"/>
<path d="M177.969 18.0647C177.975 17.6951 178.092 17.3356 178.304 17.0314C178.516 16.7271 178.814 16.4916 179.16 16.3542C179.507 16.2169 179.887 16.1839 180.252 16.2594C180.617 16.3349 180.952 16.5154 181.214 16.7785C181.476 17.0416 181.654 17.3755 181.726 17.7383C181.797 18.1011 181.759 18.4767 181.616 18.818C181.473 19.1594 181.231 19.4513 180.921 19.6572C180.611 19.8631 180.247 19.9739 179.873 19.9756C179.618 19.9857 179.364 19.943 179.127 19.8502C178.889 19.7574 178.674 19.6166 178.495 19.4367C178.316 19.2569 178.176 19.0419 178.086 18.8057C177.995 18.5694 177.955 18.317 177.969 18.0647Z" fill="#3E3B41"/>
<path d="M193.194 12.5959V19.7071H190.531V18.6092C189.843 19.5131 188.672 19.9712 187.164 19.9712C184.505 19.9712 182.755 18.6546 182.755 16.4342C182.755 14.3087 184.572 12.9219 187.364 12.9219C188.446 12.8621 189.51 13.2168 190.335 13.9125V12.8807C190.335 11.3701 189.448 10.6685 187.964 10.6685C187.398 10.6451 186.84 10.8094 186.379 11.1353C185.918 11.4613 185.58 11.9302 185.418 12.4679L183.042 11.4774C183.818 9.08777 185.814 8.14264 188.072 8.14264C190.819 8.14264 193.194 9.54589 193.194 12.5959ZM190.398 16.4136C190.398 15.4478 189.448 14.903 188.051 14.903C186.655 14.903 185.701 15.4519 185.701 16.4136C185.701 17.3752 186.651 17.9076 188.051 17.9076C189.452 17.9076 190.398 17.3793 190.398 16.4136Z" fill="#3E3B41"/>
<path d="M194.942 15.1633V8.40289H197.826V15.0064C197.826 16.6945 198.73 17.4827 199.972 17.4827C201.214 17.4827 202.122 16.7151 202.122 15.0064V8.40289H205.002V15.1633C205.002 18.1926 202.856 19.9715 199.972 19.9715C197.088 19.9715 194.942 18.1926 194.942 15.1633Z" fill="#3E3B41"/>
<path d="M0.000205464 13.4258C-0.0145946 16.096 0.770477 18.7105 2.25613 20.9388C3.74179 23.1671 5.86129 24.909 8.34658 25.9442C10.8319 26.9794 13.5713 27.2614 16.2185 26.7546C18.8656 26.2478 21.3016 24.9749 23.2182 23.0969C25.1348 21.2189 26.4461 18.8201 26.9862 16.204C27.5262 13.5879 27.2708 10.8719 26.2522 8.39959C25.2336 5.92726 23.4975 3.80962 21.2636 2.31449C19.0298 0.819367 16.3984 0.0139179 13.7022 0H13.6272C10.0257 0.00103645 6.57094 1.41364 4.01764 3.92923C1.46434 6.44483 0.0200242 9.85896 0.000205464 13.4258Z" fill="#E4002B"/>
<path d="M18.5117 21.3664H8.96865C8.60614 21.3664 8.25847 21.2238 8.00213 20.97C7.74579 20.7161 7.60178 20.3718 7.60178 20.0127V14.4616H6.46828C6.19871 14.4609 5.93537 14.3813 5.71137 14.2328C5.48737 14.0842 5.31273 13.8734 5.20939 13.6268C5.10606 13.3802 5.07865 13.1089 5.13062 12.8469C5.18259 12.585 5.31162 12.3441 5.50147 12.1545L12.7776 4.91541C12.9039 4.78862 13.0545 4.68796 13.2204 4.61925C13.3864 4.55055 13.5645 4.51517 13.7444 4.51517C13.9242 4.51517 14.1023 4.55055 14.2683 4.61925C14.4343 4.68796 14.5848 4.78862 14.7112 4.91541L21.9831 12.1463C22.1729 12.3358 22.302 12.5767 22.3539 12.8387C22.4059 13.1007 22.3785 13.372 22.2752 13.6186C22.1718 13.8652 21.9972 14.076 21.7732 14.2245C21.5492 14.3731 21.2859 14.4527 21.0163 14.4534H19.8703V20.0045C19.873 20.1827 19.8399 20.3597 19.7728 20.5251C19.7058 20.6905 19.6061 20.841 19.4796 20.9678C19.3531 21.0946 19.2024 21.1952 19.0362 21.2636C18.87 21.3321 18.6917 21.367 18.5117 21.3664ZM13.7444 5.68307C13.6965 5.68264 13.6503 5.70036 13.6152 5.7326L6.3391 12.9717C6.31414 12.9967 6.29726 13.0285 6.29058 13.0631C6.2839 13.0976 6.28773 13.1333 6.30159 13.1657C6.31518 13.1993 6.33884 13.228 6.36938 13.2479C6.39992 13.2679 6.43589 13.278 6.47245 13.2771H8.20604C8.36264 13.2782 8.51253 13.3403 8.62327 13.45C8.73401 13.5596 8.7967 13.7081 8.79779 13.8632V20.0003C8.79779 20.0485 8.81711 20.0947 8.8515 20.1288C8.88589 20.1628 8.93252 20.1819 8.98115 20.1819H18.5159C18.5645 20.1819 18.6112 20.1628 18.6456 20.1288C18.68 20.0947 18.6993 20.0485 18.6993 20.0003V13.8756C18.7004 13.7205 18.7631 13.572 18.8738 13.4624C18.9845 13.3527 19.1344 13.2906 19.291 13.2895H21.0246C21.0612 13.2904 21.0971 13.2802 21.1277 13.2603C21.1582 13.2404 21.1819 13.2117 21.1955 13.1781C21.2093 13.1457 21.2132 13.11 21.2065 13.0754C21.1998 13.0409 21.1829 13.0091 21.158 12.9841L13.8735 5.74085C13.8564 5.72451 13.8362 5.71173 13.814 5.70323C13.7918 5.69472 13.7681 5.69067 13.7444 5.69132V5.68307Z" fill="white"/>
</svg>
