<svg width="35" height="35" viewBox="0 0 35 35" fill="none" xmlns="http://www.w3.org/2000/svg">
<circle cx="17.5" cy="17.5" r="17.5" fill="#3E3B41"/>
<path d="M12.0753 25.5214H7.73429C7.73429 25.5214 7.7197 25.5214 7.7197 25.5117C7.7197 25.5068 7.7197 25.4971 7.7197 25.4922L12.0364 20.3151H7.73429C7.73429 20.3151 7.71484 20.3054 7.71484 20.2957C7.71484 20.286 7.72457 20.2762 7.73429 20.2762H12.0753C12.0753 20.2762 12.0898 20.2762 12.0898 20.286C12.0898 20.2908 12.0898 20.3005 12.0898 20.3054L7.77318 25.4825H12.0753C12.0753 25.4825 12.0947 25.4922 12.0947 25.5019C12.0947 25.5117 12.085 25.5214 12.0753 25.5214Z" stroke="white" stroke-width="1.7" stroke-linecap="round" stroke-linejoin="round"/>
<path d="M19.8878 20.3152H15.5468C15.5468 20.3152 15.5322 20.3152 15.5322 20.3055C15.5322 20.3006 15.5322 20.2909 15.5322 20.286L19.8489 15.109H15.5468C15.5468 15.109 15.5273 15.0992 15.5273 15.0895C15.5273 15.0798 15.5371 15.0701 15.5468 15.0701H19.8878C19.8878 15.0701 19.9023 15.0701 19.9023 15.0798C19.9023 15.0847 19.9023 15.0944 19.9023 15.0992L15.5857 20.2763H19.8878C19.8878 20.2763 19.9072 20.286 19.9072 20.2958C19.9072 20.3055 19.8975 20.3152 19.8878 20.3152Z" stroke="white" stroke-width="1.7" stroke-linecap="round" stroke-linejoin="round"/>
<path d="M27.6964 15.1088H23.3554C23.3554 15.1088 23.3408 15.1088 23.3408 15.0991C23.3408 15.0942 23.3408 15.0845 23.3408 15.0796L27.6575 9.90254H23.3554C23.3554 9.90254 23.3359 9.89281 23.3359 9.88309C23.3359 9.87337 23.3457 9.86365 23.3554 9.86365H27.6964C27.6964 9.86365 27.7109 9.86365 27.7109 9.87337C27.7109 9.87823 27.7109 9.88795 27.7109 9.89281L23.3943 15.0699H27.6964C27.6964 15.0699 27.7158 15.0796 27.7158 15.0893C27.7158 15.0991 27.7061 15.1088 27.6964 15.1088Z" stroke="white" stroke-width="1.7" stroke-linecap="round" stroke-linejoin="round"/>
</svg>
