<svg width="24" height="37" viewBox="0 0 24 37" fill="none" xmlns="http://www.w3.org/2000/svg">
<g clip-path="url(#clip0_425_5870)">
<path d="M18.2774 23.2197H5.26865C5.02359 23.2197 4.77853 23.1788 4.55389 23.0767C4.32925 22.9746 4.12503 22.8521 3.94123 22.6683C3.75743 22.4845 3.6349 22.2802 3.53279 22.0556C3.43069 21.831 3.38984 21.5859 3.38984 21.3408V13.7031H1.83778C1.47019 13.7031 1.12302 13.5805 0.816687 13.3763C0.51036 13.1721 0.285719 12.8862 0.142766 12.539C-0.000186807 12.2123 -0.0410305 11.8447 0.0406569 11.4771C0.101922 11.1095 0.285719 10.7827 0.530781 10.5173L10.4558 0.55139C10.803 0.204219 11.2931 0 11.7832 0C12.2733 0 12.7431 0.183797 13.0902 0.530968L23.0357 10.5173C23.2807 10.7827 23.4645 11.1095 23.5258 11.4771C23.5871 11.8447 23.5462 12.2123 23.4237 12.539C23.2807 12.8658 23.0561 13.1721 22.7498 13.3763C22.4434 13.5805 22.0963 13.6826 21.7287 13.7031H20.1766V21.3817C20.1766 21.8718 19.9724 22.3619 19.6252 22.7091C19.2576 23.0154 18.7879 23.2197 18.2774 23.2197ZM11.7832 1.5929C11.7424 1.5929 11.722 1.5929 11.6811 1.61333C11.6403 1.63375 11.6198 1.65417 11.5994 1.67459L1.65398 11.6609C1.61314 11.7017 1.59272 11.7426 1.59272 11.7834C1.59272 11.8243 1.59272 11.8855 1.61314 11.9264C1.63356 11.9672 1.65398 12.0081 1.71525 12.0285C1.75609 12.0489 1.79694 12.0693 1.8582 12.0693H4.22714C4.43136 12.0693 4.656 12.151 4.79895 12.3144C4.9419 12.4573 5.04401 12.6616 5.04401 12.8862V21.3408C5.04401 21.4021 5.06443 21.4634 5.1257 21.5246C5.18696 21.5859 5.22781 21.6063 5.3095 21.6063H18.3386C18.3999 21.6063 18.4612 21.5859 18.5224 21.5246C18.5633 21.4838 18.6041 21.4225 18.6041 21.3408V12.8862C18.6041 12.7841 18.6245 12.682 18.6654 12.5799C18.7062 12.4778 18.7675 12.3961 18.8492 12.3144C18.9309 12.2327 19.0126 12.1714 19.1147 12.1306C19.2168 12.0897 19.3189 12.0693 19.421 12.0693H21.7899C21.8308 12.0693 21.892 12.0489 21.9329 12.0285C21.9737 12.0081 22.0146 11.9672 22.0146 11.9264C22.035 11.8855 22.035 11.8243 22.035 11.7834C22.035 11.7426 21.9942 11.6813 21.9737 11.6609L11.9466 1.67459C11.9262 1.65417 11.9058 1.63375 11.8649 1.61333C11.8445 1.61333 11.8036 1.5929 11.7832 1.5929Z" fill="white"/>
<path d="M19.4827 25.6907C19.6461 25.6907 19.8094 25.7519 19.932 25.8745C20.0545 25.997 20.1158 26.1604 20.1158 26.3237V29.2032C20.1158 29.3666 20.0545 29.53 19.932 29.6525C19.8094 29.775 19.6461 29.8363 19.4827 29.8363C19.3193 29.8363 19.1559 29.775 19.0334 29.6525C18.9109 29.53 18.8496 29.3666 18.8496 29.2032V26.3442C18.8496 26.1808 18.9109 26.0174 19.0334 25.8949C19.1559 25.7519 19.3193 25.6907 19.4827 25.6907Z" fill="white"/>
<path d="M15.6233 25.6907C15.7867 25.6907 15.9501 25.7724 16.0726 25.8949C16.1951 26.0174 16.2564 26.1808 16.2564 26.3442V30.7961C16.2564 30.9595 16.1951 31.1229 16.0726 31.2454C15.9501 31.3679 15.7867 31.4292 15.6233 31.4292C15.4599 31.4292 15.2966 31.3679 15.174 31.2454C15.0515 31.1229 14.9902 30.9595 14.9902 30.7961V26.3442C14.9902 26.2625 15.0107 26.1808 15.0311 26.0991C15.0719 26.0174 15.1128 25.9562 15.174 25.8949C15.2353 25.8336 15.317 25.7928 15.3987 25.7519C15.4599 25.7111 15.5416 25.6907 15.6233 25.6907Z" fill="white"/>
<path d="M7.90359 25.6907C7.98527 25.6907 8.06696 25.7111 8.14865 25.7519C8.23034 25.7928 8.2916 25.8336 8.35287 25.8949C8.41413 25.9562 8.4754 26.0378 8.49582 26.1195C8.53666 26.2012 8.53666 26.3033 8.53666 26.385V32.4095C8.53666 32.5728 8.4754 32.7362 8.35287 32.8587C8.23034 32.9813 8.06696 33.0425 7.90359 33.0425C7.74021 33.0425 7.57684 32.9813 7.4543 32.8587C7.33177 32.7362 7.27051 32.5728 7.27051 32.4095V26.385C7.27051 26.3033 7.27051 26.2012 7.31135 26.1195C7.3522 26.0378 7.39304 25.9562 7.4543 25.8949C7.51557 25.8336 7.59726 25.7724 7.65852 25.7519C7.71979 25.7111 7.8219 25.7111 7.90359 25.6907Z" fill="white"/>
<path d="M4.06374 25.6907C4.14543 25.6907 4.22712 25.7111 4.3088 25.7519C4.39049 25.7928 4.45176 25.8336 4.51302 25.8949C4.57429 25.9562 4.61513 26.0378 4.65598 26.1195C4.6764 26.2012 4.69682 26.3033 4.69682 26.385V28.223C4.69682 28.3864 4.63555 28.5497 4.51302 28.6723C4.39049 28.7948 4.22712 28.8561 4.06374 28.8561C3.90037 28.8561 3.73699 28.7948 3.61446 28.6723C3.49193 28.5497 3.43066 28.3864 3.43066 28.223V26.385C3.43066 26.3033 3.43066 26.2012 3.47151 26.1195C3.49193 26.0378 3.5532 25.9562 3.61446 25.8949C3.67573 25.8336 3.75741 25.7724 3.8391 25.7315C3.87994 25.7111 3.96163 25.6907 4.06374 25.6907Z" fill="white"/>
<path d="M11.763 25.6907C11.8446 25.6907 11.9263 25.7111 12.008 25.7315C12.0897 25.7724 12.151 25.8132 12.2122 25.8745C12.3348 25.997 12.396 26.1604 12.396 26.3237V35.4727C12.396 35.6361 12.3348 35.7995 12.2122 35.922C12.0897 36.0446 11.9263 36.1058 11.763 36.1058C11.5996 36.1058 11.4362 36.0446 11.3137 35.922C11.1911 35.7995 11.1299 35.6361 11.1299 35.4727V26.3646C11.1299 26.2829 11.1299 26.1808 11.1707 26.0991C11.1911 26.0174 11.2524 25.9357 11.3137 25.8745C11.3749 25.8132 11.4566 25.7519 11.5383 25.7315C11.5792 25.7111 11.6813 25.6907 11.763 25.6907Z" fill="white"/>
<path d="M15.6233 33.6348C15.9705 33.6348 16.2564 33.3489 16.2564 33.0017C16.2564 32.6546 15.9705 32.3687 15.6233 32.3687C15.2761 32.3687 14.9902 32.6546 14.9902 33.0017C14.9902 33.3489 15.2761 33.6348 15.6233 33.6348Z" fill="white"/>
<path d="M4.04322 30.9798C4.39039 30.9798 4.6763 30.6939 4.6763 30.3467C4.6763 29.9995 4.39039 29.7136 4.04322 29.7136C3.69605 29.7136 3.41015 29.9995 3.41015 30.3467C3.38972 30.6939 3.69605 30.9798 4.04322 30.9798Z" fill="white"/>
</g>
<defs>
<clipPath id="clip0_425_5870">
<rect width="23.5546" height="36.1058" fill="white"/>
</clipPath>
</defs>
</svg>
